<svg width="448" height="208" viewBox="0 0 448 208" fill="none" xmlns="http://www.w3.org/2000/svg">
<g clip-path="url(#clip0)">
<path d="M0 0H448V208H0V0Z" fill="white"/>
<path d="M0 0L448 -3.91654e-05" stroke="#E3E8EE" stroke-width="2" stroke-linecap="round" stroke-linejoin="round" stroke-dasharray="0.01 16"/>
<path d="M0 16L448 16" stroke="#E3E8EE" stroke-width="2" stroke-linecap="round" stroke-linejoin="round" stroke-dasharray="0.01 16"/>
<path d="M0 32L448 32" stroke="#E3E8EE" stroke-width="2" stroke-linecap="round" stroke-linejoin="round" stroke-dasharray="0.01 16"/>
<path d="M0 48L448 48" stroke="#E3E8EE" stroke-width="2" stroke-linecap="round" stroke-linejoin="round" stroke-dasharray="0.01 16"/>
<path d="M0 64L448 64" stroke="#E3E8EE" stroke-width="2" stroke-linecap="round" stroke-linejoin="round" stroke-dasharray="0.01 16"/>
<path d="M0 80L448 80" stroke="#E3E8EE" stroke-width="2" stroke-linecap="round" stroke-linejoin="round" stroke-dasharray="0.01 16"/>
<path d="M0 96L448 96" stroke="#E3E8EE" stroke-width="2" stroke-linecap="round" stroke-linejoin="round" stroke-dasharray="0.01 16"/>
<path d="M0 112L448 112" stroke="#E3E8EE" stroke-width="2" stroke-linecap="round" stroke-linejoin="round" stroke-dasharray="0.01 16"/>
<path d="M0 128L448 128" stroke="#E3E8EE" stroke-width="2" stroke-linecap="round" stroke-linejoin="round" stroke-dasharray="0.01 16"/>
<path d="M0 144L448 144" stroke="#E3E8EE" stroke-width="2" stroke-linecap="round" stroke-linejoin="round" stroke-dasharray="0.01 16"/>
<path d="M0 160L448 160" stroke="#E3E8EE" stroke-width="2" stroke-linecap="round" stroke-linejoin="round" stroke-dasharray="0.01 16"/>
<path d="M0 176L448 176" stroke="#E3E8EE" stroke-width="2" stroke-linecap="round" stroke-linejoin="round" stroke-dasharray="0.01 16"/>
<path d="M0 192L448 192" stroke="#E3E8EE" stroke-width="2" stroke-linecap="round" stroke-linejoin="round" stroke-dasharray="0.01 16"/>
<path d="M0 208L448 208" stroke="#E3E8EE" stroke-width="2" stroke-linecap="round" stroke-linejoin="round" stroke-dasharray="0.01 16"/>
<rect x="0.5" y="0.5" width="447" height="207" stroke="white"/>
</g>
<rect x="30" y="134" width="396" height="52" fill="white"/>
<path d="M42.4375 154V142.727H41.0312V147.602H34.8438V142.727H33.4375V154H34.8438V148.867H41.0312V154H42.4375ZM48.6016 154.148C51 154.148 52.4844 152.492 52.4844 149.789C52.4844 147.078 51 145.43 48.6016 145.43C46.2031 145.43 44.7188 147.078 44.7188 149.789C44.7188 152.492 46.2031 154.148 48.6016 154.148ZM48.6016 152.938C47.0078 152.938 46.1094 151.781 46.1094 149.789C46.1094 147.789 47.0078 146.641 48.6016 146.641C50.1953 146.641 51.0938 147.789 51.0938 149.789C51.0938 151.781 50.1953 152.938 48.6016 152.938ZM54.6719 154H56.0156V142.234H54.6719V154ZM61.7422 154.148C62.9062 154.148 63.9062 153.594 64.4375 152.656H64.5625V154H65.8438V142.234H64.5V146.906H64.3828C63.9062 145.984 62.9141 145.43 61.7422 145.43C59.6016 145.43 58.2031 147.148 58.2031 149.789C58.2031 152.438 59.5859 154.148 61.7422 154.148ZM62.0547 146.641C63.5781 146.641 64.5312 147.859 64.5312 149.789C64.5312 151.734 63.5859 152.938 62.0547 152.938C60.5156 152.938 59.5938 151.758 59.5938 149.789C59.5938 147.828 60.5234 146.641 62.0547 146.641ZM73.5312 143.398V145.578H72.1719V146.703H73.5312V151.812C73.5312 153.422 74.2266 154.062 75.9609 154.062C76.2266 154.062 76.4844 154.031 76.75 153.984V152.852C76.5 152.875 76.3672 152.883 76.125 152.883C75.25 152.883 74.875 152.461 74.875 151.469V146.703H76.75V145.578H74.875V143.398H73.5312ZM79.4844 143.953C80 143.953 80.4219 143.531 80.4219 143.016C80.4219 142.5 80 142.078 79.4844 142.078C78.9688 142.078 78.5469 142.5 78.5469 143.016C78.5469 143.531 78.9688 143.953 79.4844 143.953ZM78.8125 154H80.1562V145.578H78.8125V154ZM86.1875 157.234C88.4844 157.234 89.9375 156.031 89.9375 154.148V145.578H88.6562V146.914H88.5312C88.0469 146.008 87.0078 145.43 85.8281 145.43C83.6641 145.43 82.2969 147.141 82.2969 149.664C82.2969 152.188 83.6484 153.875 85.8281 153.875C86.9844 153.875 87.9375 153.352 88.4688 152.422H88.5938V154.078C88.5938 155.32 87.6953 156.062 86.1875 156.062C84.9766 156.062 84.2266 155.617 84.0781 154.93H82.6562C82.8594 156.32 84.1562 157.234 86.1875 157.234ZM86.125 152.688C84.5625 152.688 83.6875 151.5 83.6875 149.664C83.6875 147.828 84.5625 146.641 86.125 146.641C87.6797 146.641 88.625 147.828 88.625 149.664C88.625 151.5 87.6875 152.688 86.125 152.688ZM92.5469 154H93.8906V149.016C93.8906 147.594 94.7188 146.641 96.2266 146.641C97.5 146.641 98.1719 147.383 98.1719 148.875V154H99.5156V148.547C99.5156 146.57 98.3906 145.43 96.6094 145.43C95.3203 145.43 94.4375 145.977 94.0156 146.906H93.8906V142.234H92.5469V154ZM102.531 143.398V145.578H101.172V146.703H102.531V151.812C102.531 153.422 103.227 154.062 104.961 154.062C105.227 154.062 105.484 154.031 105.75 153.984V152.852C105.5 152.875 105.367 152.883 105.125 152.883C104.25 152.883 103.875 152.461 103.875 151.469V146.703H105.75V145.578H103.875V143.398H102.531ZM108.633 156.867L109.859 152.422H108.367L107.625 156.867H108.633ZM117.766 157.047C119.258 157.047 119.93 156.469 120.648 154.516L123.938 145.578H122.508L120.203 152.508H120.078L117.766 145.578H116.312L119.43 154.008L119.273 154.508C118.922 155.523 118.5 155.891 117.727 155.891C117.539 155.891 117.328 155.883 117.164 155.852V157C117.352 157.031 117.586 157.047 117.766 157.047ZM128.883 154.148C131.281 154.148 132.766 152.492 132.766 149.789C132.766 147.078 131.281 145.43 128.883 145.43C126.484 145.43 125 147.078 125 149.789C125 152.492 126.484 154.148 128.883 154.148ZM128.883 152.938C127.289 152.938 126.391 151.781 126.391 149.789C126.391 147.789 127.289 146.641 128.883 146.641C130.477 146.641 131.375 147.789 131.375 149.789C131.375 151.781 130.477 152.938 128.883 152.938ZM141.688 145.578H140.344V150.562C140.344 152.039 139.531 152.922 138.047 152.922C136.703 152.922 136.141 152.219 136.141 150.703V145.578H134.797V151.031C134.797 153.023 135.781 154.148 137.672 154.148C138.961 154.148 139.859 153.617 140.281 152.68H140.406V154H141.688V145.578ZM144.219 154H145.562V148.781C145.562 147.594 146.492 146.734 147.773 146.734C148.039 146.734 148.523 146.781 148.633 146.812V145.469C148.461 145.445 148.18 145.43 147.961 145.43C146.844 145.43 145.875 146.008 145.625 146.828H145.5V145.578H144.219V154ZM158.289 154.148C160.688 154.148 162.172 152.492 162.172 149.789C162.172 147.078 160.688 145.43 158.289 145.43C155.891 145.43 154.406 147.078 154.406 149.789C154.406 152.492 155.891 154.148 158.289 154.148ZM158.289 152.938C156.695 152.938 155.797 151.781 155.797 149.789C155.797 147.789 156.695 146.641 158.289 146.641C159.883 146.641 160.781 147.789 160.781 149.789C160.781 151.781 159.883 152.938 158.289 152.938ZM164.281 154H165.625V148.781C165.625 147.594 166.555 146.734 167.836 146.734C168.102 146.734 168.586 146.781 168.695 146.812V145.469C168.523 145.445 168.242 145.43 168.023 145.43C166.906 145.43 165.938 146.008 165.688 146.828H165.562V145.578H164.281V154ZM173.258 154.148C174.422 154.148 175.422 153.594 175.953 152.656H176.078V154H177.359V142.234H176.016V146.906H175.898C175.422 145.984 174.43 145.43 173.258 145.43C171.117 145.43 169.719 147.148 169.719 149.789C169.719 152.438 171.102 154.148 173.258 154.148ZM173.57 146.641C175.094 146.641 176.047 147.859 176.047 149.789C176.047 151.734 175.102 152.938 173.57 152.938C172.031 152.938 171.109 151.758 171.109 149.789C171.109 147.828 172.039 146.641 173.57 146.641ZM185.547 151.82C185.195 152.562 184.461 152.961 183.375 152.961C181.945 152.961 181.016 151.906 180.945 150.242V150.18H187V149.664C187 147.047 185.617 145.43 183.344 145.43C181.031 145.43 179.547 147.148 179.547 149.797C179.547 152.461 181.008 154.148 183.344 154.148C185.188 154.148 186.5 153.258 186.891 151.82H185.547ZM183.328 146.617C184.664 146.617 185.555 147.602 185.586 149.094H180.945C181.047 147.602 181.984 146.617 183.328 146.617ZM189.109 154H190.453V148.781C190.453 147.594 191.383 146.734 192.664 146.734C192.93 146.734 193.414 146.781 193.523 146.812V145.469C193.352 145.445 193.07 145.43 192.852 145.43C191.734 145.43 190.766 146.008 190.516 146.828H190.391V145.578H189.109V154ZM200.422 143.953C200.938 143.953 201.359 143.531 201.359 143.016C201.359 142.5 200.938 142.078 200.422 142.078C199.906 142.078 199.484 142.5 199.484 143.016C199.484 143.531 199.906 143.953 200.422 143.953ZM199.75 154H201.094V145.578H199.75V154ZM203.461 147.883C203.461 149.102 204.18 149.781 205.758 150.164L207.203 150.516C208.102 150.734 208.539 151.125 208.539 151.703C208.539 152.477 207.727 153.016 206.594 153.016C205.516 153.016 204.844 152.562 204.617 151.852H203.234C203.383 153.25 204.672 154.148 206.547 154.148C208.461 154.148 209.922 153.109 209.922 151.602C209.922 150.391 209.156 149.703 207.57 149.32L206.273 149.008C205.281 148.766 204.812 148.406 204.812 147.828C204.812 147.078 205.594 146.57 206.594 146.57C207.609 146.57 208.266 147.016 208.445 147.688H209.773C209.594 146.305 208.367 145.43 206.602 145.43C204.812 145.43 203.461 146.484 203.461 147.883ZM220.734 154.148C222.867 154.148 224.266 152.422 224.266 149.789C224.266 147.141 222.875 145.43 220.734 145.43C219.578 145.43 218.555 146 218.094 146.906H217.969V142.234H216.625V154H217.906V152.656H218.031C218.562 153.594 219.562 154.148 220.734 154.148ZM220.422 146.641C221.961 146.641 222.875 147.82 222.875 149.789C222.875 151.758 221.961 152.938 220.422 152.938C218.891 152.938 217.938 151.734 217.938 149.789C217.938 147.844 218.891 146.641 220.422 146.641ZM231.953 151.82C231.602 152.562 230.867 152.961 229.781 152.961C228.352 152.961 227.422 151.906 227.352 150.242V150.18H233.406V149.664C233.406 147.047 232.023 145.43 229.75 145.43C227.438 145.43 225.953 147.148 225.953 149.797C225.953 152.461 227.414 154.148 229.75 154.148C231.594 154.148 232.906 153.258 233.297 151.82H231.953ZM229.734 146.617C231.07 146.617 231.961 147.602 231.992 149.094H227.352C227.453 147.602 228.391 146.617 229.734 146.617ZM236.219 143.953C236.734 143.953 237.156 143.531 237.156 143.016C237.156 142.5 236.734 142.078 236.219 142.078C235.703 142.078 235.281 142.5 235.281 143.016C235.281 143.531 235.703 143.953 236.219 143.953ZM235.547 154H236.891V145.578H235.547V154ZM239.453 154H240.797V149.016C240.797 147.539 241.664 146.641 243.008 146.641C244.352 146.641 244.992 147.359 244.992 148.875V154H246.336V148.547C246.336 146.547 245.281 145.43 243.391 145.43C242.102 145.43 241.281 145.977 240.859 146.906H240.734V145.578H239.453V154ZM252.266 157.234C254.562 157.234 256.016 156.031 256.016 154.148V145.578H254.734V146.914H254.609C254.125 146.008 253.086 145.43 251.906 145.43C249.742 145.43 248.375 147.141 248.375 149.664C248.375 152.188 249.727 153.875 251.906 153.875C253.062 153.875 254.016 153.352 254.547 152.422H254.672V154.078C254.672 155.32 253.773 156.062 252.266 156.062C251.055 156.062 250.305 155.617 250.156 154.93H248.734C248.938 156.32 250.234 157.234 252.266 157.234ZM252.203 152.688C250.641 152.688 249.766 151.5 249.766 149.664C249.766 147.828 250.641 146.641 252.203 146.641C253.758 146.641 254.703 147.828 254.703 149.664C254.703 151.5 253.766 152.688 252.203 152.688ZM267.164 145.43C266.016 145.43 265.008 146.016 264.469 146.984H264.344V145.578H263.062V156.812H264.406V152.734H264.531C264.992 153.625 265.961 154.148 267.164 154.148C269.305 154.148 270.703 152.422 270.703 149.789C270.703 147.141 269.312 145.43 267.164 145.43ZM266.844 152.938C265.328 152.938 264.367 151.719 264.367 149.789C264.367 147.852 265.328 146.641 266.852 146.641C268.391 146.641 269.312 147.82 269.312 149.789C269.312 151.758 268.391 152.938 266.844 152.938ZM272.812 154H274.156V148.781C274.156 147.594 275.086 146.734 276.367 146.734C276.633 146.734 277.117 146.781 277.227 146.812V145.469C277.055 145.445 276.773 145.43 276.555 145.43C275.438 145.43 274.469 146.008 274.219 146.828H274.094V145.578H272.812V154ZM282.133 154.148C284.531 154.148 286.016 152.492 286.016 149.789C286.016 147.078 284.531 145.43 282.133 145.43C279.734 145.43 278.25 147.078 278.25 149.789C278.25 152.492 279.734 154.148 282.133 154.148ZM282.133 152.938C280.539 152.938 279.641 151.781 279.641 149.789C279.641 147.789 280.539 146.641 282.133 146.641C283.727 146.641 284.625 147.789 284.625 149.789C284.625 151.781 283.727 152.938 282.133 152.938ZM295.094 148.156C294.859 146.656 293.609 145.43 291.562 145.43C289.203 145.43 287.703 147.133 287.703 149.758C287.703 152.438 289.211 154.148 291.57 154.148C293.594 154.148 294.852 153.008 295.094 151.461H293.734C293.484 152.414 292.695 152.938 291.562 152.938C290.062 152.938 289.094 151.703 289.094 149.758C289.094 147.852 290.047 146.641 291.562 146.641C292.773 146.641 293.516 147.32 293.734 148.156H295.094ZM302.656 151.82C302.305 152.562 301.57 152.961 300.484 152.961C299.055 152.961 298.125 151.906 298.055 150.242V150.18H304.109V149.664C304.109 147.047 302.727 145.43 300.453 145.43C298.141 145.43 296.656 147.148 296.656 149.797C296.656 152.461 298.117 154.148 300.453 154.148C302.297 154.148 303.609 153.258 304 151.82H302.656ZM300.438 146.617C301.773 146.617 302.664 147.602 302.695 149.094H298.055C298.156 147.602 299.094 146.617 300.438 146.617ZM306.023 147.883C306.023 149.102 306.742 149.781 308.32 150.164L309.766 150.516C310.664 150.734 311.102 151.125 311.102 151.703C311.102 152.477 310.289 153.016 309.156 153.016C308.078 153.016 307.406 152.562 307.18 151.852H305.797C305.945 153.25 307.234 154.148 309.109 154.148C311.023 154.148 312.484 153.109 312.484 151.602C312.484 150.391 311.719 149.703 310.133 149.32L308.836 149.008C307.844 148.766 307.375 148.406 307.375 147.828C307.375 147.078 308.156 146.57 309.156 146.57C310.172 146.57 310.828 147.016 311.008 147.688H312.336C312.156 146.305 310.93 145.43 309.164 145.43C307.375 145.43 306.023 146.484 306.023 147.883ZM314.242 147.883C314.242 149.102 314.961 149.781 316.539 150.164L317.984 150.516C318.883 150.734 319.32 151.125 319.32 151.703C319.32 152.477 318.508 153.016 317.375 153.016C316.297 153.016 315.625 152.562 315.398 151.852H314.016C314.164 153.25 315.453 154.148 317.328 154.148C319.242 154.148 320.703 153.109 320.703 151.602C320.703 150.391 319.938 149.703 318.352 149.32L317.055 149.008C316.062 148.766 315.594 148.406 315.594 147.828C315.594 147.078 316.375 146.57 317.375 146.57C318.391 146.57 319.047 147.016 319.227 147.688H320.555C320.375 146.305 319.148 145.43 317.383 145.43C315.594 145.43 314.242 146.484 314.242 147.883ZM328.391 151.82C328.039 152.562 327.305 152.961 326.219 152.961C324.789 152.961 323.859 151.906 323.789 150.242V150.18H329.844V149.664C329.844 147.047 328.461 145.43 326.188 145.43C323.875 145.43 322.391 147.148 322.391 149.797C322.391 152.461 323.852 154.148 326.188 154.148C328.031 154.148 329.344 153.258 329.734 151.82H328.391ZM326.172 146.617C327.508 146.617 328.398 147.602 328.43 149.094H323.789C323.891 147.602 324.828 146.617 326.172 146.617ZM335.07 154.148C336.234 154.148 337.234 153.594 337.766 152.656H337.891V154H339.172V142.234H337.828V146.906H337.711C337.234 145.984 336.242 145.43 335.07 145.43C332.93 145.43 331.531 147.148 331.531 149.789C331.531 152.438 332.914 154.148 335.07 154.148ZM335.383 146.641C336.906 146.641 337.859 147.859 337.859 149.789C337.859 151.734 336.914 152.938 335.383 152.938C333.844 152.938 332.922 151.758 332.922 149.789C332.922 147.828 333.852 146.641 335.383 146.641ZM342.891 154.078C343.453 154.078 343.906 153.617 343.906 153.062C343.906 152.5 343.453 152.047 342.891 152.047C342.336 152.047 341.875 152.5 341.875 153.062C341.875 153.617 342.336 154.078 342.891 154.078ZM357.477 145.102H357.57L360.164 154H361.492L364.562 142.727H363.094L360.852 151.891H360.758L358.234 142.727H356.812L354.289 151.891H354.195L351.953 142.727H350.484L353.555 154H354.883L357.477 145.102ZM371.328 151.82C370.977 152.562 370.242 152.961 369.156 152.961C367.727 152.961 366.797 151.906 366.727 150.242V150.18H372.781V149.664C372.781 147.047 371.398 145.43 369.125 145.43C366.812 145.43 365.328 147.148 365.328 149.797C365.328 152.461 366.789 154.148 369.125 154.148C370.969 154.148 372.281 153.258 372.672 151.82H371.328ZM369.109 146.617C370.445 146.617 371.336 147.602 371.367 149.094H366.727C366.828 147.602 367.766 146.617 369.109 146.617ZM390 145.578H388.648L386.992 152.312H386.867L384.984 145.578H383.695L381.812 152.312H381.688L380.031 145.578H378.672L381.031 154H382.391L384.266 147.484H384.391L386.273 154H387.641L390 145.578ZM392.5 143.953C393.016 143.953 393.438 143.531 393.438 143.016C393.438 142.5 393.016 142.078 392.5 142.078C391.984 142.078 391.562 142.5 391.562 143.016C391.562 143.531 391.984 143.953 392.5 143.953ZM391.828 154H393.172V145.578H391.828V154ZM395.812 154H397.156V142.234H395.812V154ZM399.844 154H401.188V142.234H399.844V154ZM38.8438 175.82C38.4922 176.562 37.7578 176.961 36.6719 176.961C35.2422 176.961 34.3125 175.906 34.2422 174.242V174.18H40.2969V173.664C40.2969 171.047 38.9141 169.43 36.6406 169.43C34.3281 169.43 32.8438 171.148 32.8438 173.797C32.8438 176.461 34.3047 178.148 36.6406 178.148C38.4844 178.148 39.7969 177.258 40.1875 175.82H38.8438ZM36.625 170.617C37.9609 170.617 38.8516 171.602 38.8828 173.094H34.2422C34.3438 171.602 35.2812 170.617 36.625 170.617ZM42.4062 178H43.75V172.781C43.75 171.594 44.6016 170.641 45.7031 170.641C46.7656 170.641 47.4609 171.281 47.4609 172.281V178H48.8047V172.586C48.8047 171.516 49.5859 170.641 50.7578 170.641C51.9453 170.641 52.5312 171.25 52.5312 172.492V178H53.875V172.18C53.875 170.414 52.9141 169.43 51.1953 169.43C50.0312 169.43 49.0703 170.016 48.6172 170.906H48.4922C48.1016 170.031 47.3047 169.43 46.1641 169.43C45.0391 169.43 44.1953 169.969 43.8125 170.906H43.6875V169.578H42.4062V178ZM58.6719 178.148C59.7969 178.148 60.7188 177.656 61.2656 176.758H61.3906V178H62.6719V172.234C62.6719 170.484 61.5234 169.43 59.4688 169.43C57.6719 169.43 56.3438 170.32 56.1641 171.672H57.5234C57.7109 171.008 58.4141 170.625 59.4219 170.625C60.6797 170.625 61.3281 171.195 61.3281 172.234V173L58.8984 173.148C56.9375 173.266 55.8281 174.133 55.8281 175.641C55.8281 177.18 57.0391 178.148 58.6719 178.148ZM58.9219 176.969C57.9453 176.969 57.2188 176.469 57.2188 175.609C57.2188 174.766 57.7812 174.32 59.0625 174.234L61.3281 174.086V174.859C61.3281 176.062 60.3047 176.969 58.9219 176.969ZM65.8594 167.953C66.375 167.953 66.7969 167.531 66.7969 167.016C66.7969 166.5 66.375 166.078 65.8594 166.078C65.3438 166.078 64.9219 166.5 64.9219 167.016C64.9219 167.531 65.3438 167.953 65.8594 167.953ZM65.1875 178H66.5312V169.578H65.1875V178ZM69.1719 178H70.5156V166.234H69.1719V178ZM78.3594 181.047C79.8516 181.047 80.5234 180.469 81.2422 178.516L84.5312 169.578H83.1016L80.7969 176.508H80.6719L78.3594 169.578H76.9062L80.0234 178.008L79.8672 178.508C79.5156 179.523 79.0938 179.891 78.3203 179.891C78.1328 179.891 77.9219 179.883 77.7578 179.852V181C77.9453 181.031 78.1797 181.047 78.3594 181.047ZM89.4766 178.148C91.875 178.148 93.3594 176.492 93.3594 173.789C93.3594 171.078 91.875 169.43 89.4766 169.43C87.0781 169.43 85.5938 171.078 85.5938 173.789C85.5938 176.492 87.0781 178.148 89.4766 178.148ZM89.4766 176.938C87.8828 176.938 86.9844 175.781 86.9844 173.789C86.9844 171.789 87.8828 170.641 89.4766 170.641C91.0703 170.641 91.9688 171.789 91.9688 173.789C91.9688 175.781 91.0703 176.938 89.4766 176.938ZM102.281 169.578H100.938V174.562C100.938 176.039 100.125 176.922 98.6406 176.922C97.2969 176.922 96.7344 176.219 96.7344 174.703V169.578H95.3906V175.031C95.3906 177.023 96.375 178.148 98.2656 178.148C99.5547 178.148 100.453 177.617 100.875 176.68H101V178H102.281V169.578ZM119.922 169.578H118.57L116.914 176.312H116.789L114.906 169.578H113.617L111.734 176.312H111.609L109.953 169.578H108.594L110.953 178H112.312L114.188 171.484H114.312L116.195 178H117.562L119.922 169.578ZM121.797 178H123.141V173.016C123.141 171.594 123.969 170.641 125.477 170.641C126.75 170.641 127.422 171.383 127.422 172.875V178H128.766V172.547C128.766 170.57 127.641 169.43 125.859 169.43C124.57 169.43 123.688 169.977 123.266 170.906H123.141V166.234H121.797V178ZM136.797 175.82C136.445 176.562 135.711 176.961 134.625 176.961C133.195 176.961 132.266 175.906 132.195 174.242V174.18H138.25V173.664C138.25 171.047 136.867 169.43 134.594 169.43C132.281 169.43 130.797 171.148 130.797 173.797C130.797 176.461 132.258 178.148 134.594 178.148C136.438 178.148 137.75 177.258 138.141 175.82H136.797ZM134.578 170.617C135.914 170.617 136.805 171.602 136.836 173.094H132.195C132.297 171.602 133.234 170.617 134.578 170.617ZM140.359 178H141.703V173.016C141.703 171.539 142.57 170.641 143.914 170.641C145.258 170.641 145.898 171.359 145.898 172.875V178H147.242V172.547C147.242 170.547 146.188 169.43 144.297 169.43C143.008 169.43 142.188 169.977 141.766 170.906H141.641V169.578H140.359V178ZM154.938 181.047C156.43 181.047 157.102 180.469 157.82 178.516L161.109 169.578H159.68L157.375 176.508H157.25L154.938 169.578H153.484L156.602 178.008L156.445 178.508C156.094 179.523 155.672 179.891 154.898 179.891C154.711 179.891 154.5 179.883 154.336 179.852V181C154.523 181.031 154.758 181.047 154.938 181.047ZM166.055 178.148C168.453 178.148 169.938 176.492 169.938 173.789C169.938 171.078 168.453 169.43 166.055 169.43C163.656 169.43 162.172 171.078 162.172 173.789C162.172 176.492 163.656 178.148 166.055 178.148ZM166.055 176.938C164.461 176.938 163.562 175.781 163.562 173.789C163.562 171.789 164.461 170.641 166.055 170.641C167.648 170.641 168.547 171.789 168.547 173.789C168.547 175.781 167.648 176.938 166.055 176.938ZM178.859 169.578H177.516V174.562C177.516 176.039 176.703 176.922 175.219 176.922C173.875 176.922 173.312 176.219 173.312 174.703V169.578H171.969V175.031C171.969 177.023 172.953 178.148 174.844 178.148C176.133 178.148 177.031 177.617 177.453 176.68H177.578V178H178.859V169.578ZM181.391 178H182.734V172.781C182.734 171.594 183.664 170.734 184.945 170.734C185.211 170.734 185.695 170.781 185.805 170.812V169.469C185.633 169.445 185.352 169.43 185.133 169.43C184.016 169.43 183.047 170.008 182.797 170.828H182.672V169.578H181.391V178ZM195.461 178.148C197.859 178.148 199.344 176.492 199.344 173.789C199.344 171.078 197.859 169.43 195.461 169.43C193.062 169.43 191.578 171.078 191.578 173.789C191.578 176.492 193.062 178.148 195.461 178.148ZM195.461 176.938C193.867 176.938 192.969 175.781 192.969 173.789C192.969 171.789 193.867 170.641 195.461 170.641C197.055 170.641 197.953 171.789 197.953 173.789C197.953 175.781 197.055 176.938 195.461 176.938ZM201.453 178H202.797V172.781C202.797 171.594 203.727 170.734 205.008 170.734C205.273 170.734 205.758 170.781 205.867 170.812V169.469C205.695 169.445 205.414 169.43 205.195 169.43C204.078 169.43 203.109 170.008 202.859 170.828H202.734V169.578H201.453V178ZM210.43 178.148C211.594 178.148 212.594 177.594 213.125 176.656H213.25V178H214.531V166.234H213.188V170.906H213.07C212.594 169.984 211.602 169.43 210.43 169.43C208.289 169.43 206.891 171.148 206.891 173.789C206.891 176.438 208.273 178.148 210.43 178.148ZM210.742 170.641C212.266 170.641 213.219 171.859 213.219 173.789C213.219 175.734 212.273 176.938 210.742 176.938C209.203 176.938 208.281 175.758 208.281 173.789C208.281 171.828 209.211 170.641 210.742 170.641ZM222.719 175.82C222.367 176.562 221.633 176.961 220.547 176.961C219.117 176.961 218.188 175.906 218.117 174.242V174.18H224.172V173.664C224.172 171.047 222.789 169.43 220.516 169.43C218.203 169.43 216.719 171.148 216.719 173.797C216.719 176.461 218.18 178.148 220.516 178.148C222.359 178.148 223.672 177.258 224.062 175.82H222.719ZM220.5 170.617C221.836 170.617 222.727 171.602 222.758 173.094H218.117C218.219 171.602 219.156 170.617 220.5 170.617ZM226.281 178H227.625V172.781C227.625 171.594 228.555 170.734 229.836 170.734C230.102 170.734 230.586 170.781 230.695 170.812V169.469C230.523 169.445 230.242 169.43 230.023 169.43C228.906 169.43 227.938 170.008 227.688 170.828H227.562V169.578H226.281V178ZM236.695 171.883C236.695 173.102 237.414 173.781 238.992 174.164L240.438 174.516C241.336 174.734 241.773 175.125 241.773 175.703C241.773 176.477 240.961 177.016 239.828 177.016C238.75 177.016 238.078 176.562 237.852 175.852H236.469C236.617 177.25 237.906 178.148 239.781 178.148C241.695 178.148 243.156 177.109 243.156 175.602C243.156 174.391 242.391 173.703 240.805 173.32L239.508 173.008C238.516 172.766 238.047 172.406 238.047 171.828C238.047 171.078 238.828 170.57 239.828 170.57C240.844 170.57 241.5 171.016 241.68 171.688H243.008C242.828 170.305 241.602 169.43 239.836 169.43C238.047 169.43 236.695 170.484 236.695 171.883ZM252.078 169.578H250.734V174.562C250.734 176.039 249.922 176.922 248.438 176.922C247.094 176.922 246.531 176.219 246.531 174.703V169.578H245.188V175.031C245.188 177.023 246.172 178.148 248.062 178.148C249.352 178.148 250.25 177.617 250.672 176.68H250.797V178H252.078V169.578ZM261.578 172.156C261.344 170.656 260.094 169.43 258.047 169.43C255.688 169.43 254.188 171.133 254.188 173.758C254.188 176.438 255.695 178.148 258.055 178.148C260.078 178.148 261.336 177.008 261.578 175.461H260.219C259.969 176.414 259.18 176.938 258.047 176.938C256.547 176.938 255.578 175.703 255.578 173.758C255.578 171.852 256.531 170.641 258.047 170.641C259.258 170.641 260 171.32 260.219 172.156H261.578ZM270.531 172.156C270.297 170.656 269.047 169.43 267 169.43C264.641 169.43 263.141 171.133 263.141 173.758C263.141 176.438 264.648 178.148 267.008 178.148C269.031 178.148 270.289 177.008 270.531 175.461H269.172C268.922 176.414 268.133 176.938 267 176.938C265.5 176.938 264.531 175.703 264.531 173.758C264.531 171.852 265.484 170.641 267 170.641C268.211 170.641 268.953 171.32 269.172 172.156H270.531ZM278.094 175.82C277.742 176.562 277.008 176.961 275.922 176.961C274.492 176.961 273.562 175.906 273.492 174.242V174.18H279.547V173.664C279.547 171.047 278.164 169.43 275.891 169.43C273.578 169.43 272.094 171.148 272.094 173.797C272.094 176.461 273.555 178.148 275.891 178.148C277.734 178.148 279.047 177.258 279.438 175.82H278.094ZM275.875 170.617C277.211 170.617 278.102 171.602 278.133 173.094H273.492C273.594 171.602 274.531 170.617 275.875 170.617ZM287.234 175.82C286.883 176.562 286.148 176.961 285.062 176.961C283.633 176.961 282.703 175.906 282.633 174.242V174.18H288.688V173.664C288.688 171.047 287.305 169.43 285.031 169.43C282.719 169.43 281.234 171.148 281.234 173.797C281.234 176.461 282.695 178.148 285.031 178.148C286.875 178.148 288.188 177.258 288.578 175.82H287.234ZM285.016 170.617C286.352 170.617 287.242 171.602 287.273 173.094H282.633C282.734 171.602 283.672 170.617 285.016 170.617ZM293.914 178.148C295.078 178.148 296.078 177.594 296.609 176.656H296.734V178H298.016V166.234H296.672V170.906H296.555C296.078 169.984 295.086 169.43 293.914 169.43C291.773 169.43 290.375 171.148 290.375 173.789C290.375 176.438 291.758 178.148 293.914 178.148ZM294.227 170.641C295.75 170.641 296.703 171.859 296.703 173.789C296.703 175.734 295.758 176.938 294.227 176.938C292.688 176.938 291.766 175.758 291.766 173.789C291.766 171.828 292.695 170.641 294.227 170.641ZM300.43 171.883C300.43 173.102 301.148 173.781 302.727 174.164L304.172 174.516C305.07 174.734 305.508 175.125 305.508 175.703C305.508 176.477 304.695 177.016 303.562 177.016C302.484 177.016 301.812 176.562 301.586 175.852H300.203C300.352 177.25 301.641 178.148 303.516 178.148C305.43 178.148 306.891 177.109 306.891 175.602C306.891 174.391 306.125 173.703 304.539 173.32L303.242 173.008C302.25 172.766 301.781 172.406 301.781 171.828C301.781 171.078 302.562 170.57 303.562 170.57C304.578 170.57 305.234 171.016 305.414 171.688H306.742C306.562 170.305 305.336 169.43 303.57 169.43C301.781 169.43 300.43 170.484 300.43 171.883ZM310.109 178.078C310.672 178.078 311.125 177.617 311.125 177.062C311.125 176.5 310.672 176.047 310.109 176.047C309.555 176.047 309.094 176.5 309.094 177.062C309.094 177.617 309.555 178.078 310.109 178.078Z" fill="#4F566B"/>
<rect x="30" y="134" width="396" height="52" stroke="white" stroke-width="4"/>
<rect x="30" y="90" width="197" height="28" fill="white"/>
<path d="M33.3672 98.7266V110H35.7266V106.445H37.9531C40.3281 106.445 41.9766 104.898 41.9766 102.602C41.9766 100.273 40.3906 98.7266 38.0703 98.7266H33.3672ZM35.7266 100.602H37.4453C38.8047 100.602 39.5781 101.297 39.5781 102.609C39.5781 103.891 38.7891 104.594 37.4375 104.594H35.7266V100.602ZM43.9219 110H46.1953V105.188C46.1953 103.977 47.0469 103.234 48.2891 103.234C48.6562 103.234 49.1875 103.297 49.3672 103.359V101.359C49.1719 101.297 48.7891 101.258 48.4766 101.258C47.3828 101.258 46.4922 101.906 46.2656 102.766H46.125V101.398H43.9219V110ZM54.5078 110.18C57.1562 110.18 58.75 108.508 58.75 105.695C58.75 102.906 57.1328 101.211 54.5078 101.211C51.8828 101.211 50.2656 102.914 50.2656 105.695C50.2656 108.5 51.8594 110.18 54.5078 110.18ZM54.5078 108.383C53.2891 108.383 52.6016 107.398 52.6016 105.695C52.6016 104.008 53.2969 103.016 54.5078 103.016C55.7109 103.016 56.4141 104.008 56.4141 105.695C56.4141 107.398 55.7188 108.383 54.5078 108.383ZM68.2344 104.398C68.0469 102.477 66.6797 101.211 64.3984 101.211C61.7031 101.211 60.1875 102.844 60.1875 105.68C60.1875 108.547 61.7109 110.18 64.3984 110.18C66.6406 110.18 68.0469 108.945 68.2344 107.055H66.1094C65.9375 107.914 65.3281 108.375 64.3984 108.375C63.1797 108.375 62.4844 107.414 62.4844 105.68C62.4844 103.969 63.1719 103.023 64.3984 103.023C65.3672 103.023 65.9531 103.57 66.1094 104.398H68.2344ZM75.5859 107.57C75.3438 108.156 74.7266 108.484 73.8281 108.484C72.6406 108.484 71.8906 107.664 71.8594 106.352V106.234H77.7734V105.555C77.7734 102.836 76.2734 101.211 73.7344 101.211C71.1719 101.211 69.5938 102.945 69.5938 105.742C69.5938 108.523 71.1406 110.18 73.7656 110.18C75.875 110.18 77.3672 109.172 77.7031 107.57H75.5859ZM73.7422 102.906C74.8047 102.906 75.4922 103.641 75.5391 104.82H71.8672C71.9453 103.664 72.6875 102.906 73.7422 102.906ZM79.4453 103.906C79.4453 105.227 80.2578 106.016 81.9297 106.383L83.4922 106.734C84.25 106.906 84.5781 107.172 84.5781 107.609C84.5781 108.18 83.9688 108.57 83.0859 108.57C82.1797 108.57 81.625 108.219 81.4531 107.625H79.2344C79.3906 109.25 80.7656 110.18 83.0391 110.18C85.2969 110.18 86.8359 109.07 86.8359 107.367C86.8359 106.086 86.0859 105.383 84.4141 105.016L82.7969 104.664C82 104.484 81.6328 104.211 81.6328 103.773C81.6328 103.211 82.2344 102.828 83.0469 102.828C83.8906 102.828 84.4141 103.18 84.5312 103.75H86.6328C86.5078 102.125 85.2188 101.211 83.0312 101.211C80.8828 101.211 79.4453 102.297 79.4453 103.906ZM88.3516 103.906C88.3516 105.227 89.1641 106.016 90.8359 106.383L92.3984 106.734C93.1562 106.906 93.4844 107.172 93.4844 107.609C93.4844 108.18 92.875 108.57 91.9922 108.57C91.0859 108.57 90.5312 108.219 90.3594 107.625H88.1406C88.2969 109.25 89.6719 110.18 91.9453 110.18C94.2031 110.18 95.7422 109.07 95.7422 107.367C95.7422 106.086 94.9922 105.383 93.3203 105.016L91.7031 104.664C90.9062 104.484 90.5391 104.211 90.5391 103.773C90.5391 103.211 91.1406 102.828 91.9531 102.828C92.7969 102.828 93.3203 103.18 93.4375 103.75H95.5391C95.4141 102.125 94.125 101.211 91.9375 101.211C89.7891 101.211 88.3516 102.297 88.3516 103.906ZM98.7656 100.078C99.4688 100.078 100.047 99.5156 100.047 98.8125C100.047 98.1016 99.4688 97.5391 98.7656 97.5391C98.0625 97.5391 97.4766 98.1016 97.4766 98.8125C97.4766 99.5156 98.0625 100.078 98.7656 100.078ZM97.625 110H99.8984V101.398H97.625V110ZM102.203 110H104.477V105.023C104.477 103.859 105.125 103.109 106.18 103.109C107.258 103.109 107.766 103.742 107.766 104.953V110H110.039V104.438C110.039 102.383 109.008 101.211 107.094 101.211C105.82 101.211 104.945 101.812 104.547 102.781H104.406V101.398H102.203V110ZM116.047 113.258C118.648 113.258 120.297 111.992 120.297 109.984V101.398H118.094V102.773H117.953C117.492 101.836 116.5 101.258 115.336 101.258C113.148 101.258 111.805 102.961 111.805 105.625C111.805 108.203 113.141 109.875 115.289 109.875C116.5 109.875 117.406 109.383 117.883 108.477H118.023V110.078C118.023 111.07 117.312 111.648 116.094 111.648C115.109 111.648 114.469 111.305 114.352 110.758H112.102C112.242 112.266 113.758 113.258 116.047 113.258ZM116.078 108.133C114.844 108.133 114.141 107.164 114.141 105.617C114.141 104.07 114.852 103.102 116.078 103.102C117.305 103.102 118.047 104.07 118.047 105.617C118.047 107.164 117.312 108.133 116.078 108.133ZM127.773 113.125C129.922 113.125 130.977 112.359 131.711 110.164L134.68 101.398H132.273L130.461 107.961H130.32L128.508 101.398H126L129.023 110.047L128.945 110.375C128.758 111.07 128.273 111.352 127.422 111.352C127.328 111.352 126.984 111.344 126.906 111.328V113.102C127 113.117 127.688 113.125 127.773 113.125ZM139.727 110.18C142.375 110.18 143.969 108.508 143.969 105.695C143.969 102.906 142.352 101.211 139.727 101.211C137.102 101.211 135.484 102.914 135.484 105.695C135.484 108.5 137.078 110.18 139.727 110.18ZM139.727 108.383C138.508 108.383 137.82 107.398 137.82 105.695C137.82 104.008 138.516 103.016 139.727 103.016C140.93 103.016 141.633 104.008 141.633 105.695C141.633 107.398 140.938 108.383 139.727 108.383ZM153.625 101.398H151.352V106.367C151.352 107.547 150.742 108.273 149.609 108.273C148.562 108.273 148.023 107.656 148.023 106.438V101.398H145.75V107C145.75 109 146.906 110.18 148.766 110.18C150.07 110.18 150.875 109.617 151.281 108.617H151.422V110H153.625V101.398ZM155.906 110H158.18V105.188C158.18 103.977 159.031 103.234 160.273 103.234C160.641 103.234 161.172 103.297 161.352 103.359V101.359C161.156 101.297 160.773 101.258 160.461 101.258C159.367 101.258 158.477 101.906 158.25 102.766H158.109V101.398H155.906V110ZM170.82 110.18C173.469 110.18 175.062 108.508 175.062 105.695C175.062 102.906 173.445 101.211 170.82 101.211C168.195 101.211 166.578 102.914 166.578 105.695C166.578 108.5 168.172 110.18 170.82 110.18ZM170.82 108.383C169.602 108.383 168.914 107.398 168.914 105.695C168.914 104.008 169.609 103.016 170.82 103.016C172.023 103.016 172.727 104.008 172.727 105.695C172.727 107.398 172.031 108.383 170.82 108.383ZM176.922 110H179.195V105.188C179.195 103.977 180.047 103.234 181.289 103.234C181.656 103.234 182.188 103.297 182.367 103.359V101.359C182.172 101.297 181.789 101.258 181.477 101.258C180.383 101.258 179.492 101.906 179.266 102.766H179.125V101.398H176.922V110ZM186.773 110.133C187.969 110.133 188.945 109.578 189.406 108.648H189.547V110H191.75V98.1094H189.477V102.773H189.344C188.898 101.82 187.938 101.258 186.773 101.258C184.609 101.258 183.266 102.953 183.266 105.688C183.266 108.43 184.602 110.133 186.773 110.133ZM187.547 103.102C188.758 103.102 189.5 104.094 189.5 105.703C189.5 107.312 188.766 108.297 187.547 108.297C186.328 108.297 185.602 107.32 185.602 105.695C185.602 104.078 186.336 103.102 187.547 103.102ZM199.68 107.57C199.438 108.156 198.82 108.484 197.922 108.484C196.734 108.484 195.984 107.664 195.953 106.352V106.234H201.867V105.555C201.867 102.836 200.367 101.211 197.828 101.211C195.266 101.211 193.688 102.945 193.688 105.742C193.688 108.523 195.234 110.18 197.859 110.18C199.969 110.18 201.461 109.172 201.797 107.57H199.68ZM197.836 102.906C198.898 102.906 199.586 103.641 199.633 104.82H195.961C196.039 103.664 196.781 102.906 197.836 102.906ZM203.734 110H206.008V105.188C206.008 103.977 206.859 103.234 208.102 103.234C208.469 103.234 209 103.297 209.18 103.359V101.359C208.984 101.297 208.602 101.258 208.289 101.258C207.195 101.258 206.305 101.906 206.078 102.766H205.938V101.398H203.734V110ZM210.969 110.195C211.812 110.195 212.352 109.633 212.352 108.867C212.352 108.102 211.812 107.547 210.969 107.547C210.133 107.547 209.586 108.102 209.586 108.867C209.586 109.633 210.133 110.195 210.969 110.195ZM216.531 110.195C217.375 110.195 217.914 109.633 217.914 108.867C217.914 108.102 217.375 107.547 216.531 107.547C215.695 107.547 215.148 108.102 215.148 108.867C215.148 109.633 215.695 110.195 216.531 110.195ZM222.094 110.195C222.938 110.195 223.477 109.633 223.477 108.867C223.477 108.102 222.938 107.547 222.094 107.547C221.258 107.547 220.711 108.102 220.711 108.867C220.711 109.633 221.258 110.195 222.094 110.195Z" fill="#3C4257"/>
<rect x="30" y="90" width="197" height="28" stroke="white" stroke-width="4"/>
<path d="M28 28H52V52H28V28Z" fill="white"/>
<path fill-rule="evenodd" clip-rule="evenodd" d="M40 28C46.6274 28 52 33.3726 52 40C52 46.6274 46.6274 52 40 52C33.3726 52 28 46.6274 28 40C28 33.3726 33.3726 28 40 28ZM40 32.5C39.1716 32.5 38.5 33.1716 38.5 34V40C38.5 40.5654 38.8129 41.0578 39.2749 41.3134L43.1471 43.549C43.8646 43.9633 44.7819 43.7174 45.1962 43C45.6104 42.2826 45.3646 41.3652 44.6471 40.951L41.5 39.134V34C41.5 33.1716 40.8284 32.5 40 32.5Z" fill="#4F566B"/>
<rect x="0.5" y="0.5" width="447" height="207" rx="7.5" stroke="#E3E8EE"/>
<defs>
<clipPath id="clip0">
<path d="M0 0H448V208H0V0Z" fill="white"/>
</clipPath>
</defs>
</svg>
