<svg width="448" height="304" viewBox="0 0 448 304" fill="none" xmlns="http://www.w3.org/2000/svg">
<g clip-path="url(#clip0)">
<path d="M0 0H448V304H0V0Z" fill="white"/>
<path d="M0 0L448 -3.91654e-05" stroke="#E3E8EE" stroke-width="2" stroke-linecap="round" stroke-linejoin="round" stroke-dasharray="0.01 16"/>
<path d="M0 16L448 16" stroke="#E3E8EE" stroke-width="2" stroke-linecap="round" stroke-linejoin="round" stroke-dasharray="0.01 16"/>
<path d="M0 32L448 32" stroke="#E3E8EE" stroke-width="2" stroke-linecap="round" stroke-linejoin="round" stroke-dasharray="0.01 16"/>
<path d="M0 48L448 48" stroke="#E3E8EE" stroke-width="2" stroke-linecap="round" stroke-linejoin="round" stroke-dasharray="0.01 16"/>
<path d="M0 64L448 64" stroke="#E3E8EE" stroke-width="2" stroke-linecap="round" stroke-linejoin="round" stroke-dasharray="0.01 16"/>
<path d="M0 80L448 80" stroke="#E3E8EE" stroke-width="2" stroke-linecap="round" stroke-linejoin="round" stroke-dasharray="0.01 16"/>
<path d="M0 96L448 96" stroke="#E3E8EE" stroke-width="2" stroke-linecap="round" stroke-linejoin="round" stroke-dasharray="0.01 16"/>
<path d="M0 112L448 112" stroke="#E3E8EE" stroke-width="2" stroke-linecap="round" stroke-linejoin="round" stroke-dasharray="0.01 16"/>
<path d="M0 128L448 128" stroke="#E3E8EE" stroke-width="2" stroke-linecap="round" stroke-linejoin="round" stroke-dasharray="0.01 16"/>
<path d="M0 144L448 144" stroke="#E3E8EE" stroke-width="2" stroke-linecap="round" stroke-linejoin="round" stroke-dasharray="0.01 16"/>
<path d="M0 160L448 160" stroke="#E3E8EE" stroke-width="2" stroke-linecap="round" stroke-linejoin="round" stroke-dasharray="0.01 16"/>
<path d="M0 176L448 176" stroke="#E3E8EE" stroke-width="2" stroke-linecap="round" stroke-linejoin="round" stroke-dasharray="0.01 16"/>
<path d="M0 192L448 192" stroke="#E3E8EE" stroke-width="2" stroke-linecap="round" stroke-linejoin="round" stroke-dasharray="0.01 16"/>
<path d="M0 208L448 208" stroke="#E3E8EE" stroke-width="2" stroke-linecap="round" stroke-linejoin="round" stroke-dasharray="0.01 16"/>
<path d="M0 224L448 224" stroke="#E3E8EE" stroke-width="2" stroke-linecap="round" stroke-linejoin="round" stroke-dasharray="0.01 16"/>
<path d="M0 240L448 240" stroke="#E3E8EE" stroke-width="2" stroke-linecap="round" stroke-linejoin="round" stroke-dasharray="0.01 16"/>
<path d="M0 256L448 256" stroke="#E3E8EE" stroke-width="2" stroke-linecap="round" stroke-linejoin="round" stroke-dasharray="0.01 16"/>
<path d="M0 272L448 272" stroke="#E3E8EE" stroke-width="2" stroke-linecap="round" stroke-linejoin="round" stroke-dasharray="0.01 16"/>
<path d="M0 288L448 288" stroke="#E3E8EE" stroke-width="2" stroke-linecap="round" stroke-linejoin="round" stroke-dasharray="0.01 16"/>
<path d="M0 304L448 304" stroke="#E3E8EE" stroke-width="2" stroke-linecap="round" stroke-linejoin="round" stroke-dasharray="0.01 16"/>
<rect x="0.5" y="0.5" width="447" height="303" stroke="white"/>
</g>
<path d="M32 228C32 225.791 33.7909 224 36 224H412C414.209 224 416 225.791 416 228V268C416 270.209 414.209 272 412 272H36C33.7909 272 32 270.209 32 268V228Z" fill="#8792A2"/>
<rect x="30" y="222" width="388" height="52" rx="6" fill="#C1C9D2" stroke="white" stroke-width="4"/>
<path d="M180.586 254H183.141L179.227 242.727H176.453L172.539 254H174.906L175.773 251.266H179.734L180.586 254ZM177.695 245.016H177.836L179.234 249.5H176.281L177.695 245.016ZM192.164 245.398H189.891V250.367C189.891 251.547 189.281 252.273 188.148 252.273C187.102 252.273 186.562 251.656 186.562 250.438V245.398H184.289V251C184.289 253 185.445 254.18 187.305 254.18C188.609 254.18 189.414 253.617 189.82 252.617H189.961V254H192.164V245.398ZM195.094 243.344V245.477H193.75V247.203H195.094V251.68C195.094 253.352 195.922 254.031 198.016 254.031C198.453 254.031 198.875 253.984 199.156 253.93V252.25C198.938 252.273 198.781 252.289 198.484 252.289C197.711 252.289 197.367 251.93 197.367 251.156V247.203H199.156V245.477H197.367V243.344H195.094ZM201.133 254H203.406V249.047C203.406 247.906 204.062 247.133 205.203 247.133C206.234 247.133 206.789 247.758 206.789 248.977V254H209.062V248.461C209.062 246.398 207.961 245.234 206.109 245.234C204.844 245.234 203.906 245.828 203.508 246.805H203.367V242.109H201.133V254ZM216.844 251.57C216.602 252.156 215.984 252.484 215.086 252.484C213.898 252.484 213.148 251.664 213.117 250.352V250.234H219.031V249.555C219.031 246.836 217.531 245.211 214.992 245.211C212.43 245.211 210.852 246.945 210.852 249.742C210.852 252.523 212.398 254.18 215.023 254.18C217.133 254.18 218.625 253.172 218.961 251.57H216.844ZM215 246.906C216.062 246.906 216.75 247.641 216.797 248.82H213.125C213.203 247.664 213.945 246.906 215 246.906ZM220.898 254H223.172V249.023C223.172 247.859 223.82 247.109 224.875 247.109C225.953 247.109 226.461 247.742 226.461 248.953V254H228.734V248.438C228.734 246.383 227.703 245.211 225.789 245.211C224.516 245.211 223.641 245.812 223.242 246.781H223.102V245.398H220.898V254ZM231.594 243.344V245.477H230.25V247.203H231.594V251.68C231.594 253.352 232.422 254.031 234.516 254.031C234.953 254.031 235.375 253.984 235.656 253.93V252.25C235.438 252.273 235.281 252.289 234.984 252.289C234.211 252.289 233.867 251.93 233.867 251.156V247.203H235.656V245.477H233.867V243.344H231.594ZM238.711 244.078C239.414 244.078 239.992 243.516 239.992 242.812C239.992 242.102 239.414 241.539 238.711 241.539C238.008 241.539 237.422 242.102 237.422 242.812C237.422 243.516 238.008 244.078 238.711 244.078ZM237.57 254H239.844V245.398H237.57V254ZM249.773 248.398C249.586 246.477 248.219 245.211 245.938 245.211C243.242 245.211 241.727 246.844 241.727 249.68C241.727 252.547 243.25 254.18 245.938 254.18C248.18 254.18 249.586 252.945 249.773 251.055H247.648C247.477 251.914 246.867 252.375 245.938 252.375C244.719 252.375 244.023 251.414 244.023 249.68C244.023 247.969 244.711 247.023 245.938 247.023C246.906 247.023 247.492 247.57 247.648 248.398H249.773ZM253.914 254.133C255.031 254.133 255.969 253.656 256.414 252.859H256.555V254H258.758V248.125C258.758 246.289 257.469 245.211 255.188 245.211C253.023 245.211 251.562 246.203 251.414 247.781H253.508C253.695 247.242 254.242 246.953 255.062 246.953C256 246.953 256.516 247.383 256.516 248.125V248.836L254.43 248.961C252.289 249.086 251.094 249.992 251.094 251.547C251.094 253.117 252.258 254.133 253.914 254.133ZM254.664 252.469C253.875 252.469 253.32 252.07 253.32 251.406C253.32 250.773 253.797 250.406 254.773 250.344L256.516 250.227V250.867C256.516 251.773 255.719 252.469 254.664 252.469ZM261.641 243.344V245.477H260.297V247.203H261.641V251.68C261.641 253.352 262.469 254.031 264.562 254.031C265 254.031 265.422 253.984 265.703 253.93V252.25C265.484 252.273 265.328 252.289 265.031 252.289C264.258 252.289 263.914 251.93 263.914 251.156V247.203H265.703V245.477H263.914V243.344H261.641ZM273.109 251.57C272.867 252.156 272.25 252.484 271.352 252.484C270.164 252.484 269.414 251.664 269.383 250.352V250.234H275.297V249.555C275.297 246.836 273.797 245.211 271.258 245.211C268.695 245.211 267.117 246.945 267.117 249.742C267.117 252.523 268.664 254.18 271.289 254.18C273.398 254.18 274.891 253.172 275.227 251.57H273.109ZM271.266 246.906C272.328 246.906 273.016 247.641 273.062 248.82H269.391C269.469 247.664 270.211 246.906 271.266 246.906Z" fill="white"/>
<rect x="30" y="142" width="388" height="52" rx="6" fill="white"/>
<path d="M36.2667 144.5H411.733C413.845 144.5 415.5 146.097 415.5 148V188C415.5 189.903 413.845 191.5 411.733 191.5H36.2667C34.1555 191.5 32.5 189.903 32.5 188V148C32.5 146.097 34.1555 144.5 36.2667 144.5Z" fill="white" stroke="#C1C9D2"/>
<path d="M53.7266 174.266C56.125 174.266 57.9062 172.93 58.2812 170.859H56.8516C56.4922 172.164 55.2969 172.969 53.7266 172.969C51.5547 172.969 50.1953 171.195 50.1953 168.367C50.1953 165.539 51.5547 163.758 53.7188 163.758C55.2734 163.758 56.4766 164.672 56.8516 166.125H58.2812C57.9453 163.953 56.0938 162.461 53.7188 162.461C50.6562 162.461 48.75 164.727 48.75 168.367C48.75 172 50.6641 174.266 53.7266 174.266ZM63.9297 174.148C66.3281 174.148 67.8125 172.492 67.8125 169.789C67.8125 167.078 66.3281 165.43 63.9297 165.43C61.5312 165.43 60.0469 167.078 60.0469 169.789C60.0469 172.492 61.5312 174.148 63.9297 174.148ZM63.9297 172.938C62.3359 172.938 61.4375 171.781 61.4375 169.789C61.4375 167.789 62.3359 166.641 63.9297 166.641C65.5234 166.641 66.4219 167.789 66.4219 169.789C66.4219 171.781 65.5234 172.938 63.9297 172.938ZM69.9219 174H71.2656V169.016C71.2656 167.539 72.1328 166.641 73.4766 166.641C74.8203 166.641 75.4609 167.359 75.4609 168.875V174H76.8047V168.547C76.8047 166.547 75.75 165.43 73.8594 165.43C72.5703 165.43 71.75 165.977 71.3281 166.906H71.2031V165.578H69.9219V174ZM79.8281 174H81.1719V166.703H83.1016V165.578H81.1719V164.68C81.1719 163.758 81.5781 163.289 82.5469 163.289C82.7891 163.289 83.0156 163.297 83.1797 163.328V162.234C82.8984 162.18 82.6016 162.156 82.2734 162.156C80.6719 162.156 79.8281 162.961 79.8281 164.641V165.578H78.4297V166.703H79.8281V174ZM85.7656 163.953C86.2812 163.953 86.7031 163.531 86.7031 163.016C86.7031 162.5 86.2812 162.078 85.7656 162.078C85.25 162.078 84.8281 162.5 84.8281 163.016C84.8281 163.531 85.25 163.953 85.7656 163.953ZM85.0938 174H86.4375V165.578H85.0938V174ZM89 174H90.3438V168.781C90.3438 167.594 91.2734 166.734 92.5547 166.734C92.8203 166.734 93.3047 166.781 93.4141 166.812V165.469C93.2422 165.445 92.9609 165.43 92.7422 165.43C91.625 165.43 90.6562 166.008 90.4062 166.828H90.2812V165.578H89V174ZM95.25 174H96.5938V168.781C96.5938 167.594 97.4453 166.641 98.5469 166.641C99.6094 166.641 100.305 167.281 100.305 168.281V174H101.648V168.586C101.648 167.516 102.43 166.641 103.602 166.641C104.789 166.641 105.375 167.25 105.375 168.492V174H106.719V168.18C106.719 166.414 105.758 165.43 104.039 165.43C102.875 165.43 101.914 166.016 101.461 166.906H101.336C100.945 166.031 100.148 165.43 99.0078 165.43C97.8828 165.43 97.0391 165.969 96.6562 166.906H96.5312V165.578H95.25V174ZM111.516 174.148C112.641 174.148 113.562 173.656 114.109 172.758H114.234V174H115.516V168.234C115.516 166.484 114.367 165.43 112.312 165.43C110.516 165.43 109.188 166.32 109.008 167.672H110.367C110.555 167.008 111.258 166.625 112.266 166.625C113.523 166.625 114.172 167.195 114.172 168.234V169L111.742 169.148C109.781 169.266 108.672 170.133 108.672 171.641C108.672 173.18 109.883 174.148 111.516 174.148ZM111.766 172.969C110.789 172.969 110.062 172.469 110.062 171.609C110.062 170.766 110.625 170.32 111.906 170.234L114.172 170.086V170.859C114.172 172.062 113.148 172.969 111.766 172.969ZM118.562 163.398V165.578H117.203V166.703H118.562V171.812C118.562 173.422 119.258 174.062 120.992 174.062C121.258 174.062 121.516 174.031 121.781 173.984V172.852C121.531 172.875 121.398 172.883 121.156 172.883C120.281 172.883 119.906 172.461 119.906 171.469V166.703H121.781V165.578H119.906V163.398H118.562ZM124.516 163.953C125.031 163.953 125.453 163.531 125.453 163.016C125.453 162.5 125.031 162.078 124.516 162.078C124 162.078 123.578 162.5 123.578 163.016C123.578 163.531 124 163.953 124.516 163.953ZM123.844 174H125.188V165.578H123.844V174ZM131.211 174.148C133.609 174.148 135.094 172.492 135.094 169.789C135.094 167.078 133.609 165.43 131.211 165.43C128.812 165.43 127.328 167.078 127.328 169.789C127.328 172.492 128.812 174.148 131.211 174.148ZM131.211 172.938C129.617 172.938 128.719 171.781 128.719 169.789C128.719 167.789 129.617 166.641 131.211 166.641C132.805 166.641 133.703 167.789 133.703 169.789C133.703 171.781 132.805 172.938 131.211 172.938ZM137.203 174H138.547V169.016C138.547 167.539 139.414 166.641 140.758 166.641C142.102 166.641 142.742 167.359 142.742 168.875V174H144.086V168.547C144.086 166.547 143.031 165.43 141.141 165.43C139.852 165.43 139.031 165.977 138.609 166.906H138.484V165.578H137.203V174ZM158.031 168.156C157.797 166.656 156.547 165.43 154.5 165.43C152.141 165.43 150.641 167.133 150.641 169.758C150.641 172.438 152.148 174.148 154.508 174.148C156.531 174.148 157.789 173.008 158.031 171.461H156.672C156.422 172.414 155.633 172.938 154.5 172.938C153 172.938 152.031 171.703 152.031 169.758C152.031 167.852 152.984 166.641 154.5 166.641C155.711 166.641 156.453 167.32 156.672 168.156H158.031ZM163.477 174.148C165.875 174.148 167.359 172.492 167.359 169.789C167.359 167.078 165.875 165.43 163.477 165.43C161.078 165.43 159.594 167.078 159.594 169.789C159.594 172.492 161.078 174.148 163.477 174.148ZM163.477 172.938C161.883 172.938 160.984 171.781 160.984 169.789C160.984 167.789 161.883 166.641 163.477 166.641C165.07 166.641 165.969 167.789 165.969 169.789C165.969 171.781 165.07 172.938 163.477 172.938ZM172.586 174.148C173.75 174.148 174.75 173.594 175.281 172.656H175.406V174H176.688V162.234H175.344V166.906H175.227C174.75 165.984 173.758 165.43 172.586 165.43C170.445 165.43 169.047 167.148 169.047 169.789C169.047 172.438 170.43 174.148 172.586 174.148ZM172.898 166.641C174.422 166.641 175.375 167.859 175.375 169.789C175.375 171.734 174.43 172.938 172.898 172.938C171.359 172.938 170.438 171.758 170.438 169.789C170.438 167.828 171.367 166.641 172.898 166.641ZM184.875 171.82C184.523 172.562 183.789 172.961 182.703 172.961C181.273 172.961 180.344 171.906 180.273 170.242V170.18H186.328V169.664C186.328 167.047 184.945 165.43 182.672 165.43C180.359 165.43 178.875 167.148 178.875 169.797C178.875 172.461 180.336 174.148 182.672 174.148C184.516 174.148 185.828 173.258 186.219 171.82H184.875ZM182.656 166.617C183.992 166.617 184.883 167.602 184.914 169.094H180.273C180.375 167.602 181.312 166.617 182.656 166.617Z" fill="#8792A2"/>
<rect x="30" y="142" width="388" height="52" rx="6" stroke="#F7FAFC" stroke-width="4"/>
<rect x="30" y="78" width="388" height="52" fill="white"/>
<path d="M39.6953 89.1016H39.7891L42.3828 98H43.7109L46.7812 86.7266H45.3125L43.0703 95.8906H42.9766L40.4531 86.7266H39.0312L36.5078 95.8906H36.4141L34.1719 86.7266H32.7031L35.7734 98H37.1016L39.6953 89.1016ZM53.5469 95.8203C53.1953 96.5625 52.4609 96.9609 51.375 96.9609C49.9453 96.9609 49.0156 95.9062 48.9453 94.2422V94.1797H55V93.6641C55 91.0469 53.6172 89.4297 51.3438 89.4297C49.0312 89.4297 47.5469 91.1484 47.5469 93.7969C47.5469 96.4609 49.0078 98.1484 51.3438 98.1484C53.1875 98.1484 54.5 97.2578 54.8906 95.8203H53.5469ZM51.3281 90.6172C52.6641 90.6172 53.5547 91.6016 53.5859 93.0938H48.9453C49.0469 91.6016 49.9844 90.6172 51.3281 90.6172ZM61.7031 98H63.0469V93.0156C63.0469 91.5938 63.875 90.6406 65.3828 90.6406C66.6562 90.6406 67.3281 91.3828 67.3281 92.875V98H68.6719V92.5469C68.6719 90.5703 67.5469 89.4297 65.7656 89.4297C64.4766 89.4297 63.5938 89.9766 63.1719 90.9062H63.0469V86.2344H61.7031V98ZM73.4688 98.1484C74.5938 98.1484 75.5156 97.6562 76.0625 96.7578H76.1875V98H77.4688V92.2344C77.4688 90.4844 76.3203 89.4297 74.2656 89.4297C72.4688 89.4297 71.1406 90.3203 70.9609 91.6719H72.3203C72.5078 91.0078 73.2109 90.625 74.2188 90.625C75.4766 90.625 76.125 91.1953 76.125 92.2344V93L73.6953 93.1484C71.7344 93.2656 70.625 94.1328 70.625 95.6406C70.625 97.1797 71.8359 98.1484 73.4688 98.1484ZM73.7188 96.9688C72.7422 96.9688 72.0156 96.4688 72.0156 95.6094C72.0156 94.7656 72.5781 94.3203 73.8594 94.2344L76.125 94.0859V94.8594C76.125 96.0625 75.1016 96.9688 73.7188 96.9688ZM86.5156 89.5781H85.0781L82.7734 96.5156H82.6484L80.3438 89.5781H78.9062L82.0234 98H83.3984L86.5156 89.5781ZM93.5781 95.8203C93.2266 96.5625 92.4922 96.9609 91.4062 96.9609C89.9766 96.9609 89.0469 95.9062 88.9766 94.2422V94.1797H95.0312V93.6641C95.0312 91.0469 93.6484 89.4297 91.375 89.4297C89.0625 89.4297 87.5781 91.1484 87.5781 93.7969C87.5781 96.4609 89.0391 98.1484 91.375 98.1484C93.2188 98.1484 94.5312 97.2578 94.9219 95.8203H93.5781ZM91.3594 90.6172C92.6953 90.6172 93.5859 91.6016 93.6172 93.0938H88.9766C89.0781 91.6016 90.0156 90.6172 91.3594 90.6172ZM101.461 91.8828C101.461 93.1016 102.18 93.7812 103.758 94.1641L105.203 94.5156C106.102 94.7344 106.539 95.125 106.539 95.7031C106.539 96.4766 105.727 97.0156 104.594 97.0156C103.516 97.0156 102.844 96.5625 102.617 95.8516H101.234C101.383 97.25 102.672 98.1484 104.547 98.1484C106.461 98.1484 107.922 97.1094 107.922 95.6016C107.922 94.3906 107.156 93.7031 105.57 93.3203L104.273 93.0078C103.281 92.7656 102.812 92.4062 102.812 91.8281C102.812 91.0781 103.594 90.5703 104.594 90.5703C105.609 90.5703 106.266 91.0156 106.445 91.6875H107.773C107.594 90.3047 106.367 89.4297 104.602 89.4297C102.812 89.4297 101.461 90.4844 101.461 91.8828ZM115.609 95.8203C115.258 96.5625 114.523 96.9609 113.438 96.9609C112.008 96.9609 111.078 95.9062 111.008 94.2422V94.1797H117.062V93.6641C117.062 91.0469 115.68 89.4297 113.406 89.4297C111.094 89.4297 109.609 91.1484 109.609 93.7969C109.609 96.4609 111.07 98.1484 113.406 98.1484C115.25 98.1484 116.562 97.2578 116.953 95.8203H115.609ZM113.391 90.6172C114.727 90.6172 115.617 91.6016 115.648 93.0938H111.008C111.109 91.6016 112.047 90.6172 113.391 90.6172ZM119.172 98H120.516V93.0156C120.516 91.5391 121.383 90.6406 122.727 90.6406C124.07 90.6406 124.711 91.3594 124.711 92.875V98H126.055V92.5469C126.055 90.5469 125 89.4297 123.109 89.4297C121.82 89.4297 121 89.9766 120.578 90.9062H120.453V89.5781H119.172V98ZM129.078 87.3984V89.5781H127.719V90.7031H129.078V95.8125C129.078 97.4219 129.773 98.0625 131.508 98.0625C131.773 98.0625 132.031 98.0312 132.297 97.9844V96.8516C132.047 96.875 131.914 96.8828 131.672 96.8828C130.797 96.8828 130.422 96.4609 130.422 95.4688V90.7031H132.297V89.5781H130.422V87.3984H129.078ZM139.562 101.047C141.055 101.047 141.727 100.469 142.445 98.5156L145.734 89.5781H144.305L142 96.5078H141.875L139.562 89.5781H138.109L141.227 98.0078L141.07 98.5078C140.719 99.5234 140.297 99.8906 139.523 99.8906C139.336 99.8906 139.125 99.8828 138.961 99.8516V101C139.148 101.031 139.383 101.047 139.562 101.047ZM150.68 98.1484C153.078 98.1484 154.562 96.4922 154.562 93.7891C154.562 91.0781 153.078 89.4297 150.68 89.4297C148.281 89.4297 146.797 91.0781 146.797 93.7891C146.797 96.4922 148.281 98.1484 150.68 98.1484ZM150.68 96.9375C149.086 96.9375 148.188 95.7812 148.188 93.7891C148.188 91.7891 149.086 90.6406 150.68 90.6406C152.273 90.6406 153.172 91.7891 153.172 93.7891C153.172 95.7812 152.273 96.9375 150.68 96.9375ZM163.484 89.5781H162.141V94.5625C162.141 96.0391 161.328 96.9219 159.844 96.9219C158.5 96.9219 157.938 96.2188 157.938 94.7031V89.5781H156.594V95.0312C156.594 97.0234 157.578 98.1484 159.469 98.1484C160.758 98.1484 161.656 97.6172 162.078 96.6797H162.203V98H163.484V89.5781ZM172.875 98.1484C174 98.1484 174.922 97.6562 175.469 96.7578H175.594V98H176.875V92.2344C176.875 90.4844 175.727 89.4297 173.672 89.4297C171.875 89.4297 170.547 90.3203 170.367 91.6719H171.727C171.914 91.0078 172.617 90.625 173.625 90.625C174.883 90.625 175.531 91.1953 175.531 92.2344V93L173.102 93.1484C171.141 93.2656 170.031 94.1328 170.031 95.6406C170.031 97.1797 171.242 98.1484 172.875 98.1484ZM173.125 96.9688C172.148 96.9688 171.422 96.4688 171.422 95.6094C171.422 94.7656 171.984 94.3203 173.266 94.2344L175.531 94.0859V94.8594C175.531 96.0625 174.508 96.9688 173.125 96.9688ZM184.438 87.3984V89.5781H183.078V90.7031H184.438V95.8125C184.438 97.4219 185.133 98.0625 186.867 98.0625C187.133 98.0625 187.391 98.0312 187.656 97.9844V96.8516C187.406 96.875 187.273 96.8828 187.031 96.8828C186.156 96.8828 185.781 96.4609 185.781 95.4688V90.7031H187.656V89.5781H185.781V87.3984H184.438ZM195.141 95.8203C194.789 96.5625 194.055 96.9609 192.969 96.9609C191.539 96.9609 190.609 95.9062 190.539 94.2422V94.1797H196.594V93.6641C196.594 91.0469 195.211 89.4297 192.938 89.4297C190.625 89.4297 189.141 91.1484 189.141 93.7969C189.141 96.4609 190.602 98.1484 192.938 98.1484C194.781 98.1484 196.094 97.2578 196.484 95.8203H195.141ZM192.922 90.6172C194.258 90.6172 195.148 91.6016 195.18 93.0938H190.539C190.641 91.6016 191.578 90.6172 192.922 90.6172ZM201.367 94.8438L203.359 98.0234H204.953L202.055 93.7578L204.914 89.6016H203.391L201.414 92.7344H201.289L199.289 89.6016H197.688L200.602 93.8125L197.719 98.0234H199.242L201.242 94.8438H201.367ZM207.344 87.3984V89.5781H205.984V90.7031H207.344V95.8125C207.344 97.4219 208.039 98.0625 209.773 98.0625C210.039 98.0625 210.297 98.0312 210.562 97.9844V96.8516C210.312 96.875 210.18 96.8828 209.938 96.8828C209.062 96.8828 208.688 96.4609 208.688 95.4688V90.7031H210.562V89.5781H208.688V87.3984H207.344ZM217.109 98H218.453V92.7812C218.453 91.5938 219.305 90.6406 220.406 90.6406C221.469 90.6406 222.164 91.2812 222.164 92.2812V98H223.508V92.5859C223.508 91.5156 224.289 90.6406 225.461 90.6406C226.648 90.6406 227.234 91.25 227.234 92.4922V98H228.578V92.1797C228.578 90.4141 227.617 89.4297 225.898 89.4297C224.734 89.4297 223.773 90.0156 223.32 90.9062H223.195C222.805 90.0312 222.008 89.4297 220.867 89.4297C219.742 89.4297 218.898 89.9688 218.516 90.9062H218.391V89.5781H217.109V98ZM236.609 95.8203C236.258 96.5625 235.523 96.9609 234.438 96.9609C233.008 96.9609 232.078 95.9062 232.008 94.2422V94.1797H238.062V93.6641C238.062 91.0469 236.68 89.4297 234.406 89.4297C232.094 89.4297 230.609 91.1484 230.609 93.7969C230.609 96.4609 232.07 98.1484 234.406 98.1484C236.25 98.1484 237.562 97.2578 237.953 95.8203H236.609ZM234.391 90.6172C235.727 90.6172 236.617 91.6016 236.648 93.0938H232.008C232.109 91.6016 233.047 90.6172 234.391 90.6172ZM239.977 91.8828C239.977 93.1016 240.695 93.7812 242.273 94.1641L243.719 94.5156C244.617 94.7344 245.055 95.125 245.055 95.7031C245.055 96.4766 244.242 97.0156 243.109 97.0156C242.031 97.0156 241.359 96.5625 241.133 95.8516H239.75C239.898 97.25 241.188 98.1484 243.062 98.1484C244.977 98.1484 246.438 97.1094 246.438 95.6016C246.438 94.3906 245.672 93.7031 244.086 93.3203L242.789 93.0078C241.797 92.7656 241.328 92.4062 241.328 91.8281C241.328 91.0781 242.109 90.5703 243.109 90.5703C244.125 90.5703 244.781 91.0156 244.961 91.6875H246.289C246.109 90.3047 244.883 89.4297 243.117 89.4297C241.328 89.4297 239.977 90.4844 239.977 91.8828ZM248.195 91.8828C248.195 93.1016 248.914 93.7812 250.492 94.1641L251.938 94.5156C252.836 94.7344 253.273 95.125 253.273 95.7031C253.273 96.4766 252.461 97.0156 251.328 97.0156C250.25 97.0156 249.578 96.5625 249.352 95.8516H247.969C248.117 97.25 249.406 98.1484 251.281 98.1484C253.195 98.1484 254.656 97.1094 254.656 95.6016C254.656 94.3906 253.891 93.7031 252.305 93.3203L251.008 93.0078C250.016 92.7656 249.547 92.4062 249.547 91.8281C249.547 91.0781 250.328 90.5703 251.328 90.5703C252.344 90.5703 253 91.0156 253.18 91.6875H254.508C254.328 90.3047 253.102 89.4297 251.336 89.4297C249.547 89.4297 248.195 90.4844 248.195 91.8828ZM259.109 98.1484C260.234 98.1484 261.156 97.6562 261.703 96.7578H261.828V98H263.109V92.2344C263.109 90.4844 261.961 89.4297 259.906 89.4297C258.109 89.4297 256.781 90.3203 256.602 91.6719H257.961C258.148 91.0078 258.852 90.625 259.859 90.625C261.117 90.625 261.766 91.1953 261.766 92.2344V93L259.336 93.1484C257.375 93.2656 256.266 94.1328 256.266 95.6406C256.266 97.1797 257.477 98.1484 259.109 98.1484ZM259.359 96.9688C258.383 96.9688 257.656 96.4688 257.656 95.6094C257.656 94.7656 258.219 94.3203 259.5 94.2344L261.766 94.0859V94.8594C261.766 96.0625 260.742 96.9688 259.359 96.9688ZM269.062 101.234C271.359 101.234 272.812 100.031 272.812 98.1484V89.5781H271.531V90.9141H271.406C270.922 90.0078 269.883 89.4297 268.703 89.4297C266.539 89.4297 265.172 91.1406 265.172 93.6641C265.172 96.1875 266.523 97.875 268.703 97.875C269.859 97.875 270.812 97.3516 271.344 96.4219H271.469V98.0781C271.469 99.3203 270.57 100.062 269.062 100.062C267.852 100.062 267.102 99.6172 266.953 98.9297H265.531C265.734 100.32 267.031 101.234 269.062 101.234ZM269 96.6875C267.438 96.6875 266.562 95.5 266.562 93.6641C266.562 91.8281 267.438 90.6406 269 90.6406C270.555 90.6406 271.5 91.8281 271.5 93.6641C271.5 95.5 270.562 96.6875 269 96.6875ZM280.922 95.8203C280.57 96.5625 279.836 96.9609 278.75 96.9609C277.32 96.9609 276.391 95.9062 276.32 94.2422V94.1797H282.375V93.6641C282.375 91.0469 280.992 89.4297 278.719 89.4297C276.406 89.4297 274.922 91.1484 274.922 93.7969C274.922 96.4609 276.383 98.1484 278.719 98.1484C280.562 98.1484 281.875 97.2578 282.266 95.8203H280.922ZM278.703 90.6172C280.039 90.6172 280.93 91.6016 280.961 93.0938H276.32C276.422 91.6016 277.359 90.6172 278.703 90.6172ZM289.562 87.3984V89.5781H288.203V90.7031H289.562V95.8125C289.562 97.4219 290.258 98.0625 291.992 98.0625C292.258 98.0625 292.516 98.0312 292.781 97.9844V96.8516C292.531 96.875 292.398 96.8828 292.156 96.8828C291.281 96.8828 290.906 96.4609 290.906 95.4688V90.7031H292.781V89.5781H290.906V87.3984H289.562ZM298.148 98.1484C300.547 98.1484 302.031 96.4922 302.031 93.7891C302.031 91.0781 300.547 89.4297 298.148 89.4297C295.75 89.4297 294.266 91.0781 294.266 93.7891C294.266 96.4922 295.75 98.1484 298.148 98.1484ZM298.148 96.9375C296.555 96.9375 295.656 95.7812 295.656 93.7891C295.656 91.7891 296.555 90.6406 298.148 90.6406C299.742 90.6406 300.641 91.7891 300.641 93.7891C300.641 95.7812 299.742 96.9375 298.148 96.9375ZM309.375 101.047C310.867 101.047 311.539 100.469 312.258 98.5156L315.547 89.5781H314.117L311.812 96.5078H311.688L309.375 89.5781H307.922L311.039 98.0078L310.883 98.5078C310.531 99.5234 310.109 99.8906 309.336 99.8906C309.148 99.8906 308.938 99.8828 308.773 99.8516V101C308.961 101.031 309.195 101.047 309.375 101.047ZM320.492 98.1484C322.891 98.1484 324.375 96.4922 324.375 93.7891C324.375 91.0781 322.891 89.4297 320.492 89.4297C318.094 89.4297 316.609 91.0781 316.609 93.7891C316.609 96.4922 318.094 98.1484 320.492 98.1484ZM320.492 96.9375C318.898 96.9375 318 95.7812 318 93.7891C318 91.7891 318.898 90.6406 320.492 90.6406C322.086 90.6406 322.984 91.7891 322.984 93.7891C322.984 95.7812 322.086 96.9375 320.492 96.9375ZM333.297 89.5781H331.953V94.5625C331.953 96.0391 331.141 96.9219 329.656 96.9219C328.312 96.9219 327.75 96.2188 327.75 94.7031V89.5781H326.406V95.0312C326.406 97.0234 327.391 98.1484 329.281 98.1484C330.57 98.1484 331.469 97.6172 331.891 96.6797H332.016V98H333.297V89.5781ZM335.828 98H337.172V92.7812C337.172 91.5938 338.102 90.7344 339.383 90.7344C339.648 90.7344 340.133 90.7812 340.242 90.8125V89.4688C340.07 89.4453 339.789 89.4297 339.57 89.4297C338.453 89.4297 337.484 90.0078 337.234 90.8281H337.109V89.5781H335.828V98ZM33.2656 122H34.6094V116.781C34.6094 115.594 35.5391 114.734 36.8203 114.734C37.0859 114.734 37.5703 114.781 37.6797 114.812V113.469C37.5078 113.445 37.2266 113.43 37.0078 113.43C35.8906 113.43 34.9219 114.008 34.6719 114.828H34.5469V113.578H33.2656V122ZM44.7031 119.82C44.3516 120.562 43.6172 120.961 42.5312 120.961C41.1016 120.961 40.1719 119.906 40.1016 118.242V118.18H46.1562V117.664C46.1562 115.047 44.7734 113.43 42.5 113.43C40.1875 113.43 38.7031 115.148 38.7031 117.797C38.7031 120.461 40.1641 122.148 42.5 122.148C44.3438 122.148 45.6562 121.258 46.0469 119.82H44.7031ZM42.4844 114.617C43.8203 114.617 44.7109 115.602 44.7422 117.094H40.1016C40.2031 115.602 41.1406 114.617 42.4844 114.617ZM51.7344 125.234C54.0312 125.234 55.4844 124.031 55.4844 122.148V113.578H54.2031V114.914H54.0781C53.5938 114.008 52.5547 113.43 51.375 113.43C49.2109 113.43 47.8438 115.141 47.8438 117.664C47.8438 120.188 49.1953 121.875 51.375 121.875C52.5312 121.875 53.4844 121.352 54.0156 120.422H54.1406V122.078C54.1406 123.32 53.2422 124.062 51.7344 124.062C50.5234 124.062 49.7734 123.617 49.625 122.93H48.2031C48.4062 124.32 49.7031 125.234 51.7344 125.234ZM51.6719 120.688C50.1094 120.688 49.2344 119.5 49.2344 117.664C49.2344 115.828 50.1094 114.641 51.6719 114.641C53.2266 114.641 54.1719 115.828 54.1719 117.664C54.1719 119.5 53.2344 120.688 51.6719 120.688ZM58.7188 111.953C59.2344 111.953 59.6562 111.531 59.6562 111.016C59.6562 110.5 59.2344 110.078 58.7188 110.078C58.2031 110.078 57.7812 110.5 57.7812 111.016C57.7812 111.531 58.2031 111.953 58.7188 111.953ZM58.0469 122H59.3906V113.578H58.0469V122ZM61.7578 115.883C61.7578 117.102 62.4766 117.781 64.0547 118.164L65.5 118.516C66.3984 118.734 66.8359 119.125 66.8359 119.703C66.8359 120.477 66.0234 121.016 64.8906 121.016C63.8125 121.016 63.1406 120.562 62.9141 119.852H61.5312C61.6797 121.25 62.9688 122.148 64.8438 122.148C66.7578 122.148 68.2188 121.109 68.2188 119.602C68.2188 118.391 67.4531 117.703 65.8672 117.32L64.5703 117.008C63.5781 116.766 63.1094 116.406 63.1094 115.828C63.1094 115.078 63.8906 114.57 64.8906 114.57C65.9062 114.57 66.5625 115.016 66.7422 115.688H68.0703C67.8906 114.305 66.6641 113.43 64.8984 113.43C63.1094 113.43 61.7578 114.484 61.7578 115.883ZM70.8125 111.398V113.578H69.4531V114.703H70.8125V119.812C70.8125 121.422 71.5078 122.062 73.2422 122.062C73.5078 122.062 73.7656 122.031 74.0312 121.984V120.852C73.7812 120.875 73.6484 120.883 73.4062 120.883C72.5312 120.883 72.1562 120.461 72.1562 119.469V114.703H74.0312V113.578H72.1562V111.398H70.8125ZM81.5156 119.82C81.1641 120.562 80.4297 120.961 79.3438 120.961C77.9141 120.961 76.9844 119.906 76.9141 118.242V118.18H82.9688V117.664C82.9688 115.047 81.5859 113.43 79.3125 113.43C77 113.43 75.5156 115.148 75.5156 117.797C75.5156 120.461 76.9766 122.148 79.3125 122.148C81.1562 122.148 82.4688 121.258 82.8594 119.82H81.5156ZM79.2969 114.617C80.6328 114.617 81.5234 115.602 81.5547 117.094H76.9141C77.0156 115.602 77.9531 114.617 79.2969 114.617ZM85.0781 122H86.4219V116.781C86.4219 115.594 87.3516 114.734 88.6328 114.734C88.8984 114.734 89.3828 114.781 89.4922 114.812V113.469C89.3203 113.445 89.0391 113.43 88.8203 113.43C87.7031 113.43 86.7344 114.008 86.4844 114.828H86.3594V113.578H85.0781V122ZM96.5156 119.82C96.1641 120.562 95.4297 120.961 94.3438 120.961C92.9141 120.961 91.9844 119.906 91.9141 118.242V118.18H97.9688V117.664C97.9688 115.047 96.5859 113.43 94.3125 113.43C92 113.43 90.5156 115.148 90.5156 117.797C90.5156 120.461 91.9766 122.148 94.3125 122.148C96.1562 122.148 97.4688 121.258 97.8594 119.82H96.5156ZM94.2969 114.617C95.6328 114.617 96.5234 115.602 96.5547 117.094H91.9141C92.0156 115.602 92.9531 114.617 94.2969 114.617ZM103.195 122.148C104.359 122.148 105.359 121.594 105.891 120.656H106.016V122H107.297V110.234H105.953V114.906H105.836C105.359 113.984 104.367 113.43 103.195 113.43C101.055 113.43 99.6562 115.148 99.6562 117.789C99.6562 120.438 101.039 122.148 103.195 122.148ZM103.508 114.641C105.031 114.641 105.984 115.859 105.984 117.789C105.984 119.734 105.039 120.938 103.508 120.938C101.969 120.938 101.047 119.758 101.047 117.789C101.047 115.828 101.977 114.641 103.508 114.641ZM114.422 122H115.766V117.016C115.766 115.539 116.633 114.641 117.977 114.641C119.32 114.641 119.961 115.359 119.961 116.875V122H121.305V116.547C121.305 114.547 120.25 113.43 118.359 113.43C117.07 113.43 116.25 113.977 115.828 114.906H115.703V113.578H114.422V122ZM130.578 113.578H129.234V118.562C129.234 120.039 128.422 120.922 126.938 120.922C125.594 120.922 125.031 120.219 125.031 118.703V113.578H123.688V119.031C123.688 121.023 124.672 122.148 126.562 122.148C127.852 122.148 128.75 121.617 129.172 120.68H129.297V122H130.578V113.578ZM133.109 122H134.453V116.781C134.453 115.594 135.305 114.641 136.406 114.641C137.469 114.641 138.164 115.281 138.164 116.281V122H139.508V116.586C139.508 115.516 140.289 114.641 141.461 114.641C142.648 114.641 143.234 115.25 143.234 116.492V122H144.578V116.18C144.578 114.414 143.617 113.43 141.898 113.43C140.734 113.43 139.773 114.016 139.32 114.906H139.195C138.805 114.031 138.008 113.43 136.867 113.43C135.742 113.43 134.898 113.969 134.516 114.906H134.391V113.578H133.109V122ZM151.219 122.148C153.352 122.148 154.75 120.422 154.75 117.789C154.75 115.141 153.359 113.43 151.219 113.43C150.062 113.43 149.039 114 148.578 114.906H148.453V110.234H147.109V122H148.391V120.656H148.516C149.047 121.594 150.047 122.148 151.219 122.148ZM150.906 114.641C152.445 114.641 153.359 115.82 153.359 117.789C153.359 119.758 152.445 120.938 150.906 120.938C149.375 120.938 148.422 119.734 148.422 117.789C148.422 115.844 149.375 114.641 150.906 114.641ZM162.438 119.82C162.086 120.562 161.352 120.961 160.266 120.961C158.836 120.961 157.906 119.906 157.836 118.242V118.18H163.891V117.664C163.891 115.047 162.508 113.43 160.234 113.43C157.922 113.43 156.438 115.148 156.438 117.797C156.438 120.461 157.898 122.148 160.234 122.148C162.078 122.148 163.391 121.258 163.781 119.82H162.438ZM160.219 114.617C161.555 114.617 162.445 115.602 162.477 117.094H157.836C157.938 115.602 158.875 114.617 160.219 114.617ZM166 122H167.344V116.781C167.344 115.594 168.273 114.734 169.555 114.734C169.82 114.734 170.305 114.781 170.414 114.812V113.469C170.242 113.445 169.961 113.43 169.742 113.43C168.625 113.43 167.656 114.008 167.406 114.828H167.281V113.578H166V122ZM182.188 119.82C181.836 120.562 181.102 120.961 180.016 120.961C178.586 120.961 177.656 119.906 177.586 118.242V118.18H183.641V117.664C183.641 115.047 182.258 113.43 179.984 113.43C177.672 113.43 176.188 115.148 176.188 117.797C176.188 120.461 177.648 122.148 179.984 122.148C181.828 122.148 183.141 121.258 183.531 119.82H182.188ZM179.969 114.617C181.305 114.617 182.195 115.602 182.227 117.094H177.586C177.688 115.602 178.625 114.617 179.969 114.617ZM185.75 122H187.094V117.016C187.094 115.539 187.961 114.641 189.305 114.641C190.648 114.641 191.289 115.359 191.289 116.875V122H192.633V116.547C192.633 114.547 191.578 113.43 189.688 113.43C188.398 113.43 187.578 113.977 187.156 114.906H187.031V113.578H185.75V122ZM198.211 122.148C199.375 122.148 200.375 121.594 200.906 120.656H201.031V122H202.312V110.234H200.969V114.906H200.852C200.375 113.984 199.383 113.43 198.211 113.43C196.07 113.43 194.672 115.148 194.672 117.789C194.672 120.438 196.055 122.148 198.211 122.148ZM198.523 114.641C200.047 114.641 201 115.859 201 117.789C201 119.734 200.055 120.938 198.523 120.938C196.984 120.938 196.062 119.758 196.062 117.789C196.062 115.828 196.992 114.641 198.523 114.641ZM205.625 111.953C206.141 111.953 206.562 111.531 206.562 111.016C206.562 110.5 206.141 110.078 205.625 110.078C205.109 110.078 204.688 110.5 204.688 111.016C204.688 111.531 205.109 111.953 205.625 111.953ZM204.953 122H206.297V113.578H204.953V122ZM208.859 122H210.203V117.016C210.203 115.539 211.07 114.641 212.414 114.641C213.758 114.641 214.398 115.359 214.398 116.875V122H215.742V116.547C215.742 114.547 214.688 113.43 212.797 113.43C211.508 113.43 210.688 113.977 210.266 114.906H210.141V113.578H208.859V122ZM221.672 125.234C223.969 125.234 225.422 124.031 225.422 122.148V113.578H224.141V114.914H224.016C223.531 114.008 222.492 113.43 221.312 113.43C219.148 113.43 217.781 115.141 217.781 117.664C217.781 120.188 219.133 121.875 221.312 121.875C222.469 121.875 223.422 121.352 223.953 120.422H224.078V122.078C224.078 123.32 223.18 124.062 221.672 124.062C220.461 124.062 219.711 123.617 219.562 122.93H218.141C218.344 124.32 219.641 125.234 221.672 125.234ZM221.609 120.688C220.047 120.688 219.172 119.5 219.172 117.664C219.172 115.828 220.047 114.641 221.609 114.641C223.164 114.641 224.109 115.828 224.109 117.664C224.109 119.5 223.172 120.688 221.609 120.688ZM233.172 111.953C233.688 111.953 234.109 111.531 234.109 111.016C234.109 110.5 233.688 110.078 233.172 110.078C232.656 110.078 232.234 110.5 232.234 111.016C232.234 111.531 232.656 111.953 233.172 111.953ZM232.5 122H233.844V113.578H232.5V122ZM236.406 122H237.75V117.016C237.75 115.539 238.617 114.641 239.961 114.641C241.305 114.641 241.945 115.359 241.945 116.875V122H243.289V116.547C243.289 114.547 242.234 113.43 240.344 113.43C239.055 113.43 238.234 113.977 237.812 114.906H237.688V113.578H236.406V122ZM254.906 115.555L255.43 114.648L253.484 113.625L255.43 112.594L254.906 111.672L253.078 112.945L253.203 110.727H252.141L252.266 112.945L250.438 111.672L249.914 112.594L251.867 113.625L249.914 114.648L250.438 115.555L252.266 114.312L252.141 116.5H253.203L253.078 114.32L254.906 115.555ZM262.25 115.555L262.773 114.648L260.828 113.625L262.773 112.594L262.25 111.672L260.422 112.945L260.547 110.727H259.484L259.609 112.945L257.781 111.672L257.258 112.594L259.211 113.625L257.258 114.648L257.781 115.555L259.609 114.312L259.484 116.5H260.547L260.422 114.32L262.25 115.555ZM269.594 115.555L270.117 114.648L268.172 113.625L270.117 112.594L269.594 111.672L267.766 112.945L267.891 110.727H266.828L266.953 112.945L265.125 111.672L264.602 112.594L266.555 113.625L264.602 114.648L265.125 115.555L266.953 114.312L266.828 116.5H267.891L267.766 114.32L269.594 115.555ZM274.656 116.805H276.055C277.641 116.805 278.617 117.617 278.617 118.922C278.617 120.188 277.562 121.039 276.078 121.039C274.625 121.039 273.609 120.281 273.484 119.094H272.125C272.227 121.008 273.805 122.266 276.094 122.266C278.336 122.266 280.062 120.852 280.062 118.961C280.062 117.391 279.094 116.398 277.633 116.164V116.039C278.789 115.703 279.633 114.805 279.641 113.445C279.648 111.867 278.367 110.461 276.141 110.461C273.859 110.461 272.461 111.812 272.32 113.648H273.688C273.805 112.383 274.688 111.688 276.047 111.688C277.406 111.688 278.211 112.547 278.211 113.602C278.211 114.773 277.289 115.602 275.992 115.602H274.656V116.805ZM286.109 122.266C288.641 122.266 290.094 120.125 290.094 116.383C290.094 112.648 288.617 110.461 286.109 110.461C283.586 110.461 282.109 112.641 282.109 116.359C282.109 120.109 283.57 122.266 286.109 122.266ZM286.109 121.039C284.445 121.039 283.523 119.375 283.523 116.359C283.523 113.383 284.461 111.695 286.109 111.695C287.758 111.695 288.68 113.367 288.68 116.359C288.68 119.383 287.773 121.039 286.109 121.039ZM294.766 116.805H296.164C297.75 116.805 298.727 117.617 298.727 118.922C298.727 120.188 297.672 121.039 296.188 121.039C294.734 121.039 293.719 120.281 293.594 119.094H292.234C292.336 121.008 293.914 122.266 296.203 122.266C298.445 122.266 300.172 120.852 300.172 118.961C300.172 117.391 299.203 116.398 297.742 116.164V116.039C298.898 115.703 299.742 114.805 299.75 113.445C299.758 111.867 298.477 110.461 296.25 110.461C293.969 110.461 292.57 111.812 292.43 113.648H293.797C293.914 112.383 294.797 111.688 296.156 111.688C297.516 111.688 298.32 112.547 298.32 113.602C298.32 114.773 297.398 115.602 296.102 115.602H294.766V116.805ZM306.031 122.258C308.789 122.258 310.367 120.039 310.367 116.164C310.367 112.328 308.555 110.461 306.125 110.461C303.812 110.461 302.172 112.078 302.172 114.344C302.172 116.531 303.727 118.117 305.875 118.117C307.219 118.117 308.32 117.477 308.875 116.383H309C308.922 119.383 307.883 121.008 306.047 121.008C304.938 121.008 304.078 120.391 303.781 119.375H302.336C302.688 121.148 304.117 122.258 306.031 122.258ZM306.125 116.898C304.633 116.898 303.594 115.836 303.594 114.297C303.594 112.82 304.695 111.695 306.141 111.695C307.586 111.695 308.688 112.836 308.688 114.344C308.688 115.836 307.617 116.898 306.125 116.898Z" fill="#4F566B"/>
<rect x="30" y="78" width="388" height="52" stroke="white" stroke-width="4"/>
<rect x="30" y="26" width="228" height="28" fill="white"/>
<path d="M40.6094 46H43.1641L39.25 34.7266H36.4766L32.5625 46H34.9297L35.7969 43.2656H39.7578L40.6094 46ZM37.7188 37.0156H37.8594L39.2578 41.5H36.3047L37.7188 37.0156ZM52.1875 37.3984H49.9141V42.3672C49.9141 43.5469 49.3047 44.2734 48.1719 44.2734C47.125 44.2734 46.5859 43.6562 46.5859 42.4375V37.3984H44.3125V43C44.3125 45 45.4688 46.1797 47.3281 46.1797C48.6328 46.1797 49.4375 45.6172 49.8438 44.6172H49.9844V46H52.1875V37.3984ZM55.1172 35.3438V37.4766H53.7734V39.2031H55.1172V43.6797C55.1172 45.3516 55.9453 46.0312 58.0391 46.0312C58.4766 46.0312 58.8984 45.9844 59.1797 45.9297V44.25C58.9609 44.2734 58.8047 44.2891 58.5078 44.2891C57.7344 44.2891 57.3906 43.9297 57.3906 43.1562V39.2031H59.1797V37.4766H57.3906V35.3438H55.1172ZM61.1562 46H63.4297V41.0469C63.4297 39.9062 64.0859 39.1328 65.2266 39.1328C66.2578 39.1328 66.8125 39.7578 66.8125 40.9766V46H69.0859V40.4609C69.0859 38.3984 67.9844 37.2344 66.1328 37.2344C64.8672 37.2344 63.9297 37.8281 63.5312 38.8047H63.3906V34.1094H61.1562V46ZM76.8672 43.5703C76.625 44.1562 76.0078 44.4844 75.1094 44.4844C73.9219 44.4844 73.1719 43.6641 73.1406 42.3516V42.2344H79.0547V41.5547C79.0547 38.8359 77.5547 37.2109 75.0156 37.2109C72.4531 37.2109 70.875 38.9453 70.875 41.7422C70.875 44.5234 72.4219 46.1797 75.0469 46.1797C77.1562 46.1797 78.6484 45.1719 78.9844 43.5703H76.8672ZM75.0234 38.9062C76.0859 38.9062 76.7734 39.6406 76.8203 40.8203H73.1484C73.2266 39.6641 73.9688 38.9062 75.0234 38.9062ZM80.9219 46H83.1953V41.0234C83.1953 39.8594 83.8438 39.1094 84.8984 39.1094C85.9766 39.1094 86.4844 39.7422 86.4844 40.9531V46H88.7578V40.4375C88.7578 38.3828 87.7266 37.2109 85.8125 37.2109C84.5391 37.2109 83.6641 37.8125 83.2656 38.7812H83.125V37.3984H80.9219V46ZM91.6172 35.3438V37.4766H90.2734V39.2031H91.6172V43.6797C91.6172 45.3516 92.4453 46.0312 94.5391 46.0312C94.9766 46.0312 95.3984 45.9844 95.6797 45.9297V44.25C95.4609 44.2734 95.3047 44.2891 95.0078 44.2891C94.2344 44.2891 93.8906 43.9297 93.8906 43.1562V39.2031H95.6797V37.4766H93.8906V35.3438H91.6172ZM98.7344 36.0781C99.4375 36.0781 100.016 35.5156 100.016 34.8125C100.016 34.1016 99.4375 33.5391 98.7344 33.5391C98.0312 33.5391 97.4453 34.1016 97.4453 34.8125C97.4453 35.5156 98.0312 36.0781 98.7344 36.0781ZM97.5938 46H99.8672V37.3984H97.5938V46ZM109.797 40.3984C109.609 38.4766 108.242 37.2109 105.961 37.2109C103.266 37.2109 101.75 38.8438 101.75 41.6797C101.75 44.5469 103.273 46.1797 105.961 46.1797C108.203 46.1797 109.609 44.9453 109.797 43.0547H107.672C107.5 43.9141 106.891 44.375 105.961 44.375C104.742 44.375 104.047 43.4141 104.047 41.6797C104.047 39.9688 104.734 39.0234 105.961 39.0234C106.93 39.0234 107.516 39.5703 107.672 40.3984H109.797ZM113.938 46.1328C115.055 46.1328 115.992 45.6562 116.438 44.8594H116.578V46H118.781V40.125C118.781 38.2891 117.492 37.2109 115.211 37.2109C113.047 37.2109 111.586 38.2031 111.438 39.7812H113.531C113.719 39.2422 114.266 38.9531 115.086 38.9531C116.023 38.9531 116.539 39.3828 116.539 40.125V40.8359L114.453 40.9609C112.312 41.0859 111.117 41.9922 111.117 43.5469C111.117 45.1172 112.281 46.1328 113.938 46.1328ZM114.688 44.4688C113.898 44.4688 113.344 44.0703 113.344 43.4062C113.344 42.7734 113.82 42.4062 114.797 42.3438L116.539 42.2266V42.8672C116.539 43.7734 115.742 44.4688 114.688 44.4688ZM121.664 35.3438V37.4766H120.32V39.2031H121.664V43.6797C121.664 45.3516 122.492 46.0312 124.586 46.0312C125.023 46.0312 125.445 45.9844 125.727 45.9297V44.25C125.508 44.2734 125.352 44.2891 125.055 44.2891C124.281 44.2891 123.938 43.9297 123.938 43.1562V39.2031H125.727V37.4766H123.938V35.3438H121.664ZM133.133 43.5703C132.891 44.1562 132.273 44.4844 131.375 44.4844C130.188 44.4844 129.438 43.6641 129.406 42.3516V42.2344H135.32V41.5547C135.32 38.8359 133.82 37.2109 131.281 37.2109C128.719 37.2109 127.141 38.9453 127.141 41.7422C127.141 44.5234 128.688 46.1797 131.312 46.1797C133.422 46.1797 134.914 45.1719 135.25 43.5703H133.133ZM131.289 38.9062C132.352 38.9062 133.039 39.6406 133.086 40.8203H129.414C129.492 39.6641 130.234 38.9062 131.289 38.9062ZM142.383 49.125C144.531 49.125 145.586 48.3594 146.32 46.1641L149.289 37.3984H146.883L145.07 43.9609H144.93L143.117 37.3984H140.609L143.633 46.0469L143.555 46.375C143.367 47.0703 142.883 47.3516 142.031 47.3516C141.938 47.3516 141.594 47.3438 141.516 47.3281V49.1016C141.609 49.1172 142.297 49.125 142.383 49.125ZM154.336 46.1797C156.984 46.1797 158.578 44.5078 158.578 41.6953C158.578 38.9062 156.961 37.2109 154.336 37.2109C151.711 37.2109 150.094 38.9141 150.094 41.6953C150.094 44.5 151.688 46.1797 154.336 46.1797ZM154.336 44.3828C153.117 44.3828 152.43 43.3984 152.43 41.6953C152.43 40.0078 153.125 39.0156 154.336 39.0156C155.539 39.0156 156.242 40.0078 156.242 41.6953C156.242 43.3984 155.547 44.3828 154.336 44.3828ZM168.234 37.3984H165.961V42.3672C165.961 43.5469 165.352 44.2734 164.219 44.2734C163.172 44.2734 162.633 43.6562 162.633 42.4375V37.3984H160.359V43C160.359 45 161.516 46.1797 163.375 46.1797C164.68 46.1797 165.484 45.6172 165.891 44.6172H166.031V46H168.234V37.3984ZM170.516 46H172.789V41.1875C172.789 39.9766 173.641 39.2344 174.883 39.2344C175.25 39.2344 175.781 39.2969 175.961 39.3594V37.3594C175.766 37.2969 175.383 37.2578 175.07 37.2578C173.977 37.2578 173.086 37.9062 172.859 38.7656H172.719V37.3984H170.516V46ZM186.586 37.2578C185.398 37.2578 184.422 37.8438 183.953 38.8125H183.812V37.3984H181.609V48.8516H183.883V44.6875H184.023C184.445 45.5938 185.391 46.1328 186.625 46.1328C188.781 46.1328 190.102 44.4609 190.102 41.6953C190.102 38.9219 188.766 37.2578 186.586 37.2578ZM185.812 44.2969C184.609 44.2969 183.859 43.3125 183.859 41.7031C183.859 40.0938 184.609 39.1016 185.82 39.1016C187.031 39.1016 187.766 40.0781 187.766 41.6953C187.766 43.3203 187.039 44.2969 185.812 44.2969ZM199.75 37.3984H197.477V42.3672C197.477 43.5469 196.867 44.2734 195.734 44.2734C194.688 44.2734 194.148 43.6562 194.148 42.4375V37.3984H191.875V43C191.875 45 193.031 46.1797 194.891 46.1797C196.195 46.1797 197 45.6172 197.406 44.6172H197.547V46H199.75V37.3984ZM202.031 46H204.305V41.1875C204.305 39.9766 205.156 39.2344 206.398 39.2344C206.766 39.2344 207.297 39.2969 207.477 39.3594V37.3594C207.281 37.2969 206.898 37.2578 206.586 37.2578C205.492 37.2578 204.602 37.9062 204.375 38.7656H204.234V37.3984H202.031V46ZM216.422 40.3984C216.234 38.4766 214.867 37.2109 212.586 37.2109C209.891 37.2109 208.375 38.8438 208.375 41.6797C208.375 44.5469 209.898 46.1797 212.586 46.1797C214.828 46.1797 216.234 44.9453 216.422 43.0547H214.297C214.125 43.9141 213.516 44.375 212.586 44.375C211.367 44.375 210.672 43.4141 210.672 41.6797C210.672 39.9688 211.359 39.0234 212.586 39.0234C213.555 39.0234 214.141 39.5703 214.297 40.3984H216.422ZM218.281 46H220.555V41.0469C220.555 39.9062 221.211 39.1328 222.352 39.1328C223.383 39.1328 223.938 39.7578 223.938 40.9766V46H226.211V40.4609C226.211 38.3984 225.109 37.2344 223.258 37.2344C221.992 37.2344 221.055 37.8281 220.656 38.8047H220.516V34.1094H218.281V46ZM230.781 46.1328C231.898 46.1328 232.836 45.6562 233.281 44.8594H233.422V46H235.625V40.125C235.625 38.2891 234.336 37.2109 232.055 37.2109C229.891 37.2109 228.43 38.2031 228.281 39.7812H230.375C230.562 39.2422 231.109 38.9531 231.93 38.9531C232.867 38.9531 233.383 39.3828 233.383 40.125V40.8359L231.297 40.9609C229.156 41.0859 227.961 41.9922 227.961 43.5469C227.961 45.1172 229.125 46.1328 230.781 46.1328ZM231.531 44.4688C230.742 44.4688 230.188 44.0703 230.188 43.4062C230.188 42.7734 230.664 42.4062 231.641 42.3438L233.383 42.2266V42.8672C233.383 43.7734 232.586 44.4688 231.531 44.4688ZM237.664 39.9062C237.664 41.2266 238.477 42.0156 240.148 42.3828L241.711 42.7344C242.469 42.9062 242.797 43.1719 242.797 43.6094C242.797 44.1797 242.188 44.5703 241.305 44.5703C240.398 44.5703 239.844 44.2188 239.672 43.625H237.453C237.609 45.25 238.984 46.1797 241.258 46.1797C243.516 46.1797 245.055 45.0703 245.055 43.3672C245.055 42.0859 244.305 41.3828 242.633 41.0156L241.016 40.6641C240.219 40.4844 239.852 40.2109 239.852 39.7734C239.852 39.2109 240.453 38.8281 241.266 38.8281C242.109 38.8281 242.633 39.1797 242.75 39.75H244.852C244.727 38.125 243.438 37.2109 241.25 37.2109C239.102 37.2109 237.664 38.2969 237.664 39.9062ZM252.492 43.5703C252.25 44.1562 251.633 44.4844 250.734 44.4844C249.547 44.4844 248.797 43.6641 248.766 42.3516V42.2344H254.68V41.5547C254.68 38.8359 253.18 37.2109 250.641 37.2109C248.078 37.2109 246.5 38.9453 246.5 41.7422C246.5 44.5234 248.047 46.1797 250.672 46.1797C252.781 46.1797 254.273 45.1719 254.609 43.5703H252.492ZM250.648 38.9062C251.711 38.9062 252.398 39.6406 252.445 40.8203H248.773C248.852 39.6641 249.594 38.9062 250.648 38.9062Z" fill="#3C4257"/>
<rect x="30" y="26" width="228" height="28" stroke="white" stroke-width="4"/>
<rect x="0.5" y="0.5" width="447" height="303" rx="7.5" stroke="#E3E8EE"/>
<defs>
<clipPath id="clip0">
<path d="M0 0H448V304H0V0Z" fill="white"/>
</clipPath>
</defs>
</svg>
