<svg width="448" height="240" viewBox="0 0 448 240" fill="none" xmlns="http://www.w3.org/2000/svg">
<g clip-path="url(#clip0)">
<path d="M0 0H448V240H0V0Z" fill="white"/>
<path d="M0 0L448 -3.91654e-05" stroke="#E3E8EE" stroke-width="2" stroke-linecap="round" stroke-linejoin="round" stroke-dasharray="0.01 16"/>
<path d="M0 16L448 16" stroke="#E3E8EE" stroke-width="2" stroke-linecap="round" stroke-linejoin="round" stroke-dasharray="0.01 16"/>
<path d="M0 32L448 32" stroke="#E3E8EE" stroke-width="2" stroke-linecap="round" stroke-linejoin="round" stroke-dasharray="0.01 16"/>
<path d="M0 48L448 48" stroke="#E3E8EE" stroke-width="2" stroke-linecap="round" stroke-linejoin="round" stroke-dasharray="0.01 16"/>
<path d="M0 64L448 64" stroke="#E3E8EE" stroke-width="2" stroke-linecap="round" stroke-linejoin="round" stroke-dasharray="0.01 16"/>
<path d="M0 80L448 80" stroke="#E3E8EE" stroke-width="2" stroke-linecap="round" stroke-linejoin="round" stroke-dasharray="0.01 16"/>
<path d="M0 96L448 96" stroke="#E3E8EE" stroke-width="2" stroke-linecap="round" stroke-linejoin="round" stroke-dasharray="0.01 16"/>
<path d="M0 112L448 112" stroke="#E3E8EE" stroke-width="2" stroke-linecap="round" stroke-linejoin="round" stroke-dasharray="0.01 16"/>
<path d="M0 128L448 128" stroke="#E3E8EE" stroke-width="2" stroke-linecap="round" stroke-linejoin="round" stroke-dasharray="0.01 16"/>
<path d="M0 144L448 144" stroke="#E3E8EE" stroke-width="2" stroke-linecap="round" stroke-linejoin="round" stroke-dasharray="0.01 16"/>
<path d="M0 160L448 160" stroke="#E3E8EE" stroke-width="2" stroke-linecap="round" stroke-linejoin="round" stroke-dasharray="0.01 16"/>
<path d="M0 176L448 176" stroke="#E3E8EE" stroke-width="2" stroke-linecap="round" stroke-linejoin="round" stroke-dasharray="0.01 16"/>
<path d="M0 192L448 192" stroke="#E3E8EE" stroke-width="2" stroke-linecap="round" stroke-linejoin="round" stroke-dasharray="0.01 16"/>
<path d="M0 208L448 208" stroke="#E3E8EE" stroke-width="2" stroke-linecap="round" stroke-linejoin="round" stroke-dasharray="0.01 16"/>
<path d="M0 224L448 224" stroke="#E3E8EE" stroke-width="2" stroke-linecap="round" stroke-linejoin="round" stroke-dasharray="0.01 16"/>
<path d="M0 240L448 240" stroke="#E3E8EE" stroke-width="2" stroke-linecap="round" stroke-linejoin="round" stroke-dasharray="0.01 16"/>
<rect x="0.5" y="0.5" width="447" height="239" stroke="white"/>
</g>
<rect x="30" y="142" width="388" height="52" fill="white"/>
<path d="M37.9531 162V157.148L41.9531 150.727H40.3516L37.3125 155.734H37.1875L34.1484 150.727H32.5469L36.5469 157.148V162H37.9531ZM45.8984 162.148C48.2969 162.148 49.7812 160.492 49.7812 157.789C49.7812 155.078 48.2969 153.43 45.8984 153.43C43.5 153.43 42.0156 155.078 42.0156 157.789C42.0156 160.492 43.5 162.148 45.8984 162.148ZM45.8984 160.938C44.3047 160.938 43.4062 159.781 43.4062 157.789C43.4062 155.789 44.3047 154.641 45.8984 154.641C47.4922 154.641 48.3906 155.789 48.3906 157.789C48.3906 159.781 47.4922 160.938 45.8984 160.938ZM58.7031 153.578H57.3594V158.562C57.3594 160.039 56.5469 160.922 55.0625 160.922C53.7188 160.922 53.1562 160.219 53.1562 158.703V153.578H51.8125V159.031C51.8125 161.023 52.7969 162.148 54.6875 162.148C55.9766 162.148 56.875 161.617 57.2969 160.68H57.4219V162H58.7031V153.578ZM61.2344 162H62.5781V156.781C62.5781 155.594 63.5078 154.734 64.7891 154.734C65.0547 154.734 65.5391 154.781 65.6484 154.812V153.469C65.4766 153.445 65.1953 153.43 64.9766 153.43C63.8594 153.43 62.8906 154.008 62.6406 154.828H62.5156V153.578H61.2344V162ZM75.3047 162.148C77.7031 162.148 79.1875 160.492 79.1875 157.789C79.1875 155.078 77.7031 153.43 75.3047 153.43C72.9062 153.43 71.4219 155.078 71.4219 157.789C71.4219 160.492 72.9062 162.148 75.3047 162.148ZM75.3047 160.938C73.7109 160.938 72.8125 159.781 72.8125 157.789C72.8125 155.789 73.7109 154.641 75.3047 154.641C76.8984 154.641 77.7969 155.789 77.7969 157.789C77.7969 159.781 76.8984 160.938 75.3047 160.938ZM81.2969 162H82.6406V156.781C82.6406 155.594 83.5703 154.734 84.8516 154.734C85.1172 154.734 85.6016 154.781 85.7109 154.812V153.469C85.5391 153.445 85.2578 153.43 85.0391 153.43C83.9219 153.43 82.9531 154.008 82.7031 154.828H82.5781V153.578H81.2969V162ZM90.2734 162.148C91.4375 162.148 92.4375 161.594 92.9688 160.656H93.0938V162H94.375V150.234H93.0312V154.906H92.9141C92.4375 153.984 91.4453 153.43 90.2734 153.43C88.1328 153.43 86.7344 155.148 86.7344 157.789C86.7344 160.438 88.1172 162.148 90.2734 162.148ZM90.5859 154.641C92.1094 154.641 93.0625 155.859 93.0625 157.789C93.0625 159.734 92.1172 160.938 90.5859 160.938C89.0469 160.938 88.125 159.758 88.125 157.789C88.125 155.828 89.0547 154.641 90.5859 154.641ZM102.562 159.82C102.211 160.562 101.477 160.961 100.391 160.961C98.9609 160.961 98.0312 159.906 97.9609 158.242V158.18H104.016V157.664C104.016 155.047 102.633 153.43 100.359 153.43C98.0469 153.43 96.5625 155.148 96.5625 157.797C96.5625 160.461 98.0234 162.148 100.359 162.148C102.203 162.148 103.516 161.258 103.906 159.82H102.562ZM100.344 154.617C101.68 154.617 102.57 155.602 102.602 157.094H97.9609C98.0625 155.602 99 154.617 100.344 154.617ZM106.125 162H107.469V156.781C107.469 155.594 108.398 154.734 109.68 154.734C109.945 154.734 110.43 154.781 110.539 154.812V153.469C110.367 153.445 110.086 153.43 109.867 153.43C108.75 153.43 107.781 154.008 107.531 154.828H107.406V153.578H106.125V162ZM116.812 162H118.156V157.016C118.156 155.594 118.984 154.641 120.492 154.641C121.766 154.641 122.438 155.383 122.438 156.875V162H123.781V156.547C123.781 154.57 122.656 153.43 120.875 153.43C119.586 153.43 118.703 153.977 118.281 154.906H118.156V150.234H116.812V162ZM128.578 162.148C129.703 162.148 130.625 161.656 131.172 160.758H131.297V162H132.578V156.234C132.578 154.484 131.43 153.43 129.375 153.43C127.578 153.43 126.25 154.32 126.07 155.672H127.43C127.617 155.008 128.32 154.625 129.328 154.625C130.586 154.625 131.234 155.195 131.234 156.234V157L128.805 157.148C126.844 157.266 125.734 158.133 125.734 159.641C125.734 161.18 126.945 162.148 128.578 162.148ZM128.828 160.969C127.852 160.969 127.125 160.469 127.125 159.609C127.125 158.766 127.688 158.32 128.969 158.234L131.234 158.086V158.859C131.234 160.062 130.211 160.969 128.828 160.969ZM134.867 155.883C134.867 157.102 135.586 157.781 137.164 158.164L138.609 158.516C139.508 158.734 139.945 159.125 139.945 159.703C139.945 160.477 139.133 161.016 138 161.016C136.922 161.016 136.25 160.562 136.023 159.852H134.641C134.789 161.25 136.078 162.148 137.953 162.148C139.867 162.148 141.328 161.109 141.328 159.602C141.328 158.391 140.562 157.703 138.977 157.32L137.68 157.008C136.688 156.766 136.219 156.406 136.219 155.828C136.219 155.078 137 154.57 138 154.57C139.016 154.57 139.672 155.016 139.852 155.688H141.18C141 154.305 139.773 153.43 138.008 153.43C136.219 153.43 134.867 154.484 134.867 155.883ZM152.141 162.148C154.273 162.148 155.672 160.422 155.672 157.789C155.672 155.141 154.281 153.43 152.141 153.43C150.984 153.43 149.961 154 149.5 154.906H149.375V150.234H148.031V162H149.312V160.656H149.438C149.969 161.594 150.969 162.148 152.141 162.148ZM151.828 154.641C153.367 154.641 154.281 155.82 154.281 157.789C154.281 159.758 153.367 160.938 151.828 160.938C150.297 160.938 149.344 159.734 149.344 157.789C149.344 155.844 150.297 154.641 151.828 154.641ZM163.359 159.82C163.008 160.562 162.273 160.961 161.188 160.961C159.758 160.961 158.828 159.906 158.758 158.242V158.18H164.812V157.664C164.812 155.047 163.43 153.43 161.156 153.43C158.844 153.43 157.359 155.148 157.359 157.797C157.359 160.461 158.82 162.148 161.156 162.148C163 162.148 164.312 161.258 164.703 159.82H163.359ZM161.141 154.617C162.477 154.617 163.367 155.602 163.398 157.094H158.758C158.859 155.602 159.797 154.617 161.141 154.617ZM172.5 159.82C172.148 160.562 171.414 160.961 170.328 160.961C168.898 160.961 167.969 159.906 167.898 158.242V158.18H173.953V157.664C173.953 155.047 172.57 153.43 170.297 153.43C167.984 153.43 166.5 155.148 166.5 157.797C166.5 160.461 167.961 162.148 170.297 162.148C172.141 162.148 173.453 161.258 173.844 159.82H172.5ZM170.281 154.617C171.617 154.617 172.508 155.602 172.539 157.094H167.898C168 155.602 168.938 154.617 170.281 154.617ZM176.062 162H177.406V157.016C177.406 155.539 178.273 154.641 179.617 154.641C180.961 154.641 181.602 155.359 181.602 156.875V162H182.945V156.547C182.945 154.547 181.891 153.43 180 153.43C178.711 153.43 177.891 153.977 177.469 154.906H177.344V153.578H176.062V162ZM194.023 153.43C192.875 153.43 191.867 154.016 191.328 154.984H191.203V153.578H189.922V164.812H191.266V160.734H191.391C191.852 161.625 192.82 162.148 194.023 162.148C196.164 162.148 197.562 160.422 197.562 157.789C197.562 155.141 196.172 153.43 194.023 153.43ZM193.703 160.938C192.188 160.938 191.227 159.719 191.227 157.789C191.227 155.852 192.188 154.641 193.711 154.641C195.25 154.641 196.172 155.82 196.172 157.789C196.172 159.758 195.25 160.938 193.703 160.938ZM199.75 162H201.094V150.234H199.75V162ZM206.047 162.148C207.172 162.148 208.094 161.656 208.641 160.758H208.766V162H210.047V156.234C210.047 154.484 208.898 153.43 206.844 153.43C205.047 153.43 203.719 154.32 203.539 155.672H204.898C205.086 155.008 205.789 154.625 206.797 154.625C208.055 154.625 208.703 155.195 208.703 156.234V157L206.273 157.148C204.312 157.266 203.203 158.133 203.203 159.641C203.203 161.18 204.414 162.148 206.047 162.148ZM206.297 160.969C205.32 160.969 204.594 160.469 204.594 159.609C204.594 158.766 205.156 158.32 206.438 158.234L208.703 158.086V158.859C208.703 160.062 207.68 160.969 206.297 160.969ZM219.5 156.156C219.266 154.656 218.016 153.43 215.969 153.43C213.609 153.43 212.109 155.133 212.109 157.758C212.109 160.438 213.617 162.148 215.977 162.148C218 162.148 219.258 161.008 219.5 159.461H218.141C217.891 160.414 217.102 160.938 215.969 160.938C214.469 160.938 213.5 159.703 213.5 157.758C213.5 155.852 214.453 154.641 215.969 154.641C217.18 154.641 217.922 155.32 218.141 156.156H219.5ZM227.062 159.82C226.711 160.562 225.977 160.961 224.891 160.961C223.461 160.961 222.531 159.906 222.461 158.242V158.18H228.516V157.664C228.516 155.047 227.133 153.43 224.859 153.43C222.547 153.43 221.062 155.148 221.062 157.797C221.062 160.461 222.523 162.148 224.859 162.148C226.703 162.148 228.016 161.258 228.406 159.82H227.062ZM224.844 154.617C226.18 154.617 227.07 155.602 227.102 157.094H222.461C222.562 155.602 223.5 154.617 224.844 154.617ZM233.742 162.148C234.906 162.148 235.906 161.594 236.438 160.656H236.562V162H237.844V150.234H236.5V154.906H236.383C235.906 153.984 234.914 153.43 233.742 153.43C231.602 153.43 230.203 155.148 230.203 157.789C230.203 160.438 231.586 162.148 233.742 162.148ZM234.055 154.641C235.578 154.641 236.531 155.859 236.531 157.789C236.531 159.734 235.586 160.938 234.055 160.938C232.516 160.938 231.594 159.758 231.594 157.789C231.594 155.828 232.523 154.641 234.055 154.641ZM241.562 162.078C242.125 162.078 242.578 161.617 242.578 161.062C242.578 160.5 242.125 160.047 241.562 160.047C241.008 160.047 240.547 160.5 240.547 161.062C240.547 161.617 241.008 162.078 241.562 162.078ZM256.148 153.102H256.242L258.836 162H260.164L263.234 150.727H261.766L259.523 159.891H259.43L256.906 150.727H255.484L252.961 159.891H252.867L250.625 150.727H249.156L252.227 162H253.555L256.148 153.102ZM270 159.82C269.648 160.562 268.914 160.961 267.828 160.961C266.398 160.961 265.469 159.906 265.398 158.242V158.18H271.453V157.664C271.453 155.047 270.07 153.43 267.797 153.43C265.484 153.43 264 155.148 264 157.797C264 160.461 265.461 162.148 267.797 162.148C269.641 162.148 270.953 161.258 271.344 159.82H270ZM267.781 154.617C269.117 154.617 270.008 155.602 270.039 157.094H265.398C265.5 155.602 266.438 154.617 267.781 154.617ZM274.398 154.938L275.812 150.727H274.289L273.422 154.938H274.398ZM278.281 162H279.625V150.234H278.281V162ZM282.312 162H283.656V150.234H282.312V162ZM290.586 155.883C290.586 157.102 291.305 157.781 292.883 158.164L294.328 158.516C295.227 158.734 295.664 159.125 295.664 159.703C295.664 160.477 294.852 161.016 293.719 161.016C292.641 161.016 291.969 160.562 291.742 159.852H290.359C290.508 161.25 291.797 162.148 293.672 162.148C295.586 162.148 297.047 161.109 297.047 159.602C297.047 158.391 296.281 157.703 294.695 157.32L293.398 157.008C292.406 156.766 291.938 156.406 291.938 155.828C291.938 155.078 292.719 154.57 293.719 154.57C294.734 154.57 295.391 155.016 295.57 155.688H296.898C296.719 154.305 295.492 153.43 293.727 153.43C291.938 153.43 290.586 154.484 290.586 155.883ZM304.734 159.82C304.383 160.562 303.648 160.961 302.562 160.961C301.133 160.961 300.203 159.906 300.133 158.242V158.18H306.188V157.664C306.188 155.047 304.805 153.43 302.531 153.43C300.219 153.43 298.734 155.148 298.734 157.797C298.734 160.461 300.195 162.148 302.531 162.148C304.375 162.148 305.688 161.258 306.078 159.82H304.734ZM302.516 154.617C303.852 154.617 304.742 155.602 304.773 157.094H300.133C300.234 155.602 301.172 154.617 302.516 154.617ZM308.297 162H309.641V157.016C309.641 155.539 310.508 154.641 311.852 154.641C313.195 154.641 313.836 155.359 313.836 156.875V162H315.18V156.547C315.18 154.547 314.125 153.43 312.234 153.43C310.945 153.43 310.125 153.977 309.703 154.906H309.578V153.578H308.297V162ZM320.758 162.148C321.922 162.148 322.922 161.594 323.453 160.656H323.578V162H324.859V150.234H323.516V154.906H323.398C322.922 153.984 321.93 153.43 320.758 153.43C318.617 153.43 317.219 155.148 317.219 157.789C317.219 160.438 318.602 162.148 320.758 162.148ZM321.07 154.641C322.594 154.641 323.547 155.859 323.547 157.789C323.547 159.734 322.602 160.938 321.07 160.938C319.531 160.938 318.609 159.758 318.609 157.789C318.609 155.828 319.539 154.641 321.07 154.641ZM332.703 165.047C334.195 165.047 334.867 164.469 335.586 162.516L338.875 153.578H337.445L335.141 160.508H335.016L332.703 153.578H331.25L334.367 162.008L334.211 162.508C333.859 163.523 333.438 163.891 332.664 163.891C332.477 163.891 332.266 163.883 332.102 163.852V165C332.289 165.031 332.523 165.047 332.703 165.047ZM343.82 162.148C346.219 162.148 347.703 160.492 347.703 157.789C347.703 155.078 346.219 153.43 343.82 153.43C341.422 153.43 339.938 155.078 339.938 157.789C339.938 160.492 341.422 162.148 343.82 162.148ZM343.82 160.938C342.227 160.938 341.328 159.781 341.328 157.789C341.328 155.789 342.227 154.641 343.82 154.641C345.414 154.641 346.312 155.789 346.312 157.789C346.312 159.781 345.414 160.938 343.82 160.938ZM356.625 153.578H355.281V158.562C355.281 160.039 354.469 160.922 352.984 160.922C351.641 160.922 351.078 160.219 351.078 158.703V153.578H349.734V159.031C349.734 161.023 350.719 162.148 352.609 162.148C353.898 162.148 354.797 161.617 355.219 160.68H355.344V162H356.625V153.578ZM366.016 162.148C367.141 162.148 368.062 161.656 368.609 160.758H368.734V162H370.016V156.234C370.016 154.484 368.867 153.43 366.812 153.43C365.016 153.43 363.688 154.32 363.508 155.672H364.867C365.055 155.008 365.758 154.625 366.766 154.625C368.023 154.625 368.672 155.195 368.672 156.234V157L366.242 157.148C364.281 157.266 363.172 158.133 363.172 159.641C363.172 161.18 364.383 162.148 366.016 162.148ZM366.266 160.969C365.289 160.969 364.562 160.469 364.562 159.609C364.562 158.766 365.125 158.32 366.406 158.234L368.672 158.086V158.859C368.672 160.062 367.648 160.969 366.266 160.969ZM372.5 162H373.844V157.016C373.844 155.539 374.711 154.641 376.055 154.641C377.398 154.641 378.039 155.359 378.039 156.875V162H379.383V156.547C379.383 154.547 378.328 153.43 376.438 153.43C375.148 153.43 374.328 153.977 373.906 154.906H373.781V153.578H372.5V162ZM38.8438 183.82C38.4922 184.562 37.7578 184.961 36.6719 184.961C35.2422 184.961 34.3125 183.906 34.2422 182.242V182.18H40.2969V181.664C40.2969 179.047 38.9141 177.43 36.6406 177.43C34.3281 177.43 32.8438 179.148 32.8438 181.797C32.8438 184.461 34.3047 186.148 36.6406 186.148C38.4844 186.148 39.7969 185.258 40.1875 183.82H38.8438ZM36.625 178.617C37.9609 178.617 38.8516 179.602 38.8828 181.094H34.2422C34.3438 179.602 35.2812 178.617 36.625 178.617ZM42.4062 186H43.75V180.781C43.75 179.594 44.6016 178.641 45.7031 178.641C46.7656 178.641 47.4609 179.281 47.4609 180.281V186H48.8047V180.586C48.8047 179.516 49.5859 178.641 50.7578 178.641C51.9453 178.641 52.5312 179.25 52.5312 180.492V186H53.875V180.18C53.875 178.414 52.9141 177.43 51.1953 177.43C50.0312 177.43 49.0703 178.016 48.6172 178.906H48.4922C48.1016 178.031 47.3047 177.43 46.1641 177.43C45.0391 177.43 44.1953 177.969 43.8125 178.906H43.6875V177.578H42.4062V186ZM58.6719 186.148C59.7969 186.148 60.7188 185.656 61.2656 184.758H61.3906V186H62.6719V180.234C62.6719 178.484 61.5234 177.43 59.4688 177.43C57.6719 177.43 56.3438 178.32 56.1641 179.672H57.5234C57.7109 179.008 58.4141 178.625 59.4219 178.625C60.6797 178.625 61.3281 179.195 61.3281 180.234V181L58.8984 181.148C56.9375 181.266 55.8281 182.133 55.8281 183.641C55.8281 185.18 57.0391 186.148 58.6719 186.148ZM58.9219 184.969C57.9453 184.969 57.2188 184.469 57.2188 183.609C57.2188 182.766 57.7812 182.32 59.0625 182.234L61.3281 182.086V182.859C61.3281 184.062 60.3047 184.969 58.9219 184.969ZM65.8594 175.953C66.375 175.953 66.7969 175.531 66.7969 175.016C66.7969 174.5 66.375 174.078 65.8594 174.078C65.3438 174.078 64.9219 174.5 64.9219 175.016C64.9219 175.531 65.3438 175.953 65.8594 175.953ZM65.1875 186H66.5312V177.578H65.1875V186ZM69.1719 186H70.5156V174.234H69.1719V186ZM88.2344 177.578H86.8828L85.2266 184.312H85.1016L83.2188 177.578H81.9297L80.0469 184.312H79.9219L78.2656 177.578H76.9062L79.2656 186H80.625L82.5 179.484H82.625L84.5078 186H85.875L88.2344 177.578ZM90.7344 175.953C91.25 175.953 91.6719 175.531 91.6719 175.016C91.6719 174.5 91.25 174.078 90.7344 174.078C90.2188 174.078 89.7969 174.5 89.7969 175.016C89.7969 175.531 90.2188 175.953 90.7344 175.953ZM90.0625 186H91.4062V177.578H90.0625V186ZM94.5312 175.398V177.578H93.1719V178.703H94.5312V183.812C94.5312 185.422 95.2266 186.062 96.9609 186.062C97.2266 186.062 97.4844 186.031 97.75 185.984V184.852C97.5 184.875 97.3672 184.883 97.125 184.883C96.25 184.883 95.875 184.461 95.875 183.469V178.703H97.75V177.578H95.875V175.398H94.5312ZM99.8594 186H101.203V181.016C101.203 179.594 102.031 178.641 103.539 178.641C104.812 178.641 105.484 179.383 105.484 180.875V186H106.828V180.547C106.828 178.57 105.703 177.43 103.922 177.43C102.633 177.43 101.75 177.977 101.328 178.906H101.203V174.234H99.8594V186ZM114.516 189.047C116.008 189.047 116.68 188.469 117.398 186.516L120.688 177.578H119.258L116.953 184.508H116.828L114.516 177.578H113.062L116.18 186.008L116.023 186.508C115.672 187.523 115.25 187.891 114.477 187.891C114.289 187.891 114.078 187.883 113.914 187.852V189C114.102 189.031 114.336 189.047 114.516 189.047ZM125.633 186.148C128.031 186.148 129.516 184.492 129.516 181.789C129.516 179.078 128.031 177.43 125.633 177.43C123.234 177.43 121.75 179.078 121.75 181.789C121.75 184.492 123.234 186.148 125.633 186.148ZM125.633 184.938C124.039 184.938 123.141 183.781 123.141 181.789C123.141 179.789 124.039 178.641 125.633 178.641C127.227 178.641 128.125 179.789 128.125 181.789C128.125 183.781 127.227 184.938 125.633 184.938ZM138.438 177.578H137.094V182.562C137.094 184.039 136.281 184.922 134.797 184.922C133.453 184.922 132.891 184.219 132.891 182.703V177.578H131.547V183.031C131.547 185.023 132.531 186.148 134.422 186.148C135.711 186.148 136.609 185.617 137.031 184.68H137.156V186H138.438V177.578ZM140.969 186H142.312V180.781C142.312 179.594 143.242 178.734 144.523 178.734C144.789 178.734 145.273 178.781 145.383 178.812V177.469C145.211 177.445 144.93 177.43 144.711 177.43C143.594 177.43 142.625 178.008 142.375 178.828H142.25V177.578H140.969V186ZM155.039 186.148C157.438 186.148 158.922 184.492 158.922 181.789C158.922 179.078 157.438 177.43 155.039 177.43C152.641 177.43 151.156 179.078 151.156 181.789C151.156 184.492 152.641 186.148 155.039 186.148ZM155.039 184.938C153.445 184.938 152.547 183.781 152.547 181.789C152.547 179.789 153.445 178.641 155.039 178.641C156.633 178.641 157.531 179.789 157.531 181.789C157.531 183.781 156.633 184.938 155.039 184.938ZM161.031 186H162.375V180.781C162.375 179.594 163.305 178.734 164.586 178.734C164.852 178.734 165.336 178.781 165.445 178.812V177.469C165.273 177.445 164.992 177.43 164.773 177.43C163.656 177.43 162.688 178.008 162.438 178.828H162.312V177.578H161.031V186ZM170.008 186.148C171.172 186.148 172.172 185.594 172.703 184.656H172.828V186H174.109V174.234H172.766V178.906H172.648C172.172 177.984 171.18 177.43 170.008 177.43C167.867 177.43 166.469 179.148 166.469 181.789C166.469 184.438 167.852 186.148 170.008 186.148ZM170.32 178.641C171.844 178.641 172.797 179.859 172.797 181.789C172.797 183.734 171.852 184.938 170.32 184.938C168.781 184.938 167.859 183.758 167.859 181.789C167.859 179.828 168.789 178.641 170.32 178.641ZM182.297 183.82C181.945 184.562 181.211 184.961 180.125 184.961C178.695 184.961 177.766 183.906 177.695 182.242V182.18H183.75V181.664C183.75 179.047 182.367 177.43 180.094 177.43C177.781 177.43 176.297 179.148 176.297 181.797C176.297 184.461 177.758 186.148 180.094 186.148C181.938 186.148 183.25 185.258 183.641 183.82H182.297ZM180.078 178.617C181.414 178.617 182.305 179.602 182.336 181.094H177.695C177.797 179.602 178.734 178.617 180.078 178.617ZM185.859 186H187.203V180.781C187.203 179.594 188.133 178.734 189.414 178.734C189.68 178.734 190.164 178.781 190.273 178.812V177.469C190.102 177.445 189.82 177.43 189.602 177.43C188.484 177.43 187.516 178.008 187.266 178.828H187.141V177.578H185.859V186ZM199.586 186.148C200.75 186.148 201.75 185.594 202.281 184.656H202.406V186H203.688V174.234H202.344V178.906H202.227C201.75 177.984 200.758 177.43 199.586 177.43C197.445 177.43 196.047 179.148 196.047 181.789C196.047 184.438 197.43 186.148 199.586 186.148ZM199.898 178.641C201.422 178.641 202.375 179.859 202.375 181.789C202.375 183.734 201.43 184.938 199.898 184.938C198.359 184.938 197.438 183.758 197.438 181.789C197.438 179.828 198.367 178.641 199.898 178.641ZM211.875 183.82C211.523 184.562 210.789 184.961 209.703 184.961C208.273 184.961 207.344 183.906 207.273 182.242V182.18H213.328V181.664C213.328 179.047 211.945 177.43 209.672 177.43C207.359 177.43 205.875 179.148 205.875 181.797C205.875 184.461 207.336 186.148 209.672 186.148C211.516 186.148 212.828 185.258 213.219 183.82H211.875ZM209.656 178.617C210.992 178.617 211.883 179.602 211.914 181.094H207.273C207.375 179.602 208.312 178.617 209.656 178.617ZM216 175.398V177.578H214.641V178.703H216V183.812C216 185.422 216.695 186.062 218.43 186.062C218.695 186.062 218.953 186.031 219.219 185.984V184.852C218.969 184.875 218.836 184.883 218.594 184.883C217.719 184.883 217.344 184.461 217.344 183.469V178.703H219.219V177.578H217.344V175.398H216ZM223.594 186.148C224.719 186.148 225.641 185.656 226.188 184.758H226.312V186H227.594V180.234C227.594 178.484 226.445 177.43 224.391 177.43C222.594 177.43 221.266 178.32 221.086 179.672H222.445C222.633 179.008 223.336 178.625 224.344 178.625C225.602 178.625 226.25 179.195 226.25 180.234V181L223.82 181.148C221.859 181.266 220.75 182.133 220.75 183.641C220.75 185.18 221.961 186.148 223.594 186.148ZM223.844 184.969C222.867 184.969 222.141 184.469 222.141 183.609C222.141 182.766 222.703 182.32 223.984 182.234L226.25 182.086V182.859C226.25 184.062 225.227 184.969 223.844 184.969ZM230.781 175.953C231.297 175.953 231.719 175.531 231.719 175.016C231.719 174.5 231.297 174.078 230.781 174.078C230.266 174.078 229.844 174.5 229.844 175.016C229.844 175.531 230.266 175.953 230.781 175.953ZM230.109 186H231.453V177.578H230.109V186ZM234.094 186H235.438V174.234H234.094V186ZM237.852 179.883C237.852 181.102 238.57 181.781 240.148 182.164L241.594 182.516C242.492 182.734 242.93 183.125 242.93 183.703C242.93 184.477 242.117 185.016 240.984 185.016C239.906 185.016 239.234 184.562 239.008 183.852H237.625C237.773 185.25 239.062 186.148 240.938 186.148C242.852 186.148 244.312 185.109 244.312 183.602C244.312 182.391 243.547 181.703 241.961 181.32L240.664 181.008C239.672 180.766 239.203 180.406 239.203 179.828C239.203 179.078 239.984 178.57 240.984 178.57C242 178.57 242.656 179.016 242.836 179.688H244.164C243.984 178.305 242.758 177.43 240.992 177.43C239.203 177.43 237.852 178.484 237.852 179.883ZM247.531 186.078C248.094 186.078 248.547 185.617 248.547 185.062C248.547 184.5 248.094 184.047 247.531 184.047C246.977 184.047 246.516 184.5 246.516 185.062C246.516 185.617 246.977 186.078 247.531 186.078Z" fill="#4F566B"/>
<rect x="30" y="142" width="388" height="52" stroke="white" stroke-width="4"/>
<path d="M28 28H52V52H28V28Z" fill="white"/>
<path fill-rule="evenodd" clip-rule="evenodd" d="M40 28C46.6274 28 52 33.3726 52 40C52 46.6274 46.6274 52 40 52C33.3726 52 28 46.6274 28 40C28 33.3726 33.3726 28 40 28ZM46.7462 35.4928C46.1604 34.907 45.2107 34.907 44.6249 35.4928L38.5 41.6287L35.8107 38.9393C35.2249 38.3536 34.2751 38.3536 33.6893 38.9393C33.1036 39.5251 33.1036 40.4749 33.6893 41.0607L37.4393 44.8107C38.0251 45.3964 38.9749 45.3964 39.5607 44.8107L46.7462 37.6141C47.332 37.0283 47.332 36.0786 46.7462 35.4928Z" fill="#33C27F"/>
<rect x="30" y="90" width="166" height="28" fill="white"/>
<path d="M33.3672 98.7266V110H35.7266V106.445H37.9531C40.3281 106.445 41.9766 104.898 41.9766 102.602C41.9766 100.273 40.3906 98.7266 38.0703 98.7266H33.3672ZM35.7266 100.602H37.4453C38.8047 100.602 39.5781 101.297 39.5781 102.609C39.5781 103.891 38.7891 104.594 37.4375 104.594H35.7266V100.602ZM45.9688 110.133C47.0859 110.133 48.0234 109.656 48.4688 108.859H48.6094V110H50.8125V104.125C50.8125 102.289 49.5234 101.211 47.2422 101.211C45.0781 101.211 43.6172 102.203 43.4688 103.781H45.5625C45.75 103.242 46.2969 102.953 47.1172 102.953C48.0547 102.953 48.5703 103.383 48.5703 104.125V104.836L46.4844 104.961C44.3438 105.086 43.1484 105.992 43.1484 107.547C43.1484 109.117 44.3125 110.133 45.9688 110.133ZM46.7188 108.469C45.9297 108.469 45.375 108.07 45.375 107.406C45.375 106.773 45.8516 106.406 46.8281 106.344L48.5703 106.227V106.867C48.5703 107.773 47.7734 108.469 46.7188 108.469ZM53.8828 113.125C56.0312 113.125 57.0859 112.359 57.8203 110.164L60.7891 101.398H58.3828L56.5703 107.961H56.4297L54.6172 101.398H52.1094L55.1328 110.047L55.0547 110.375C54.8672 111.07 54.3828 111.352 53.5312 111.352C53.4375 111.352 53.0938 111.344 53.0156 111.328V113.102C53.1094 113.117 53.7969 113.125 53.8828 113.125ZM62.375 110H64.6484V104.812C64.6484 103.828 65.2812 103.109 66.1719 103.109C67.0625 103.109 67.5938 103.641 67.5938 104.562V110H69.7812V104.711C69.7812 103.781 70.375 103.109 71.2969 103.109C72.2578 103.109 72.7344 103.625 72.7344 104.664V110H75.0078V104.094C75.0078 102.32 73.9375 101.211 72.2188 101.211C71.0156 101.211 70.0234 101.844 69.625 102.797H69.4844C69.1406 101.812 68.3125 101.211 67.1016 101.211C65.9688 101.211 65.0703 101.812 64.7188 102.797H64.5781V101.398H62.375V110ZM82.7891 107.57C82.5469 108.156 81.9297 108.484 81.0312 108.484C79.8438 108.484 79.0938 107.664 79.0625 106.352V106.234H84.9766V105.555C84.9766 102.836 83.4766 101.211 80.9375 101.211C78.375 101.211 76.7969 102.945 76.7969 105.742C76.7969 108.523 78.3438 110.18 80.9688 110.18C83.0781 110.18 84.5703 109.172 84.9062 107.57H82.7891ZM80.9453 102.906C82.0078 102.906 82.6953 103.641 82.7422 104.82H79.0703C79.1484 103.664 79.8906 102.906 80.9453 102.906ZM86.8438 110H89.1172V105.023C89.1172 103.859 89.7656 103.109 90.8203 103.109C91.8984 103.109 92.4062 103.742 92.4062 104.953V110H94.6797V104.438C94.6797 102.383 93.6484 101.211 91.7344 101.211C90.4609 101.211 89.5859 101.812 89.1875 102.781H89.0469V101.398H86.8438V110ZM97.5391 99.3438V101.477H96.1953V103.203H97.5391V107.68C97.5391 109.352 98.3672 110.031 100.461 110.031C100.898 110.031 101.32 109.984 101.602 109.93V108.25C101.383 108.273 101.227 108.289 100.93 108.289C100.156 108.289 99.8125 107.93 99.8125 107.156V103.203H101.602V101.477H99.8125V99.3438H97.5391ZM107.43 103.906C107.43 105.227 108.242 106.016 109.914 106.383L111.477 106.734C112.234 106.906 112.562 107.172 112.562 107.609C112.562 108.18 111.953 108.57 111.07 108.57C110.164 108.57 109.609 108.219 109.438 107.625H107.219C107.375 109.25 108.75 110.18 111.023 110.18C113.281 110.18 114.82 109.07 114.82 107.367C114.82 106.086 114.07 105.383 112.398 105.016L110.781 104.664C109.984 104.484 109.617 104.211 109.617 103.773C109.617 103.211 110.219 102.828 111.031 102.828C111.875 102.828 112.398 103.18 112.516 103.75H114.617C114.492 102.125 113.203 101.211 111.016 101.211C108.867 101.211 107.43 102.297 107.43 103.906ZM124.484 101.398H122.211V106.367C122.211 107.547 121.602 108.273 120.469 108.273C119.422 108.273 118.883 107.656 118.883 106.438V101.398H116.609V107C116.609 109 117.766 110.18 119.625 110.18C120.93 110.18 121.734 109.617 122.141 108.617H122.281V110H124.484V101.398ZM134.391 104.398C134.203 102.477 132.836 101.211 130.555 101.211C127.859 101.211 126.344 102.844 126.344 105.68C126.344 108.547 127.867 110.18 130.555 110.18C132.797 110.18 134.203 108.945 134.391 107.055H132.266C132.094 107.914 131.484 108.375 130.555 108.375C129.336 108.375 128.641 107.414 128.641 105.68C128.641 103.969 129.328 103.023 130.555 103.023C131.523 103.023 132.109 103.57 132.266 104.398H134.391ZM143.797 104.398C143.609 102.477 142.242 101.211 139.961 101.211C137.266 101.211 135.75 102.844 135.75 105.68C135.75 108.547 137.273 110.18 139.961 110.18C142.203 110.18 143.609 108.945 143.797 107.055H141.672C141.5 107.914 140.891 108.375 139.961 108.375C138.742 108.375 138.047 107.414 138.047 105.68C138.047 103.969 138.734 103.023 139.961 103.023C140.93 103.023 141.516 103.57 141.672 104.398H143.797ZM151.148 107.57C150.906 108.156 150.289 108.484 149.391 108.484C148.203 108.484 147.453 107.664 147.422 106.352V106.234H153.336V105.555C153.336 102.836 151.836 101.211 149.297 101.211C146.734 101.211 145.156 102.945 145.156 105.742C145.156 108.523 146.703 110.18 149.328 110.18C151.438 110.18 152.93 109.172 153.266 107.57H151.148ZM149.305 102.906C150.367 102.906 151.055 103.641 151.102 104.82H147.43C147.508 103.664 148.25 102.906 149.305 102.906ZM155.008 103.906C155.008 105.227 155.82 106.016 157.492 106.383L159.055 106.734C159.812 106.906 160.141 107.172 160.141 107.609C160.141 108.18 159.531 108.57 158.648 108.57C157.742 108.57 157.188 108.219 157.016 107.625H154.797C154.953 109.25 156.328 110.18 158.602 110.18C160.859 110.18 162.398 109.07 162.398 107.367C162.398 106.086 161.648 105.383 159.977 105.016L158.359 104.664C157.562 104.484 157.195 104.211 157.195 103.773C157.195 103.211 157.797 102.828 158.609 102.828C159.453 102.828 159.977 103.18 160.094 103.75H162.195C162.07 102.125 160.781 101.211 158.594 101.211C156.445 101.211 155.008 102.297 155.008 103.906ZM163.914 103.906C163.914 105.227 164.727 106.016 166.398 106.383L167.961 106.734C168.719 106.906 169.047 107.172 169.047 107.609C169.047 108.18 168.438 108.57 167.555 108.57C166.648 108.57 166.094 108.219 165.922 107.625H163.703C163.859 109.25 165.234 110.18 167.508 110.18C169.766 110.18 171.305 109.07 171.305 107.367C171.305 106.086 170.555 105.383 168.883 105.016L167.266 104.664C166.469 104.484 166.102 104.211 166.102 103.773C166.102 103.211 166.703 102.828 167.516 102.828C168.359 102.828 168.883 103.18 169 103.75H171.102C170.977 102.125 169.688 101.211 167.5 101.211C165.352 101.211 163.914 102.297 163.914 103.906ZM173.836 110H176.109V103.203H177.891V101.477H176.062V100.75C176.062 100 176.391 99.6328 177.281 99.6328C177.578 99.6328 177.812 99.6562 177.961 99.6797V98.1094C177.633 98.0625 177.25 98.0234 176.789 98.0234C174.711 98.0234 173.836 98.8828 173.836 100.594V101.477H172.445V103.203H173.836V110ZM187.5 101.398H185.227V106.367C185.227 107.547 184.617 108.273 183.484 108.273C182.438 108.273 181.898 107.656 181.898 106.438V101.398H179.625V107C179.625 109 180.781 110.18 182.641 110.18C183.945 110.18 184.75 109.617 185.156 108.617H185.297V110H187.5V101.398ZM189.859 110H192.133V98.1094H189.859V110Z" fill="#3C4257"/>
<rect x="30" y="90" width="166" height="28" stroke="white" stroke-width="4"/>
<rect x="0.5" y="0.5" width="447" height="239" rx="7.5" stroke="#E3E8EE"/>
<defs>
<clipPath id="clip0">
<path d="M0 0H448V240H0V0Z" fill="white"/>
</clipPath>
</defs>
</svg>
