<svg width="448" height="240" viewBox="0 0 448 240" fill="none" xmlns="http://www.w3.org/2000/svg">
<g clip-path="url(#clip0)">
<path d="M0 0H448V240H0V0Z" fill="white"/>
<path d="M0 0L448 -3.91654e-05" stroke="#E3E8EE" stroke-width="2" stroke-linecap="round" stroke-linejoin="round" stroke-dasharray="0.01 16"/>
<path d="M0 16L448 16" stroke="#E3E8EE" stroke-width="2" stroke-linecap="round" stroke-linejoin="round" stroke-dasharray="0.01 16"/>
<path d="M0 32L448 32" stroke="#E3E8EE" stroke-width="2" stroke-linecap="round" stroke-linejoin="round" stroke-dasharray="0.01 16"/>
<path d="M0 48L448 48" stroke="#E3E8EE" stroke-width="2" stroke-linecap="round" stroke-linejoin="round" stroke-dasharray="0.01 16"/>
<path d="M0 64L448 64" stroke="#E3E8EE" stroke-width="2" stroke-linecap="round" stroke-linejoin="round" stroke-dasharray="0.01 16"/>
<path d="M0 80L448 80" stroke="#E3E8EE" stroke-width="2" stroke-linecap="round" stroke-linejoin="round" stroke-dasharray="0.01 16"/>
<path d="M0 96L448 96" stroke="#E3E8EE" stroke-width="2" stroke-linecap="round" stroke-linejoin="round" stroke-dasharray="0.01 16"/>
<path d="M0 112L448 112" stroke="#E3E8EE" stroke-width="2" stroke-linecap="round" stroke-linejoin="round" stroke-dasharray="0.01 16"/>
<path d="M0 128L448 128" stroke="#E3E8EE" stroke-width="2" stroke-linecap="round" stroke-linejoin="round" stroke-dasharray="0.01 16"/>
<path d="M0 144L448 144" stroke="#E3E8EE" stroke-width="2" stroke-linecap="round" stroke-linejoin="round" stroke-dasharray="0.01 16"/>
<path d="M0 160L448 160" stroke="#E3E8EE" stroke-width="2" stroke-linecap="round" stroke-linejoin="round" stroke-dasharray="0.01 16"/>
<path d="M0 176L448 176" stroke="#E3E8EE" stroke-width="2" stroke-linecap="round" stroke-linejoin="round" stroke-dasharray="0.01 16"/>
<path d="M0 192L448 192" stroke="#E3E8EE" stroke-width="2" stroke-linecap="round" stroke-linejoin="round" stroke-dasharray="0.01 16"/>
<path d="M0 208L448 208" stroke="#E3E8EE" stroke-width="2" stroke-linecap="round" stroke-linejoin="round" stroke-dasharray="0.01 16"/>
<path d="M0 224L448 224" stroke="#E3E8EE" stroke-width="2" stroke-linecap="round" stroke-linejoin="round" stroke-dasharray="0.01 16"/>
<path d="M0 240L448 240" stroke="#E3E8EE" stroke-width="2" stroke-linecap="round" stroke-linejoin="round" stroke-dasharray="0.01 16"/>
<rect x="0.5" y="0.5" width="447" height="239" stroke="white"/>
</g>
<rect x="30" y="70" width="387" height="140" fill="white"/>
<rect x="32" y="184" width="384" height="24" fill="#F7FAFC"/>
<path d="M32 152H416V176H32V152Z" fill="#F7FAFC"/>
<path d="M386.953 130.945H388.328C388.859 133.477 390.688 135.016 393.211 135.016C395.633 135.016 397.172 133.805 397.672 131.883H396.266C395.867 132.969 394.812 133.711 393.219 133.711C391.547 133.711 390.273 132.672 389.805 130.945H394.344V130.008H389.633C389.609 129.797 389.602 129.586 389.602 129.359C389.602 129.125 389.617 128.898 389.633 128.68H394.344V127.742H389.812C390.305 126.047 391.57 125.016 393.211 125.016C394.758 125.016 395.914 125.922 396.266 127.109H397.672C397.328 125.164 395.594 123.711 393.211 123.711C390.719 123.711 388.883 125.25 388.336 127.742H386.953V128.68H388.203C388.18 128.898 388.172 129.125 388.172 129.359C388.172 129.578 388.18 129.797 388.195 130.008H386.953V130.945ZM402.406 135H403.812V123.727H402.414L399.414 125.883V127.367L402.281 125.289H402.406V135ZM410.969 135.266C413.5 135.266 414.953 133.125 414.953 129.383C414.953 125.648 413.477 123.461 410.969 123.461C408.445 123.461 406.969 125.641 406.969 129.359C406.969 133.109 408.43 135.266 410.969 135.266ZM410.969 134.039C409.305 134.039 408.383 132.375 408.383 129.359C408.383 126.383 409.32 124.695 410.969 124.695C412.617 124.695 413.539 126.367 413.539 129.359C413.539 132.383 412.633 134.039 410.969 134.039Z" fill="#3C4257"/>
<path d="M208 120C208 118.895 208.895 118 210 118H269C270.105 118 271 118.895 271 120V136C271 137.105 270.105 138 269 138H210C208.895 138 208 137.105 208 136V120Z" fill="#EFC078"/>
<path d="M217.054 124.954V132H218.528V129.778H219.92C221.404 129.778 222.435 128.812 222.435 127.376C222.435 125.921 221.443 124.954 219.993 124.954H217.054ZM218.528 126.126H219.603C220.452 126.126 220.936 126.561 220.936 127.381C220.936 128.182 220.442 128.621 219.598 128.621H218.528V126.126ZM228.46 130.784H225.267V129.002H228.279V127.869H225.267V126.17H228.46V124.954H223.792V132H228.46V130.784ZM231.424 132V127.493H231.512L234.764 132H235.984V124.954H234.573V129.441H234.485L231.243 124.954H230.013V132H231.424ZM237.698 124.954V132H240.472C242.581 132 243.777 130.711 243.777 128.431C243.777 126.219 242.566 124.954 240.472 124.954H237.698ZM239.173 126.17H240.237C241.517 126.17 242.273 127 242.273 128.455C242.273 129.964 241.541 130.784 240.237 130.784H239.173V126.17ZM246.653 132V124.954H245.179V132H246.653ZM249.773 132V127.493H249.861L253.113 132H254.334V124.954H252.923V129.441H252.835L249.593 124.954H248.362V132H249.773ZM262.239 129.139V128.245H259.28V129.319H260.809L260.804 129.451C260.774 130.33 260.105 130.921 259.139 130.921C257.977 130.921 257.244 129.988 257.244 128.455C257.244 126.951 257.942 126.028 259.08 126.028C259.9 126.028 260.491 126.448 260.711 127.186H262.176C261.971 125.726 260.745 124.773 259.08 124.773C257.029 124.773 255.735 126.204 255.735 128.47C255.735 130.77 257.02 132.181 259.114 132.181C261.038 132.181 262.239 131.009 262.239 129.139Z" fill="white"/>
<path d="M32.8984 132.055C33.0469 134 34.6953 135.266 37.0859 135.266C39.6641 135.266 41.2969 133.945 41.2969 131.875C41.2969 130.219 40.3594 129.312 38.0234 128.727L36.8438 128.414C35.2891 128.016 34.6719 127.508 34.6719 126.625C34.6719 125.484 35.6641 124.734 37.1641 124.734C38.5703 124.734 39.5234 125.422 39.7188 126.578H41.1328C41.0156 124.758 39.3906 123.461 37.2109 123.461C34.8281 123.461 33.2266 124.758 33.2266 126.672C33.2266 128.273 34.1094 129.195 36.1484 129.711L37.5938 130.086C39.1484 130.477 39.8516 131.086 39.8516 132.047C39.8516 133.164 38.7344 133.984 37.2188 133.984C35.6172 133.984 34.4922 133.234 34.3203 132.055H32.8984ZM46.9297 135.148C49.3281 135.148 50.8125 133.492 50.8125 130.789C50.8125 128.078 49.3281 126.43 46.9297 126.43C44.5312 126.43 43.0469 128.078 43.0469 130.789C43.0469 133.492 44.5312 135.148 46.9297 135.148ZM46.9297 133.938C45.3359 133.938 44.4375 132.781 44.4375 130.789C44.4375 128.789 45.3359 127.641 46.9297 127.641C48.5234 127.641 49.4219 128.789 49.4219 130.789C49.4219 132.781 48.5234 133.938 46.9297 133.938ZM57.0234 126.43C55.875 126.43 54.8672 127.016 54.3281 127.984H54.2031V126.578H52.9219V137.812H54.2656V133.734H54.3906C54.8516 134.625 55.8203 135.148 57.0234 135.148C59.1641 135.148 60.5625 133.422 60.5625 130.789C60.5625 128.141 59.1719 126.43 57.0234 126.43ZM56.7031 133.938C55.1875 133.938 54.2266 132.719 54.2266 130.789C54.2266 128.852 55.1875 127.641 56.7109 127.641C58.25 127.641 59.1719 128.82 59.1719 130.789C59.1719 132.758 58.25 133.938 56.7031 133.938ZM62.75 135H64.0938V130.016C64.0938 128.594 64.9219 127.641 66.4297 127.641C67.7031 127.641 68.375 128.383 68.375 129.875V135H69.7188V129.547C69.7188 127.57 68.5938 126.43 66.8125 126.43C65.5234 126.43 64.6406 126.977 64.2188 127.906H64.0938V123.234H62.75V135ZM72.875 124.953C73.3906 124.953 73.8125 124.531 73.8125 124.016C73.8125 123.5 73.3906 123.078 72.875 123.078C72.3594 123.078 71.9375 123.5 71.9375 124.016C71.9375 124.531 72.3594 124.953 72.875 124.953ZM72.2031 135H73.5469V126.578H72.2031V135ZM81.6875 132.82C81.3359 133.562 80.6016 133.961 79.5156 133.961C78.0859 133.961 77.1562 132.906 77.0859 131.242V131.18H83.1406V130.664C83.1406 128.047 81.7578 126.43 79.4844 126.43C77.1719 126.43 75.6875 128.148 75.6875 130.797C75.6875 133.461 77.1484 135.148 79.4844 135.148C81.3281 135.148 82.6406 134.258 83.0312 132.82H81.6875ZM79.4688 127.617C80.8047 127.617 81.6953 128.602 81.7266 130.094H77.0859C77.1875 128.602 78.125 127.617 79.4688 127.617ZM86.0859 127.938L87.5 123.727H85.9766L85.1094 127.938H86.0859ZM88.6797 128.883C88.6797 130.102 89.3984 130.781 90.9766 131.164L92.4219 131.516C93.3203 131.734 93.7578 132.125 93.7578 132.703C93.7578 133.477 92.9453 134.016 91.8125 134.016C90.7344 134.016 90.0625 133.562 89.8359 132.852H88.4531C88.6016 134.25 89.8906 135.148 91.7656 135.148C93.6797 135.148 95.1406 134.109 95.1406 132.602C95.1406 131.391 94.375 130.703 92.7891 130.32L91.4922 130.008C90.5 129.766 90.0312 129.406 90.0312 128.828C90.0312 128.078 90.8125 127.57 91.8125 127.57C92.8281 127.57 93.4844 128.016 93.6641 128.688H94.9922C94.8125 127.305 93.5859 126.43 91.8203 126.43C90.0312 126.43 88.6797 127.484 88.6797 128.883ZM108.734 129.156C108.5 127.656 107.25 126.43 105.203 126.43C102.844 126.43 101.344 128.133 101.344 130.758C101.344 133.438 102.852 135.148 105.211 135.148C107.234 135.148 108.492 134.008 108.734 132.461H107.375C107.125 133.414 106.336 133.938 105.203 133.938C103.703 133.938 102.734 132.703 102.734 130.758C102.734 128.852 103.688 127.641 105.203 127.641C106.414 127.641 107.156 128.32 107.375 129.156H108.734ZM113.062 135.148C114.188 135.148 115.109 134.656 115.656 133.758H115.781V135H117.062V129.234C117.062 127.484 115.914 126.43 113.859 126.43C112.062 126.43 110.734 127.32 110.555 128.672H111.914C112.102 128.008 112.805 127.625 113.812 127.625C115.07 127.625 115.719 128.195 115.719 129.234V130L113.289 130.148C111.328 130.266 110.219 131.133 110.219 132.641C110.219 134.18 111.43 135.148 113.062 135.148ZM113.312 133.969C112.336 133.969 111.609 133.469 111.609 132.609C111.609 131.766 112.172 131.32 113.453 131.234L115.719 131.086V131.859C115.719 133.062 114.695 133.969 113.312 133.969ZM121.094 130.258H120.969V123.234H119.625V135H120.969V131.805L121.773 131.055L124.93 135H126.641L122.773 130.188L126.398 126.578H124.75L121.094 130.258ZM133.422 132.82C133.07 133.562 132.336 133.961 131.25 133.961C129.82 133.961 128.891 132.906 128.82 131.242V131.18H134.875V130.664C134.875 128.047 133.492 126.43 131.219 126.43C128.906 126.43 127.422 128.148 127.422 130.797C127.422 133.461 128.883 135.148 131.219 135.148C133.062 135.148 134.375 134.258 134.766 132.82H133.422ZM131.203 127.617C132.539 127.617 133.43 128.602 133.461 130.094H128.82C128.922 128.602 129.859 127.617 131.203 127.617ZM136.789 128.883C136.789 130.102 137.508 130.781 139.086 131.164L140.531 131.516C141.43 131.734 141.867 132.125 141.867 132.703C141.867 133.477 141.055 134.016 139.922 134.016C138.844 134.016 138.172 133.562 137.945 132.852H136.562C136.711 134.25 138 135.148 139.875 135.148C141.789 135.148 143.25 134.109 143.25 132.602C143.25 131.391 142.484 130.703 140.898 130.32L139.602 130.008C138.609 129.766 138.141 129.406 138.141 128.828C138.141 128.078 138.922 127.57 139.922 127.57C140.938 127.57 141.594 128.016 141.773 128.688H143.102C142.922 127.305 141.695 126.43 139.93 126.43C138.141 126.43 136.789 127.484 136.789 128.883Z" fill="#3C4257"/>
<path d="M32 104H416" stroke="#E3E8EE"/>
<path d="M366.945 88H368.861L365.926 79.5449H363.846L360.91 88H362.686L363.336 85.9492H366.307L366.945 88ZM364.777 81.2617H364.883L365.932 84.625H363.717L364.777 81.2617ZM379.256 88V79.5449H377.176L374.832 85.375H374.727L372.389 79.5449H370.303V88H371.943V82.2754H372.037L374.193 87.584H375.371L377.521 82.2754H377.615V88H379.256ZM385.004 79.3281C382.514 79.3281 380.932 81.0273 380.932 83.7695C380.932 86.5059 382.49 88.2168 385.004 88.2168C387.5 88.2168 389.07 86.5059 389.07 83.7695C389.07 81.0332 387.494 79.3281 385.004 79.3281ZM385.004 80.8281C386.375 80.8281 387.26 81.9707 387.26 83.7695C387.26 85.5625 386.381 86.7168 385.004 86.7168C383.609 86.7168 382.742 85.5625 382.742 83.7695C382.742 81.9707 383.627 80.8281 385.004 80.8281ZM392.516 79.5449H390.746V85.082C390.746 86.9512 392.129 88.2168 394.291 88.2168C396.453 88.2168 397.83 86.9512 397.83 85.082V79.5449H396.061V84.9121C396.061 85.9961 395.422 86.6992 394.291 86.6992C393.16 86.6992 392.516 85.9961 392.516 84.9121V79.5449ZM401.574 88V82.5918H401.68L405.582 88H407.047V79.5449H405.354V84.9297H405.248L401.357 79.5449H399.881V88H401.574ZM412.924 88V81.0039H415.461V79.5449H408.617V81.0039H411.154V88H412.924Z" fill="#A3ACB9"/>
<path d="M208.645 85.6621C208.709 87.2266 210.016 88.2168 212.031 88.2168C214.152 88.2168 215.459 87.1738 215.459 85.4863C215.459 84.1797 214.727 83.4473 213.027 83.084L212.008 82.8672C211.018 82.6504 210.613 82.3398 210.613 81.8066C210.613 81.1445 211.199 80.7168 212.084 80.7168C212.939 80.7168 213.561 81.168 213.643 81.8594H215.307C215.254 80.3652 213.936 79.3281 212.072 79.3281C210.121 79.3281 208.838 80.3711 208.838 81.9473C208.838 83.2305 209.594 84.0215 211.135 84.3496L212.236 84.5898C213.273 84.8184 213.695 85.1406 213.695 85.6973C213.695 86.3535 213.045 86.8164 212.125 86.8164C211.129 86.8164 210.438 86.3652 210.355 85.6621H208.645ZM220.955 88V81.0039H223.492V79.5449H216.648V81.0039H219.186V88H220.955ZM229.574 88H231.49L228.555 79.5449H226.475L223.539 88H225.314L225.965 85.9492H228.936L229.574 88ZM227.406 81.2617H227.512L228.561 84.625H226.346L227.406 81.2617ZM235.838 88V81.0039H238.375V79.5449H231.531V81.0039H234.068V88H235.838ZM241.703 79.5449H239.934V85.082C239.934 86.9512 241.316 88.2168 243.479 88.2168C245.641 88.2168 247.018 86.9512 247.018 85.082V79.5449H245.248V84.9121C245.248 85.9961 244.609 86.6992 243.479 86.6992C242.348 86.6992 241.703 85.9961 241.703 84.9121V79.5449ZM248.688 85.6621C248.752 87.2266 250.059 88.2168 252.074 88.2168C254.195 88.2168 255.502 87.1738 255.502 85.4863C255.502 84.1797 254.77 83.4473 253.07 83.084L252.051 82.8672C251.061 82.6504 250.656 82.3398 250.656 81.8066C250.656 81.1445 251.242 80.7168 252.127 80.7168C252.982 80.7168 253.604 81.168 253.686 81.8594H255.35C255.297 80.3652 253.979 79.3281 252.115 79.3281C250.164 79.3281 248.881 80.3711 248.881 81.9473C248.881 83.2305 249.637 84.0215 251.178 84.3496L252.279 84.5898C253.316 84.8184 253.738 85.1406 253.738 85.6973C253.738 86.3535 253.088 86.8164 252.168 86.8164C251.172 86.8164 250.48 86.3652 250.398 85.6621H248.688Z" fill="#A3ACB9"/>
<path d="M36.6172 88.2168C38.6562 88.2168 40.1445 86.9805 40.291 85.1758H38.5684C38.3984 86.1074 37.6367 86.7051 36.623 86.7051C35.2871 86.7051 34.4609 85.5801 34.4609 83.7695C34.4609 81.959 35.2871 80.834 36.6172 80.834C37.625 80.834 38.3926 81.4785 38.5625 82.457H40.2852C40.1562 80.6406 38.6211 79.3281 36.6172 79.3281C34.1621 79.3281 32.6504 81.0215 32.6504 83.7695C32.6504 86.5176 34.168 88.2168 36.6172 88.2168ZM49.2676 88V79.5449H47.498V82.9785H43.6895V79.5449H41.9199V88H43.6895V84.4375H47.498V88H49.2676ZM56.75 88H58.666L55.7305 79.5449H53.6504L50.7148 88H52.4902L53.1406 85.9492H56.1113L56.75 88ZM54.582 81.2617H54.6875L55.7363 84.625H53.5215L54.582 81.2617ZM61.877 84.9062H63.3242L64.9004 88H66.9043L65.123 84.6426C66.0957 84.2617 66.6582 83.3242 66.6582 82.2402C66.6582 80.5703 65.5156 79.5449 63.6582 79.5449H60.1074V88H61.877V84.9062ZM61.877 80.9277H63.4121C64.291 80.9277 64.8418 81.4434 64.8418 82.2637C64.8418 83.1016 64.3203 83.5879 63.4297 83.5879H61.877V80.9277ZM75.8691 84.5664V83.4941H72.3184V84.7832H74.1523L74.1465 84.9414C74.1113 85.9961 73.3086 86.7051 72.1484 86.7051C70.7539 86.7051 69.875 85.5859 69.875 83.7461C69.875 81.9414 70.7129 80.834 72.0781 80.834C73.0625 80.834 73.7715 81.3379 74.0352 82.2227H75.793C75.5469 80.4707 74.0762 79.3281 72.0781 79.3281C69.6172 79.3281 68.0645 81.0449 68.0645 83.7637C68.0645 86.5234 69.6055 88.2168 72.1191 88.2168C74.4277 88.2168 75.8691 86.8105 75.8691 84.5664ZM83.1699 86.541H79.3379V84.4023H82.9531V83.043H79.3379V81.0039H83.1699V79.5449H77.5684V88H83.1699V86.541Z" fill="#A3ACB9"/>
<rect x="30" y="70" width="387" height="140" stroke="white" stroke-width="4"/>
<rect x="30" y="26" width="181" height="28" fill="white"/>
<path d="M38.1562 46.2891C40.875 46.2891 42.8594 44.6406 43.0547 42.2344H40.7578C40.5312 43.4766 39.5156 44.2734 38.1641 44.2734C36.3828 44.2734 35.2812 42.7734 35.2812 40.3594C35.2812 37.9453 36.3828 36.4453 38.1562 36.4453C39.5 36.4453 40.5234 37.3047 40.75 38.6094H43.0469C42.875 36.1875 40.8281 34.4375 38.1562 34.4375C34.8828 34.4375 32.8672 36.6953 32.8672 40.3594C32.8672 44.0234 34.8906 46.2891 38.1562 46.2891ZM45 46H47.2734V41.1875C47.2734 39.9766 48.125 39.2344 49.3672 39.2344C49.7344 39.2344 50.2656 39.2969 50.4453 39.3594V37.3594C50.25 37.2969 49.8672 37.2578 49.5547 37.2578C48.4609 37.2578 47.5703 37.9062 47.3438 38.7656H47.2031V37.3984H45V46ZM57.3359 43.5703C57.0938 44.1562 56.4766 44.4844 55.5781 44.4844C54.3906 44.4844 53.6406 43.6641 53.6094 42.3516V42.2344H59.5234V41.5547C59.5234 38.8359 58.0234 37.2109 55.4844 37.2109C52.9219 37.2109 51.3438 38.9453 51.3438 41.7422C51.3438 44.5234 52.8906 46.1797 55.5156 46.1797C57.625 46.1797 59.1172 45.1719 59.4531 43.5703H57.3359ZM55.4922 38.9062C56.5547 38.9062 57.2422 39.6406 57.2891 40.8203H53.6172C53.6953 39.6641 54.4375 38.9062 55.4922 38.9062ZM64.4766 46.1328C65.6719 46.1328 66.6484 45.5781 67.1094 44.6484H67.25V46H69.4531V34.1094H67.1797V38.7734H67.0469C66.6016 37.8203 65.6406 37.2578 64.4766 37.2578C62.3125 37.2578 60.9688 38.9531 60.9688 41.6875C60.9688 44.4297 62.3047 46.1328 64.4766 46.1328ZM65.25 39.1016C66.4609 39.1016 67.2031 40.0938 67.2031 41.7031C67.2031 43.3125 66.4688 44.2969 65.25 44.2969C64.0312 44.2969 63.3047 43.3203 63.3047 41.6953C63.3047 40.0781 64.0391 39.1016 65.25 39.1016ZM72.9688 36.0781C73.6719 36.0781 74.25 35.5156 74.25 34.8125C74.25 34.1016 73.6719 33.5391 72.9688 33.5391C72.2656 33.5391 71.6797 34.1016 71.6797 34.8125C71.6797 35.5156 72.2656 36.0781 72.9688 36.0781ZM71.8281 46H74.1016V37.3984H71.8281V46ZM77.0547 35.3438V37.4766H75.7109V39.2031H77.0547V43.6797C77.0547 45.3516 77.8828 46.0312 79.9766 46.0312C80.4141 46.0312 80.8359 45.9844 81.1172 45.9297V44.25C80.8984 44.2734 80.7422 44.2891 80.4453 44.2891C79.6719 44.2891 79.3281 43.9297 79.3281 43.1562V39.2031H81.1172V37.4766H79.3281V35.3438H77.0547ZM94.7656 40.3984C94.5781 38.4766 93.2109 37.2109 90.9297 37.2109C88.2344 37.2109 86.7188 38.8438 86.7188 41.6797C86.7188 44.5469 88.2422 46.1797 90.9297 46.1797C93.1719 46.1797 94.5781 44.9453 94.7656 43.0547H92.6406C92.4688 43.9141 91.8594 44.375 90.9297 44.375C89.7109 44.375 89.0156 43.4141 89.0156 41.6797C89.0156 39.9688 89.7031 39.0234 90.9297 39.0234C91.8984 39.0234 92.4844 39.5703 92.6406 40.3984H94.7656ZM98.9062 46.1328C100.023 46.1328 100.961 45.6562 101.406 44.8594H101.547V46H103.75V40.125C103.75 38.2891 102.461 37.2109 100.18 37.2109C98.0156 37.2109 96.5547 38.2031 96.4062 39.7812H98.5C98.6875 39.2422 99.2344 38.9531 100.055 38.9531C100.992 38.9531 101.508 39.3828 101.508 40.125V40.8359L99.4219 40.9609C97.2812 41.0859 96.0859 41.9922 96.0859 43.5469C96.0859 45.1172 97.25 46.1328 98.9062 46.1328ZM99.6562 44.4688C98.8672 44.4688 98.3125 44.0703 98.3125 43.4062C98.3125 42.7734 98.7891 42.4062 99.7656 42.3438L101.508 42.2266V42.8672C101.508 43.7734 100.711 44.4688 99.6562 44.4688ZM105.984 46H108.258V41.1875C108.258 39.9766 109.109 39.2344 110.352 39.2344C110.719 39.2344 111.25 39.2969 111.43 39.3594V37.3594C111.234 37.2969 110.852 37.2578 110.539 37.2578C109.445 37.2578 108.555 37.9062 108.328 38.7656H108.188V37.3984H105.984V46ZM115.836 46.1328C117.031 46.1328 118.008 45.5781 118.469 44.6484H118.609V46H120.812V34.1094H118.539V38.7734H118.406C117.961 37.8203 117 37.2578 115.836 37.2578C113.672 37.2578 112.328 38.9531 112.328 41.6875C112.328 44.4297 113.664 46.1328 115.836 46.1328ZM116.609 39.1016C117.82 39.1016 118.562 40.0938 118.562 41.7031C118.562 43.3125 117.828 44.2969 116.609 44.2969C115.391 44.2969 114.664 43.3203 114.664 41.6953C114.664 40.0781 115.398 39.1016 116.609 39.1016ZM127.102 39.9062C127.102 41.2266 127.914 42.0156 129.586 42.3828L131.148 42.7344C131.906 42.9062 132.234 43.1719 132.234 43.6094C132.234 44.1797 131.625 44.5703 130.742 44.5703C129.836 44.5703 129.281 44.2188 129.109 43.625H126.891C127.047 45.25 128.422 46.1797 130.695 46.1797C132.953 46.1797 134.492 45.0703 134.492 43.3672C134.492 42.0859 133.742 41.3828 132.07 41.0156L130.453 40.6641C129.656 40.4844 129.289 40.2109 129.289 39.7734C129.289 39.2109 129.891 38.8281 130.703 38.8281C131.547 38.8281 132.07 39.1797 132.188 39.75H134.289C134.164 38.125 132.875 37.2109 130.688 37.2109C128.539 37.2109 127.102 38.2969 127.102 39.9062ZM136.961 35.3438V37.4766H135.617V39.2031H136.961V43.6797C136.961 45.3516 137.789 46.0312 139.883 46.0312C140.32 46.0312 140.742 45.9844 141.023 45.9297V44.25C140.805 44.2734 140.648 44.2891 140.352 44.2891C139.578 44.2891 139.234 43.9297 139.234 43.1562V39.2031H141.023V37.4766H139.234V35.3438H136.961ZM145.281 46.1328C146.398 46.1328 147.336 45.6562 147.781 44.8594H147.922V46H150.125V40.125C150.125 38.2891 148.836 37.2109 146.555 37.2109C144.391 37.2109 142.93 38.2031 142.781 39.7812H144.875C145.062 39.2422 145.609 38.9531 146.43 38.9531C147.367 38.9531 147.883 39.3828 147.883 40.125V40.8359L145.797 40.9609C143.656 41.0859 142.461 41.9922 142.461 43.5469C142.461 45.1172 143.625 46.1328 145.281 46.1328ZM146.031 44.4688C145.242 44.4688 144.688 44.0703 144.688 43.4062C144.688 42.7734 145.164 42.4062 146.141 42.3438L147.883 42.2266V42.8672C147.883 43.7734 147.086 44.4688 146.031 44.4688ZM153.008 35.3438V37.4766H151.664V39.2031H153.008V43.6797C153.008 45.3516 153.836 46.0312 155.93 46.0312C156.367 46.0312 156.789 45.9844 157.07 45.9297V44.25C156.852 44.2734 156.695 44.2891 156.398 44.2891C155.625 44.2891 155.281 43.9297 155.281 43.1562V39.2031H157.07V37.4766H155.281V35.3438H153.008ZM164.477 43.5703C164.234 44.1562 163.617 44.4844 162.719 44.4844C161.531 44.4844 160.781 43.6641 160.75 42.3516V42.2344H166.664V41.5547C166.664 38.8359 165.164 37.2109 162.625 37.2109C160.062 37.2109 158.484 38.9453 158.484 41.7422C158.484 44.5234 160.031 46.1797 162.656 46.1797C164.766 46.1797 166.258 45.1719 166.594 43.5703H164.477ZM162.633 38.9062C163.695 38.9062 164.383 39.6406 164.43 40.8203H160.758C160.836 39.6641 161.578 38.9062 162.633 38.9062ZM168.531 46H170.805V40.8125C170.805 39.8281 171.438 39.1094 172.328 39.1094C173.219 39.1094 173.75 39.6406 173.75 40.5625V46H175.938V40.7109C175.938 39.7812 176.531 39.1094 177.453 39.1094C178.414 39.1094 178.891 39.625 178.891 40.6641V46H181.164V40.0938C181.164 38.3203 180.094 37.2109 178.375 37.2109C177.172 37.2109 176.18 37.8438 175.781 38.7969H175.641C175.297 37.8125 174.469 37.2109 173.258 37.2109C172.125 37.2109 171.227 37.8125 170.875 38.7969H170.734V37.3984H168.531V46ZM188.945 43.5703C188.703 44.1562 188.086 44.4844 187.188 44.4844C186 44.4844 185.25 43.6641 185.219 42.3516V42.2344H191.133V41.5547C191.133 38.8359 189.633 37.2109 187.094 37.2109C184.531 37.2109 182.953 38.9453 182.953 41.7422C182.953 44.5234 184.5 46.1797 187.125 46.1797C189.234 46.1797 190.727 45.1719 191.062 43.5703H188.945ZM187.102 38.9062C188.164 38.9062 188.852 39.6406 188.898 40.8203H185.227C185.305 39.6641 186.047 38.9062 187.102 38.9062ZM193 46H195.273V41.0234C195.273 39.8594 195.922 39.1094 196.977 39.1094C198.055 39.1094 198.562 39.7422 198.562 40.9531V46H200.836V40.4375C200.836 38.3828 199.805 37.2109 197.891 37.2109C196.617 37.2109 195.742 37.8125 195.344 38.7812H195.203V37.3984H193V46ZM203.695 35.3438V37.4766H202.352V39.2031H203.695V43.6797C203.695 45.3516 204.523 46.0312 206.617 46.0312C207.055 46.0312 207.477 45.9844 207.758 45.9297V44.25C207.539 44.2734 207.383 44.2891 207.086 44.2891C206.312 44.2891 205.969 43.9297 205.969 43.1562V39.2031H207.758V37.4766H205.969V35.3438H203.695Z" fill="#3C4257"/>
<rect x="30" y="26" width="181" height="28" stroke="white" stroke-width="4"/>
<rect x="0.5" y="0.5" width="447" height="239" rx="7.5" stroke="#E3E8EE"/>
<defs>
<clipPath id="clip0">
<path d="M0 0H448V240H0V0Z" fill="white"/>
</clipPath>
</defs>
</svg>
