<svg xmlns="http://www.w3.org/2000/svg" width="32" height="32" viewBox="0 0 32 32">
  <path fill="#F2BF56" fill-rule="evenodd" d="M16,32 C7.16346667,32 0,24.8365333 0,16 C0,7.16346667 7.16346667,0 16,0 C24.8365333,0 32,7.16346667 32,16 C32,24.8365333 24.8365333,32 16,32 Z M16,27 C17.6568,27 19,25.6568 19,24 C19,22.3432 17.6568,21 16,21 C14.3432,21 13,22.3432 13,24 C13,25.6568 14.3432,27 16,27 Z M16,4 C14.8954667,4 14,4.89546667 14,6 L14,16 C14,17.1045333 14.8954667,18 16,18 C17.1045333,18 18,17.1045333 18,16 L18,6 C18,4.89546667 17.1045333,4 16,4 Z"/>
</svg>
