<svg xmlns="http://www.w3.org/2000/svg" width="32" height="32" viewBox="0 0 32 32">
  <g fill="none" fill-rule="evenodd">
    <circle cx="16" cy="16" r="16" fill="#688FF1" fill-rule="nonzero"/>
    <path fill="#FFF" d="M20.5831685,15 L15.9918552,10.4086867 C15.6009695,10.017801 15.6009695,9.38405002 15.9918552,8.99316429 C16.382741,8.60227855 17.0164919,8.60227855 17.4073777,8.99316429 L23.7071068,15.2928934 C24.0976311,15.6834177 24.0976311,16.3165827 23.7071068,16.707107 L17.4073777,23.0068361 C17.0164919,23.3977218 16.382741,23.3977218 15.9918552,23.0068361 C15.6009695,22.6159503 15.6009695,21.9821993 15.9918552,21.5913136 L20.5831688,17 L9,17 C8.44771525,17 8,16.5522847 8,16 C8,15.4477152 8.44771525,15 9,15 L20.5831685,15 Z"/>
  </g>
</svg>
