<svg width="736" height="352" viewBox="0 0 736 352" fill="none" xmlns="http://www.w3.org/2000/svg">
<g clip-path="url(#clip0)">
<g clip-path="url(#clip1)">
<path d="M0 0H736V352H0V0Z" fill="white"/>
<path d="M0 0L736 -6.43432e-05" stroke="#E3E8EE" stroke-width="2" stroke-linecap="round" stroke-linejoin="round" stroke-dasharray="0.01 16"/>
<path d="M0 16L736 15.9999" stroke="#E3E8EE" stroke-width="2" stroke-linecap="round" stroke-linejoin="round" stroke-dasharray="0.01 16"/>
<path d="M0 32L736 31.9999" stroke="#E3E8EE" stroke-width="2" stroke-linecap="round" stroke-linejoin="round" stroke-dasharray="0.01 16"/>
<path d="M0 48L736 47.9999" stroke="#E3E8EE" stroke-width="2" stroke-linecap="round" stroke-linejoin="round" stroke-dasharray="0.01 16"/>
<path d="M0 64L736 63.9999" stroke="#E3E8EE" stroke-width="2" stroke-linecap="round" stroke-linejoin="round" stroke-dasharray="0.01 16"/>
<path d="M0 80L736 79.9999" stroke="#E3E8EE" stroke-width="2" stroke-linecap="round" stroke-linejoin="round" stroke-dasharray="0.01 16"/>
<path d="M0 96L736 95.9999" stroke="#E3E8EE" stroke-width="2" stroke-linecap="round" stroke-linejoin="round" stroke-dasharray="0.01 16"/>
<path d="M0 112L736 112" stroke="#E3E8EE" stroke-width="2" stroke-linecap="round" stroke-linejoin="round" stroke-dasharray="0.01 16"/>
<path d="M0 128L736 128" stroke="#E3E8EE" stroke-width="2" stroke-linecap="round" stroke-linejoin="round" stroke-dasharray="0.01 16"/>
<path d="M0 144L736 144" stroke="#E3E8EE" stroke-width="2" stroke-linecap="round" stroke-linejoin="round" stroke-dasharray="0.01 16"/>
<path d="M0 160L736 160" stroke="#E3E8EE" stroke-width="2" stroke-linecap="round" stroke-linejoin="round" stroke-dasharray="0.01 16"/>
<path d="M0 176L736 176" stroke="#E3E8EE" stroke-width="2" stroke-linecap="round" stroke-linejoin="round" stroke-dasharray="0.01 16"/>
<path d="M0 192L736 192" stroke="#E3E8EE" stroke-width="2" stroke-linecap="round" stroke-linejoin="round" stroke-dasharray="0.01 16"/>
<path d="M0 208L736 208" stroke="#E3E8EE" stroke-width="2" stroke-linecap="round" stroke-linejoin="round" stroke-dasharray="0.01 16"/>
<path d="M0 224L736 224" stroke="#E3E8EE" stroke-width="2" stroke-linecap="round" stroke-linejoin="round" stroke-dasharray="0.01 16"/>
<path d="M0 240L736 240" stroke="#E3E8EE" stroke-width="2" stroke-linecap="round" stroke-linejoin="round" stroke-dasharray="0.01 16"/>
<path d="M0 256L736 256" stroke="#E3E8EE" stroke-width="2" stroke-linecap="round" stroke-linejoin="round" stroke-dasharray="0.01 16"/>
<path d="M0 272L736 272" stroke="#E3E8EE" stroke-width="2" stroke-linecap="round" stroke-linejoin="round" stroke-dasharray="0.01 16"/>
<path d="M0 288L736 288" stroke="#E3E8EE" stroke-width="2" stroke-linecap="round" stroke-linejoin="round" stroke-dasharray="0.01 16"/>
<path d="M0 304L736 304" stroke="#E3E8EE" stroke-width="2" stroke-linecap="round" stroke-linejoin="round" stroke-dasharray="0.01 16"/>
<path d="M0 320L736 320" stroke="#E3E8EE" stroke-width="2" stroke-linecap="round" stroke-linejoin="round" stroke-dasharray="0.01 16"/>
<path d="M0 336L736 336" stroke="#E3E8EE" stroke-width="2" stroke-linecap="round" stroke-linejoin="round" stroke-dasharray="0.01 16"/>
<path d="M0 352L736 352" stroke="#E3E8EE" stroke-width="2" stroke-linecap="round" stroke-linejoin="round" stroke-dasharray="0.01 16"/>
<rect x="0.5" y="0.5" width="735" height="351" stroke="white"/>
</g>
<path d="M32 48C32 39.1635 39.1634 32 48 32H232C240.837 32 248 39.1634 248 48V304C248 312.837 240.837 320 232 320H48C39.1634 320 32 312.837 32 304V48Z" fill="#F7FAFC"/>
<rect x="27" y="27" width="226" height="298" rx="21" stroke="white" stroke-width="10"/>
<path d="M264 48C264 39.1635 271.163 32 280 32H688C696.837 32 704 39.1634 704 48V304C704 312.837 696.837 320 688 320H280C271.163 320 264 312.837 264 304V48Z" fill="#F7FAFC"/>
<rect x="259" y="27" width="450" height="298" rx="21" stroke="white" stroke-width="10"/>
<rect x="120" y="52" width="41" height="24" fill="#F7FAFC"/>
<path d="M123.567 59.1357V69H127.45C130.403 69 132.078 67.1953 132.078 64.0029C132.078 60.9062 130.383 59.1357 127.45 59.1357H123.567ZM125.632 60.8379H127.122C128.913 60.8379 129.973 62 129.973 64.0371C129.973 66.1494 128.947 67.2979 127.122 67.2979H125.632V60.8379ZM133.842 69H135.831V64.7891C135.831 63.7295 136.576 63.0801 137.663 63.0801C137.984 63.0801 138.449 63.1348 138.606 63.1895V61.4395C138.436 61.3848 138.101 61.3506 137.827 61.3506C136.87 61.3506 136.091 61.918 135.893 62.6699H135.77V61.4736H133.842V69ZM141.867 69.1162C142.845 69.1162 143.665 68.6992 144.055 68.002H144.178V69H146.105V63.8594C146.105 62.2529 144.978 61.3096 142.981 61.3096C141.088 61.3096 139.81 62.1777 139.68 63.5586H141.512C141.676 63.0869 142.154 62.834 142.872 62.834C143.692 62.834 144.144 63.21 144.144 63.8594V64.4814L142.318 64.5908C140.445 64.7002 139.399 65.4932 139.399 66.8535C139.399 68.2275 140.418 69.1162 141.867 69.1162ZM142.523 67.6602C141.833 67.6602 141.348 67.3115 141.348 66.7305C141.348 66.1768 141.765 65.8555 142.619 65.8008L144.144 65.6982V66.2588C144.144 67.0518 143.446 67.6602 142.523 67.6602ZM148.642 69H150.631V63.0527H152.189V61.542H150.59V60.9062C150.59 60.25 150.877 59.9287 151.656 59.9287C151.916 59.9287 152.121 59.9492 152.251 59.9697V58.5957C151.964 58.5547 151.629 58.5205 151.226 58.5205C149.407 58.5205 148.642 59.2725 148.642 60.7695V61.542H147.425V63.0527H148.642V69ZM154.411 59.6758V61.542H153.235V63.0527H154.411V66.9697C154.411 68.4326 155.136 69.0273 156.968 69.0273C157.351 69.0273 157.72 68.9863 157.966 68.9385V67.4688C157.774 67.4893 157.638 67.5029 157.378 67.5029C156.701 67.5029 156.4 67.1885 156.4 66.5117V63.0527H157.966V61.542H156.4V59.6758H154.411Z" fill="#2A2F45"/>
<rect x="120" y="52" width="41" height="24" stroke="#F7FAFC" stroke-width="4"/>
<rect x="451" y="52" width="67" height="24" fill="#F7FAFC"/>
<path d="M456.322 69V65.1172H460.335V63.4834H456.322V60.8379H460.718V59.1357H454.258V69H456.322ZM463.438 60.3184C464.054 60.3184 464.56 59.8262 464.56 59.2109C464.56 58.5889 464.054 58.0967 463.438 58.0967C462.823 58.0967 462.311 58.5889 462.311 59.2109C462.311 59.8262 462.823 60.3184 463.438 60.3184ZM462.44 69H464.43V61.4736H462.44V69ZM466.446 69H468.436V64.6455C468.436 63.627 469.003 62.9707 469.926 62.9707C470.869 62.9707 471.313 63.5244 471.313 64.584V69H473.303V64.1328C473.303 62.335 472.4 61.3096 470.726 61.3096C469.611 61.3096 468.846 61.8359 468.497 62.6836H468.374V61.4736H466.446V69ZM477.302 69.1162C478.279 69.1162 479.1 68.6992 479.489 68.002H479.612V69H481.54V63.8594C481.54 62.2529 480.412 61.3096 478.416 61.3096C476.522 61.3096 475.244 62.1777 475.114 63.5586H476.946C477.11 63.0869 477.589 62.834 478.307 62.834C479.127 62.834 479.578 63.21 479.578 63.8594V64.4814L477.753 64.5908C475.88 64.7002 474.834 65.4932 474.834 66.8535C474.834 68.2275 475.853 69.1162 477.302 69.1162ZM477.958 67.6602C477.268 67.6602 476.782 67.3115 476.782 66.7305C476.782 66.1768 477.199 65.8555 478.054 65.8008L479.578 65.6982V66.2588C479.578 67.0518 478.881 67.6602 477.958 67.6602ZM483.563 69H485.553V58.5957H483.563V69ZM488.636 60.3184C489.251 60.3184 489.757 59.8262 489.757 59.2109C489.757 58.5889 489.251 58.0967 488.636 58.0967C488.021 58.0967 487.508 58.5889 487.508 59.2109C487.508 59.8262 488.021 60.3184 488.636 60.3184ZM487.638 69H489.627V61.4736H487.638V69ZM491.473 69H497.755V67.4688H494.07V67.3457L497.666 62.7451V61.4736H491.527V63.0049H495.287V63.1279L491.473 67.8516V69ZM504.27 66.874C504.058 67.3867 503.518 67.6738 502.731 67.6738C501.692 67.6738 501.036 66.9561 501.009 65.8076V65.7051H506.184V65.1104C506.184 62.7314 504.871 61.3096 502.649 61.3096C500.407 61.3096 499.026 62.8271 499.026 65.2744C499.026 67.708 500.38 69.1572 502.677 69.1572C504.522 69.1572 505.828 68.2754 506.122 66.874H504.27ZM502.656 62.793C503.586 62.793 504.188 63.4355 504.229 64.4678H501.016C501.084 63.4561 501.733 62.793 502.656 62.793ZM510.518 69.1162C511.563 69.1162 512.418 68.6309 512.821 67.8174H512.944V69H514.872V58.5957H512.883V62.6768H512.767C512.377 61.8428 511.536 61.3506 510.518 61.3506C508.624 61.3506 507.448 62.834 507.448 65.2266C507.448 67.626 508.617 69.1162 510.518 69.1162ZM511.194 62.9639C512.254 62.9639 512.903 63.832 512.903 65.2402C512.903 66.6484 512.261 67.5098 511.194 67.5098C510.128 67.5098 509.492 66.6553 509.492 65.2334C509.492 63.8184 510.135 62.9639 511.194 62.9639Z" fill="#2A2F45"/>
<rect x="451" y="52" width="67" height="24" stroke="#F7FAFC" stroke-width="4"/>
<path d="M504 104C504 99.5817 507.582 96 512 96H680C684.418 96 688 99.5817 688 104V136C688 140.418 684.418 144 680 144H512C507.582 144 504 140.418 504 136V104Z" fill="#D6ECFF"/>
<path d="M584.908 115.545V124H585.963V120.982H588.09C589.678 120.982 590.809 119.863 590.809 118.281C590.809 116.67 589.701 115.545 588.102 115.545H584.908ZM585.963 116.482H587.826C589.051 116.482 589.725 117.121 589.725 118.281C589.725 119.4 589.027 120.045 587.826 120.045H585.963V116.482ZM593.932 124.111C594.775 124.111 595.467 123.742 595.877 123.068H595.971V124H596.932V119.676C596.932 118.363 596.07 117.572 594.529 117.572C593.182 117.572 592.186 118.24 592.051 119.254H593.07C593.211 118.756 593.738 118.469 594.494 118.469C595.438 118.469 595.924 118.896 595.924 119.676V120.25L594.102 120.361C592.631 120.449 591.799 121.1 591.799 122.23C591.799 123.385 592.707 124.111 593.932 124.111ZM594.119 123.227C593.387 123.227 592.842 122.852 592.842 122.207C592.842 121.574 593.264 121.24 594.225 121.176L595.924 121.064V121.645C595.924 122.547 595.156 123.227 594.119 123.227ZM599.322 116.465C599.709 116.465 600.025 116.148 600.025 115.762C600.025 115.375 599.709 115.059 599.322 115.059C598.936 115.059 598.619 115.375 598.619 115.762C598.619 116.148 598.936 116.465 599.322 116.465ZM598.818 124H599.826V117.684H598.818V124ZM604.086 124.111C604.959 124.111 605.709 123.695 606.107 122.992H606.201V124H607.162V115.176H606.154V118.68H606.066C605.709 117.988 604.965 117.572 604.086 117.572C602.48 117.572 601.432 118.861 601.432 120.842C601.432 122.828 602.469 124.111 604.086 124.111ZM604.32 118.48C605.463 118.48 606.178 119.395 606.178 120.842C606.178 122.301 605.469 123.203 604.32 123.203C603.166 123.203 602.475 122.318 602.475 120.842C602.475 119.371 603.172 118.48 604.32 118.48Z" fill="#2A2F45"/>
<path d="M504 184C504 179.582 507.582 176 512 176H680C684.418 176 688 179.582 688 184V216C688 220.418 684.418 224 680 224H512C507.582 224 504 220.418 504 216V184Z" fill="#FEE3C0"/>
<path d="M561.143 195.545H560.088V201.094C560.088 202.898 561.348 204.199 563.445 204.199C565.543 204.199 566.803 202.898 566.803 201.094V195.545H565.748V201.023C565.748 202.301 564.91 203.227 563.445 203.227C561.98 203.227 561.143 202.301 561.143 201.023V195.545ZM568.818 204H569.826V200.262C569.826 199.154 570.477 198.48 571.484 198.48C572.492 198.48 572.973 199.02 572.973 200.156V204H573.98V199.91C573.98 198.41 573.189 197.572 571.771 197.572C570.805 197.572 570.189 197.982 569.873 198.68H569.779V197.684H568.818V204ZM581.053 199.617C580.877 198.492 579.939 197.572 578.404 197.572C576.635 197.572 575.51 198.85 575.51 200.818C575.51 202.828 576.641 204.111 578.41 204.111C579.928 204.111 580.871 203.256 581.053 202.096H580.033C579.846 202.811 579.254 203.203 578.404 203.203C577.279 203.203 576.553 202.277 576.553 200.818C576.553 199.389 577.268 198.48 578.404 198.48C579.312 198.48 579.869 198.99 580.033 199.617H581.053ZM585.137 204.111C586.936 204.111 588.049 202.869 588.049 200.842C588.049 198.809 586.936 197.572 585.137 197.572C583.338 197.572 582.225 198.809 582.225 200.842C582.225 202.869 583.338 204.111 585.137 204.111ZM585.137 203.203C583.941 203.203 583.268 202.336 583.268 200.842C583.268 199.342 583.941 198.48 585.137 198.48C586.332 198.48 587.006 199.342 587.006 200.842C587.006 202.336 586.332 203.203 585.137 203.203ZM589.689 204H590.697V195.176H589.689V204ZM592.713 204H593.721V195.176H592.713V204ZM599.861 202.365C599.598 202.922 599.047 203.221 598.232 203.221C597.16 203.221 596.463 202.43 596.41 201.182V201.135H600.951V200.748C600.951 198.785 599.914 197.572 598.209 197.572C596.475 197.572 595.361 198.861 595.361 200.848C595.361 202.846 596.457 204.111 598.209 204.111C599.592 204.111 600.576 203.443 600.869 202.365H599.861ZM598.197 198.463C599.199 198.463 599.867 199.201 599.891 200.32H596.41C596.486 199.201 597.189 198.463 598.197 198.463ZM607.76 199.617C607.584 198.492 606.646 197.572 605.111 197.572C603.342 197.572 602.217 198.85 602.217 200.818C602.217 202.828 603.348 204.111 605.117 204.111C606.635 204.111 607.578 203.256 607.76 202.096H606.74C606.553 202.811 605.961 203.203 605.111 203.203C603.986 203.203 603.26 202.277 603.26 200.818C603.26 199.389 603.975 198.48 605.111 198.48C606.02 198.48 606.576 198.99 606.74 199.617H607.76ZM609.787 196.049V197.684H608.768V198.527H609.787V202.359C609.787 203.566 610.309 204.047 611.609 204.047C611.809 204.047 612.002 204.023 612.201 203.988V203.139C612.014 203.156 611.914 203.162 611.732 203.162C611.076 203.162 610.795 202.846 610.795 202.102V198.527H612.201V197.684H610.795V196.049H609.787ZM614.252 196.465C614.639 196.465 614.955 196.148 614.955 195.762C614.955 195.375 614.639 195.059 614.252 195.059C613.865 195.059 613.549 195.375 613.549 195.762C613.549 196.148 613.865 196.465 614.252 196.465ZM613.748 204H614.756V197.684H613.748V204ZM619.818 204.111C621.418 204.111 622.467 202.816 622.467 200.842C622.467 198.855 621.424 197.572 619.818 197.572C618.951 197.572 618.184 198 617.838 198.68H617.744V195.176H616.736V204H617.697V202.992H617.791C618.189 203.695 618.939 204.111 619.818 204.111ZM619.584 198.48C620.738 198.48 621.424 199.365 621.424 200.842C621.424 202.318 620.738 203.203 619.584 203.203C618.436 203.203 617.721 202.301 617.721 200.842C617.721 199.383 618.436 198.48 619.584 198.48ZM624.107 204H625.115V195.176H624.107V204ZM631.256 202.365C630.992 202.922 630.441 203.221 629.627 203.221C628.555 203.221 627.857 202.43 627.805 201.182V201.135H632.346V200.748C632.346 198.785 631.309 197.572 629.604 197.572C627.869 197.572 626.756 198.861 626.756 200.848C626.756 202.846 627.852 204.111 629.604 204.111C630.986 204.111 631.971 203.443 632.264 202.365H631.256ZM629.592 198.463C630.594 198.463 631.262 199.201 631.285 200.32H627.805C627.881 199.201 628.584 198.463 629.592 198.463Z" fill="#2A2F45"/>
<path d="M504 264C504 259.582 507.582 256 512 256H680C684.418 256 688 259.582 688 264V296C688 300.418 684.418 304 680 304H512C507.582 304 504 300.418 504 296V264Z" fill="#E6E6FC"/>
<path d="M588.107 284L591.225 275.545H590.117L587.633 282.635H587.539L585.055 275.545H583.947L587.064 284H588.107ZM594.588 284.111C596.387 284.111 597.5 282.869 597.5 280.842C597.5 278.809 596.387 277.572 594.588 277.572C592.789 277.572 591.676 278.809 591.676 280.842C591.676 282.869 592.789 284.111 594.588 284.111ZM594.588 283.203C593.393 283.203 592.719 282.336 592.719 280.842C592.719 279.342 593.393 278.48 594.588 278.48C595.783 278.48 596.457 279.342 596.457 280.842C596.457 282.336 595.783 283.203 594.588 283.203ZM599.609 276.465C599.996 276.465 600.312 276.148 600.312 275.762C600.312 275.375 599.996 275.059 599.609 275.059C599.223 275.059 598.906 275.375 598.906 275.762C598.906 276.148 599.223 276.465 599.609 276.465ZM599.105 284H600.113V277.684H599.105V284ZM604.373 284.111C605.246 284.111 605.996 283.695 606.395 282.992H606.488V284H607.449V275.176H606.441V278.68H606.354C605.996 277.988 605.252 277.572 604.373 277.572C602.768 277.572 601.719 278.861 601.719 280.842C601.719 282.828 602.756 284.111 604.373 284.111ZM604.607 278.48C605.75 278.48 606.465 279.395 606.465 280.842C606.465 282.301 605.756 283.203 604.607 283.203C603.453 283.203 602.762 282.318 602.762 280.842C602.762 279.371 603.459 278.48 604.607 278.48Z" fill="#2A2F45"/>
<path d="M48 104C48 99.5817 51.5817 96 56 96H224C228.418 96 232 99.5817 232 104V136C232 140.418 228.418 144 224 144H56C51.5817 144 48 140.418 48 136V104Z" fill="#E3E8EE"/>
<path d="M126.77 115.545V124H129.67C132.184 124 133.66 122.436 133.66 119.77C133.66 117.109 132.178 115.545 129.67 115.545H126.77ZM127.824 116.494H129.6C131.475 116.494 132.582 117.713 132.582 119.781C132.582 121.844 131.486 123.051 129.6 123.051H127.824V116.494ZM135.359 124H136.367V120.086C136.367 119.195 137.064 118.551 138.025 118.551C138.225 118.551 138.588 118.586 138.67 118.609V117.602C138.541 117.584 138.33 117.572 138.166 117.572C137.328 117.572 136.602 118.006 136.414 118.621H136.32V117.684H135.359V124ZM141.688 124.111C142.531 124.111 143.223 123.742 143.633 123.068H143.727V124H144.688V119.676C144.688 118.363 143.826 117.572 142.285 117.572C140.938 117.572 139.941 118.24 139.807 119.254H140.826C140.967 118.756 141.494 118.469 142.25 118.469C143.193 118.469 143.68 118.896 143.68 119.676V120.25L141.857 120.361C140.387 120.449 139.555 121.1 139.555 122.23C139.555 123.385 140.463 124.111 141.688 124.111ZM141.875 123.227C141.143 123.227 140.598 122.852 140.598 122.207C140.598 121.574 141.02 121.24 141.98 121.176L143.68 121.064V121.645C143.68 122.547 142.912 123.227 141.875 123.227ZM146.973 124H147.98V118.527H149.428V117.684H147.98V117.01C147.98 116.318 148.285 115.967 149.012 115.967C149.193 115.967 149.363 115.973 149.486 115.996V115.176C149.275 115.135 149.053 115.117 148.807 115.117C147.605 115.117 146.973 115.721 146.973 116.98V117.684H145.924V118.527H146.973V124ZM151.32 116.049V117.684H150.301V118.527H151.32V122.359C151.32 123.566 151.842 124.047 153.143 124.047C153.342 124.047 153.535 124.023 153.734 123.988V123.139C153.547 123.156 153.447 123.162 153.266 123.162C152.609 123.162 152.328 122.846 152.328 122.102V118.527H153.734V117.684H152.328V116.049H151.32Z" fill="#2A2F45"/>
<path d="M48 184C48 179.582 51.5817 176 56 176H224C228.418 176 232 179.582 232 184V216C232 220.418 228.418 224 224 224H56C51.5817 224 48 220.418 48 216V184Z" fill="#FBB5B2"/>
<path d="M119.105 195.545V204H122.006C124.52 204 125.996 202.436 125.996 199.77C125.996 197.109 124.514 195.545 122.006 195.545H119.105ZM120.16 196.494H121.936C123.811 196.494 124.918 197.713 124.918 199.781C124.918 201.844 123.822 203.051 121.936 203.051H120.16V196.494ZM131.879 202.365C131.615 202.922 131.064 203.221 130.25 203.221C129.178 203.221 128.48 202.43 128.428 201.182V201.135H132.969V200.748C132.969 198.785 131.932 197.572 130.227 197.572C128.492 197.572 127.379 198.861 127.379 200.848C127.379 202.846 128.475 204.111 130.227 204.111C131.609 204.111 132.594 203.443 132.887 202.365H131.879ZM130.215 198.463C131.217 198.463 131.885 199.201 131.908 200.32H128.428C128.504 199.201 129.207 198.463 130.215 198.463ZM134.609 204H135.617V195.176H134.609V204ZM141.758 202.365C141.494 202.922 140.943 203.221 140.129 203.221C139.057 203.221 138.359 202.43 138.307 201.182V201.135H142.848V200.748C142.848 198.785 141.811 197.572 140.105 197.572C138.371 197.572 137.258 198.861 137.258 200.848C137.258 202.846 138.354 204.111 140.105 204.111C141.488 204.111 142.473 203.443 142.766 202.365H141.758ZM140.094 198.463C141.096 198.463 141.764 199.201 141.787 200.32H138.307C138.383 199.201 139.086 198.463 140.094 198.463ZM144.852 196.049V197.684H143.832V198.527H144.852V202.359C144.852 203.566 145.373 204.047 146.674 204.047C146.873 204.047 147.066 204.023 147.266 203.988V203.139C147.078 203.156 146.979 203.162 146.797 203.162C146.141 203.162 145.859 202.846 145.859 202.102V198.527H147.266V197.684H145.859V196.049H144.852ZM152.879 202.365C152.615 202.922 152.064 203.221 151.25 203.221C150.178 203.221 149.48 202.43 149.428 201.182V201.135H153.969V200.748C153.969 198.785 152.932 197.572 151.227 197.572C149.492 197.572 148.379 198.861 148.379 200.848C148.379 202.846 149.475 204.111 151.227 204.111C152.609 204.111 153.594 203.443 153.887 202.365H152.879ZM151.215 198.463C152.217 198.463 152.885 199.201 152.908 200.32H149.428C149.504 199.201 150.207 198.463 151.215 198.463ZM157.889 204.111C158.762 204.111 159.512 203.695 159.91 202.992H160.004V204H160.965V195.176H159.957V198.68H159.869C159.512 197.988 158.768 197.572 157.889 197.572C156.283 197.572 155.234 198.861 155.234 200.842C155.234 202.828 156.271 204.111 157.889 204.111ZM158.123 198.48C159.266 198.48 159.98 199.395 159.98 200.842C159.98 202.301 159.271 203.203 158.123 203.203C156.969 203.203 156.277 202.318 156.277 200.842C156.277 199.371 156.975 198.48 158.123 198.48Z" fill="#2A2F45"/>
<path d="M280 104C280 99.5817 283.582 96 288 96H448C452.418 96 456 99.5817 456 104V136C456 140.418 452.418 144 448 144H288C283.582 144 280 140.418 280 136V104Z" fill="#CBF4C9"/>
<path d="M357.412 115.346C355.021 115.346 353.533 117.051 353.533 119.77C353.533 122.477 354.986 124.199 357.412 124.199C359.826 124.199 361.291 122.471 361.291 119.77C361.291 117.057 359.814 115.346 357.412 115.346ZM357.412 116.318C359.141 116.318 360.207 117.654 360.207 119.77C360.207 121.867 359.146 123.227 357.412 123.227C355.654 123.227 354.617 121.867 354.617 119.77C354.617 117.654 355.689 116.318 357.412 116.318ZM366.066 117.572C365.205 117.572 364.449 118.012 364.045 118.738H363.951V117.684H362.99V126.109H363.998V123.051H364.092C364.438 123.719 365.164 124.111 366.066 124.111C367.672 124.111 368.721 122.816 368.721 120.842C368.721 118.855 367.678 117.572 366.066 117.572ZM365.826 123.203C364.689 123.203 363.969 122.289 363.969 120.842C363.969 119.389 364.689 118.48 365.832 118.48C366.986 118.48 367.678 119.365 367.678 120.842C367.678 122.318 366.986 123.203 365.826 123.203ZM374.486 122.365C374.223 122.922 373.672 123.221 372.857 123.221C371.785 123.221 371.088 122.43 371.035 121.182V121.135H375.576V120.748C375.576 118.785 374.539 117.572 372.834 117.572C371.1 117.572 369.986 118.861 369.986 120.848C369.986 122.846 371.082 124.111 372.834 124.111C374.217 124.111 375.201 123.443 375.494 122.365H374.486ZM372.822 118.463C373.824 118.463 374.492 119.201 374.516 120.32H371.035C371.111 119.201 371.814 118.463 372.822 118.463ZM377.158 124H378.166V120.262C378.166 119.154 378.816 118.48 379.824 118.48C380.832 118.48 381.312 119.02 381.312 120.156V124H382.32V119.91C382.32 118.41 381.529 117.572 380.111 117.572C379.145 117.572 378.529 117.982 378.213 118.68H378.119V117.684H377.158V124Z" fill="#2A2F45"/>
<path d="M140.75 152.5C140.75 152.086 140.414 151.75 140 151.75C139.586 151.75 139.25 152.086 139.25 152.5L140.75 152.5ZM139.47 168.03C139.763 168.323 140.237 168.323 140.53 168.03L145.303 163.257C145.596 162.964 145.596 162.49 145.303 162.197C145.01 161.904 144.536 161.904 144.243 162.197L140 166.439L135.757 162.197C135.464 161.904 134.99 161.904 134.697 162.197C134.404 162.49 134.404 162.964 134.697 163.257L139.47 168.03ZM139.25 152.5L139.25 167.5L140.75 167.5L140.75 152.5L139.25 152.5Z" fill="#8792A2"/>
<path d="M240.5 119.25C240.086 119.25 239.75 119.586 239.75 120C239.75 120.414 240.086 120.75 240.5 120.75V119.25ZM272.03 120.53C272.323 120.237 272.323 119.763 272.03 119.47L267.257 114.697C266.964 114.404 266.49 114.404 266.197 114.697C265.904 114.99 265.904 115.464 266.197 115.757L270.439 120L266.197 124.243C265.904 124.536 265.904 125.01 266.197 125.303C266.49 125.596 266.964 125.596 267.257 125.303L272.03 120.53ZM240.5 120.75L271.5 120.75V119.25L240.5 119.25V120.75Z" fill="#8792A2"/>
<path d="M464.5 119.25C464.086 119.25 463.75 119.586 463.75 120C463.75 120.414 464.086 120.75 464.5 120.75V119.25ZM496.03 120.53C496.323 120.237 496.323 119.763 496.03 119.47L491.257 114.697C490.964 114.404 490.49 114.404 490.197 114.697C489.904 114.99 489.904 115.464 490.197 115.757L494.439 120L490.197 124.243C489.904 124.536 489.904 125.01 490.197 125.303C490.49 125.596 490.964 125.596 491.257 125.303L496.03 120.53ZM464.5 120.75L495.5 120.75V119.25L464.5 119.25V120.75Z" fill="#8792A2"/>
<path d="M596.75 232.5C596.75 232.086 596.414 231.75 596 231.75C595.586 231.75 595.25 232.086 595.25 232.5L596.75 232.5ZM595.47 248.03C595.763 248.323 596.237 248.323 596.53 248.03L601.303 243.257C601.596 242.964 601.596 242.49 601.303 242.197C601.01 241.904 600.536 241.904 600.243 242.197L596 246.439L591.757 242.197C591.464 241.904 590.99 241.904 590.697 242.197C590.404 242.49 590.404 242.964 590.697 243.257L595.47 248.03ZM595.25 232.5L595.25 247.5L596.75 247.5L596.75 232.5L595.25 232.5Z" fill="#8792A2"/>
<path d="M595.25 167.5C595.25 167.914 595.586 168.25 596 168.25C596.414 168.25 596.75 167.914 596.75 167.5L595.25 167.5ZM596.53 151.97C596.237 151.677 595.763 151.677 595.47 151.97L590.697 156.743C590.404 157.036 590.404 157.51 590.697 157.803C590.99 158.096 591.464 158.096 591.757 157.803L596 153.561L600.243 157.803C600.536 158.096 601.01 158.096 601.303 157.803C601.596 157.51 601.596 157.036 601.303 156.743L596.53 151.97ZM596.75 167.5L596.75 152.5L595.25 152.5L595.25 167.5L596.75 167.5Z" fill="#8792A2"/>
<path d="M367.25 152.5C367.25 152.086 367.586 151.75 368 151.75C368.414 151.75 368.75 152.086 368.75 152.5L367.25 152.5ZM496.03 199.47C496.323 199.763 496.323 200.237 496.03 200.53L491.257 205.303C490.964 205.596 490.49 205.596 490.197 205.303C489.904 205.01 489.904 204.536 490.197 204.243L494.439 200L490.197 195.757C489.904 195.464 489.904 194.99 490.197 194.697C490.49 194.404 490.964 194.404 491.257 194.697L496.03 199.47ZM368.75 152.5L368.75 196L367.25 196L367.25 152.5L368.75 152.5ZM372 199.25L495.5 199.25L495.5 200.75L372 200.75L372 199.25ZM368.75 196C368.75 197.795 370.205 199.25 372 199.25L372 200.75C369.377 200.75 367.25 198.623 367.25 196L368.75 196Z" fill="#8792A2"/>
<path d="M367.25 152.5C367.25 152.086 367.586 151.75 368 151.75C368.414 151.75 368.75 152.086 368.75 152.5L367.25 152.5ZM496.03 279.47C496.323 279.763 496.323 280.237 496.03 280.53L491.257 285.303C490.964 285.596 490.49 285.596 490.197 285.303C489.904 285.01 489.904 284.536 490.197 284.243L494.439 280L490.197 275.757C489.904 275.464 489.904 274.99 490.197 274.697C490.49 274.404 490.964 274.404 491.257 274.697L496.03 279.47ZM368.75 152.5L368.75 276L367.25 276L367.25 152.5L368.75 152.5ZM372 279.25L495.5 279.25L495.5 280.75L372 280.75L372 279.25ZM368.75 276C368.75 277.795 370.205 279.25 372 279.25L372 280.75C369.377 280.75 367.25 278.623 367.25 276L368.75 276Z" fill="#8792A2"/>
</g>
<defs>
<clipPath id="clip0">
<rect width="736" height="352" fill="white"/>
</clipPath>
<clipPath id="clip1">
<path d="M0 0H736V352H0V0Z" fill="white"/>
</clipPath>
</defs>
</svg>
