<svg width="736" height="464" viewBox="0 0 736 464" fill="none" xmlns="http://www.w3.org/2000/svg">
<g clip-path="url(#clip0)">
<path d="M0 0H736V464H0V0Z" fill="white"/>
<path d="M0 0L736 -6.43432e-05" stroke="#E3E8EE" stroke-width="2" stroke-linecap="round" stroke-linejoin="round" stroke-dasharray="0.01 16"/>
<path d="M0 16L736 15.9999" stroke="#E3E8EE" stroke-width="2" stroke-linecap="round" stroke-linejoin="round" stroke-dasharray="0.01 16"/>
<path d="M0 32L736 31.9999" stroke="#E3E8EE" stroke-width="2" stroke-linecap="round" stroke-linejoin="round" stroke-dasharray="0.01 16"/>
<path d="M0 48L736 47.9999" stroke="#E3E8EE" stroke-width="2" stroke-linecap="round" stroke-linejoin="round" stroke-dasharray="0.01 16"/>
<path d="M0 64L736 63.9999" stroke="#E3E8EE" stroke-width="2" stroke-linecap="round" stroke-linejoin="round" stroke-dasharray="0.01 16"/>
<path d="M0 80L736 79.9999" stroke="#E3E8EE" stroke-width="2" stroke-linecap="round" stroke-linejoin="round" stroke-dasharray="0.01 16"/>
<path d="M0 96L736 95.9999" stroke="#E3E8EE" stroke-width="2" stroke-linecap="round" stroke-linejoin="round" stroke-dasharray="0.01 16"/>
<path d="M0 112L736 112" stroke="#E3E8EE" stroke-width="2" stroke-linecap="round" stroke-linejoin="round" stroke-dasharray="0.01 16"/>
<path d="M0 128L736 128" stroke="#E3E8EE" stroke-width="2" stroke-linecap="round" stroke-linejoin="round" stroke-dasharray="0.01 16"/>
<path d="M0 144L736 144" stroke="#E3E8EE" stroke-width="2" stroke-linecap="round" stroke-linejoin="round" stroke-dasharray="0.01 16"/>
<path d="M0 160L736 160" stroke="#E3E8EE" stroke-width="2" stroke-linecap="round" stroke-linejoin="round" stroke-dasharray="0.01 16"/>
<path d="M0 176L736 176" stroke="#E3E8EE" stroke-width="2" stroke-linecap="round" stroke-linejoin="round" stroke-dasharray="0.01 16"/>
<path d="M0 192L736 192" stroke="#E3E8EE" stroke-width="2" stroke-linecap="round" stroke-linejoin="round" stroke-dasharray="0.01 16"/>
<path d="M0 208L736 208" stroke="#E3E8EE" stroke-width="2" stroke-linecap="round" stroke-linejoin="round" stroke-dasharray="0.01 16"/>
<path d="M0 224L736 224" stroke="#E3E8EE" stroke-width="2" stroke-linecap="round" stroke-linejoin="round" stroke-dasharray="0.01 16"/>
<path d="M0 240L736 240" stroke="#E3E8EE" stroke-width="2" stroke-linecap="round" stroke-linejoin="round" stroke-dasharray="0.01 16"/>
<path d="M0 256L736 256" stroke="#E3E8EE" stroke-width="2" stroke-linecap="round" stroke-linejoin="round" stroke-dasharray="0.01 16"/>
<path d="M0 272L736 272" stroke="#E3E8EE" stroke-width="2" stroke-linecap="round" stroke-linejoin="round" stroke-dasharray="0.01 16"/>
<path d="M0 288L736 288" stroke="#E3E8EE" stroke-width="2" stroke-linecap="round" stroke-linejoin="round" stroke-dasharray="0.01 16"/>
<path d="M0 304L736 304" stroke="#E3E8EE" stroke-width="2" stroke-linecap="round" stroke-linejoin="round" stroke-dasharray="0.01 16"/>
<path d="M0 320L736 320" stroke="#E3E8EE" stroke-width="2" stroke-linecap="round" stroke-linejoin="round" stroke-dasharray="0.01 16"/>
<path d="M0 336L736 336" stroke="#E3E8EE" stroke-width="2" stroke-linecap="round" stroke-linejoin="round" stroke-dasharray="0.01 16"/>
<path d="M0 352L736 352" stroke="#E3E8EE" stroke-width="2" stroke-linecap="round" stroke-linejoin="round" stroke-dasharray="0.01 16"/>
<path d="M0 368L736 368" stroke="#E3E8EE" stroke-width="2" stroke-linecap="round" stroke-linejoin="round" stroke-dasharray="0.01 16"/>
<path d="M0 384L736 384" stroke="#E3E8EE" stroke-width="2" stroke-linecap="round" stroke-linejoin="round" stroke-dasharray="0.01 16"/>
<path d="M0 400L736 400" stroke="#E3E8EE" stroke-width="2" stroke-linecap="round" stroke-linejoin="round" stroke-dasharray="0.01 16"/>
<path d="M0 416L736 416" stroke="#E3E8EE" stroke-width="2" stroke-linecap="round" stroke-linejoin="round" stroke-dasharray="0.01 16"/>
<path d="M0 432L736 432" stroke="#E3E8EE" stroke-width="2" stroke-linecap="round" stroke-linejoin="round" stroke-dasharray="0.01 16"/>
<path d="M0 448L736 448" stroke="#E3E8EE" stroke-width="2" stroke-linecap="round" stroke-linejoin="round" stroke-dasharray="0.01 16"/>
<path d="M0 464L736 464" stroke="#E3E8EE" stroke-width="2" stroke-linecap="round" stroke-linejoin="round" stroke-dasharray="0.01 16"/>
<rect x="0.5" y="0.5" width="735" height="463" stroke="white"/>
</g>
<path d="M112 48C112 39.1635 119.163 32 128 32H384C392.837 32 400 39.1634 400 48V416C400 424.837 392.837 432 384 432H128C119.163 432 112 424.837 112 416V48Z" fill="#F7FAFC"/>
<rect x="107" y="27" width="298" height="410" rx="21" stroke="white" stroke-width="10"/>
<path d="M565 112C565 103.163 572.163 96 581 96H688C696.837 96 704 103.163 704 112V416C704 424.837 696.837 432 688 432H581C572.163 432 565 424.837 565 416V112Z" fill="#F7FAFC"/>
<rect x="560" y="91" width="149" height="346" rx="21" stroke="white" stroke-width="10"/>
<path d="M416 112C416 103.163 423.163 96 432 96H540C548.837 96 556 103.163 556 112V416C556 424.837 548.837 432 540 432H432C423.163 432 416 424.837 416 416V112Z" fill="#F7FAFC"/>
<rect x="411" y="91" width="150" height="346" rx="21" stroke="white" stroke-width="10"/>
<rect x="193" y="52" width="126" height="24" fill="#F7FAFC"/>
<path d="M196.514 59.1357V69H198.578V65.8896H200.526C202.604 65.8896 204.047 64.5361 204.047 62.5264C204.047 60.4893 202.659 59.1357 200.629 59.1357H196.514ZM198.578 60.7764H200.082C201.271 60.7764 201.948 61.3848 201.948 62.5332C201.948 63.6543 201.258 64.2695 200.075 64.2695H198.578V60.7764ZM205.817 69H207.807V58.5957H205.817V69ZM211.942 69.1162C212.92 69.1162 213.74 68.6992 214.13 68.002H214.253V69H216.181V63.8594C216.181 62.2529 215.053 61.3096 213.057 61.3096C211.163 61.3096 209.885 62.1777 209.755 63.5586H211.587C211.751 63.0869 212.229 62.834 212.947 62.834C213.768 62.834 214.219 63.21 214.219 63.8594V64.4814L212.394 64.5908C210.521 64.7002 209.475 65.4932 209.475 66.8535C209.475 68.2275 210.493 69.1162 211.942 69.1162ZM212.599 67.6602C211.908 67.6602 211.423 67.3115 211.423 66.7305C211.423 66.1768 211.84 65.8555 212.694 65.8008L214.219 65.6982V66.2588C214.219 67.0518 213.521 67.6602 212.599 67.6602ZM218.703 59.6758V61.542H217.527V63.0527H218.703V66.9697C218.703 68.4326 219.428 69.0273 221.26 69.0273C221.643 69.0273 222.012 68.9863 222.258 68.9385V67.4688C222.066 67.4893 221.93 67.5029 221.67 67.5029C220.993 67.5029 220.692 67.1885 220.692 66.5117V63.0527H222.258V61.542H220.692V59.6758H218.703ZM224.568 69H226.558V63.0527H228.116V61.542H226.517V60.9062C226.517 60.25 226.804 59.9287 227.583 59.9287C227.843 59.9287 228.048 59.9492 228.178 59.9697V58.5957C227.891 58.5547 227.556 58.5205 227.152 58.5205C225.334 58.5205 224.568 59.2725 224.568 60.7695V61.542H223.352V63.0527H224.568V69ZM232.785 69.1572C235.103 69.1572 236.497 67.6943 236.497 65.2334C236.497 62.793 235.082 61.3096 232.785 61.3096C230.488 61.3096 229.073 62.7998 229.073 65.2334C229.073 67.6875 230.468 69.1572 232.785 69.1572ZM232.785 67.585C231.719 67.585 231.117 66.7236 231.117 65.2334C231.117 63.7568 231.726 62.8887 232.785 62.8887C233.838 62.8887 234.453 63.7568 234.453 65.2334C234.453 66.7236 233.845 67.585 232.785 67.585ZM238.124 69H240.113V64.7891C240.113 63.7295 240.858 63.0801 241.945 63.0801C242.267 63.0801 242.731 63.1348 242.889 63.1895V61.4395C242.718 61.3848 242.383 61.3506 242.109 61.3506C241.152 61.3506 240.373 61.918 240.175 62.6699H240.052V61.4736H238.124V69ZM244.29 69H246.279V64.4609C246.279 63.5996 246.833 62.9707 247.612 62.9707C248.392 62.9707 248.856 63.4355 248.856 64.2422V69H250.771V64.3721C250.771 63.5586 251.29 62.9707 252.097 62.9707C252.938 62.9707 253.354 63.4219 253.354 64.3311V69H255.344V63.832C255.344 62.2803 254.407 61.3096 252.903 61.3096C251.851 61.3096 250.982 61.8633 250.634 62.6973H250.511C250.21 61.8359 249.485 61.3096 248.426 61.3096C247.435 61.3096 246.648 61.8359 246.341 62.6973H246.218V61.4736H244.29V69ZM262.952 69.1162C263.93 69.1162 264.75 68.6992 265.14 68.002H265.263V69H267.19V63.8594C267.19 62.2529 266.062 61.3096 264.066 61.3096C262.173 61.3096 260.895 62.1777 260.765 63.5586H262.597C262.761 63.0869 263.239 62.834 263.957 62.834C264.777 62.834 265.229 63.21 265.229 63.8594V64.4814L263.403 64.5908C261.53 64.7002 260.484 65.4932 260.484 66.8535C260.484 68.2275 261.503 69.1162 262.952 69.1162ZM263.608 67.6602C262.918 67.6602 262.433 67.3115 262.433 66.7305C262.433 66.1768 262.85 65.8555 263.704 65.8008L265.229 65.6982V66.2588C265.229 67.0518 264.531 67.6602 263.608 67.6602ZM275.817 64.0986C275.653 62.417 274.457 61.3096 272.461 61.3096C270.103 61.3096 268.776 62.7383 268.776 65.2197C268.776 67.7285 270.109 69.1572 272.461 69.1572C274.423 69.1572 275.653 68.0771 275.817 66.4229H273.958C273.808 67.1748 273.274 67.5781 272.461 67.5781C271.395 67.5781 270.786 66.7373 270.786 65.2197C270.786 63.7227 271.388 62.8955 272.461 62.8955C273.309 62.8955 273.821 63.374 273.958 64.0986H275.817ZM284.048 64.0986C283.884 62.417 282.688 61.3096 280.691 61.3096C278.333 61.3096 277.007 62.7383 277.007 65.2197C277.007 67.7285 278.34 69.1572 280.691 69.1572C282.653 69.1572 283.884 68.0771 284.048 66.4229H282.188C282.038 67.1748 281.505 67.5781 280.691 67.5781C279.625 67.5781 279.017 66.7373 279.017 65.2197C279.017 63.7227 279.618 62.8955 280.691 62.8955C281.539 62.8955 282.052 63.374 282.188 64.0986H284.048ZM288.949 69.1572C291.267 69.1572 292.661 67.6943 292.661 65.2334C292.661 62.793 291.246 61.3096 288.949 61.3096C286.652 61.3096 285.237 62.7998 285.237 65.2334C285.237 67.6875 286.632 69.1572 288.949 69.1572ZM288.949 67.585C287.883 67.585 287.281 66.7236 287.281 65.2334C287.281 63.7568 287.89 62.8887 288.949 62.8887C290.002 62.8887 290.617 63.7568 290.617 65.2334C290.617 66.7236 290.009 67.585 288.949 67.585ZM301.11 61.4736H299.121V65.8213C299.121 66.8535 298.588 67.4893 297.597 67.4893C296.681 67.4893 296.209 66.9492 296.209 65.8828V61.4736H294.22V66.375C294.22 68.125 295.231 69.1572 296.858 69.1572C298 69.1572 298.704 68.665 299.06 67.79H299.183V69H301.11V61.4736ZM303.106 69H305.096V64.6455C305.096 63.627 305.663 62.9707 306.586 62.9707C307.529 62.9707 307.974 63.5244 307.974 64.584V69H309.963V64.1328C309.963 62.335 309.061 61.3096 307.386 61.3096C306.271 61.3096 305.506 61.8359 305.157 62.6836H305.034V61.4736H303.106V69ZM312.465 59.6758V61.542H311.289V63.0527H312.465V66.9697C312.465 68.4326 313.189 69.0273 315.021 69.0273C315.404 69.0273 315.773 68.9863 316.02 68.9385V67.4688C315.828 67.4893 315.691 67.5029 315.432 67.5029C314.755 67.5029 314.454 67.1885 314.454 66.5117V63.0527H316.02V61.542H314.454V59.6758H312.465Z" fill="#3C4257"/>
<rect x="193" y="52" width="126" height="24" stroke="#F7FAFC" stroke-width="4"/>
<rect x="489" y="52" width="149" height="24" fill="white"/>
<path d="M496.439 69.2529C498.818 69.2529 500.555 67.8105 500.726 65.7051H498.716C498.518 66.792 497.629 67.4893 496.446 67.4893C494.888 67.4893 493.924 66.1768 493.924 64.0645C493.924 61.9521 494.888 60.6396 496.439 60.6396C497.615 60.6396 498.511 61.3916 498.709 62.5332H500.719C500.568 60.4141 498.777 58.8828 496.439 58.8828C493.575 58.8828 491.812 60.8584 491.812 64.0645C491.812 67.2705 493.582 69.2529 496.439 69.2529ZM505.771 69.1572C508.088 69.1572 509.482 67.6943 509.482 65.2334C509.482 62.793 508.067 61.3096 505.771 61.3096C503.474 61.3096 502.059 62.7998 502.059 65.2334C502.059 67.6875 503.453 69.1572 505.771 69.1572ZM505.771 67.585C504.704 67.585 504.103 66.7236 504.103 65.2334C504.103 63.7568 504.711 62.8887 505.771 62.8887C506.823 62.8887 507.438 63.7568 507.438 65.2334C507.438 66.7236 506.83 67.585 505.771 67.585ZM511.109 69H513.099V64.6455C513.099 63.627 513.666 62.9707 514.589 62.9707C515.532 62.9707 515.977 63.5244 515.977 64.584V69H517.966V64.1328C517.966 62.335 517.063 61.3096 515.389 61.3096C514.274 61.3096 513.509 61.8359 513.16 62.6836H513.037V61.4736H511.109V69ZM519.9 69H521.89V64.6455C521.89 63.627 522.457 62.9707 523.38 62.9707C524.323 62.9707 524.768 63.5244 524.768 64.584V69H526.757V64.1328C526.757 62.335 525.854 61.3096 524.18 61.3096C523.065 61.3096 522.3 61.8359 521.951 62.6836H521.828V61.4736H519.9V69ZM533.565 66.874C533.354 67.3867 532.813 67.6738 532.027 67.6738C530.988 67.6738 530.332 66.9561 530.305 65.8076V65.7051H535.479V65.1104C535.479 62.7314 534.167 61.3096 531.945 61.3096C529.703 61.3096 528.322 62.8271 528.322 65.2744C528.322 67.708 529.676 69.1572 531.973 69.1572C533.818 69.1572 535.124 68.2754 535.418 66.874H533.565ZM531.952 62.793C532.882 62.793 533.483 63.4355 533.524 64.4678H530.312C530.38 63.4561 531.029 62.793 531.952 62.793ZM543.785 64.0986C543.621 62.417 542.425 61.3096 540.429 61.3096C538.07 61.3096 536.744 62.7383 536.744 65.2197C536.744 67.7285 538.077 69.1572 540.429 69.1572C542.391 69.1572 543.621 68.0771 543.785 66.4229H541.926C541.775 67.1748 541.242 67.5781 540.429 67.5781C539.362 67.5781 538.754 66.7373 538.754 65.2197C538.754 63.7227 539.355 62.8955 540.429 62.8955C541.276 62.8955 541.789 63.374 541.926 64.0986H543.785ZM545.979 59.6758V61.542H544.804V63.0527H545.979V66.9697C545.979 68.4326 546.704 69.0273 548.536 69.0273C548.919 69.0273 549.288 68.9863 549.534 68.9385V67.4688C549.343 67.4893 549.206 67.5029 548.946 67.5029C548.27 67.5029 547.969 67.1885 547.969 66.5117V63.0527H549.534V61.542H547.969V59.6758H545.979ZM556.015 66.874C555.803 67.3867 555.263 67.6738 554.477 67.6738C553.438 67.6738 552.781 66.9561 552.754 65.8076V65.7051H557.929V65.1104C557.929 62.7314 556.616 61.3096 554.395 61.3096C552.152 61.3096 550.771 62.8271 550.771 65.2744C550.771 67.708 552.125 69.1572 554.422 69.1572C556.268 69.1572 557.573 68.2754 557.867 66.874H556.015ZM554.401 62.793C555.331 62.793 555.933 63.4355 555.974 64.4678H552.761C552.829 63.4561 553.479 62.793 554.401 62.793ZM562.263 69.1162C563.309 69.1162 564.163 68.6309 564.566 67.8174H564.689V69H566.617V58.5957H564.628V62.6768H564.512C564.122 61.8428 563.281 61.3506 562.263 61.3506C560.369 61.3506 559.193 62.834 559.193 65.2266C559.193 67.626 560.362 69.1162 562.263 69.1162ZM562.939 62.9639C563.999 62.9639 564.648 63.832 564.648 65.2402C564.648 66.6484 564.006 67.5098 562.939 67.5098C561.873 67.5098 561.237 66.6553 561.237 65.2334C561.237 63.8184 561.88 62.9639 562.939 62.9639ZM574.355 69.1162C575.333 69.1162 576.153 68.6992 576.543 68.002H576.666V69H578.594V63.8594C578.594 62.2529 577.466 61.3096 575.47 61.3096C573.576 61.3096 572.298 62.1777 572.168 63.5586H574C574.164 63.0869 574.643 62.834 575.36 62.834C576.181 62.834 576.632 63.21 576.632 63.8594V64.4814L574.807 64.5908C572.934 64.7002 571.888 65.4932 571.888 66.8535C571.888 68.2275 572.906 69.1162 574.355 69.1162ZM575.012 67.6602C574.321 67.6602 573.836 67.3115 573.836 66.7305C573.836 66.1768 574.253 65.8555 575.107 65.8008L576.632 65.6982V66.2588C576.632 67.0518 575.935 67.6602 575.012 67.6602ZM587.221 64.0986C587.057 62.417 585.86 61.3096 583.864 61.3096C581.506 61.3096 580.18 62.7383 580.18 65.2197C580.18 67.7285 581.513 69.1572 583.864 69.1572C585.826 69.1572 587.057 68.0771 587.221 66.4229H585.361C585.211 67.1748 584.678 67.5781 583.864 67.5781C582.798 67.5781 582.189 66.7373 582.189 65.2197C582.189 63.7227 582.791 62.8955 583.864 62.8955C584.712 62.8955 585.225 63.374 585.361 64.0986H587.221ZM595.451 64.0986C595.287 62.417 594.091 61.3096 592.095 61.3096C589.736 61.3096 588.41 62.7383 588.41 65.2197C588.41 67.7285 589.743 69.1572 592.095 69.1572C594.057 69.1572 595.287 68.0771 595.451 66.4229H593.592C593.441 67.1748 592.908 67.5781 592.095 67.5781C591.028 67.5781 590.42 66.7373 590.42 65.2197C590.42 63.7227 591.021 62.8955 592.095 62.8955C592.942 62.8955 593.455 63.374 593.592 64.0986H595.451ZM600.353 69.1572C602.67 69.1572 604.064 67.6943 604.064 65.2334C604.064 62.793 602.649 61.3096 600.353 61.3096C598.056 61.3096 596.641 62.7998 596.641 65.2334C596.641 67.6875 598.035 69.1572 600.353 69.1572ZM600.353 67.585C599.286 67.585 598.685 66.7236 598.685 65.2334C598.685 63.7568 599.293 62.8887 600.353 62.8887C601.405 62.8887 602.021 63.7568 602.021 65.2334C602.021 66.7236 601.412 67.585 600.353 67.585ZM612.514 61.4736H610.524V65.8213C610.524 66.8535 609.991 67.4893 609 67.4893C608.084 67.4893 607.612 66.9492 607.612 65.8828V61.4736H605.623V66.375C605.623 68.125 606.635 69.1572 608.262 69.1572C609.403 69.1572 610.107 68.665 610.463 67.79H610.586V69H612.514V61.4736ZM614.51 69H616.499V64.6455C616.499 63.627 617.066 62.9707 617.989 62.9707C618.933 62.9707 619.377 63.5244 619.377 64.584V69H621.366V64.1328C621.366 62.335 620.464 61.3096 618.789 61.3096C617.675 61.3096 616.909 61.8359 616.561 62.6836H616.438V61.4736H614.51V69ZM623.868 59.6758V61.542H622.692V63.0527H623.868V66.9697C623.868 68.4326 624.593 69.0273 626.425 69.0273C626.808 69.0273 627.177 68.9863 627.423 68.9385V67.4688C627.231 67.4893 627.095 67.5029 626.835 67.5029C626.158 67.5029 625.857 67.1885 625.857 66.5117V63.0527H627.423V61.542H625.857V59.6758H623.868ZM628.845 63.668C628.845 64.8232 629.556 65.5137 631.019 65.835L632.386 66.1426C633.049 66.293 633.336 66.5254 633.336 66.9082C633.336 67.4072 632.803 67.749 632.03 67.749C631.237 67.749 630.752 67.4414 630.602 66.9219H628.66C628.797 68.3438 630 69.1572 631.989 69.1572C633.965 69.1572 635.312 68.1865 635.312 66.6963C635.312 65.5752 634.655 64.96 633.192 64.6387L631.777 64.3311C631.08 64.1738 630.759 63.9346 630.759 63.5518C630.759 63.0596 631.285 62.7246 631.996 62.7246C632.734 62.7246 633.192 63.0322 633.295 63.5312H635.134C635.024 62.1094 633.896 61.3096 631.982 61.3096C630.103 61.3096 628.845 62.2598 628.845 63.668Z" fill="#3C4257"/>
<rect x="489" y="52" width="149" height="24" stroke="white" stroke-width="4"/>
<rect x="463" y="108" width="47" height="24" fill="#F7FAFC"/>
<path d="M466.218 115.136V125H470.101C473.054 125 474.729 123.195 474.729 120.003C474.729 116.906 473.033 115.136 470.101 115.136H466.218ZM468.282 116.838H469.772C471.563 116.838 472.623 118 472.623 120.037C472.623 122.149 471.598 123.298 469.772 123.298H468.282V116.838ZM476.492 125H478.481V120.789C478.481 119.729 479.227 119.08 480.313 119.08C480.635 119.08 481.1 119.135 481.257 119.189V117.439C481.086 117.385 480.751 117.351 480.478 117.351C479.521 117.351 478.741 117.918 478.543 118.67H478.42V117.474H476.492V125ZM483.602 116.318C484.217 116.318 484.723 115.826 484.723 115.211C484.723 114.589 484.217 114.097 483.602 114.097C482.986 114.097 482.474 114.589 482.474 115.211C482.474 115.826 482.986 116.318 483.602 116.318ZM482.604 125H484.593V117.474H482.604V125ZM493.425 117.474H491.326L489.781 123.134H489.658L488.1 117.474H485.96L488.578 125H490.82L493.425 117.474ZM499.331 122.874C499.119 123.387 498.579 123.674 497.793 123.674C496.754 123.674 496.098 122.956 496.07 121.808V121.705H501.245V121.11C501.245 118.731 499.933 117.31 497.711 117.31C495.469 117.31 494.088 118.827 494.088 121.274C494.088 123.708 495.441 125.157 497.738 125.157C499.584 125.157 500.89 124.275 501.184 122.874H499.331ZM497.718 118.793C498.647 118.793 499.249 119.436 499.29 120.468H496.077C496.146 119.456 496.795 118.793 497.718 118.793ZM502.879 125H504.868V120.789C504.868 119.729 505.613 119.08 506.7 119.08C507.021 119.08 507.486 119.135 507.644 119.189V117.439C507.473 117.385 507.138 117.351 506.864 117.351C505.907 117.351 505.128 117.918 504.93 118.67H504.807V117.474H502.879V125Z" fill="#3C4257"/>
<rect x="463" y="108" width="47" height="24" stroke="#F7FAFC" stroke-width="4"/>
<rect x="594" y="108" width="82" height="24" fill="#F7FAFC"/>
<path d="M599.542 121.391H601.23L603.069 125H605.407L603.329 121.083C604.464 120.639 605.12 119.545 605.12 118.28C605.12 116.332 603.787 115.136 601.62 115.136H597.478V125H599.542V121.391ZM599.542 116.749H601.333C602.358 116.749 603.001 117.351 603.001 118.308C603.001 119.285 602.393 119.853 601.354 119.853H599.542V116.749ZM611.628 122.874C611.416 123.387 610.876 123.674 610.09 123.674C609.051 123.674 608.395 122.956 608.367 121.808V121.705H613.542V121.11C613.542 118.731 612.229 117.31 610.008 117.31C607.766 117.31 606.385 118.827 606.385 121.274C606.385 123.708 607.738 125.157 610.035 125.157C611.881 125.157 613.187 124.275 613.48 122.874H611.628ZM610.015 118.793C610.944 118.793 611.546 119.436 611.587 120.468H608.374C608.442 119.456 609.092 118.793 610.015 118.793ZM615.005 119.668C615.005 120.823 615.716 121.514 617.179 121.835L618.546 122.143C619.209 122.293 619.496 122.525 619.496 122.908C619.496 123.407 618.963 123.749 618.19 123.749C617.397 123.749 616.912 123.441 616.762 122.922H614.82C614.957 124.344 616.16 125.157 618.149 125.157C620.125 125.157 621.472 124.187 621.472 122.696C621.472 121.575 620.815 120.96 619.353 120.639L617.938 120.331C617.24 120.174 616.919 119.935 616.919 119.552C616.919 119.06 617.445 118.725 618.156 118.725C618.895 118.725 619.353 119.032 619.455 119.531H621.294C621.185 118.109 620.057 117.31 618.143 117.31C616.263 117.31 615.005 118.26 615.005 119.668ZM623.632 115.676V117.542H622.456V119.053H623.632V122.97C623.632 124.433 624.356 125.027 626.188 125.027C626.571 125.027 626.94 124.986 627.187 124.938V123.469C626.995 123.489 626.858 123.503 626.599 123.503C625.922 123.503 625.621 123.188 625.621 122.512V119.053H627.187V117.542H625.621V115.676H623.632ZM630.912 125.116C631.89 125.116 632.71 124.699 633.1 124.002H633.223V125H635.15V119.859C635.15 118.253 634.022 117.31 632.026 117.31C630.133 117.31 628.854 118.178 628.725 119.559H630.557C630.721 119.087 631.199 118.834 631.917 118.834C632.737 118.834 633.188 119.21 633.188 119.859V120.481L631.363 120.591C629.49 120.7 628.444 121.493 628.444 122.854C628.444 124.228 629.463 125.116 630.912 125.116ZM631.568 123.66C630.878 123.66 630.393 123.312 630.393 122.73C630.393 122.177 630.81 121.855 631.664 121.801L633.188 121.698V122.259C633.188 123.052 632.491 123.66 631.568 123.66ZM643.928 117.474H641.938V121.821C641.938 122.854 641.405 123.489 640.414 123.489C639.498 123.489 639.026 122.949 639.026 121.883V117.474H637.037V122.375C637.037 124.125 638.049 125.157 639.676 125.157C640.817 125.157 641.521 124.665 641.877 123.79H642V125H643.928V117.474ZM645.924 125H647.913V120.789C647.913 119.729 648.658 119.08 649.745 119.08C650.066 119.08 650.531 119.135 650.688 119.189V117.439C650.518 117.385 650.183 117.351 649.909 117.351C648.952 117.351 648.173 117.918 647.975 118.67H647.852V117.474H645.924V125ZM653.949 125.116C654.927 125.116 655.747 124.699 656.137 124.002H656.26V125H658.188V119.859C658.188 118.253 657.06 117.31 655.063 117.31C653.17 117.31 651.892 118.178 651.762 119.559H653.594C653.758 119.087 654.236 118.834 654.954 118.834C655.774 118.834 656.226 119.21 656.226 119.859V120.481L654.4 120.591C652.527 120.7 651.481 121.493 651.481 122.854C651.481 124.228 652.5 125.116 653.949 125.116ZM654.605 123.66C653.915 123.66 653.43 123.312 653.43 122.73C653.43 122.177 653.847 121.855 654.701 121.801L656.226 121.698V122.259C656.226 123.052 655.528 123.66 654.605 123.66ZM660.143 125H662.132V120.646C662.132 119.627 662.699 118.971 663.622 118.971C664.565 118.971 665.01 119.524 665.01 120.584V125H666.999V120.133C666.999 118.335 666.097 117.31 664.422 117.31C663.308 117.31 662.542 117.836 662.193 118.684H662.07V117.474H660.143V125ZM669.501 115.676V117.542H668.325V119.053H669.501V122.97C669.501 124.433 670.226 125.027 672.058 125.027C672.44 125.027 672.81 124.986 673.056 124.938V123.469C672.864 123.489 672.728 123.503 672.468 123.503C671.791 123.503 671.49 123.188 671.49 122.512V119.053H673.056V117.542H671.49V115.676H669.501Z" fill="#3C4257"/>
<rect x="594" y="108" width="82" height="24" stroke="#F7FAFC" stroke-width="4"/>
<path d="M32 104C32 99.5817 35.5817 96 40 96H72C76.4183 96 80 99.5817 80 104V136C80 140.418 76.4183 144 72 144H40C35.5817 144 32 140.418 32 136V104Z" fill="white"/>
<path d="M56 150C72.5685 150 86 136.569 86 120C86 103.431 72.5685 90 56 90C39.4315 90 26 103.431 26 120C26 136.569 39.4315 150 56 150Z" fill="#7DABF8" stroke="white" stroke-width="12"/>
<path fill-rule="evenodd" clip-rule="evenodd" d="M66 115.5H46V114.562C46 113.7 46.5596 113 47.25 113H64.75C65.4404 113 66 113.7 66 114.562V115.5ZM66 118.625V126.75C66 127.44 65.4404 128 64.75 128H47.25C46.5596 128 46 127.44 46 126.75V118.625H66ZM51 123C50.3096 123 49.75 123.56 49.75 124.25C49.75 124.94 50.3096 125.5 51 125.5H52.25C52.9404 125.5 53.5 124.94 53.5 124.25C53.5 123.56 52.9404 123 52.25 123H51Z" fill="white"/>
<path d="M128 104C128 99.5817 131.582 96 136 96H376C380.418 96 384 99.5817 384 104V136C384 140.418 380.418 144 376 144H136C131.582 144 128 140.418 128 136V104Z" fill="white"/>
<path d="M223.158 124.85H223.861V123.836C225.244 123.73 226.393 122.963 226.393 121.551C226.393 120.32 225.549 119.699 224.043 119.336L223.861 119.295V116.629C224.652 116.729 225.215 117.191 225.291 117.982H226.311C226.27 116.688 225.215 115.832 223.861 115.709V114.695H223.158V115.715C221.77 115.838 220.779 116.67 220.779 117.93C220.779 119.084 221.564 119.734 223.023 120.086L223.158 120.121V122.916C222.145 122.805 221.693 122.248 221.588 121.516H220.568C220.609 122.881 221.764 123.707 223.158 123.83V124.85ZM221.799 117.859C221.799 117.291 222.268 116.752 223.158 116.635V119.125C222.15 118.879 221.799 118.434 221.799 117.859ZM223.896 120.297C225.057 120.578 225.373 120.988 225.373 121.633C225.373 122.307 224.951 122.84 223.861 122.922V120.291L223.896 120.297ZM230.354 124H231.408V115.545H230.359L228.109 117.162V118.275L230.26 116.717H230.354V124ZM236.775 124.199C238.674 124.199 239.764 122.594 239.764 119.787C239.764 116.986 238.656 115.346 236.775 115.346C234.883 115.346 233.775 116.98 233.775 119.77C233.775 122.582 234.871 124.199 236.775 124.199ZM236.775 123.279C235.527 123.279 234.836 122.031 234.836 119.77C234.836 117.537 235.539 116.271 236.775 116.271C238.012 116.271 238.703 117.525 238.703 119.77C238.703 122.037 238.023 123.279 236.775 123.279ZM244.334 124.199C246.232 124.199 247.322 122.594 247.322 119.787C247.322 116.986 246.215 115.346 244.334 115.346C242.441 115.346 241.334 116.98 241.334 119.77C241.334 122.582 242.43 124.199 244.334 124.199ZM244.334 123.279C243.086 123.279 242.395 122.031 242.395 119.77C242.395 117.537 243.098 116.271 244.334 116.271C245.57 116.271 246.262 117.525 246.262 119.77C246.262 122.037 245.582 123.279 244.334 123.279ZM255.977 124.199C257.775 124.199 259.111 123.197 259.393 121.645H258.32C258.051 122.623 257.154 123.227 255.977 123.227C254.348 123.227 253.328 121.896 253.328 119.775C253.328 117.654 254.348 116.318 255.971 116.318C257.137 116.318 258.039 117.004 258.32 118.094H259.393C259.141 116.465 257.752 115.346 255.971 115.346C253.674 115.346 252.244 117.045 252.244 119.775C252.244 122.5 253.68 124.199 255.977 124.199ZM261.092 124H262.1V120.262C262.1 119.195 262.721 118.48 263.852 118.48C264.807 118.48 265.311 119.037 265.311 120.156V124H266.318V119.91C266.318 118.428 265.475 117.572 264.139 117.572C263.172 117.572 262.51 117.982 262.193 118.68H262.1V115.176H261.092V124ZM269.916 124.111C270.76 124.111 271.451 123.742 271.861 123.068H271.955V124H272.916V119.676C272.916 118.363 272.055 117.572 270.514 117.572C269.166 117.572 268.17 118.24 268.035 119.254H269.055C269.195 118.756 269.723 118.469 270.479 118.469C271.422 118.469 271.908 118.896 271.908 119.676V120.25L270.086 120.361C268.615 120.449 267.783 121.1 267.783 122.23C267.783 123.385 268.691 124.111 269.916 124.111ZM270.104 123.227C269.371 123.227 268.826 122.852 268.826 122.207C268.826 121.574 269.248 121.24 270.209 121.176L271.908 121.064V121.645C271.908 122.547 271.141 123.227 270.104 123.227ZM274.779 124H275.787V120.086C275.787 119.195 276.484 118.551 277.445 118.551C277.645 118.551 278.008 118.586 278.09 118.609V117.602C277.961 117.584 277.75 117.572 277.586 117.572C276.748 117.572 276.021 118.006 275.834 118.621H275.74V117.684H274.779V124ZM281.775 126.426C283.498 126.426 284.588 125.523 284.588 124.111V117.684H283.627V118.686H283.533C283.17 118.006 282.391 117.572 281.506 117.572C279.883 117.572 278.857 118.855 278.857 120.748C278.857 122.641 279.871 123.906 281.506 123.906C282.373 123.906 283.088 123.514 283.486 122.816H283.58V124.059C283.58 124.99 282.906 125.547 281.775 125.547C280.867 125.547 280.305 125.213 280.193 124.697H279.127C279.279 125.74 280.252 126.426 281.775 126.426ZM281.729 123.016C280.557 123.016 279.9 122.125 279.9 120.748C279.9 119.371 280.557 118.48 281.729 118.48C282.895 118.48 283.604 119.371 283.604 120.748C283.604 122.125 282.9 123.016 281.729 123.016ZM290.67 122.365C290.406 122.922 289.855 123.221 289.041 123.221C287.969 123.221 287.271 122.43 287.219 121.182V121.135H291.76V120.748C291.76 118.785 290.723 117.572 289.018 117.572C287.283 117.572 286.17 118.861 286.17 120.848C286.17 122.846 287.266 124.111 289.018 124.111C290.4 124.111 291.385 123.443 291.678 122.365H290.67ZM289.006 118.463C290.008 118.463 290.676 119.201 290.699 120.32H287.219C287.295 119.201 287.998 118.463 289.006 118.463Z" fill="#3C4257"/>
<rect x="128.5" y="96.5" width="255" height="47" rx="7.5" stroke="#E3E8EE"/>
<path d="M128 184C128 179.582 131.582 176 136 176H376C380.418 176 384 179.582 384 184V248C384 252.418 380.418 256 376 256H136C131.582 256 128 252.418 128 248V184Z" fill="white"/>
<path d="M223.205 236.85H223.908V235.836C225.291 235.73 226.439 234.963 226.439 233.551C226.439 232.32 225.596 231.699 224.09 231.336L223.908 231.295V228.629C224.699 228.729 225.262 229.191 225.338 229.982H226.357C226.316 228.688 225.262 227.832 223.908 227.709V226.695H223.205V227.715C221.816 227.838 220.826 228.67 220.826 229.93C220.826 231.084 221.611 231.734 223.07 232.086L223.205 232.121V234.916C222.191 234.805 221.74 234.248 221.635 233.516H220.615C220.656 234.881 221.811 235.707 223.205 235.83V236.85ZM221.846 229.859C221.846 229.291 222.314 228.752 223.205 228.635V231.125C222.197 230.879 221.846 230.434 221.846 229.859ZM223.943 232.297C225.104 232.578 225.42 232.988 225.42 233.633C225.42 234.307 224.998 234.84 223.908 234.922V232.291L223.943 232.297ZM228.326 229.93H229.346C229.346 228.928 230.02 228.266 231.033 228.266C232.029 228.266 232.633 228.934 232.633 229.83C232.633 230.574 232.316 231.014 231.238 232.18L228.379 235.273V236H233.852V235.051H229.844V234.957L231.766 232.971C233.289 231.395 233.711 230.691 233.711 229.719C233.711 228.348 232.58 227.346 231.104 227.346C229.486 227.346 228.326 228.424 228.326 229.93ZM238.475 236.199C240.373 236.199 241.463 234.594 241.463 231.787C241.463 228.986 240.355 227.346 238.475 227.346C236.582 227.346 235.475 228.98 235.475 231.77C235.475 234.582 236.57 236.199 238.475 236.199ZM238.475 235.279C237.227 235.279 236.535 234.031 236.535 231.77C236.535 229.537 237.238 228.271 238.475 228.271C239.711 228.271 240.402 229.525 240.402 231.77C240.402 234.037 239.723 235.279 238.475 235.279ZM249.965 236V228.494H252.689V227.545H246.186V228.494H248.91V236H249.965ZM253.311 236H254.318V232.086C254.318 231.195 255.016 230.551 255.977 230.551C256.176 230.551 256.539 230.586 256.621 230.609V229.602C256.492 229.584 256.281 229.572 256.117 229.572C255.279 229.572 254.553 230.006 254.365 230.621H254.271V229.684H253.311V236ZM259.639 236.111C260.482 236.111 261.174 235.742 261.584 235.068H261.678V236H262.639V231.676C262.639 230.363 261.777 229.572 260.236 229.572C258.889 229.572 257.893 230.24 257.758 231.254H258.777C258.918 230.756 259.445 230.469 260.201 230.469C261.145 230.469 261.631 230.896 261.631 231.676V232.25L259.809 232.361C258.338 232.449 257.506 233.1 257.506 234.23C257.506 235.385 258.414 236.111 259.639 236.111ZM259.826 235.227C259.094 235.227 258.549 234.852 258.549 234.207C258.549 233.574 258.971 233.24 259.932 233.176L261.631 233.064V233.645C261.631 234.547 260.863 235.227 259.826 235.227ZM264.502 236H265.51V232.262C265.51 231.154 266.16 230.48 267.168 230.48C268.176 230.48 268.656 231.02 268.656 232.156V236H269.664V231.91C269.664 230.41 268.873 229.572 267.455 229.572C266.488 229.572 265.873 229.982 265.557 230.68H265.463V229.684H264.502V236ZM271.363 231.412C271.363 232.326 271.902 232.836 273.086 233.123L274.17 233.387C274.844 233.551 275.172 233.844 275.172 234.277C275.172 234.857 274.562 235.262 273.713 235.262C272.904 235.262 272.4 234.922 272.23 234.389H271.193C271.305 235.438 272.271 236.111 273.678 236.111C275.113 236.111 276.209 235.332 276.209 234.201C276.209 233.293 275.635 232.777 274.445 232.49L273.473 232.256C272.729 232.074 272.377 231.805 272.377 231.371C272.377 230.809 272.963 230.428 273.713 230.428C274.475 230.428 274.967 230.762 275.102 231.266H276.098C275.963 230.229 275.043 229.572 273.719 229.572C272.377 229.572 271.363 230.363 271.363 231.412ZM278.213 236H279.221V230.527H280.668V229.684H279.221V229.01C279.221 228.318 279.525 227.967 280.252 227.967C280.434 227.967 280.604 227.973 280.727 227.996V227.176C280.516 227.135 280.293 227.117 280.047 227.117C278.846 227.117 278.213 227.721 278.213 228.98V229.684H277.164V230.527H278.213V236ZM286.053 234.365C285.789 234.922 285.238 235.221 284.424 235.221C283.352 235.221 282.654 234.43 282.602 233.182V233.135H287.143V232.748C287.143 230.785 286.105 229.572 284.4 229.572C282.666 229.572 281.553 230.861 281.553 232.848C281.553 234.846 282.648 236.111 284.4 236.111C285.783 236.111 286.768 235.443 287.061 234.365H286.053ZM284.389 230.463C285.391 230.463 286.059 231.201 286.082 232.32H282.602C282.678 231.201 283.381 230.463 284.389 230.463ZM288.725 236H289.732V232.086C289.732 231.195 290.43 230.551 291.391 230.551C291.59 230.551 291.953 230.586 292.035 230.609V229.602C291.906 229.584 291.695 229.572 291.531 229.572C290.693 229.572 289.967 230.006 289.779 230.621H289.686V229.684H288.725V236Z" fill="#3C4257"/>
<path d="M128 216L384 216" stroke="#E3E8EE"/>
<path d="M223.498 204.85H224.201V203.836C225.584 203.73 226.732 202.963 226.732 201.551C226.732 200.32 225.889 199.699 224.383 199.336L224.201 199.295V196.629C224.992 196.729 225.555 197.191 225.631 197.982H226.65C226.609 196.688 225.555 195.832 224.201 195.709V194.695H223.498V195.715C222.109 195.838 221.119 196.67 221.119 197.93C221.119 199.084 221.904 199.734 223.363 200.086L223.498 200.121V202.916C222.484 202.805 222.033 202.248 221.928 201.516H220.908C220.949 202.881 222.104 203.707 223.498 203.83V204.85ZM222.139 197.859C222.139 197.291 222.607 196.752 223.498 196.635V199.125C222.49 198.879 222.139 198.434 222.139 197.859ZM224.236 200.297C225.396 200.578 225.713 200.988 225.713 201.633C225.713 202.307 225.291 202.84 224.201 202.922V200.291L224.236 200.297ZM229.023 204H230.131L233.893 196.523V195.545H228.297V196.488H232.82V196.57L229.023 204ZM238.182 204.199C240.08 204.199 241.17 202.594 241.17 199.787C241.17 196.986 240.062 195.346 238.182 195.346C236.289 195.346 235.182 196.98 235.182 199.77C235.182 202.582 236.277 204.199 238.182 204.199ZM238.182 203.279C236.934 203.279 236.242 202.031 236.242 199.77C236.242 197.537 236.945 196.271 238.182 196.271C239.418 196.271 240.109 197.525 240.109 199.77C240.109 202.037 239.43 203.279 238.182 203.279ZM249.672 204V196.494H252.396V195.545H245.893V196.494H248.617V204H249.672ZM253.018 204H254.025V200.086C254.025 199.195 254.723 198.551 255.684 198.551C255.883 198.551 256.246 198.586 256.328 198.609V197.602C256.199 197.584 255.988 197.572 255.824 197.572C254.986 197.572 254.26 198.006 254.072 198.621H253.979V197.684H253.018V204ZM259.346 204.111C260.189 204.111 260.881 203.742 261.291 203.068H261.385V204H262.346V199.676C262.346 198.363 261.484 197.572 259.943 197.572C258.596 197.572 257.6 198.24 257.465 199.254H258.484C258.625 198.756 259.152 198.469 259.908 198.469C260.852 198.469 261.338 198.896 261.338 199.676V200.25L259.516 200.361C258.045 200.449 257.213 201.1 257.213 202.23C257.213 203.385 258.121 204.111 259.346 204.111ZM259.533 203.227C258.801 203.227 258.256 202.852 258.256 202.207C258.256 201.574 258.678 201.24 259.639 201.176L261.338 201.064V201.645C261.338 202.547 260.57 203.227 259.533 203.227ZM264.209 204H265.217V200.262C265.217 199.154 265.867 198.48 266.875 198.48C267.883 198.48 268.363 199.02 268.363 200.156V204H269.371V199.91C269.371 198.41 268.58 197.572 267.162 197.572C266.195 197.572 265.58 197.982 265.264 198.68H265.17V197.684H264.209V204ZM271.07 199.412C271.07 200.326 271.609 200.836 272.793 201.123L273.877 201.387C274.551 201.551 274.879 201.844 274.879 202.277C274.879 202.857 274.27 203.262 273.42 203.262C272.611 203.262 272.107 202.922 271.938 202.389H270.9C271.012 203.438 271.979 204.111 273.385 204.111C274.82 204.111 275.916 203.332 275.916 202.201C275.916 201.293 275.342 200.777 274.152 200.49L273.18 200.256C272.436 200.074 272.084 199.805 272.084 199.371C272.084 198.809 272.67 198.428 273.42 198.428C274.182 198.428 274.674 198.762 274.809 199.266H275.805C275.67 198.229 274.75 197.572 273.426 197.572C272.084 197.572 271.07 198.363 271.07 199.412ZM277.92 204H278.928V198.527H280.375V197.684H278.928V197.01C278.928 196.318 279.232 195.967 279.959 195.967C280.141 195.967 280.311 195.973 280.434 195.996V195.176C280.223 195.135 280 195.117 279.754 195.117C278.553 195.117 277.92 195.721 277.92 196.98V197.684H276.871V198.527H277.92V204ZM285.76 202.365C285.496 202.922 284.945 203.221 284.131 203.221C283.059 203.221 282.361 202.43 282.309 201.182V201.135H286.85V200.748C286.85 198.785 285.812 197.572 284.107 197.572C282.373 197.572 281.26 198.861 281.26 200.848C281.26 202.846 282.355 204.111 284.107 204.111C285.49 204.111 286.475 203.443 286.768 202.365H285.76ZM284.096 198.463C285.098 198.463 285.766 199.201 285.789 200.32H282.309C282.385 199.201 283.088 198.463 284.096 198.463ZM288.432 204H289.439V200.086C289.439 199.195 290.137 198.551 291.098 198.551C291.297 198.551 291.66 198.586 291.742 198.609V197.602C291.613 197.584 291.402 197.572 291.238 197.572C290.4 197.572 289.674 198.006 289.486 198.621H289.393V197.684H288.432V204Z" fill="#3C4257"/>
<rect x="128.5" y="176.5" width="255" height="79" rx="7.5" stroke="#E3E8EE"/>
<path d="M432 196C432 191.582 435.582 188 440 188H532C536.418 188 540 191.582 540 196V228C540 232.418 536.418 236 532 236H440C435.582 236 432 232.418 432 228V196Z" fill="white"/>
<path d="M452.08 216.85H452.783V215.836C454.166 215.73 455.314 214.963 455.314 213.551C455.314 212.32 454.471 211.699 452.965 211.336L452.783 211.295V208.629C453.574 208.729 454.137 209.191 454.213 209.982H455.232C455.191 208.688 454.137 207.832 452.783 207.709V206.695H452.08V207.715C450.691 207.838 449.701 208.67 449.701 209.93C449.701 211.084 450.486 211.734 451.945 212.086L452.08 212.121V214.916C451.066 214.805 450.615 214.248 450.51 213.516H449.49C449.531 214.881 450.686 215.707 452.08 215.83V216.85ZM450.721 209.859C450.721 209.291 451.189 208.752 452.08 208.635V211.125C451.072 210.879 450.721 210.434 450.721 209.859ZM452.818 212.297C453.979 212.578 454.295 212.988 454.295 213.633C454.295 214.307 453.873 214.84 452.783 214.922V212.291L452.818 212.297ZM457.201 209.93H458.221C458.221 208.928 458.895 208.266 459.908 208.266C460.904 208.266 461.508 208.934 461.508 209.83C461.508 210.574 461.191 211.014 460.113 212.18L457.254 215.273V216H462.727V215.051H458.719V214.957L460.641 212.971C462.164 211.395 462.586 210.691 462.586 209.719C462.586 208.348 461.455 207.346 459.979 207.346C458.361 207.346 457.201 208.424 457.201 209.93ZM467.35 216.199C469.248 216.199 470.338 214.594 470.338 211.787C470.338 208.986 469.23 207.346 467.35 207.346C465.457 207.346 464.35 208.98 464.35 211.77C464.35 214.582 465.445 216.199 467.35 216.199ZM467.35 215.279C466.102 215.279 465.41 214.031 465.41 211.77C465.41 209.537 466.113 208.271 467.35 208.271C468.586 208.271 469.277 209.525 469.277 211.77C469.277 214.037 468.598 215.279 467.35 215.279ZM475.588 207.545V216H476.643V212.982H478.77C480.357 212.982 481.488 211.863 481.488 210.281C481.488 208.67 480.381 207.545 478.781 207.545H475.588ZM476.643 208.482H478.506C479.73 208.482 480.404 209.121 480.404 210.281C480.404 211.4 479.707 212.045 478.506 212.045H476.643V208.482ZM484.611 216.111C485.455 216.111 486.146 215.742 486.557 215.068H486.65V216H487.611V211.676C487.611 210.363 486.75 209.572 485.209 209.572C483.861 209.572 482.865 210.24 482.73 211.254H483.75C483.891 210.756 484.418 210.469 485.174 210.469C486.117 210.469 486.604 210.896 486.604 211.676V212.25L484.781 212.361C483.311 212.449 482.479 213.1 482.479 214.23C482.479 215.385 483.387 216.111 484.611 216.111ZM484.799 215.227C484.066 215.227 483.521 214.852 483.521 214.207C483.521 213.574 483.943 213.24 484.904 213.176L486.604 213.064V213.645C486.604 214.547 485.836 215.227 484.799 215.227ZM489.779 218.285C490.898 218.285 491.402 217.852 491.941 216.387L494.408 209.684H493.336L491.607 214.881H491.514L489.779 209.684H488.689L491.027 216.006L490.91 216.381C490.646 217.143 490.33 217.418 489.75 217.418C489.609 217.418 489.451 217.412 489.328 217.389V218.25C489.469 218.273 489.645 218.285 489.779 218.285ZM495.756 216H496.764V212.086C496.764 211.195 497.402 210.48 498.229 210.48C499.025 210.48 499.547 210.961 499.547 211.711V216H500.555V211.939C500.555 211.137 501.141 210.48 502.02 210.48C502.91 210.48 503.35 210.938 503.35 211.869V216H504.357V211.635C504.357 210.311 503.637 209.572 502.348 209.572C501.475 209.572 500.754 210.012 500.414 210.68H500.32C500.027 210.023 499.43 209.572 498.574 209.572C497.73 209.572 497.098 209.977 496.811 210.68H496.717V209.684H495.756V216ZM510.381 214.365C510.117 214.922 509.566 215.221 508.752 215.221C507.68 215.221 506.982 214.43 506.93 213.182V213.135H511.471V212.748C511.471 210.785 510.434 209.572 508.729 209.572C506.994 209.572 505.881 210.861 505.881 212.848C505.881 214.846 506.977 216.111 508.729 216.111C510.111 216.111 511.096 215.443 511.389 214.365H510.381ZM508.717 210.463C509.719 210.463 510.387 211.201 510.41 212.32H506.93C507.006 211.201 507.709 210.463 508.717 210.463ZM513.053 216H514.061V212.262C514.061 211.154 514.711 210.48 515.719 210.48C516.727 210.48 517.207 211.02 517.207 212.156V216H518.215V211.91C518.215 210.41 517.424 209.572 516.006 209.572C515.039 209.572 514.424 209.982 514.107 210.68H514.014V209.684H513.053V216ZM520.482 208.049V209.684H519.463V210.527H520.482V214.359C520.482 215.566 521.004 216.047 522.305 216.047C522.504 216.047 522.697 216.023 522.896 215.988V215.139C522.709 215.156 522.609 215.162 522.428 215.162C521.771 215.162 521.49 214.846 521.49 214.102V210.527H522.896V209.684H521.49V208.049H520.482Z" fill="#3C4257"/>
<rect x="432.5" y="188.5" width="107" height="47" rx="7.5" stroke="#E3E8EE"/>
<path d="M581 196C581 191.582 584.582 188 589 188H680C684.418 188 688 191.582 688 196V228C688 232.418 684.418 236 680 236H589C584.582 236 581 232.418 581 228V196Z" fill="white"/>
<path d="M600.873 216.85H601.576V215.836C602.959 215.73 604.107 214.963 604.107 213.551C604.107 212.32 603.264 211.699 601.758 211.336L601.576 211.295V208.629C602.367 208.729 602.93 209.191 603.006 209.982H604.025C603.984 208.688 602.93 207.832 601.576 207.709V206.695H600.873V207.715C599.484 207.838 598.494 208.67 598.494 209.93C598.494 211.084 599.279 211.734 600.738 212.086L600.873 212.121V214.916C599.859 214.805 599.408 214.248 599.303 213.516H598.283C598.324 214.881 599.479 215.707 600.873 215.83V216.85ZM599.514 209.859C599.514 209.291 599.982 208.752 600.873 208.635V211.125C599.865 210.879 599.514 210.434 599.514 209.859ZM601.611 212.297C602.771 212.578 603.088 212.988 603.088 213.633C603.088 214.307 602.666 214.84 601.576 214.922V212.291L601.611 212.297ZM606.398 216H607.506L611.268 208.523V207.545H605.672V208.488H610.195V208.57L606.398 216ZM615.557 216.199C617.455 216.199 618.545 214.594 618.545 211.787C618.545 208.986 617.438 207.346 615.557 207.346C613.664 207.346 612.557 208.98 612.557 211.77C612.557 214.582 613.652 216.199 615.557 216.199ZM615.557 215.279C614.309 215.279 613.617 214.031 613.617 211.77C613.617 209.537 614.32 208.271 615.557 208.271C616.793 208.271 617.484 209.525 617.484 211.77C617.484 214.037 616.805 215.279 615.557 215.279ZM623.795 207.545V216H624.85V212.982H626.977C628.564 212.982 629.695 211.863 629.695 210.281C629.695 208.67 628.588 207.545 626.988 207.545H623.795ZM624.85 208.482H626.713C627.938 208.482 628.611 209.121 628.611 210.281C628.611 211.4 627.914 212.045 626.713 212.045H624.85V208.482ZM632.818 216.111C633.662 216.111 634.354 215.742 634.764 215.068H634.857V216H635.818V211.676C635.818 210.363 634.957 209.572 633.416 209.572C632.068 209.572 631.072 210.24 630.938 211.254H631.957C632.098 210.756 632.625 210.469 633.381 210.469C634.324 210.469 634.811 210.896 634.811 211.676V212.25L632.988 212.361C631.518 212.449 630.686 213.1 630.686 214.23C630.686 215.385 631.594 216.111 632.818 216.111ZM633.006 215.227C632.273 215.227 631.729 214.852 631.729 214.207C631.729 213.574 632.15 213.24 633.111 213.176L634.811 213.064V213.645C634.811 214.547 634.043 215.227 633.006 215.227ZM637.986 218.285C639.105 218.285 639.609 217.852 640.148 216.387L642.615 209.684H641.543L639.814 214.881H639.721L637.986 209.684H636.896L639.234 216.006L639.117 216.381C638.854 217.143 638.537 217.418 637.957 217.418C637.816 217.418 637.658 217.412 637.535 217.389V218.25C637.676 218.273 637.852 218.285 637.986 218.285ZM643.963 216H644.971V212.086C644.971 211.195 645.609 210.48 646.436 210.48C647.232 210.48 647.754 210.961 647.754 211.711V216H648.762V211.939C648.762 211.137 649.348 210.48 650.227 210.48C651.117 210.48 651.557 210.938 651.557 211.869V216H652.564V211.635C652.564 210.311 651.844 209.572 650.555 209.572C649.682 209.572 648.961 210.012 648.621 210.68H648.527C648.234 210.023 647.637 209.572 646.781 209.572C645.938 209.572 645.305 209.977 645.018 210.68H644.924V209.684H643.963V216ZM658.588 214.365C658.324 214.922 657.773 215.221 656.959 215.221C655.887 215.221 655.189 214.43 655.137 213.182V213.135H659.678V212.748C659.678 210.785 658.641 209.572 656.936 209.572C655.201 209.572 654.088 210.861 654.088 212.848C654.088 214.846 655.184 216.111 656.936 216.111C658.318 216.111 659.303 215.443 659.596 214.365H658.588ZM656.924 210.463C657.926 210.463 658.594 211.201 658.617 212.32H655.137C655.213 211.201 655.916 210.463 656.924 210.463ZM661.26 216H662.268V212.262C662.268 211.154 662.918 210.48 663.926 210.48C664.934 210.48 665.414 211.02 665.414 212.156V216H666.422V211.91C666.422 210.41 665.631 209.572 664.213 209.572C663.246 209.572 662.631 209.982 662.314 210.68H662.221V209.684H661.26V216ZM668.689 208.049V209.684H667.67V210.527H668.689V214.359C668.689 215.566 669.211 216.047 670.512 216.047C670.711 216.047 670.904 216.023 671.104 215.988V215.139C670.916 215.156 670.816 215.162 670.635 215.162C669.979 215.162 669.697 214.846 669.697 214.102V210.527H671.104V209.684H669.697V208.049H668.689Z" fill="#3C4257"/>
<rect x="581.5" y="188.5" width="106" height="47" rx="7.5" stroke="#E3E8EE"/>
<path d="M128 296C128 291.582 131.582 288 136 288H376C380.418 288 384 291.582 384 296V328C384 332.418 380.418 336 376 336H136C131.582 336 128 332.418 128 328V296Z" fill="white"/>
<path d="M204.045 312.484C204.045 314.6 204.584 316.311 205.709 317.799H206.564C205.727 316.732 205.082 314.477 205.082 312.484C205.082 310.504 205.732 308.242 206.564 307.176H205.709C204.584 308.664 204.045 310.375 204.045 312.484ZM210.76 316.85H211.463V315.836C212.846 315.73 213.994 314.963 213.994 313.551C213.994 312.32 213.15 311.699 211.645 311.336L211.463 311.295V308.629C212.254 308.729 212.816 309.191 212.893 309.982H213.912C213.871 308.688 212.816 307.832 211.463 307.709V306.695H210.76V307.715C209.371 307.838 208.381 308.67 208.381 309.93C208.381 311.084 209.166 311.734 210.625 312.086L210.76 312.121V314.916C209.746 314.805 209.295 314.248 209.189 313.516H208.17C208.211 314.881 209.365 315.707 210.76 315.83V316.85ZM209.4 309.859C209.4 309.291 209.869 308.752 210.76 308.635V311.125C209.752 310.879 209.4 310.434 209.4 309.859ZM211.498 312.297C212.658 312.578 212.975 312.988 212.975 313.633C212.975 314.307 212.553 314.84 211.463 314.922V312.291L211.498 312.297ZM217.709 312.104H218.758C219.947 312.104 220.68 312.713 220.68 313.691C220.68 314.641 219.889 315.279 218.775 315.279C217.686 315.279 216.924 314.711 216.83 313.82H215.811C215.887 315.256 217.07 316.199 218.787 316.199C220.469 316.199 221.764 315.139 221.764 313.721C221.764 312.543 221.037 311.799 219.941 311.623V311.529C220.809 311.277 221.441 310.604 221.447 309.584C221.453 308.4 220.492 307.346 218.822 307.346C217.111 307.346 216.062 308.359 215.957 309.736H216.982C217.07 308.787 217.732 308.266 218.752 308.266C219.771 308.266 220.375 308.91 220.375 309.701C220.375 310.58 219.684 311.201 218.711 311.201H217.709V312.104ZM223.885 316.059C224.307 316.059 224.646 315.713 224.646 315.297C224.646 314.875 224.307 314.535 223.885 314.535C223.469 314.535 223.123 314.875 223.123 315.297C223.123 315.713 223.469 316.059 223.885 316.059ZM226.322 309.93H227.342C227.342 308.928 228.016 308.266 229.029 308.266C230.025 308.266 230.629 308.934 230.629 309.83C230.629 310.574 230.312 311.014 229.234 312.18L226.375 315.273V316H231.848V315.051H227.84V314.957L229.762 312.971C231.285 311.395 231.707 310.691 231.707 309.719C231.707 308.348 230.576 307.346 229.1 307.346C227.482 307.346 226.322 308.424 226.322 309.93ZM236.471 316.199C238.369 316.199 239.459 314.594 239.459 311.787C239.459 308.986 238.352 307.346 236.471 307.346C234.578 307.346 233.471 308.98 233.471 311.77C233.471 314.582 234.566 316.199 236.471 316.199ZM236.471 315.279C235.223 315.279 234.531 314.031 234.531 311.77C234.531 309.537 235.234 308.271 236.471 308.271C237.707 308.271 238.398 309.525 238.398 311.77C238.398 314.037 237.719 315.279 236.471 315.279ZM243.408 312.49C243.408 310.375 242.869 308.664 241.744 307.176H240.889C241.727 308.242 242.371 310.498 242.371 312.49C242.371 314.471 241.721 316.732 240.889 317.799H241.744C242.869 316.311 243.408 314.6 243.408 312.49ZM248.887 313.791C248.998 315.25 250.234 316.199 252.027 316.199C253.961 316.199 255.186 315.209 255.186 313.656C255.186 312.414 254.482 311.734 252.73 311.295L251.846 311.061C250.68 310.762 250.217 310.381 250.217 309.719C250.217 308.863 250.961 308.301 252.086 308.301C253.141 308.301 253.855 308.816 254.002 309.684H255.062C254.975 308.318 253.756 307.346 252.121 307.346C250.334 307.346 249.133 308.318 249.133 309.754C249.133 310.955 249.795 311.646 251.324 312.033L252.408 312.314C253.574 312.607 254.102 313.064 254.102 313.785C254.102 314.623 253.264 315.238 252.127 315.238C250.926 315.238 250.082 314.676 249.953 313.791H248.887ZM257.236 308.049V309.684H256.217V310.527H257.236V314.359C257.236 315.566 257.758 316.047 259.059 316.047C259.258 316.047 259.451 316.023 259.65 315.988V315.139C259.463 315.156 259.363 315.162 259.182 315.162C258.525 315.162 258.244 314.846 258.244 314.102V310.527H259.65V309.684H258.244V308.049H257.236ZM261.174 316H262.182V312.086C262.182 311.195 262.879 310.551 263.84 310.551C264.039 310.551 264.402 310.586 264.484 310.609V309.602C264.355 309.584 264.145 309.572 263.98 309.572C263.143 309.572 262.416 310.006 262.229 310.621H262.135V309.684H261.174V316ZM266.271 308.465C266.658 308.465 266.975 308.148 266.975 307.762C266.975 307.375 266.658 307.059 266.271 307.059C265.885 307.059 265.568 307.375 265.568 307.762C265.568 308.148 265.885 308.465 266.271 308.465ZM265.768 316H266.775V309.684H265.768V316ZM271.773 309.572C270.912 309.572 270.156 310.012 269.752 310.738H269.658V309.684H268.697V318.109H269.705V315.051H269.799C270.145 315.719 270.871 316.111 271.773 316.111C273.379 316.111 274.428 314.816 274.428 312.842C274.428 310.855 273.385 309.572 271.773 309.572ZM271.533 315.203C270.396 315.203 269.676 314.289 269.676 312.842C269.676 311.389 270.396 310.48 271.539 310.48C272.693 310.48 273.385 311.365 273.385 312.842C273.385 314.318 272.693 315.203 271.533 315.203ZM280.193 314.365C279.93 314.922 279.379 315.221 278.564 315.221C277.492 315.221 276.795 314.43 276.742 313.182V313.135H281.283V312.748C281.283 310.785 280.246 309.572 278.541 309.572C276.807 309.572 275.693 310.861 275.693 312.848C275.693 314.846 276.789 316.111 278.541 316.111C279.924 316.111 280.908 315.443 281.201 314.365H280.193ZM278.529 310.463C279.531 310.463 280.199 311.201 280.223 312.32H276.742C276.818 311.201 277.521 310.463 278.529 310.463ZM286.674 316H287.682V310.527H289.129V309.684H287.682V309.01C287.682 308.318 287.986 307.967 288.713 307.967C288.895 307.967 289.064 307.973 289.188 307.996V307.176C288.977 307.135 288.754 307.117 288.508 307.117C287.307 307.117 286.674 307.721 286.674 308.98V309.684H285.625V310.527H286.674V316ZM294.514 314.365C294.25 314.922 293.699 315.221 292.885 315.221C291.812 315.221 291.115 314.43 291.062 313.182V313.135H295.604V312.748C295.604 310.785 294.566 309.572 292.861 309.572C291.127 309.572 290.014 310.861 290.014 312.848C290.014 314.846 291.109 316.111 292.861 316.111C294.244 316.111 295.229 315.443 295.521 314.365H294.514ZM292.85 310.463C293.852 310.463 294.52 311.201 294.543 312.32H291.062C291.139 311.201 291.842 310.463 292.85 310.463ZM301.369 314.365C301.105 314.922 300.555 315.221 299.74 315.221C298.668 315.221 297.971 314.43 297.918 313.182V313.135H302.459V312.748C302.459 310.785 301.422 309.572 299.717 309.572C297.982 309.572 296.869 310.861 296.869 312.848C296.869 314.846 297.965 316.111 299.717 316.111C301.1 316.111 302.084 315.443 302.377 314.365H301.369ZM299.705 310.463C300.707 310.463 301.375 311.201 301.398 312.32H297.918C297.994 311.201 298.697 310.463 299.705 310.463ZM303.895 311.412C303.895 312.326 304.434 312.836 305.617 313.123L306.701 313.387C307.375 313.551 307.703 313.844 307.703 314.277C307.703 314.857 307.094 315.262 306.244 315.262C305.436 315.262 304.932 314.922 304.762 314.389H303.725C303.836 315.438 304.803 316.111 306.209 316.111C307.645 316.111 308.74 315.332 308.74 314.201C308.74 313.293 308.166 312.777 306.977 312.49L306.004 312.256C305.26 312.074 304.908 311.805 304.908 311.371C304.908 310.809 305.494 310.428 306.244 310.428C307.006 310.428 307.498 310.762 307.633 311.266H308.629C308.494 310.229 307.574 309.572 306.25 309.572C304.908 309.572 303.895 310.363 303.895 311.412Z" fill="#3C4257"/>
<rect x="128.5" y="288.5" width="255" height="47" rx="7.5" stroke="#E3E8EE"/>
<path d="M128 376C128 371.582 131.582 368 136 368H376C380.418 368 384 371.582 384 376V408C384 412.418 380.418 416 376 416H136C131.582 416 128 412.418 128 408V376Z" fill="white"/>
<path d="M232.047 396.85H232.75V395.836C234.133 395.73 235.281 394.963 235.281 393.551C235.281 392.32 234.438 391.699 232.932 391.336L232.75 391.295V388.629C233.541 388.729 234.104 389.191 234.18 389.982H235.199C235.158 388.688 234.104 387.832 232.75 387.709V386.695H232.047V387.715C230.658 387.838 229.668 388.67 229.668 389.93C229.668 391.084 230.453 391.734 231.912 392.086L232.047 392.121V394.916C231.033 394.805 230.582 394.248 230.477 393.516H229.457C229.498 394.881 230.652 395.707 232.047 395.83V396.85ZM230.688 389.859C230.688 389.291 231.156 388.752 232.047 388.635V391.125C231.039 390.879 230.688 390.434 230.688 389.859ZM232.785 392.297C233.945 392.578 234.262 392.988 234.262 393.633C234.262 394.307 233.84 394.84 232.75 394.922V392.291L232.785 392.297ZM240.209 396.193C241.943 396.193 243.174 394.98 243.174 393.281C243.174 391.641 242.008 390.451 240.396 390.451C239.389 390.451 238.562 390.932 238.146 391.752H238.053C238.088 389.455 238.908 388.283 240.314 388.283C241.17 388.283 241.791 388.723 241.967 389.508H243.051C242.834 388.195 241.82 387.346 240.279 387.346C238.281 387.346 237.027 389.01 237.027 391.916C237.027 394.764 238.369 396.193 240.209 396.193ZM240.197 395.268C239.113 395.268 238.287 394.412 238.287 393.281C238.287 392.162 239.09 391.365 240.209 391.365C241.328 391.365 242.107 392.162 242.107 393.316C242.107 394.424 241.281 395.268 240.197 395.268ZM245.301 396.059C245.723 396.059 246.062 395.713 246.062 395.297C246.062 394.875 245.723 394.535 245.301 394.535C244.885 394.535 244.539 394.875 244.539 395.297C244.539 395.713 244.885 396.059 245.301 396.059ZM250.504 396.199C252.297 396.199 253.551 395.186 253.551 393.738C253.551 392.637 252.854 391.781 251.793 391.582V391.488C252.666 391.248 253.205 390.527 253.205 389.602C253.205 388.283 252.086 387.346 250.504 387.346C248.922 387.346 247.803 388.283 247.803 389.602C247.803 390.521 248.354 391.254 249.215 391.488V391.582C248.154 391.781 247.457 392.637 247.457 393.738C247.457 395.186 248.711 396.199 250.504 396.199ZM250.504 391.137C249.508 391.137 248.84 390.562 248.84 389.701C248.84 388.828 249.502 388.248 250.504 388.248C251.506 388.248 252.168 388.828 252.168 389.701C252.168 390.562 251.5 391.137 250.504 391.137ZM250.504 395.297C249.332 395.297 248.523 394.629 248.523 393.662C248.523 392.695 249.332 392.027 250.504 392.027C251.676 392.027 252.484 392.695 252.484 393.662C252.484 394.629 251.676 395.297 250.504 395.297ZM258.121 396.199C260.02 396.199 261.109 394.594 261.109 391.787C261.109 388.986 260.002 387.346 258.121 387.346C256.229 387.346 255.121 388.98 255.121 391.77C255.121 394.582 256.217 396.199 258.121 396.199ZM258.121 395.279C256.873 395.279 256.182 394.031 256.182 391.77C256.182 389.537 256.885 388.271 258.121 388.271C259.357 388.271 260.049 389.525 260.049 391.77C260.049 394.037 259.369 395.279 258.121 395.279ZM266.23 396H267.238V392.262C267.238 391.154 267.889 390.48 268.896 390.48C269.904 390.48 270.385 391.02 270.385 392.156V396H271.393V391.91C271.393 390.41 270.602 389.572 269.184 389.572C268.217 389.572 267.602 389.982 267.285 390.68H267.191V389.684H266.23V396ZM277.422 394.365C277.158 394.922 276.607 395.221 275.793 395.221C274.721 395.221 274.023 394.43 273.971 393.182V393.135H278.512V392.748C278.512 390.785 277.475 389.572 275.77 389.572C274.035 389.572 272.922 390.861 272.922 392.848C272.922 394.846 274.018 396.111 275.77 396.111C277.152 396.111 278.137 395.443 278.43 394.365H277.422ZM275.758 390.463C276.76 390.463 277.428 391.201 277.451 392.32H273.971C274.047 391.201 274.75 390.463 275.758 390.463ZM280.516 388.049V389.684H279.496V390.527H280.516V394.359C280.516 395.566 281.037 396.047 282.338 396.047C282.537 396.047 282.73 396.023 282.93 395.988V395.139C282.742 395.156 282.643 395.162 282.461 395.162C281.805 395.162 281.523 394.846 281.523 394.102V390.527H282.93V389.684H281.523V388.049H280.516Z" fill="#3C4257"/>
<rect x="128.5" y="368.5" width="255" height="47" rx="7.5" stroke="#E3E8EE"/>
<path d="M88.5 119.25C88.0858 119.25 87.75 119.586 87.75 120C87.75 120.414 88.0858 120.75 88.5 120.75V119.25ZM120.03 120.53C120.323 120.237 120.323 119.763 120.03 119.47L115.257 114.697C114.964 114.404 114.49 114.404 114.197 114.697C113.904 114.99 113.904 115.464 114.197 115.757L118.439 120L114.197 124.243C113.904 124.536 113.904 125.01 114.197 125.303C114.49 125.596 114.964 125.596 115.257 125.303L120.03 120.53ZM88.5 120.75L119.5 120.75V119.25L88.5 119.25V120.75Z" fill="#8792A2"/>
<path d="M256.75 152.5C256.75 152.086 256.414 151.75 256 151.75C255.586 151.75 255.25 152.086 255.25 152.5L256.75 152.5ZM255.47 168.03C255.763 168.323 256.237 168.323 256.53 168.03L261.303 163.257C261.596 162.964 261.596 162.49 261.303 162.197C261.01 161.904 260.536 161.904 260.243 162.197L256 166.439L251.757 162.197C251.464 161.904 250.99 161.904 250.697 162.197C250.404 162.49 250.404 162.964 250.697 163.257L255.47 168.03ZM255.25 152.5L255.25 167.5L256.75 167.5L256.75 152.5L255.25 152.5Z" fill="#8792A2"/>
<path d="M256.75 264.5C256.75 264.086 256.414 263.75 256 263.75C255.586 263.75 255.25 264.086 255.25 264.5L256.75 264.5ZM255.47 280.03C255.763 280.323 256.237 280.323 256.53 280.03L261.303 275.257C261.596 274.964 261.596 274.49 261.303 274.197C261.01 273.904 260.536 273.904 260.243 274.197L256 278.439L251.757 274.197C251.464 273.904 250.99 273.904 250.697 274.197C250.404 274.49 250.404 274.964 250.697 275.257L255.47 280.03ZM255.25 264.5L255.25 279.5L256.75 279.5L256.75 264.5L255.25 264.5Z" fill="#8792A2"/>
<path d="M256.75 344.5C256.75 344.086 256.414 343.75 256 343.75C255.586 343.75 255.25 344.086 255.25 344.5L256.75 344.5ZM255.47 360.03C255.763 360.323 256.237 360.323 256.53 360.03L261.303 355.257C261.596 354.964 261.596 354.49 261.303 354.197C261.01 353.904 260.536 353.904 260.243 354.197L256 358.439L251.757 354.197C251.464 353.904 250.99 353.904 250.697 354.197C250.404 354.49 250.404 354.964 250.697 355.257L255.47 360.03ZM255.25 344.5L255.25 359.5L256.75 359.5L256.75 344.5L255.25 344.5Z" fill="#8792A2"/>
<path d="M367.25 183.5C367.25 183.914 367.586 184.25 368 184.25C368.414 184.25 368.75 183.914 368.75 183.5H367.25ZM644.47 184.03C644.763 184.323 645.237 184.323 645.53 184.03L650.303 179.257C650.596 178.964 650.596 178.49 650.303 178.197C650.01 177.904 649.536 177.904 649.243 178.197L645 182.439L640.757 178.197C640.464 177.904 639.99 177.904 639.697 178.197C639.404 178.49 639.404 178.964 639.697 179.257L644.47 184.03ZM644.25 164V183.5H645.75V164H644.25ZM368.75 183.5V164H367.25V183.5H368.75ZM372 160.75H641V159.25H372V160.75ZM368.75 164C368.75 162.205 370.205 160.75 372 160.75V159.25C369.377 159.25 367.25 161.377 367.25 164H368.75ZM645.75 164C645.75 161.377 643.623 159.25 641 159.25V160.75C642.795 160.75 644.25 162.205 644.25 164H645.75Z" fill="#8792A2"/>
<path d="M367.25 240.5C367.25 240.086 367.586 239.75 368 239.75C368.414 239.75 368.75 240.086 368.75 240.5H367.25ZM495.47 239.97C495.763 239.677 496.237 239.677 496.53 239.97L501.303 244.743C501.596 245.036 501.596 245.51 501.303 245.803C501.01 246.096 500.536 246.096 500.243 245.803L496 241.561L491.757 245.803C491.464 246.096 490.99 246.096 490.697 245.803C490.404 245.51 490.404 245.036 490.697 244.743L495.47 239.97ZM495.25 260V240.5H496.75V260H495.25ZM368.75 240.5V260H367.25V240.5H368.75ZM372 263.25L492 263.25V264.75L372 264.75V263.25ZM368.75 260C368.75 261.795 370.205 263.25 372 263.25V264.75C369.377 264.75 367.25 262.623 367.25 260H368.75ZM496.75 260C496.75 262.623 494.623 264.75 492 264.75V263.25C493.795 263.25 495.25 261.795 495.25 260H496.75Z" fill="#8792A2"/>
<defs>
<clipPath id="clip0">
<path d="M0 0H736V464H0V0Z" fill="white"/>
</clipPath>
</defs>
</svg>
