<svg width="736" height="352" viewBox="0 0 736 352" fill="none" xmlns="http://www.w3.org/2000/svg">
<g clip-path="url(#clip0)">
<path d="M0 0H736V352H0V0Z" fill="white"/>
<path d="M0 0L736 -6.43432e-05" stroke="#E3E8EE" stroke-width="2" stroke-linecap="round" stroke-linejoin="round" stroke-dasharray="0.01 16"/>
<path d="M0 16L736 15.9999" stroke="#E3E8EE" stroke-width="2" stroke-linecap="round" stroke-linejoin="round" stroke-dasharray="0.01 16"/>
<path d="M0 32L736 31.9999" stroke="#E3E8EE" stroke-width="2" stroke-linecap="round" stroke-linejoin="round" stroke-dasharray="0.01 16"/>
<path d="M0 48L736 47.9999" stroke="#E3E8EE" stroke-width="2" stroke-linecap="round" stroke-linejoin="round" stroke-dasharray="0.01 16"/>
<path d="M0 64L736 63.9999" stroke="#E3E8EE" stroke-width="2" stroke-linecap="round" stroke-linejoin="round" stroke-dasharray="0.01 16"/>
<path d="M0 80L736 79.9999" stroke="#E3E8EE" stroke-width="2" stroke-linecap="round" stroke-linejoin="round" stroke-dasharray="0.01 16"/>
<path d="M0 96L736 95.9999" stroke="#E3E8EE" stroke-width="2" stroke-linecap="round" stroke-linejoin="round" stroke-dasharray="0.01 16"/>
<path d="M0 112L736 112" stroke="#E3E8EE" stroke-width="2" stroke-linecap="round" stroke-linejoin="round" stroke-dasharray="0.01 16"/>
<path d="M0 128L736 128" stroke="#E3E8EE" stroke-width="2" stroke-linecap="round" stroke-linejoin="round" stroke-dasharray="0.01 16"/>
<path d="M0 144L736 144" stroke="#E3E8EE" stroke-width="2" stroke-linecap="round" stroke-linejoin="round" stroke-dasharray="0.01 16"/>
<path d="M0 160L736 160" stroke="#E3E8EE" stroke-width="2" stroke-linecap="round" stroke-linejoin="round" stroke-dasharray="0.01 16"/>
<path d="M0 176L736 176" stroke="#E3E8EE" stroke-width="2" stroke-linecap="round" stroke-linejoin="round" stroke-dasharray="0.01 16"/>
<path d="M0 192L736 192" stroke="#E3E8EE" stroke-width="2" stroke-linecap="round" stroke-linejoin="round" stroke-dasharray="0.01 16"/>
<path d="M0 208L736 208" stroke="#E3E8EE" stroke-width="2" stroke-linecap="round" stroke-linejoin="round" stroke-dasharray="0.01 16"/>
<path d="M0 224L736 224" stroke="#E3E8EE" stroke-width="2" stroke-linecap="round" stroke-linejoin="round" stroke-dasharray="0.01 16"/>
<path d="M0 240L736 240" stroke="#E3E8EE" stroke-width="2" stroke-linecap="round" stroke-linejoin="round" stroke-dasharray="0.01 16"/>
<path d="M0 256L736 256" stroke="#E3E8EE" stroke-width="2" stroke-linecap="round" stroke-linejoin="round" stroke-dasharray="0.01 16"/>
<path d="M0 272L736 272" stroke="#E3E8EE" stroke-width="2" stroke-linecap="round" stroke-linejoin="round" stroke-dasharray="0.01 16"/>
<path d="M0 288L736 288" stroke="#E3E8EE" stroke-width="2" stroke-linecap="round" stroke-linejoin="round" stroke-dasharray="0.01 16"/>
<path d="M0 304L736 304" stroke="#E3E8EE" stroke-width="2" stroke-linecap="round" stroke-linejoin="round" stroke-dasharray="0.01 16"/>
<path d="M0 320L736 320" stroke="#E3E8EE" stroke-width="2" stroke-linecap="round" stroke-linejoin="round" stroke-dasharray="0.01 16"/>
<path d="M0 336L736 336" stroke="#E3E8EE" stroke-width="2" stroke-linecap="round" stroke-linejoin="round" stroke-dasharray="0.01 16"/>
<path d="M0 352L736 352" stroke="#E3E8EE" stroke-width="2" stroke-linecap="round" stroke-linejoin="round" stroke-dasharray="0.01 16"/>
<rect x="0.5" y="0.5" width="735" height="351" stroke="white"/>
</g>
<path d="M112 48C112 39.1635 119.163 32 128 32H384C392.837 32 400 39.1634 400 48V304C400 312.837 392.837 320 384 320H128C119.163 320 112 312.837 112 304V48Z" fill="#F7FAFC"/>
<rect x="107" y="27" width="298" height="298" rx="21" stroke="white" stroke-width="10"/>
<path d="M416 48C416 39.1635 423.163 32 432 32H688C696.837 32 704 39.1634 704 48V304C704 312.837 696.837 320 688 320H432C423.163 320 416 312.837 416 304V48Z" fill="#F7FAFC"/>
<rect x="411" y="27" width="298" height="298" rx="21" stroke="white" stroke-width="10"/>
<rect x="193" y="52" width="126" height="24" fill="#F7FAFC"/>
<path d="M196.514 59.1357V69H198.578V65.8896H200.526C202.604 65.8896 204.047 64.5361 204.047 62.5264C204.047 60.4893 202.659 59.1357 200.629 59.1357H196.514ZM198.578 60.7764H200.082C201.271 60.7764 201.948 61.3848 201.948 62.5332C201.948 63.6543 201.258 64.2695 200.075 64.2695H198.578V60.7764ZM205.817 69H207.807V58.5957H205.817V69ZM211.942 69.1162C212.92 69.1162 213.74 68.6992 214.13 68.002H214.253V69H216.181V63.8594C216.181 62.2529 215.053 61.3096 213.057 61.3096C211.163 61.3096 209.885 62.1777 209.755 63.5586H211.587C211.751 63.0869 212.229 62.834 212.947 62.834C213.768 62.834 214.219 63.21 214.219 63.8594V64.4814L212.394 64.5908C210.521 64.7002 209.475 65.4932 209.475 66.8535C209.475 68.2275 210.493 69.1162 211.942 69.1162ZM212.599 67.6602C211.908 67.6602 211.423 67.3115 211.423 66.7305C211.423 66.1768 211.84 65.8555 212.694 65.8008L214.219 65.6982V66.2588C214.219 67.0518 213.521 67.6602 212.599 67.6602ZM218.703 59.6758V61.542H217.527V63.0527H218.703V66.9697C218.703 68.4326 219.428 69.0273 221.26 69.0273C221.643 69.0273 222.012 68.9863 222.258 68.9385V67.4688C222.066 67.4893 221.93 67.5029 221.67 67.5029C220.993 67.5029 220.692 67.1885 220.692 66.5117V63.0527H222.258V61.542H220.692V59.6758H218.703ZM224.568 69H226.558V63.0527H228.116V61.542H226.517V60.9062C226.517 60.25 226.804 59.9287 227.583 59.9287C227.843 59.9287 228.048 59.9492 228.178 59.9697V58.5957C227.891 58.5547 227.556 58.5205 227.152 58.5205C225.334 58.5205 224.568 59.2725 224.568 60.7695V61.542H223.352V63.0527H224.568V69ZM232.785 69.1572C235.103 69.1572 236.497 67.6943 236.497 65.2334C236.497 62.793 235.082 61.3096 232.785 61.3096C230.488 61.3096 229.073 62.7998 229.073 65.2334C229.073 67.6875 230.468 69.1572 232.785 69.1572ZM232.785 67.585C231.719 67.585 231.117 66.7236 231.117 65.2334C231.117 63.7568 231.726 62.8887 232.785 62.8887C233.838 62.8887 234.453 63.7568 234.453 65.2334C234.453 66.7236 233.845 67.585 232.785 67.585ZM238.124 69H240.113V64.7891C240.113 63.7295 240.858 63.0801 241.945 63.0801C242.267 63.0801 242.731 63.1348 242.889 63.1895V61.4395C242.718 61.3848 242.383 61.3506 242.109 61.3506C241.152 61.3506 240.373 61.918 240.175 62.6699H240.052V61.4736H238.124V69ZM244.29 69H246.279V64.4609C246.279 63.5996 246.833 62.9707 247.612 62.9707C248.392 62.9707 248.856 63.4355 248.856 64.2422V69H250.771V64.3721C250.771 63.5586 251.29 62.9707 252.097 62.9707C252.938 62.9707 253.354 63.4219 253.354 64.3311V69H255.344V63.832C255.344 62.2803 254.407 61.3096 252.903 61.3096C251.851 61.3096 250.982 61.8633 250.634 62.6973H250.511C250.21 61.8359 249.485 61.3096 248.426 61.3096C247.435 61.3096 246.648 61.8359 246.341 62.6973H246.218V61.4736H244.29V69ZM262.952 69.1162C263.93 69.1162 264.75 68.6992 265.14 68.002H265.263V69H267.19V63.8594C267.19 62.2529 266.062 61.3096 264.066 61.3096C262.173 61.3096 260.895 62.1777 260.765 63.5586H262.597C262.761 63.0869 263.239 62.834 263.957 62.834C264.777 62.834 265.229 63.21 265.229 63.8594V64.4814L263.403 64.5908C261.53 64.7002 260.484 65.4932 260.484 66.8535C260.484 68.2275 261.503 69.1162 262.952 69.1162ZM263.608 67.6602C262.918 67.6602 262.433 67.3115 262.433 66.7305C262.433 66.1768 262.85 65.8555 263.704 65.8008L265.229 65.6982V66.2588C265.229 67.0518 264.531 67.6602 263.608 67.6602ZM275.817 64.0986C275.653 62.417 274.457 61.3096 272.461 61.3096C270.103 61.3096 268.776 62.7383 268.776 65.2197C268.776 67.7285 270.109 69.1572 272.461 69.1572C274.423 69.1572 275.653 68.0771 275.817 66.4229H273.958C273.808 67.1748 273.274 67.5781 272.461 67.5781C271.395 67.5781 270.786 66.7373 270.786 65.2197C270.786 63.7227 271.388 62.8955 272.461 62.8955C273.309 62.8955 273.821 63.374 273.958 64.0986H275.817ZM284.048 64.0986C283.884 62.417 282.688 61.3096 280.691 61.3096C278.333 61.3096 277.007 62.7383 277.007 65.2197C277.007 67.7285 278.34 69.1572 280.691 69.1572C282.653 69.1572 283.884 68.0771 284.048 66.4229H282.188C282.038 67.1748 281.505 67.5781 280.691 67.5781C279.625 67.5781 279.017 66.7373 279.017 65.2197C279.017 63.7227 279.618 62.8955 280.691 62.8955C281.539 62.8955 282.052 63.374 282.188 64.0986H284.048ZM288.949 69.1572C291.267 69.1572 292.661 67.6943 292.661 65.2334C292.661 62.793 291.246 61.3096 288.949 61.3096C286.652 61.3096 285.237 62.7998 285.237 65.2334C285.237 67.6875 286.632 69.1572 288.949 69.1572ZM288.949 67.585C287.883 67.585 287.281 66.7236 287.281 65.2334C287.281 63.7568 287.89 62.8887 288.949 62.8887C290.002 62.8887 290.617 63.7568 290.617 65.2334C290.617 66.7236 290.009 67.585 288.949 67.585ZM301.11 61.4736H299.121V65.8213C299.121 66.8535 298.588 67.4893 297.597 67.4893C296.681 67.4893 296.209 66.9492 296.209 65.8828V61.4736H294.22V66.375C294.22 68.125 295.231 69.1572 296.858 69.1572C298 69.1572 298.704 68.665 299.06 67.79H299.183V69H301.11V61.4736ZM303.106 69H305.096V64.6455C305.096 63.627 305.663 62.9707 306.586 62.9707C307.529 62.9707 307.974 63.5244 307.974 64.584V69H309.963V64.1328C309.963 62.335 309.061 61.3096 307.386 61.3096C306.271 61.3096 305.506 61.8359 305.157 62.6836H305.034V61.4736H303.106V69ZM312.465 59.6758V61.542H311.289V63.0527H312.465V66.9697C312.465 68.4326 313.189 69.0273 315.021 69.0273C315.404 69.0273 315.773 68.9863 316.02 68.9385V67.4688C315.828 67.4893 315.691 67.5029 315.432 67.5029C314.755 67.5029 314.454 67.1885 314.454 66.5117V63.0527H316.02V61.542H314.454V59.6758H312.465Z" fill="#3C4257"/>
<rect x="193" y="52" width="126" height="24" stroke="#F7FAFC" stroke-width="4"/>
<rect x="489" y="52" width="142" height="24" fill="#F7FAFC"/>
<path d="M496.87 69.2529C499.249 69.2529 500.985 67.8105 501.156 65.7051H499.146C498.948 66.792 498.06 67.4893 496.877 67.4893C495.318 67.4893 494.354 66.1768 494.354 64.0645C494.354 61.9521 495.318 60.6396 496.87 60.6396C498.046 60.6396 498.941 61.3916 499.14 62.5332H501.149C500.999 60.4141 499.208 58.8828 496.87 58.8828C494.006 58.8828 492.242 60.8584 492.242 64.0645C492.242 67.2705 494.013 69.2529 496.87 69.2529ZM506.201 69.1572C508.519 69.1572 509.913 67.6943 509.913 65.2334C509.913 62.793 508.498 61.3096 506.201 61.3096C503.904 61.3096 502.489 62.7998 502.489 65.2334C502.489 67.6875 503.884 69.1572 506.201 69.1572ZM506.201 67.585C505.135 67.585 504.533 66.7236 504.533 65.2334C504.533 63.7568 505.142 62.8887 506.201 62.8887C507.254 62.8887 507.869 63.7568 507.869 65.2334C507.869 66.7236 507.261 67.585 506.201 67.585ZM511.54 69H513.529V64.6455C513.529 63.627 514.097 62.9707 515.02 62.9707C515.963 62.9707 516.407 63.5244 516.407 64.584V69H518.396V64.1328C518.396 62.335 517.494 61.3096 515.819 61.3096C514.705 61.3096 513.939 61.8359 513.591 62.6836H513.468V61.4736H511.54V69ZM520.331 69H522.32V64.6455C522.32 63.627 522.888 62.9707 523.811 62.9707C524.754 62.9707 525.198 63.5244 525.198 64.584V69H527.188V64.1328C527.188 62.335 526.285 61.3096 524.61 61.3096C523.496 61.3096 522.73 61.8359 522.382 62.6836H522.259V61.4736H520.331V69ZM533.996 66.874C533.784 67.3867 533.244 67.6738 532.458 67.6738C531.419 67.6738 530.763 66.9561 530.735 65.8076V65.7051H535.91V65.1104C535.91 62.7314 534.598 61.3096 532.376 61.3096C530.134 61.3096 528.753 62.8271 528.753 65.2744C528.753 67.708 530.106 69.1572 532.403 69.1572C534.249 69.1572 535.555 68.2754 535.849 66.874H533.996ZM532.383 62.793C533.312 62.793 533.914 63.4355 533.955 64.4678H530.742C530.811 63.4561 531.46 62.793 532.383 62.793ZM544.216 64.0986C544.052 62.417 542.855 61.3096 540.859 61.3096C538.501 61.3096 537.175 62.7383 537.175 65.2197C537.175 67.7285 538.508 69.1572 540.859 69.1572C542.821 69.1572 544.052 68.0771 544.216 66.4229H542.356C542.206 67.1748 541.673 67.5781 540.859 67.5781C539.793 67.5781 539.185 66.7373 539.185 65.2197C539.185 63.7227 539.786 62.8955 540.859 62.8955C541.707 62.8955 542.22 63.374 542.356 64.0986H544.216ZM546.41 59.6758V61.542H545.234V63.0527H546.41V66.9697C546.41 68.4326 547.135 69.0273 548.967 69.0273C549.35 69.0273 549.719 68.9863 549.965 68.9385V67.4688C549.773 67.4893 549.637 67.5029 549.377 67.5029C548.7 67.5029 548.399 67.1885 548.399 66.5117V63.0527H549.965V61.542H548.399V59.6758H546.41ZM556.445 66.874C556.233 67.3867 555.693 67.6738 554.907 67.6738C553.868 67.6738 553.212 66.9561 553.185 65.8076V65.7051H558.359V65.1104C558.359 62.7314 557.047 61.3096 554.825 61.3096C552.583 61.3096 551.202 62.8271 551.202 65.2744C551.202 67.708 552.556 69.1572 554.853 69.1572C556.698 69.1572 558.004 68.2754 558.298 66.874H556.445ZM554.832 62.793C555.762 62.793 556.363 63.4355 556.404 64.4678H553.191C553.26 63.4561 553.909 62.793 554.832 62.793ZM562.693 69.1162C563.739 69.1162 564.594 68.6309 564.997 67.8174H565.12V69H567.048V58.5957H565.059V62.6768H564.942C564.553 61.8428 563.712 61.3506 562.693 61.3506C560.8 61.3506 559.624 62.834 559.624 65.2266C559.624 67.626 560.793 69.1162 562.693 69.1162ZM563.37 62.9639C564.43 62.9639 565.079 63.832 565.079 65.2402C565.079 66.6484 564.437 67.5098 563.37 67.5098C562.304 67.5098 561.668 66.6553 561.668 65.2334C561.668 63.8184 562.311 62.9639 563.37 62.9639ZM574.786 69.1162C575.764 69.1162 576.584 68.6992 576.974 68.002H577.097V69H579.024V63.8594C579.024 62.2529 577.896 61.3096 575.9 61.3096C574.007 61.3096 572.729 62.1777 572.599 63.5586H574.431C574.595 63.0869 575.073 62.834 575.791 62.834C576.611 62.834 577.062 63.21 577.062 63.8594V64.4814L575.237 64.5908C573.364 64.7002 572.318 65.4932 572.318 66.8535C572.318 68.2275 573.337 69.1162 574.786 69.1162ZM575.442 67.6602C574.752 67.6602 574.267 67.3115 574.267 66.7305C574.267 66.1768 574.684 65.8555 575.538 65.8008L577.062 65.6982V66.2588C577.062 67.0518 576.365 67.6602 575.442 67.6602ZM587.651 64.0986C587.487 62.417 586.291 61.3096 584.295 61.3096C581.937 61.3096 580.61 62.7383 580.61 65.2197C580.61 67.7285 581.943 69.1572 584.295 69.1572C586.257 69.1572 587.487 68.0771 587.651 66.4229H585.792C585.642 67.1748 585.108 67.5781 584.295 67.5781C583.229 67.5781 582.62 66.7373 582.62 65.2197C582.62 63.7227 583.222 62.8955 584.295 62.8955C585.143 62.8955 585.655 63.374 585.792 64.0986H587.651ZM595.882 64.0986C595.718 62.417 594.521 61.3096 592.525 61.3096C590.167 61.3096 588.841 62.7383 588.841 65.2197C588.841 67.7285 590.174 69.1572 592.525 69.1572C594.487 69.1572 595.718 68.0771 595.882 66.4229H594.022C593.872 67.1748 593.339 67.5781 592.525 67.5781C591.459 67.5781 590.851 66.7373 590.851 65.2197C590.851 63.7227 591.452 62.8955 592.525 62.8955C593.373 62.8955 593.886 63.374 594.022 64.0986H595.882ZM600.783 69.1572C603.101 69.1572 604.495 67.6943 604.495 65.2334C604.495 62.793 603.08 61.3096 600.783 61.3096C598.486 61.3096 597.071 62.7998 597.071 65.2334C597.071 67.6875 598.466 69.1572 600.783 69.1572ZM600.783 67.585C599.717 67.585 599.115 66.7236 599.115 65.2334C599.115 63.7568 599.724 62.8887 600.783 62.8887C601.836 62.8887 602.451 63.7568 602.451 65.2334C602.451 66.7236 601.843 67.585 600.783 67.585ZM612.944 61.4736H610.955V65.8213C610.955 66.8535 610.422 67.4893 609.431 67.4893C608.515 67.4893 608.043 66.9492 608.043 65.8828V61.4736H606.054V66.375C606.054 68.125 607.065 69.1572 608.692 69.1572C609.834 69.1572 610.538 68.665 610.894 67.79H611.017V69H612.944V61.4736ZM614.94 69H616.93V64.6455C616.93 63.627 617.497 62.9707 618.42 62.9707C619.363 62.9707 619.808 63.5244 619.808 64.584V69H621.797V64.1328C621.797 62.335 620.895 61.3096 619.22 61.3096C618.105 61.3096 617.34 61.8359 616.991 62.6836H616.868V61.4736H614.94V69ZM624.299 59.6758V61.542H623.123V63.0527H624.299V66.9697C624.299 68.4326 625.023 69.0273 626.855 69.0273C627.238 69.0273 627.607 68.9863 627.854 68.9385V67.4688C627.662 67.4893 627.525 67.5029 627.266 67.5029C626.589 67.5029 626.288 67.1885 626.288 66.5117V63.0527H627.854V61.542H626.288V59.6758H624.299Z" fill="#3C4257"/>
<rect x="489" y="52" width="142" height="24" stroke="#F7FAFC" stroke-width="4"/>
<path d="M32 104C32 99.5817 35.5817 96 40 96H72C76.4183 96 80 99.5817 80 104V136C80 140.418 76.4183 144 72 144H40C35.5817 144 32 140.418 32 136V104Z" fill="white"/>
<path d="M56 150C72.5685 150 86 136.569 86 120C86 103.431 72.5685 90 56 90C39.4315 90 26 103.431 26 120C26 136.569 39.4315 150 56 150Z" fill="#7DABF8" stroke="white" stroke-width="12"/>
<path fill-rule="evenodd" clip-rule="evenodd" d="M66 115.5H46V114.562C46 113.7 46.5596 113 47.25 113H64.75C65.4404 113 66 113.7 66 114.562V115.5ZM66 118.625V126.75C66 127.44 65.4404 128 64.75 128H47.25C46.5596 128 46 127.44 46 126.75V118.625H66ZM51 123C50.3096 123 49.75 123.56 49.75 124.25C49.75 124.94 50.3096 125.5 51 125.5H52.25C52.9404 125.5 53.5 124.94 53.5 124.25C53.5 123.56 52.9404 123 52.25 123H51Z" fill="white"/>
<path d="M432 104C432 99.5817 435.582 96 440 96H680C684.418 96 688 99.5817 688 104V136C688 140.418 684.418 144 680 144H440C435.582 144 432 140.418 432 136V104Z" fill="white"/>
<path d="M530.938 124.85H531.641V123.836C533.023 123.73 534.172 122.963 534.172 121.551C534.172 120.32 533.328 119.699 531.822 119.336L531.641 119.295V116.629C532.432 116.729 532.994 117.191 533.07 117.982H534.09C534.049 116.688 532.994 115.832 531.641 115.709V114.695H530.938V115.715C529.549 115.838 528.559 116.67 528.559 117.93C528.559 119.084 529.344 119.734 530.803 120.086L530.938 120.121V122.916C529.924 122.805 529.473 122.248 529.367 121.516H528.348C528.389 122.881 529.543 123.707 530.938 123.83V124.85ZM529.578 117.859C529.578 117.291 530.047 116.752 530.938 116.635V119.125C529.93 118.879 529.578 118.434 529.578 117.859ZM531.676 120.297C532.836 120.578 533.152 120.988 533.152 121.633C533.152 122.307 532.73 122.84 531.641 122.922V120.291L531.676 120.297ZM538.133 124H539.188V115.545H538.139L535.889 117.162V118.275L538.039 116.717H538.133V124ZM544.555 124.199C546.453 124.199 547.543 122.594 547.543 119.787C547.543 116.986 546.436 115.346 544.555 115.346C542.662 115.346 541.555 116.98 541.555 119.77C541.555 122.582 542.65 124.199 544.555 124.199ZM544.555 123.279C543.307 123.279 542.615 122.031 542.615 119.77C542.615 117.537 543.318 116.271 544.555 116.271C545.791 116.271 546.482 117.525 546.482 119.77C546.482 122.037 545.803 123.279 544.555 123.279ZM556.197 124.199C557.996 124.199 559.332 123.197 559.613 121.645H558.541C558.271 122.623 557.375 123.227 556.197 123.227C554.568 123.227 553.549 121.896 553.549 119.775C553.549 117.654 554.568 116.318 556.191 116.318C557.357 116.318 558.26 117.004 558.541 118.094H559.613C559.361 116.465 557.973 115.346 556.191 115.346C553.895 115.346 552.465 117.045 552.465 119.775C552.465 122.5 553.9 124.199 556.197 124.199ZM561.312 124H562.32V120.262C562.32 119.195 562.941 118.48 564.072 118.48C565.027 118.48 565.531 119.037 565.531 120.156V124H566.539V119.91C566.539 118.428 565.695 117.572 564.359 117.572C563.393 117.572 562.73 117.982 562.414 118.68H562.32V115.176H561.312V124ZM570.137 124.111C570.98 124.111 571.672 123.742 572.082 123.068H572.176V124H573.137V119.676C573.137 118.363 572.275 117.572 570.734 117.572C569.387 117.572 568.391 118.24 568.256 119.254H569.275C569.416 118.756 569.943 118.469 570.699 118.469C571.643 118.469 572.129 118.896 572.129 119.676V120.25L570.307 120.361C568.836 120.449 568.004 121.1 568.004 122.23C568.004 123.385 568.912 124.111 570.137 124.111ZM570.324 123.227C569.592 123.227 569.047 122.852 569.047 122.207C569.047 121.574 569.469 121.24 570.43 121.176L572.129 121.064V121.645C572.129 122.547 571.361 123.227 570.324 123.227ZM575 124H576.008V120.086C576.008 119.195 576.705 118.551 577.666 118.551C577.865 118.551 578.229 118.586 578.311 118.609V117.602C578.182 117.584 577.971 117.572 577.807 117.572C576.969 117.572 576.242 118.006 576.055 118.621H575.961V117.684H575V124ZM581.996 126.426C583.719 126.426 584.809 125.523 584.809 124.111V117.684H583.848V118.686H583.754C583.391 118.006 582.611 117.572 581.727 117.572C580.104 117.572 579.078 118.855 579.078 120.748C579.078 122.641 580.092 123.906 581.727 123.906C582.594 123.906 583.309 123.514 583.707 122.816H583.801V124.059C583.801 124.99 583.127 125.547 581.996 125.547C581.088 125.547 580.525 125.213 580.414 124.697H579.348C579.5 125.74 580.473 126.426 581.996 126.426ZM581.949 123.016C580.777 123.016 580.121 122.125 580.121 120.748C580.121 119.371 580.777 118.48 581.949 118.48C583.115 118.48 583.824 119.371 583.824 120.748C583.824 122.125 583.121 123.016 581.949 123.016ZM590.891 122.365C590.627 122.922 590.076 123.221 589.262 123.221C588.189 123.221 587.492 122.43 587.439 121.182V121.135H591.98V120.748C591.98 118.785 590.943 117.572 589.238 117.572C587.504 117.572 586.391 118.861 586.391 120.848C586.391 122.846 587.486 124.111 589.238 124.111C590.621 124.111 591.605 123.443 591.898 122.365H590.891ZM589.227 118.463C590.229 118.463 590.896 119.201 590.92 120.32H587.439C587.516 119.201 588.219 118.463 589.227 118.463Z" fill="#3C4257"/>
<rect x="432.5" y="96.5" width="255" height="47" rx="7.5" stroke="#E3E8EE"/>
<path d="M128 184C128 179.582 131.582 176 136 176H376C380.418 176 384 179.582 384 184V216C384 220.418 380.418 224 376 224H136C131.582 224 128 220.418 128 216V184Z" fill="white"/>
<path d="M199.955 204.85H200.658V203.836C202.041 203.73 203.189 202.963 203.189 201.551C203.189 200.32 202.346 199.699 200.84 199.336L200.658 199.295V196.629C201.449 196.729 202.012 197.191 202.088 197.982H203.107C203.066 196.688 202.012 195.832 200.658 195.709V194.695H199.955V195.715C198.566 195.838 197.576 196.67 197.576 197.93C197.576 199.084 198.361 199.734 199.82 200.086L199.955 200.121V202.916C198.941 202.805 198.49 202.248 198.385 201.516H197.365C197.406 202.881 198.561 203.707 199.955 203.83V204.85ZM198.596 197.859C198.596 197.291 199.064 196.752 199.955 196.635V199.125C198.947 198.879 198.596 198.434 198.596 197.859ZM200.693 200.297C201.854 200.578 202.17 200.988 202.17 201.633C202.17 202.307 201.748 202.84 200.658 202.922V200.291L200.693 200.297ZM207.15 204H208.205V195.545H207.156L204.906 197.162V198.275L207.057 196.717H207.15V204ZM211.275 204.059C211.697 204.059 212.037 203.713 212.037 203.297C212.037 202.875 211.697 202.535 211.275 202.535C210.859 202.535 210.514 202.875 210.514 203.297C210.514 203.713 210.859 204.059 211.275 204.059ZM213.713 197.93H214.732C214.732 196.928 215.406 196.266 216.42 196.266C217.416 196.266 218.02 196.934 218.02 197.83C218.02 198.574 217.703 199.014 216.625 200.18L213.766 203.273V204H219.238V203.051H215.23V202.957L217.152 200.971C218.676 199.395 219.098 198.691 219.098 197.719C219.098 196.348 217.967 195.346 216.49 195.346C214.873 195.346 213.713 196.424 213.713 197.93ZM222.795 200.104H223.844C225.033 200.104 225.766 200.713 225.766 201.691C225.766 202.641 224.975 203.279 223.861 203.279C222.771 203.279 222.01 202.711 221.916 201.82H220.896C220.973 203.256 222.156 204.199 223.873 204.199C225.555 204.199 226.85 203.139 226.85 201.721C226.85 200.543 226.123 199.799 225.027 199.623V199.529C225.895 199.277 226.527 198.604 226.533 197.584C226.539 196.4 225.578 195.346 223.908 195.346C222.197 195.346 221.148 196.359 221.043 197.736H222.068C222.156 196.787 222.818 196.266 223.838 196.266C224.857 196.266 225.461 196.91 225.461 197.701C225.461 198.58 224.77 199.201 223.797 199.201H222.795V200.104ZM237.561 204H238.668L235.551 195.545H234.508L231.391 204H232.498L233.348 201.58H236.711L237.561 204ZM234.982 196.91H235.076L236.4 200.684H233.658L234.982 196.91ZM243.098 197.572C242.236 197.572 241.48 198.012 241.076 198.738H240.982V197.684H240.021V206.109H241.029V203.051H241.123C241.469 203.719 242.195 204.111 243.098 204.111C244.703 204.111 245.752 202.816 245.752 200.842C245.752 198.855 244.709 197.572 243.098 197.572ZM242.857 203.203C241.721 203.203 241 202.289 241 200.842C241 199.389 241.721 198.48 242.863 198.48C244.018 198.48 244.709 199.365 244.709 200.842C244.709 202.318 244.018 203.203 242.857 203.203ZM250.41 197.572C249.549 197.572 248.793 198.012 248.389 198.738H248.295V197.684H247.334V206.109H248.342V203.051H248.436C248.781 203.719 249.508 204.111 250.41 204.111C252.016 204.111 253.064 202.816 253.064 200.842C253.064 198.855 252.021 197.572 250.41 197.572ZM250.17 203.203C249.033 203.203 248.312 202.289 248.312 200.842C248.312 199.389 249.033 198.48 250.176 198.48C251.33 198.48 252.021 199.365 252.021 200.842C252.021 202.318 251.33 203.203 250.17 203.203ZM254.705 204H255.713V195.176H254.705V204ZM258.197 196.465C258.584 196.465 258.9 196.148 258.9 195.762C258.9 195.375 258.584 195.059 258.197 195.059C257.811 195.059 257.494 195.375 257.494 195.762C257.494 196.148 257.811 196.465 258.197 196.465ZM257.693 204H258.701V197.684H257.693V204ZM265.85 199.617C265.674 198.492 264.736 197.572 263.201 197.572C261.432 197.572 260.307 198.85 260.307 200.818C260.307 202.828 261.438 204.111 263.207 204.111C264.725 204.111 265.668 203.256 265.85 202.096H264.83C264.643 202.811 264.051 203.203 263.201 203.203C262.076 203.203 261.35 202.277 261.35 200.818C261.35 199.389 262.064 198.48 263.201 198.48C264.109 198.48 264.666 198.99 264.83 199.617H265.85ZM269.096 204.111C269.939 204.111 270.631 203.742 271.041 203.068H271.135V204H272.096V199.676C272.096 198.363 271.234 197.572 269.693 197.572C268.346 197.572 267.35 198.24 267.215 199.254H268.234C268.375 198.756 268.902 198.469 269.658 198.469C270.602 198.469 271.088 198.896 271.088 199.676V200.25L269.266 200.361C267.795 200.449 266.963 201.1 266.963 202.23C266.963 203.385 267.871 204.111 269.096 204.111ZM269.283 203.227C268.551 203.227 268.006 202.852 268.006 202.207C268.006 201.574 268.428 201.24 269.389 201.176L271.088 201.064V201.645C271.088 202.547 270.32 203.227 269.283 203.227ZM274.381 196.049V197.684H273.361V198.527H274.381V202.359C274.381 203.566 274.902 204.047 276.203 204.047C276.402 204.047 276.596 204.023 276.795 203.988V203.139C276.607 203.156 276.508 203.162 276.326 203.162C275.67 203.162 275.389 202.846 275.389 202.102V198.527H276.795V197.684H275.389V196.049H274.381ZM278.846 196.465C279.232 196.465 279.549 196.148 279.549 195.762C279.549 195.375 279.232 195.059 278.846 195.059C278.459 195.059 278.143 195.375 278.143 195.762C278.143 196.148 278.459 196.465 278.846 196.465ZM278.342 204H279.35V197.684H278.342V204ZM283.867 204.111C285.666 204.111 286.779 202.869 286.779 200.842C286.779 198.809 285.666 197.572 283.867 197.572C282.068 197.572 280.955 198.809 280.955 200.842C280.955 202.869 282.068 204.111 283.867 204.111ZM283.867 203.203C282.672 203.203 281.998 202.336 281.998 200.842C281.998 199.342 282.672 198.48 283.867 198.48C285.062 198.48 285.736 199.342 285.736 200.842C285.736 202.336 285.062 203.203 283.867 203.203ZM288.361 204H289.369V200.262C289.369 199.154 290.02 198.48 291.027 198.48C292.035 198.48 292.516 199.02 292.516 200.156V204H293.523V199.91C293.523 198.41 292.732 197.572 291.314 197.572C290.348 197.572 289.732 197.982 289.416 198.68H289.322V197.684H288.361V204ZM299.178 204H300.186V198.527H301.633V197.684H300.186V197.01C300.186 196.318 300.49 195.967 301.217 195.967C301.398 195.967 301.568 195.973 301.691 195.996V195.176C301.48 195.135 301.258 195.117 301.012 195.117C299.811 195.117 299.178 195.721 299.178 196.98V197.684H298.129V198.527H299.178V204ZM307.018 202.365C306.754 202.922 306.203 203.221 305.389 203.221C304.316 203.221 303.619 202.43 303.566 201.182V201.135H308.107V200.748C308.107 198.785 307.07 197.572 305.365 197.572C303.631 197.572 302.518 198.861 302.518 200.848C302.518 202.846 303.613 204.111 305.365 204.111C306.748 204.111 307.732 203.443 308.025 202.365H307.018ZM305.354 198.463C306.355 198.463 307.023 199.201 307.047 200.32H303.566C303.643 199.201 304.346 198.463 305.354 198.463ZM313.873 202.365C313.609 202.922 313.059 203.221 312.244 203.221C311.172 203.221 310.475 202.43 310.422 201.182V201.135H314.963V200.748C314.963 198.785 313.926 197.572 312.221 197.572C310.486 197.572 309.373 198.861 309.373 200.848C309.373 202.846 310.469 204.111 312.221 204.111C313.604 204.111 314.588 203.443 314.881 202.365H313.873ZM312.209 198.463C313.211 198.463 313.879 199.201 313.902 200.32H310.422C310.498 199.201 311.201 198.463 312.209 198.463Z" fill="#3C4257"/>
<rect x="128.5" y="176.5" width="255" height="47" rx="7.5" stroke="#E3E8EE"/>
<path d="M432 184C432 179.582 435.582 176 440 176H680C684.418 176 688 179.582 688 184V216C688 220.418 684.418 224 680 224H440C435.582 224 432 220.418 432 216V184Z" fill="white"/>
<path d="M507.998 200.484C507.998 202.6 508.537 204.311 509.662 205.799H510.518C509.68 204.732 509.035 202.477 509.035 200.484C509.035 198.504 509.686 196.242 510.518 195.176H509.662C508.537 196.664 507.998 198.375 507.998 200.484ZM514.713 204.85H515.416V203.836C516.799 203.73 517.947 202.963 517.947 201.551C517.947 200.32 517.104 199.699 515.598 199.336L515.416 199.295V196.629C516.207 196.729 516.77 197.191 516.846 197.982H517.865C517.824 196.688 516.77 195.832 515.416 195.709V194.695H514.713V195.715C513.324 195.838 512.334 196.67 512.334 197.93C512.334 199.084 513.119 199.734 514.578 200.086L514.713 200.121V202.916C513.699 202.805 513.248 202.248 513.143 201.516H512.123C512.164 202.881 513.318 203.707 514.713 203.83V204.85ZM513.354 197.859C513.354 197.291 513.822 196.752 514.713 196.635V199.125C513.705 198.879 513.354 198.434 513.354 197.859ZM515.451 200.297C516.611 200.578 516.928 200.988 516.928 201.633C516.928 202.307 516.506 202.84 515.416 202.922V200.291L515.451 200.297ZM522.729 204.199C524.627 204.199 525.717 202.594 525.717 199.787C525.717 196.986 524.609 195.346 522.729 195.346C520.836 195.346 519.729 196.98 519.729 199.77C519.729 202.582 520.824 204.199 522.729 204.199ZM522.729 203.279C521.48 203.279 520.789 202.031 520.789 199.77C520.789 197.537 521.492 196.271 522.729 196.271C523.965 196.271 524.656 197.525 524.656 199.77C524.656 202.037 523.977 203.279 522.729 203.279ZM527.814 204.059C528.236 204.059 528.576 203.713 528.576 203.297C528.576 202.875 528.236 202.535 527.814 202.535C527.398 202.535 527.053 202.875 527.053 203.297C527.053 203.713 527.398 204.059 527.814 204.059ZM532.965 204.199C534.693 204.199 535.871 203.004 535.871 201.264C535.871 199.588 534.699 198.475 533.281 198.475C532.438 198.475 531.811 198.732 531.4 199.242H531.307L531.57 196.488H535.438V195.545H530.744L530.258 200.379H531.248C531.582 199.752 532.215 199.383 533.018 199.383C534.084 199.383 534.816 200.15 534.816 201.293C534.816 202.477 534.084 203.273 532.977 203.273C531.98 203.273 531.254 202.67 531.16 201.768H530.123C530.217 203.215 531.365 204.199 532.965 204.199ZM540.283 204.193C542.352 204.193 543.535 202.529 543.535 199.623C543.535 196.746 542.176 195.346 540.354 195.346C538.619 195.346 537.389 196.559 537.389 198.258C537.389 199.898 538.555 201.088 540.166 201.088C541.174 201.088 542 200.607 542.416 199.787H542.51C542.451 202.037 541.672 203.256 540.295 203.256C539.463 203.256 538.818 202.793 538.596 202.031H537.512C537.775 203.361 538.848 204.193 540.283 204.193ZM540.354 200.174C539.234 200.174 538.455 199.377 538.455 198.223C538.455 197.115 539.281 196.271 540.365 196.271C541.449 196.271 542.275 197.127 542.275 198.258C542.275 199.377 541.473 200.174 540.354 200.174ZM547.455 200.49C547.455 198.375 546.916 196.664 545.791 195.176H544.936C545.773 196.242 546.418 198.498 546.418 200.49C546.418 202.471 545.768 204.732 544.936 205.799H545.791C546.916 204.311 547.455 202.6 547.455 200.49ZM552.934 201.791C553.045 203.25 554.281 204.199 556.074 204.199C558.008 204.199 559.232 203.209 559.232 201.656C559.232 200.414 558.529 199.734 556.777 199.295L555.893 199.061C554.727 198.762 554.264 198.381 554.264 197.719C554.264 196.863 555.008 196.301 556.133 196.301C557.188 196.301 557.902 196.816 558.049 197.684H559.109C559.021 196.318 557.803 195.346 556.168 195.346C554.381 195.346 553.18 196.318 553.18 197.754C553.18 198.955 553.842 199.646 555.371 200.033L556.455 200.314C557.621 200.607 558.148 201.064 558.148 201.785C558.148 202.623 557.311 203.238 556.174 203.238C554.973 203.238 554.129 202.676 554 201.791H552.934ZM561.283 196.049V197.684H560.264V198.527H561.283V202.359C561.283 203.566 561.805 204.047 563.105 204.047C563.305 204.047 563.498 204.023 563.697 203.988V203.139C563.51 203.156 563.41 203.162 563.229 203.162C562.572 203.162 562.291 202.846 562.291 202.102V198.527H563.697V197.684H562.291V196.049H561.283ZM565.221 204H566.229V200.086C566.229 199.195 566.926 198.551 567.887 198.551C568.086 198.551 568.449 198.586 568.531 198.609V197.602C568.402 197.584 568.191 197.572 568.027 197.572C567.189 197.572 566.463 198.006 566.275 198.621H566.182V197.684H565.221V204ZM570.318 196.465C570.705 196.465 571.021 196.148 571.021 195.762C571.021 195.375 570.705 195.059 570.318 195.059C569.932 195.059 569.615 195.375 569.615 195.762C569.615 196.148 569.932 196.465 570.318 196.465ZM569.814 204H570.822V197.684H569.814V204ZM575.82 197.572C574.959 197.572 574.203 198.012 573.799 198.738H573.705V197.684H572.744V206.109H573.752V203.051H573.846C574.191 203.719 574.918 204.111 575.82 204.111C577.426 204.111 578.475 202.816 578.475 200.842C578.475 198.855 577.432 197.572 575.82 197.572ZM575.58 203.203C574.443 203.203 573.723 202.289 573.723 200.842C573.723 199.389 574.443 198.48 575.586 198.48C576.74 198.48 577.432 199.365 577.432 200.842C577.432 202.318 576.74 203.203 575.58 203.203ZM584.24 202.365C583.977 202.922 583.426 203.221 582.611 203.221C581.539 203.221 580.842 202.43 580.789 201.182V201.135H585.33V200.748C585.33 198.785 584.293 197.572 582.588 197.572C580.854 197.572 579.74 198.861 579.74 200.848C579.74 202.846 580.836 204.111 582.588 204.111C583.971 204.111 584.955 203.443 585.248 202.365H584.24ZM582.576 198.463C583.578 198.463 584.246 199.201 584.27 200.32H580.789C580.865 199.201 581.568 198.463 582.576 198.463ZM590.721 204H591.729V198.527H593.176V197.684H591.729V197.01C591.729 196.318 592.033 195.967 592.76 195.967C592.941 195.967 593.111 195.973 593.234 195.996V195.176C593.023 195.135 592.801 195.117 592.555 195.117C591.354 195.117 590.721 195.721 590.721 196.98V197.684H589.672V198.527H590.721V204ZM598.561 202.365C598.297 202.922 597.746 203.221 596.932 203.221C595.859 203.221 595.162 202.43 595.109 201.182V201.135H599.65V200.748C599.65 198.785 598.613 197.572 596.908 197.572C595.174 197.572 594.061 198.861 594.061 200.848C594.061 202.846 595.156 204.111 596.908 204.111C598.291 204.111 599.275 203.443 599.568 202.365H598.561ZM596.896 198.463C597.898 198.463 598.566 199.201 598.59 200.32H595.109C595.186 199.201 595.889 198.463 596.896 198.463ZM605.416 202.365C605.152 202.922 604.602 203.221 603.787 203.221C602.715 203.221 602.018 202.43 601.965 201.182V201.135H606.506V200.748C606.506 198.785 605.469 197.572 603.764 197.572C602.029 197.572 600.916 198.861 600.916 200.848C600.916 202.846 602.012 204.111 603.764 204.111C605.146 204.111 606.131 203.443 606.424 202.365H605.416ZM603.752 198.463C604.754 198.463 605.422 199.201 605.445 200.32H601.965C602.041 199.201 602.744 198.463 603.752 198.463ZM607.941 199.412C607.941 200.326 608.48 200.836 609.664 201.123L610.748 201.387C611.422 201.551 611.75 201.844 611.75 202.277C611.75 202.857 611.141 203.262 610.291 203.262C609.482 203.262 608.979 202.922 608.809 202.389H607.771C607.883 203.438 608.85 204.111 610.256 204.111C611.691 204.111 612.787 203.332 612.787 202.201C612.787 201.293 612.213 200.777 611.023 200.49L610.051 200.256C609.307 200.074 608.955 199.805 608.955 199.371C608.955 198.809 609.541 198.428 610.291 198.428C611.053 198.428 611.545 198.762 611.68 199.266H612.676C612.541 198.229 611.621 197.572 610.297 197.572C608.955 197.572 607.941 198.363 607.941 199.412Z" fill="#3C4257"/>
<rect x="432.5" y="176.5" width="255" height="47" rx="7.5" stroke="#E3E8EE"/>
<path d="M432 264C432 259.582 435.582 256 440 256H680C684.418 256 688 259.582 688 264V296C688 300.418 684.418 304 680 304H440C435.582 304 432 300.418 432 296V264Z" fill="white"/>
<path d="M537.02 284.85H537.723V283.836C539.105 283.73 540.254 282.963 540.254 281.551C540.254 280.32 539.41 279.699 537.904 279.336L537.723 279.295V276.629C538.514 276.729 539.076 277.191 539.152 277.982H540.172C540.131 276.688 539.076 275.832 537.723 275.709V274.695H537.02V275.715C535.631 275.838 534.641 276.67 534.641 277.93C534.641 279.084 535.426 279.734 536.885 280.086L537.02 280.121V282.916C536.006 282.805 535.555 282.248 535.449 281.516H534.43C534.471 282.881 535.625 283.707 537.02 283.83V284.85ZM535.66 277.859C535.66 277.291 536.129 276.752 537.02 276.635V279.125C536.012 278.879 535.66 278.434 535.66 277.859ZM537.758 280.297C538.918 280.578 539.234 280.988 539.234 281.633C539.234 282.307 538.812 282.84 537.723 282.922V280.291L537.758 280.297ZM545.082 284.199C546.875 284.199 548.129 283.186 548.129 281.738C548.129 280.637 547.432 279.781 546.371 279.582V279.488C547.244 279.248 547.783 278.527 547.783 277.602C547.783 276.283 546.664 275.346 545.082 275.346C543.5 275.346 542.381 276.283 542.381 277.602C542.381 278.521 542.932 279.254 543.793 279.488V279.582C542.732 279.781 542.035 280.637 542.035 281.738C542.035 283.186 543.289 284.199 545.082 284.199ZM545.082 279.137C544.086 279.137 543.418 278.562 543.418 277.701C543.418 276.828 544.08 276.248 545.082 276.248C546.084 276.248 546.746 276.828 546.746 277.701C546.746 278.562 546.078 279.137 545.082 279.137ZM545.082 283.297C543.91 283.297 543.102 282.629 543.102 281.662C543.102 280.695 543.91 280.027 545.082 280.027C546.254 280.027 547.062 280.695 547.062 281.662C547.062 282.629 546.254 283.297 545.082 283.297ZM550.285 284.059C550.707 284.059 551.047 283.713 551.047 283.297C551.047 282.875 550.707 282.535 550.285 282.535C549.869 282.535 549.523 282.875 549.523 283.297C549.523 283.713 549.869 284.059 550.285 284.059ZM554.621 284H555.676V275.545H554.627L552.377 277.162V278.275L554.527 276.717H554.621V284ZM561.09 284.199C562.883 284.199 564.137 283.186 564.137 281.738C564.137 280.637 563.439 279.781 562.379 279.582V279.488C563.252 279.248 563.791 278.527 563.791 277.602C563.791 276.283 562.672 275.346 561.09 275.346C559.508 275.346 558.389 276.283 558.389 277.602C558.389 278.521 558.939 279.254 559.801 279.488V279.582C558.74 279.781 558.043 280.637 558.043 281.738C558.043 283.186 559.297 284.199 561.09 284.199ZM561.09 279.137C560.094 279.137 559.426 278.562 559.426 277.701C559.426 276.828 560.088 276.248 561.09 276.248C562.092 276.248 562.754 276.828 562.754 277.701C562.754 278.562 562.086 279.137 561.09 279.137ZM561.09 283.297C559.918 283.297 559.109 282.629 559.109 281.662C559.109 280.695 559.918 280.027 561.09 280.027C562.262 280.027 563.07 280.695 563.07 281.662C563.07 282.629 562.262 283.297 561.09 283.297ZM569.258 284H570.266V280.262C570.266 279.154 570.916 278.48 571.924 278.48C572.932 278.48 573.412 279.02 573.412 280.156V284H574.42V279.91C574.42 278.41 573.629 277.572 572.211 277.572C571.244 277.572 570.629 277.982 570.312 278.68H570.219V277.684H569.258V284ZM580.449 282.365C580.186 282.922 579.635 283.221 578.82 283.221C577.748 283.221 577.051 282.43 576.998 281.182V281.135H581.539V280.748C581.539 278.785 580.502 277.572 578.797 277.572C577.062 277.572 575.949 278.861 575.949 280.848C575.949 282.846 577.045 284.111 578.797 284.111C580.18 284.111 581.164 283.443 581.457 282.365H580.449ZM578.785 278.463C579.787 278.463 580.455 279.201 580.479 280.32H576.998C577.074 279.201 577.777 278.463 578.785 278.463ZM583.543 276.049V277.684H582.523V278.527H583.543V282.359C583.543 283.566 584.064 284.047 585.365 284.047C585.564 284.047 585.758 284.023 585.957 283.988V283.139C585.77 283.156 585.67 283.162 585.488 283.162C584.832 283.162 584.551 282.846 584.551 282.102V278.527H585.957V277.684H584.551V276.049H583.543Z" fill="#3C4257"/>
<rect x="432.5" y="256.5" width="255" height="47" rx="7.5" stroke="#E3E8EE"/>
<path d="M88.5 111.25C88.0858 111.25 87.75 111.586 87.75 112C87.75 112.414 88.0858 112.75 88.5 112.75V111.25ZM424.03 112.53C424.323 112.237 424.323 111.763 424.03 111.47L419.257 106.697C418.964 106.404 418.49 106.404 418.197 106.697C417.904 106.99 417.904 107.464 418.197 107.757L422.439 112L418.197 116.243C417.904 116.536 417.904 117.01 418.197 117.303C418.49 117.596 418.964 117.596 419.257 117.303L424.03 112.53ZM88.5 112.75L423.5 112.75V111.25L88.5 111.25V112.75Z" fill="#8792A2"/>
<path d="M560.75 152.5C560.75 152.086 560.414 151.75 560 151.75C559.586 151.75 559.25 152.086 559.25 152.5L560.75 152.5ZM559.47 168.03C559.763 168.323 560.237 168.323 560.53 168.03L565.303 163.257C565.596 162.964 565.596 162.49 565.303 162.197C565.01 161.904 564.536 161.904 564.243 162.197L560 166.439L555.757 162.197C555.464 161.904 554.99 161.904 554.697 162.197C554.404 162.49 554.404 162.964 554.697 163.257L559.47 168.03ZM559.25 152.5L559.25 167.5L560.75 167.5L560.75 152.5L559.25 152.5Z" fill="#8792A2"/>
<path d="M560.75 232.5C560.75 232.086 560.414 231.75 560 231.75C559.586 231.75 559.25 232.086 559.25 232.5L560.75 232.5ZM559.47 248.03C559.763 248.323 560.237 248.323 560.53 248.03L565.303 243.257C565.596 242.964 565.596 242.49 565.303 242.197C565.01 241.904 564.536 241.904 564.243 242.197L560 246.439L555.757 242.197C555.464 241.904 554.99 241.904 554.697 242.197C554.404 242.49 554.404 242.964 554.697 243.257L559.47 248.03ZM559.25 232.5L559.25 247.5L560.75 247.5L560.75 232.5L559.25 232.5Z" fill="#8792A2"/>
<path d="M424.5 127.25C424.914 127.25 425.25 127.586 425.25 128C425.25 128.414 424.914 128.75 424.5 128.75V127.25ZM248.53 168.03C248.237 168.323 247.763 168.323 247.47 168.03L242.697 163.257C242.404 162.964 242.404 162.49 242.697 162.197C242.99 161.904 243.464 161.904 243.757 162.197L248 166.439L252.243 162.197C252.536 161.904 253.01 161.904 253.303 162.197C253.596 162.49 253.596 162.964 253.303 163.257L248.53 168.03ZM424.5 128.75L252 128.75V127.25L424.5 127.25V128.75ZM248.75 132V167.5H247.25V132H248.75ZM252 128.75C250.205 128.75 248.75 130.205 248.75 132H247.25C247.25 129.377 249.377 127.25 252 127.25V128.75Z" fill="#8792A2"/>
<defs>
<clipPath id="clip0">
<path d="M0 0H736V352H0V0Z" fill="white"/>
</clipPath>
</defs>
</svg>
