<svg width="736" height="512" viewBox="0 0 736 512" fill="none" xmlns="http://www.w3.org/2000/svg">
<g clip-path="url(#clip0)">
<path d="M0 0H736V512H0V0Z" fill="white"/>
<path d="M0 0L736 -6.43432e-05" stroke="#E3E8EE" stroke-width="2" stroke-linecap="round" stroke-linejoin="round" stroke-dasharray="0.01 16"/>
<path d="M0 16L736 15.9999" stroke="#E3E8EE" stroke-width="2" stroke-linecap="round" stroke-linejoin="round" stroke-dasharray="0.01 16"/>
<path d="M0 32L736 31.9999" stroke="#E3E8EE" stroke-width="2" stroke-linecap="round" stroke-linejoin="round" stroke-dasharray="0.01 16"/>
<path d="M0 48L736 47.9999" stroke="#E3E8EE" stroke-width="2" stroke-linecap="round" stroke-linejoin="round" stroke-dasharray="0.01 16"/>
<path d="M0 64L736 63.9999" stroke="#E3E8EE" stroke-width="2" stroke-linecap="round" stroke-linejoin="round" stroke-dasharray="0.01 16"/>
<path d="M0 80L736 79.9999" stroke="#E3E8EE" stroke-width="2" stroke-linecap="round" stroke-linejoin="round" stroke-dasharray="0.01 16"/>
<path d="M0 96L736 95.9999" stroke="#E3E8EE" stroke-width="2" stroke-linecap="round" stroke-linejoin="round" stroke-dasharray="0.01 16"/>
<path d="M0 112L736 112" stroke="#E3E8EE" stroke-width="2" stroke-linecap="round" stroke-linejoin="round" stroke-dasharray="0.01 16"/>
<path d="M0 128L736 128" stroke="#E3E8EE" stroke-width="2" stroke-linecap="round" stroke-linejoin="round" stroke-dasharray="0.01 16"/>
<path d="M0 144L736 144" stroke="#E3E8EE" stroke-width="2" stroke-linecap="round" stroke-linejoin="round" stroke-dasharray="0.01 16"/>
<path d="M0 160L736 160" stroke="#E3E8EE" stroke-width="2" stroke-linecap="round" stroke-linejoin="round" stroke-dasharray="0.01 16"/>
<path d="M0 176L736 176" stroke="#E3E8EE" stroke-width="2" stroke-linecap="round" stroke-linejoin="round" stroke-dasharray="0.01 16"/>
<path d="M0 192L736 192" stroke="#E3E8EE" stroke-width="2" stroke-linecap="round" stroke-linejoin="round" stroke-dasharray="0.01 16"/>
<path d="M0 208L736 208" stroke="#E3E8EE" stroke-width="2" stroke-linecap="round" stroke-linejoin="round" stroke-dasharray="0.01 16"/>
<path d="M0 224L736 224" stroke="#E3E8EE" stroke-width="2" stroke-linecap="round" stroke-linejoin="round" stroke-dasharray="0.01 16"/>
<path d="M0 240L736 240" stroke="#E3E8EE" stroke-width="2" stroke-linecap="round" stroke-linejoin="round" stroke-dasharray="0.01 16"/>
<path d="M0 256L736 256" stroke="#E3E8EE" stroke-width="2" stroke-linecap="round" stroke-linejoin="round" stroke-dasharray="0.01 16"/>
<path d="M0 272L736 272" stroke="#E3E8EE" stroke-width="2" stroke-linecap="round" stroke-linejoin="round" stroke-dasharray="0.01 16"/>
<path d="M0 288L736 288" stroke="#E3E8EE" stroke-width="2" stroke-linecap="round" stroke-linejoin="round" stroke-dasharray="0.01 16"/>
<path d="M0 304L736 304" stroke="#E3E8EE" stroke-width="2" stroke-linecap="round" stroke-linejoin="round" stroke-dasharray="0.01 16"/>
<path d="M0 320L736 320" stroke="#E3E8EE" stroke-width="2" stroke-linecap="round" stroke-linejoin="round" stroke-dasharray="0.01 16"/>
<path d="M0 336L736 336" stroke="#E3E8EE" stroke-width="2" stroke-linecap="round" stroke-linejoin="round" stroke-dasharray="0.01 16"/>
<path d="M0 352L736 352" stroke="#E3E8EE" stroke-width="2" stroke-linecap="round" stroke-linejoin="round" stroke-dasharray="0.01 16"/>
<path d="M0 368L736 368" stroke="#E3E8EE" stroke-width="2" stroke-linecap="round" stroke-linejoin="round" stroke-dasharray="0.01 16"/>
<path d="M0 384L736 384" stroke="#E3E8EE" stroke-width="2" stroke-linecap="round" stroke-linejoin="round" stroke-dasharray="0.01 16"/>
<path d="M0 400L736 400" stroke="#E3E8EE" stroke-width="2" stroke-linecap="round" stroke-linejoin="round" stroke-dasharray="0.01 16"/>
<path d="M0 416L736 416" stroke="#E3E8EE" stroke-width="2" stroke-linecap="round" stroke-linejoin="round" stroke-dasharray="0.01 16"/>
<path d="M0 432L736 432" stroke="#E3E8EE" stroke-width="2" stroke-linecap="round" stroke-linejoin="round" stroke-dasharray="0.01 16"/>
<path d="M0 448L736 448" stroke="#E3E8EE" stroke-width="2" stroke-linecap="round" stroke-linejoin="round" stroke-dasharray="0.01 16"/>
<path d="M0 464L736 464" stroke="#E3E8EE" stroke-width="2" stroke-linecap="round" stroke-linejoin="round" stroke-dasharray="0.01 16"/>
<path d="M0 480L736 480" stroke="#E3E8EE" stroke-width="2" stroke-linecap="round" stroke-linejoin="round" stroke-dasharray="0.01 16"/>
<path d="M0 496L736 496" stroke="#E3E8EE" stroke-width="2" stroke-linecap="round" stroke-linejoin="round" stroke-dasharray="0.01 16"/>
<path d="M0 512L736 512" stroke="#E3E8EE" stroke-width="2" stroke-linecap="round" stroke-linejoin="round" stroke-dasharray="0.01 16"/>
<rect x="0.5" y="0.5" width="735" height="511" stroke="white"/>
</g>
<path d="M112 48C112 39.1634 119.163 32 128 32H384C392.837 32 400 39.1634 400 48V464C400 472.837 392.837 480 384 480H128C119.163 480 112 472.837 112 464V48Z" fill="#F7FAFC"/>
<rect x="107" y="27" width="298" height="458" rx="21" stroke="white" stroke-width="10"/>
<path d="M416 48C416 39.1634 423.163 32 432 32H688C696.837 32 704 39.1634 704 48V464C704 472.837 696.837 480 688 480H432C423.163 480 416 472.837 416 464V48Z" fill="#F7FAFC"/>
<rect x="411" y="27" width="298" height="458" rx="21" stroke="white" stroke-width="10"/>
<rect x="193" y="52" width="126" height="24" fill="#F7FAFC"/>
<path d="M196.514 59.1357V69H198.578V65.8896H200.526C202.604 65.8896 204.047 64.5361 204.047 62.5264C204.047 60.4893 202.659 59.1357 200.629 59.1357H196.514ZM198.578 60.7764H200.082C201.271 60.7764 201.948 61.3848 201.948 62.5332C201.948 63.6543 201.258 64.2695 200.075 64.2695H198.578V60.7764ZM205.817 69H207.807V58.5957H205.817V69ZM211.942 69.1162C212.92 69.1162 213.74 68.6992 214.13 68.002H214.253V69H216.181V63.8594C216.181 62.2529 215.053 61.3096 213.057 61.3096C211.163 61.3096 209.885 62.1777 209.755 63.5586H211.587C211.751 63.0869 212.229 62.834 212.947 62.834C213.768 62.834 214.219 63.21 214.219 63.8594V64.4814L212.394 64.5908C210.521 64.7002 209.475 65.4932 209.475 66.8535C209.475 68.2275 210.493 69.1162 211.942 69.1162ZM212.599 67.6602C211.908 67.6602 211.423 67.3115 211.423 66.7305C211.423 66.1768 211.84 65.8555 212.694 65.8008L214.219 65.6982V66.2588C214.219 67.0518 213.521 67.6602 212.599 67.6602ZM218.703 59.6758V61.542H217.527V63.0527H218.703V66.9697C218.703 68.4326 219.428 69.0273 221.26 69.0273C221.643 69.0273 222.012 68.9863 222.258 68.9385V67.4688C222.066 67.4893 221.93 67.5029 221.67 67.5029C220.993 67.5029 220.692 67.1885 220.692 66.5117V63.0527H222.258V61.542H220.692V59.6758H218.703ZM224.568 69H226.558V63.0527H228.116V61.542H226.517V60.9062C226.517 60.25 226.804 59.9287 227.583 59.9287C227.843 59.9287 228.048 59.9492 228.178 59.9697V58.5957C227.891 58.5547 227.556 58.5205 227.152 58.5205C225.334 58.5205 224.568 59.2725 224.568 60.7695V61.542H223.352V63.0527H224.568V69ZM232.785 69.1572C235.103 69.1572 236.497 67.6943 236.497 65.2334C236.497 62.793 235.082 61.3096 232.785 61.3096C230.488 61.3096 229.073 62.7998 229.073 65.2334C229.073 67.6875 230.468 69.1572 232.785 69.1572ZM232.785 67.585C231.719 67.585 231.117 66.7236 231.117 65.2334C231.117 63.7568 231.726 62.8887 232.785 62.8887C233.838 62.8887 234.453 63.7568 234.453 65.2334C234.453 66.7236 233.845 67.585 232.785 67.585ZM238.124 69H240.113V64.7891C240.113 63.7295 240.858 63.0801 241.945 63.0801C242.267 63.0801 242.731 63.1348 242.889 63.1895V61.4395C242.718 61.3848 242.383 61.3506 242.109 61.3506C241.152 61.3506 240.373 61.918 240.175 62.6699H240.052V61.4736H238.124V69ZM244.29 69H246.279V64.4609C246.279 63.5996 246.833 62.9707 247.612 62.9707C248.392 62.9707 248.856 63.4355 248.856 64.2422V69H250.771V64.3721C250.771 63.5586 251.29 62.9707 252.097 62.9707C252.938 62.9707 253.354 63.4219 253.354 64.3311V69H255.344V63.832C255.344 62.2803 254.407 61.3096 252.903 61.3096C251.851 61.3096 250.982 61.8633 250.634 62.6973H250.511C250.21 61.8359 249.485 61.3096 248.426 61.3096C247.435 61.3096 246.648 61.8359 246.341 62.6973H246.218V61.4736H244.29V69ZM262.952 69.1162C263.93 69.1162 264.75 68.6992 265.14 68.002H265.263V69H267.19V63.8594C267.19 62.2529 266.062 61.3096 264.066 61.3096C262.173 61.3096 260.895 62.1777 260.765 63.5586H262.597C262.761 63.0869 263.239 62.834 263.957 62.834C264.777 62.834 265.229 63.21 265.229 63.8594V64.4814L263.403 64.5908C261.53 64.7002 260.484 65.4932 260.484 66.8535C260.484 68.2275 261.503 69.1162 262.952 69.1162ZM263.608 67.6602C262.918 67.6602 262.433 67.3115 262.433 66.7305C262.433 66.1768 262.85 65.8555 263.704 65.8008L265.229 65.6982V66.2588C265.229 67.0518 264.531 67.6602 263.608 67.6602ZM275.817 64.0986C275.653 62.417 274.457 61.3096 272.461 61.3096C270.103 61.3096 268.776 62.7383 268.776 65.2197C268.776 67.7285 270.109 69.1572 272.461 69.1572C274.423 69.1572 275.653 68.0771 275.817 66.4229H273.958C273.808 67.1748 273.274 67.5781 272.461 67.5781C271.395 67.5781 270.786 66.7373 270.786 65.2197C270.786 63.7227 271.388 62.8955 272.461 62.8955C273.309 62.8955 273.821 63.374 273.958 64.0986H275.817ZM284.048 64.0986C283.884 62.417 282.688 61.3096 280.691 61.3096C278.333 61.3096 277.007 62.7383 277.007 65.2197C277.007 67.7285 278.34 69.1572 280.691 69.1572C282.653 69.1572 283.884 68.0771 284.048 66.4229H282.188C282.038 67.1748 281.505 67.5781 280.691 67.5781C279.625 67.5781 279.017 66.7373 279.017 65.2197C279.017 63.7227 279.618 62.8955 280.691 62.8955C281.539 62.8955 282.052 63.374 282.188 64.0986H284.048ZM288.949 69.1572C291.267 69.1572 292.661 67.6943 292.661 65.2334C292.661 62.793 291.246 61.3096 288.949 61.3096C286.652 61.3096 285.237 62.7998 285.237 65.2334C285.237 67.6875 286.632 69.1572 288.949 69.1572ZM288.949 67.585C287.883 67.585 287.281 66.7236 287.281 65.2334C287.281 63.7568 287.89 62.8887 288.949 62.8887C290.002 62.8887 290.617 63.7568 290.617 65.2334C290.617 66.7236 290.009 67.585 288.949 67.585ZM301.11 61.4736H299.121V65.8213C299.121 66.8535 298.588 67.4893 297.597 67.4893C296.681 67.4893 296.209 66.9492 296.209 65.8828V61.4736H294.22V66.375C294.22 68.125 295.231 69.1572 296.858 69.1572C298 69.1572 298.704 68.665 299.06 67.79H299.183V69H301.11V61.4736ZM303.106 69H305.096V64.6455C305.096 63.627 305.663 62.9707 306.586 62.9707C307.529 62.9707 307.974 63.5244 307.974 64.584V69H309.963V64.1328C309.963 62.335 309.061 61.3096 307.386 61.3096C306.271 61.3096 305.506 61.8359 305.157 62.6836H305.034V61.4736H303.106V69ZM312.465 59.6758V61.542H311.289V63.0527H312.465V66.9697C312.465 68.4326 313.189 69.0273 315.021 69.0273C315.404 69.0273 315.773 68.9863 316.02 68.9385V67.4688C315.828 67.4893 315.691 67.5029 315.432 67.5029C314.755 67.5029 314.454 67.1885 314.454 66.5117V63.0527H316.02V61.542H314.454V59.6758H312.465Z" fill="#3C4257"/>
<rect x="193" y="52" width="126" height="24" stroke="#F7FAFC" stroke-width="4"/>
<rect x="489" y="52" width="142" height="24" fill="#F7FAFC"/>
<path d="M496.87 69.2529C499.249 69.2529 500.985 67.8105 501.156 65.7051H499.146C498.948 66.792 498.06 67.4893 496.877 67.4893C495.318 67.4893 494.354 66.1768 494.354 64.0645C494.354 61.9521 495.318 60.6396 496.87 60.6396C498.046 60.6396 498.941 61.3916 499.14 62.5332H501.149C500.999 60.4141 499.208 58.8828 496.87 58.8828C494.006 58.8828 492.242 60.8584 492.242 64.0645C492.242 67.2705 494.013 69.2529 496.87 69.2529ZM506.201 69.1572C508.519 69.1572 509.913 67.6943 509.913 65.2334C509.913 62.793 508.498 61.3096 506.201 61.3096C503.904 61.3096 502.489 62.7998 502.489 65.2334C502.489 67.6875 503.884 69.1572 506.201 69.1572ZM506.201 67.585C505.135 67.585 504.533 66.7236 504.533 65.2334C504.533 63.7568 505.142 62.8887 506.201 62.8887C507.254 62.8887 507.869 63.7568 507.869 65.2334C507.869 66.7236 507.261 67.585 506.201 67.585ZM511.54 69H513.529V64.6455C513.529 63.627 514.097 62.9707 515.02 62.9707C515.963 62.9707 516.407 63.5244 516.407 64.584V69H518.396V64.1328C518.396 62.335 517.494 61.3096 515.819 61.3096C514.705 61.3096 513.939 61.8359 513.591 62.6836H513.468V61.4736H511.54V69ZM520.331 69H522.32V64.6455C522.32 63.627 522.888 62.9707 523.811 62.9707C524.754 62.9707 525.198 63.5244 525.198 64.584V69H527.188V64.1328C527.188 62.335 526.285 61.3096 524.61 61.3096C523.496 61.3096 522.73 61.8359 522.382 62.6836H522.259V61.4736H520.331V69ZM533.996 66.874C533.784 67.3867 533.244 67.6738 532.458 67.6738C531.419 67.6738 530.763 66.9561 530.735 65.8076V65.7051H535.91V65.1104C535.91 62.7314 534.598 61.3096 532.376 61.3096C530.134 61.3096 528.753 62.8271 528.753 65.2744C528.753 67.708 530.106 69.1572 532.403 69.1572C534.249 69.1572 535.555 68.2754 535.849 66.874H533.996ZM532.383 62.793C533.312 62.793 533.914 63.4355 533.955 64.4678H530.742C530.811 63.4561 531.46 62.793 532.383 62.793ZM544.216 64.0986C544.052 62.417 542.855 61.3096 540.859 61.3096C538.501 61.3096 537.175 62.7383 537.175 65.2197C537.175 67.7285 538.508 69.1572 540.859 69.1572C542.821 69.1572 544.052 68.0771 544.216 66.4229H542.356C542.206 67.1748 541.673 67.5781 540.859 67.5781C539.793 67.5781 539.185 66.7373 539.185 65.2197C539.185 63.7227 539.786 62.8955 540.859 62.8955C541.707 62.8955 542.22 63.374 542.356 64.0986H544.216ZM546.41 59.6758V61.542H545.234V63.0527H546.41V66.9697C546.41 68.4326 547.135 69.0273 548.967 69.0273C549.35 69.0273 549.719 68.9863 549.965 68.9385V67.4688C549.773 67.4893 549.637 67.5029 549.377 67.5029C548.7 67.5029 548.399 67.1885 548.399 66.5117V63.0527H549.965V61.542H548.399V59.6758H546.41ZM556.445 66.874C556.233 67.3867 555.693 67.6738 554.907 67.6738C553.868 67.6738 553.212 66.9561 553.185 65.8076V65.7051H558.359V65.1104C558.359 62.7314 557.047 61.3096 554.825 61.3096C552.583 61.3096 551.202 62.8271 551.202 65.2744C551.202 67.708 552.556 69.1572 554.853 69.1572C556.698 69.1572 558.004 68.2754 558.298 66.874H556.445ZM554.832 62.793C555.762 62.793 556.363 63.4355 556.404 64.4678H553.191C553.26 63.4561 553.909 62.793 554.832 62.793ZM562.693 69.1162C563.739 69.1162 564.594 68.6309 564.997 67.8174H565.12V69H567.048V58.5957H565.059V62.6768H564.942C564.553 61.8428 563.712 61.3506 562.693 61.3506C560.8 61.3506 559.624 62.834 559.624 65.2266C559.624 67.626 560.793 69.1162 562.693 69.1162ZM563.37 62.9639C564.43 62.9639 565.079 63.832 565.079 65.2402C565.079 66.6484 564.437 67.5098 563.37 67.5098C562.304 67.5098 561.668 66.6553 561.668 65.2334C561.668 63.8184 562.311 62.9639 563.37 62.9639ZM574.786 69.1162C575.764 69.1162 576.584 68.6992 576.974 68.002H577.097V69H579.024V63.8594C579.024 62.2529 577.896 61.3096 575.9 61.3096C574.007 61.3096 572.729 62.1777 572.599 63.5586H574.431C574.595 63.0869 575.073 62.834 575.791 62.834C576.611 62.834 577.062 63.21 577.062 63.8594V64.4814L575.237 64.5908C573.364 64.7002 572.318 65.4932 572.318 66.8535C572.318 68.2275 573.337 69.1162 574.786 69.1162ZM575.442 67.6602C574.752 67.6602 574.267 67.3115 574.267 66.7305C574.267 66.1768 574.684 65.8555 575.538 65.8008L577.062 65.6982V66.2588C577.062 67.0518 576.365 67.6602 575.442 67.6602ZM587.651 64.0986C587.487 62.417 586.291 61.3096 584.295 61.3096C581.937 61.3096 580.61 62.7383 580.61 65.2197C580.61 67.7285 581.943 69.1572 584.295 69.1572C586.257 69.1572 587.487 68.0771 587.651 66.4229H585.792C585.642 67.1748 585.108 67.5781 584.295 67.5781C583.229 67.5781 582.62 66.7373 582.62 65.2197C582.62 63.7227 583.222 62.8955 584.295 62.8955C585.143 62.8955 585.655 63.374 585.792 64.0986H587.651ZM595.882 64.0986C595.718 62.417 594.521 61.3096 592.525 61.3096C590.167 61.3096 588.841 62.7383 588.841 65.2197C588.841 67.7285 590.174 69.1572 592.525 69.1572C594.487 69.1572 595.718 68.0771 595.882 66.4229H594.022C593.872 67.1748 593.339 67.5781 592.525 67.5781C591.459 67.5781 590.851 66.7373 590.851 65.2197C590.851 63.7227 591.452 62.8955 592.525 62.8955C593.373 62.8955 593.886 63.374 594.022 64.0986H595.882ZM600.783 69.1572C603.101 69.1572 604.495 67.6943 604.495 65.2334C604.495 62.793 603.08 61.3096 600.783 61.3096C598.486 61.3096 597.071 62.7998 597.071 65.2334C597.071 67.6875 598.466 69.1572 600.783 69.1572ZM600.783 67.585C599.717 67.585 599.115 66.7236 599.115 65.2334C599.115 63.7568 599.724 62.8887 600.783 62.8887C601.836 62.8887 602.451 63.7568 602.451 65.2334C602.451 66.7236 601.843 67.585 600.783 67.585ZM612.944 61.4736H610.955V65.8213C610.955 66.8535 610.422 67.4893 609.431 67.4893C608.515 67.4893 608.043 66.9492 608.043 65.8828V61.4736H606.054V66.375C606.054 68.125 607.065 69.1572 608.692 69.1572C609.834 69.1572 610.538 68.665 610.894 67.79H611.017V69H612.944V61.4736ZM614.94 69H616.93V64.6455C616.93 63.627 617.497 62.9707 618.42 62.9707C619.363 62.9707 619.808 63.5244 619.808 64.584V69H621.797V64.1328C621.797 62.335 620.895 61.3096 619.22 61.3096C618.105 61.3096 617.34 61.8359 616.991 62.6836H616.868V61.4736H614.94V69ZM624.299 59.6758V61.542H623.123V63.0527H624.299V66.9697C624.299 68.4326 625.023 69.0273 626.855 69.0273C627.238 69.0273 627.607 68.9863 627.854 68.9385V67.4688C627.662 67.4893 627.525 67.5029 627.266 67.5029C626.589 67.5029 626.288 67.1885 626.288 66.5117V63.0527H627.854V61.542H626.288V59.6758H624.299Z" fill="#3C4257"/>
<rect x="489" y="52" width="142" height="24" stroke="#F7FAFC" stroke-width="4"/>
<path d="M32 104C32 99.5817 35.5817 96 40 96H72C76.4183 96 80 99.5817 80 104V136C80 140.418 76.4183 144 72 144H40C35.5817 144 32 140.418 32 136V104Z" fill="white"/>
<path d="M56 150C72.5685 150 86 136.569 86 120C86 103.431 72.5685 90 56 90C39.4315 90 26 103.431 26 120C26 136.569 39.4315 150 56 150Z" fill="#7DABF8" stroke="white" stroke-width="12"/>
<path fill-rule="evenodd" clip-rule="evenodd" d="M66 115.5H46V114.562C46 113.7 46.5596 113 47.25 113H64.75C65.4404 113 66 113.7 66 114.562V115.5ZM66 118.625V126.75C66 127.44 65.4404 128 64.75 128H47.25C46.5596 128 46 127.44 46 126.75V118.625H66ZM51 123C50.3096 123 49.75 123.56 49.75 124.25C49.75 124.94 50.3096 125.5 51 125.5H52.25C52.9404 125.5 53.5 124.94 53.5 124.25C53.5 123.56 52.9404 123 52.25 123H51Z" fill="white"/>
<path d="M128 104C128 99.5817 131.582 96 136 96H376C380.418 96 384 99.5817 384 104V136C384 140.418 380.418 144 376 144H136C131.582 144 128 140.418 128 136V104Z" fill="white"/>
<path d="M226.938 124.85H227.641V123.836C229.023 123.73 230.172 122.963 230.172 121.551C230.172 120.32 229.328 119.699 227.822 119.336L227.641 119.295V116.629C228.432 116.729 228.994 117.191 229.07 117.982H230.09C230.049 116.688 228.994 115.832 227.641 115.709V114.695H226.938V115.715C225.549 115.838 224.559 116.67 224.559 117.93C224.559 119.084 225.344 119.734 226.803 120.086L226.938 120.121V122.916C225.924 122.805 225.473 122.248 225.367 121.516H224.348C224.389 122.881 225.543 123.707 226.938 123.83V124.85ZM225.578 117.859C225.578 117.291 226.047 116.752 226.938 116.635V119.125C225.93 118.879 225.578 118.434 225.578 117.859ZM227.676 120.297C228.836 120.578 229.152 120.988 229.152 121.633C229.152 122.307 228.73 122.84 227.641 122.922V120.291L227.676 120.297ZM234.133 124H235.188V115.545H234.139L231.889 117.162V118.275L234.039 116.717H234.133V124ZM240.555 124.199C242.453 124.199 243.543 122.594 243.543 119.787C243.543 116.986 242.436 115.346 240.555 115.346C238.662 115.346 237.555 116.98 237.555 119.77C237.555 122.582 238.65 124.199 240.555 124.199ZM240.555 123.279C239.307 123.279 238.615 122.031 238.615 119.77C238.615 117.537 239.318 116.271 240.555 116.271C241.791 116.271 242.482 117.525 242.482 119.77C242.482 122.037 241.803 123.279 240.555 123.279ZM252.197 124.199C253.996 124.199 255.332 123.197 255.613 121.645H254.541C254.271 122.623 253.375 123.227 252.197 123.227C250.568 123.227 249.549 121.896 249.549 119.775C249.549 117.654 250.568 116.318 252.191 116.318C253.357 116.318 254.26 117.004 254.541 118.094H255.613C255.361 116.465 253.973 115.346 252.191 115.346C249.895 115.346 248.465 117.045 248.465 119.775C248.465 122.5 249.9 124.199 252.197 124.199ZM257.312 124H258.32V120.262C258.32 119.195 258.941 118.48 260.072 118.48C261.027 118.48 261.531 119.037 261.531 120.156V124H262.539V119.91C262.539 118.428 261.695 117.572 260.359 117.572C259.393 117.572 258.73 117.982 258.414 118.68H258.32V115.176H257.312V124ZM266.137 124.111C266.98 124.111 267.672 123.742 268.082 123.068H268.176V124H269.137V119.676C269.137 118.363 268.275 117.572 266.734 117.572C265.387 117.572 264.391 118.24 264.256 119.254H265.275C265.416 118.756 265.943 118.469 266.699 118.469C267.643 118.469 268.129 118.896 268.129 119.676V120.25L266.307 120.361C264.836 120.449 264.004 121.1 264.004 122.23C264.004 123.385 264.912 124.111 266.137 124.111ZM266.324 123.227C265.592 123.227 265.047 122.852 265.047 122.207C265.047 121.574 265.469 121.24 266.43 121.176L268.129 121.064V121.645C268.129 122.547 267.361 123.227 266.324 123.227ZM271 124H272.008V120.086C272.008 119.195 272.705 118.551 273.666 118.551C273.865 118.551 274.229 118.586 274.311 118.609V117.602C274.182 117.584 273.971 117.572 273.807 117.572C272.969 117.572 272.242 118.006 272.055 118.621H271.961V117.684H271V124ZM277.996 126.426C279.719 126.426 280.809 125.523 280.809 124.111V117.684H279.848V118.686H279.754C279.391 118.006 278.611 117.572 277.727 117.572C276.104 117.572 275.078 118.855 275.078 120.748C275.078 122.641 276.092 123.906 277.727 123.906C278.594 123.906 279.309 123.514 279.707 122.816H279.801V124.059C279.801 124.99 279.127 125.547 277.996 125.547C277.088 125.547 276.525 125.213 276.414 124.697H275.348C275.5 125.74 276.473 126.426 277.996 126.426ZM277.949 123.016C276.777 123.016 276.121 122.125 276.121 120.748C276.121 119.371 276.777 118.48 277.949 118.48C279.115 118.48 279.824 119.371 279.824 120.748C279.824 122.125 279.121 123.016 277.949 123.016ZM286.891 122.365C286.627 122.922 286.076 123.221 285.262 123.221C284.189 123.221 283.492 122.43 283.439 121.182V121.135H287.98V120.748C287.98 118.785 286.943 117.572 285.238 117.572C283.504 117.572 282.391 118.861 282.391 120.848C282.391 122.846 283.486 124.111 285.238 124.111C286.621 124.111 287.605 123.443 287.898 122.365H286.891ZM285.227 118.463C286.229 118.463 286.896 119.201 286.92 120.32H283.439C283.516 119.201 284.219 118.463 285.227 118.463Z" fill="#3C4257"/>
<rect x="128.5" y="96.5" width="255" height="47" rx="7.5" stroke="#E3E8EE"/>
<path d="M128 184C128 179.582 131.582 176 136 176H376C380.418 176 384 179.582 384 184V216C384 220.418 380.418 224 376 224H136C131.582 224 128 220.418 128 216V184Z" fill="white"/>
<path d="M224.031 204.85H224.734V203.836C226.117 203.73 227.266 202.963 227.266 201.551C227.266 200.32 226.422 199.699 224.916 199.336L224.734 199.295V196.629C225.525 196.729 226.088 197.191 226.164 197.982H227.184C227.143 196.688 226.088 195.832 224.734 195.709V194.695H224.031V195.715C222.643 195.838 221.652 196.67 221.652 197.93C221.652 199.084 222.438 199.734 223.896 200.086L224.031 200.121V202.916C223.018 202.805 222.566 202.248 222.461 201.516H221.441C221.482 202.881 222.637 203.707 224.031 203.83V204.85ZM222.672 197.859C222.672 197.291 223.141 196.752 224.031 196.635V199.125C223.023 198.879 222.672 198.434 222.672 197.859ZM224.77 200.297C225.93 200.578 226.246 200.988 226.246 201.633C226.246 202.307 225.824 202.84 224.734 202.922V200.291L224.77 200.297ZM231.227 204H232.281V195.545H231.232L228.982 197.162V198.275L231.133 196.717H231.227V204ZM237.648 204.199C239.547 204.199 240.637 202.594 240.637 199.787C240.637 196.986 239.529 195.346 237.648 195.346C235.756 195.346 234.648 196.98 234.648 199.77C234.648 202.582 235.744 204.199 237.648 204.199ZM237.648 203.279C236.4 203.279 235.709 202.031 235.709 199.77C235.709 197.537 236.412 196.271 237.648 196.271C238.885 196.271 239.576 197.525 239.576 199.77C239.576 202.037 238.896 203.279 237.648 203.279ZM249.139 204V196.494H251.863V195.545H245.359V196.494H248.084V204H249.139ZM252.484 204H253.492V200.086C253.492 199.195 254.189 198.551 255.15 198.551C255.35 198.551 255.713 198.586 255.795 198.609V197.602C255.666 197.584 255.455 197.572 255.291 197.572C254.453 197.572 253.727 198.006 253.539 198.621H253.445V197.684H252.484V204ZM258.812 204.111C259.656 204.111 260.348 203.742 260.758 203.068H260.852V204H261.812V199.676C261.812 198.363 260.951 197.572 259.41 197.572C258.062 197.572 257.066 198.24 256.932 199.254H257.951C258.092 198.756 258.619 198.469 259.375 198.469C260.318 198.469 260.805 198.896 260.805 199.676V200.25L258.982 200.361C257.512 200.449 256.68 201.1 256.68 202.23C256.68 203.385 257.588 204.111 258.812 204.111ZM259 203.227C258.268 203.227 257.723 202.852 257.723 202.207C257.723 201.574 258.145 201.24 259.105 201.176L260.805 201.064V201.645C260.805 202.547 260.037 203.227 259 203.227ZM263.676 204H264.684V200.262C264.684 199.154 265.334 198.48 266.342 198.48C267.35 198.48 267.83 199.02 267.83 200.156V204H268.838V199.91C268.838 198.41 268.047 197.572 266.629 197.572C265.662 197.572 265.047 197.982 264.73 198.68H264.637V197.684H263.676V204ZM270.537 199.412C270.537 200.326 271.076 200.836 272.26 201.123L273.344 201.387C274.018 201.551 274.346 201.844 274.346 202.277C274.346 202.857 273.736 203.262 272.887 203.262C272.078 203.262 271.574 202.922 271.404 202.389H270.367C270.479 203.438 271.445 204.111 272.852 204.111C274.287 204.111 275.383 203.332 275.383 202.201C275.383 201.293 274.809 200.777 273.619 200.49L272.646 200.256C271.902 200.074 271.551 199.805 271.551 199.371C271.551 198.809 272.137 198.428 272.887 198.428C273.648 198.428 274.141 198.762 274.275 199.266H275.271C275.137 198.229 274.217 197.572 272.893 197.572C271.551 197.572 270.537 198.363 270.537 199.412ZM277.387 204H278.395V198.527H279.842V197.684H278.395V197.01C278.395 196.318 278.699 195.967 279.426 195.967C279.607 195.967 279.777 195.973 279.9 195.996V195.176C279.689 195.135 279.467 195.117 279.221 195.117C278.02 195.117 277.387 195.721 277.387 196.98V197.684H276.338V198.527H277.387V204ZM285.227 202.365C284.963 202.922 284.412 203.221 283.598 203.221C282.525 203.221 281.828 202.43 281.775 201.182V201.135H286.316V200.748C286.316 198.785 285.279 197.572 283.574 197.572C281.84 197.572 280.727 198.861 280.727 200.848C280.727 202.846 281.822 204.111 283.574 204.111C284.957 204.111 285.941 203.443 286.234 202.365H285.227ZM283.562 198.463C284.564 198.463 285.232 199.201 285.256 200.32H281.775C281.852 199.201 282.555 198.463 283.562 198.463ZM287.898 204H288.906V200.086C288.906 199.195 289.604 198.551 290.564 198.551C290.764 198.551 291.127 198.586 291.209 198.609V197.602C291.08 197.584 290.869 197.572 290.705 197.572C289.867 197.572 289.141 198.006 288.953 198.621H288.859V197.684H287.898V204Z" fill="#3C4257"/>
<rect x="128.5" y="176.5" width="255" height="47" rx="7.5" stroke="#E3E8EE"/>
<path d="M128 264C128 259.582 131.582 256 136 256H376C380.418 256 384 259.582 384 264V296C384 300.418 380.418 304 376 304H136C131.582 304 128 300.418 128 296V264Z" fill="white"/>
<path d="M199.955 284.85H200.658V283.836C202.041 283.73 203.189 282.963 203.189 281.551C203.189 280.32 202.346 279.699 200.84 279.336L200.658 279.295V276.629C201.449 276.729 202.012 277.191 202.088 277.982H203.107C203.066 276.688 202.012 275.832 200.658 275.709V274.695H199.955V275.715C198.566 275.838 197.576 276.67 197.576 277.93C197.576 279.084 198.361 279.734 199.82 280.086L199.955 280.121V282.916C198.941 282.805 198.49 282.248 198.385 281.516H197.365C197.406 282.881 198.561 283.707 199.955 283.83V284.85ZM198.596 277.859C198.596 277.291 199.064 276.752 199.955 276.635V279.125C198.947 278.879 198.596 278.434 198.596 277.859ZM200.693 280.297C201.854 280.578 202.17 280.988 202.17 281.633C202.17 282.307 201.748 282.84 200.658 282.922V280.291L200.693 280.297ZM207.15 284H208.205V275.545H207.156L204.906 277.162V278.275L207.057 276.717H207.15V284ZM211.275 284.059C211.697 284.059 212.037 283.713 212.037 283.297C212.037 282.875 211.697 282.535 211.275 282.535C210.859 282.535 210.514 282.875 210.514 283.297C210.514 283.713 210.859 284.059 211.275 284.059ZM213.713 277.93H214.732C214.732 276.928 215.406 276.266 216.42 276.266C217.416 276.266 218.02 276.934 218.02 277.83C218.02 278.574 217.703 279.014 216.625 280.18L213.766 283.273V284H219.238V283.051H215.23V282.957L217.152 280.971C218.676 279.395 219.098 278.691 219.098 277.719C219.098 276.348 217.967 275.346 216.49 275.346C214.873 275.346 213.713 276.424 213.713 277.93ZM222.795 280.104H223.844C225.033 280.104 225.766 280.713 225.766 281.691C225.766 282.641 224.975 283.279 223.861 283.279C222.771 283.279 222.01 282.711 221.916 281.82H220.896C220.973 283.256 222.156 284.199 223.873 284.199C225.555 284.199 226.85 283.139 226.85 281.721C226.85 280.543 226.123 279.799 225.027 279.623V279.529C225.895 279.277 226.527 278.604 226.533 277.584C226.539 276.4 225.578 275.346 223.908 275.346C222.197 275.346 221.148 276.359 221.043 277.736H222.068C222.156 276.787 222.818 276.266 223.838 276.266C224.857 276.266 225.461 276.91 225.461 277.701C225.461 278.58 224.77 279.201 223.797 279.201H222.795V280.104ZM237.561 284H238.668L235.551 275.545H234.508L231.391 284H232.498L233.348 281.58H236.711L237.561 284ZM234.982 276.91H235.076L236.4 280.684H233.658L234.982 276.91ZM243.098 277.572C242.236 277.572 241.48 278.012 241.076 278.738H240.982V277.684H240.021V286.109H241.029V283.051H241.123C241.469 283.719 242.195 284.111 243.098 284.111C244.703 284.111 245.752 282.816 245.752 280.842C245.752 278.855 244.709 277.572 243.098 277.572ZM242.857 283.203C241.721 283.203 241 282.289 241 280.842C241 279.389 241.721 278.48 242.863 278.48C244.018 278.48 244.709 279.365 244.709 280.842C244.709 282.318 244.018 283.203 242.857 283.203ZM250.41 277.572C249.549 277.572 248.793 278.012 248.389 278.738H248.295V277.684H247.334V286.109H248.342V283.051H248.436C248.781 283.719 249.508 284.111 250.41 284.111C252.016 284.111 253.064 282.816 253.064 280.842C253.064 278.855 252.021 277.572 250.41 277.572ZM250.17 283.203C249.033 283.203 248.312 282.289 248.312 280.842C248.312 279.389 249.033 278.48 250.176 278.48C251.33 278.48 252.021 279.365 252.021 280.842C252.021 282.318 251.33 283.203 250.17 283.203ZM254.705 284H255.713V275.176H254.705V284ZM258.197 276.465C258.584 276.465 258.9 276.148 258.9 275.762C258.9 275.375 258.584 275.059 258.197 275.059C257.811 275.059 257.494 275.375 257.494 275.762C257.494 276.148 257.811 276.465 258.197 276.465ZM257.693 284H258.701V277.684H257.693V284ZM265.85 279.617C265.674 278.492 264.736 277.572 263.201 277.572C261.432 277.572 260.307 278.85 260.307 280.818C260.307 282.828 261.438 284.111 263.207 284.111C264.725 284.111 265.668 283.256 265.85 282.096H264.83C264.643 282.811 264.051 283.203 263.201 283.203C262.076 283.203 261.35 282.277 261.35 280.818C261.35 279.389 262.064 278.48 263.201 278.48C264.109 278.48 264.666 278.99 264.83 279.617H265.85ZM269.096 284.111C269.939 284.111 270.631 283.742 271.041 283.068H271.135V284H272.096V279.676C272.096 278.363 271.234 277.572 269.693 277.572C268.346 277.572 267.35 278.24 267.215 279.254H268.234C268.375 278.756 268.902 278.469 269.658 278.469C270.602 278.469 271.088 278.896 271.088 279.676V280.25L269.266 280.361C267.795 280.449 266.963 281.1 266.963 282.23C266.963 283.385 267.871 284.111 269.096 284.111ZM269.283 283.227C268.551 283.227 268.006 282.852 268.006 282.207C268.006 281.574 268.428 281.24 269.389 281.176L271.088 281.064V281.645C271.088 282.547 270.32 283.227 269.283 283.227ZM274.381 276.049V277.684H273.361V278.527H274.381V282.359C274.381 283.566 274.902 284.047 276.203 284.047C276.402 284.047 276.596 284.023 276.795 283.988V283.139C276.607 283.156 276.508 283.162 276.326 283.162C275.67 283.162 275.389 282.846 275.389 282.102V278.527H276.795V277.684H275.389V276.049H274.381ZM278.846 276.465C279.232 276.465 279.549 276.148 279.549 275.762C279.549 275.375 279.232 275.059 278.846 275.059C278.459 275.059 278.143 275.375 278.143 275.762C278.143 276.148 278.459 276.465 278.846 276.465ZM278.342 284H279.35V277.684H278.342V284ZM283.867 284.111C285.666 284.111 286.779 282.869 286.779 280.842C286.779 278.809 285.666 277.572 283.867 277.572C282.068 277.572 280.955 278.809 280.955 280.842C280.955 282.869 282.068 284.111 283.867 284.111ZM283.867 283.203C282.672 283.203 281.998 282.336 281.998 280.842C281.998 279.342 282.672 278.48 283.867 278.48C285.062 278.48 285.736 279.342 285.736 280.842C285.736 282.336 285.062 283.203 283.867 283.203ZM288.361 284H289.369V280.262C289.369 279.154 290.02 278.48 291.027 278.48C292.035 278.48 292.516 279.02 292.516 280.156V284H293.523V279.91C293.523 278.41 292.732 277.572 291.314 277.572C290.348 277.572 289.732 277.982 289.416 278.68H289.322V277.684H288.361V284ZM299.178 284H300.186V278.527H301.633V277.684H300.186V277.01C300.186 276.318 300.49 275.967 301.217 275.967C301.398 275.967 301.568 275.973 301.691 275.996V275.176C301.48 275.135 301.258 275.117 301.012 275.117C299.811 275.117 299.178 275.721 299.178 276.98V277.684H298.129V278.527H299.178V284ZM307.018 282.365C306.754 282.922 306.203 283.221 305.389 283.221C304.316 283.221 303.619 282.43 303.566 281.182V281.135H308.107V280.748C308.107 278.785 307.07 277.572 305.365 277.572C303.631 277.572 302.518 278.861 302.518 280.848C302.518 282.846 303.613 284.111 305.365 284.111C306.748 284.111 307.732 283.443 308.025 282.365H307.018ZM305.354 278.463C306.355 278.463 307.023 279.201 307.047 280.32H303.566C303.643 279.201 304.346 278.463 305.354 278.463ZM313.873 282.365C313.609 282.922 313.059 283.221 312.244 283.221C311.172 283.221 310.475 282.43 310.422 281.182V281.135H314.963V280.748C314.963 278.785 313.926 277.572 312.221 277.572C310.486 277.572 309.373 278.861 309.373 280.848C309.373 282.846 310.469 284.111 312.221 284.111C313.604 284.111 314.588 283.443 314.881 282.365H313.873ZM312.209 278.463C313.211 278.463 313.879 279.201 313.902 280.32H310.422C310.498 279.201 311.201 278.463 312.209 278.463Z" fill="#3C4257"/>
<rect x="128.5" y="256.5" width="255" height="47" rx="7.5" stroke="#E3E8EE"/>
<path d="M128 344C128 339.582 131.582 336 136 336H376C380.418 336 384 339.582 384 344V376C384 380.418 380.418 384 376 384H136C131.582 384 128 380.418 128 376V344Z" fill="white"/>
<path d="M203.998 360.484C203.998 362.6 204.537 364.311 205.662 365.799H206.518C205.68 364.732 205.035 362.477 205.035 360.484C205.035 358.504 205.686 356.242 206.518 355.176H205.662C204.537 356.664 203.998 358.375 203.998 360.484ZM210.713 364.85H211.416V363.836C212.799 363.73 213.947 362.963 213.947 361.551C213.947 360.32 213.104 359.699 211.598 359.336L211.416 359.295V356.629C212.207 356.729 212.77 357.191 212.846 357.982H213.865C213.824 356.688 212.77 355.832 211.416 355.709V354.695H210.713V355.715C209.324 355.838 208.334 356.67 208.334 357.93C208.334 359.084 209.119 359.734 210.578 360.086L210.713 360.121V362.916C209.699 362.805 209.248 362.248 209.143 361.516H208.123C208.164 362.881 209.318 363.707 210.713 363.83V364.85ZM209.354 357.859C209.354 357.291 209.822 356.752 210.713 356.635V359.125C209.705 358.879 209.354 358.434 209.354 357.859ZM211.451 360.297C212.611 360.578 212.928 360.988 212.928 361.633C212.928 362.307 212.506 362.84 211.416 362.922V360.291L211.451 360.297ZM218.729 364.199C220.627 364.199 221.717 362.594 221.717 359.787C221.717 356.986 220.609 355.346 218.729 355.346C216.836 355.346 215.729 356.98 215.729 359.77C215.729 362.582 216.824 364.199 218.729 364.199ZM218.729 363.279C217.48 363.279 216.789 362.031 216.789 359.77C216.789 357.537 217.492 356.271 218.729 356.271C219.965 356.271 220.656 357.525 220.656 359.77C220.656 362.037 219.977 363.279 218.729 363.279ZM223.814 364.059C224.236 364.059 224.576 363.713 224.576 363.297C224.576 362.875 224.236 362.535 223.814 362.535C223.398 362.535 223.053 362.875 223.053 363.297C223.053 363.713 223.398 364.059 223.814 364.059ZM228.965 364.199C230.693 364.199 231.871 363.004 231.871 361.264C231.871 359.588 230.699 358.475 229.281 358.475C228.438 358.475 227.811 358.732 227.4 359.242H227.307L227.57 356.488H231.438V355.545H226.744L226.258 360.379H227.248C227.582 359.752 228.215 359.383 229.018 359.383C230.084 359.383 230.816 360.15 230.816 361.293C230.816 362.477 230.084 363.273 228.977 363.273C227.98 363.273 227.254 362.67 227.16 361.768H226.123C226.217 363.215 227.365 364.199 228.965 364.199ZM236.283 364.193C238.352 364.193 239.535 362.529 239.535 359.623C239.535 356.746 238.176 355.346 236.354 355.346C234.619 355.346 233.389 356.559 233.389 358.258C233.389 359.898 234.555 361.088 236.166 361.088C237.174 361.088 238 360.607 238.416 359.787H238.51C238.451 362.037 237.672 363.256 236.295 363.256C235.463 363.256 234.818 362.793 234.596 362.031H233.512C233.775 363.361 234.848 364.193 236.283 364.193ZM236.354 360.174C235.234 360.174 234.455 359.377 234.455 358.223C234.455 357.115 235.281 356.271 236.365 356.271C237.449 356.271 238.275 357.127 238.275 358.258C238.275 359.377 237.473 360.174 236.354 360.174ZM243.455 360.49C243.455 358.375 242.916 356.664 241.791 355.176H240.936C241.773 356.242 242.418 358.498 242.418 360.49C242.418 362.471 241.768 364.732 240.936 365.799H241.791C242.916 364.311 243.455 362.6 243.455 360.49ZM248.934 361.791C249.045 363.25 250.281 364.199 252.074 364.199C254.008 364.199 255.232 363.209 255.232 361.656C255.232 360.414 254.529 359.734 252.777 359.295L251.893 359.061C250.727 358.762 250.264 358.381 250.264 357.719C250.264 356.863 251.008 356.301 252.133 356.301C253.188 356.301 253.902 356.816 254.049 357.684H255.109C255.021 356.318 253.803 355.346 252.168 355.346C250.381 355.346 249.18 356.318 249.18 357.754C249.18 358.955 249.842 359.646 251.371 360.033L252.455 360.314C253.621 360.607 254.148 361.064 254.148 361.785C254.148 362.623 253.311 363.238 252.174 363.238C250.973 363.238 250.129 362.676 250 361.791H248.934ZM257.283 356.049V357.684H256.264V358.527H257.283V362.359C257.283 363.566 257.805 364.047 259.105 364.047C259.305 364.047 259.498 364.023 259.697 363.988V363.139C259.51 363.156 259.41 363.162 259.229 363.162C258.572 363.162 258.291 362.846 258.291 362.102V358.527H259.697V357.684H258.291V356.049H257.283ZM261.221 364H262.229V360.086C262.229 359.195 262.926 358.551 263.887 358.551C264.086 358.551 264.449 358.586 264.531 358.609V357.602C264.402 357.584 264.191 357.572 264.027 357.572C263.189 357.572 262.463 358.006 262.275 358.621H262.182V357.684H261.221V364ZM266.318 356.465C266.705 356.465 267.021 356.148 267.021 355.762C267.021 355.375 266.705 355.059 266.318 355.059C265.932 355.059 265.615 355.375 265.615 355.762C265.615 356.148 265.932 356.465 266.318 356.465ZM265.814 364H266.822V357.684H265.814V364ZM271.82 357.572C270.959 357.572 270.203 358.012 269.799 358.738H269.705V357.684H268.744V366.109H269.752V363.051H269.846C270.191 363.719 270.918 364.111 271.82 364.111C273.426 364.111 274.475 362.816 274.475 360.842C274.475 358.855 273.432 357.572 271.82 357.572ZM271.58 363.203C270.443 363.203 269.723 362.289 269.723 360.842C269.723 359.389 270.443 358.48 271.586 358.48C272.74 358.48 273.432 359.365 273.432 360.842C273.432 362.318 272.74 363.203 271.58 363.203ZM280.24 362.365C279.977 362.922 279.426 363.221 278.611 363.221C277.539 363.221 276.842 362.43 276.789 361.182V361.135H281.33V360.748C281.33 358.785 280.293 357.572 278.588 357.572C276.854 357.572 275.74 358.861 275.74 360.848C275.74 362.846 276.836 364.111 278.588 364.111C279.971 364.111 280.955 363.443 281.248 362.365H280.24ZM278.576 358.463C279.578 358.463 280.246 359.201 280.27 360.32H276.789C276.865 359.201 277.568 358.463 278.576 358.463ZM286.721 364H287.729V358.527H289.176V357.684H287.729V357.01C287.729 356.318 288.033 355.967 288.76 355.967C288.941 355.967 289.111 355.973 289.234 355.996V355.176C289.023 355.135 288.801 355.117 288.555 355.117C287.354 355.117 286.721 355.721 286.721 356.98V357.684H285.672V358.527H286.721V364ZM294.561 362.365C294.297 362.922 293.746 363.221 292.932 363.221C291.859 363.221 291.162 362.43 291.109 361.182V361.135H295.65V360.748C295.65 358.785 294.613 357.572 292.908 357.572C291.174 357.572 290.061 358.861 290.061 360.848C290.061 362.846 291.156 364.111 292.908 364.111C294.291 364.111 295.275 363.443 295.568 362.365H294.561ZM292.896 358.463C293.898 358.463 294.566 359.201 294.59 360.32H291.109C291.186 359.201 291.889 358.463 292.896 358.463ZM301.416 362.365C301.152 362.922 300.602 363.221 299.787 363.221C298.715 363.221 298.018 362.43 297.965 361.182V361.135H302.506V360.748C302.506 358.785 301.469 357.572 299.764 357.572C298.029 357.572 296.916 358.861 296.916 360.848C296.916 362.846 298.012 364.111 299.764 364.111C301.146 364.111 302.131 363.443 302.424 362.365H301.416ZM299.752 358.463C300.754 358.463 301.422 359.201 301.445 360.32H297.965C298.041 359.201 298.744 358.463 299.752 358.463ZM303.941 359.412C303.941 360.326 304.48 360.836 305.664 361.123L306.748 361.387C307.422 361.551 307.75 361.844 307.75 362.277C307.75 362.857 307.141 363.262 306.291 363.262C305.482 363.262 304.979 362.922 304.809 362.389H303.771C303.883 363.438 304.85 364.111 306.256 364.111C307.691 364.111 308.787 363.332 308.787 362.201C308.787 361.293 308.213 360.777 307.023 360.49L306.051 360.256C305.307 360.074 304.955 359.805 304.955 359.371C304.955 358.809 305.541 358.428 306.291 358.428C307.053 358.428 307.545 358.762 307.68 359.266H308.676C308.541 358.229 307.621 357.572 306.297 357.572C304.955 357.572 303.941 358.363 303.941 359.412Z" fill="#3C4257"/>
<rect x="128.5" y="336.5" width="255" height="47" rx="7.5" stroke="#E3E8EE"/>
<path d="M128 424C128 419.582 131.582 416 136 416H376C380.418 416 384 419.582 384 424V456C384 460.418 380.418 464 376 464H136C131.582 464 128 460.418 128 456V424Z" fill="white"/>
<path d="M232.076 444.85H232.779V443.836C234.162 443.73 235.311 442.963 235.311 441.551C235.311 440.32 234.467 439.699 232.961 439.336L232.779 439.295V436.629C233.57 436.729 234.133 437.191 234.209 437.982H235.229C235.188 436.688 234.133 435.832 232.779 435.709V434.695H232.076V435.715C230.688 435.838 229.697 436.67 229.697 437.93C229.697 439.084 230.482 439.734 231.941 440.086L232.076 440.121V442.916C231.062 442.805 230.611 442.248 230.506 441.516H229.486C229.527 442.881 230.682 443.707 232.076 443.83V444.85ZM230.717 437.859C230.717 437.291 231.186 436.752 232.076 436.635V439.125C231.068 438.879 230.717 438.434 230.717 437.859ZM232.814 440.297C233.975 440.578 234.291 440.988 234.291 441.633C234.291 442.307 233.869 442.84 232.779 442.922V440.291L232.814 440.297ZM240.092 444.199C241.99 444.199 243.08 442.594 243.08 439.787C243.08 436.986 241.973 435.346 240.092 435.346C238.199 435.346 237.092 436.98 237.092 439.77C237.092 442.582 238.188 444.199 240.092 444.199ZM240.092 443.279C238.844 443.279 238.152 442.031 238.152 439.77C238.152 437.537 238.855 436.271 240.092 436.271C241.328 436.271 242.02 437.525 242.02 439.77C242.02 442.037 241.34 443.279 240.092 443.279ZM245.178 444.059C245.6 444.059 245.939 443.713 245.939 443.297C245.939 442.875 245.6 442.535 245.178 442.535C244.762 442.535 244.416 442.875 244.416 443.297C244.416 443.713 244.762 444.059 245.178 444.059ZM250.422 444.193C252.156 444.193 253.387 442.98 253.387 441.281C253.387 439.641 252.221 438.451 250.609 438.451C249.602 438.451 248.775 438.932 248.359 439.752H248.266C248.301 437.455 249.121 436.283 250.527 436.283C251.383 436.283 252.004 436.723 252.18 437.508H253.264C253.047 436.195 252.033 435.346 250.492 435.346C248.494 435.346 247.24 437.01 247.24 439.916C247.24 442.764 248.582 444.193 250.422 444.193ZM250.41 443.268C249.326 443.268 248.5 442.412 248.5 441.281C248.5 440.162 249.303 439.365 250.422 439.365C251.541 439.365 252.32 440.162 252.32 441.316C252.32 442.424 251.494 443.268 250.41 443.268ZM258.947 444H259.979V442.248H261.18V441.305H259.979V435.545H258.449C257.266 437.309 255.971 439.371 254.828 441.287V442.248H258.947V444ZM255.906 441.24C256.826 439.688 257.934 437.941 258.883 436.523H258.953V441.311H255.906V441.24ZM266.201 444H267.209V440.262C267.209 439.154 267.859 438.48 268.867 438.48C269.875 438.48 270.355 439.02 270.355 440.156V444H271.363V439.91C271.363 438.41 270.572 437.572 269.154 437.572C268.188 437.572 267.572 437.982 267.256 438.68H267.162V437.684H266.201V444ZM277.393 442.365C277.129 442.922 276.578 443.221 275.764 443.221C274.691 443.221 273.994 442.43 273.941 441.182V441.135H278.482V440.748C278.482 438.785 277.445 437.572 275.74 437.572C274.006 437.572 272.893 438.861 272.893 440.848C272.893 442.846 273.988 444.111 275.74 444.111C277.123 444.111 278.107 443.443 278.4 442.365H277.393ZM275.729 438.463C276.73 438.463 277.398 439.201 277.422 440.32H273.941C274.018 439.201 274.721 438.463 275.729 438.463ZM280.486 436.049V437.684H279.467V438.527H280.486V442.359C280.486 443.566 281.008 444.047 282.309 444.047C282.508 444.047 282.701 444.023 282.9 443.988V443.139C282.713 443.156 282.613 443.162 282.432 443.162C281.775 443.162 281.494 442.846 281.494 442.102V438.527H282.9V437.684H281.494V436.049H280.486Z" fill="#3C4257"/>
<rect x="128.5" y="416.5" width="255" height="47" rx="7.5" stroke="#E3E8EE"/>
<path d="M432 184C432 179.582 435.582 176 440 176H680C684.418 176 688 179.582 688 184V216C688 220.418 684.418 224 680 224H440C435.582 224 432 220.418 432 216V184Z" fill="white"/>
<path d="M526.906 204.85H527.609V203.836C528.992 203.73 530.141 202.963 530.141 201.551C530.141 200.32 529.297 199.699 527.791 199.336L527.609 199.295V196.629C528.4 196.729 528.963 197.191 529.039 197.982H530.059C530.018 196.688 528.963 195.832 527.609 195.709V194.695H526.906V195.715C525.518 195.838 524.527 196.67 524.527 197.93C524.527 199.084 525.312 199.734 526.771 200.086L526.906 200.121V202.916C525.893 202.805 525.441 202.248 525.336 201.516H524.316C524.357 202.881 525.512 203.707 526.906 203.83V204.85ZM525.547 197.859C525.547 197.291 526.016 196.752 526.906 196.635V199.125C525.898 198.879 525.547 198.434 525.547 197.859ZM527.645 200.297C528.805 200.578 529.121 200.988 529.121 201.633C529.121 202.307 528.699 202.84 527.609 202.922V200.291L527.645 200.297ZM534.102 204H535.156V195.545H534.107L531.857 197.162V198.275L534.008 196.717H534.102V204ZM540.523 204.199C542.422 204.199 543.512 202.594 543.512 199.787C543.512 196.986 542.404 195.346 540.523 195.346C538.631 195.346 537.523 196.98 537.523 199.77C537.523 202.582 538.619 204.199 540.523 204.199ZM540.523 203.279C539.275 203.279 538.584 202.031 538.584 199.77C538.584 197.537 539.287 196.271 540.523 196.271C541.76 196.271 542.451 197.525 542.451 199.77C542.451 202.037 541.771 203.279 540.523 203.279ZM548.762 195.545V204H549.816V200.982H551.943C553.531 200.982 554.662 199.863 554.662 198.281C554.662 196.67 553.555 195.545 551.955 195.545H548.762ZM549.816 196.482H551.68C552.904 196.482 553.578 197.121 553.578 198.281C553.578 199.4 552.881 200.045 551.68 200.045H549.816V196.482ZM557.785 204.111C558.629 204.111 559.32 203.742 559.73 203.068H559.824V204H560.785V199.676C560.785 198.363 559.924 197.572 558.383 197.572C557.035 197.572 556.039 198.24 555.904 199.254H556.924C557.064 198.756 557.592 198.469 558.348 198.469C559.291 198.469 559.777 198.896 559.777 199.676V200.25L557.955 200.361C556.484 200.449 555.652 201.1 555.652 202.23C555.652 203.385 556.561 204.111 557.785 204.111ZM557.973 203.227C557.24 203.227 556.695 202.852 556.695 202.207C556.695 201.574 557.117 201.24 558.078 201.176L559.777 201.064V201.645C559.777 202.547 559.01 203.227 557.973 203.227ZM562.953 206.285C564.072 206.285 564.576 205.852 565.115 204.387L567.582 197.684H566.51L564.781 202.881H564.688L562.953 197.684H561.863L564.201 204.006L564.084 204.381C563.82 205.143 563.504 205.418 562.924 205.418C562.783 205.418 562.625 205.412 562.502 205.389V206.25C562.643 206.273 562.818 206.285 562.953 206.285ZM568.93 204H569.938V200.086C569.938 199.195 570.576 198.48 571.402 198.48C572.199 198.48 572.721 198.961 572.721 199.711V204H573.729V199.939C573.729 199.137 574.314 198.48 575.193 198.48C576.084 198.48 576.523 198.938 576.523 199.869V204H577.531V199.635C577.531 198.311 576.811 197.572 575.521 197.572C574.648 197.572 573.928 198.012 573.588 198.68H573.494C573.201 198.023 572.604 197.572 571.748 197.572C570.904 197.572 570.271 197.977 569.984 198.68H569.891V197.684H568.93V204ZM583.555 202.365C583.291 202.922 582.74 203.221 581.926 203.221C580.854 203.221 580.156 202.43 580.104 201.182V201.135H584.645V200.748C584.645 198.785 583.607 197.572 581.902 197.572C580.168 197.572 579.055 198.861 579.055 200.848C579.055 202.846 580.15 204.111 581.902 204.111C583.285 204.111 584.27 203.443 584.562 202.365H583.555ZM581.891 198.463C582.893 198.463 583.561 199.201 583.584 200.32H580.104C580.18 199.201 580.883 198.463 581.891 198.463ZM586.227 204H587.234V200.262C587.234 199.154 587.885 198.48 588.893 198.48C589.9 198.48 590.381 199.02 590.381 200.156V204H591.389V199.91C591.389 198.41 590.598 197.572 589.18 197.572C588.213 197.572 587.598 197.982 587.281 198.68H587.188V197.684H586.227V204ZM593.656 196.049V197.684H592.637V198.527H593.656V202.359C593.656 203.566 594.178 204.047 595.479 204.047C595.678 204.047 595.871 204.023 596.07 203.988V203.139C595.883 203.156 595.783 203.162 595.602 203.162C594.945 203.162 594.664 202.846 594.664 202.102V198.527H596.07V197.684H594.664V196.049H593.656Z" fill="#3C4257"/>
<rect x="432.5" y="176.5" width="255" height="47" rx="7.5" stroke="#E3E8EE"/>
<path d="M432 264C432 259.582 435.582 256 440 256H680C684.418 256 688 259.582 688 264V296C688 300.418 684.418 304 680 304H440C435.582 304 432 300.418 432 296V264Z" fill="white"/>
<path d="M497.24 280.484C497.24 282.6 497.779 284.311 498.904 285.799H499.76C498.922 284.732 498.277 282.477 498.277 280.484C498.277 278.504 498.928 276.242 499.76 275.176H498.904C497.779 276.664 497.24 278.375 497.24 280.484ZM503.955 284.85H504.658V283.836C506.041 283.73 507.189 282.963 507.189 281.551C507.189 280.32 506.346 279.699 504.84 279.336L504.658 279.295V276.629C505.449 276.729 506.012 277.191 506.088 277.982H507.107C507.066 276.688 506.012 275.832 504.658 275.709V274.695H503.955V275.715C502.566 275.838 501.576 276.67 501.576 277.93C501.576 279.084 502.361 279.734 503.82 280.086L503.955 280.121V282.916C502.941 282.805 502.49 282.248 502.385 281.516H501.365C501.406 282.881 502.561 283.707 503.955 283.83V284.85ZM502.596 277.859C502.596 277.291 503.064 276.752 503.955 276.635V279.125C502.947 278.879 502.596 278.434 502.596 277.859ZM504.693 280.297C505.854 280.578 506.17 280.988 506.17 281.633C506.17 282.307 505.748 282.84 504.658 282.922V280.291L504.693 280.297ZM511.15 284H512.205V275.545H511.156L508.906 277.162V278.275L511.057 276.717H511.15V284ZM515.275 284.059C515.697 284.059 516.037 283.713 516.037 283.297C516.037 282.875 515.697 282.535 515.275 282.535C514.859 282.535 514.514 282.875 514.514 283.297C514.514 283.713 514.859 284.059 515.275 284.059ZM517.713 277.93H518.732C518.732 276.928 519.406 276.266 520.42 276.266C521.416 276.266 522.02 276.934 522.02 277.83C522.02 278.574 521.703 279.014 520.625 280.18L517.766 283.273V284H523.238V283.051H519.23V282.957L521.152 280.971C522.676 279.395 523.098 278.691 523.098 277.719C523.098 276.348 521.967 275.346 520.49 275.346C518.873 275.346 517.713 276.424 517.713 277.93ZM526.795 280.104H527.844C529.033 280.104 529.766 280.713 529.766 281.691C529.766 282.641 528.975 283.279 527.861 283.279C526.771 283.279 526.01 282.711 525.916 281.82H524.896C524.973 283.256 526.156 284.199 527.873 284.199C529.555 284.199 530.85 283.139 530.85 281.721C530.85 280.543 530.123 279.799 529.027 279.623V279.529C529.895 279.277 530.527 278.604 530.533 277.584C530.539 276.4 529.578 275.346 527.908 275.346C526.197 275.346 525.148 276.359 525.043 277.736H526.068C526.156 276.787 526.818 276.266 527.838 276.266C528.857 276.266 529.461 276.91 529.461 277.701C529.461 278.58 528.77 279.201 527.797 279.201H526.795V280.104ZM534.764 280.49C534.764 278.375 534.225 276.664 533.1 275.176H532.244C533.082 276.242 533.727 278.498 533.727 280.49C533.727 282.471 533.076 284.732 532.244 285.799H533.1C534.225 284.311 534.764 282.6 534.764 280.49ZM546.143 284H547.25L544.133 275.545H543.09L539.973 284H541.08L541.93 281.58H545.293L546.143 284ZM543.564 276.91H543.658L544.982 280.684H542.24L543.564 276.91ZM551.68 277.572C550.818 277.572 550.062 278.012 549.658 278.738H549.564V277.684H548.604V286.109H549.611V283.051H549.705C550.051 283.719 550.777 284.111 551.68 284.111C553.285 284.111 554.334 282.816 554.334 280.842C554.334 278.855 553.291 277.572 551.68 277.572ZM551.439 283.203C550.303 283.203 549.582 282.289 549.582 280.842C549.582 279.389 550.303 278.48 551.445 278.48C552.6 278.48 553.291 279.365 553.291 280.842C553.291 282.318 552.6 283.203 551.439 283.203ZM558.992 277.572C558.131 277.572 557.375 278.012 556.971 278.738H556.877V277.684H555.916V286.109H556.924V283.051H557.018C557.363 283.719 558.09 284.111 558.992 284.111C560.598 284.111 561.646 282.816 561.646 280.842C561.646 278.855 560.604 277.572 558.992 277.572ZM558.752 283.203C557.615 283.203 556.895 282.289 556.895 280.842C556.895 279.389 557.615 278.48 558.758 278.48C559.912 278.48 560.604 279.365 560.604 280.842C560.604 282.318 559.912 283.203 558.752 283.203ZM563.287 284H564.295V275.176H563.287V284ZM566.779 276.465C567.166 276.465 567.482 276.148 567.482 275.762C567.482 275.375 567.166 275.059 566.779 275.059C566.393 275.059 566.076 275.375 566.076 275.762C566.076 276.148 566.393 276.465 566.779 276.465ZM566.275 284H567.283V277.684H566.275V284ZM574.432 279.617C574.256 278.492 573.318 277.572 571.783 277.572C570.014 277.572 568.889 278.85 568.889 280.818C568.889 282.828 570.02 284.111 571.789 284.111C573.307 284.111 574.25 283.256 574.432 282.096H573.412C573.225 282.811 572.633 283.203 571.783 283.203C570.658 283.203 569.932 282.277 569.932 280.818C569.932 279.389 570.646 278.48 571.783 278.48C572.691 278.48 573.248 278.99 573.412 279.617H574.432ZM577.678 284.111C578.521 284.111 579.213 283.742 579.623 283.068H579.717V284H580.678V279.676C580.678 278.363 579.816 277.572 578.275 277.572C576.928 277.572 575.932 278.24 575.797 279.254H576.816C576.957 278.756 577.484 278.469 578.24 278.469C579.184 278.469 579.67 278.896 579.67 279.676V280.25L577.848 280.361C576.377 280.449 575.545 281.1 575.545 282.23C575.545 283.385 576.453 284.111 577.678 284.111ZM577.865 283.227C577.133 283.227 576.588 282.852 576.588 282.207C576.588 281.574 577.01 281.24 577.971 281.176L579.67 281.064V281.645C579.67 282.547 578.902 283.227 577.865 283.227ZM582.963 276.049V277.684H581.943V278.527H582.963V282.359C582.963 283.566 583.484 284.047 584.785 284.047C584.984 284.047 585.178 284.023 585.377 283.988V283.139C585.189 283.156 585.09 283.162 584.908 283.162C584.252 283.162 583.971 282.846 583.971 282.102V278.527H585.377V277.684H583.971V276.049H582.963ZM587.428 276.465C587.814 276.465 588.131 276.148 588.131 275.762C588.131 275.375 587.814 275.059 587.428 275.059C587.041 275.059 586.725 275.375 586.725 275.762C586.725 276.148 587.041 276.465 587.428 276.465ZM586.924 284H587.932V277.684H586.924V284ZM592.449 284.111C594.248 284.111 595.361 282.869 595.361 280.842C595.361 278.809 594.248 277.572 592.449 277.572C590.65 277.572 589.537 278.809 589.537 280.842C589.537 282.869 590.65 284.111 592.449 284.111ZM592.449 283.203C591.254 283.203 590.58 282.336 590.58 280.842C590.58 279.342 591.254 278.48 592.449 278.48C593.645 278.48 594.318 279.342 594.318 280.842C594.318 282.336 593.645 283.203 592.449 283.203ZM596.943 284H597.951V280.262C597.951 279.154 598.602 278.48 599.609 278.48C600.617 278.48 601.098 279.02 601.098 280.156V284H602.105V279.91C602.105 278.41 601.314 277.572 599.896 277.572C598.93 277.572 598.314 277.982 597.998 278.68H597.904V277.684H596.943V284ZM607.76 284H608.768V278.527H610.215V277.684H608.768V277.01C608.768 276.318 609.072 275.967 609.799 275.967C609.98 275.967 610.15 275.973 610.273 275.996V275.176C610.062 275.135 609.84 275.117 609.594 275.117C608.393 275.117 607.76 275.721 607.76 276.98V277.684H606.711V278.527H607.76V284ZM615.6 282.365C615.336 282.922 614.785 283.221 613.971 283.221C612.898 283.221 612.201 282.43 612.148 281.182V281.135H616.689V280.748C616.689 278.785 615.652 277.572 613.947 277.572C612.213 277.572 611.1 278.861 611.1 280.848C611.1 282.846 612.195 284.111 613.947 284.111C615.33 284.111 616.314 283.443 616.607 282.365H615.6ZM613.936 278.463C614.938 278.463 615.605 279.201 615.629 280.32H612.148C612.225 279.201 612.928 278.463 613.936 278.463ZM622.455 282.365C622.191 282.922 621.641 283.221 620.826 283.221C619.754 283.221 619.057 282.43 619.004 281.182V281.135H623.545V280.748C623.545 278.785 622.508 277.572 620.803 277.572C619.068 277.572 617.955 278.861 617.955 280.848C617.955 282.846 619.051 284.111 620.803 284.111C622.186 284.111 623.17 283.443 623.463 282.365H622.455ZM620.791 278.463C621.793 278.463 622.461 279.201 622.484 280.32H619.004C619.08 279.201 619.783 278.463 620.791 278.463Z" fill="#3C4257"/>
<rect x="432.5" y="256.5" width="255" height="47" rx="7.5" stroke="#E3E8EE"/>
<path d="M432 344C432 339.582 435.582 336 440 336H680C684.418 336 688 339.582 688 344V376C688 380.418 684.418 384 680 384H440C435.582 384 432 380.418 432 376V344Z" fill="white"/>
<path d="M536.486 364.85H537.189V363.836C538.572 363.73 539.721 362.963 539.721 361.551C539.721 360.32 538.877 359.699 537.371 359.336L537.189 359.295V356.629C537.98 356.729 538.543 357.191 538.619 357.982H539.639C539.598 356.688 538.543 355.832 537.189 355.709V354.695H536.486V355.715C535.098 355.838 534.107 356.67 534.107 357.93C534.107 359.084 534.893 359.734 536.352 360.086L536.486 360.121V362.916C535.473 362.805 535.021 362.248 534.916 361.516H533.896C533.938 362.881 535.092 363.707 536.486 363.83V364.85ZM535.127 357.859C535.127 357.291 535.596 356.752 536.486 356.635V359.125C535.479 358.879 535.127 358.434 535.127 357.859ZM537.225 360.297C538.385 360.578 538.701 360.988 538.701 361.633C538.701 362.307 538.279 362.84 537.189 362.922V360.291L537.225 360.297ZM544.549 364.199C546.342 364.199 547.596 363.186 547.596 361.738C547.596 360.637 546.898 359.781 545.838 359.582V359.488C546.711 359.248 547.25 358.527 547.25 357.602C547.25 356.283 546.131 355.346 544.549 355.346C542.967 355.346 541.848 356.283 541.848 357.602C541.848 358.521 542.398 359.254 543.26 359.488V359.582C542.199 359.781 541.502 360.637 541.502 361.738C541.502 363.186 542.756 364.199 544.549 364.199ZM544.549 359.137C543.553 359.137 542.885 358.562 542.885 357.701C542.885 356.828 543.547 356.248 544.549 356.248C545.551 356.248 546.213 356.828 546.213 357.701C546.213 358.562 545.545 359.137 544.549 359.137ZM544.549 363.297C543.377 363.297 542.568 362.629 542.568 361.662C542.568 360.695 543.377 360.027 544.549 360.027C545.721 360.027 546.529 360.695 546.529 361.662C546.529 362.629 545.721 363.297 544.549 363.297ZM549.752 364.059C550.174 364.059 550.514 363.713 550.514 363.297C550.514 362.875 550.174 362.535 549.752 362.535C549.336 362.535 548.99 362.875 548.99 363.297C548.99 363.713 549.336 364.059 549.752 364.059ZM552.828 364H553.936L557.697 356.523V355.545H552.102V356.488H556.625V356.57L552.828 364ZM559.906 364H561.014L564.775 356.523V355.545H559.18V356.488H563.703V356.57L559.906 364ZM569.791 364H570.799V360.262C570.799 359.154 571.449 358.48 572.457 358.48C573.465 358.48 573.945 359.02 573.945 360.156V364H574.953V359.91C574.953 358.41 574.162 357.572 572.744 357.572C571.777 357.572 571.162 357.982 570.846 358.68H570.752V357.684H569.791V364ZM580.982 362.365C580.719 362.922 580.168 363.221 579.354 363.221C578.281 363.221 577.584 362.43 577.531 361.182V361.135H582.072V360.748C582.072 358.785 581.035 357.572 579.33 357.572C577.596 357.572 576.482 358.861 576.482 360.848C576.482 362.846 577.578 364.111 579.33 364.111C580.713 364.111 581.697 363.443 581.99 362.365H580.982ZM579.318 358.463C580.32 358.463 580.988 359.201 581.012 360.32H577.531C577.607 359.201 578.311 358.463 579.318 358.463ZM584.076 356.049V357.684H583.057V358.527H584.076V362.359C584.076 363.566 584.598 364.047 585.898 364.047C586.098 364.047 586.291 364.023 586.49 363.988V363.139C586.303 363.156 586.203 363.162 586.021 363.162C585.365 363.162 585.084 362.846 585.084 362.102V358.527H586.49V357.684H585.084V356.049H584.076Z" fill="#3C4257"/>
<rect x="432.5" y="336.5" width="255" height="47" rx="7.5" stroke="#E3E8EE"/>
<path d="M88.5 119.25C88.0858 119.25 87.75 119.586 87.75 120C87.75 120.414 88.0858 120.75 88.5 120.75V119.25ZM120.03 120.53C120.323 120.237 120.323 119.763 120.03 119.47L115.257 114.697C114.964 114.404 114.49 114.404 114.197 114.697C113.904 114.99 113.904 115.464 114.197 115.757L118.439 120L114.197 124.243C113.904 124.536 113.904 125.01 114.197 125.303C114.49 125.596 114.964 125.596 115.257 125.303L120.03 120.53ZM88.5 120.75L119.5 120.75V119.25L88.5 119.25V120.75Z" fill="#8792A2"/>
<path d="M560.75 312.5C560.75 312.086 560.414 311.75 560 311.75C559.586 311.75 559.25 312.086 559.25 312.5L560.75 312.5ZM559.47 328.03C559.763 328.323 560.237 328.323 560.53 328.03L565.303 323.257C565.596 322.964 565.596 322.49 565.303 322.197C565.01 321.904 564.536 321.904 564.243 322.197L560 326.439L555.757 322.197C555.464 321.904 554.99 321.904 554.697 322.197C554.404 322.49 554.404 322.964 554.697 323.257L559.47 328.03ZM559.25 312.5L559.25 327.5L560.75 327.5L560.75 312.5L559.25 312.5Z" fill="#8792A2"/>
<path d="M560.75 232.5C560.75 232.086 560.414 231.75 560 231.75C559.586 231.75 559.25 232.086 559.25 232.5L560.75 232.5ZM559.47 248.03C559.763 248.323 560.237 248.323 560.53 248.03L565.303 243.257C565.596 242.964 565.596 242.49 565.303 242.197C565.01 241.904 564.536 241.904 564.243 242.197L560 246.439L555.757 242.197C555.464 241.904 554.99 241.904 554.697 242.197C554.404 242.49 554.404 242.964 554.697 243.257L559.47 248.03ZM559.25 232.5L559.25 247.5L560.75 247.5L560.75 232.5L559.25 232.5Z" fill="#8792A2"/>
<path d="M392.5 199.25C392.086 199.25 391.75 199.586 391.75 200C391.75 200.414 392.086 200.75 392.5 200.75V199.25ZM424.03 200.53C424.323 200.237 424.323 199.763 424.03 199.47L419.257 194.697C418.964 194.404 418.49 194.404 418.197 194.697C417.904 194.99 417.904 195.464 418.197 195.757L422.439 200L418.197 204.243C417.904 204.536 417.904 205.01 418.197 205.303C418.49 205.596 418.964 205.596 419.257 205.303L424.03 200.53ZM392.5 200.75H423.5V199.25H392.5V200.75Z" fill="#8792A2"/>
<path d="M423.5 280.75C423.914 280.75 424.25 280.414 424.25 280C424.25 279.586 423.914 279.25 423.5 279.25L423.5 280.75ZM391.97 279.47C391.677 279.763 391.677 280.237 391.97 280.53L396.743 285.303C397.036 285.596 397.51 285.596 397.803 285.303C398.096 285.01 398.096 284.536 397.803 284.243L393.561 280L397.803 275.757C398.096 275.464 398.096 274.99 397.803 274.697C397.51 274.404 397.036 274.404 396.743 274.697L391.97 279.47ZM423.5 279.25L392.5 279.25L392.5 280.75L423.5 280.75L423.5 279.25Z" fill="#8792A2"/>
<path d="M256.75 312.5C256.75 312.086 256.414 311.75 256 311.75C255.586 311.75 255.25 312.086 255.25 312.5L256.75 312.5ZM255.47 328.03C255.763 328.323 256.237 328.323 256.53 328.03L261.303 323.257C261.596 322.964 261.596 322.49 261.303 322.197C261.01 321.904 260.536 321.904 260.243 322.197L256 326.439L251.757 322.197C251.464 321.904 250.99 321.904 250.697 322.197C250.404 322.49 250.404 322.964 250.697 323.257L255.47 328.03ZM255.25 312.5L255.25 327.5L256.75 327.5L256.75 312.5L255.25 312.5Z" fill="#8792A2"/>
<path d="M256.75 392.5C256.75 392.086 256.414 391.75 256 391.75C255.586 391.75 255.25 392.086 255.25 392.5L256.75 392.5ZM255.47 408.03C255.763 408.323 256.237 408.323 256.53 408.03L261.303 403.257C261.596 402.964 261.596 402.49 261.303 402.197C261.01 401.904 260.536 401.904 260.243 402.197L256 406.439L251.757 402.197C251.464 401.904 250.99 401.904 250.697 402.197C250.404 402.49 250.404 402.964 250.697 403.257L255.47 408.03ZM255.25 392.5L255.25 407.5L256.75 407.5L256.75 392.5L255.25 392.5Z" fill="#8792A2"/>
<path d="M256.75 152.5C256.75 152.086 256.414 151.75 256 151.75C255.586 151.75 255.25 152.086 255.25 152.5L256.75 152.5ZM255.47 168.03C255.763 168.323 256.237 168.323 256.53 168.03L261.303 163.257C261.596 162.964 261.596 162.49 261.303 162.197C261.01 161.904 260.536 161.904 260.243 162.197L256 166.439L251.757 162.197C251.464 161.904 250.99 161.904 250.697 162.197C250.404 162.49 250.404 162.964 250.697 163.257L255.47 168.03ZM255.25 152.5L255.25 167.5L256.75 167.5L256.75 152.5L255.25 152.5Z" fill="#8792A2"/>
<defs>
<clipPath id="clip0">
<path d="M0 0H736V512H0V0Z" fill="white"/>
</clipPath>
</defs>
</svg>
