<svg width="736" height="240" viewBox="0 0 736 240" fill="none" xmlns="http://www.w3.org/2000/svg">
<g clip-path="url(#clip0)">
<path d="M0 0H736V240H0V0Z" fill="white"/>
<path d="M0 0L736 -6.43432e-05" stroke="#E3E8EE" stroke-width="2" stroke-linecap="round" stroke-linejoin="round" stroke-dasharray="0.01 16"/>
<path d="M0 16L736 15.9999" stroke="#E3E8EE" stroke-width="2" stroke-linecap="round" stroke-linejoin="round" stroke-dasharray="0.01 16"/>
<path d="M0 32L736 31.9999" stroke="#E3E8EE" stroke-width="2" stroke-linecap="round" stroke-linejoin="round" stroke-dasharray="0.01 16"/>
<path d="M0 48L736 47.9999" stroke="#E3E8EE" stroke-width="2" stroke-linecap="round" stroke-linejoin="round" stroke-dasharray="0.01 16"/>
<path d="M0 64L736 63.9999" stroke="#E3E8EE" stroke-width="2" stroke-linecap="round" stroke-linejoin="round" stroke-dasharray="0.01 16"/>
<path d="M0 80L736 79.9999" stroke="#E3E8EE" stroke-width="2" stroke-linecap="round" stroke-linejoin="round" stroke-dasharray="0.01 16"/>
<path d="M0 96L736 95.9999" stroke="#E3E8EE" stroke-width="2" stroke-linecap="round" stroke-linejoin="round" stroke-dasharray="0.01 16"/>
<path d="M0 112L736 112" stroke="#E3E8EE" stroke-width="2" stroke-linecap="round" stroke-linejoin="round" stroke-dasharray="0.01 16"/>
<path d="M0 128L736 128" stroke="#E3E8EE" stroke-width="2" stroke-linecap="round" stroke-linejoin="round" stroke-dasharray="0.01 16"/>
<path d="M0 144L736 144" stroke="#E3E8EE" stroke-width="2" stroke-linecap="round" stroke-linejoin="round" stroke-dasharray="0.01 16"/>
<path d="M0 160L736 160" stroke="#E3E8EE" stroke-width="2" stroke-linecap="round" stroke-linejoin="round" stroke-dasharray="0.01 16"/>
<path d="M0 176L736 176" stroke="#E3E8EE" stroke-width="2" stroke-linecap="round" stroke-linejoin="round" stroke-dasharray="0.01 16"/>
<path d="M0 192L736 192" stroke="#E3E8EE" stroke-width="2" stroke-linecap="round" stroke-linejoin="round" stroke-dasharray="0.01 16"/>
<path d="M0 208L736 208" stroke="#E3E8EE" stroke-width="2" stroke-linecap="round" stroke-linejoin="round" stroke-dasharray="0.01 16"/>
<path d="M0 224L736 224" stroke="#E3E8EE" stroke-width="2" stroke-linecap="round" stroke-linejoin="round" stroke-dasharray="0.01 16"/>
<path d="M0 240L736 240" stroke="#E3E8EE" stroke-width="2" stroke-linecap="round" stroke-linejoin="round" stroke-dasharray="0.01 16"/>
<rect x="0.5" y="0.5" width="735" height="239" stroke="white"/>
</g>
<rect x="28" y="26" width="536" height="47" fill="white"/>
<path d="M38.1562 42.2891C40.875 42.2891 42.8594 40.6406 43.0547 38.2344H40.7578C40.5312 39.4766 39.5156 40.2734 38.1641 40.2734C36.3828 40.2734 35.2812 38.7734 35.2812 36.3594C35.2812 33.9453 36.3828 32.4453 38.1562 32.4453C39.5 32.4453 40.5234 33.3047 40.75 34.6094H43.0469C42.875 32.1875 40.8281 30.4375 38.1562 30.4375C34.8828 30.4375 32.8672 32.6953 32.8672 36.3594C32.8672 40.0234 34.8906 42.2891 38.1562 42.2891ZM47.3594 42.1328C48.4766 42.1328 49.4141 41.6562 49.8594 40.8594H50V42H52.2031V36.125C52.2031 34.2891 50.9141 33.2109 48.6328 33.2109C46.4688 33.2109 45.0078 34.2031 44.8594 35.7812H46.9531C47.1406 35.2422 47.6875 34.9531 48.5078 34.9531C49.4453 34.9531 49.9609 35.3828 49.9609 36.125V36.8359L47.875 36.9609C45.7344 37.0859 44.5391 37.9922 44.5391 39.5469C44.5391 41.1172 45.7031 42.1328 47.3594 42.1328ZM48.1094 40.4688C47.3203 40.4688 46.7656 40.0703 46.7656 39.4062C46.7656 38.7734 47.2422 38.4062 48.2188 38.3438L49.9609 38.2266V38.8672C49.9609 39.7734 49.1641 40.4688 48.1094 40.4688ZM54.4375 42H56.7109V37.1875C56.7109 35.9766 57.5625 35.2344 58.8047 35.2344C59.1719 35.2344 59.7031 35.2969 59.8828 35.3594V33.3594C59.6875 33.2969 59.3047 33.2578 58.9922 33.2578C57.8984 33.2578 57.0078 33.9062 56.7812 34.7656H56.6406V33.3984H54.4375V42ZM64.2891 42.1328C65.4844 42.1328 66.4609 41.5781 66.9219 40.6484H67.0625V42H69.2656V30.1094H66.9922V34.7734H66.8594C66.4141 33.8203 65.4531 33.2578 64.2891 33.2578C62.125 33.2578 60.7812 34.9531 60.7812 37.6875C60.7812 40.4297 62.1172 42.1328 64.2891 42.1328ZM65.0625 35.1016C66.2734 35.1016 67.0156 36.0938 67.0156 37.7031C67.0156 39.3125 66.2812 40.2969 65.0625 40.2969C63.8438 40.2969 63.1172 39.3203 63.1172 37.6953C63.1172 36.0781 63.8516 35.1016 65.0625 35.1016ZM80.7266 33.2578C79.5391 33.2578 78.5625 33.8438 78.0938 34.8125H77.9531V33.3984H75.75V44.8516H78.0234V40.6875H78.1641C78.5859 41.5938 79.5312 42.1328 80.7656 42.1328C82.9219 42.1328 84.2422 40.4609 84.2422 37.6953C84.2422 34.9219 82.9062 33.2578 80.7266 33.2578ZM79.9531 40.2969C78.75 40.2969 78 39.3125 78 37.7031C78 36.0938 78.75 35.1016 79.9609 35.1016C81.1719 35.1016 81.9062 36.0781 81.9062 37.6953C81.9062 39.3203 81.1797 40.2969 79.9531 40.2969ZM88.4531 42.1328C89.5703 42.1328 90.5078 41.6562 90.9531 40.8594H91.0938V42H93.2969V36.125C93.2969 34.2891 92.0078 33.2109 89.7266 33.2109C87.5625 33.2109 86.1016 34.2031 85.9531 35.7812H88.0469C88.2344 35.2422 88.7812 34.9531 89.6016 34.9531C90.5391 34.9531 91.0547 35.3828 91.0547 36.125V36.8359L88.9688 36.9609C86.8281 37.0859 85.6328 37.9922 85.6328 39.5469C85.6328 41.1172 86.7969 42.1328 88.4531 42.1328ZM89.2031 40.4688C88.4141 40.4688 87.8594 40.0703 87.8594 39.4062C87.8594 38.7734 88.3359 38.4062 89.3125 38.3438L91.0547 38.2266V38.8672C91.0547 39.7734 90.2578 40.4688 89.2031 40.4688ZM96.3672 45.125C98.5156 45.125 99.5703 44.3594 100.305 42.1641L103.273 33.3984H100.867L99.0547 39.9609H98.9141L97.1016 33.3984H94.5938L97.6172 42.0469L97.5391 42.375C97.3516 43.0703 96.8672 43.3516 96.0156 43.3516C95.9219 43.3516 95.5781 43.3438 95.5 43.3281V45.1016C95.5938 45.1172 96.2812 45.125 96.3672 45.125ZM104.859 42H107.133V36.8125C107.133 35.8281 107.766 35.1094 108.656 35.1094C109.547 35.1094 110.078 35.6406 110.078 36.5625V42H112.266V36.7109C112.266 35.7812 112.859 35.1094 113.781 35.1094C114.742 35.1094 115.219 35.625 115.219 36.6641V42H117.492V36.0938C117.492 34.3203 116.422 33.2109 114.703 33.2109C113.5 33.2109 112.508 33.8438 112.109 34.7969H111.969C111.625 33.8125 110.797 33.2109 109.586 33.2109C108.453 33.2109 107.555 33.8125 107.203 34.7969H107.062V33.3984H104.859V42ZM125.273 39.5703C125.031 40.1562 124.414 40.4844 123.516 40.4844C122.328 40.4844 121.578 39.6641 121.547 38.3516V38.2344H127.461V37.5547C127.461 34.8359 125.961 33.2109 123.422 33.2109C120.859 33.2109 119.281 34.9453 119.281 37.7422C119.281 40.5234 120.828 42.1797 123.453 42.1797C125.562 42.1797 127.055 41.1719 127.391 39.5703H125.273ZM123.43 34.9062C124.492 34.9062 125.18 35.6406 125.227 36.8203H121.555C121.633 35.6641 122.375 34.9062 123.43 34.9062ZM129.328 42H131.602V37.0234C131.602 35.8594 132.25 35.1094 133.305 35.1094C134.383 35.1094 134.891 35.7422 134.891 36.9531V42H137.164V36.4375C137.164 34.3828 136.133 33.2109 134.219 33.2109C132.945 33.2109 132.07 33.8125 131.672 34.7812H131.531V33.3984H129.328V42ZM140.023 31.3438V33.4766H138.68V35.2031H140.023V39.6797C140.023 41.3516 140.852 42.0312 142.945 42.0312C143.383 42.0312 143.805 41.9844 144.086 41.9297V40.25C143.867 40.2734 143.711 40.2891 143.414 40.2891C142.641 40.2891 142.297 39.9297 142.297 39.1562V35.2031H144.086V33.4766H142.297V31.3438H140.023ZM145.711 35.9062C145.711 37.2266 146.523 38.0156 148.195 38.3828L149.758 38.7344C150.516 38.9062 150.844 39.1719 150.844 39.6094C150.844 40.1797 150.234 40.5703 149.352 40.5703C148.445 40.5703 147.891 40.2188 147.719 39.625H145.5C145.656 41.25 147.031 42.1797 149.305 42.1797C151.562 42.1797 153.102 41.0703 153.102 39.3672C153.102 38.0859 152.352 37.3828 150.68 37.0156L149.062 36.6641C148.266 36.4844 147.898 36.2109 147.898 35.7734C147.898 35.2109 148.5 34.8281 149.312 34.8281C150.156 34.8281 150.68 35.1797 150.797 35.75H152.898C152.773 34.125 151.484 33.2109 149.297 33.2109C147.148 33.2109 145.711 34.2969 145.711 35.9062Z" fill="#3C4257"/>
<path d="M37.7734 66V55.9922H41.4062V54.7266H32.7344V55.9922H36.3672V66H37.7734ZM43.4844 66H44.8281V61.0156C44.8281 59.5938 45.6562 58.6406 47.1641 58.6406C48.4375 58.6406 49.1094 59.3828 49.1094 60.875V66H50.4531V60.5469C50.4531 58.5703 49.3281 57.4297 47.5469 57.4297C46.2578 57.4297 45.375 57.9766 44.9531 58.9062H44.8281V54.2344H43.4844V66ZM58.4844 63.8203C58.1328 64.5625 57.3984 64.9609 56.3125 64.9609C54.8828 64.9609 53.9531 63.9062 53.8828 62.2422V62.1797H59.9375V61.6641C59.9375 59.0469 58.5547 57.4297 56.2812 57.4297C53.9688 57.4297 52.4844 59.1484 52.4844 61.7969C52.4844 64.4609 53.9453 66.1484 56.2812 66.1484C58.125 66.1484 59.4375 65.2578 59.8281 63.8203H58.4844ZM56.2656 58.6172C57.6016 58.6172 58.4922 59.6016 58.5234 61.0938H53.8828C53.9844 59.6016 54.9219 58.6172 56.2656 58.6172ZM73.5312 60.1562C73.2969 58.6562 72.0469 57.4297 70 57.4297C67.6406 57.4297 66.1406 59.1328 66.1406 61.7578C66.1406 64.4375 67.6484 66.1484 70.0078 66.1484C72.0312 66.1484 73.2891 65.0078 73.5312 63.4609H72.1719C71.9219 64.4141 71.1328 64.9375 70 64.9375C68.5 64.9375 67.5312 63.7031 67.5312 61.7578C67.5312 59.8516 68.4844 58.6406 70 58.6406C71.2109 58.6406 71.9531 59.3203 72.1719 60.1562H73.5312ZM82.3281 57.5781H80.9844V62.5625C80.9844 64.0391 80.1719 64.9219 78.6875 64.9219C77.3438 64.9219 76.7812 64.2188 76.7812 62.7031V57.5781H75.4375V63.0312C75.4375 65.0234 76.4219 66.1484 78.3125 66.1484C79.6016 66.1484 80.5 65.6172 80.9219 64.6797H81.0469V66H82.3281V57.5781ZM84.6641 59.8828C84.6641 61.1016 85.3828 61.7812 86.9609 62.1641L88.4062 62.5156C89.3047 62.7344 89.7422 63.125 89.7422 63.7031C89.7422 64.4766 88.9297 65.0156 87.7969 65.0156C86.7188 65.0156 86.0469 64.5625 85.8203 63.8516H84.4375C84.5859 65.25 85.875 66.1484 87.75 66.1484C89.6641 66.1484 91.125 65.1094 91.125 63.6016C91.125 62.3906 90.3594 61.7031 88.7734 61.3203L87.4766 61.0078C86.4844 60.7656 86.0156 60.4062 86.0156 59.8281C86.0156 59.0781 86.7969 58.5703 87.7969 58.5703C88.8125 58.5703 89.4688 59.0156 89.6484 59.6875H90.9766C90.7969 58.3047 89.5703 57.4297 87.8047 57.4297C86.0156 57.4297 84.6641 58.4844 84.6641 59.8828ZM93.7188 55.3984V57.5781H92.3594V58.7031H93.7188V63.8125C93.7188 65.4219 94.4141 66.0625 96.1484 66.0625C96.4141 66.0625 96.6719 66.0312 96.9375 65.9844V64.8516C96.6875 64.875 96.5547 64.8828 96.3125 64.8828C95.4375 64.8828 95.0625 64.4609 95.0625 63.4688V58.7031H96.9375V57.5781H95.0625V55.3984H93.7188ZM102.305 66.1484C104.703 66.1484 106.188 64.4922 106.188 61.7891C106.188 59.0781 104.703 57.4297 102.305 57.4297C99.9062 57.4297 98.4219 59.0781 98.4219 61.7891C98.4219 64.4922 99.9062 66.1484 102.305 66.1484ZM102.305 64.9375C100.711 64.9375 99.8125 63.7812 99.8125 61.7891C99.8125 59.7891 100.711 58.6406 102.305 58.6406C103.898 58.6406 104.797 59.7891 104.797 61.7891C104.797 63.7812 103.898 64.9375 102.305 64.9375ZM108.297 66H109.641V60.7812C109.641 59.5938 110.492 58.6406 111.594 58.6406C112.656 58.6406 113.352 59.2812 113.352 60.2812V66H114.695V60.5859C114.695 59.5156 115.477 58.6406 116.648 58.6406C117.836 58.6406 118.422 59.25 118.422 60.4922V66H119.766V60.1797C119.766 58.4141 118.805 57.4297 117.086 57.4297C115.922 57.4297 114.961 58.0156 114.508 58.9062H114.383C113.992 58.0312 113.195 57.4297 112.055 57.4297C110.93 57.4297 110.086 57.9688 109.703 58.9062H109.578V57.5781H108.297V66ZM127.797 63.8203C127.445 64.5625 126.711 64.9609 125.625 64.9609C124.195 64.9609 123.266 63.9062 123.195 62.2422V62.1797H129.25V61.6641C129.25 59.0469 127.867 57.4297 125.594 57.4297C123.281 57.4297 121.797 59.1484 121.797 61.7969C121.797 64.4609 123.258 66.1484 125.594 66.1484C127.438 66.1484 128.75 65.2578 129.141 63.8203H127.797ZM125.578 58.6172C126.914 58.6172 127.805 59.6016 127.836 61.0938H123.195C123.297 59.6016 124.234 58.6172 125.578 58.6172ZM131.359 66H132.703V60.7812C132.703 59.5938 133.633 58.7344 134.914 58.7344C135.18 58.7344 135.664 58.7812 135.773 58.8125V57.4688C135.602 57.4453 135.32 57.4297 135.102 57.4297C133.984 57.4297 133.016 58.0078 132.766 58.8281H132.641V57.5781H131.359V66ZM142.047 66H143.391V61.0156C143.391 59.5938 144.219 58.6406 145.727 58.6406C147 58.6406 147.672 59.3828 147.672 60.875V66H149.016V60.5469C149.016 58.5703 147.891 57.4297 146.109 57.4297C144.82 57.4297 143.938 57.9766 143.516 58.9062H143.391V54.2344H142.047V66ZM153.812 66.1484C154.938 66.1484 155.859 65.6562 156.406 64.7578H156.531V66H157.812V60.2344C157.812 58.4844 156.664 57.4297 154.609 57.4297C152.812 57.4297 151.484 58.3203 151.305 59.6719H152.664C152.852 59.0078 153.555 58.625 154.562 58.625C155.82 58.625 156.469 59.1953 156.469 60.2344V61L154.039 61.1484C152.078 61.2656 150.969 62.1328 150.969 63.6406C150.969 65.1797 152.18 66.1484 153.812 66.1484ZM154.062 64.9688C153.086 64.9688 152.359 64.4688 152.359 63.6094C152.359 62.7656 152.922 62.3203 154.203 62.2344L156.469 62.0859V62.8594C156.469 64.0625 155.445 64.9688 154.062 64.9688ZM160.102 59.8828C160.102 61.1016 160.82 61.7812 162.398 62.1641L163.844 62.5156C164.742 62.7344 165.18 63.125 165.18 63.7031C165.18 64.4766 164.367 65.0156 163.234 65.0156C162.156 65.0156 161.484 64.5625 161.258 63.8516H159.875C160.023 65.25 161.312 66.1484 163.188 66.1484C165.102 66.1484 166.562 65.1094 166.562 63.6016C166.562 62.3906 165.797 61.7031 164.211 61.3203L162.914 61.0078C161.922 60.7656 161.453 60.4062 161.453 59.8281C161.453 59.0781 162.234 58.5703 163.234 58.5703C164.25 58.5703 164.906 59.0156 165.086 59.6875H166.414C166.234 58.3047 165.008 57.4297 163.242 57.4297C161.453 57.4297 160.102 58.4844 160.102 59.8828ZM175.531 66.1484C176.656 66.1484 177.578 65.6562 178.125 64.7578H178.25V66H179.531V60.2344C179.531 58.4844 178.383 57.4297 176.328 57.4297C174.531 57.4297 173.203 58.3203 173.023 59.6719H174.383C174.57 59.0078 175.273 58.625 176.281 58.625C177.539 58.625 178.188 59.1953 178.188 60.2344V61L175.758 61.1484C173.797 61.2656 172.688 62.1328 172.688 63.6406C172.688 65.1797 173.898 66.1484 175.531 66.1484ZM175.781 64.9688C174.805 64.9688 174.078 64.4688 174.078 63.6094C174.078 62.7656 174.641 62.3203 175.922 62.2344L178.188 62.0859V62.8594C178.188 64.0625 177.164 64.9688 175.781 64.9688ZM189.648 66.1484C190.812 66.1484 191.812 65.5938 192.344 64.6562H192.469V66H193.75V54.2344H192.406V58.9062H192.289C191.812 57.9844 190.82 57.4297 189.648 57.4297C187.508 57.4297 186.109 59.1484 186.109 61.7891C186.109 64.4375 187.492 66.1484 189.648 66.1484ZM189.961 58.6406C191.484 58.6406 192.438 59.8594 192.438 61.7891C192.438 63.7344 191.492 64.9375 189.961 64.9375C188.422 64.9375 187.5 63.7578 187.5 61.7891C187.5 59.8281 188.43 58.6406 189.961 58.6406ZM197.062 55.9531C197.578 55.9531 198 55.5312 198 55.0156C198 54.5 197.578 54.0781 197.062 54.0781C196.547 54.0781 196.125 54.5 196.125 55.0156C196.125 55.5312 196.547 55.9531 197.062 55.9531ZM196.391 66H197.734V57.5781H196.391V66ZM200.297 66H201.641V60.7812C201.641 59.5938 202.57 58.7344 203.852 58.7344C204.117 58.7344 204.602 58.7812 204.711 58.8125V57.4688C204.539 57.4453 204.258 57.4297 204.039 57.4297C202.922 57.4297 201.953 58.0078 201.703 58.8281H201.578V57.5781H200.297V66ZM211.734 63.8203C211.383 64.5625 210.648 64.9609 209.562 64.9609C208.133 64.9609 207.203 63.9062 207.133 62.2422V62.1797H213.188V61.6641C213.188 59.0469 211.805 57.4297 209.531 57.4297C207.219 57.4297 205.734 59.1484 205.734 61.7969C205.734 64.4609 207.195 66.1484 209.531 66.1484C211.375 66.1484 212.688 65.2578 213.078 63.8203H211.734ZM209.516 58.6172C210.852 58.6172 211.742 59.6016 211.773 61.0938H207.133C207.234 59.6016 208.172 58.6172 209.516 58.6172ZM222.266 60.1562C222.031 58.6562 220.781 57.4297 218.734 57.4297C216.375 57.4297 214.875 59.1328 214.875 61.7578C214.875 64.4375 216.383 66.1484 218.742 66.1484C220.766 66.1484 222.023 65.0078 222.266 63.4609H220.906C220.656 64.4141 219.867 64.9375 218.734 64.9375C217.234 64.9375 216.266 63.7031 216.266 61.7578C216.266 59.8516 217.219 58.6406 218.734 58.6406C219.945 58.6406 220.688 59.3203 220.906 60.1562H222.266ZM224.969 55.3984V57.5781H223.609V58.7031H224.969V63.8125C224.969 65.4219 225.664 66.0625 227.398 66.0625C227.664 66.0625 227.922 66.0312 228.188 65.9844V64.8516C227.938 64.875 227.805 64.8828 227.562 64.8828C226.688 64.8828 226.312 64.4609 226.312 63.4688V58.7031H228.188V57.5781H226.312V55.3984H224.969ZM234.734 66H236.078V60.7812C236.078 59.5938 237.008 58.7344 238.289 58.7344C238.555 58.7344 239.039 58.7812 239.148 58.8125V57.4688C238.977 57.4453 238.695 57.4297 238.477 57.4297C237.359 57.4297 236.391 58.0078 236.141 58.8281H236.016V57.5781H234.734V66ZM246.172 63.8203C245.82 64.5625 245.086 64.9609 244 64.9609C242.57 64.9609 241.641 63.9062 241.57 62.2422V62.1797H247.625V61.6641C247.625 59.0469 246.242 57.4297 243.969 57.4297C241.656 57.4297 240.172 59.1484 240.172 61.7969C240.172 64.4609 241.633 66.1484 243.969 66.1484C245.812 66.1484 247.125 65.2578 247.516 63.8203H246.172ZM243.953 58.6172C245.289 58.6172 246.18 59.6016 246.211 61.0938H241.57C241.672 59.6016 242.609 58.6172 243.953 58.6172ZM249.812 66H251.156V54.2344H249.812V66ZM256.109 66.1484C257.234 66.1484 258.156 65.6562 258.703 64.7578H258.828V66H260.109V60.2344C260.109 58.4844 258.961 57.4297 256.906 57.4297C255.109 57.4297 253.781 58.3203 253.602 59.6719H254.961C255.148 59.0078 255.852 58.625 256.859 58.625C258.117 58.625 258.766 59.1953 258.766 60.2344V61L256.336 61.1484C254.375 61.2656 253.266 62.1328 253.266 63.6406C253.266 65.1797 254.477 66.1484 256.109 66.1484ZM256.359 64.9688C255.383 64.9688 254.656 64.4688 254.656 63.6094C254.656 62.7656 255.219 62.3203 256.5 62.2344L258.766 62.0859V62.8594C258.766 64.0625 257.742 64.9688 256.359 64.9688ZM263.156 55.3984V57.5781H261.797V58.7031H263.156V63.8125C263.156 65.4219 263.852 66.0625 265.586 66.0625C265.852 66.0625 266.109 66.0312 266.375 65.9844V64.8516C266.125 64.875 265.992 64.8828 265.75 64.8828C264.875 64.8828 264.5 64.4609 264.5 63.4688V58.7031H266.375V57.5781H264.5V55.3984H263.156ZM269.109 55.9531C269.625 55.9531 270.047 55.5312 270.047 55.0156C270.047 54.5 269.625 54.0781 269.109 54.0781C268.594 54.0781 268.172 54.5 268.172 55.0156C268.172 55.5312 268.594 55.9531 269.109 55.9531ZM268.438 66H269.781V57.5781H268.438V66ZM275.805 66.1484C278.203 66.1484 279.688 64.4922 279.688 61.7891C279.688 59.0781 278.203 57.4297 275.805 57.4297C273.406 57.4297 271.922 59.0781 271.922 61.7891C271.922 64.4922 273.406 66.1484 275.805 66.1484ZM275.805 64.9375C274.211 64.9375 273.312 63.7812 273.312 61.7891C273.312 59.7891 274.211 58.6406 275.805 58.6406C277.398 58.6406 278.297 59.7891 278.297 61.7891C278.297 63.7812 277.398 64.9375 275.805 64.9375ZM281.797 66H283.141V61.0156C283.141 59.5391 284.008 58.6406 285.352 58.6406C286.695 58.6406 287.336 59.3594 287.336 60.875V66H288.68V60.5469C288.68 58.5469 287.625 57.4297 285.734 57.4297C284.445 57.4297 283.625 57.9766 283.203 58.9062H283.078V57.5781H281.797V66ZM290.945 59.8828C290.945 61.1016 291.664 61.7812 293.242 62.1641L294.688 62.5156C295.586 62.7344 296.023 63.125 296.023 63.7031C296.023 64.4766 295.211 65.0156 294.078 65.0156C293 65.0156 292.328 64.5625 292.102 63.8516H290.719C290.867 65.25 292.156 66.1484 294.031 66.1484C295.945 66.1484 297.406 65.1094 297.406 63.6016C297.406 62.3906 296.641 61.7031 295.055 61.3203L293.758 61.0078C292.766 60.7656 292.297 60.4062 292.297 59.8281C292.297 59.0781 293.078 58.5703 294.078 58.5703C295.094 58.5703 295.75 59.0156 295.93 59.6875H297.258C297.078 58.3047 295.852 57.4297 294.086 57.4297C292.297 57.4297 290.945 58.4844 290.945 59.8828ZM299.594 66H300.938V61.0156C300.938 59.5938 301.766 58.6406 303.273 58.6406C304.547 58.6406 305.219 59.3828 305.219 60.875V66H306.562V60.5469C306.562 58.5703 305.438 57.4297 303.656 57.4297C302.367 57.4297 301.484 57.9766 301.062 58.9062H300.938V54.2344H299.594V66ZM309.719 55.9531C310.234 55.9531 310.656 55.5312 310.656 55.0156C310.656 54.5 310.234 54.0781 309.719 54.0781C309.203 54.0781 308.781 54.5 308.781 55.0156C308.781 55.5312 309.203 55.9531 309.719 55.9531ZM309.047 66H310.391V57.5781H309.047V66ZM317.055 57.4297C315.906 57.4297 314.898 58.0156 314.359 58.9844H314.234V57.5781H312.953V68.8125H314.297V64.7344H314.422C314.883 65.625 315.852 66.1484 317.055 66.1484C319.195 66.1484 320.594 64.4219 320.594 61.7891C320.594 59.1406 319.203 57.4297 317.055 57.4297ZM316.734 64.9375C315.219 64.9375 314.258 63.7188 314.258 61.7891C314.258 59.8516 315.219 58.6406 316.742 58.6406C318.281 58.6406 319.203 59.8203 319.203 61.7891C319.203 63.7578 318.281 64.9375 316.734 64.9375ZM337.812 57.5781H336.461L334.805 64.3125H334.68L332.797 57.5781H331.508L329.625 64.3125H329.5L327.844 57.5781H326.484L328.844 66H330.203L332.078 59.4844H332.203L334.086 66H335.453L337.812 57.5781ZM340.312 55.9531C340.828 55.9531 341.25 55.5312 341.25 55.0156C341.25 54.5 340.828 54.0781 340.312 54.0781C339.797 54.0781 339.375 54.5 339.375 55.0156C339.375 55.5312 339.797 55.9531 340.312 55.9531ZM339.641 66H340.984V57.5781H339.641V66ZM344.109 55.3984V57.5781H342.75V58.7031H344.109V63.8125C344.109 65.4219 344.805 66.0625 346.539 66.0625C346.805 66.0625 347.062 66.0312 347.328 65.9844V64.8516C347.078 64.875 346.945 64.8828 346.703 64.8828C345.828 64.8828 345.453 64.4609 345.453 63.4688V58.7031H347.328V57.5781H345.453V55.3984H344.109ZM349.438 66H350.781V61.0156C350.781 59.5938 351.609 58.6406 353.117 58.6406C354.391 58.6406 355.062 59.3828 355.062 60.875V66H356.406V60.5469C356.406 58.5703 355.281 57.4297 353.5 57.4297C352.211 57.4297 351.328 57.9766 350.906 58.9062H350.781V54.2344H349.438V66ZM363.898 55.3438V57.4766H362.555V59.2031H363.898V63.6797C363.898 65.3516 364.727 66.0312 366.82 66.0312C367.258 66.0312 367.68 65.9844 367.961 65.9297V64.25C367.742 64.2734 367.586 64.2891 367.289 64.2891C366.516 64.2891 366.172 63.9297 366.172 63.1562V59.2031H367.961V57.4766H366.172V55.3438H363.898ZM369.938 66H372.211V61.0469C372.211 59.9062 372.867 59.1328 374.008 59.1328C375.039 59.1328 375.594 59.7578 375.594 60.9766V66H377.867V60.4609C377.867 58.3984 376.766 57.2344 374.914 57.2344C373.648 57.2344 372.711 57.8281 372.312 58.8047H372.172V54.1094H369.938V66ZM385.648 63.5703C385.406 64.1562 384.789 64.4844 383.891 64.4844C382.703 64.4844 381.953 63.6641 381.922 62.3516V62.2344H387.836V61.5547C387.836 58.8359 386.336 57.2109 383.797 57.2109C381.234 57.2109 379.656 58.9453 379.656 61.7422C379.656 64.5234 381.203 66.1797 383.828 66.1797C385.938 66.1797 387.43 65.1719 387.766 63.5703H385.648ZM383.805 58.9062C384.867 58.9062 385.555 59.6406 385.602 60.8203H381.93C382.008 59.6641 382.75 58.9062 383.805 58.9062ZM401.453 60.3984C401.266 58.4766 399.898 57.2109 397.617 57.2109C394.922 57.2109 393.406 58.8438 393.406 61.6797C393.406 64.5469 394.93 66.1797 397.617 66.1797C399.859 66.1797 401.266 64.9453 401.453 63.0547H399.328C399.156 63.9141 398.547 64.375 397.617 64.375C396.398 64.375 395.703 63.4141 395.703 61.6797C395.703 59.9688 396.391 59.0234 397.617 59.0234C398.586 59.0234 399.172 59.5703 399.328 60.3984H401.453ZM407.055 66.1797C409.703 66.1797 411.297 64.5078 411.297 61.6953C411.297 58.9062 409.68 57.2109 407.055 57.2109C404.43 57.2109 402.812 58.9141 402.812 61.6953C402.812 64.5 404.406 66.1797 407.055 66.1797ZM407.055 64.3828C405.836 64.3828 405.148 63.3984 405.148 61.6953C405.148 60.0078 405.844 59.0156 407.055 59.0156C408.258 59.0156 408.961 60.0078 408.961 61.6953C408.961 63.3984 408.266 64.3828 407.055 64.3828ZM413.156 66H415.43V61.0234C415.43 59.8594 416.078 59.1094 417.133 59.1094C418.211 59.1094 418.719 59.7422 418.719 60.9531V66H420.992V60.4375C420.992 58.3828 419.961 57.2109 418.047 57.2109C416.773 57.2109 415.898 57.8125 415.5 58.7812H415.359V57.3984H413.156V66ZM423.203 66H425.477V61.0234C425.477 59.8594 426.125 59.1094 427.18 59.1094C428.258 59.1094 428.766 59.7422 428.766 60.9531V66H431.039V60.4375C431.039 58.3828 430.008 57.2109 428.094 57.2109C426.82 57.2109 425.945 57.8125 425.547 58.7812H425.406V57.3984H423.203V66ZM438.82 63.5703C438.578 64.1562 437.961 64.4844 437.062 64.4844C435.875 64.4844 435.125 63.6641 435.094 62.3516V62.2344H441.008V61.5547C441.008 58.8359 439.508 57.2109 436.969 57.2109C434.406 57.2109 432.828 58.9453 432.828 61.7422C432.828 64.5234 434.375 66.1797 437 66.1797C439.109 66.1797 440.602 65.1719 440.938 63.5703H438.82ZM436.977 58.9062C438.039 58.9062 438.727 59.6406 438.773 60.8203H435.102C435.18 59.6641 435.922 58.9062 436.977 58.9062ZM450.5 60.3984C450.312 58.4766 448.945 57.2109 446.664 57.2109C443.969 57.2109 442.453 58.8438 442.453 61.6797C442.453 64.5469 443.977 66.1797 446.664 66.1797C448.906 66.1797 450.312 64.9453 450.5 63.0547H448.375C448.203 63.9141 447.594 64.375 446.664 64.375C445.445 64.375 444.75 63.4141 444.75 61.6797C444.75 59.9688 445.438 59.0234 446.664 59.0234C447.633 59.0234 448.219 59.5703 448.375 60.3984H450.5ZM453.008 55.3438V57.4766H451.664V59.2031H453.008V63.6797C453.008 65.3516 453.836 66.0312 455.93 66.0312C456.367 66.0312 456.789 65.9844 457.07 65.9297V64.25C456.852 64.2734 456.695 64.2891 456.398 64.2891C455.625 64.2891 455.281 63.9297 455.281 63.1562V59.2031H457.07V57.4766H455.281V55.3438H453.008ZM464.477 63.5703C464.234 64.1562 463.617 64.4844 462.719 64.4844C461.531 64.4844 460.781 63.6641 460.75 62.3516V62.2344H466.664V61.5547C466.664 58.8359 465.164 57.2109 462.625 57.2109C460.062 57.2109 458.484 58.9453 458.484 61.7422C458.484 64.5234 460.031 66.1797 462.656 66.1797C464.766 66.1797 466.258 65.1719 466.594 63.5703H464.477ZM462.633 58.9062C463.695 58.9062 464.383 59.6406 464.43 60.8203H460.758C460.836 59.6641 461.578 58.9062 462.633 58.9062ZM471.617 66.1328C472.812 66.1328 473.789 65.5781 474.25 64.6484H474.391V66H476.594V54.1094H474.32V58.7734H474.188C473.742 57.8203 472.781 57.2578 471.617 57.2578C469.453 57.2578 468.109 58.9531 468.109 61.6875C468.109 64.4297 469.445 66.1328 471.617 66.1328ZM472.391 59.1016C473.602 59.1016 474.344 60.0938 474.344 61.7031C474.344 63.3125 473.609 64.2969 472.391 64.2969C471.172 64.2969 470.445 63.3203 470.445 61.6953C470.445 60.0781 471.18 59.1016 472.391 59.1016ZM485.438 66.1328C486.555 66.1328 487.492 65.6562 487.938 64.8594H488.078V66H490.281V60.125C490.281 58.2891 488.992 57.2109 486.711 57.2109C484.547 57.2109 483.086 58.2031 482.938 59.7812H485.031C485.219 59.2422 485.766 58.9531 486.586 58.9531C487.523 58.9531 488.039 59.3828 488.039 60.125V60.8359L485.953 60.9609C483.812 61.0859 482.617 61.9922 482.617 63.5469C482.617 65.1172 483.781 66.1328 485.438 66.1328ZM486.188 64.4688C485.398 64.4688 484.844 64.0703 484.844 63.4062C484.844 62.7734 485.32 62.4062 486.297 62.3438L488.039 62.2266V62.8672C488.039 63.7734 487.242 64.4688 486.188 64.4688ZM500.141 60.3984C499.953 58.4766 498.586 57.2109 496.305 57.2109C493.609 57.2109 492.094 58.8438 492.094 61.6797C492.094 64.5469 493.617 66.1797 496.305 66.1797C498.547 66.1797 499.953 64.9453 500.141 63.0547H498.016C497.844 63.9141 497.234 64.375 496.305 64.375C495.086 64.375 494.391 63.4141 494.391 61.6797C494.391 59.9688 495.078 59.0234 496.305 59.0234C497.273 59.0234 497.859 59.5703 498.016 60.3984H500.141ZM509.547 60.3984C509.359 58.4766 507.992 57.2109 505.711 57.2109C503.016 57.2109 501.5 58.8438 501.5 61.6797C501.5 64.5469 503.023 66.1797 505.711 66.1797C507.953 66.1797 509.359 64.9453 509.547 63.0547H507.422C507.25 63.9141 506.641 64.375 505.711 64.375C504.492 64.375 503.797 63.4141 503.797 61.6797C503.797 59.9688 504.484 59.0234 505.711 59.0234C506.68 59.0234 507.266 59.5703 507.422 60.3984H509.547ZM515.148 66.1797C517.797 66.1797 519.391 64.5078 519.391 61.6953C519.391 58.9062 517.773 57.2109 515.148 57.2109C512.523 57.2109 510.906 58.9141 510.906 61.6953C510.906 64.5 512.5 66.1797 515.148 66.1797ZM515.148 64.3828C513.93 64.3828 513.242 63.3984 513.242 61.6953C513.242 60.0078 513.938 59.0156 515.148 59.0156C516.352 59.0156 517.055 60.0078 517.055 61.6953C517.055 63.3984 516.359 64.3828 515.148 64.3828ZM529.047 57.3984H526.773V62.3672C526.773 63.5469 526.164 64.2734 525.031 64.2734C523.984 64.2734 523.445 63.6562 523.445 62.4375V57.3984H521.172V63C521.172 65 522.328 66.1797 524.188 66.1797C525.492 66.1797 526.297 65.6172 526.703 64.6172H526.844V66H529.047V57.3984ZM531.328 66H533.602V61.0234C533.602 59.8594 534.25 59.1094 535.305 59.1094C536.383 59.1094 536.891 59.7422 536.891 60.9531V66H539.164V60.4375C539.164 58.3828 538.133 57.2109 536.219 57.2109C534.945 57.2109 534.07 57.8125 533.672 58.7812H533.531V57.3984H531.328V66ZM542.023 55.3438V57.4766H540.68V59.2031H542.023V63.6797C542.023 65.3516 542.852 66.0312 544.945 66.0312C545.383 66.0312 545.805 65.9844 546.086 65.9297V64.25C545.867 64.2734 545.711 64.2891 545.414 64.2891C544.641 64.2891 544.297 63.9297 544.297 63.1562V59.2031H546.086V57.4766H544.297V55.3438H542.023ZM547.711 59.9062C547.711 61.2266 548.523 62.0156 550.195 62.3828L551.758 62.7344C552.516 62.9062 552.844 63.1719 552.844 63.6094C552.844 64.1797 552.234 64.5703 551.352 64.5703C550.445 64.5703 549.891 64.2188 549.719 63.625H547.5C547.656 65.25 549.031 66.1797 551.305 66.1797C553.562 66.1797 555.102 65.0703 555.102 63.3672C555.102 62.0859 554.352 61.3828 552.68 61.0156L551.062 60.6641C550.266 60.4844 549.898 60.2109 549.898 59.7734C549.898 59.2109 550.5 58.8281 551.312 58.8281C552.156 58.8281 552.68 59.1797 552.797 59.75H554.898C554.773 58.125 553.484 57.2109 551.297 57.2109C549.148 57.2109 547.711 58.2969 547.711 59.9062Z" fill="#4F566B"/>
<rect x="28" y="26" width="536" height="47" stroke="white" stroke-width="8"/>
<path d="M192 112C192 107.582 195.582 104 200 104H232C236.418 104 240 107.582 240 112V144C240 148.418 236.418 152 232 152H200C195.582 152 192 148.418 192 144V112Z" fill="white"/>
<path d="M216 158C232.569 158 246 144.569 246 128C246 111.431 232.569 98 216 98C199.431 98 186 111.431 186 128C186 144.569 199.431 158 216 158Z" fill="#F5925E" stroke="white" stroke-width="12"/>
<path fill-rule="evenodd" clip-rule="evenodd" d="M226 123.5H206V122.562C206 121.7 206.56 121 207.25 121H224.75C225.44 121 226 121.7 226 122.562V123.5ZM226 126.625V134.75C226 135.44 225.44 136 224.75 136H207.25C206.56 136 206 135.44 206 134.75V126.625H226ZM211 131C210.31 131 209.75 131.56 209.75 132.25C209.75 132.94 210.31 133.5 211 133.5H212.25C212.94 133.5 213.5 132.94 213.5 132.25C213.5 131.56 212.94 131 212.25 131H211Z" fill="white"/>
<path d="M32 104C32 99.5817 35.5817 96 40 96H88C92.4183 96 96 99.5817 96 104V152C96 156.418 92.4183 160 88 160H40C35.5817 160 32 156.418 32 152V104Z" fill="white"/>
<path d="M64 166C84.9868 166 102 148.987 102 128C102 107.013 84.9868 90 64 90C43.0132 90 26 107.013 26 128C26 148.987 43.0132 166 64 166Z" fill="#85D996" stroke="white" stroke-width="12"/>
<path d="M64.2453 118H63.7547C63.6335 118 63.5123 118.005 63.3914 118.015C60.9835 118.216 59.1942 120.33 59.3949 122.738L59.6001 125.202C59.7908 127.49 61.7037 129.25 64 129.25C66.2963 129.25 68.2092 127.49 68.3999 125.202L68.6051 122.738C68.6152 122.617 68.6203 122.496 68.6203 122.375C68.6203 119.959 66.6615 118 64.2453 118Z" fill="white"/>
<path d="M68.8752 129.828C67.5965 131.022 65.8806 131.75 64 131.75C62.1194 131.75 60.4035 131.022 59.1248 129.828L56.926 130.653C55.166 131.313 54 132.995 54 134.875V136.75C54 137.44 54.5596 138 55.25 138H72.75C73.4404 138 74 137.44 74 136.75V134.875C74 132.995 72.834 131.313 71.074 130.653L68.8752 129.828Z" fill="white"/>
<path d="M336 104C336 99.5817 339.582 96 344 96H392C396.418 96 400 99.5817 400 104V152C400 156.418 396.418 160 392 160H344C339.582 160 336 156.418 336 152V104Z" fill="white"/>
<path d="M368 166C388.987 166 406 148.987 406 128C406 107.013 388.987 90 368 90C347.013 90 330 107.013 330 128C330 148.987 347.013 166 368 166Z" fill="#E28DDC" stroke="white" stroke-width="12"/>
<path d="M360.129 118.557L358 121.75C358 123.821 359.679 125.5 361.75 125.5C363.054 125.5 364.203 124.834 364.875 123.824C365.547 124.834 366.696 125.5 368 125.5C369.304 125.5 370.453 124.834 371.125 123.824C371.797 124.834 372.946 125.5 374.25 125.5C376.321 125.5 378 123.821 378 121.75L375.871 118.557C375.639 118.209 375.249 118 374.831 118H361.169C360.751 118 360.361 118.209 360.129 118.557Z" fill="white"/>
<path d="M361.75 133V127.375C360.852 127.375 360.003 127.165 359.25 126.79V136.75C359.25 137.44 359.81 138 360.5 138H375.5C376.19 138 376.75 137.44 376.75 136.75V126.79C375.997 127.165 375.148 127.375 374.25 127.375V133H361.75Z" fill="white"/>
<path d="M640 104C640 99.5817 643.582 96 648 96H696C700.418 96 704 99.5817 704 104V152C704 156.418 700.418 160 696 160H648C643.582 160 640 156.418 640 152V104Z" fill="white"/>
<path d="M672 166C692.987 166 710 148.987 710 128C710 107.013 692.987 90 672 90C651.013 90 634 107.013 634 128C634 148.987 651.013 166 672 166Z" fill="#A3ACB9" stroke="white" stroke-width="12"/>
<path fill-rule="evenodd" clip-rule="evenodd" d="M665.365 131.75L669.838 133.705L669.901 133.729C671.23 134.239 672.789 134.239 674.118 133.729L674.181 133.705L678.642 131.755L681.353 132.941C682.216 133.316 682.216 133.929 681.353 134.303L673.556 137.717C672.573 138.094 671.421 138.094 670.438 137.717L662.647 134.308C661.784 133.934 661.784 133.321 662.647 132.946L665.365 131.75ZM665.365 126.75L669.838 128.705L669.901 128.729C671.23 129.239 672.789 129.239 674.118 128.729L674.181 128.705L678.642 126.755L681.353 127.941C682.216 128.316 682.216 128.929 681.353 129.303L673.556 132.717C672.573 133.094 671.421 133.094 670.438 132.717L662.647 129.308C661.784 128.934 661.784 128.321 662.647 127.946L665.365 126.75ZM673.562 118.325L673.556 118.319L681.353 122.223C682.216 122.656 682.216 123.351 681.353 123.778L673.556 127.677C672.573 128.108 671.421 128.108 670.438 127.677L662.647 123.778C661.784 123.345 661.784 122.651 662.647 122.223L670.438 118.325C671.422 117.892 672.578 117.892 673.562 118.325Z" fill="white"/>
<path d="M496 112C496 107.582 499.582 104 504 104H536C540.418 104 544 107.582 544 112V144C544 148.418 540.418 152 536 152H504C499.582 152 496 148.418 496 144V112Z" fill="white"/>
<path d="M520 158C536.569 158 550 144.569 550 128C550 111.431 536.569 98 520 98C503.431 98 490 111.431 490 128C490 144.569 503.431 158 520 158Z" fill="#A3ACB9" stroke="white" stroke-width="12"/>
<path fill-rule="evenodd" clip-rule="evenodd" d="M527.437 131.747L523.994 128.287C523.701 127.993 523.701 127.515 523.994 127.221C524.287 126.926 524.762 126.926 525.056 127.221L529.78 131.967C530.073 132.261 530.073 132.739 529.78 133.033L525.056 137.779C524.762 138.074 524.287 138.074 523.994 137.779C523.701 137.485 523.701 137.007 523.994 136.713L527.437 133.253H518.75C518.336 133.253 518 132.916 518 132.5C518 132.084 518.336 131.747 518.75 131.747H527.437Z" fill="white"/>
<path fill-rule="evenodd" clip-rule="evenodd" d="M512.563 124.253L516.006 127.713C516.299 128.007 516.299 128.485 516.006 128.779C515.713 129.074 515.238 129.074 514.944 128.779L510.22 124.033C509.927 123.739 509.927 123.261 510.22 122.967L514.944 118.221C515.238 117.926 515.713 117.926 516.006 118.221C516.299 118.515 516.299 118.993 516.006 119.287L512.563 122.747L521.25 122.747C521.664 122.747 522 123.084 522 123.5C522 123.916 521.664 124.253 521.25 124.253L512.563 124.253Z" fill="white"/>
<path d="M104.5 127.25C104.086 127.25 103.75 127.586 103.75 128C103.75 128.414 104.086 128.75 104.5 128.75V127.25ZM184.03 128.53C184.323 128.237 184.323 127.763 184.03 127.47L179.257 122.697C178.964 122.404 178.49 122.404 178.197 122.697C177.904 122.99 177.904 123.464 178.197 123.757L182.439 128L178.197 132.243C177.904 132.536 177.904 133.01 178.197 133.303C178.49 133.596 178.964 133.596 179.257 133.303L184.03 128.53ZM104.5 128.75L183.5 128.75V127.25L104.5 127.25V128.75Z" fill="#8792A2"/>
<path d="M552.5 127.25C552.086 127.25 551.75 127.586 551.75 128C551.75 128.414 552.086 128.75 552.5 128.75V127.25ZM632.03 128.53C632.323 128.237 632.323 127.763 632.03 127.47L627.257 122.697C626.964 122.404 626.49 122.404 626.197 122.697C625.904 122.99 625.904 123.464 626.197 123.757L630.439 128L626.197 132.243C625.904 132.536 625.904 133.01 626.197 133.303C626.49 133.596 626.964 133.596 627.257 133.303L632.03 128.53ZM552.5 128.75L631.5 128.75V127.25L552.5 127.25V128.75Z" fill="#8792A2"/>
<path d="M248.5 127.25C248.086 127.25 247.75 127.586 247.75 128C247.75 128.414 248.086 128.75 248.5 128.75V127.25ZM328.03 128.53C328.323 128.237 328.323 127.763 328.03 127.47L323.257 122.697C322.964 122.404 322.49 122.404 322.197 122.697C321.904 122.99 321.904 123.464 322.197 123.757L326.439 128L322.197 132.243C321.904 132.536 321.904 133.01 322.197 133.303C322.49 133.596 322.964 133.596 323.257 133.303L328.03 128.53ZM248.5 128.75L327.5 128.75V127.25L248.5 127.25V128.75Z" fill="#8792A2"/>
<path d="M408.5 127.25C408.086 127.25 407.75 127.586 407.75 128C407.75 128.414 408.086 128.75 408.5 128.75V127.25ZM488.03 128.53C488.323 128.237 488.323 127.763 488.03 127.47L483.257 122.697C482.964 122.404 482.49 122.404 482.197 122.697C481.904 122.99 481.904 123.464 482.197 123.757L486.439 128L482.197 132.243C481.904 132.536 481.904 133.01 482.197 133.303C482.49 133.596 482.964 133.596 483.257 133.303L488.03 128.53ZM408.5 128.75L487.5 128.75V127.25L408.5 127.25V128.75Z" fill="#8792A2"/>
<rect x="23" y="174" width="81" height="24" fill="white"/>
<path d="M30.5098 191.253C32.8887 191.253 34.625 189.811 34.7959 187.705H32.7861C32.5879 188.792 31.6992 189.489 30.5166 189.489C28.958 189.489 27.9941 188.177 27.9941 186.064C27.9941 183.952 28.958 182.64 30.5098 182.64C31.6855 182.64 32.5811 183.392 32.7793 184.533H34.7891C34.6387 182.414 32.8477 180.883 30.5098 180.883C27.6455 180.883 25.8818 182.858 25.8818 186.064C25.8818 189.271 27.6523 191.253 30.5098 191.253ZM43.3203 183.474H41.3311V187.821C41.3311 188.854 40.7979 189.489 39.8066 189.489C38.8906 189.489 38.4189 188.949 38.4189 187.883V183.474H36.4297V188.375C36.4297 190.125 37.4414 191.157 39.0684 191.157C40.21 191.157 40.9141 190.665 41.2695 189.79H41.3926V191H43.3203V183.474ZM45.1455 185.668C45.1455 186.823 45.8564 187.514 47.3193 187.835L48.6865 188.143C49.3496 188.293 49.6367 188.525 49.6367 188.908C49.6367 189.407 49.1035 189.749 48.3311 189.749C47.5381 189.749 47.0527 189.441 46.9023 188.922H44.9609C45.0977 190.344 46.3008 191.157 48.29 191.157C50.2656 191.157 51.6123 190.187 51.6123 188.696C51.6123 187.575 50.9561 186.96 49.4932 186.639L48.0781 186.331C47.3809 186.174 47.0596 185.935 47.0596 185.552C47.0596 185.06 47.5859 184.725 48.2969 184.725C49.0352 184.725 49.4932 185.032 49.5957 185.531H51.4346C51.3252 184.109 50.1973 183.31 48.2832 183.31C46.4033 183.31 45.1455 184.26 45.1455 185.668ZM53.7725 181.676V183.542H52.5967V185.053H53.7725V188.97C53.7725 190.433 54.4971 191.027 56.3291 191.027C56.7119 191.027 57.0811 190.986 57.3271 190.938V189.469C57.1357 189.489 56.999 189.503 56.7393 189.503C56.0625 189.503 55.7617 189.188 55.7617 188.512V185.053H57.3271V183.542H55.7617V181.676H53.7725ZM62.2764 191.157C64.5938 191.157 65.9883 189.694 65.9883 187.233C65.9883 184.793 64.5732 183.31 62.2764 183.31C59.9795 183.31 58.5645 184.8 58.5645 187.233C58.5645 189.688 59.959 191.157 62.2764 191.157ZM62.2764 189.585C61.21 189.585 60.6084 188.724 60.6084 187.233C60.6084 185.757 61.2168 184.889 62.2764 184.889C63.3291 184.889 63.9443 185.757 63.9443 187.233C63.9443 188.724 63.3359 189.585 62.2764 189.585ZM67.6152 191H69.6045V186.461C69.6045 185.6 70.1582 184.971 70.9375 184.971C71.7168 184.971 72.1816 185.436 72.1816 186.242V191H74.0957V186.372C74.0957 185.559 74.6152 184.971 75.4219 184.971C76.2627 184.971 76.6797 185.422 76.6797 186.331V191H78.6689V185.832C78.6689 184.28 77.7324 183.31 76.2285 183.31C75.1758 183.31 74.3076 183.863 73.959 184.697H73.8359C73.5352 183.836 72.8105 183.31 71.751 183.31C70.7598 183.31 69.9736 183.836 69.666 184.697H69.543V183.474H67.6152V191ZM85.4775 188.874C85.2656 189.387 84.7256 189.674 83.9395 189.674C82.9004 189.674 82.2441 188.956 82.2168 187.808V187.705H87.3916V187.11C87.3916 184.731 86.0791 183.31 83.8574 183.31C81.6152 183.31 80.2344 184.827 80.2344 187.274C80.2344 189.708 81.5879 191.157 83.8848 191.157C85.7305 191.157 87.0361 190.275 87.3301 188.874H85.4775ZM83.8643 184.793C84.7939 184.793 85.3955 185.436 85.4365 186.468H82.2236C82.292 185.456 82.9414 184.793 83.8643 184.793ZM89.0254 191H91.0146V186.789C91.0146 185.729 91.7598 185.08 92.8467 185.08C93.168 185.08 93.6328 185.135 93.79 185.189V183.439C93.6191 183.385 93.2842 183.351 93.0107 183.351C92.0537 183.351 91.2744 183.918 91.0762 184.67H90.9531V183.474H89.0254V191ZM94.7744 185.668C94.7744 186.823 95.4854 187.514 96.9482 187.835L98.3154 188.143C98.9785 188.293 99.2656 188.525 99.2656 188.908C99.2656 189.407 98.7324 189.749 97.96 189.749C97.167 189.749 96.6816 189.441 96.5312 188.922H94.5898C94.7266 190.344 95.9297 191.157 97.9189 191.157C99.8945 191.157 101.241 190.187 101.241 188.696C101.241 187.575 100.585 186.96 99.1221 186.639L97.707 186.331C97.0098 186.174 96.6885 185.935 96.6885 185.552C96.6885 185.06 97.2148 184.725 97.9258 184.725C98.6641 184.725 99.1221 185.032 99.2246 185.531H101.063C100.954 184.109 99.8262 183.31 97.9121 183.31C96.0322 183.31 94.7744 184.26 94.7744 185.668Z" fill="#3C4257"/>
<rect x="23" y="174" width="81" height="24" stroke="white" stroke-width="4"/>
<rect x="639" y="174" width="65" height="24" fill="white"/>
<path d="M642.215 181.136V191H644.279V187.89H646.228C648.306 187.89 649.748 186.536 649.748 184.526C649.748 182.489 648.36 181.136 646.33 181.136H642.215ZM644.279 182.776H645.783C646.973 182.776 647.649 183.385 647.649 184.533C647.649 185.654 646.959 186.27 645.776 186.27H644.279V182.776ZM651.519 191H653.508V180.596H651.519V191ZM657.644 191.116C658.621 191.116 659.441 190.699 659.831 190.002H659.954V191H661.882V185.859C661.882 184.253 660.754 183.31 658.758 183.31C656.864 183.31 655.586 184.178 655.456 185.559H657.288C657.452 185.087 657.931 184.834 658.648 184.834C659.469 184.834 659.92 185.21 659.92 185.859V186.481L658.095 186.591C656.222 186.7 655.176 187.493 655.176 188.854C655.176 190.228 656.194 191.116 657.644 191.116ZM658.3 189.66C657.609 189.66 657.124 189.312 657.124 188.73C657.124 188.177 657.541 187.855 658.396 187.801L659.92 187.698V188.259C659.92 189.052 659.223 189.66 658.3 189.66ZM664.404 181.676V183.542H663.229V185.053H664.404V188.97C664.404 190.433 665.129 191.027 666.961 191.027C667.344 191.027 667.713 190.986 667.959 190.938V189.469C667.768 189.489 667.631 189.503 667.371 189.503C666.694 189.503 666.394 189.188 666.394 188.512V185.053H667.959V183.542H666.394V181.676H664.404ZM670.27 191H672.259V185.053H673.817V183.542H672.218V182.906C672.218 182.25 672.505 181.929 673.284 181.929C673.544 181.929 673.749 181.949 673.879 181.97V180.596C673.592 180.555 673.257 180.521 672.854 180.521C671.035 180.521 670.27 181.272 670.27 182.77V183.542H669.053V185.053H670.27V191ZM678.486 191.157C680.804 191.157 682.198 189.694 682.198 187.233C682.198 184.793 680.783 183.31 678.486 183.31C676.189 183.31 674.774 184.8 674.774 187.233C674.774 189.688 676.169 191.157 678.486 191.157ZM678.486 189.585C677.42 189.585 676.818 188.724 676.818 187.233C676.818 185.757 677.427 184.889 678.486 184.889C679.539 184.889 680.154 185.757 680.154 187.233C680.154 188.724 679.546 189.585 678.486 189.585ZM683.825 191H685.814V186.789C685.814 185.729 686.56 185.08 687.646 185.08C687.968 185.08 688.433 185.135 688.59 185.189V183.439C688.419 183.385 688.084 183.351 687.811 183.351C686.854 183.351 686.074 183.918 685.876 184.67H685.753V183.474H683.825V191ZM689.991 191H691.98V186.461C691.98 185.6 692.534 184.971 693.313 184.971C694.093 184.971 694.558 185.436 694.558 186.242V191H696.472V186.372C696.472 185.559 696.991 184.971 697.798 184.971C698.639 184.971 699.056 185.422 699.056 186.331V191H701.045V185.832C701.045 184.28 700.108 183.31 698.604 183.31C697.552 183.31 696.684 183.863 696.335 184.697H696.212C695.911 183.836 695.187 183.31 694.127 183.31C693.136 183.31 692.35 183.836 692.042 184.697H691.919V183.474H689.991V191Z" fill="#3C4257"/>
<rect x="639" y="174" width="65" height="24" stroke="white" stroke-width="4"/>
<rect x="326" y="174" width="81" height="44" fill="white"/>
<path d="M333.571 191.253C335.95 191.253 337.687 189.811 337.857 187.705H335.848C335.649 188.792 334.761 189.489 333.578 189.489C332.02 189.489 331.056 188.177 331.056 186.064C331.056 183.952 332.02 182.64 333.571 182.64C334.747 182.64 335.643 183.392 335.841 184.533H337.851C337.7 182.414 335.909 180.883 333.571 180.883C330.707 180.883 328.943 182.858 328.943 186.064C328.943 189.271 330.714 191.253 333.571 191.253ZM342.902 191.157C345.22 191.157 346.614 189.694 346.614 187.233C346.614 184.793 345.199 183.31 342.902 183.31C340.605 183.31 339.19 184.8 339.19 187.233C339.19 189.688 340.585 191.157 342.902 191.157ZM342.902 189.585C341.836 189.585 341.234 188.724 341.234 187.233C341.234 185.757 341.843 184.889 342.902 184.889C343.955 184.889 344.57 185.757 344.57 187.233C344.57 188.724 343.962 189.585 342.902 189.585ZM348.241 191H350.23V186.646C350.23 185.627 350.798 184.971 351.721 184.971C352.664 184.971 353.108 185.524 353.108 186.584V191H355.098V186.133C355.098 184.335 354.195 183.31 352.521 183.31C351.406 183.31 350.641 183.836 350.292 184.684H350.169V183.474H348.241V191ZM357.032 191H359.021V186.646C359.021 185.627 359.589 184.971 360.512 184.971C361.455 184.971 361.899 185.524 361.899 186.584V191H363.889V186.133C363.889 184.335 362.986 183.31 361.312 183.31C360.197 183.31 359.432 183.836 359.083 184.684H358.96V183.474H357.032V191ZM370.697 188.874C370.485 189.387 369.945 189.674 369.159 189.674C368.12 189.674 367.464 188.956 367.437 187.808V187.705H372.611V187.11C372.611 184.731 371.299 183.31 369.077 183.31C366.835 183.31 365.454 184.827 365.454 187.274C365.454 189.708 366.808 191.157 369.104 191.157C370.95 191.157 372.256 190.275 372.55 188.874H370.697ZM369.084 184.793C370.014 184.793 370.615 185.436 370.656 186.468H367.443C367.512 185.456 368.161 184.793 369.084 184.793ZM380.917 186.099C380.753 184.417 379.557 183.31 377.561 183.31C375.202 183.31 373.876 184.738 373.876 187.22C373.876 189.729 375.209 191.157 377.561 191.157C379.522 191.157 380.753 190.077 380.917 188.423H379.058C378.907 189.175 378.374 189.578 377.561 189.578C376.494 189.578 375.886 188.737 375.886 187.22C375.886 185.723 376.487 184.896 377.561 184.896C378.408 184.896 378.921 185.374 379.058 186.099H380.917ZM383.111 181.676V183.542H381.936V185.053H383.111V188.97C383.111 190.433 383.836 191.027 385.668 191.027C386.051 191.027 386.42 190.986 386.666 190.938V189.469C386.475 189.489 386.338 189.503 386.078 189.503C385.401 189.503 385.101 189.188 385.101 188.512V185.053H386.666V183.542H385.101V181.676H383.111ZM393.146 188.874C392.935 189.387 392.395 189.674 391.608 189.674C390.569 189.674 389.913 188.956 389.886 187.808V187.705H395.061V187.11C395.061 184.731 393.748 183.31 391.526 183.31C389.284 183.31 387.903 184.827 387.903 187.274C387.903 189.708 389.257 191.157 391.554 191.157C393.399 191.157 394.705 190.275 394.999 188.874H393.146ZM391.533 184.793C392.463 184.793 393.064 185.436 393.105 186.468H389.893C389.961 185.456 390.61 184.793 391.533 184.793ZM399.395 191.116C400.44 191.116 401.295 190.631 401.698 189.817H401.821V191H403.749V180.596H401.76V184.677H401.644C401.254 183.843 400.413 183.351 399.395 183.351C397.501 183.351 396.325 184.834 396.325 187.227C396.325 189.626 397.494 191.116 399.395 191.116ZM400.071 184.964C401.131 184.964 401.78 185.832 401.78 187.24C401.78 188.648 401.138 189.51 400.071 189.51C399.005 189.51 398.369 188.655 398.369 187.233C398.369 185.818 399.012 184.964 400.071 184.964ZM337.235 211.116C338.213 211.116 339.033 210.699 339.423 210.002H339.546V211H341.474V205.859C341.474 204.253 340.346 203.31 338.35 203.31C336.456 203.31 335.178 204.178 335.048 205.559H336.88C337.044 205.087 337.522 204.834 338.24 204.834C339.061 204.834 339.512 205.21 339.512 205.859V206.481L337.687 206.591C335.813 206.7 334.768 207.493 334.768 208.854C334.768 210.228 335.786 211.116 337.235 211.116ZM337.892 209.66C337.201 209.66 336.716 209.312 336.716 208.73C336.716 208.177 337.133 207.855 337.987 207.801L339.512 207.698V208.259C339.512 209.052 338.814 209.66 337.892 209.66ZM350.101 206.099C349.937 204.417 348.74 203.31 346.744 203.31C344.386 203.31 343.06 204.738 343.06 207.22C343.06 209.729 344.393 211.157 346.744 211.157C348.706 211.157 349.937 210.077 350.101 208.423H348.241C348.091 209.175 347.558 209.578 346.744 209.578C345.678 209.578 345.069 208.737 345.069 207.22C345.069 205.723 345.671 204.896 346.744 204.896C347.592 204.896 348.104 205.374 348.241 206.099H350.101ZM358.331 206.099C358.167 204.417 356.971 203.31 354.975 203.31C352.616 203.31 351.29 204.738 351.29 207.22C351.29 209.729 352.623 211.157 354.975 211.157C356.937 211.157 358.167 210.077 358.331 208.423H356.472C356.321 209.175 355.788 209.578 354.975 209.578C353.908 209.578 353.3 208.737 353.3 207.22C353.3 205.723 353.901 204.896 354.975 204.896C355.822 204.896 356.335 205.374 356.472 206.099H358.331ZM363.232 211.157C365.55 211.157 366.944 209.694 366.944 207.233C366.944 204.793 365.529 203.31 363.232 203.31C360.936 203.31 359.521 204.8 359.521 207.233C359.521 209.688 360.915 211.157 363.232 211.157ZM363.232 209.585C362.166 209.585 361.564 208.724 361.564 207.233C361.564 205.757 362.173 204.889 363.232 204.889C364.285 204.889 364.9 205.757 364.9 207.233C364.9 208.724 364.292 209.585 363.232 209.585ZM375.394 203.474H373.404V207.821C373.404 208.854 372.871 209.489 371.88 209.489C370.964 209.489 370.492 208.949 370.492 207.883V203.474H368.503V208.375C368.503 210.125 369.515 211.157 371.142 211.157C372.283 211.157 372.987 210.665 373.343 209.79H373.466V211H375.394V203.474ZM377.39 211H379.379V206.646C379.379 205.627 379.946 204.971 380.869 204.971C381.812 204.971 382.257 205.524 382.257 206.584V211H384.246V206.133C384.246 204.335 383.344 203.31 381.669 203.31C380.555 203.31 379.789 203.836 379.44 204.684H379.317V203.474H377.39V211ZM386.748 201.676V203.542H385.572V205.053H386.748V208.97C386.748 210.433 387.473 211.027 389.305 211.027C389.688 211.027 390.057 210.986 390.303 210.938V209.469C390.111 209.489 389.975 209.503 389.715 209.503C389.038 209.503 388.737 209.188 388.737 208.512V205.053H390.303V203.542H388.737V201.676H386.748ZM391.725 205.668C391.725 206.823 392.436 207.514 393.898 207.835L395.266 208.143C395.929 208.293 396.216 208.525 396.216 208.908C396.216 209.407 395.683 209.749 394.91 209.749C394.117 209.749 393.632 209.441 393.481 208.922H391.54C391.677 210.344 392.88 211.157 394.869 211.157C396.845 211.157 398.191 210.187 398.191 208.696C398.191 207.575 397.535 206.96 396.072 206.639L394.657 206.331C393.96 206.174 393.639 205.935 393.639 205.552C393.639 205.06 394.165 204.725 394.876 204.725C395.614 204.725 396.072 205.032 396.175 205.531H398.014C397.904 204.109 396.776 203.31 394.862 203.31C392.982 203.31 391.725 204.26 391.725 205.668Z" fill="#3C4257"/>
<rect x="326" y="174" width="81" height="44" stroke="white" stroke-width="4"/>
<defs>
<clipPath id="clip0">
<path d="M0 0H736V240H0V0Z" fill="white"/>
</clipPath>
</defs>
</svg>
