<svg xmlns="http://www.w3.org/2000/svg" xmlns:xlink="http://www.w3.org/1999/xlink" width="32" height="32" viewBox="0 0 32 32">
  <defs>
    <path id="processing-a" d="M16,8 C20.418278,8 24,11.581722 24,16 C24,20.418278 20.418278,24 16,24 C11.581722,24 8,20.418278 8,16 C8,11.581722 11.581722,8 16,8 Z M16,11 C15.4477152,11 15,11.4477152 15,12 L15,12 L15,16 C15,16.3769621 15.2085792,16.7052079 15.5166233,16.8756228 L15.5166233,16.8756228 L18.0980762,18.3660254 C18.5763688,18.6421678 19.1879592,18.4782926 19.4641016,18 C19.740244,17.5217074 19.5763688,16.910117 19.0980762,16.6339746 L19.0980762,16.6339746 L17,15.4226497 L17,12 C17,11.4477152 16.5522847,11 16,11 Z"/>
  </defs>
  <g fill="none" fill-rule="evenodd">
    <circle cx="16" cy="16" r="16" fill="#688EF1"/>
    <use fill="#FFF" xlink:href="#processing-a"/>
  </g>
</svg>
