<svg xmlns="http://www.w3.org/2000/svg" width="32" height="32" viewBox="0 0 32 32">
  <g fill="none" fill-rule="evenodd">
    <circle cx="16" cy="16" r="16" fill="#688FF1" fill-rule="nonzero"/>
    <path fill="#FFF" d="M24,12 L8,12 L8,11.25 C8,10.5596441 8.44771525,10 9,10 L23,10 C23.5522847,10 24,10.5596441 24,11.25 L24,12 Z M24,14.5 L24,21 C24,21.5522847 23.5522847,22 23,22 L9,22 C8.44771525,22 8,21.5522847 8,21 L8,14.5 L24,14.5 Z M12,18 C11.4477152,18 11,18.4477153 11,19 C11,19.5522847 11.4477152,20 12,20 L13,20 C13.5522848,20 14,19.5522847 14,19 C14,18.4477153 13.5522848,18 13,18 L12,18 Z"/>
  </g>
</svg>
