<svg width="736" height="240" viewBox="0 0 736 240" fill="none" xmlns="http://www.w3.org/2000/svg">
<g clip-path="url(#clip0)">
<path d="M0 0H736V240H0V0Z" fill="white"/>
<path d="M0 0L736 -6.43432e-05" stroke="#E3E8EE" stroke-width="2" stroke-linecap="round" stroke-linejoin="round" stroke-dasharray="0.01 16"/>
<path d="M0 16L736 15.9999" stroke="#E3E8EE" stroke-width="2" stroke-linecap="round" stroke-linejoin="round" stroke-dasharray="0.01 16"/>
<path d="M0 32L736 31.9999" stroke="#E3E8EE" stroke-width="2" stroke-linecap="round" stroke-linejoin="round" stroke-dasharray="0.01 16"/>
<path d="M0 48L736 47.9999" stroke="#E3E8EE" stroke-width="2" stroke-linecap="round" stroke-linejoin="round" stroke-dasharray="0.01 16"/>
<path d="M0 64L736 63.9999" stroke="#E3E8EE" stroke-width="2" stroke-linecap="round" stroke-linejoin="round" stroke-dasharray="0.01 16"/>
<path d="M0 80L736 79.9999" stroke="#E3E8EE" stroke-width="2" stroke-linecap="round" stroke-linejoin="round" stroke-dasharray="0.01 16"/>
<path d="M0 96L736 95.9999" stroke="#E3E8EE" stroke-width="2" stroke-linecap="round" stroke-linejoin="round" stroke-dasharray="0.01 16"/>
<path d="M0 112L736 112" stroke="#E3E8EE" stroke-width="2" stroke-linecap="round" stroke-linejoin="round" stroke-dasharray="0.01 16"/>
<path d="M0 128L736 128" stroke="#E3E8EE" stroke-width="2" stroke-linecap="round" stroke-linejoin="round" stroke-dasharray="0.01 16"/>
<path d="M0 144L736 144" stroke="#E3E8EE" stroke-width="2" stroke-linecap="round" stroke-linejoin="round" stroke-dasharray="0.01 16"/>
<path d="M0 160L736 160" stroke="#E3E8EE" stroke-width="2" stroke-linecap="round" stroke-linejoin="round" stroke-dasharray="0.01 16"/>
<path d="M0 176L736 176" stroke="#E3E8EE" stroke-width="2" stroke-linecap="round" stroke-linejoin="round" stroke-dasharray="0.01 16"/>
<path d="M0 192L736 192" stroke="#E3E8EE" stroke-width="2" stroke-linecap="round" stroke-linejoin="round" stroke-dasharray="0.01 16"/>
<path d="M0 208L736 208" stroke="#E3E8EE" stroke-width="2" stroke-linecap="round" stroke-linejoin="round" stroke-dasharray="0.01 16"/>
<path d="M0 224L736 224" stroke="#E3E8EE" stroke-width="2" stroke-linecap="round" stroke-linejoin="round" stroke-dasharray="0.01 16"/>
<path d="M0 240L736 240" stroke="#E3E8EE" stroke-width="2" stroke-linecap="round" stroke-linejoin="round" stroke-dasharray="0.01 16"/>
<rect x="0.5" y="0.5" width="735" height="239" stroke="white"/>
</g>
<rect x="28" y="26" width="432" height="47" fill="white"/>
<path d="M38.4609 42V32.6719H41.8438V30.7266H32.7188V32.6719H36.1016V42H38.4609ZM42.7969 42H45.0703V37.1875C45.0703 35.9766 45.9219 35.2344 47.1641 35.2344C47.5312 35.2344 48.0625 35.2969 48.2422 35.3594V33.3594C48.0469 33.2969 47.6641 33.2578 47.3516 33.2578C46.2578 33.2578 45.3672 33.9062 45.1406 34.7656H45V33.3984H42.7969V42ZM51.9688 42.1328C53.0859 42.1328 54.0234 41.6562 54.4688 40.8594H54.6094V42H56.8125V36.125C56.8125 34.2891 55.5234 33.2109 53.2422 33.2109C51.0781 33.2109 49.6172 34.2031 49.4688 35.7812H51.5625C51.75 35.2422 52.2969 34.9531 53.1172 34.9531C54.0547 34.9531 54.5703 35.3828 54.5703 36.125V36.8359L52.4844 36.9609C50.3438 37.0859 49.1484 37.9922 49.1484 39.5469C49.1484 41.1172 50.3125 42.1328 51.9688 42.1328ZM52.7188 40.4688C51.9297 40.4688 51.375 40.0703 51.375 39.4062C51.375 38.7734 51.8516 38.4062 52.8281 38.3438L54.5703 38.2266V38.8672C54.5703 39.7734 53.7734 40.4688 52.7188 40.4688ZM59.0469 42H61.3203V37.0234C61.3203 35.8594 61.9688 35.1094 63.0234 35.1094C64.1016 35.1094 64.6094 35.7422 64.6094 36.9531V42H66.8828V36.4375C66.8828 34.3828 65.8516 33.2109 63.9375 33.2109C62.6641 33.2109 61.7891 33.8125 61.3906 34.7812H61.25V33.3984H59.0469V42ZM68.8984 35.9062C68.8984 37.2266 69.7109 38.0156 71.3828 38.3828L72.9453 38.7344C73.7031 38.9062 74.0312 39.1719 74.0312 39.6094C74.0312 40.1797 73.4219 40.5703 72.5391 40.5703C71.6328 40.5703 71.0781 40.2188 70.9062 39.625H68.6875C68.8438 41.25 70.2188 42.1797 72.4922 42.1797C74.75 42.1797 76.2891 41.0703 76.2891 39.3672C76.2891 38.0859 75.5391 37.3828 73.8672 37.0156L72.25 36.6641C71.4531 36.4844 71.0859 36.2109 71.0859 35.7734C71.0859 35.2109 71.6875 34.8281 72.5 34.8281C73.3438 34.8281 73.8672 35.1797 73.9844 35.75H76.0859C75.9609 34.125 74.6719 33.2109 72.4844 33.2109C70.3359 33.2109 68.8984 34.2969 68.8984 35.9062ZM78.8203 42H81.0938V35.2031H82.875V33.4766H81.0469V32.75C81.0469 32 81.375 31.6328 82.2656 31.6328C82.5625 31.6328 82.7969 31.6562 82.9453 31.6797V30.1094C82.6172 30.0625 82.2344 30.0234 81.7734 30.0234C79.6953 30.0234 78.8203 30.8828 78.8203 32.5938V33.4766H77.4297V35.2031H78.8203V42ZM89.9609 39.5703C89.7188 40.1562 89.1016 40.4844 88.2031 40.4844C87.0156 40.4844 86.2656 39.6641 86.2344 38.3516V38.2344H92.1484V37.5547C92.1484 34.8359 90.6484 33.2109 88.1094 33.2109C85.5469 33.2109 83.9688 34.9453 83.9688 37.7422C83.9688 40.5234 85.5156 42.1797 88.1406 42.1797C90.25 42.1797 91.7422 41.1719 92.0781 39.5703H89.9609ZM88.1172 34.9062C89.1797 34.9062 89.8672 35.6406 89.9141 36.8203H86.2422C86.3203 35.6641 87.0625 34.9062 88.1172 34.9062ZM94.0156 42H96.2891V37.1875C96.2891 35.9766 97.1406 35.2344 98.3828 35.2344C98.75 35.2344 99.2812 35.2969 99.4609 35.3594V33.3594C99.2656 33.2969 98.8828 33.2578 98.5703 33.2578C97.4766 33.2578 96.5859 33.9062 96.3594 34.7656H96.2188V33.3984H94.0156V42ZM100.586 35.9062C100.586 37.2266 101.398 38.0156 103.07 38.3828L104.633 38.7344C105.391 38.9062 105.719 39.1719 105.719 39.6094C105.719 40.1797 105.109 40.5703 104.227 40.5703C103.32 40.5703 102.766 40.2188 102.594 39.625H100.375C100.531 41.25 101.906 42.1797 104.18 42.1797C106.438 42.1797 107.977 41.0703 107.977 39.3672C107.977 38.0859 107.227 37.3828 105.555 37.0156L103.938 36.6641C103.141 36.4844 102.773 36.2109 102.773 35.7734C102.773 35.2109 103.375 34.8281 104.188 34.8281C105.031 34.8281 105.555 35.1797 105.672 35.75H107.773C107.648 34.125 106.359 33.2109 104.172 33.2109C102.023 33.2109 100.586 34.2969 100.586 35.9062Z" fill="#3C4257"/>
<path d="M37.7734 66V55.9922H41.4062V54.7266H32.7344V55.9922H36.3672V66H37.7734ZM43.4844 66H44.8281V61.0156C44.8281 59.5938 45.6562 58.6406 47.1641 58.6406C48.4375 58.6406 49.1094 59.3828 49.1094 60.875V66H50.4531V60.5469C50.4531 58.5703 49.3281 57.4297 47.5469 57.4297C46.2578 57.4297 45.375 57.9766 44.9531 58.9062H44.8281V54.2344H43.4844V66ZM58.4844 63.8203C58.1328 64.5625 57.3984 64.9609 56.3125 64.9609C54.8828 64.9609 53.9531 63.9062 53.8828 62.2422V62.1797H59.9375V61.6641C59.9375 59.0469 58.5547 57.4297 56.2812 57.4297C53.9688 57.4297 52.4844 59.1484 52.4844 61.7969C52.4844 64.4609 53.9453 66.1484 56.2812 66.1484C58.125 66.1484 59.4375 65.2578 59.8281 63.8203H58.4844ZM56.2656 58.6172C57.6016 58.6172 58.4922 59.6016 58.5234 61.0938H53.8828C53.9844 59.6016 54.9219 58.6172 56.2656 58.6172ZM73.5312 60.1562C73.2969 58.6562 72.0469 57.4297 70 57.4297C67.6406 57.4297 66.1406 59.1328 66.1406 61.7578C66.1406 64.4375 67.6484 66.1484 70.0078 66.1484C72.0312 66.1484 73.2891 65.0078 73.5312 63.4609H72.1719C71.9219 64.4141 71.1328 64.9375 70 64.9375C68.5 64.9375 67.5312 63.7031 67.5312 61.7578C67.5312 59.8516 68.4844 58.6406 70 58.6406C71.2109 58.6406 71.9531 59.3203 72.1719 60.1562H73.5312ZM82.3281 57.5781H80.9844V62.5625C80.9844 64.0391 80.1719 64.9219 78.6875 64.9219C77.3438 64.9219 76.7812 64.2188 76.7812 62.7031V57.5781H75.4375V63.0312C75.4375 65.0234 76.4219 66.1484 78.3125 66.1484C79.6016 66.1484 80.5 65.6172 80.9219 64.6797H81.0469V66H82.3281V57.5781ZM84.6641 59.8828C84.6641 61.1016 85.3828 61.7812 86.9609 62.1641L88.4062 62.5156C89.3047 62.7344 89.7422 63.125 89.7422 63.7031C89.7422 64.4766 88.9297 65.0156 87.7969 65.0156C86.7188 65.0156 86.0469 64.5625 85.8203 63.8516H84.4375C84.5859 65.25 85.875 66.1484 87.75 66.1484C89.6641 66.1484 91.125 65.1094 91.125 63.6016C91.125 62.3906 90.3594 61.7031 88.7734 61.3203L87.4766 61.0078C86.4844 60.7656 86.0156 60.4062 86.0156 59.8281C86.0156 59.0781 86.7969 58.5703 87.7969 58.5703C88.8125 58.5703 89.4688 59.0156 89.6484 59.6875H90.9766C90.7969 58.3047 89.5703 57.4297 87.8047 57.4297C86.0156 57.4297 84.6641 58.4844 84.6641 59.8828ZM93.7188 55.3984V57.5781H92.3594V58.7031H93.7188V63.8125C93.7188 65.4219 94.4141 66.0625 96.1484 66.0625C96.4141 66.0625 96.6719 66.0312 96.9375 65.9844V64.8516C96.6875 64.875 96.5547 64.8828 96.3125 64.8828C95.4375 64.8828 95.0625 64.4609 95.0625 63.4688V58.7031H96.9375V57.5781H95.0625V55.3984H93.7188ZM102.305 66.1484C104.703 66.1484 106.188 64.4922 106.188 61.7891C106.188 59.0781 104.703 57.4297 102.305 57.4297C99.9062 57.4297 98.4219 59.0781 98.4219 61.7891C98.4219 64.4922 99.9062 66.1484 102.305 66.1484ZM102.305 64.9375C100.711 64.9375 99.8125 63.7812 99.8125 61.7891C99.8125 59.7891 100.711 58.6406 102.305 58.6406C103.898 58.6406 104.797 59.7891 104.797 61.7891C104.797 63.7812 103.898 64.9375 102.305 64.9375ZM108.297 66H109.641V60.7812C109.641 59.5938 110.492 58.6406 111.594 58.6406C112.656 58.6406 113.352 59.2812 113.352 60.2812V66H114.695V60.5859C114.695 59.5156 115.477 58.6406 116.648 58.6406C117.836 58.6406 118.422 59.25 118.422 60.4922V66H119.766V60.1797C119.766 58.4141 118.805 57.4297 117.086 57.4297C115.922 57.4297 114.961 58.0156 114.508 58.9062H114.383C113.992 58.0312 113.195 57.4297 112.055 57.4297C110.93 57.4297 110.086 57.9688 109.703 58.9062H109.578V57.5781H108.297V66ZM127.797 63.8203C127.445 64.5625 126.711 64.9609 125.625 64.9609C124.195 64.9609 123.266 63.9062 123.195 62.2422V62.1797H129.25V61.6641C129.25 59.0469 127.867 57.4297 125.594 57.4297C123.281 57.4297 121.797 59.1484 121.797 61.7969C121.797 64.4609 123.258 66.1484 125.594 66.1484C127.438 66.1484 128.75 65.2578 129.141 63.8203H127.797ZM125.578 58.6172C126.914 58.6172 127.805 59.6016 127.836 61.0938H123.195C123.297 59.6016 124.234 58.6172 125.578 58.6172ZM131.359 66H132.703V60.7812C132.703 59.5938 133.633 58.7344 134.914 58.7344C135.18 58.7344 135.664 58.7812 135.773 58.8125V57.4688C135.602 57.4453 135.32 57.4297 135.102 57.4297C133.984 57.4297 133.016 58.0078 132.766 58.8281H132.641V57.5781H131.359V66ZM142.047 66H143.391V61.0156C143.391 59.5938 144.219 58.6406 145.727 58.6406C147 58.6406 147.672 59.3828 147.672 60.875V66H149.016V60.5469C149.016 58.5703 147.891 57.4297 146.109 57.4297C144.82 57.4297 143.938 57.9766 143.516 58.9062H143.391V54.2344H142.047V66ZM153.812 66.1484C154.938 66.1484 155.859 65.6562 156.406 64.7578H156.531V66H157.812V60.2344C157.812 58.4844 156.664 57.4297 154.609 57.4297C152.812 57.4297 151.484 58.3203 151.305 59.6719H152.664C152.852 59.0078 153.555 58.625 154.562 58.625C155.82 58.625 156.469 59.1953 156.469 60.2344V61L154.039 61.1484C152.078 61.2656 150.969 62.1328 150.969 63.6406C150.969 65.1797 152.18 66.1484 153.812 66.1484ZM154.062 64.9688C153.086 64.9688 152.359 64.4688 152.359 63.6094C152.359 62.7656 152.922 62.3203 154.203 62.2344L156.469 62.0859V62.8594C156.469 64.0625 155.445 64.9688 154.062 64.9688ZM160.102 59.8828C160.102 61.1016 160.82 61.7812 162.398 62.1641L163.844 62.5156C164.742 62.7344 165.18 63.125 165.18 63.7031C165.18 64.4766 164.367 65.0156 163.234 65.0156C162.156 65.0156 161.484 64.5625 161.258 63.8516H159.875C160.023 65.25 161.312 66.1484 163.188 66.1484C165.102 66.1484 166.562 65.1094 166.562 63.6016C166.562 62.3906 165.797 61.7031 164.211 61.3203L162.914 61.0078C161.922 60.7656 161.453 60.4062 161.453 59.8281C161.453 59.0781 162.234 58.5703 163.234 58.5703C164.25 58.5703 164.906 59.0156 165.086 59.6875H166.414C166.234 58.3047 165.008 57.4297 163.242 57.4297C161.453 57.4297 160.102 58.4844 160.102 59.8828ZM175.531 66.1484C176.656 66.1484 177.578 65.6562 178.125 64.7578H178.25V66H179.531V60.2344C179.531 58.4844 178.383 57.4297 176.328 57.4297C174.531 57.4297 173.203 58.3203 173.023 59.6719H174.383C174.57 59.0078 175.273 58.625 176.281 58.625C177.539 58.625 178.188 59.1953 178.188 60.2344V61L175.758 61.1484C173.797 61.2656 172.688 62.1328 172.688 63.6406C172.688 65.1797 173.898 66.1484 175.531 66.1484ZM175.781 64.9688C174.805 64.9688 174.078 64.4688 174.078 63.6094C174.078 62.7656 174.641 62.3203 175.922 62.2344L178.188 62.0859V62.8594C178.188 64.0625 177.164 64.9688 175.781 64.9688ZM189.648 66.1484C190.812 66.1484 191.812 65.5938 192.344 64.6562H192.469V66H193.75V54.2344H192.406V58.9062H192.289C191.812 57.9844 190.82 57.4297 189.648 57.4297C187.508 57.4297 186.109 59.1484 186.109 61.7891C186.109 64.4375 187.492 66.1484 189.648 66.1484ZM189.961 58.6406C191.484 58.6406 192.438 59.8594 192.438 61.7891C192.438 63.7344 191.492 64.9375 189.961 64.9375C188.422 64.9375 187.5 63.7578 187.5 61.7891C187.5 59.8281 188.43 58.6406 189.961 58.6406ZM197.062 55.9531C197.578 55.9531 198 55.5312 198 55.0156C198 54.5 197.578 54.0781 197.062 54.0781C196.547 54.0781 196.125 54.5 196.125 55.0156C196.125 55.5312 196.547 55.9531 197.062 55.9531ZM196.391 66H197.734V57.5781H196.391V66ZM200.297 66H201.641V60.7812C201.641 59.5938 202.57 58.7344 203.852 58.7344C204.117 58.7344 204.602 58.7812 204.711 58.8125V57.4688C204.539 57.4453 204.258 57.4297 204.039 57.4297C202.922 57.4297 201.953 58.0078 201.703 58.8281H201.578V57.5781H200.297V66ZM211.734 63.8203C211.383 64.5625 210.648 64.9609 209.562 64.9609C208.133 64.9609 207.203 63.9062 207.133 62.2422V62.1797H213.188V61.6641C213.188 59.0469 211.805 57.4297 209.531 57.4297C207.219 57.4297 205.734 59.1484 205.734 61.7969C205.734 64.4609 207.195 66.1484 209.531 66.1484C211.375 66.1484 212.688 65.2578 213.078 63.8203H211.734ZM209.516 58.6172C210.852 58.6172 211.742 59.6016 211.773 61.0938H207.133C207.234 59.6016 208.172 58.6172 209.516 58.6172ZM222.266 60.1562C222.031 58.6562 220.781 57.4297 218.734 57.4297C216.375 57.4297 214.875 59.1328 214.875 61.7578C214.875 64.4375 216.383 66.1484 218.742 66.1484C220.766 66.1484 222.023 65.0078 222.266 63.4609H220.906C220.656 64.4141 219.867 64.9375 218.734 64.9375C217.234 64.9375 216.266 63.7031 216.266 61.7578C216.266 59.8516 217.219 58.6406 218.734 58.6406C219.945 58.6406 220.688 59.3203 220.906 60.1562H222.266ZM224.969 55.3984V57.5781H223.609V58.7031H224.969V63.8125C224.969 65.4219 225.664 66.0625 227.398 66.0625C227.664 66.0625 227.922 66.0312 228.188 65.9844V64.8516C227.938 64.875 227.805 64.8828 227.562 64.8828C226.688 64.8828 226.312 64.4609 226.312 63.4688V58.7031H228.188V57.5781H226.312V55.3984H224.969ZM234.734 66H236.078V60.7812C236.078 59.5938 237.008 58.7344 238.289 58.7344C238.555 58.7344 239.039 58.7812 239.148 58.8125V57.4688C238.977 57.4453 238.695 57.4297 238.477 57.4297C237.359 57.4297 236.391 58.0078 236.141 58.8281H236.016V57.5781H234.734V66ZM246.172 63.8203C245.82 64.5625 245.086 64.9609 244 64.9609C242.57 64.9609 241.641 63.9062 241.57 62.2422V62.1797H247.625V61.6641C247.625 59.0469 246.242 57.4297 243.969 57.4297C241.656 57.4297 240.172 59.1484 240.172 61.7969C240.172 64.4609 241.633 66.1484 243.969 66.1484C245.812 66.1484 247.125 65.2578 247.516 63.8203H246.172ZM243.953 58.6172C245.289 58.6172 246.18 59.6016 246.211 61.0938H241.57C241.672 59.6016 242.609 58.6172 243.953 58.6172ZM249.812 66H251.156V54.2344H249.812V66ZM256.109 66.1484C257.234 66.1484 258.156 65.6562 258.703 64.7578H258.828V66H260.109V60.2344C260.109 58.4844 258.961 57.4297 256.906 57.4297C255.109 57.4297 253.781 58.3203 253.602 59.6719H254.961C255.148 59.0078 255.852 58.625 256.859 58.625C258.117 58.625 258.766 59.1953 258.766 60.2344V61L256.336 61.1484C254.375 61.2656 253.266 62.1328 253.266 63.6406C253.266 65.1797 254.477 66.1484 256.109 66.1484ZM256.359 64.9688C255.383 64.9688 254.656 64.4688 254.656 63.6094C254.656 62.7656 255.219 62.3203 256.5 62.2344L258.766 62.0859V62.8594C258.766 64.0625 257.742 64.9688 256.359 64.9688ZM263.156 55.3984V57.5781H261.797V58.7031H263.156V63.8125C263.156 65.4219 263.852 66.0625 265.586 66.0625C265.852 66.0625 266.109 66.0312 266.375 65.9844V64.8516C266.125 64.875 265.992 64.8828 265.75 64.8828C264.875 64.8828 264.5 64.4609 264.5 63.4688V58.7031H266.375V57.5781H264.5V55.3984H263.156ZM269.109 55.9531C269.625 55.9531 270.047 55.5312 270.047 55.0156C270.047 54.5 269.625 54.0781 269.109 54.0781C268.594 54.0781 268.172 54.5 268.172 55.0156C268.172 55.5312 268.594 55.9531 269.109 55.9531ZM268.438 66H269.781V57.5781H268.438V66ZM275.805 66.1484C278.203 66.1484 279.688 64.4922 279.688 61.7891C279.688 59.0781 278.203 57.4297 275.805 57.4297C273.406 57.4297 271.922 59.0781 271.922 61.7891C271.922 64.4922 273.406 66.1484 275.805 66.1484ZM275.805 64.9375C274.211 64.9375 273.312 63.7812 273.312 61.7891C273.312 59.7891 274.211 58.6406 275.805 58.6406C277.398 58.6406 278.297 59.7891 278.297 61.7891C278.297 63.7812 277.398 64.9375 275.805 64.9375ZM281.797 66H283.141V61.0156C283.141 59.5391 284.008 58.6406 285.352 58.6406C286.695 58.6406 287.336 59.3594 287.336 60.875V66H288.68V60.5469C288.68 58.5469 287.625 57.4297 285.734 57.4297C284.445 57.4297 283.625 57.9766 283.203 58.9062H283.078V57.5781H281.797V66ZM290.945 59.8828C290.945 61.1016 291.664 61.7812 293.242 62.1641L294.688 62.5156C295.586 62.7344 296.023 63.125 296.023 63.7031C296.023 64.4766 295.211 65.0156 294.078 65.0156C293 65.0156 292.328 64.5625 292.102 63.8516H290.719C290.867 65.25 292.156 66.1484 294.031 66.1484C295.945 66.1484 297.406 65.1094 297.406 63.6016C297.406 62.3906 296.641 61.7031 295.055 61.3203L293.758 61.0078C292.766 60.7656 292.297 60.4062 292.297 59.8281C292.297 59.0781 293.078 58.5703 294.078 58.5703C295.094 58.5703 295.75 59.0156 295.93 59.6875H297.258C297.078 58.3047 295.852 57.4297 294.086 57.4297C292.297 57.4297 290.945 58.4844 290.945 59.8828ZM299.594 66H300.938V61.0156C300.938 59.5938 301.766 58.6406 303.273 58.6406C304.547 58.6406 305.219 59.3828 305.219 60.875V66H306.562V60.5469C306.562 58.5703 305.438 57.4297 303.656 57.4297C302.367 57.4297 301.484 57.9766 301.062 58.9062H300.938V54.2344H299.594V66ZM309.719 55.9531C310.234 55.9531 310.656 55.5312 310.656 55.0156C310.656 54.5 310.234 54.0781 309.719 54.0781C309.203 54.0781 308.781 54.5 308.781 55.0156C308.781 55.5312 309.203 55.9531 309.719 55.9531ZM309.047 66H310.391V57.5781H309.047V66ZM317.055 57.4297C315.906 57.4297 314.898 58.0156 314.359 58.9844H314.234V57.5781H312.953V68.8125H314.297V64.7344H314.422C314.883 65.625 315.852 66.1484 317.055 66.1484C319.195 66.1484 320.594 64.4219 320.594 61.7891C320.594 59.1406 319.203 57.4297 317.055 57.4297ZM316.734 64.9375C315.219 64.9375 314.258 63.7188 314.258 61.7891C314.258 59.8516 315.219 58.6406 316.742 58.6406C318.281 58.6406 319.203 59.8203 319.203 61.7891C319.203 63.7578 318.281 64.9375 316.734 64.9375ZM337.812 57.5781H336.461L334.805 64.3125H334.68L332.797 57.5781H331.508L329.625 64.3125H329.5L327.844 57.5781H326.484L328.844 66H330.203L332.078 59.4844H332.203L334.086 66H335.453L337.812 57.5781ZM340.312 55.9531C340.828 55.9531 341.25 55.5312 341.25 55.0156C341.25 54.5 340.828 54.0781 340.312 54.0781C339.797 54.0781 339.375 54.5 339.375 55.0156C339.375 55.5312 339.797 55.9531 340.312 55.9531ZM339.641 66H340.984V57.5781H339.641V66ZM344.109 55.3984V57.5781H342.75V58.7031H344.109V63.8125C344.109 65.4219 344.805 66.0625 346.539 66.0625C346.805 66.0625 347.062 66.0312 347.328 65.9844V64.8516C347.078 64.875 346.945 64.8828 346.703 64.8828C345.828 64.8828 345.453 64.4609 345.453 63.4688V58.7031H347.328V57.5781H345.453V55.3984H344.109ZM349.438 66H350.781V61.0156C350.781 59.5938 351.609 58.6406 353.117 58.6406C354.391 58.6406 355.062 59.3828 355.062 60.875V66H356.406V60.5469C356.406 58.5703 355.281 57.4297 353.5 57.4297C352.211 57.4297 351.328 57.9766 350.906 58.9062H350.781V54.2344H349.438V66ZM363.675 56.6758V58.542H362.499V60.0527H363.675V63.9697C363.675 65.4326 364.399 66.0273 366.231 66.0273C366.614 66.0273 366.983 65.9863 367.229 65.9385V64.4688C367.038 64.4893 366.901 64.5029 366.642 64.5029C365.965 64.5029 365.664 64.1885 365.664 63.5117V60.0527H367.229V58.542H365.664V56.6758H363.675ZM368.959 66H370.948V61.666C370.948 60.668 371.522 59.9912 372.521 59.9912C373.423 59.9912 373.908 60.5381 373.908 61.6045V66H375.897V61.1533C375.897 59.3486 374.934 58.3301 373.313 58.3301C372.206 58.3301 371.386 58.8496 371.037 59.7041H370.914V55.5957H368.959V66ZM382.706 63.874C382.494 64.3867 381.954 64.6738 381.168 64.6738C380.129 64.6738 379.473 63.9561 379.445 62.8076V62.7051H384.62V62.1104C384.62 59.7314 383.308 58.3096 381.086 58.3096C378.844 58.3096 377.463 59.8271 377.463 62.2744C377.463 64.708 378.816 66.1572 381.113 66.1572C382.959 66.1572 384.265 65.2754 384.559 63.874H382.706ZM381.093 59.793C382.022 59.793 382.624 60.4355 382.665 61.4678H379.452C379.521 60.4561 380.17 59.793 381.093 59.793ZM394.218 58.3506C393.179 58.3506 392.324 58.8633 391.914 59.7109H391.791V58.4736H389.863V68.4951H391.853V64.8516H391.976C392.345 65.6445 393.172 66.1162 394.252 66.1162C396.139 66.1162 397.294 64.6533 397.294 62.2334C397.294 59.8066 396.125 58.3506 394.218 58.3506ZM393.541 64.5098C392.488 64.5098 391.832 63.6484 391.832 62.2402C391.832 60.832 392.488 59.9639 393.548 59.9639C394.607 59.9639 395.25 60.8184 395.25 62.2334C395.25 63.6553 394.614 64.5098 393.541 64.5098ZM398.982 66H400.972V55.5957H398.982V66ZM405.107 66.1162C406.085 66.1162 406.905 65.6992 407.295 65.002H407.418V66H409.346V60.8594C409.346 59.2529 408.218 58.3096 406.222 58.3096C404.328 58.3096 403.05 59.1777 402.92 60.5586H404.752C404.916 60.0869 405.395 59.834 406.112 59.834C406.933 59.834 407.384 60.21 407.384 60.8594V61.4814L405.559 61.5908C403.686 61.7002 402.64 62.4932 402.64 63.8535C402.64 65.2275 403.658 66.1162 405.107 66.1162ZM405.764 64.6602C405.073 64.6602 404.588 64.3115 404.588 63.7305C404.588 63.1768 405.005 62.8555 405.859 62.8008L407.384 62.6982V63.2588C407.384 64.0518 406.687 64.6602 405.764 64.6602ZM411.868 56.6758V58.542H410.692V60.0527H411.868V63.9697C411.868 65.4326 412.593 66.0273 414.425 66.0273C414.808 66.0273 415.177 65.9863 415.423 65.9385V64.4688C415.231 64.4893 415.095 64.5029 414.835 64.5029C414.158 64.5029 413.857 64.1885 413.857 63.5117V60.0527H415.423V58.542H413.857V56.6758H411.868ZM417.733 66H419.723V60.0527H421.281V58.542H419.682V57.9062C419.682 57.25 419.969 56.9287 420.748 56.9287C421.008 56.9287 421.213 56.9492 421.343 56.9697V55.5957C421.056 55.5547 420.721 55.5205 420.317 55.5205C418.499 55.5205 417.733 56.2725 417.733 57.7695V58.542H416.517V60.0527H417.733V66ZM425.95 66.1572C428.268 66.1572 429.662 64.6943 429.662 62.2334C429.662 59.793 428.247 58.3096 425.95 58.3096C423.653 58.3096 422.238 59.7998 422.238 62.2334C422.238 64.6875 423.633 66.1572 425.95 66.1572ZM425.95 64.585C424.884 64.585 424.282 63.7236 424.282 62.2334C424.282 60.7568 424.891 59.8887 425.95 59.8887C427.003 59.8887 427.618 60.7568 427.618 62.2334C427.618 63.7236 427.01 64.585 425.95 64.585ZM431.289 66H433.278V61.7891C433.278 60.7295 434.023 60.0801 435.11 60.0801C435.432 60.0801 435.896 60.1348 436.054 60.1895V58.4395C435.883 58.3848 435.548 58.3506 435.274 58.3506C434.317 58.3506 433.538 58.918 433.34 59.6699H433.217V58.4736H431.289V66ZM437.455 66H439.444V61.4609C439.444 60.5996 439.998 59.9707 440.777 59.9707C441.557 59.9707 442.021 60.4355 442.021 61.2422V66H443.936V61.3721C443.936 60.5586 444.455 59.9707 445.262 59.9707C446.103 59.9707 446.52 60.4219 446.52 61.3311V66H448.509V60.832C448.509 59.2803 447.572 58.3096 446.068 58.3096C445.016 58.3096 444.147 58.8633 443.799 59.6973H443.676C443.375 58.8359 442.65 58.3096 441.591 58.3096C440.6 58.3096 439.813 58.8359 439.506 59.6973H439.383V58.4736H437.455V66Z" fill="#4F566B"/>
<rect x="28" y="26" width="432" height="47" stroke="white" stroke-width="8"/>
<path d="M192 112C192 107.582 195.582 104 200 104H232C236.418 104 240 107.582 240 112V144C240 148.418 236.418 152 232 152H200C195.582 152 192 148.418 192 144V112Z" fill="white"/>
<path d="M216 158C232.569 158 246 144.569 246 128C246 111.431 232.569 98 216 98C199.431 98 186 111.431 186 128C186 144.569 199.431 158 216 158Z" fill="#A3ACB9" stroke="white" stroke-width="12"/>
<path fill-rule="evenodd" clip-rule="evenodd" d="M226 123.5H206V122.562C206 121.7 206.56 121 207.25 121H224.75C225.44 121 226 121.7 226 122.562V123.5ZM226 126.625V134.75C226 135.44 225.44 136 224.75 136H207.25C206.56 136 206 135.44 206 134.75V126.625H226ZM211 131C210.31 131 209.75 131.56 209.75 132.25C209.75 132.94 210.31 133.5 211 133.5H212.25C212.94 133.5 213.5 132.94 213.5 132.25C213.5 131.56 212.94 131 212.25 131H211Z" fill="white"/>
<path d="M32 104C32 99.5817 35.5817 96 40 96H88C92.4183 96 96 99.5817 96 104V152C96 156.418 92.4183 160 88 160H40C35.5817 160 32 156.418 32 152V104Z" fill="white"/>
<path d="M64 166C84.9868 166 102 148.987 102 128C102 107.013 84.9868 90 64 90C43.0132 90 26 107.013 26 128C26 148.987 43.0132 166 64 166Z" fill="#A3ACB9" stroke="white" stroke-width="12"/>
<path d="M64.2453 118H63.7547C63.6335 118 63.5123 118.005 63.3914 118.015C60.9835 118.216 59.1942 120.33 59.3949 122.738L59.6001 125.202C59.7908 127.49 61.7037 129.25 64 129.25C66.2963 129.25 68.2092 127.49 68.3999 125.202L68.6051 122.738C68.6152 122.617 68.6203 122.496 68.6203 122.375C68.6203 119.959 66.6615 118 64.2453 118Z" fill="white"/>
<path d="M68.8752 129.828C67.5965 131.022 65.8806 131.75 64 131.75C62.1194 131.75 60.4035 131.022 59.1248 129.828L56.926 130.653C55.166 131.313 54 132.995 54 134.875V136.75C54 137.44 54.5596 138 55.25 138H72.75C73.4404 138 74 137.44 74 136.75V134.875C74 132.995 72.834 131.313 71.074 130.653L68.8752 129.828Z" fill="white"/>
<path d="M640 104C640 99.5817 643.582 96 648 96H696C700.418 96 704 99.5817 704 104V152C704 156.418 700.418 160 696 160H648C643.582 160 640 156.418 640 152V104Z" fill="white"/>
<path d="M672 166C692.987 166 710 148.987 710 128C710 107.013 692.987 90 672 90C651.013 90 634 107.013 634 128C634 148.987 651.013 166 672 166Z" fill="#E28DDC" stroke="white" stroke-width="12"/>
<path d="M664.129 118.557L662 121.75C662 123.821 663.679 125.5 665.75 125.5C667.054 125.5 668.203 124.834 668.875 123.824C669.547 124.834 670.696 125.5 672 125.5C673.304 125.5 674.453 124.834 675.125 123.824C675.797 124.834 676.946 125.5 678.25 125.5C680.321 125.5 682 123.821 682 121.75L679.871 118.557C679.639 118.209 679.249 118 678.831 118H665.169C664.751 118 664.361 118.209 664.129 118.557Z" fill="white"/>
<path d="M665.75 133V127.375C664.852 127.375 664.003 127.165 663.25 126.79V136.75C663.25 137.44 663.81 138 664.5 138H679.5C680.19 138 680.75 137.44 680.75 136.75V126.79C679.997 127.165 679.148 127.375 678.25 127.375V133H665.75Z" fill="white"/>
<path d="M336 104C336 99.5817 339.582 96 344 96H392C396.418 96 400 99.5817 400 104V152C400 156.418 396.418 160 392 160H344C339.582 160 336 156.418 336 152V104Z" fill="white"/>
<path d="M368 166C388.987 166 406 148.987 406 128C406 107.013 388.987 90 368 90C347.013 90 330 107.013 330 128C330 148.987 347.013 166 368 166Z" fill="#7DABF8" stroke="white" stroke-width="12"/>
<path fill-rule="evenodd" clip-rule="evenodd" d="M361.365 131.75L365.838 133.705L365.901 133.729C367.23 134.239 368.789 134.239 370.118 133.729L370.181 133.705L374.642 131.755L377.353 132.941C378.216 133.316 378.216 133.929 377.353 134.303L369.556 137.717C368.573 138.094 367.421 138.094 366.438 137.717L358.647 134.308C357.784 133.934 357.784 133.321 358.647 132.946L361.365 131.75ZM361.365 126.75L365.838 128.705L365.901 128.729C367.23 129.239 368.789 129.239 370.118 128.729L370.181 128.705L374.642 126.755L377.353 127.941C378.216 128.316 378.216 128.929 377.353 129.303L369.556 132.717C368.573 133.094 367.421 133.094 366.438 132.717L358.647 129.308C357.784 128.934 357.784 128.321 358.647 127.946L361.365 126.75ZM369.562 118.325L369.556 118.319L377.353 122.223C378.216 122.656 378.216 123.351 377.353 123.778L369.556 127.677C368.573 128.108 367.421 128.108 366.438 127.677L358.647 123.778C357.784 123.345 357.784 122.651 358.647 122.223L366.438 118.325C367.422 117.892 368.578 117.892 369.562 118.325Z" fill="white"/>
<path d="M496 112C496 107.582 499.582 104 504 104H536C540.418 104 544 107.582 544 112V144C544 148.418 540.418 152 536 152H504C499.582 152 496 148.418 496 144V112Z" fill="white"/>
<path d="M520 158C536.569 158 550 144.569 550 128C550 111.431 536.569 98 520 98C503.431 98 490 111.431 490 128C490 144.569 503.431 158 520 158Z" fill="#F5925E" stroke="white" stroke-width="12"/>
<path fill-rule="evenodd" clip-rule="evenodd" d="M525.729 126.875L519.99 121.136C519.501 120.647 519.501 119.855 519.99 119.366C520.478 118.878 521.271 118.878 521.759 119.366L529.634 127.241C530.122 127.729 530.122 128.521 529.634 129.009L521.759 136.884C521.271 137.372 520.478 137.372 519.99 136.884C519.501 136.395 519.501 135.603 519.99 135.114L525.729 129.375H511.25C510.56 129.375 510 128.815 510 128.125C510 127.435 510.56 126.875 511.25 126.875H525.729Z" fill="white"/>
<path d="M104.5 127.25C104.086 127.25 103.75 127.586 103.75 128C103.75 128.414 104.086 128.75 104.5 128.75V127.25ZM184.03 128.53C184.323 128.237 184.323 127.763 184.03 127.47L179.257 122.697C178.964 122.404 178.49 122.404 178.197 122.697C177.904 122.99 177.904 123.464 178.197 123.757L182.439 128L178.197 132.243C177.904 132.536 177.904 133.01 178.197 133.303C178.49 133.596 178.964 133.596 179.257 133.303L184.03 128.53ZM104.5 128.75L183.5 128.75V127.25L104.5 127.25V128.75Z" fill="#8792A2"/>
<path d="M552.5 127.25C552.086 127.25 551.75 127.586 551.75 128C551.75 128.414 552.086 128.75 552.5 128.75V127.25ZM632.03 128.53C632.323 128.237 632.323 127.763 632.03 127.47L627.257 122.697C626.964 122.404 626.49 122.404 626.197 122.697C625.904 122.99 625.904 123.464 626.197 123.757L630.439 128L626.197 132.243C625.904 132.536 625.904 133.01 626.197 133.303C626.49 133.596 626.964 133.596 627.257 133.303L632.03 128.53ZM552.5 128.75L631.5 128.75V127.25L552.5 127.25V128.75Z" fill="#8792A2"/>
<path d="M248.5 127.25C248.086 127.25 247.75 127.586 247.75 128C247.75 128.414 248.086 128.75 248.5 128.75V127.25ZM328.03 128.53C328.323 128.237 328.323 127.763 328.03 127.47L323.257 122.697C322.964 122.404 322.49 122.404 322.197 122.697C321.904 122.99 321.904 123.464 322.197 123.757L326.439 128L322.197 132.243C321.904 132.536 321.904 133.01 322.197 133.303C322.49 133.596 322.964 133.596 323.257 133.303L328.03 128.53ZM248.5 128.75L327.5 128.75V127.25L248.5 127.25V128.75Z" fill="#8792A2"/>
<path d="M408.5 127.25C408.086 127.25 407.75 127.586 407.75 128C407.75 128.414 408.086 128.75 408.5 128.75V127.25ZM488.03 128.53C488.323 128.237 488.323 127.763 488.03 127.47L483.257 122.697C482.964 122.404 482.49 122.404 482.197 122.697C481.904 122.99 481.904 123.464 482.197 123.757L486.439 128L482.197 132.243C481.904 132.536 481.904 133.01 482.197 133.303C482.49 133.596 482.964 133.596 483.257 133.303L488.03 128.53ZM408.5 128.75L487.5 128.75V127.25L408.5 127.25V128.75Z" fill="#8792A2"/>
<rect x="23" y="174" width="81" height="24" fill="white"/>
<path d="M30.5098 191.253C32.8887 191.253 34.625 189.811 34.7959 187.705H32.7861C32.5879 188.792 31.6992 189.489 30.5166 189.489C28.958 189.489 27.9941 188.177 27.9941 186.064C27.9941 183.952 28.958 182.64 30.5098 182.64C31.6855 182.64 32.5811 183.392 32.7793 184.533H34.7891C34.6387 182.414 32.8477 180.883 30.5098 180.883C27.6455 180.883 25.8818 182.858 25.8818 186.064C25.8818 189.271 27.6523 191.253 30.5098 191.253ZM43.3203 183.474H41.3311V187.821C41.3311 188.854 40.7979 189.489 39.8066 189.489C38.8906 189.489 38.4189 188.949 38.4189 187.883V183.474H36.4297V188.375C36.4297 190.125 37.4414 191.157 39.0684 191.157C40.21 191.157 40.9141 190.665 41.2695 189.79H41.3926V191H43.3203V183.474ZM45.1455 185.668C45.1455 186.823 45.8564 187.514 47.3193 187.835L48.6865 188.143C49.3496 188.293 49.6367 188.525 49.6367 188.908C49.6367 189.407 49.1035 189.749 48.3311 189.749C47.5381 189.749 47.0527 189.441 46.9023 188.922H44.9609C45.0977 190.344 46.3008 191.157 48.29 191.157C50.2656 191.157 51.6123 190.187 51.6123 188.696C51.6123 187.575 50.9561 186.96 49.4932 186.639L48.0781 186.331C47.3809 186.174 47.0596 185.935 47.0596 185.552C47.0596 185.06 47.5859 184.725 48.2969 184.725C49.0352 184.725 49.4932 185.032 49.5957 185.531H51.4346C51.3252 184.109 50.1973 183.31 48.2832 183.31C46.4033 183.31 45.1455 184.26 45.1455 185.668ZM53.7725 181.676V183.542H52.5967V185.053H53.7725V188.97C53.7725 190.433 54.4971 191.027 56.3291 191.027C56.7119 191.027 57.0811 190.986 57.3271 190.938V189.469C57.1357 189.489 56.999 189.503 56.7393 189.503C56.0625 189.503 55.7617 189.188 55.7617 188.512V185.053H57.3271V183.542H55.7617V181.676H53.7725ZM62.2764 191.157C64.5938 191.157 65.9883 189.694 65.9883 187.233C65.9883 184.793 64.5732 183.31 62.2764 183.31C59.9795 183.31 58.5645 184.8 58.5645 187.233C58.5645 189.688 59.959 191.157 62.2764 191.157ZM62.2764 189.585C61.21 189.585 60.6084 188.724 60.6084 187.233C60.6084 185.757 61.2168 184.889 62.2764 184.889C63.3291 184.889 63.9443 185.757 63.9443 187.233C63.9443 188.724 63.3359 189.585 62.2764 189.585ZM67.6152 191H69.6045V186.461C69.6045 185.6 70.1582 184.971 70.9375 184.971C71.7168 184.971 72.1816 185.436 72.1816 186.242V191H74.0957V186.372C74.0957 185.559 74.6152 184.971 75.4219 184.971C76.2627 184.971 76.6797 185.422 76.6797 186.331V191H78.6689V185.832C78.6689 184.28 77.7324 183.31 76.2285 183.31C75.1758 183.31 74.3076 183.863 73.959 184.697H73.8359C73.5352 183.836 72.8105 183.31 71.751 183.31C70.7598 183.31 69.9736 183.836 69.666 184.697H69.543V183.474H67.6152V191ZM85.4775 188.874C85.2656 189.387 84.7256 189.674 83.9395 189.674C82.9004 189.674 82.2441 188.956 82.2168 187.808V187.705H87.3916V187.11C87.3916 184.731 86.0791 183.31 83.8574 183.31C81.6152 183.31 80.2344 184.827 80.2344 187.274C80.2344 189.708 81.5879 191.157 83.8848 191.157C85.7305 191.157 87.0361 190.275 87.3301 188.874H85.4775ZM83.8643 184.793C84.7939 184.793 85.3955 185.436 85.4365 186.468H82.2236C82.292 185.456 82.9414 184.793 83.8643 184.793ZM89.0254 191H91.0146V186.789C91.0146 185.729 91.7598 185.08 92.8467 185.08C93.168 185.08 93.6328 185.135 93.79 185.189V183.439C93.6191 183.385 93.2842 183.351 93.0107 183.351C92.0537 183.351 91.2744 183.918 91.0762 184.67H90.9531V183.474H89.0254V191ZM94.7744 185.668C94.7744 186.823 95.4854 187.514 96.9482 187.835L98.3154 188.143C98.9785 188.293 99.2656 188.525 99.2656 188.908C99.2656 189.407 98.7324 189.749 97.96 189.749C97.167 189.749 96.6816 189.441 96.5312 188.922H94.5898C94.7266 190.344 95.9297 191.157 97.9189 191.157C99.8945 191.157 101.241 190.187 101.241 188.696C101.241 187.575 100.585 186.96 99.1221 186.639L97.707 186.331C97.0098 186.174 96.6885 185.935 96.6885 185.552C96.6885 185.06 97.2148 184.725 97.9258 184.725C98.6641 184.725 99.1221 185.032 99.2246 185.531H101.063C100.954 184.109 99.8262 183.31 97.9121 183.31C96.0322 183.31 94.7744 184.26 94.7744 185.668Z" fill="#3C4257"/>
<rect x="23" y="174" width="81" height="24" stroke="white" stroke-width="4"/>
<rect x="336" y="174" width="65" height="24" fill="white"/>
<path d="M339.215 181.136V191H341.279V187.89H343.228C345.306 187.89 346.748 186.536 346.748 184.526C346.748 182.489 345.36 181.136 343.33 181.136H339.215ZM341.279 182.776H342.783C343.973 182.776 344.649 183.385 344.649 184.533C344.649 185.654 343.959 186.27 342.776 186.27H341.279V182.776ZM348.519 191H350.508V180.596H348.519V191ZM354.644 191.116C355.621 191.116 356.441 190.699 356.831 190.002H356.954V191H358.882V185.859C358.882 184.253 357.754 183.31 355.758 183.31C353.864 183.31 352.586 184.178 352.456 185.559H354.288C354.452 185.087 354.931 184.834 355.648 184.834C356.469 184.834 356.92 185.21 356.92 185.859V186.481L355.095 186.591C353.222 186.7 352.176 187.493 352.176 188.854C352.176 190.228 353.194 191.116 354.644 191.116ZM355.3 189.66C354.609 189.66 354.124 189.312 354.124 188.73C354.124 188.177 354.541 187.855 355.396 187.801L356.92 187.698V188.259C356.92 189.052 356.223 189.66 355.3 189.66ZM361.404 181.676V183.542H360.229V185.053H361.404V188.97C361.404 190.433 362.129 191.027 363.961 191.027C364.344 191.027 364.713 190.986 364.959 190.938V189.469C364.768 189.489 364.631 189.503 364.371 189.503C363.694 189.503 363.394 189.188 363.394 188.512V185.053H364.959V183.542H363.394V181.676H361.404ZM367.27 191H369.259V185.053H370.817V183.542H369.218V182.906C369.218 182.25 369.505 181.929 370.284 181.929C370.544 181.929 370.749 181.949 370.879 181.97V180.596C370.592 180.555 370.257 180.521 369.854 180.521C368.035 180.521 367.27 181.272 367.27 182.77V183.542H366.053V185.053H367.27V191ZM375.486 191.157C377.804 191.157 379.198 189.694 379.198 187.233C379.198 184.793 377.783 183.31 375.486 183.31C373.189 183.31 371.774 184.8 371.774 187.233C371.774 189.688 373.169 191.157 375.486 191.157ZM375.486 189.585C374.42 189.585 373.818 188.724 373.818 187.233C373.818 185.757 374.427 184.889 375.486 184.889C376.539 184.889 377.154 185.757 377.154 187.233C377.154 188.724 376.546 189.585 375.486 189.585ZM380.825 191H382.814V186.789C382.814 185.729 383.56 185.08 384.646 185.08C384.968 185.08 385.433 185.135 385.59 185.189V183.439C385.419 183.385 385.084 183.351 384.811 183.351C383.854 183.351 383.074 183.918 382.876 184.67H382.753V183.474H380.825V191ZM386.991 191H388.98V186.461C388.98 185.6 389.534 184.971 390.313 184.971C391.093 184.971 391.558 185.436 391.558 186.242V191H393.472V186.372C393.472 185.559 393.991 184.971 394.798 184.971C395.639 184.971 396.056 185.422 396.056 186.331V191H398.045V185.832C398.045 184.28 397.108 183.31 395.604 183.31C394.552 183.31 393.684 183.863 393.335 184.697H393.212C392.911 183.836 392.187 183.31 391.127 183.31C390.136 183.31 389.35 183.836 389.042 184.697H388.919V183.474H386.991V191Z" fill="#3C4257"/>
<rect x="336" y="174" width="65" height="24" stroke="white" stroke-width="4"/>
<rect x="631" y="174" width="81" height="44" fill="white"/>
<path d="M638.571 191.253C640.95 191.253 642.687 189.811 642.857 187.705H640.848C640.649 188.792 639.761 189.489 638.578 189.489C637.02 189.489 636.056 188.177 636.056 186.064C636.056 183.952 637.02 182.64 638.571 182.64C639.747 182.64 640.643 183.392 640.841 184.533H642.851C642.7 182.414 640.909 180.883 638.571 180.883C635.707 180.883 633.943 182.858 633.943 186.064C633.943 189.271 635.714 191.253 638.571 191.253ZM647.902 191.157C650.22 191.157 651.614 189.694 651.614 187.233C651.614 184.793 650.199 183.31 647.902 183.31C645.605 183.31 644.19 184.8 644.19 187.233C644.19 189.688 645.585 191.157 647.902 191.157ZM647.902 189.585C646.836 189.585 646.234 188.724 646.234 187.233C646.234 185.757 646.843 184.889 647.902 184.889C648.955 184.889 649.57 185.757 649.57 187.233C649.57 188.724 648.962 189.585 647.902 189.585ZM653.241 191H655.23V186.646C655.23 185.627 655.798 184.971 656.721 184.971C657.664 184.971 658.108 185.524 658.108 186.584V191H660.098V186.133C660.098 184.335 659.195 183.31 657.521 183.31C656.406 183.31 655.641 183.836 655.292 184.684H655.169V183.474H653.241V191ZM662.032 191H664.021V186.646C664.021 185.627 664.589 184.971 665.512 184.971C666.455 184.971 666.899 185.524 666.899 186.584V191H668.889V186.133C668.889 184.335 667.986 183.31 666.312 183.31C665.197 183.31 664.432 183.836 664.083 184.684H663.96V183.474H662.032V191ZM675.697 188.874C675.485 189.387 674.945 189.674 674.159 189.674C673.12 189.674 672.464 188.956 672.437 187.808V187.705H677.611V187.11C677.611 184.731 676.299 183.31 674.077 183.31C671.835 183.31 670.454 184.827 670.454 187.274C670.454 189.708 671.808 191.157 674.104 191.157C675.95 191.157 677.256 190.275 677.55 188.874H675.697ZM674.084 184.793C675.014 184.793 675.615 185.436 675.656 186.468H672.443C672.512 185.456 673.161 184.793 674.084 184.793ZM685.917 186.099C685.753 184.417 684.557 183.31 682.561 183.31C680.202 183.31 678.876 184.738 678.876 187.22C678.876 189.729 680.209 191.157 682.561 191.157C684.522 191.157 685.753 190.077 685.917 188.423H684.058C683.907 189.175 683.374 189.578 682.561 189.578C681.494 189.578 680.886 188.737 680.886 187.22C680.886 185.723 681.487 184.896 682.561 184.896C683.408 184.896 683.921 185.374 684.058 186.099H685.917ZM688.111 181.676V183.542H686.936V185.053H688.111V188.97C688.111 190.433 688.836 191.027 690.668 191.027C691.051 191.027 691.42 190.986 691.666 190.938V189.469C691.475 189.489 691.338 189.503 691.078 189.503C690.401 189.503 690.101 189.188 690.101 188.512V185.053H691.666V183.542H690.101V181.676H688.111ZM698.146 188.874C697.935 189.387 697.395 189.674 696.608 189.674C695.569 189.674 694.913 188.956 694.886 187.808V187.705H700.061V187.11C700.061 184.731 698.748 183.31 696.526 183.31C694.284 183.31 692.903 184.827 692.903 187.274C692.903 189.708 694.257 191.157 696.554 191.157C698.399 191.157 699.705 190.275 699.999 188.874H698.146ZM696.533 184.793C697.463 184.793 698.064 185.436 698.105 186.468H694.893C694.961 185.456 695.61 184.793 696.533 184.793ZM704.395 191.116C705.44 191.116 706.295 190.631 706.698 189.817H706.821V191H708.749V180.596H706.76V184.677H706.644C706.254 183.843 705.413 183.351 704.395 183.351C702.501 183.351 701.325 184.834 701.325 187.227C701.325 189.626 702.494 191.116 704.395 191.116ZM705.071 184.964C706.131 184.964 706.78 185.832 706.78 187.24C706.78 188.648 706.138 189.51 705.071 189.51C704.005 189.51 703.369 188.655 703.369 187.233C703.369 185.818 704.012 184.964 705.071 184.964ZM642.235 211.116C643.213 211.116 644.033 210.699 644.423 210.002H644.546V211H646.474V205.859C646.474 204.253 645.346 203.31 643.35 203.31C641.456 203.31 640.178 204.178 640.048 205.559H641.88C642.044 205.087 642.522 204.834 643.24 204.834C644.061 204.834 644.512 205.21 644.512 205.859V206.481L642.687 206.591C640.813 206.7 639.768 207.493 639.768 208.854C639.768 210.228 640.786 211.116 642.235 211.116ZM642.892 209.66C642.201 209.66 641.716 209.312 641.716 208.73C641.716 208.177 642.133 207.855 642.987 207.801L644.512 207.698V208.259C644.512 209.052 643.814 209.66 642.892 209.66ZM655.101 206.099C654.937 204.417 653.74 203.31 651.744 203.31C649.386 203.31 648.06 204.738 648.06 207.22C648.06 209.729 649.393 211.157 651.744 211.157C653.706 211.157 654.937 210.077 655.101 208.423H653.241C653.091 209.175 652.558 209.578 651.744 209.578C650.678 209.578 650.069 208.737 650.069 207.22C650.069 205.723 650.671 204.896 651.744 204.896C652.592 204.896 653.104 205.374 653.241 206.099H655.101ZM663.331 206.099C663.167 204.417 661.971 203.31 659.975 203.31C657.616 203.31 656.29 204.738 656.29 207.22C656.29 209.729 657.623 211.157 659.975 211.157C661.937 211.157 663.167 210.077 663.331 208.423H661.472C661.321 209.175 660.788 209.578 659.975 209.578C658.908 209.578 658.3 208.737 658.3 207.22C658.3 205.723 658.901 204.896 659.975 204.896C660.822 204.896 661.335 205.374 661.472 206.099H663.331ZM668.232 211.157C670.55 211.157 671.944 209.694 671.944 207.233C671.944 204.793 670.529 203.31 668.232 203.31C665.936 203.31 664.521 204.8 664.521 207.233C664.521 209.688 665.915 211.157 668.232 211.157ZM668.232 209.585C667.166 209.585 666.564 208.724 666.564 207.233C666.564 205.757 667.173 204.889 668.232 204.889C669.285 204.889 669.9 205.757 669.9 207.233C669.9 208.724 669.292 209.585 668.232 209.585ZM680.394 203.474H678.404V207.821C678.404 208.854 677.871 209.489 676.88 209.489C675.964 209.489 675.492 208.949 675.492 207.883V203.474H673.503V208.375C673.503 210.125 674.515 211.157 676.142 211.157C677.283 211.157 677.987 210.665 678.343 209.79H678.466V211H680.394V203.474ZM682.39 211H684.379V206.646C684.379 205.627 684.946 204.971 685.869 204.971C686.812 204.971 687.257 205.524 687.257 206.584V211H689.246V206.133C689.246 204.335 688.344 203.31 686.669 203.31C685.555 203.31 684.789 203.836 684.44 204.684H684.317V203.474H682.39V211ZM691.748 201.676V203.542H690.572V205.053H691.748V208.97C691.748 210.433 692.473 211.027 694.305 211.027C694.688 211.027 695.057 210.986 695.303 210.938V209.469C695.111 209.489 694.975 209.503 694.715 209.503C694.038 209.503 693.737 209.188 693.737 208.512V205.053H695.303V203.542H693.737V201.676H691.748ZM696.725 205.668C696.725 206.823 697.436 207.514 698.898 207.835L700.266 208.143C700.929 208.293 701.216 208.525 701.216 208.908C701.216 209.407 700.683 209.749 699.91 209.749C699.117 209.749 698.632 209.441 698.481 208.922H696.54C696.677 210.344 697.88 211.157 699.869 211.157C701.845 211.157 703.191 210.187 703.191 208.696C703.191 207.575 702.535 206.96 701.072 206.639L699.657 206.331C698.96 206.174 698.639 205.935 698.639 205.552C698.639 205.06 699.165 204.725 699.876 204.725C700.614 204.725 701.072 205.032 701.175 205.531H703.014C702.904 204.109 701.776 203.31 699.862 203.31C697.982 203.31 696.725 204.26 696.725 205.668Z" fill="#3C4257"/>
<rect x="631" y="174" width="81" height="44" stroke="white" stroke-width="4"/>
<defs>
<clipPath id="clip0">
<path d="M0 0H736V240H0V0Z" fill="white"/>
</clipPath>
</defs>
</svg>
