<svg width="448" height="272" viewBox="0 0 448 272" fill="none" xmlns="http://www.w3.org/2000/svg">
<g clip-path="url(#clip0)">
<path d="M0 0H448V272H0V0Z" fill="white"/>
<path d="M0 0L448 -3.91654e-05" stroke="#E3E8EE" stroke-width="2" stroke-linecap="round" stroke-linejoin="round" stroke-dasharray="0.01 16"/>
<path d="M0 16L448 16" stroke="#E3E8EE" stroke-width="2" stroke-linecap="round" stroke-linejoin="round" stroke-dasharray="0.01 16"/>
<path d="M0 32L448 32" stroke="#E3E8EE" stroke-width="2" stroke-linecap="round" stroke-linejoin="round" stroke-dasharray="0.01 16"/>
<path d="M0 48L448 48" stroke="#E3E8EE" stroke-width="2" stroke-linecap="round" stroke-linejoin="round" stroke-dasharray="0.01 16"/>
<path d="M0 64L448 64" stroke="#E3E8EE" stroke-width="2" stroke-linecap="round" stroke-linejoin="round" stroke-dasharray="0.01 16"/>
<path d="M0 80L448 80" stroke="#E3E8EE" stroke-width="2" stroke-linecap="round" stroke-linejoin="round" stroke-dasharray="0.01 16"/>
<path d="M0 96L448 96" stroke="#E3E8EE" stroke-width="2" stroke-linecap="round" stroke-linejoin="round" stroke-dasharray="0.01 16"/>
<path d="M0 112L448 112" stroke="#E3E8EE" stroke-width="2" stroke-linecap="round" stroke-linejoin="round" stroke-dasharray="0.01 16"/>
<path d="M0 128L448 128" stroke="#E3E8EE" stroke-width="2" stroke-linecap="round" stroke-linejoin="round" stroke-dasharray="0.01 16"/>
<path d="M0 144L448 144" stroke="#E3E8EE" stroke-width="2" stroke-linecap="round" stroke-linejoin="round" stroke-dasharray="0.01 16"/>
<path d="M0 160L448 160" stroke="#E3E8EE" stroke-width="2" stroke-linecap="round" stroke-linejoin="round" stroke-dasharray="0.01 16"/>
<path d="M0 176L448 176" stroke="#E3E8EE" stroke-width="2" stroke-linecap="round" stroke-linejoin="round" stroke-dasharray="0.01 16"/>
<path d="M0 192L448 192" stroke="#E3E8EE" stroke-width="2" stroke-linecap="round" stroke-linejoin="round" stroke-dasharray="0.01 16"/>
<path d="M0 208L448 208" stroke="#E3E8EE" stroke-width="2" stroke-linecap="round" stroke-linejoin="round" stroke-dasharray="0.01 16"/>
<path d="M0 224L448 224" stroke="#E3E8EE" stroke-width="2" stroke-linecap="round" stroke-linejoin="round" stroke-dasharray="0.01 16"/>
<path d="M0 240L448 240" stroke="#E3E8EE" stroke-width="2" stroke-linecap="round" stroke-linejoin="round" stroke-dasharray="0.01 16"/>
<path d="M0 256L448 256" stroke="#E3E8EE" stroke-width="2" stroke-linecap="round" stroke-linejoin="round" stroke-dasharray="0.01 16"/>
<path d="M0 272L448 272" stroke="#E3E8EE" stroke-width="2" stroke-linecap="round" stroke-linejoin="round" stroke-dasharray="0.01 16"/>
<rect x="0.5" y="0.5" width="447" height="271" stroke="white"/>
</g>
<rect x="28" y="188" width="392" height="56" rx="8" fill="#C1C9D2"/>
<path d="M127.367 210.727V222H129.727V218.445H131.953C134.328 218.445 135.977 216.898 135.977 214.602C135.977 212.273 134.391 210.727 132.07 210.727H127.367ZM129.727 212.602H131.445C132.805 212.602 133.578 213.297 133.578 214.609C133.578 215.891 132.789 216.594 131.438 216.594H129.727V212.602ZM137.922 222H140.195V217.188C140.195 215.977 141.047 215.234 142.289 215.234C142.656 215.234 143.188 215.297 143.367 215.359V213.359C143.172 213.297 142.789 213.258 142.477 213.258C141.383 213.258 140.492 213.906 140.266 214.766H140.125V213.398H137.922V222ZM148.508 222.18C151.156 222.18 152.75 220.508 152.75 217.695C152.75 214.906 151.133 213.211 148.508 213.211C145.883 213.211 144.266 214.914 144.266 217.695C144.266 220.5 145.859 222.18 148.508 222.18ZM148.508 220.383C147.289 220.383 146.602 219.398 146.602 217.695C146.602 216.008 147.297 215.016 148.508 215.016C149.711 215.016 150.414 216.008 150.414 217.695C150.414 219.398 149.719 220.383 148.508 220.383ZM162.234 216.398C162.047 214.477 160.68 213.211 158.398 213.211C155.703 213.211 154.188 214.844 154.188 217.68C154.188 220.547 155.711 222.18 158.398 222.18C160.641 222.18 162.047 220.945 162.234 219.055H160.109C159.938 219.914 159.328 220.375 158.398 220.375C157.18 220.375 156.484 219.414 156.484 217.68C156.484 215.969 157.172 215.023 158.398 215.023C159.367 215.023 159.953 215.57 160.109 216.398H162.234ZM169.586 219.57C169.344 220.156 168.727 220.484 167.828 220.484C166.641 220.484 165.891 219.664 165.859 218.352V218.234H171.773V217.555C171.773 214.836 170.273 213.211 167.734 213.211C165.172 213.211 163.594 214.945 163.594 217.742C163.594 220.523 165.141 222.18 167.766 222.18C169.875 222.18 171.367 221.172 171.703 219.57H169.586ZM167.742 214.906C168.805 214.906 169.492 215.641 169.539 216.82H165.867C165.945 215.664 166.688 214.906 167.742 214.906ZM173.445 215.906C173.445 217.227 174.258 218.016 175.93 218.383L177.492 218.734C178.25 218.906 178.578 219.172 178.578 219.609C178.578 220.18 177.969 220.57 177.086 220.57C176.18 220.57 175.625 220.219 175.453 219.625H173.234C173.391 221.25 174.766 222.18 177.039 222.18C179.297 222.18 180.836 221.07 180.836 219.367C180.836 218.086 180.086 217.383 178.414 217.016L176.797 216.664C176 216.484 175.633 216.211 175.633 215.773C175.633 215.211 176.234 214.828 177.047 214.828C177.891 214.828 178.414 215.18 178.531 215.75H180.633C180.508 214.125 179.219 213.211 177.031 213.211C174.883 213.211 173.445 214.297 173.445 215.906ZM182.352 215.906C182.352 217.227 183.164 218.016 184.836 218.383L186.398 218.734C187.156 218.906 187.484 219.172 187.484 219.609C187.484 220.18 186.875 220.57 185.992 220.57C185.086 220.57 184.531 220.219 184.359 219.625H182.141C182.297 221.25 183.672 222.18 185.945 222.18C188.203 222.18 189.742 221.07 189.742 219.367C189.742 218.086 188.992 217.383 187.32 217.016L185.703 216.664C184.906 216.484 184.539 216.211 184.539 215.773C184.539 215.211 185.141 214.828 185.953 214.828C186.797 214.828 187.32 215.18 187.438 215.75H189.539C189.414 214.125 188.125 213.211 185.938 213.211C183.789 213.211 182.352 214.297 182.352 215.906ZM192.766 212.078C193.469 212.078 194.047 211.516 194.047 210.812C194.047 210.102 193.469 209.539 192.766 209.539C192.062 209.539 191.477 210.102 191.477 210.812C191.477 211.516 192.062 212.078 192.766 212.078ZM191.625 222H193.898V213.398H191.625V222ZM196.203 222H198.477V217.023C198.477 215.859 199.125 215.109 200.18 215.109C201.258 215.109 201.766 215.742 201.766 216.953V222H204.039V216.438C204.039 214.383 203.008 213.211 201.094 213.211C199.82 213.211 198.945 213.812 198.547 214.781H198.406V213.398H196.203V222ZM210.047 225.258C212.648 225.258 214.297 223.992 214.297 221.984V213.398H212.094V214.773H211.953C211.492 213.836 210.5 213.258 209.336 213.258C207.148 213.258 205.805 214.961 205.805 217.625C205.805 220.203 207.141 221.875 209.289 221.875C210.5 221.875 211.406 221.383 211.883 220.477H212.023V222.078C212.023 223.07 211.312 223.648 210.094 223.648C209.109 223.648 208.469 223.305 208.352 222.758H206.102C206.242 224.266 207.758 225.258 210.047 225.258ZM210.078 220.133C208.844 220.133 208.141 219.164 208.141 217.617C208.141 216.07 208.852 215.102 210.078 215.102C211.305 215.102 212.047 216.07 212.047 217.617C212.047 219.164 211.312 220.133 210.078 220.133ZM225.68 213.258C224.492 213.258 223.516 213.844 223.047 214.812H222.906V213.398H220.703V224.852H222.977V220.688H223.117C223.539 221.594 224.484 222.133 225.719 222.133C227.875 222.133 229.195 220.461 229.195 217.695C229.195 214.922 227.859 213.258 225.68 213.258ZM224.906 220.297C223.703 220.297 222.953 219.312 222.953 217.703C222.953 216.094 223.703 215.102 224.914 215.102C226.125 215.102 226.859 216.078 226.859 217.695C226.859 219.32 226.133 220.297 224.906 220.297ZM233.406 222.133C234.523 222.133 235.461 221.656 235.906 220.859H236.047V222H238.25V216.125C238.25 214.289 236.961 213.211 234.68 213.211C232.516 213.211 231.055 214.203 230.906 215.781H233C233.188 215.242 233.734 214.953 234.555 214.953C235.492 214.953 236.008 215.383 236.008 216.125V216.836L233.922 216.961C231.781 217.086 230.586 217.992 230.586 219.547C230.586 221.117 231.75 222.133 233.406 222.133ZM234.156 220.469C233.367 220.469 232.812 220.07 232.812 219.406C232.812 218.773 233.289 218.406 234.266 218.344L236.008 218.227V218.867C236.008 219.773 235.211 220.469 234.156 220.469ZM241.32 225.125C243.469 225.125 244.523 224.359 245.258 222.164L248.227 213.398H245.82L244.008 219.961H243.867L242.055 213.398H239.547L242.57 222.047L242.492 222.375C242.305 223.07 241.82 223.352 240.969 223.352C240.875 223.352 240.531 223.344 240.453 223.328V225.102C240.547 225.117 241.234 225.125 241.32 225.125ZM249.812 222H252.086V216.812C252.086 215.828 252.719 215.109 253.609 215.109C254.5 215.109 255.031 215.641 255.031 216.562V222H257.219V216.711C257.219 215.781 257.812 215.109 258.734 215.109C259.695 215.109 260.172 215.625 260.172 216.664V222H262.445V216.094C262.445 214.32 261.375 213.211 259.656 213.211C258.453 213.211 257.461 213.844 257.062 214.797H256.922C256.578 213.812 255.75 213.211 254.539 213.211C253.406 213.211 252.508 213.812 252.156 214.797H252.016V213.398H249.812V222ZM270.227 219.57C269.984 220.156 269.367 220.484 268.469 220.484C267.281 220.484 266.531 219.664 266.5 218.352V218.234H272.414V217.555C272.414 214.836 270.914 213.211 268.375 213.211C265.812 213.211 264.234 214.945 264.234 217.742C264.234 220.523 265.781 222.18 268.406 222.18C270.516 222.18 272.008 221.172 272.344 219.57H270.227ZM268.383 214.906C269.445 214.906 270.133 215.641 270.18 216.82H266.508C266.586 215.664 267.328 214.906 268.383 214.906ZM274.281 222H276.555V217.023C276.555 215.859 277.203 215.109 278.258 215.109C279.336 215.109 279.844 215.742 279.844 216.953V222H282.117V216.438C282.117 214.383 281.086 213.211 279.172 213.211C277.898 213.211 277.023 213.812 276.625 214.781H276.484V213.398H274.281V222ZM284.977 211.344V213.477H283.633V215.203H284.977V219.68C284.977 221.352 285.805 222.031 287.898 222.031C288.336 222.031 288.758 221.984 289.039 221.93V220.25C288.82 220.273 288.664 220.289 288.367 220.289C287.594 220.289 287.25 219.93 287.25 219.156V215.203H289.039V213.477H287.25V211.344H284.977ZM298.148 222.133C299.344 222.133 300.32 221.578 300.781 220.648H300.922V222H303.125V210.109H300.852V214.773H300.719C300.273 213.82 299.312 213.258 298.148 213.258C295.984 213.258 294.641 214.953 294.641 217.688C294.641 220.43 295.977 222.133 298.148 222.133ZM298.922 215.102C300.133 215.102 300.875 216.094 300.875 217.703C300.875 219.312 300.141 220.297 298.922 220.297C297.703 220.297 296.977 219.32 296.977 217.695C296.977 216.078 297.711 215.102 298.922 215.102ZM311.055 219.57C310.812 220.156 310.195 220.484 309.297 220.484C308.109 220.484 307.359 219.664 307.328 218.352V218.234H313.242V217.555C313.242 214.836 311.742 213.211 309.203 213.211C306.641 213.211 305.062 214.945 305.062 217.742C305.062 220.523 306.609 222.18 309.234 222.18C311.344 222.18 312.836 221.172 313.172 219.57H311.055ZM309.211 214.906C310.273 214.906 310.961 215.641 311.008 216.82H307.336C307.414 215.664 308.156 214.906 309.211 214.906ZM315.758 211.344V213.477H314.414V215.203H315.758V219.68C315.758 221.352 316.586 222.031 318.68 222.031C319.117 222.031 319.539 221.984 319.82 221.93V220.25C319.602 220.273 319.445 220.289 319.148 220.289C318.375 220.289 318.031 219.93 318.031 219.156V215.203H319.82V213.477H318.031V211.344H315.758ZM324.078 222.133C325.195 222.133 326.133 221.656 326.578 220.859H326.719V222H328.922V216.125C328.922 214.289 327.633 213.211 325.352 213.211C323.188 213.211 321.727 214.203 321.578 215.781H323.672C323.859 215.242 324.406 214.953 325.227 214.953C326.164 214.953 326.68 215.383 326.68 216.125V216.836L324.594 216.961C322.453 217.086 321.258 217.992 321.258 219.547C321.258 221.117 322.422 222.133 324.078 222.133ZM324.828 220.469C324.039 220.469 323.484 220.07 323.484 219.406C323.484 218.773 323.961 218.406 324.938 218.344L326.68 218.227V218.867C326.68 219.773 325.883 220.469 324.828 220.469ZM332.312 212.078C333.016 212.078 333.594 211.516 333.594 210.812C333.594 210.102 333.016 209.539 332.312 209.539C331.609 209.539 331.023 210.102 331.023 210.812C331.023 211.516 331.609 212.078 332.312 212.078ZM331.172 222H333.445V213.398H331.172V222ZM335.828 222H338.102V210.109H335.828V222ZM340.273 215.906C340.273 217.227 341.086 218.016 342.758 218.383L344.32 218.734C345.078 218.906 345.406 219.172 345.406 219.609C345.406 220.18 344.797 220.57 343.914 220.57C343.008 220.57 342.453 220.219 342.281 219.625H340.062C340.219 221.25 341.594 222.18 343.867 222.18C346.125 222.18 347.664 221.07 347.664 219.367C347.664 218.086 346.914 217.383 345.242 217.016L343.625 216.664C342.828 216.484 342.461 216.211 342.461 215.773C342.461 215.211 343.062 214.828 343.875 214.828C344.719 214.828 345.242 215.18 345.359 215.75H347.461C347.336 214.125 346.047 213.211 343.859 213.211C341.711 213.211 340.273 214.297 340.273 215.906Z" fill="white"/>
<path fill-rule="evenodd" clip-rule="evenodd" d="M111 208C115.418 208 119 211.582 119 216C119 220.418 115.418 224 111 224C106.582 224 103 220.418 103 216C103 211.582 106.582 208 111 208ZM111 211C110.448 211 110 211.448 110 212V216C110 216.377 110.209 216.705 110.517 216.876L113.098 218.366C113.576 218.642 114.188 218.478 114.464 218C114.74 217.522 114.576 216.91 114.098 216.634L112 215.423V212C112 211.448 111.552 211 111 211Z" fill="white"/>
<rect x="28" y="188" width="392" height="56" rx="8" stroke="white" stroke-width="8"/>
<rect x="30" y="78" width="388" height="100" rx="6" fill="white"/>
<path d="M32.5 84C32.5 82.0969 34.1555 80.5 36.2667 80.5H411.733C413.845 80.5 415.5 82.0969 415.5 84V172C415.5 173.903 413.845 175.5 411.733 175.5H36.2667C34.1555 175.5 32.5 173.903 32.5 172V84Z" fill="white" stroke="#C1C9D2"/>
<path d="M32 128H416M224 128V176" stroke="#C1C9D2"/>
<path d="M54.1562 110H55.5312V107.664H57.1328V106.406H55.5312V98.7266H53.4922C51.9141 101.078 50.1875 103.828 48.6641 106.383V107.664H54.1562V110ZM50.1016 106.32C51.3281 104.25 52.8047 101.922 54.0703 100.031H54.1641V106.414H50.1016V106.32ZM59.2344 101.906H60.5938C60.5938 100.57 61.4922 99.6875 62.8438 99.6875C64.1719 99.6875 64.9766 100.578 64.9766 101.773C64.9766 102.766 64.5547 103.352 63.1172 104.906L59.3047 109.031V110H66.6016V108.734H61.2578V108.609L63.8203 105.961C65.8516 103.859 66.4141 102.922 66.4141 101.625C66.4141 99.7969 64.9062 98.4609 62.9375 98.4609C60.7812 98.4609 59.2344 99.8984 59.2344 101.906ZM73.8906 110H75.2656V107.664H76.8672V106.406H75.2656V98.7266H73.2266C71.6484 101.078 69.9219 103.828 68.3984 106.383V107.664H73.8906V110ZM69.8359 106.32C71.0625 104.25 72.5391 101.922 73.8047 100.031H73.8984V106.414H69.8359V106.32ZM78.9688 101.906H80.3281C80.3281 100.57 81.2266 99.6875 82.5781 99.6875C83.9062 99.6875 84.7109 100.578 84.7109 101.773C84.7109 102.766 84.2891 103.352 82.8516 104.906L79.0391 109.031V110H86.3359V108.734H80.9922V108.609L83.5547 105.961C85.5859 103.859 86.1484 102.922 86.1484 101.625C86.1484 99.7969 84.6406 98.4609 82.6719 98.4609C80.5156 98.4609 78.9688 99.8984 78.9688 101.906ZM98.375 110H99.75V107.664H101.352V106.406H99.75V98.7266H97.7109C96.1328 101.078 94.4062 103.828 92.8828 106.383V107.664H98.375V110ZM94.3203 106.32C95.5469 104.25 97.0234 101.922 98.2891 100.031H98.3828V106.414H94.3203V106.32ZM103.453 101.906H104.812C104.812 100.57 105.711 99.6875 107.062 99.6875C108.391 99.6875 109.195 100.578 109.195 101.773C109.195 102.766 108.773 103.352 107.336 104.906L103.523 109.031V110H110.82V108.734H105.477V108.609L108.039 105.961C110.07 103.859 110.633 102.922 110.633 101.625C110.633 99.7969 109.125 98.4609 107.156 98.4609C105 98.4609 103.453 99.8984 103.453 101.906ZM118.109 110H119.484V107.664H121.086V106.406H119.484V98.7266H117.445C115.867 101.078 114.141 103.828 112.617 106.383V107.664H118.109V110ZM114.055 106.32C115.281 104.25 116.758 101.922 118.023 100.031H118.117V106.414H114.055V106.32ZM123.188 101.906H124.547C124.547 100.57 125.445 99.6875 126.797 99.6875C128.125 99.6875 128.93 100.578 128.93 101.773C128.93 102.766 128.508 103.352 127.07 104.906L123.258 109.031V110H130.555V108.734H125.211V108.609L127.773 105.961C129.805 103.859 130.367 102.922 130.367 101.625C130.367 99.7969 128.859 98.4609 126.891 98.4609C124.734 98.4609 123.188 99.8984 123.188 101.906ZM142.594 110H143.969V107.664H145.57V106.406H143.969V98.7266H141.93C140.352 101.078 138.625 103.828 137.102 106.383V107.664H142.594V110ZM138.539 106.32C139.766 104.25 141.242 101.922 142.508 100.031H142.602V106.414H138.539V106.32ZM147.672 101.906H149.031C149.031 100.57 149.93 99.6875 151.281 99.6875C152.609 99.6875 153.414 100.578 153.414 101.773C153.414 102.766 152.992 103.352 151.555 104.906L147.742 109.031V110H155.039V108.734H149.695V108.609L152.258 105.961C154.289 103.859 154.852 102.922 154.852 101.625C154.852 99.7969 153.344 98.4609 151.375 98.4609C149.219 98.4609 147.672 99.8984 147.672 101.906ZM162.328 110H163.703V107.664H165.305V106.406H163.703V98.7266H161.664C160.086 101.078 158.359 103.828 156.836 106.383V107.664H162.328V110ZM158.273 106.32C159.5 104.25 160.977 101.922 162.242 100.031H162.336V106.414H158.273V106.32ZM167.406 101.906H168.766C168.766 100.57 169.664 99.6875 171.016 99.6875C172.344 99.6875 173.148 100.578 173.148 101.773C173.148 102.766 172.727 103.352 171.289 104.906L167.477 109.031V110H174.773V108.734H169.43V108.609L171.992 105.961C174.023 103.859 174.586 102.922 174.586 101.625C174.586 99.7969 173.078 98.4609 171.109 98.4609C168.953 98.4609 167.406 99.8984 167.406 101.906ZM186.812 110H188.188V107.664H189.789V106.406H188.188V98.7266H186.148C184.57 101.078 182.844 103.828 181.32 106.383V107.664H186.812V110ZM182.758 106.32C183.984 104.25 185.461 101.922 186.727 100.031H186.82V106.414H182.758V106.32ZM191.891 101.906H193.25C193.25 100.57 194.148 99.6875 195.5 99.6875C196.828 99.6875 197.633 100.578 197.633 101.773C197.633 102.766 197.211 103.352 195.773 104.906L191.961 109.031V110H199.258V108.734H193.914V108.609L196.477 105.961C198.508 103.859 199.07 102.922 199.07 101.625C199.07 99.7969 197.562 98.4609 195.594 98.4609C193.438 98.4609 191.891 99.8984 191.891 101.906ZM206.547 110H207.922V107.664H209.523V106.406H207.922V98.7266H205.883C204.305 101.078 202.578 103.828 201.055 106.383V107.664H206.547V110ZM202.492 106.32C203.719 104.25 205.195 101.922 206.461 100.031H206.555V106.414H202.492V106.32ZM211.625 101.906H212.984C212.984 100.57 213.883 99.6875 215.234 99.6875C216.562 99.6875 217.367 100.578 217.367 101.773C217.367 102.766 216.945 103.352 215.508 104.906L211.695 109.031V110H218.992V108.734H213.648V108.609L216.211 105.961C218.242 103.859 218.805 102.922 218.805 101.625C218.805 99.7969 217.297 98.4609 215.328 98.4609C213.172 98.4609 211.625 99.8984 211.625 101.906Z" fill="#3C4257"/>
<path d="M52.7969 158.266C55.3281 158.266 56.7812 156.125 56.7812 152.383C56.7812 148.648 55.3047 146.461 52.7969 146.461C50.2734 146.461 48.7969 148.641 48.7969 152.359C48.7969 156.109 50.2578 158.266 52.7969 158.266ZM52.7969 157.039C51.1328 157.039 50.2109 155.375 50.2109 152.359C50.2109 149.383 51.1484 147.695 52.7969 147.695C54.4453 147.695 55.3672 149.367 55.3672 152.359C55.3672 155.383 54.4609 157.039 52.7969 157.039ZM62.9375 158.266C65.3281 158.266 67 156.914 67 154.984C67 153.516 66.0703 152.375 64.6562 152.109V151.984C65.8203 151.664 66.5391 150.703 66.5391 149.469C66.5391 147.711 65.0469 146.461 62.9375 146.461C60.8281 146.461 59.3359 147.711 59.3359 149.469C59.3359 150.695 60.0703 151.672 61.2188 151.984V152.109C59.8047 152.375 58.875 153.516 58.875 154.984C58.875 156.914 60.5469 158.266 62.9375 158.266ZM62.9375 151.516C61.6094 151.516 60.7188 150.75 60.7188 149.602C60.7188 148.438 61.6016 147.664 62.9375 147.664C64.2734 147.664 65.1562 148.438 65.1562 149.602C65.1562 150.75 64.2656 151.516 62.9375 151.516ZM62.9375 157.062C61.375 157.062 60.2969 156.172 60.2969 154.883C60.2969 153.594 61.375 152.703 62.9375 152.703C64.5 152.703 65.5781 153.594 65.5781 154.883C65.5781 156.172 64.5 157.062 62.9375 157.062ZM73.7656 160.398L77.8281 146.234H76.6875L72.625 160.398H73.7656ZM83.5938 149.906H84.9531C84.9531 148.57 85.8516 147.688 87.2031 147.688C88.5312 147.688 89.3359 148.578 89.3359 149.773C89.3359 150.766 88.9141 151.352 87.4766 152.906L83.6641 157.031V158H90.9609V156.734H85.6172V156.609L88.1797 153.961C90.2109 151.859 90.7734 150.922 90.7734 149.625C90.7734 147.797 89.2656 146.461 87.2969 146.461C85.1406 146.461 83.5938 147.898 83.5938 149.906ZM96.0312 158H97.4375V146.727H96.0391L93.0391 148.883V150.367L95.9062 148.289H96.0312V158Z" fill="#3C4257"/>
<path d="M248.859 158.266C251.25 158.266 252.922 156.914 252.922 154.984C252.922 153.516 251.992 152.375 250.578 152.109V151.984C251.742 151.664 252.461 150.703 252.461 149.469C252.461 147.711 250.969 146.461 248.859 146.461C246.75 146.461 245.258 147.711 245.258 149.469C245.258 150.695 245.992 151.672 247.141 151.984V152.109C245.727 152.375 244.797 153.516 244.797 154.984C244.797 156.914 246.469 158.266 248.859 158.266ZM248.859 151.516C247.531 151.516 246.641 150.75 246.641 149.602C246.641 148.438 247.523 147.664 248.859 147.664C250.195 147.664 251.078 148.438 251.078 149.602C251.078 150.75 250.188 151.516 248.859 151.516ZM248.859 157.062C247.297 157.062 246.219 156.172 246.219 154.883C246.219 153.594 247.297 152.703 248.859 152.703C250.422 152.703 251.5 153.594 251.5 154.883C251.5 156.172 250.422 157.062 248.859 157.062ZM257.922 158H259.328V146.727H257.93L254.93 148.883V150.367L257.797 148.289H257.922V158ZM262.625 149.906H263.984C263.984 148.57 264.883 147.688 266.234 147.688C267.562 147.688 268.367 148.578 268.367 149.773C268.367 150.766 267.945 151.352 266.508 152.906L262.695 157.031V158H269.992V156.734H264.648V156.609L267.211 153.961C269.242 151.859 269.805 150.922 269.805 149.625C269.805 147.797 268.297 146.461 266.328 146.461C264.172 146.461 262.625 147.898 262.625 149.906Z" fill="#3C4257"/>
<path fill-rule="evenodd" clip-rule="evenodd" d="M400 99.5H380V98.5625C380 97.6996 380.56 97 381.25 97H398.75C399.44 97 400 97.6996 400 98.5625V99.5ZM400 102.625V110.75C400 111.44 399.44 112 398.75 112H381.25C380.56 112 380 111.44 380 110.75V102.625H400ZM385 107C384.31 107 383.75 107.56 383.75 108.25C383.75 108.94 384.31 109.5 385 109.5H386.25C386.94 109.5 387.5 108.94 387.5 108.25C387.5 107.56 386.94 107 386.25 107H385Z" fill="#4F566B"/>
<rect x="30" y="78" width="388" height="100" rx="6" stroke="#F7FAFC" stroke-width="4"/>
<rect x="30" y="26" width="220" height="28" fill="white"/>
<path d="M35.7266 46V41.5625H40.3125V39.6953H35.7266V36.6719H40.75V34.7266H33.3672V46H35.7266ZM43.8594 36.0781C44.5625 36.0781 45.1406 35.5156 45.1406 34.8125C45.1406 34.1016 44.5625 33.5391 43.8594 33.5391C43.1562 33.5391 42.5703 34.1016 42.5703 34.8125C42.5703 35.5156 43.1562 36.0781 43.8594 36.0781ZM42.7188 46H44.9922V37.3984H42.7188V46ZM47.375 46H49.6484V34.1094H47.375V46ZM52.0938 46H54.3672V34.1094H52.0938V46ZM62.0156 36.0781C62.7188 36.0781 63.2969 35.5156 63.2969 34.8125C63.2969 34.1016 62.7188 33.5391 62.0156 33.5391C61.3125 33.5391 60.7266 34.1016 60.7266 34.8125C60.7266 35.5156 61.3125 36.0781 62.0156 36.0781ZM60.875 46H63.1484V37.3984H60.875V46ZM65.4531 46H67.7266V41.0234C67.7266 39.8594 68.375 39.1094 69.4297 39.1094C70.5078 39.1094 71.0156 39.7422 71.0156 40.9531V46H73.2891V40.4375C73.2891 38.3828 72.2578 37.2109 70.3438 37.2109C69.0703 37.2109 68.1953 37.8125 67.7969 38.7812H67.6562V37.3984H65.4531V46ZM80.6953 49.125C82.8438 49.125 83.8984 48.3594 84.6328 46.1641L87.6016 37.3984H85.1953L83.3828 43.9609H83.2422L81.4297 37.3984H78.9219L81.9453 46.0469L81.8672 46.375C81.6797 47.0703 81.1953 47.3516 80.3438 47.3516C80.25 47.3516 79.9062 47.3438 79.8281 47.3281V49.1016C79.9219 49.1172 80.6094 49.125 80.6953 49.125ZM92.6484 46.1797C95.2969 46.1797 96.8906 44.5078 96.8906 41.6953C96.8906 38.9062 95.2734 37.2109 92.6484 37.2109C90.0234 37.2109 88.4062 38.9141 88.4062 41.6953C88.4062 44.5 90 46.1797 92.6484 46.1797ZM92.6484 44.3828C91.4297 44.3828 90.7422 43.3984 90.7422 41.6953C90.7422 40.0078 91.4375 39.0156 92.6484 39.0156C93.8516 39.0156 94.5547 40.0078 94.5547 41.6953C94.5547 43.3984 93.8594 44.3828 92.6484 44.3828ZM106.547 37.3984H104.273V42.3672C104.273 43.5469 103.664 44.2734 102.531 44.2734C101.484 44.2734 100.945 43.6562 100.945 42.4375V37.3984H98.6719V43C98.6719 45 99.8281 46.1797 101.688 46.1797C102.992 46.1797 103.797 45.6172 104.203 44.6172H104.344V46H106.547V37.3984ZM108.828 46H111.102V41.1875C111.102 39.9766 111.953 39.2344 113.195 39.2344C113.562 39.2344 114.094 39.2969 114.273 39.3594V37.3594C114.078 37.2969 113.695 37.2578 113.383 37.2578C112.289 37.2578 111.398 37.9062 111.172 38.7656H111.031V37.3984H108.828V46ZM124.898 37.2578C123.711 37.2578 122.734 37.8438 122.266 38.8125H122.125V37.3984H119.922V48.8516H122.195V44.6875H122.336C122.758 45.5938 123.703 46.1328 124.938 46.1328C127.094 46.1328 128.414 44.4609 128.414 41.6953C128.414 38.9219 127.078 37.2578 124.898 37.2578ZM124.125 44.2969C122.922 44.2969 122.172 43.3125 122.172 41.7031C122.172 40.0938 122.922 39.1016 124.133 39.1016C125.344 39.1016 126.078 40.0781 126.078 41.6953C126.078 43.3203 125.352 44.2969 124.125 44.2969ZM132.625 46.1328C133.742 46.1328 134.68 45.6562 135.125 44.8594H135.266V46H137.469V40.125C137.469 38.2891 136.18 37.2109 133.898 37.2109C131.734 37.2109 130.273 38.2031 130.125 39.7812H132.219C132.406 39.2422 132.953 38.9531 133.773 38.9531C134.711 38.9531 135.227 39.3828 135.227 40.125V40.8359L133.141 40.9609C131 41.0859 129.805 41.9922 129.805 43.5469C129.805 45.1172 130.969 46.1328 132.625 46.1328ZM133.375 44.4688C132.586 44.4688 132.031 44.0703 132.031 43.4062C132.031 42.7734 132.508 42.4062 133.484 42.3438L135.227 42.2266V42.8672C135.227 43.7734 134.43 44.4688 133.375 44.4688ZM140.539 49.125C142.688 49.125 143.742 48.3594 144.477 46.1641L147.445 37.3984H145.039L143.227 43.9609H143.086L141.273 37.3984H138.766L141.789 46.0469L141.711 46.375C141.523 47.0703 141.039 47.3516 140.188 47.3516C140.094 47.3516 139.75 47.3438 139.672 47.3281V49.1016C139.766 49.1172 140.453 49.125 140.539 49.125ZM149.031 46H151.305V40.8125C151.305 39.8281 151.938 39.1094 152.828 39.1094C153.719 39.1094 154.25 39.6406 154.25 40.5625V46H156.438V40.7109C156.438 39.7812 157.031 39.1094 157.953 39.1094C158.914 39.1094 159.391 39.625 159.391 40.6641V46H161.664V40.0938C161.664 38.3203 160.594 37.2109 158.875 37.2109C157.672 37.2109 156.68 37.8438 156.281 38.7969H156.141C155.797 37.8125 154.969 37.2109 153.758 37.2109C152.625 37.2109 151.727 37.8125 151.375 38.7969H151.234V37.3984H149.031V46ZM169.445 43.5703C169.203 44.1562 168.586 44.4844 167.688 44.4844C166.5 44.4844 165.75 43.6641 165.719 42.3516V42.2344H171.633V41.5547C171.633 38.8359 170.133 37.2109 167.594 37.2109C165.031 37.2109 163.453 38.9453 163.453 41.7422C163.453 44.5234 165 46.1797 167.625 46.1797C169.734 46.1797 171.227 45.1719 171.562 43.5703H169.445ZM167.602 38.9062C168.664 38.9062 169.352 39.6406 169.398 40.8203H165.727C165.805 39.6641 166.547 38.9062 167.602 38.9062ZM173.5 46H175.773V41.0234C175.773 39.8594 176.422 39.1094 177.477 39.1094C178.555 39.1094 179.062 39.7422 179.062 40.9531V46H181.336V40.4375C181.336 38.3828 180.305 37.2109 178.391 37.2109C177.117 37.2109 176.242 37.8125 175.844 38.7812H175.703V37.3984H173.5V46ZM184.195 35.3438V37.4766H182.852V39.2031H184.195V43.6797C184.195 45.3516 185.023 46.0312 187.117 46.0312C187.555 46.0312 187.977 45.9844 188.258 45.9297V44.25C188.039 44.2734 187.883 44.2891 187.586 44.2891C186.812 44.2891 186.469 43.9297 186.469 43.1562V39.2031H188.258V37.4766H186.469V35.3438H184.195ZM197.367 46.1328C198.562 46.1328 199.539 45.5781 200 44.6484H200.141V46H202.344V34.1094H200.07V38.7734H199.938C199.492 37.8203 198.531 37.2578 197.367 37.2578C195.203 37.2578 193.859 38.9531 193.859 41.6875C193.859 44.4297 195.195 46.1328 197.367 46.1328ZM198.141 39.1016C199.352 39.1016 200.094 40.0938 200.094 41.7031C200.094 43.3125 199.359 44.2969 198.141 44.2969C196.922 44.2969 196.195 43.3203 196.195 41.6953C196.195 40.0781 196.93 39.1016 198.141 39.1016ZM210.273 43.5703C210.031 44.1562 209.414 44.4844 208.516 44.4844C207.328 44.4844 206.578 43.6641 206.547 42.3516V42.2344H212.461V41.5547C212.461 38.8359 210.961 37.2109 208.422 37.2109C205.859 37.2109 204.281 38.9453 204.281 41.7422C204.281 44.5234 205.828 46.1797 208.453 46.1797C210.562 46.1797 212.055 45.1719 212.391 43.5703H210.273ZM208.43 38.9062C209.492 38.9062 210.18 39.6406 210.227 40.8203H206.555C206.633 39.6641 207.375 38.9062 208.43 38.9062ZM214.977 35.3438V37.4766H213.633V39.2031H214.977V43.6797C214.977 45.3516 215.805 46.0312 217.898 46.0312C218.336 46.0312 218.758 45.9844 219.039 45.9297V44.25C218.82 44.2734 218.664 44.2891 218.367 44.2891C217.594 44.2891 217.25 43.9297 217.25 43.1562V39.2031H219.039V37.4766H217.25V35.3438H214.977ZM223.297 46.1328C224.414 46.1328 225.352 45.6562 225.797 44.8594H225.938V46H228.141V40.125C228.141 38.2891 226.852 37.2109 224.57 37.2109C222.406 37.2109 220.945 38.2031 220.797 39.7812H222.891C223.078 39.2422 223.625 38.9531 224.445 38.9531C225.383 38.9531 225.898 39.3828 225.898 40.125V40.8359L223.812 40.9609C221.672 41.0859 220.477 41.9922 220.477 43.5469C220.477 45.1172 221.641 46.1328 223.297 46.1328ZM224.047 44.4688C223.258 44.4688 222.703 44.0703 222.703 43.4062C222.703 42.7734 223.18 42.4062 224.156 42.3438L225.898 42.2266V42.8672C225.898 43.7734 225.102 44.4688 224.047 44.4688ZM231.531 36.0781C232.234 36.0781 232.812 35.5156 232.812 34.8125C232.812 34.1016 232.234 33.5391 231.531 33.5391C230.828 33.5391 230.242 34.1016 230.242 34.8125C230.242 35.5156 230.828 36.0781 231.531 36.0781ZM230.391 46H232.664V37.3984H230.391V46ZM235.047 46H237.32V34.1094H235.047V46ZM239.492 39.9062C239.492 41.2266 240.305 42.0156 241.977 42.3828L243.539 42.7344C244.297 42.9062 244.625 43.1719 244.625 43.6094C244.625 44.1797 244.016 44.5703 243.133 44.5703C242.227 44.5703 241.672 44.2188 241.5 43.625H239.281C239.438 45.25 240.812 46.1797 243.086 46.1797C245.344 46.1797 246.883 45.0703 246.883 43.3672C246.883 42.0859 246.133 41.3828 244.461 41.0156L242.844 40.6641C242.047 40.4844 241.68 40.2109 241.68 39.7734C241.68 39.2109 242.281 38.8281 243.094 38.8281C243.938 38.8281 244.461 39.1797 244.578 39.75H246.68C246.555 38.125 245.266 37.2109 243.078 37.2109C240.93 37.2109 239.492 38.2969 239.492 39.9062Z" fill="#3C4257"/>
<rect x="30" y="26" width="220" height="28" stroke="white" stroke-width="4"/>
<rect x="0.5" y="0.5" width="447" height="271" rx="7.5" stroke="#E3E8EE"/>
<defs>
<clipPath id="clip0">
<path d="M0 0H448V272H0V0Z" fill="white"/>
</clipPath>
</defs>
</svg>
