<?xml version="1.0" encoding="UTF-8"?>
<svg width="380px" height="295px" viewBox="0 0 380 295" version="1.1" xmlns="http://www.w3.org/2000/svg" xmlns:xlink="http://www.w3.org/1999/xlink">
    <title>Group</title>
    <desc>Created with Sketch.</desc>
    <defs>
        <linearGradient x1="50%" y1="0%" x2="50%" y2="100%" id="linearGradient-1">
            <stop stop-color="#FFFFFF" stop-opacity="0.5" offset="0%"></stop>
            <stop stop-color="#000000" stop-opacity="0.5" offset="100%"></stop>
        </linearGradient>
        <path d="M10,0 L370,0 C375.522847,-1.01453063e-15 380,4.4771525 380,10 L380,20 L0,20 L0,10 C-6.76353751e-16,4.4771525 4.4771525,1.01453063e-15 10,0 Z" id="path-2"></path>
        <polygon id="path-3" points="242 19 250 3 310 3 318 19 318 29 242 29"></polygon>
        <polygon id="path-4" points="174 19 182 3 242 3 250 19 250 29 174 29"></polygon>
        <polygon id="path-5" points="106 19 114 3 174 3 182 19 182 29 106 29"></polygon>
        <polygon id="path-6" points="0 19 38 19 46 3 106 3 114 19 380 19 380 39 0 39"></polygon>
    </defs>
    <g id="Page-1" stroke="none" stroke-width="1" fill="none" fill-rule="evenodd">
        <g id="Desktop-HD-Copy-4" transform="translate(-810.000000, -459.000000)">
            <g id="Group" transform="translate(810.000000, 459.000000)">
                <rect id="Rectangle-5" stroke="#C4D0DC" fill="#FFFFFF" x="0.5" y="0.5" width="379" height="294" rx="10"></rect>
                <g id="Rectangle-5-Copy">
                    <use fill="#EAEFF5" fill-rule="evenodd" xlink:href="#path-2"></use>
                    <use fill="url(#linearGradient-1)" fill-rule="evenodd" style="mix-blend-mode: screen;" xlink:href="#path-2"></use>
                    <path stroke="#C4D0DC" stroke-width="1" d="M0.5,19.5 L379.5,19.5 L379.5,10 C379.5,4.75329488 375.246705,0.5 370,0.5 L10,0.5 C4.75329488,0.5 0.5,4.75329488 0.5,10 L0.5,19.5 Z" stroke-linejoin="square"></path>
                </g>
                <g id="Rectangle-5-Copy-5">
                    <use fill="#DCE5EE" fill-rule="evenodd" xlink:href="#path-3"></use>
                    <use fill="url(#linearGradient-1)" fill-rule="evenodd" style="mix-blend-mode: screen;" xlink:href="#path-3"></use>
                    <path stroke="#C4D0DC" stroke-width="1" d="M242.5,19.118034 L242.5,28.5 L317.5,28.5 L317.5,19.118034 L309.690983,3.5 L250.309017,3.5 L242.5,19.118034 Z" stroke-linejoin="square"></path>
                </g>
                <g id="Rectangle-5-Copy-4">
                    <use fill="#DCE5EE" fill-rule="evenodd" xlink:href="#path-4"></use>
                    <use fill="url(#linearGradient-1)" fill-rule="evenodd" style="mix-blend-mode: screen;" xlink:href="#path-4"></use>
                    <path stroke="#C4D0DC" stroke-width="1" d="M174.5,19.118034 L174.5,28.5 L249.5,28.5 L249.5,19.118034 L241.690983,3.5 L182.309017,3.5 L174.5,19.118034 Z" stroke-linejoin="square"></path>
                </g>
                <g id="Rectangle-5-Copy-3">
                    <use fill="#DCE5EE" fill-rule="evenodd" xlink:href="#path-5"></use>
                    <use fill="url(#linearGradient-1)" fill-rule="evenodd" style="mix-blend-mode: screen;" xlink:href="#path-5"></use>
                    <path stroke="#C4D0DC" stroke-width="1" d="M106.5,19.118034 L106.5,28.5 L181.5,28.5 L181.5,19.118034 L173.690983,3.5 L114.309017,3.5 L106.5,19.118034 Z" stroke-linejoin="square"></path>
                </g>
                <g id="Rectangle-5-Copy-2">
                    <use fill="#EAEFF5" fill-rule="evenodd" xlink:href="#path-6"></use>
                    <use fill="url(#linearGradient-1)" fill-rule="evenodd" style="mix-blend-mode: screen;" xlink:href="#path-6"></use>
                    <path stroke="#C4D0DC" stroke-width="1" d="M0.5,19.5 L0.5,38.5 L379.5,38.5 L379.5,19.5 L113.690983,19.5 L105.690983,3.5 L46.309017,3.5 L38.309017,19.5 L0.5,19.5 Z" stroke-linejoin="square"></path>
                </g>
                <path d="M72,23.5 C71.1715729,23.5 70.5,24.1715729 70.5,25 L70.5,33 C70.5,33.8284271 71.1715729,34.5 72,34.5 L363,34.5 C363.828427,34.5 364.5,33.8284271 364.5,33 L364.5,25 C364.5,24.1715729 363.828427,23.5 363,23.5 L72,23.5 Z" id="Rectangle-6" stroke="#C4D0DC" fill="#FFFFFF"></path>
                <path d="M10.2071068,28 L16,28 C16.2761424,28 16.5,28.2238576 16.5,28.5 C16.5,28.7761424 16.2761424,29 16,29 L10.2071068,29 L12.3535534,31.1464466 C12.5488155,31.3417088 12.5488155,31.6582912 12.3535534,31.8535534 C12.1582912,32.0488155 11.8417088,32.0488155 11.6464466,31.8535534 L8.64644661,28.8535534 C8.45118446,28.6582912 8.45118446,28.3417088 8.64644661,28.1464466 L11.6464466,25.1464466 C11.8417088,24.9511845 12.1582912,24.9511845 12.3535534,25.1464466 C12.5488155,25.3417088 12.5488155,25.6582912 12.3535534,25.8535534 L10.2071068,28 Z" id="Combined-Shape" fill="#8CA0B2" fill-rule="nonzero"></path>
                <path d="M24.2071068,28 L30,28 C30.2761424,28 30.5,28.2238576 30.5,28.5 C30.5,28.7761424 30.2761424,29 30,29 L24.2071068,29 L26.3535534,31.1464466 C26.5488155,31.3417088 26.5488155,31.6582912 26.3535534,31.8535534 C26.1582912,32.0488155 25.8417088,32.0488155 25.6464466,31.8535534 L22.6464466,28.8535534 C22.4511845,28.6582912 22.4511845,28.3417088 22.6464466,28.1464466 L25.6464466,25.1464466 C25.8417088,24.9511845 26.1582912,24.9511845 26.3535534,25.1464466 C26.5488155,25.3417088 26.5488155,25.6582912 26.3535534,25.8535534 L24.2071068,28 Z" id="Combined-Shape-Copy" fill="#D4DDE5" fill-rule="nonzero" transform="translate(26.500000, 28.500000) scale(-1, 1) translate(-26.500000, -28.500000) "></path>
                <path d="M43.4306741,26.3622191 C42.2931441,25.7446342 40.8405716,25.9167877 39.8786797,26.8786797 C38.7071068,28.0502525 38.7071068,29.9497475 39.8786797,31.1213203 C41.0502525,32.2928932 42.9497475,32.2928932 44.1213203,31.1213203 C44.3165825,30.9260582 44.633165,30.9260582 44.8284271,31.1213203 C45.0236893,31.3165825 45.0236893,31.633165 44.8284271,31.8284271 C43.26633,33.3905243 40.73367,33.3905243 39.1715729,31.8284271 C37.6094757,30.26633 37.6094757,27.73367 39.1715729,26.1715729 C40.5265306,24.8166152 42.6117171,24.6369431 44.1603365,25.6325567 L45.1464466,24.6464466 C45.461429,24.3314642 46,24.5545476 46,25 L46,27.5 C46,27.7761424 45.7761424,28 45.5,28 L43,28 C42.5545476,28 42.3314642,27.461429 42.6464466,27.1464466 L43.4306741,26.3622191 Z" id="Combined-Shape" fill="#8CA0B2" fill-rule="nonzero"></path>
                <polygon id="Rectangle-7" stroke="#8CA0B2" stroke-linejoin="round" points="54.5 28.5 58.5 24.5 62.5 28.5 61.5 28.5 61.5 32.5 55.5 32.5 55.5 28.5"></polygon>
                <circle id="Oval-2" stroke="#DF4741" fill="#FF5F57" cx="10" cy="10" r="2.5"></circle>
                <circle id="Oval-2-Copy" stroke="#DFA117" fill="#FFBD2E" cx="20" cy="10" r="2.5"></circle>
                <circle id="Oval-2-Copy-2" stroke="#10AC2C" fill="#27CA41" cx="30" cy="10" r="2.5"></circle>
                <path d="M372,25 C372.552285,25 373,25.4477153 373,26 C373,26.5522847 372.552285,27 372,27 C371.447715,27 371,26.5522847 371,26 C371,25.4477153 371.447715,25 372,25 Z M372,28 C372.552285,28 373,28.4477153 373,29 C373,29.5522847 372.552285,30 372,30 C371.447715,30 371,29.5522847 371,29 C371,28.4477153 371.447715,28 372,28 Z M372,31 C372.552285,31 373,31.4477153 373,32 C373,32.5522847 372.552285,33 372,33 C371.447715,33 371,32.5522847 371,32 C371,31.4477153 371.447715,31 372,31 Z" id="Combined-Shape" fill="#8CA0B2"></path>
            </g>
        </g>
    </g>
</svg>
