<?xml version="1.0" encoding="UTF-8"?>
<svg width="103px" height="45px" viewBox="0 0 103 45" version="1.1" xmlns="http://www.w3.org/2000/svg" xmlns:xlink="http://www.w3.org/1999/xlink">
    <path d="M96.4015199,35.6086435 C96.4015199,40.249027 92.5139347,44.045522 87.762397,44.045522 L15.1482599,44.045522 C10.3967223,44.045522 6.50913707,40.249027 6.50913707,35.6086435 L6.50913707,8.74024503 C6.50913707,4.10026278 10.3967223,0.303366477 15.1482599,0.303366477 L87.762397,0.303366477 C92.5139347,0.303366477 96.4015199,4.10026278 96.4015199,8.74024503 L96.4015199,35.6086435" fill="#0F2F53"></path>
    <path d="M98.341701,16.2236861 C98.341701,17.994929 99.4379936,19.8504403 102.727273,19.9347088 L102.727273,24.3206818 C99.4379936,24.4892188 98.341701,26.3447301 98.341701,28.115973 C98.341701,31.4052521 98.8477131,33.2607635 98.8477131,36.8875178 C98.8477131,42.3693821 96.8232635,44.140625 92.3534233,44.140625 L89.0641442,44.140625 L89.0641442,40.0921271 L90.0761683,40.0921271 L90.0761683,40.0078587 C92.2691548,40.0078587 92.8594354,39.2490412 92.8594354,36.3815057 C92.8594354,33.5982386 92.6062287,31.1520455 92.6062287,28.115973 C92.6062287,24.2364134 93.8714595,22.7179759 96.4015199,22.1276953 L96.4015199,21.8744886 C93.8714595,21.2842081 92.6062287,19.7661719 92.6062287,15.8866122 C92.6062287,12.8501385 92.8594354,10.2354084 92.8594354,7.62107955 C92.8594354,4.8378125 92.3534233,4.07859375 90.0761683,4.07859375 L89.0641442,4.07859375 L89.0641442,0.199034091 L92.3534233,0.199034091 C96.8232635,0.199034091 98.8477131,1.97027699 98.8477131,7.45254261 C98.8477131,10.9946271 98.341701,12.934407 98.341701,16.2236861 Z M60.9786683,21.3684766 C64.2679474,22.4651705 67.8943004,24.4049503 67.8943004,29.0437287 C67.8943004,33.6825071 64.2679474,37.2245916 57.520451,37.2245916 C54.3154403,37.2245916 50.4358807,35.7908239 47.9058203,33.6825071 L51.1950994,28.790522 C53.4723544,30.5617649 55.5806712,31.4052521 57.6893892,31.4052521 C59.9662429,31.4052521 60.9786683,30.5617649 60.9786683,29.2965341 C60.9786683,27.6099609 58.4482067,26.7664737 55.8338778,25.7544496 C52.7974041,24.5734872 49.1706499,22.4651705 49.1706499,18.3324041 C49.1706499,13.6936257 53.0506108,10.4043466 58.7856818,10.4043466 C62.6652415,10.4043466 65.532777,12.091321 67.641495,13.6936257 L64.2679474,18.1638672 C62.4124361,16.8143679 60.7254616,16.0551491 58.8699503,16.0551491 C57.0144389,16.0551491 56.0024148,16.8143679 56.0024148,18.0791974 C56.0024148,19.7661719 58.3639382,20.3564524 60.9786683,21.3684766 Z M81.388892,21.3684766 C84.6781712,22.4651705 88.3049254,24.4049503 88.3049254,29.0437287 C88.3049254,33.6825071 84.6781712,37.2245916 77.931076,37.2245916 C74.7260653,37.2245916 70.8465057,35.7908239 68.316044,33.6825071 L71.6899929,28.790522 C73.9668466,30.5617649 76.0755646,31.4052521 78.1838814,31.4052521 C80.4611364,31.4052521 81.4731605,30.5617649 81.4731605,29.2965341 C81.4731605,27.6099609 78.9431001,26.7664737 76.32837,25.7544496 C73.2922976,24.5734872 69.6655433,22.4651705 69.6655433,18.3324041 C69.6655433,13.6936257 73.545103,10.4043466 79.2805753,10.4043466 C83.1601349,10.4043466 86.0276705,12.091321 88.1363885,13.6936257 L84.7628409,18.1638672 C82.9073295,16.8143679 81.2203551,16.0551491 79.3648437,16.0551491 C77.5093324,16.0551491 76.4973082,16.8143679 76.4973082,18.0791974 C76.4973082,19.7661719 78.8588317,20.3564524 81.388892,21.3684766 Z M46.8091264,22.4651705 C46.8091264,23.8146697 46.6405895,24.9952308 46.556321,25.5855114 L31.2904865,25.5855114 C31.9650355,29.4654723 34.5797656,31.067777 37.9533132,31.067777 C39.8088246,31.067777 41.5800675,30.5617649 43.4355788,29.4654723 L45.9656392,33.9353125 C43.3513104,35.7065554 39.9777628,36.802848 36.9412891,36.802848 C29.6881818,36.802848 24.2059162,31.9112642 24.2059162,23.5614631 C24.0373793,15.4648686 29.9409872,10.3200781 36.0978018,10.3200781 C43.1823722,10.3200781 46.8933949,15.6334055 46.8091264,22.4651705 Z M31.2904865,20.946733 L40.3995064,20.946733 C40.3995064,18.0791974 39.218544,15.9708807 36.1820703,15.9708807 C33.8205469,15.9708807 31.7964986,17.5731854 31.2904865,20.946733 Z M23.7841726,30.8992401 C24.0373793,30.8992401 24.2901847,30.8992401 24.7961967,30.8149716 L25.6396839,36.2968359 C24.7119283,36.6343111 23.4466974,36.8875178 21.8443928,36.8875178 C16.6996023,36.8875178 14.9283594,33.5135689 14.9283594,28.3687784 L14.9283594,4.16326349 L12.6511044,4.16326349 C10.4581179,4.16326349 9.86783736,4.92208097 9.86783736,7.70534801 C9.86783736,10.4886151 10.121044,12.934407 10.121044,15.9708807 C10.121044,19.8504403 8.85581321,21.3684766 6.32535156,21.9591584 L6.32535156,22.2119638 C8.85581321,22.8022443 10.121044,24.3206818 10.121044,28.2002415 C10.121044,31.3209837 9.86783736,33.6825071 9.86783736,36.4657741 C9.86783736,39.2490412 10.5427876,40.0921271 12.6511044,40.0921271 L13.6631286,40.0921271 L13.6631286,43.9720881 L10.3738494,43.9720881 C5.90400923,43.9720881 3.87955966,42.2008452 3.87955966,36.7185795 C3.87955966,33.0918253 4.38557173,31.2367152 4.38557173,28.115973 C4.38557173,26.3447301 3.28927912,24.4892188 0,24.4049503 L0,20.0189773 C3.28927912,19.8504403 4.38557173,17.994929 4.38557173,16.2236861 C4.38557173,13.1033452 3.87955966,11.0788956 3.87955966,7.45254261 C3.87955966,1.97027699 5.90400923,0.199034091 10.4581179,0.199034091 L22.4346733,0.199034091 L22.4346733,28.790522 C22.4346733,30.393228 23.193892,30.8992401 23.7841726,30.8992401 Z" fill="#FFFFFF"></path>
</svg>
