<?xml version="1.0" encoding="UTF-8"?>
<svg width="84px" height="63px" viewBox="0 0 84 63" version="1.1" xmlns="http://www.w3.org/2000/svg" xmlns:xlink="http://www.w3.org/1999/xlink">
    <g transform="translate(-305.000000, -2248.000000)" fill="#0F2F53" fill-rule="nonzero">
        <path d="M377.311227,2284.17637 C374.374252,2284.19295 371.831061,2284.89872 369.698062,2285.94957 C368.910493,2284.38996 368.122925,2283.02718 367.991827,2282.00949 C367.844158,2280.82747 367.663674,2280.10496 367.844158,2278.69326 C368.024478,2277.28124 368.844863,2275.27836 368.844863,2275.11419 C368.828291,2274.96644 368.664214,2274.24409 366.974387,2274.22768 C365.28456,2274.21126 363.824112,2274.55602 363.660035,2274.99928 C363.495958,2275.44253 363.167804,2276.46039 362.954505,2277.51107 C362.659166,2279.05427 359.574522,2284.52113 357.8189,2287.3941 C357.244631,2286.27774 356.752401,2285.29273 356.65379,2284.50455 C356.506285,2283.32269 356.325637,2282.60018 356.506285,2281.18848 C356.68677,2279.77645 357.507154,2277.77375 357.507154,2277.60958 C357.490746,2277.46182 357.32667,2276.73948 355.636842,2276.72306 C353.946687,2276.70664 352.486567,2277.0514 352.32249,2277.49466 C352.158414,2277.93792 351.977929,2278.9886 351.61696,2280.00646 C351.272235,2281.02431 347.170314,2290.15215 346.103815,2292.53262 C345.562361,2293.74747 345.086702,2294.71608 344.741977,2295.37275 C344.397416,2296.02943 344.725569,2295.42201 344.692754,2295.48767 C344.397416,2296.04585 344.233339,2296.35777 344.233339,2296.35777 L344.233339,2296.37436 C344.003631,2296.78478 343.757516,2297.17862 343.642498,2297.17862 C343.56046,2297.17862 343.396383,2296.07869 343.675314,2294.56849 C344.282398,2291.39984 345.759089,2286.4585 345.742846,2286.27791 C345.742846,2286.19582 346.021612,2285.32556 344.791036,2284.88247 C343.593275,2284.43921 343.16684,2285.17797 343.068229,2285.17797 C342.969783,2285.17797 342.887745,2285.44064 342.887745,2285.44064 C342.887745,2285.44064 344.216767,2279.87545 340.344554,2279.87545 C337.916217,2279.87545 334.56905,2282.51858 332.911874,2284.93188 C331.861782,2285.50647 329.630337,2286.72117 327.267631,2288.01827 C326.365209,2288.51078 325.429971,2289.03613 324.543956,2289.51222 L324.363635,2289.31489 C319.671038,2284.30771 310.991374,2280.76164 311.352343,2274.03067 C311.483605,2271.58454 312.336804,2265.13267 328.022713,2257.31818 C340.869928,2250.91556 351.157545,2252.67217 352.945818,2256.57942 C355.489009,2262.16119 347.449245,2272.53673 334.093555,2274.03067 C329.007174,2274.60527 326.332557,2272.63523 325.660006,2271.89646 C324.954476,2271.12487 324.85603,2271.09203 324.593507,2271.23979 C324.166907,2271.46962 324.42943,2272.15914 324.593507,2272.56956 C324.987292,2273.60383 326.62806,2275.44253 329.417366,2276.36189 C331.861946,2277.16632 337.834507,2277.60958 345.053887,2274.81869 C353.142875,2271.68304 359.459832,2262.98204 357.605764,2255.70932 C355.718881,2248.30526 343.445934,2245.87554 331.845703,2249.99621 C324.937904,2252.45875 317.456001,2256.30033 312.074281,2261.34034 C305.675285,2267.31613 304.658009,2272.53673 305.084609,2274.70377 C306.577872,2282.43617 317.226294,2287.47618 321.492291,2291.20284 C321.278991,2291.3176 321.082099,2291.43251 320.901614,2291.53118 C318.768616,2292.5817 310.646813,2296.83387 308.61226,2301.33196 C306.315185,2306.42122 308.973229,2310.08237 310.745259,2310.57488 C316.225425,2312.10166 321.836852,2309.36003 324.872274,2304.84536 C327.891123,2300.33068 327.530318,2294.46982 326.135665,2291.79385 L326.086278,2291.69535 L327.759862,2290.71033 C328.842933,2290.07007 329.909432,2289.47906 330.844506,2288.96997 C330.319624,2290.39824 329.942083,2292.08919 329.745355,2294.55174 C329.515648,2297.4413 330.697001,2301.1842 332.255731,2302.66173 C332.944853,2303.30183 333.765238,2303.31841 334.273876,2303.31841 C336.078721,2303.31841 336.899105,2301.8243 337.801527,2300.03501 C338.91725,2297.85156 339.901711,2295.32334 339.901711,2295.32334 C339.901711,2295.32334 338.671135,2302.16922 342.034709,2302.16922 C343.265286,2302.16922 344.495862,2300.57678 345.053723,2299.75593 L345.053723,2299.77234 C345.053723,2299.77234 345.086538,2299.72309 345.152169,2299.60817 C345.221014,2299.50632 345.286676,2299.40235 345.349061,2299.29641 L345.349061,2299.26358 C345.841292,2298.4099 346.940607,2296.45628 348.581375,2293.22213 C350.697802,2289.05222 352.732518,2283.83161 352.732518,2283.83161 C352.732518,2283.83161 352.929411,2285.11214 353.536495,2287.21351 C353.8973,2288.46137 354.684869,2289.82381 355.291953,2291.15359 C354.799722,2291.8431 354.504384,2292.23727 354.504384,2292.23727 L354.520792,2292.25369 C354.127171,2292.77904 353.684,2293.33738 353.224749,2293.89539 C351.551165,2295.89826 349.549428,2298.18039 349.286905,2298.83707 C348.975159,2299.6085 349.04079,2300.1831 349.647874,2300.64294 C350.090882,2300.97128 350.87845,2301.03678 351.715242,2300.97128 C353.224749,2300.87261 354.274841,2300.49518 354.799886,2300.26518 C355.620271,2299.96968 356.555508,2299.52642 357.457931,2298.86974 C359.098699,2297.65504 360.099568,2295.93126 360.001122,2293.63288 C359.951899,2292.36877 359.541707,2291.12108 359.033068,2289.93906 C359.180738,2289.72564 359.328571,2289.51206 359.476076,2289.28238 C362.06849,2285.48989 364.070227,2281.32014 364.070227,2281.32014 C364.070227,2281.32014 364.267119,2282.60067 364.874203,2284.70204 C365.185785,2285.76915 365.809441,2286.93492 366.367303,2288.08411 C363.938966,2290.07056 362.413051,2292.36894 361.888005,2293.8793 C360.919952,2296.67019 361.674705,2297.9343 363.102174,2298.2298 C363.741909,2298.36114 364.660904,2298.06563 365.349862,2297.77013 C366.203062,2297.49104 367.236746,2297.01478 368.188555,2296.30902 C369.829324,2295.09416 371.404461,2293.40321 371.322423,2291.12125 C371.2732,2290.07056 370.994269,2289.03629 370.616892,2288.05127 C372.68426,2287.19759 375.358548,2286.70508 378.755103,2287.1155 C386.056521,2287.96919 387.500398,2292.53311 387.221631,2294.43748 C386.9427,2296.34201 385.416786,2297.39254 384.907984,2297.72088 C384.399346,2298.0328 384.235269,2298.14788 384.284492,2298.37756 C384.350122,2298.72248 384.57983,2298.7059 385.022837,2298.64039 C385.629922,2298.54173 388.862235,2297.08078 388.993497,2293.56771 C389.190389,2289.05238 384.907984,2284.12728 377.311227,2284.17637 Z M321.075855,2302.9999 C318.666546,2305.56765 315.273846,2306.54053 313.831539,2305.71119 C312.274502,2304.83401 312.880763,2301.05414 315.847491,2298.3269 C317.650375,2296.66822 319.994125,2295.13714 321.534771,2294.19616 C321.878958,2293.98883 322.403434,2293.68596 323.026248,2293.31898 C323.124587,2293.25534 323.190147,2293.22328 323.190147,2293.22328 C323.304876,2293.15949 323.435995,2293.07974 323.567113,2293 C324.665234,2296.89151 323.616283,2300.30455 321.075855,2302.9999 Z M338.736344,2290.99628 C337.878212,2293.03829 336.060991,2298.28217 334.967293,2297.98812 C334.024862,2297.74308 333.452943,2293.77341 334.782038,2289.85275 C335.455082,2287.87592 336.885303,2285.52369 337.726609,2284.6087 C339.089692,2283.13845 340.570223,2282.64837 340.940566,2283.25281 C341.378045,2284.0371 339.27478,2289.72206 338.736344,2290.99628 Z M352.835134,2297.75398 C352.486982,2297.93385 352.170479,2298.06438 352.028053,2297.96652 C351.917278,2297.90117 352.170321,2297.65612 352.170321,2297.65612 C352.170321,2297.65612 353.926909,2295.71198 354.623215,2294.81343 C355.018843,2294.29081 355.493596,2293.68633 356,2293 L356,2293.19605 C356.000158,2295.54845 353.816292,2297.11682 352.835134,2297.75398 Z M364.16196,2296 C363.865457,2295.80055 363.902705,2295.1856 364.903216,2293.25762 C365.29256,2292.49307 366.181882,2291.2133 367.719988,2290 C367.905302,2290.49861 368.016676,2290.98044 367.997959,2291.42936 C367.979613,2294.42105 365.607594,2295.53463 364.16196,2296 Z"></path>
    </g>
</svg>
