<?xml version="1.0" encoding="UTF-8"?>
<svg xmlns="http://www.w3.org/2000/svg" viewBox="0 0 765 194">
    <path fill="#0F2F53" d="M169.51,149.49,90.9,194V159.33l49-27,29.63,17.11Zm5.38-4.87v-93L146.14,68.25V128l28.75,16.59ZM5.38,149.49,84,194V159.33l-49-27L5.38,149.49ZM0,144.62v-93L28.75,68.25V128Zm3.38-99L84,0V33.47L32.34,61.89l-.42.23L3.38,45.6Zm168.14,0L90.9,0V33.47l51.66,28.39.41.23L171.52,45.6Z"/><path fill="#0F2F53" d="M84,151.45,35.66,124.86V72.22L84,100.12Zm6.91,0,48.34-26.57V72.22L90.9,100.12Zm-52-85.31L87.45,39.47,136,66.14l-48.51,28Z"/><path fill="#0F2F53" d="M279.12,132.64h21.25L322,60.45H301.32l-12.83,51.22L274.81,60.45H256.88l-13.81,51.22-12.7-51.22H209.65l21.54,72.19h21.26l13.4-46.25,13.27,46.25Zm44-35.89c0,21.67,14.76,37.69,38,37.69,17.95,0,27.62-10.77,30.37-15.87L378.93,109a21.07,21.07,0,0,1-17.55,8.84c-10.64,0-18.37-6.91-18.78-16.57h50.84c.12-1.39.12-2.76.12-4.15,0-23.6-12.7-38.52-35.06-38.52-20.59,0-35.35,16.29-35.35,38.11Zm20-7.89c.82-8.27,6.62-14.63,15.61-14.63,8.71,0,15.05,5.8,15.46,14.63Zm57.58,43.78h18v-7.45a28.09,28.09,0,0,0,21.41,9.25c20.72,0,35.35-15.58,35.35-37.82S462,58.67,441.23,58.67c-12.42,0-19.61,6.9-21.41,9.38V32.83h-19v99.81Zm18.5-35.89c0-13.53,8-21.26,18.5-21.26,11.06,0,18.5,8.71,18.5,21.26,0,12.83-7.73,20.84-18.5,20.84C426.16,117.59,419.25,108.19,419.25,96.75Zm63.64,61.71h19V125.17c1.81,2.34,9,9.25,21.41,9.25,20.72,0,34.25-15.59,34.25-37.95,0-22.09-14.64-37.83-35.35-37.83-12.29,0-19.48,6.91-21.41,9.38v-7.6h-18v98Zm18.5-62.12c0-11.47,6.91-20.85,18.5-20.85,10.77,0,18.5,8,18.5,20.85,0,12.57-7.45,21.25-18.5,21.25C509.41,117.59,501.39,109.86,501.39,96.34ZM561,110.28c0,15.17,12.42,24.16,27.05,24.16,8.3,0,13.81-2.47,17.55-6.49l1.24,4.69h16.85V86.93c0-16.15-6.91-28.29-30.1-28.29a53.83,53.83,0,0,0-28.44,8.56l7.19,13a42.48,42.48,0,0,1,19.19-5.1c8.43,0,13.11,4.28,13.11,10.64v4.69c-2.62-1.8-8.29-4-15.61-4-16.85,0-28,9.63-28,23.86Zm19-.57c0-5.93,5.1-10.08,12.42-10.08s12.57,3.74,12.57,10.08c0,6.08-5.25,9.94-12.42,9.94S580.08,115.66,580.08,109.71ZM670,117.59c-12,0-20.56-8.71-20.56-21,0-11.59,7.6-21.13,19.89-21.13a24.5,24.5,0,0,1,16.85,6.91l5.39-16a36.75,36.75,0,0,0-22.78-7.73c-22,0-38.39,16.16-38.39,38.11s16,37.69,38.52,37.69a36.27,36.27,0,0,0,22.49-7.73l-5.1-15.58c-3.19,2.6-9,6.46-16.31,6.46Zm28.58,15h19V95.36l24.17,37.28h22.36l-27.34-39.5,25.41-32.72H740.78L717.59,90.8v-58h-19v99.81Z"/>
</svg>
