<?xml version="1.0" encoding="UTF-8"?>
<svg width="439px" height="256px" viewBox="0 0 439 256" version="1.1" xmlns="http://www.w3.org/2000/svg" xmlns:xlink="http://www.w3.org/1999/xlink">
    <!-- Generator: Sketch 51.3 (57544) - http://www.bohemiancoding.com/sketch -->
    <title>Group 20</title>
    <desc>Created with Sketch.</desc>
    <defs>
        <polygon id="path-1" points="6.95240237e-05 0.627347978 438.614 0.627347978 438.614 256 6.95240237e-05 256"></polygon>
    </defs>
    <g id="Page-1" stroke="none" stroke-width="1" fill="none" fill-rule="evenodd" opacity="0.8">
        <g id="Desktop-HD-Copy-8" transform="translate(-266.000000, -285.000000)">
            <g id="Group-20" transform="translate(266.000000, 284.000000)">
                <path d="M239.6598,73.7836 L237.7398,74.8996 C234.7928,76.6126 232.6928,77.4786 230.6328,79.4676 L222.3958,71.2306 L222.1708,3.7266 L292.3428,44.2406 C293.4398,44.8736 294.3798,45.5686 295.2458,46.2866 C295.4798,46.4816 295.6978,46.6806 295.9148,46.8806 C296.5828,47.4966 297.1728,48.1336 297.6738,48.7916 C297.7808,48.9336 297.9158,49.0696 298.0148,49.2126 C298.5648,50.0026 298.9788,50.8196 299.2848,51.6496 C299.3598,51.8546 299.4028,52.0626 299.4638,52.2686 C299.6598,52.9456 299.7748,53.6296 299.8058,54.3186 C299.8848,56.0066 299.5218,57.7126 298.5678,59.3726 C297.3308,61.5436 295.1028,63.3836 292.2848,64.8096 C288.4948,66.7286 284.1728,69.1706 275.9348,69.1706 C275.9348,69.1706 256.9238,66.0406 239.6598,73.7836" id="Fill-1" fill="#F2EEEB"></path>
                <path d="M229.1754,167.5136 C229.1774,167.0816 229.2464,166.6506 229.2844,166.2186 C229.2584,166.5206 229.1914,166.8216 229.1824,167.1226 C229.1784,167.2526 229.1764,167.3836 229.1754,167.5136" id="Fill-3" fill="#0F2F53"></path>
                <path d="M354.0299,189.375 L354.0299,242.78 C371.9329,251.229 398.4409,250.665 415.0719,241.129 C432.7619,230.985 432.6689,214.554 414.8619,204.41 L413.0539,203.381 C407.3239,200.116 399.6089,198.298 391.6349,198.298 L378.2189,198.298 C371.8499,198.284 364.7499,197.235 360.4239,194.771 C360.4239,194.771 355.4669,192.073 354.0299,189.375" id="Fill-5" fill="#EDE9E6"></path>
                <path d="M323.6754,83.478 C323.6754,83.478 316.6934,86.969 316.6934,91.624 L316.6934,102.098 C316.6934,102.098 317.0634,110.025 302.6224,117.408 C302.6224,117.408 289.3454,124.79 267.2354,123.626 C267.2354,123.626 227.6694,121.299 224.1784,96.861 L223.4084,170.36 C223.4084,170.36 231.8914,199.068 272.9944,199.068 C319.9714,199.068 322.5814,175.58 322.5814,175.58 L322.5814,167.751 C322.5814,167.751 323.6744,155.441 342.7014,155.072 C342.9624,155.066 343.2004,155.083 343.4584,155.082 L343.4584,79.951 C337.7674,79.605 331.0474,80.374 323.6754,83.478" id="Fill-7" fill="#EDE9E6"></path>
                <path d="M362.0778,85.8056 C362.0778,85.8056 354.8338,80.6416 343.4588,79.9506 L343.4588,155.0816 C361.9358,154.9916 370.1168,164.5856 370.1168,164.5856 L434.2268,127.6996 L362.0778,85.8056 Z" id="Fill-9" fill="#F2EEEB"></path>
                <path d="M199.3707,181.1494 L197.4897,182.2434 C191.3417,185.8164 183.1777,187.7854 174.5007,187.7854 L160.8147,187.7854 C151.2787,187.7854 142.6417,191.2804 139.8127,196.2834 C137.0657,201.0654 139.4187,206.3704 145.9477,210.1364 L166.7157,222.1284 C216.0567,220.6444 214.1587,200.9614 214.1587,200.9614 L214.1587,159.7764 L213.9217,159.8234 C213.9277,159.9974 213.9427,160.1704 213.9437,160.3444 C213.9547,168.2944 208.7787,175.6834 199.3707,181.1494" id="Fill-11" fill="#EDE9E6"></path>
                <path d="M78.4313,88.3042 L6.1993,130.2812 L77.1943,170.4432 L77.6153,170.1992 C77.7533,170.1182 77.8903,170.0372 78.0263,169.9552 C78.2863,169.7992 78.5073,169.6282 78.7563,169.4682 C79.1533,169.2112 79.5533,168.9562 79.9213,168.6882 C80.2153,168.4742 80.4823,168.2532 80.7583,168.0332 C81.0973,167.7622 81.4373,167.4932 81.7483,167.2142 C81.8253,167.1442 81.9173,167.0812 81.9923,167.0122 C82.3643,166.6672 82.7133,166.3162 83.0423,165.9602 C83.0773,165.9232 83.1053,165.8842 83.1393,165.8462 C83.4103,165.5482 83.6733,165.2482 83.9133,164.9422 C83.9813,164.8562 84.0253,164.7652 84.0903,164.6792 C84.3643,164.3152 84.6033,163.9462 84.8343,163.5752 C84.9323,163.4152 85.0623,163.2622 85.1533,163.1002 C85.1863,163.0412 85.2053,162.9802 85.2373,162.9212 C85.4103,162.6032 85.5463,162.2812 85.6883,161.9592 C85.7773,161.7562 85.8953,161.5572 85.9723,161.3532 C85.9903,161.3042 85.9963,161.2552 86.0143,161.2062 C86.1193,160.9152 86.1873,160.6202 86.2663,160.3262 C86.3293,160.0952 86.4193,159.8662 86.4663,159.6332 C86.4753,159.5862 86.4733,159.5382 86.4823,159.4902 C86.5383,159.1922 86.5563,158.8912 86.5853,158.5912 C86.6083,158.3542 86.6593,158.1202 86.6663,157.8832 C86.6693,157.7932 86.6703,157.7022 86.6703,157.6122 L86.8933,79.1352 C85.6063,82.6602 82.7153,85.8142 78.4313,88.3042" id="Fill-13" fill="#EDE9E6"></path>
                <path d="M221.0202,5.4409 L146.7142,48.6229 C138.7662,53.2399 127.2112,54.8399 116.5672,52.8059 C112.7642,52.0669 109.3872,50.8539 106.5222,49.1989 C101.3032,46.1859 98.3982,42.0559 98.3432,37.5739 L98.3382,29.5999 C98.2962,26.6299 96.6192,23.6489 93.6302,21.0939 C93.3142,20.8549 93.0062,20.6129 92.6652,20.3829 L92.6652,20.3459 C91.8952,19.7629 91.0812,19.1959 90.1722,18.6719 L88.2792,17.5789 C70.6172,7.3809 41.9762,7.3799 24.4322,17.5759 C16.3562,22.2699 11.9142,28.3919 11.9232,34.8179 C11.9322,41.2899 16.4502,47.4599 24.6422,52.1899 L26.5362,53.2819 C32.0242,56.4519 39.6722,58.2689 47.5192,58.2689 L61.2052,58.2689 C68.0072,58.2689 74.4332,59.8149 79.2952,62.6239 C82.2882,64.3509 84.5072,66.4429 85.8902,68.8429 C87.5962,71.7559 88.0722,74.9359 87.2592,78.0249 C86.9242,79.3009 86.3592,80.5279 85.6212,81.7049 L88.0322,82.8139 L92.6652,85.6449 C96.7292,88.4479 98.9692,95.5249 98.9902,99.2269 L99.0332,106.7699 C99.0552,110.7619 101.8382,114.4639 106.4912,117.1499 C107.6012,117.7909 108.8162,118.3739 110.1262,118.8889 C110.3242,118.9659 110.5492,119.0239 110.7512,119.0989 C111.0192,119.1979 111.2972,119.2829 111.5722,119.3759 C112.1022,119.5559 112.6092,119.7539 113.1652,119.9119 C114.0222,120.1559 114.9102,120.3749 115.8252,120.5639 C116.0262,120.6049 116.2282,120.6449 116.4332,120.6839 C117.2262,120.8379 118.0242,120.9719 118.8252,121.0849 C119.1772,121.1349 119.5312,121.1619 119.8842,121.2039 C120.2212,121.2439 120.5562,121.2829 120.8932,121.3159 C121.1562,121.3419 121.4172,121.3829 121.6802,121.4049 C122.5502,121.4769 123.4212,121.5189 124.2902,121.5449 C124.3532,121.5459 124.4152,121.5529 124.4782,121.5549 C124.4942,121.5549 124.5102,121.5569 124.5252,121.5569 C125.5092,121.5819 126.4902,121.5769 127.4662,121.5439 C127.6552,121.5379 127.8402,121.5149 128.0292,121.5059 C128.4292,121.4879 128.8222,121.4549 129.2192,121.4269 C129.6912,121.3949 130.1672,121.3799 130.6352,121.3339 C130.9362,121.3029 131.2262,121.2449 131.5252,121.2099 C132.1192,121.1389 132.7032,121.0559 133.2872,120.9639 C133.6292,120.9109 133.9822,120.8809 134.3202,120.8199 C134.5322,120.7819 134.7232,120.7099 134.9332,120.6689 C136.5142,120.3599 138.0622,119.9949 139.5402,119.5269 C139.5882,119.5119 139.6442,119.5049 139.6922,119.4899 C139.7052,119.4859 139.7162,119.4799 139.7282,119.4759 C140.4862,119.2329 141.1992,118.9359 141.9222,118.6499 C142.3212,118.4929 142.7432,118.3629 143.1302,118.1929 C144.2192,117.7169 145.2622,117.1919 146.2482,116.6199 L222.3962,71.9649 L222.6042,6.3549 L221.0202,5.4409 Z" id="Fill-15" fill="#EDE9E6"></path>
                <g id="Group-19" transform="translate(0.000000, 0.373000)">
                    <mask id="mask-2" fill="white">
                        <use xlink:href="#path-1"></use>
                    </mask>
                    <g id="Clip-18"></g>
                    <path d="M160.8151,187.4121 C151.2781,187.4121 142.6421,190.9071 139.8131,195.9101 C137.0661,200.6921 139.4191,205.9971 145.9471,209.7641 L218.3381,251.5611 L291.8981,208.8101 C299.8861,204.1701 311.4451,202.5691 322.0501,204.6301 C325.8681,205.3581 329.2661,206.5701 332.1441,208.2311 C337.3601,211.2441 340.2461,215.3791 340.2701,219.8751 L340.3541,227.8121 C340.3441,231.8071 343.3061,235.7961 348.4811,238.7841 L350.3351,239.8561 C367.9991,250.0561 396.6411,250.0541 414.1801,239.8581 C422.2671,235.1581 426.7151,229.0371 426.7051,222.6181 C426.6971,216.1501 422.1741,209.9811 413.9711,205.2451 L412.1161,204.1741 C406.6051,200.9901 398.9721,199.1641 391.1731,199.1641 L377.4091,199.1641 C370.6161,199.1501 364.1921,197.5921 359.3201,194.7801 C356.3411,193.0581 354.1241,190.9791 352.7301,188.6021 C348.7541,181.7071 351.6821,174.0671 360.1821,169.1301 L432.4461,127.1351 L359.6941,85.1311 C352.5871,81.0291 341.8571,79.5791 332.3491,81.4281 C323.6411,83.0981 317.5831,87.7041 317.6111,92.6301 L317.6551,100.5581 C317.6871,106.0621 314.0291,111.3571 307.6201,115.0831 L305.7361,116.1761 C287.0541,127.0331 256.5601,127.0321 237.7611,116.1791 C228.2341,110.6781 222.9811,103.2431 222.9691,95.2441 C222.9591,87.2951 228.1331,79.9061 237.5441,74.4371 L239.4221,73.3451 C245.5721,69.7711 253.7371,67.8041 262.4121,67.8041 L276.0981,67.8041 C285.5881,67.8041 294.2271,64.3041 297.1071,59.2921 C299.8111,54.5091 297.4601,49.2011 290.9651,45.4511 L221.0201,5.0681 L146.7141,48.2501 C138.7661,52.8671 127.2111,54.4671 116.5671,52.4331 C112.7641,51.6941 109.3871,50.4811 106.5231,48.8261 C101.3031,45.8131 98.3981,41.6831 98.3431,37.2011 L98.3381,29.2261 C98.2821,25.2561 95.3061,21.2631 90.1721,18.2991 L88.2791,17.2061 C70.6171,7.0081 41.9761,7.0071 24.4321,17.2031 C16.3561,21.8961 11.9141,28.0191 11.9231,34.4451 C11.9321,40.9171 16.4501,47.0871 24.6421,51.8161 L26.5361,52.9101 C32.0241,56.0791 39.6721,57.8951 47.5191,57.8951 L61.2051,57.8951 C68.0071,57.8951 74.4331,59.4421 79.2951,62.2501 C82.2881,63.9771 84.5071,66.0701 85.8901,68.4701 C87.5961,71.3831 88.0721,74.5621 87.2591,77.6521 C86.2141,81.6281 83.1611,85.1821 78.4311,87.9311 L6.1991,129.9081 L77.2021,170.0751 C84.2831,174.1641 95.0201,175.6201 104.5701,173.7871 C113.2681,172.0911 119.3291,167.4841 119.3021,162.5851 L119.2571,154.6591 C119.2271,149.1521 122.8851,143.8571 129.2941,140.1331 L131.1761,139.0391 C149.8571,128.1841 180.3501,128.1811 199.1501,139.0361 C208.6781,144.5371 213.9311,151.9721 213.9441,159.9721 C213.9551,167.9211 208.7791,175.3101 199.3711,180.7761 L197.4901,181.8701 C191.3411,185.4431 183.1771,187.4121 174.5011,187.4121 L160.8151,187.4121 Z M218.3411,256.0001 C217.9861,256.0001 217.6301,255.9071 217.3121,255.7251 L143.8881,213.3311 C135.2971,208.3721 132.2931,200.7351 136.2341,193.8711 C139.8091,187.5491 149.6901,183.2941 160.8151,183.2941 L174.5011,183.2941 C182.3471,183.2941 189.9711,181.4771 195.4191,178.3101 L197.3011,177.2171 C205.3861,172.5181 209.8351,166.3951 209.8251,159.9771 C209.8161,153.5091 205.2941,147.3381 197.0901,142.6031 C179.4281,132.4051 150.7881,132.4071 133.2451,142.6011 L131.3641,143.6941 C126.2651,146.6561 123.3531,150.6451 123.3751,154.6361 L123.4201,162.5611 C123.4591,169.5801 116.1981,175.7171 105.3521,177.8301 C94.7231,179.8711 83.1541,178.2661 75.1581,173.6511 L1.0451,131.7251 C0.4031,131.3611 0.0041,130.6821 0.0001,129.9441 C-0.0039,129.2061 0.3861,128.5221 1.0241,128.1511 L76.3621,84.3701 C80.0701,82.2151 82.5251,79.4571 83.2771,76.6041 C83.8131,74.5671 83.4941,72.5271 82.3301,70.5391 C81.3191,68.7881 79.5611,67.1591 77.2361,65.8181 C73.0501,63.4001 67.2071,62.0141 61.2051,62.0141 L47.5191,62.0141 C38.8451,62.0141 30.6621,60.0471 24.4771,56.4771 L22.5841,55.3841 C13.0641,49.8881 7.8151,42.4541 7.8041,34.4511 C7.7941,26.4951 12.9631,19.1041 22.3631,13.6411 C41.0441,2.7851 71.5371,2.7841 90.3371,13.6391 L92.2311,14.7311 C98.6521,18.4391 102.3801,23.7111 102.4561,29.1961 L102.4611,37.1751 C102.4971,40.0791 104.7281,43.0351 108.5821,45.2601 C111.0151,46.6651 114.0461,47.7471 117.3471,48.3891 C126.9131,50.2181 137.6291,48.7671 144.6451,44.6881 L219.9831,0.9071 C220.6191,0.5351 221.4071,0.5341 222.0461,0.9041 L293.0251,41.8831 C301.5691,46.8171 304.5761,54.4511 300.6841,61.3311 C297.0431,67.6711 287.1651,71.9221 276.0981,71.9221 L262.4121,71.9221 C254.5671,71.9221 246.9411,73.7381 241.4921,76.9051 L239.6141,77.9981 C231.5281,82.6981 227.0801,88.8201 227.0871,95.2381 C227.0971,101.7061 231.6181,107.8771 239.8211,112.6121 C257.4811,122.8091 286.1211,122.8101 303.6691,112.6151 L305.5501,111.5221 C310.6491,108.5581 313.5601,104.5701 313.5371,100.5811 L313.4921,92.6531 C313.4521,85.6021 320.7151,79.4661 331.5671,77.3851 C342.1521,75.3221 353.7171,76.9251 361.7531,81.5631 L437.5851,125.3451 C438.2191,125.7131 438.6121,126.3911 438.6141,127.1261 C438.6161,127.8611 438.2241,128.5401 437.5881,128.9101 L362.2501,172.6911 C355.8081,176.4331 353.5261,181.7371 356.2921,186.5311 C357.2981,188.2511 359.0601,189.8741 361.3791,191.2131 C365.5761,193.6361 371.4191,195.0341 377.4131,195.0461 L391.1731,195.0461 C399.7981,195.0461 407.9661,197.0201 414.1761,200.6061 L416.0311,201.6781 C425.5591,207.1781 430.8131,214.6141 430.8241,222.6141 C430.8361,230.5611 425.6591,237.9521 416.2501,243.4171 C397.5761,254.2741 367.0781,254.2761 348.2761,243.4241 L346.4191,242.3511 C339.8391,238.5511 336.2221,233.3921 336.2361,227.8281 L336.1521,219.9071 C336.1351,216.9681 333.9251,214.0161 330.0851,211.7991 C327.6411,210.3901 324.5941,209.3091 321.2721,208.6741 C311.7351,206.8221 301.0221,208.2711 293.9671,212.3701 L219.3771,255.7211 C219.0561,255.9071 218.7001,256.0001 218.3411,256.0001 Z" id="Fill-17" fill="#EDE9E6" mask="url(#mask-2)"></path>
                </g>
            </g>
        </g>
    </g>
</svg>