<svg width="448" height="240" viewBox="0 0 448 240" fill="none" xmlns="http://www.w3.org/2000/svg">
<g clip-path="url(#clip0)">
<path d="M0 0H448V240H0V0Z" fill="white"/>
<path d="M0 0L448 -3.91654e-05" stroke="#E3E8EE" stroke-width="2" stroke-linecap="round" stroke-linejoin="round" stroke-dasharray="0.01 16"/>
<path d="M0 16L448 16" stroke="#E3E8EE" stroke-width="2" stroke-linecap="round" stroke-linejoin="round" stroke-dasharray="0.01 16"/>
<path d="M0 32L448 32" stroke="#E3E8EE" stroke-width="2" stroke-linecap="round" stroke-linejoin="round" stroke-dasharray="0.01 16"/>
<path d="M0 48L448 48" stroke="#E3E8EE" stroke-width="2" stroke-linecap="round" stroke-linejoin="round" stroke-dasharray="0.01 16"/>
<path d="M0 64L448 64" stroke="#E3E8EE" stroke-width="2" stroke-linecap="round" stroke-linejoin="round" stroke-dasharray="0.01 16"/>
<path d="M0 80L448 80" stroke="#E3E8EE" stroke-width="2" stroke-linecap="round" stroke-linejoin="round" stroke-dasharray="0.01 16"/>
<path d="M0 96L448 96" stroke="#E3E8EE" stroke-width="2" stroke-linecap="round" stroke-linejoin="round" stroke-dasharray="0.01 16"/>
<path d="M0 112L448 112" stroke="#E3E8EE" stroke-width="2" stroke-linecap="round" stroke-linejoin="round" stroke-dasharray="0.01 16"/>
<path d="M0 128L448 128" stroke="#E3E8EE" stroke-width="2" stroke-linecap="round" stroke-linejoin="round" stroke-dasharray="0.01 16"/>
<path d="M0 144L448 144" stroke="#E3E8EE" stroke-width="2" stroke-linecap="round" stroke-linejoin="round" stroke-dasharray="0.01 16"/>
<path d="M0 160L448 160" stroke="#E3E8EE" stroke-width="2" stroke-linecap="round" stroke-linejoin="round" stroke-dasharray="0.01 16"/>
<path d="M0 176L448 176" stroke="#E3E8EE" stroke-width="2" stroke-linecap="round" stroke-linejoin="round" stroke-dasharray="0.01 16"/>
<path d="M0 192L448 192" stroke="#E3E8EE" stroke-width="2" stroke-linecap="round" stroke-linejoin="round" stroke-dasharray="0.01 16"/>
<path d="M0 208L448 208" stroke="#E3E8EE" stroke-width="2" stroke-linecap="round" stroke-linejoin="round" stroke-dasharray="0.01 16"/>
<path d="M0 224L448 224" stroke="#E3E8EE" stroke-width="2" stroke-linecap="round" stroke-linejoin="round" stroke-dasharray="0.01 16"/>
<path d="M0 240L448 240" stroke="#E3E8EE" stroke-width="2" stroke-linecap="round" stroke-linejoin="round" stroke-dasharray="0.01 16"/>
<rect x="0.5" y="0.5" width="447" height="239" stroke="white"/>
</g>
<rect x="30" y="142" width="388" height="76" fill="white"/>
<path d="M39.6953 153.102H39.7891L42.3828 162H43.7109L46.7812 150.727H45.3125L43.0703 159.891H42.9766L40.4531 150.727H39.0312L36.5078 159.891H36.4141L34.1719 150.727H32.7031L35.7734 162H37.1016L39.6953 153.102ZM53.5469 159.82C53.1953 160.562 52.4609 160.961 51.375 160.961C49.9453 160.961 49.0156 159.906 48.9453 158.242V158.18H55V157.664C55 155.047 53.6172 153.43 51.3438 153.43C49.0312 153.43 47.5469 155.148 47.5469 157.797C47.5469 160.461 49.0078 162.148 51.3438 162.148C53.1875 162.148 54.5 161.258 54.8906 159.82H53.5469ZM51.3281 154.617C52.6641 154.617 53.5547 155.602 53.5859 157.094H48.9453C49.0469 155.602 49.9844 154.617 51.3281 154.617ZM63.9688 162.148C65.0938 162.148 66.0156 161.656 66.5625 160.758H66.6875V162H67.9688V156.234C67.9688 154.484 66.8203 153.43 64.7656 153.43C62.9688 153.43 61.6406 154.32 61.4609 155.672H62.8203C63.0078 155.008 63.7109 154.625 64.7188 154.625C65.9766 154.625 66.625 155.195 66.625 156.234V157L64.1953 157.148C62.2344 157.266 61.125 158.133 61.125 159.641C61.125 161.18 62.3359 162.148 63.9688 162.148ZM64.2188 160.969C63.2422 160.969 62.5156 160.469 62.5156 159.609C62.5156 158.766 63.0781 158.32 64.3594 158.234L66.625 158.086V158.859C66.625 160.062 65.6016 160.969 64.2188 160.969ZM70.4531 162H71.7969V156.781C71.7969 155.594 72.7266 154.734 74.0078 154.734C74.2734 154.734 74.7578 154.781 74.8672 154.812V153.469C74.6953 153.445 74.4141 153.43 74.1953 153.43C73.0781 153.43 72.1094 154.008 71.8594 154.828H71.7344V153.578H70.4531V162ZM81.8906 159.82C81.5391 160.562 80.8047 160.961 79.7188 160.961C78.2891 160.961 77.3594 159.906 77.2891 158.242V158.18H83.3438V157.664C83.3438 155.047 81.9609 153.43 79.6875 153.43C77.375 153.43 75.8906 155.148 75.8906 157.797C75.8906 160.461 77.3516 162.148 79.6875 162.148C81.5312 162.148 82.8438 161.258 83.2344 159.82H81.8906ZM79.6719 154.617C81.0078 154.617 81.8984 155.602 81.9297 157.094H77.2891C77.3906 155.602 78.3281 154.617 79.6719 154.617ZM89.7734 155.883C89.7734 157.102 90.4922 157.781 92.0703 158.164L93.5156 158.516C94.4141 158.734 94.8516 159.125 94.8516 159.703C94.8516 160.477 94.0391 161.016 92.9062 161.016C91.8281 161.016 91.1562 160.562 90.9297 159.852H89.5469C89.6953 161.25 90.9844 162.148 92.8594 162.148C94.7734 162.148 96.2344 161.109 96.2344 159.602C96.2344 158.391 95.4688 157.703 93.8828 157.32L92.5859 157.008C91.5938 156.766 91.125 156.406 91.125 155.828C91.125 155.078 91.9062 154.57 92.9062 154.57C93.9219 154.57 94.5781 155.016 94.7578 155.688H96.0859C95.9062 154.305 94.6797 153.43 92.9141 153.43C91.125 153.43 89.7734 154.484 89.7734 155.883ZM101.805 162.148C104.203 162.148 105.688 160.492 105.688 157.789C105.688 155.078 104.203 153.43 101.805 153.43C99.4062 153.43 97.9219 155.078 97.9219 157.789C97.9219 160.492 99.4062 162.148 101.805 162.148ZM101.805 160.938C100.211 160.938 99.3125 159.781 99.3125 157.789C99.3125 155.789 100.211 154.641 101.805 154.641C103.398 154.641 104.297 155.789 104.297 157.789C104.297 159.781 103.398 160.938 101.805 160.938ZM107.797 162H109.141V156.781C109.141 155.594 110.07 154.734 111.352 154.734C111.617 154.734 112.102 154.781 112.211 154.812V153.469C112.039 153.445 111.758 153.43 111.539 153.43C110.422 153.43 109.453 154.008 109.203 154.828H109.078V153.578H107.797V162ZM114.047 162H115.391V156.781C115.391 155.594 116.32 154.734 117.602 154.734C117.867 154.734 118.352 154.781 118.461 154.812V153.469C118.289 153.445 118.008 153.43 117.789 153.43C116.672 153.43 115.703 154.008 115.453 154.828H115.328V153.578H114.047V162ZM120.859 165.047C122.352 165.047 123.023 164.469 123.742 162.516L127.031 153.578H125.602L123.297 160.508H123.172L120.859 153.578H119.406L122.523 162.008L122.367 162.508C122.016 163.523 121.594 163.891 120.82 163.891C120.633 163.891 120.422 163.883 120.258 163.852V165C120.445 165.031 120.68 165.047 120.859 165.047ZM128.508 164.867L129.734 160.422H128.242L127.5 164.867H128.508ZM137.484 151.398V153.578H136.125V154.703H137.484V159.812C137.484 161.422 138.18 162.062 139.914 162.062C140.18 162.062 140.438 162.031 140.703 161.984V160.852C140.453 160.875 140.32 160.883 140.078 160.883C139.203 160.883 138.828 160.461 138.828 159.469V154.703H140.703V153.578H138.828V151.398H137.484ZM142.812 162H144.156V157.016C144.156 155.594 144.984 154.641 146.492 154.641C147.766 154.641 148.438 155.383 148.438 156.875V162H149.781V156.547C149.781 154.57 148.656 153.43 146.875 153.43C145.586 153.43 144.703 153.977 144.281 154.906H144.156V150.234H142.812V162ZM157.812 159.82C157.461 160.562 156.727 160.961 155.641 160.961C154.211 160.961 153.281 159.906 153.211 158.242V158.18H159.266V157.664C159.266 155.047 157.883 153.43 155.609 153.43C153.297 153.43 151.812 155.148 151.812 157.797C151.812 160.461 153.273 162.148 155.609 162.148C157.453 162.148 158.766 161.258 159.156 159.82H157.812ZM155.594 154.617C156.93 154.617 157.82 155.602 157.852 157.094H153.211C153.312 155.602 154.25 154.617 155.594 154.617ZM161.375 162H162.719V156.781C162.719 155.594 163.648 154.734 164.93 154.734C165.195 154.734 165.68 154.781 165.789 154.812V153.469C165.617 153.445 165.336 153.43 165.117 153.43C164 153.43 163.031 154.008 162.781 154.828H162.656V153.578H161.375V162ZM172.812 159.82C172.461 160.562 171.727 160.961 170.641 160.961C169.211 160.961 168.281 159.906 168.211 158.242V158.18H174.266V157.664C174.266 155.047 172.883 153.43 170.609 153.43C168.297 153.43 166.812 155.148 166.812 157.797C166.812 160.461 168.273 162.148 170.609 162.148C172.453 162.148 173.766 161.258 174.156 159.82H172.812ZM170.594 154.617C171.93 154.617 172.82 155.602 172.852 157.094H168.211C168.312 155.602 169.25 154.617 170.594 154.617ZM191.484 153.578H190.133L188.477 160.312H188.352L186.469 153.578H185.18L183.297 160.312H183.172L181.516 153.578H180.156L182.516 162H183.875L185.75 155.484H185.875L187.758 162H189.125L191.484 153.578ZM195.391 162.148C196.516 162.148 197.438 161.656 197.984 160.758H198.109V162H199.391V156.234C199.391 154.484 198.242 153.43 196.188 153.43C194.391 153.43 193.062 154.32 192.883 155.672H194.242C194.43 155.008 195.133 154.625 196.141 154.625C197.398 154.625 198.047 155.195 198.047 156.234V157L195.617 157.148C193.656 157.266 192.547 158.133 192.547 159.641C192.547 161.18 193.758 162.148 195.391 162.148ZM195.641 160.969C194.664 160.969 193.938 160.469 193.938 159.609C193.938 158.766 194.5 158.32 195.781 158.234L198.047 158.086V158.859C198.047 160.062 197.023 160.969 195.641 160.969ZM201.68 155.883C201.68 157.102 202.398 157.781 203.977 158.164L205.422 158.516C206.32 158.734 206.758 159.125 206.758 159.703C206.758 160.477 205.945 161.016 204.812 161.016C203.734 161.016 203.062 160.562 202.836 159.852H201.453C201.602 161.25 202.891 162.148 204.766 162.148C206.68 162.148 208.141 161.109 208.141 159.602C208.141 158.391 207.375 157.703 205.789 157.32L204.492 157.008C203.5 156.766 203.031 156.406 203.031 155.828C203.031 155.078 203.812 154.57 204.812 154.57C205.828 154.57 206.484 155.016 206.664 155.688H207.992C207.812 154.305 206.586 153.43 204.82 153.43C203.031 153.43 201.68 154.484 201.68 155.883ZM217.109 162.148C218.234 162.148 219.156 161.656 219.703 160.758H219.828V162H221.109V156.234C221.109 154.484 219.961 153.43 217.906 153.43C216.109 153.43 214.781 154.32 214.602 155.672H215.961C216.148 155.008 216.852 154.625 217.859 154.625C219.117 154.625 219.766 155.195 219.766 156.234V157L217.336 157.148C215.375 157.266 214.266 158.133 214.266 159.641C214.266 161.18 215.477 162.148 217.109 162.148ZM217.359 160.969C216.383 160.969 215.656 160.469 215.656 159.609C215.656 158.766 216.219 158.32 217.5 158.234L219.766 158.086V158.859C219.766 160.062 218.742 160.969 217.359 160.969ZM223.594 162H224.938V157.016C224.938 155.539 225.805 154.641 227.148 154.641C228.492 154.641 229.133 155.359 229.133 156.875V162H230.477V156.547C230.477 154.547 229.422 153.43 227.531 153.43C226.242 153.43 225.422 153.977 225 154.906H224.875V153.578H223.594V162ZM243.031 159.82C242.68 160.562 241.945 160.961 240.859 160.961C239.43 160.961 238.5 159.906 238.43 158.242V158.18H244.484V157.664C244.484 155.047 243.102 153.43 240.828 153.43C238.516 153.43 237.031 155.148 237.031 157.797C237.031 160.461 238.492 162.148 240.828 162.148C242.672 162.148 243.984 161.258 244.375 159.82H243.031ZM240.812 154.617C242.148 154.617 243.039 155.602 243.07 157.094H238.43C238.531 155.602 239.469 154.617 240.812 154.617ZM246.594 162H247.938V156.781C247.938 155.594 248.867 154.734 250.148 154.734C250.414 154.734 250.898 154.781 251.008 154.812V153.469C250.836 153.445 250.555 153.43 250.336 153.43C249.219 153.43 248.25 154.008 248 154.828H247.875V153.578H246.594V162ZM252.844 162H254.188V156.781C254.188 155.594 255.117 154.734 256.398 154.734C256.664 154.734 257.148 154.781 257.258 154.812V153.469C257.086 153.445 256.805 153.43 256.586 153.43C255.469 153.43 254.5 154.008 254.25 154.828H254.125V153.578H252.844V162ZM262.164 162.148C264.562 162.148 266.047 160.492 266.047 157.789C266.047 155.078 264.562 153.43 262.164 153.43C259.766 153.43 258.281 155.078 258.281 157.789C258.281 160.492 259.766 162.148 262.164 162.148ZM262.164 160.938C260.57 160.938 259.672 159.781 259.672 157.789C259.672 155.789 260.57 154.641 262.164 154.641C263.758 154.641 264.656 155.789 264.656 157.789C264.656 159.781 263.758 160.938 262.164 160.938ZM268.156 162H269.5V156.781C269.5 155.594 270.43 154.734 271.711 154.734C271.977 154.734 272.461 154.781 272.57 154.812V153.469C272.398 153.445 272.117 153.43 271.898 153.43C270.781 153.43 269.812 154.008 269.562 154.828H269.438V153.578H268.156V162ZM282.867 153.43C281.719 153.43 280.711 154.016 280.172 154.984H280.047V153.578H278.766V164.812H280.109V160.734H280.234C280.695 161.625 281.664 162.148 282.867 162.148C285.008 162.148 286.406 160.422 286.406 157.789C286.406 155.141 285.016 153.43 282.867 153.43ZM282.547 160.938C281.031 160.938 280.07 159.719 280.07 157.789C280.07 155.852 281.031 154.641 282.555 154.641C284.094 154.641 285.016 155.82 285.016 157.789C285.016 159.758 284.094 160.938 282.547 160.938ZM288.516 162H289.859V156.781C289.859 155.594 290.789 154.734 292.07 154.734C292.336 154.734 292.82 154.781 292.93 154.812V153.469C292.758 153.445 292.477 153.43 292.258 153.43C291.141 153.43 290.172 154.008 289.922 154.828H289.797V153.578H288.516V162ZM297.836 162.148C300.234 162.148 301.719 160.492 301.719 157.789C301.719 155.078 300.234 153.43 297.836 153.43C295.438 153.43 293.953 155.078 293.953 157.789C293.953 160.492 295.438 162.148 297.836 162.148ZM297.836 160.938C296.242 160.938 295.344 159.781 295.344 157.789C295.344 155.789 296.242 154.641 297.836 154.641C299.43 154.641 300.328 155.789 300.328 157.789C300.328 159.781 299.43 160.938 297.836 160.938ZM310.797 156.156C310.562 154.656 309.312 153.43 307.266 153.43C304.906 153.43 303.406 155.133 303.406 157.758C303.406 160.438 304.914 162.148 307.273 162.148C309.297 162.148 310.555 161.008 310.797 159.461H309.438C309.188 160.414 308.398 160.938 307.266 160.938C305.766 160.938 304.797 159.703 304.797 157.758C304.797 155.852 305.75 154.641 307.266 154.641C308.477 154.641 309.219 155.32 309.438 156.156H310.797ZM318.359 159.82C318.008 160.562 317.273 160.961 316.188 160.961C314.758 160.961 313.828 159.906 313.758 158.242V158.18H319.812V157.664C319.812 155.047 318.43 153.43 316.156 153.43C313.844 153.43 312.359 155.148 312.359 157.797C312.359 160.461 313.82 162.148 316.156 162.148C318 162.148 319.312 161.258 319.703 159.82H318.359ZM316.141 154.617C317.477 154.617 318.367 155.602 318.398 157.094H313.758C313.859 155.602 314.797 154.617 316.141 154.617ZM321.727 155.883C321.727 157.102 322.445 157.781 324.023 158.164L325.469 158.516C326.367 158.734 326.805 159.125 326.805 159.703C326.805 160.477 325.992 161.016 324.859 161.016C323.781 161.016 323.109 160.562 322.883 159.852H321.5C321.648 161.25 322.938 162.148 324.812 162.148C326.727 162.148 328.188 161.109 328.188 159.602C328.188 158.391 327.422 157.703 325.836 157.32L324.539 157.008C323.547 156.766 323.078 156.406 323.078 155.828C323.078 155.078 323.859 154.57 324.859 154.57C325.875 154.57 326.531 155.016 326.711 155.688H328.039C327.859 154.305 326.633 153.43 324.867 153.43C323.078 153.43 321.727 154.484 321.727 155.883ZM329.945 155.883C329.945 157.102 330.664 157.781 332.242 158.164L333.688 158.516C334.586 158.734 335.023 159.125 335.023 159.703C335.023 160.477 334.211 161.016 333.078 161.016C332 161.016 331.328 160.562 331.102 159.852H329.719C329.867 161.25 331.156 162.148 333.031 162.148C334.945 162.148 336.406 161.109 336.406 159.602C336.406 158.391 335.641 157.703 334.055 157.32L332.758 157.008C331.766 156.766 331.297 156.406 331.297 155.828C331.297 155.078 332.078 154.57 333.078 154.57C334.094 154.57 334.75 155.016 334.93 155.688H336.258C336.078 154.305 334.852 153.43 333.086 153.43C331.297 153.43 329.945 154.484 329.945 155.883ZM339.219 151.953C339.734 151.953 340.156 151.531 340.156 151.016C340.156 150.5 339.734 150.078 339.219 150.078C338.703 150.078 338.281 150.5 338.281 151.016C338.281 151.531 338.703 151.953 339.219 151.953ZM338.547 162H339.891V153.578H338.547V162ZM342.453 162H343.797V157.016C343.797 155.539 344.664 154.641 346.008 154.641C347.352 154.641 347.992 155.359 347.992 156.875V162H349.336V156.547C349.336 154.547 348.281 153.43 346.391 153.43C345.102 153.43 344.281 153.977 343.859 154.906H343.734V153.578H342.453V162ZM355.266 165.234C357.562 165.234 359.016 164.031 359.016 162.148V153.578H357.734V154.914H357.609C357.125 154.008 356.086 153.43 354.906 153.43C352.742 153.43 351.375 155.141 351.375 157.664C351.375 160.188 352.727 161.875 354.906 161.875C356.062 161.875 357.016 161.352 357.547 160.422H357.672V162.078C357.672 163.32 356.773 164.062 355.266 164.062C354.055 164.062 353.305 163.617 353.156 162.93H351.734C351.938 164.32 353.234 165.234 355.266 165.234ZM355.203 160.688C353.641 160.688 352.766 159.5 352.766 157.664C352.766 155.828 353.641 154.641 355.203 154.641C356.758 154.641 357.703 155.828 357.703 157.664C357.703 159.5 356.766 160.688 355.203 160.688ZM33.9844 189.047C35.4766 189.047 36.1484 188.469 36.8672 186.516L40.1562 177.578H38.7266L36.4219 184.508H36.2969L33.9844 177.578H32.5312L35.6484 186.008L35.4922 186.508C35.1406 187.523 34.7188 187.891 33.9453 187.891C33.7578 187.891 33.5469 187.883 33.3828 187.852V189C33.5703 189.031 33.8047 189.047 33.9844 189.047ZM45.1016 186.148C47.5 186.148 48.9844 184.492 48.9844 181.789C48.9844 179.078 47.5 177.43 45.1016 177.43C42.7031 177.43 41.2188 179.078 41.2188 181.789C41.2188 184.492 42.7031 186.148 45.1016 186.148ZM45.1016 184.938C43.5078 184.938 42.6094 183.781 42.6094 181.789C42.6094 179.789 43.5078 178.641 45.1016 178.641C46.6953 178.641 47.5938 179.789 47.5938 181.789C47.5938 183.781 46.6953 184.938 45.1016 184.938ZM57.9062 177.578H56.5625V182.562C56.5625 184.039 55.75 184.922 54.2656 184.922C52.9219 184.922 52.3594 184.219 52.3594 182.703V177.578H51.0156V183.031C51.0156 185.023 52 186.148 53.8906 186.148C55.1797 186.148 56.0781 185.617 56.5 184.68H56.625V186H57.9062V177.578ZM60.4375 186H61.7812V180.781C61.7812 179.594 62.7109 178.734 63.9922 178.734C64.2578 178.734 64.7422 178.781 64.8516 178.812V177.469C64.6797 177.445 64.3984 177.43 64.1797 177.43C63.0625 177.43 62.0938 178.008 61.8438 178.828H61.7188V177.578H60.4375V186ZM75.1484 177.43C74 177.43 72.9922 178.016 72.4531 178.984H72.3281V177.578H71.0469V188.812H72.3906V184.734H72.5156C72.9766 185.625 73.9453 186.148 75.1484 186.148C77.2891 186.148 78.6875 184.422 78.6875 181.789C78.6875 179.141 77.2969 177.43 75.1484 177.43ZM74.8281 184.938C73.3125 184.938 72.3516 183.719 72.3516 181.789C72.3516 179.852 73.3125 178.641 74.8359 178.641C76.375 178.641 77.2969 179.82 77.2969 181.789C77.2969 183.758 76.375 184.938 74.8281 184.938ZM83.1406 186.148C84.2656 186.148 85.1875 185.656 85.7344 184.758H85.8594V186H87.1406V180.234C87.1406 178.484 85.9922 177.43 83.9375 177.43C82.1406 177.43 80.8125 178.32 80.6328 179.672H81.9922C82.1797 179.008 82.8828 178.625 83.8906 178.625C85.1484 178.625 85.7969 179.195 85.7969 180.234V181L83.3672 181.148C81.4062 181.266 80.2969 182.133 80.2969 183.641C80.2969 185.18 81.5078 186.148 83.1406 186.148ZM83.3906 184.969C82.4141 184.969 81.6875 184.469 81.6875 183.609C81.6875 182.766 82.25 182.32 83.5312 182.234L85.7969 182.086V182.859C85.7969 184.062 84.7734 184.969 83.3906 184.969ZM90.0312 189.047C91.5234 189.047 92.1953 188.469 92.9141 186.516L96.2031 177.578H94.7734L92.4688 184.508H92.3438L90.0312 177.578H88.5781L91.6953 186.008L91.5391 186.508C91.1875 187.523 90.7656 187.891 89.9922 187.891C89.8047 187.891 89.5938 187.883 89.4297 187.852V189C89.6172 189.031 89.8516 189.047 90.0312 189.047ZM98 186H99.3438V180.781C99.3438 179.594 100.195 178.641 101.297 178.641C102.359 178.641 103.055 179.281 103.055 180.281V186H104.398V180.586C104.398 179.516 105.18 178.641 106.352 178.641C107.539 178.641 108.125 179.25 108.125 180.492V186H109.469V180.18C109.469 178.414 108.508 177.43 106.789 177.43C105.625 177.43 104.664 178.016 104.211 178.906H104.086C103.695 178.031 102.898 177.43 101.758 177.43C100.633 177.43 99.7891 177.969 99.4062 178.906H99.2812V177.578H98V186ZM117.5 183.82C117.148 184.562 116.414 184.961 115.328 184.961C113.898 184.961 112.969 183.906 112.898 182.242V182.18H118.953V181.664C118.953 179.047 117.57 177.43 115.297 177.43C112.984 177.43 111.5 179.148 111.5 181.797C111.5 184.461 112.961 186.148 115.297 186.148C117.141 186.148 118.453 185.258 118.844 183.82H117.5ZM115.281 178.617C116.617 178.617 117.508 179.602 117.539 181.094H112.898C113 179.602 113.938 178.617 115.281 178.617ZM121.062 186H122.406V181.016C122.406 179.539 123.273 178.641 124.617 178.641C125.961 178.641 126.602 179.359 126.602 180.875V186H127.945V180.547C127.945 178.547 126.891 177.43 125 177.43C123.711 177.43 122.891 177.977 122.469 178.906H122.344V177.578H121.062V186ZM130.969 175.398V177.578H129.609V178.703H130.969V183.812C130.969 185.422 131.664 186.062 133.398 186.062C133.664 186.062 133.922 186.031 134.188 185.984V184.852C133.938 184.875 133.805 184.883 133.562 184.883C132.688 184.883 132.312 184.461 132.312 183.469V178.703H134.188V177.578H132.312V175.398H130.969ZM137.328 186.078C137.891 186.078 138.344 185.617 138.344 185.062C138.344 184.5 137.891 184.047 137.328 184.047C136.773 184.047 136.312 184.5 136.312 185.062C136.312 185.617 136.773 186.078 137.328 186.078ZM145.656 174.727V186H147.062V181.977H149.898C152.016 181.977 153.523 180.484 153.523 178.375C153.523 176.227 152.047 174.727 149.914 174.727H145.656ZM147.062 175.977H149.547C151.18 175.977 152.078 176.828 152.078 178.375C152.078 179.867 151.148 180.727 149.547 180.727H147.062V175.977ZM155.734 186H157.078V174.234H155.734V186ZM165.266 183.82C164.914 184.562 164.18 184.961 163.094 184.961C161.664 184.961 160.734 183.906 160.664 182.242V182.18H166.719V181.664C166.719 179.047 165.336 177.43 163.062 177.43C160.75 177.43 159.266 179.148 159.266 181.797C159.266 184.461 160.727 186.148 163.062 186.148C164.906 186.148 166.219 185.258 166.609 183.82H165.266ZM163.047 178.617C164.383 178.617 165.273 179.602 165.305 181.094H160.664C160.766 179.602 161.703 178.617 163.047 178.617ZM171.172 186.148C172.297 186.148 173.219 185.656 173.766 184.758H173.891V186H175.172V180.234C175.172 178.484 174.023 177.43 171.969 177.43C170.172 177.43 168.844 178.32 168.664 179.672H170.023C170.211 179.008 170.914 178.625 171.922 178.625C173.18 178.625 173.828 179.195 173.828 180.234V181L171.398 181.148C169.438 181.266 168.328 182.133 168.328 183.641C168.328 185.18 169.539 186.148 171.172 186.148ZM171.422 184.969C170.445 184.969 169.719 184.469 169.719 183.609C169.719 182.766 170.281 182.32 171.562 182.234L173.828 182.086V182.859C173.828 184.062 172.805 184.969 171.422 184.969ZM177.461 179.883C177.461 181.102 178.18 181.781 179.758 182.164L181.203 182.516C182.102 182.734 182.539 183.125 182.539 183.703C182.539 184.477 181.727 185.016 180.594 185.016C179.516 185.016 178.844 184.562 178.617 183.852H177.234C177.383 185.25 178.672 186.148 180.547 186.148C182.461 186.148 183.922 185.109 183.922 183.602C183.922 182.391 183.156 181.703 181.57 181.32L180.273 181.008C179.281 180.766 178.812 180.406 178.812 179.828C178.812 179.078 179.594 178.57 180.594 178.57C181.609 178.57 182.266 179.016 182.445 179.688H183.773C183.594 178.305 182.367 177.43 180.602 177.43C178.812 177.43 177.461 178.484 177.461 179.883ZM191.609 183.82C191.258 184.562 190.523 184.961 189.438 184.961C188.008 184.961 187.078 183.906 187.008 182.242V182.18H193.062V181.664C193.062 179.047 191.68 177.43 189.406 177.43C187.094 177.43 185.609 179.148 185.609 181.797C185.609 184.461 187.07 186.148 189.406 186.148C191.25 186.148 192.562 185.258 192.953 183.82H191.609ZM189.391 178.617C190.727 178.617 191.617 179.602 191.648 181.094H187.008C187.109 179.602 188.047 178.617 189.391 178.617ZM200.25 175.398V177.578H198.891V178.703H200.25V183.812C200.25 185.422 200.945 186.062 202.68 186.062C202.945 186.062 203.203 186.031 203.469 185.984V184.852C203.219 184.875 203.086 184.883 202.844 184.883C201.969 184.883 201.594 184.461 201.594 183.469V178.703H203.469V177.578H201.594V175.398H200.25ZM205.5 186H206.844V180.781C206.844 179.594 207.773 178.734 209.055 178.734C209.32 178.734 209.805 178.781 209.914 178.812V177.469C209.742 177.445 209.461 177.43 209.242 177.43C208.125 177.43 207.156 178.008 206.906 178.828H206.781V177.578H205.5V186ZM212.312 189.047C213.805 189.047 214.477 188.469 215.195 186.516L218.484 177.578H217.055L214.75 184.508H214.625L212.312 177.578H210.859L213.977 186.008L213.82 186.508C213.469 187.523 213.047 187.891 212.273 187.891C212.086 187.891 211.875 187.883 211.711 187.852V189C211.898 189.031 212.133 189.047 212.312 189.047ZM227.141 186.148C228.266 186.148 229.188 185.656 229.734 184.758H229.859V186H231.141V180.234C231.141 178.484 229.992 177.43 227.938 177.43C226.141 177.43 224.812 178.32 224.633 179.672H225.992C226.18 179.008 226.883 178.625 227.891 178.625C229.148 178.625 229.797 179.195 229.797 180.234V181L227.367 181.148C225.406 181.266 224.297 182.133 224.297 183.641C224.297 185.18 225.508 186.148 227.141 186.148ZM227.391 184.969C226.414 184.969 225.688 184.469 225.688 183.609C225.688 182.766 226.25 182.32 227.531 182.234L229.797 182.086V182.859C229.797 184.062 228.773 184.969 227.391 184.969ZM237.094 189.234C239.391 189.234 240.844 188.031 240.844 186.148V177.578H239.562V178.914H239.438C238.953 178.008 237.914 177.43 236.734 177.43C234.57 177.43 233.203 179.141 233.203 181.664C233.203 184.188 234.555 185.875 236.734 185.875C237.891 185.875 238.844 185.352 239.375 184.422H239.5V186.078C239.5 187.32 238.602 188.062 237.094 188.062C235.883 188.062 235.133 187.617 234.984 186.93H233.562C233.766 188.32 235.062 189.234 237.094 189.234ZM237.031 184.688C235.469 184.688 234.594 183.5 234.594 181.664C234.594 179.828 235.469 178.641 237.031 178.641C238.586 178.641 239.531 179.828 239.531 181.664C239.531 183.5 238.594 184.688 237.031 184.688ZM245.719 186.148C246.844 186.148 247.766 185.656 248.312 184.758H248.438V186H249.719V180.234C249.719 178.484 248.57 177.43 246.516 177.43C244.719 177.43 243.391 178.32 243.211 179.672H244.57C244.758 179.008 245.461 178.625 246.469 178.625C247.727 178.625 248.375 179.195 248.375 180.234V181L245.945 181.148C243.984 181.266 242.875 182.133 242.875 183.641C242.875 185.18 244.086 186.148 245.719 186.148ZM245.969 184.969C244.992 184.969 244.266 184.469 244.266 183.609C244.266 182.766 244.828 182.32 246.109 182.234L248.375 182.086V182.859C248.375 184.062 247.352 184.969 245.969 184.969ZM252.906 175.953C253.422 175.953 253.844 175.531 253.844 175.016C253.844 174.5 253.422 174.078 252.906 174.078C252.391 174.078 251.969 174.5 251.969 175.016C251.969 175.531 252.391 175.953 252.906 175.953ZM252.234 186H253.578V177.578H252.234V186ZM256.141 186H257.484V181.016C257.484 179.539 258.352 178.641 259.695 178.641C261.039 178.641 261.68 179.359 261.68 180.875V186H263.023V180.547C263.023 178.547 261.969 177.43 260.078 177.43C258.789 177.43 257.969 177.977 257.547 178.906H257.422V177.578H256.141V186ZM280.594 177.578H279.242L277.586 184.312H277.461L275.578 177.578H274.289L272.406 184.312H272.281L270.625 177.578H269.266L271.625 186H272.984L274.859 179.484H274.984L276.867 186H278.234L280.594 177.578ZM283.094 175.953C283.609 175.953 284.031 175.531 284.031 175.016C284.031 174.5 283.609 174.078 283.094 174.078C282.578 174.078 282.156 174.5 282.156 175.016C282.156 175.531 282.578 175.953 283.094 175.953ZM282.422 186H283.766V177.578H282.422V186ZM286.891 175.398V177.578H285.531V178.703H286.891V183.812C286.891 185.422 287.586 186.062 289.32 186.062C289.586 186.062 289.844 186.031 290.109 185.984V184.852C289.859 184.875 289.727 184.883 289.484 184.883C288.609 184.883 288.234 184.461 288.234 183.469V178.703H290.109V177.578H288.234V175.398H286.891ZM292.219 186H293.562V181.016C293.562 179.594 294.391 178.641 295.898 178.641C297.172 178.641 297.844 179.383 297.844 180.875V186H299.188V180.547C299.188 178.57 298.062 177.43 296.281 177.43C294.992 177.43 294.109 177.977 293.688 178.906H293.562V174.234H292.219V186ZM308.5 186.148C309.625 186.148 310.547 185.656 311.094 184.758H311.219V186H312.5V180.234C312.5 178.484 311.352 177.43 309.297 177.43C307.5 177.43 306.172 178.32 305.992 179.672H307.352C307.539 179.008 308.242 178.625 309.25 178.625C310.508 178.625 311.156 179.195 311.156 180.234V181L308.727 181.148C306.766 181.266 305.656 182.133 305.656 183.641C305.656 185.18 306.867 186.148 308.5 186.148ZM308.75 184.969C307.773 184.969 307.047 184.469 307.047 183.609C307.047 182.766 307.609 182.32 308.891 182.234L311.156 182.086V182.859C311.156 184.062 310.133 184.969 308.75 184.969ZM322.617 186.148C323.781 186.148 324.781 185.594 325.312 184.656H325.438V186H326.719V174.234H325.375V178.906H325.258C324.781 177.984 323.789 177.43 322.617 177.43C320.477 177.43 319.078 179.148 319.078 181.789C319.078 184.438 320.461 186.148 322.617 186.148ZM322.93 178.641C324.453 178.641 325.406 179.859 325.406 181.789C325.406 183.734 324.461 184.938 322.93 184.938C321.391 184.938 320.469 183.758 320.469 181.789C320.469 179.828 321.398 178.641 322.93 178.641ZM330.031 175.953C330.547 175.953 330.969 175.531 330.969 175.016C330.969 174.5 330.547 174.078 330.031 174.078C329.516 174.078 329.094 174.5 329.094 175.016C329.094 175.531 329.516 175.953 330.031 175.953ZM329.359 186H330.703V177.578H329.359V186ZM333.828 186H335.172V178.703H337.102V177.578H335.172V176.68C335.172 175.758 335.578 175.289 336.547 175.289C336.789 175.289 337.016 175.297 337.18 175.328V174.234C336.898 174.18 336.602 174.156 336.273 174.156C334.672 174.156 333.828 174.961 333.828 176.641V177.578H332.43V178.703H333.828V186ZM339.625 186H340.969V178.703H342.898V177.578H340.969V176.68C340.969 175.758 341.375 175.289 342.344 175.289C342.586 175.289 342.812 175.297 342.977 175.328V174.234C342.695 174.18 342.398 174.156 342.07 174.156C340.469 174.156 339.625 174.961 339.625 176.641V177.578H338.227V178.703H339.625V186ZM350.078 183.82C349.727 184.562 348.992 184.961 347.906 184.961C346.477 184.961 345.547 183.906 345.477 182.242V182.18H351.531V181.664C351.531 179.047 350.148 177.43 347.875 177.43C345.562 177.43 344.078 179.148 344.078 181.797C344.078 184.461 345.539 186.148 347.875 186.148C349.719 186.148 351.031 185.258 351.422 183.82H350.078ZM347.859 178.617C349.195 178.617 350.086 179.602 350.117 181.094H345.477C345.578 179.602 346.516 178.617 347.859 178.617ZM353.641 186H354.984V180.781C354.984 179.594 355.914 178.734 357.195 178.734C357.461 178.734 357.945 178.781 358.055 178.812V177.469C357.883 177.445 357.602 177.43 357.383 177.43C356.266 177.43 355.297 178.008 355.047 178.828H354.922V177.578H353.641V186ZM365.078 183.82C364.727 184.562 363.992 184.961 362.906 184.961C361.477 184.961 360.547 183.906 360.477 182.242V182.18H366.531V181.664C366.531 179.047 365.148 177.43 362.875 177.43C360.562 177.43 359.078 179.148 359.078 181.797C359.078 184.461 360.539 186.148 362.875 186.148C364.719 186.148 366.031 185.258 366.422 183.82H365.078ZM362.859 178.617C364.195 178.617 365.086 179.602 365.117 181.094H360.477C360.578 179.602 361.516 178.617 362.859 178.617ZM368.641 186H369.984V181.016C369.984 179.539 370.852 178.641 372.195 178.641C373.539 178.641 374.18 179.359 374.18 180.875V186H375.523V180.547C375.523 178.547 374.469 177.43 372.578 177.43C371.289 177.43 370.469 177.977 370.047 178.906H369.922V177.578H368.641V186ZM378.547 175.398V177.578H377.188V178.703H378.547V183.812C378.547 185.422 379.242 186.062 380.977 186.062C381.242 186.062 381.5 186.031 381.766 185.984V184.852C381.516 184.875 381.383 184.883 381.141 184.883C380.266 184.883 379.891 184.461 379.891 183.469V178.703H381.766V177.578H379.891V175.398H378.547ZM37.3672 201.43C36.2188 201.43 35.2109 202.016 34.6719 202.984H34.5469V201.578H33.2656V212.812H34.6094V208.734H34.7344C35.1953 209.625 36.1641 210.148 37.3672 210.148C39.5078 210.148 40.9062 208.422 40.9062 205.789C40.9062 203.141 39.5156 201.43 37.3672 201.43ZM37.0469 208.938C35.5312 208.938 34.5703 207.719 34.5703 205.789C34.5703 203.852 35.5312 202.641 37.0547 202.641C38.5938 202.641 39.5156 203.82 39.5156 205.789C39.5156 207.758 38.5938 208.938 37.0469 208.938ZM45.3594 210.148C46.4844 210.148 47.4062 209.656 47.9531 208.758H48.0781V210H49.3594V204.234C49.3594 202.484 48.2109 201.43 46.1562 201.43C44.3594 201.43 43.0312 202.32 42.8516 203.672H44.2109C44.3984 203.008 45.1016 202.625 46.1094 202.625C47.3672 202.625 48.0156 203.195 48.0156 204.234V205L45.5859 205.148C43.625 205.266 42.5156 206.133 42.5156 207.641C42.5156 209.18 43.7266 210.148 45.3594 210.148ZM45.6094 208.969C44.6328 208.969 43.9062 208.469 43.9062 207.609C43.9062 206.766 44.4688 206.32 45.75 206.234L48.0156 206.086V206.859C48.0156 208.062 46.9922 208.969 45.6094 208.969ZM52.25 213.047C53.7422 213.047 54.4141 212.469 55.1328 210.516L58.4219 201.578H56.9922L54.6875 208.508H54.5625L52.25 201.578H50.7969L53.9141 210.008L53.7578 210.508C53.4062 211.523 52.9844 211.891 52.2109 211.891C52.0234 211.891 51.8125 211.883 51.6484 211.852V213C51.8359 213.031 52.0703 213.047 52.25 213.047ZM60.2188 210H61.5625V204.781C61.5625 203.594 62.4141 202.641 63.5156 202.641C64.5781 202.641 65.2734 203.281 65.2734 204.281V210H66.6172V204.586C66.6172 203.516 67.3984 202.641 68.5703 202.641C69.7578 202.641 70.3438 203.25 70.3438 204.492V210H71.6875V204.18C71.6875 202.414 70.7266 201.43 69.0078 201.43C67.8438 201.43 66.8828 202.016 66.4297 202.906H66.3047C65.9141 202.031 65.1172 201.43 63.9766 201.43C62.8516 201.43 62.0078 201.969 61.625 202.906H61.5V201.578H60.2188V210ZM79.7188 207.82C79.3672 208.562 78.6328 208.961 77.5469 208.961C76.1172 208.961 75.1875 207.906 75.1172 206.242V206.18H81.1719V205.664C81.1719 203.047 79.7891 201.43 77.5156 201.43C75.2031 201.43 73.7188 203.148 73.7188 205.797C73.7188 208.461 75.1797 210.148 77.5156 210.148C79.3594 210.148 80.6719 209.258 81.0625 207.82H79.7188ZM77.5 202.617C78.8359 202.617 79.7266 203.602 79.7578 205.094H75.1172C75.2188 203.602 76.1562 202.617 77.5 202.617ZM83.2812 210H84.625V205.016C84.625 203.539 85.4922 202.641 86.8359 202.641C88.1797 202.641 88.8203 203.359 88.8203 204.875V210H90.1641V204.547C90.1641 202.547 89.1094 201.43 87.2188 201.43C85.9297 201.43 85.1094 201.977 84.6875 202.906H84.5625V201.578H83.2812V210ZM93.1875 199.398V201.578H91.8281V202.703H93.1875V207.812C93.1875 209.422 93.8828 210.062 95.6172 210.062C95.8828 210.062 96.1406 210.031 96.4062 209.984V208.852C96.1562 208.875 96.0234 208.883 95.7812 208.883C94.9062 208.883 94.5312 208.461 94.5312 207.469V202.703H96.4062V201.578H94.5312V199.398H93.1875ZM102.953 210H104.297V204.781C104.297 203.594 105.148 202.641 106.25 202.641C107.312 202.641 108.008 203.281 108.008 204.281V210H109.352V204.586C109.352 203.516 110.133 202.641 111.305 202.641C112.492 202.641 113.078 203.25 113.078 204.492V210H114.422V204.18C114.422 202.414 113.461 201.43 111.742 201.43C110.578 201.43 109.617 202.016 109.164 202.906H109.039C108.648 202.031 107.852 201.43 106.711 201.43C105.586 201.43 104.742 201.969 104.359 202.906H104.234V201.578H102.953V210ZM122.453 207.82C122.102 208.562 121.367 208.961 120.281 208.961C118.852 208.961 117.922 207.906 117.852 206.242V206.18H123.906V205.664C123.906 203.047 122.523 201.43 120.25 201.43C117.938 201.43 116.453 203.148 116.453 205.797C116.453 208.461 117.914 210.148 120.25 210.148C122.094 210.148 123.406 209.258 123.797 207.82H122.453ZM120.234 202.617C121.57 202.617 122.461 203.602 122.492 205.094H117.852C117.953 203.602 118.891 202.617 120.234 202.617ZM126.578 199.398V201.578H125.219V202.703H126.578V207.812C126.578 209.422 127.273 210.062 129.008 210.062C129.273 210.062 129.531 210.031 129.797 209.984V208.852C129.547 208.875 129.414 208.883 129.172 208.883C128.297 208.883 127.922 208.461 127.922 207.469V202.703H129.797V201.578H127.922V199.398H126.578ZM131.906 210H133.25V205.016C133.25 203.594 134.078 202.641 135.586 202.641C136.859 202.641 137.531 203.383 137.531 204.875V210H138.875V204.547C138.875 202.57 137.75 201.43 135.969 201.43C134.68 201.43 133.797 201.977 133.375 202.906H133.25V198.234H131.906V210ZM144.789 210.148C147.188 210.148 148.672 208.492 148.672 205.789C148.672 203.078 147.188 201.43 144.789 201.43C142.391 201.43 140.906 203.078 140.906 205.789C140.906 208.492 142.391 210.148 144.789 210.148ZM144.789 208.938C143.195 208.938 142.297 207.781 142.297 205.789C142.297 203.789 143.195 202.641 144.789 202.641C146.383 202.641 147.281 203.789 147.281 205.789C147.281 207.781 146.383 208.938 144.789 208.938ZM153.898 210.148C155.062 210.148 156.062 209.594 156.594 208.656H156.719V210H158V198.234H156.656V202.906H156.539C156.062 201.984 155.07 201.43 153.898 201.43C151.758 201.43 150.359 203.148 150.359 205.789C150.359 208.438 151.742 210.148 153.898 210.148ZM154.211 202.641C155.734 202.641 156.688 203.859 156.688 205.789C156.688 207.734 155.742 208.938 154.211 208.938C152.672 208.938 151.75 207.758 151.75 205.789C151.75 203.828 152.68 202.641 154.211 202.641ZM161.719 210.078C162.281 210.078 162.734 209.617 162.734 209.062C162.734 208.5 162.281 208.047 161.719 208.047C161.164 208.047 160.703 208.5 160.703 209.062C160.703 209.617 161.164 210.078 161.719 210.078Z" fill="#4F566B"/>
<rect x="30" y="142" width="388" height="76" stroke="white" stroke-width="4"/>
<path d="M28 28H52V52H28V28Z" fill="white"/>
<path fill-rule="evenodd" clip-rule="evenodd" d="M40 52C33.3726 52 28 46.6274 28 40C28 33.3726 33.3726 28 40 28C46.6274 28 52 33.3726 52 40C52 46.6274 46.6274 52 40 52ZM42.1213 40L45.5607 43.4393C46.1464 44.0251 46.1464 44.9749 45.5607 45.5607C44.9749 46.1464 44.0251 46.1464 43.4393 45.5607L40 42.1213L36.5607 45.5607C35.9749 46.1464 35.0251 46.1464 34.4393 45.5607C33.8536 44.9749 33.8536 44.0251 34.4393 43.4393L37.8787 40L34.4393 36.5607C33.8536 35.9749 33.8536 35.0251 34.4393 34.4393C35.0251 33.8536 35.9749 33.8536 36.5607 34.4393L40 37.8787L43.4393 34.4393C44.0251 33.8536 44.9749 33.8536 45.5607 34.4393C46.1464 35.0251 46.1464 35.9749 45.5607 36.5607L42.1213 40Z" fill="#ED5F74"/>
<rect x="30" y="90" width="124" height="28" fill="white"/>
<path d="M33.3672 98.7266V110H35.7266V106.445H37.9531C40.3281 106.445 41.9766 104.898 41.9766 102.602C41.9766 100.273 40.3906 98.7266 38.0703 98.7266H33.3672ZM35.7266 100.602H37.4453C38.8047 100.602 39.5781 101.297 39.5781 102.609C39.5781 103.891 38.7891 104.594 37.4375 104.594H35.7266V100.602ZM45.9688 110.133C47.0859 110.133 48.0234 109.656 48.4688 108.859H48.6094V110H50.8125V104.125C50.8125 102.289 49.5234 101.211 47.2422 101.211C45.0781 101.211 43.6172 102.203 43.4688 103.781H45.5625C45.75 103.242 46.2969 102.953 47.1172 102.953C48.0547 102.953 48.5703 103.383 48.5703 104.125V104.836L46.4844 104.961C44.3438 105.086 43.1484 105.992 43.1484 107.547C43.1484 109.117 44.3125 110.133 45.9688 110.133ZM46.7188 108.469C45.9297 108.469 45.375 108.07 45.375 107.406C45.375 106.773 45.8516 106.406 46.8281 106.344L48.5703 106.227V106.867C48.5703 107.773 47.7734 108.469 46.7188 108.469ZM53.8828 113.125C56.0312 113.125 57.0859 112.359 57.8203 110.164L60.7891 101.398H58.3828L56.5703 107.961H56.4297L54.6172 101.398H52.1094L55.1328 110.047L55.0547 110.375C54.8672 111.07 54.3828 111.352 53.5312 111.352C53.4375 111.352 53.0938 111.344 53.0156 111.328V113.102C53.1094 113.117 53.7969 113.125 53.8828 113.125ZM62.375 110H64.6484V104.812C64.6484 103.828 65.2812 103.109 66.1719 103.109C67.0625 103.109 67.5938 103.641 67.5938 104.562V110H69.7812V104.711C69.7812 103.781 70.375 103.109 71.2969 103.109C72.2578 103.109 72.7344 103.625 72.7344 104.664V110H75.0078V104.094C75.0078 102.32 73.9375 101.211 72.2188 101.211C71.0156 101.211 70.0234 101.844 69.625 102.797H69.4844C69.1406 101.812 68.3125 101.211 67.1016 101.211C65.9688 101.211 65.0703 101.812 64.7188 102.797H64.5781V101.398H62.375V110ZM82.7891 107.57C82.5469 108.156 81.9297 108.484 81.0312 108.484C79.8438 108.484 79.0938 107.664 79.0625 106.352V106.234H84.9766V105.555C84.9766 102.836 83.4766 101.211 80.9375 101.211C78.375 101.211 76.7969 102.945 76.7969 105.742C76.7969 108.523 78.3438 110.18 80.9688 110.18C83.0781 110.18 84.5703 109.172 84.9062 107.57H82.7891ZM80.9453 102.906C82.0078 102.906 82.6953 103.641 82.7422 104.82H79.0703C79.1484 103.664 79.8906 102.906 80.9453 102.906ZM86.8438 110H89.1172V105.023C89.1172 103.859 89.7656 103.109 90.8203 103.109C91.8984 103.109 92.4062 103.742 92.4062 104.953V110H94.6797V104.438C94.6797 102.383 93.6484 101.211 91.7344 101.211C90.4609 101.211 89.5859 101.812 89.1875 102.781H89.0469V101.398H86.8438V110ZM97.5391 99.3438V101.477H96.1953V103.203H97.5391V107.68C97.5391 109.352 98.3672 110.031 100.461 110.031C100.898 110.031 101.32 109.984 101.602 109.93V108.25C101.383 108.273 101.227 108.289 100.93 108.289C100.156 108.289 99.8125 107.93 99.8125 107.156V103.203H101.602V101.477H99.8125V99.3438H97.5391ZM108.289 110H110.562V103.203H112.344V101.477H110.516V100.75C110.516 100 110.844 99.6328 111.734 99.6328C112.031 99.6328 112.266 99.6562 112.414 99.6797V98.1094C112.086 98.0625 111.703 98.0234 111.242 98.0234C109.164 98.0234 108.289 98.8828 108.289 100.594V101.477H106.898V103.203H108.289V110ZM116.234 110.133C117.352 110.133 118.289 109.656 118.734 108.859H118.875V110H121.078V104.125C121.078 102.289 119.789 101.211 117.508 101.211C115.344 101.211 113.883 102.203 113.734 103.781H115.828C116.016 103.242 116.562 102.953 117.383 102.953C118.32 102.953 118.836 103.383 118.836 104.125V104.836L116.75 104.961C114.609 105.086 113.414 105.992 113.414 107.547C113.414 109.117 114.578 110.133 116.234 110.133ZM116.984 108.469C116.195 108.469 115.641 108.07 115.641 107.406C115.641 106.773 116.117 106.406 117.094 106.344L118.836 106.227V106.867C118.836 107.773 118.039 108.469 116.984 108.469ZM124.469 100.078C125.172 100.078 125.75 99.5156 125.75 98.8125C125.75 98.1016 125.172 97.5391 124.469 97.5391C123.766 97.5391 123.18 98.1016 123.18 98.8125C123.18 99.5156 123.766 100.078 124.469 100.078ZM123.328 110H125.602V101.398H123.328V110ZM127.984 110H130.258V98.1094H127.984V110ZM138.195 107.57C137.953 108.156 137.336 108.484 136.438 108.484C135.25 108.484 134.5 107.664 134.469 106.352V106.234H140.383V105.555C140.383 102.836 138.883 101.211 136.344 101.211C133.781 101.211 132.203 102.945 132.203 105.742C132.203 108.523 133.75 110.18 136.375 110.18C138.484 110.18 139.977 109.172 140.312 107.57H138.195ZM136.352 102.906C137.414 102.906 138.102 103.641 138.148 104.82H134.477C134.555 103.664 135.297 102.906 136.352 102.906ZM145.336 110.133C146.531 110.133 147.508 109.578 147.969 108.648H148.109V110H150.312V98.1094H148.039V102.773H147.906C147.461 101.82 146.5 101.258 145.336 101.258C143.172 101.258 141.828 102.953 141.828 105.688C141.828 108.43 143.164 110.133 145.336 110.133ZM146.109 103.102C147.32 103.102 148.062 104.094 148.062 105.703C148.062 107.312 147.328 108.297 146.109 108.297C144.891 108.297 144.164 107.32 144.164 105.695C144.164 104.078 144.898 103.102 146.109 103.102Z" fill="#3C4257"/>
<rect x="30" y="90" width="124" height="28" stroke="white" stroke-width="4"/>
<rect x="0.5" y="0.5" width="447" height="239" rx="7.5" stroke="#E3E8EE"/>
<defs>
<clipPath id="clip0">
<path d="M0 0H448V240H0V0Z" fill="white"/>
</clipPath>
</defs>
</svg>
