<svg width="448" height="224" viewBox="0 0 448 224" fill="none" xmlns="http://www.w3.org/2000/svg">
<g clip-path="url(#clip0)">
<path d="M0 0H448V224H0V0Z" fill="white"/>
<path d="M0 0L448 -3.91654e-05" stroke="#E3E8EE" stroke-width="2" stroke-linecap="round" stroke-linejoin="round" stroke-dasharray="0.01 16"/>
<path d="M0 16L448 16" stroke="#E3E8EE" stroke-width="2" stroke-linecap="round" stroke-linejoin="round" stroke-dasharray="0.01 16"/>
<path d="M0 32L448 32" stroke="#E3E8EE" stroke-width="2" stroke-linecap="round" stroke-linejoin="round" stroke-dasharray="0.01 16"/>
<path d="M0 48L448 48" stroke="#E3E8EE" stroke-width="2" stroke-linecap="round" stroke-linejoin="round" stroke-dasharray="0.01 16"/>
<path d="M0 64L448 64" stroke="#E3E8EE" stroke-width="2" stroke-linecap="round" stroke-linejoin="round" stroke-dasharray="0.01 16"/>
<path d="M0 80L448 80" stroke="#E3E8EE" stroke-width="2" stroke-linecap="round" stroke-linejoin="round" stroke-dasharray="0.01 16"/>
<path d="M0 96L448 96" stroke="#E3E8EE" stroke-width="2" stroke-linecap="round" stroke-linejoin="round" stroke-dasharray="0.01 16"/>
<path d="M0 112L448 112" stroke="#E3E8EE" stroke-width="2" stroke-linecap="round" stroke-linejoin="round" stroke-dasharray="0.01 16"/>
<path d="M0 128L448 128" stroke="#E3E8EE" stroke-width="2" stroke-linecap="round" stroke-linejoin="round" stroke-dasharray="0.01 16"/>
<path d="M0 144L448 144" stroke="#E3E8EE" stroke-width="2" stroke-linecap="round" stroke-linejoin="round" stroke-dasharray="0.01 16"/>
<path d="M0 160L448 160" stroke="#E3E8EE" stroke-width="2" stroke-linecap="round" stroke-linejoin="round" stroke-dasharray="0.01 16"/>
<path d="M0 176L448 176" stroke="#E3E8EE" stroke-width="2" stroke-linecap="round" stroke-linejoin="round" stroke-dasharray="0.01 16"/>
<path d="M0 192L448 192" stroke="#E3E8EE" stroke-width="2" stroke-linecap="round" stroke-linejoin="round" stroke-dasharray="0.01 16"/>
<path d="M0 208L448 208" stroke="#E3E8EE" stroke-width="2" stroke-linecap="round" stroke-linejoin="round" stroke-dasharray="0.01 16"/>
<path d="M0 224L448 224" stroke="#E3E8EE" stroke-width="2" stroke-linecap="round" stroke-linejoin="round" stroke-dasharray="0.01 16"/>
<rect x="0.5" y="0.5" width="447" height="223" stroke="white"/>
</g>
<path d="M32 148C32 145.791 33.7909 144 36 144H412C414.209 144 416 145.791 416 148V188C416 190.209 414.209 192 412 192H36C33.7909 192 32 190.209 32 188V148Z" fill="#8792A2"/>
<rect x="30" y="142" width="388" height="52" rx="6" fill="#C1C9D2" stroke="white" stroke-width="4"/>
<path d="M197.734 174.289C200.453 174.289 202.438 172.641 202.633 170.234H200.336C200.109 171.477 199.094 172.273 197.742 172.273C195.961 172.273 194.859 170.773 194.859 168.359C194.859 165.945 195.961 164.445 197.734 164.445C199.078 164.445 200.102 165.305 200.328 166.609H202.625C202.453 164.188 200.406 162.438 197.734 162.438C194.461 162.438 192.445 164.695 192.445 168.359C192.445 172.023 194.469 174.289 197.734 174.289ZM208.398 174.18C211.047 174.18 212.641 172.508 212.641 169.695C212.641 166.906 211.023 165.211 208.398 165.211C205.773 165.211 204.156 166.914 204.156 169.695C204.156 172.5 205.75 174.18 208.398 174.18ZM208.398 172.383C207.18 172.383 206.492 171.398 206.492 169.695C206.492 168.008 207.188 167.016 208.398 167.016C209.602 167.016 210.305 168.008 210.305 169.695C210.305 171.398 209.609 172.383 208.398 172.383ZM214.5 174H216.773V169.023C216.773 167.859 217.422 167.109 218.477 167.109C219.555 167.109 220.062 167.742 220.062 168.953V174H222.336V168.438C222.336 166.383 221.305 165.211 219.391 165.211C218.117 165.211 217.242 165.812 216.844 166.781H216.703V165.398H214.5V174ZM225.211 174H227.484V167.203H229.266V165.477H227.438V164.75C227.438 164 227.766 163.633 228.656 163.633C228.953 163.633 229.188 163.656 229.336 163.68V162.109C229.008 162.062 228.625 162.023 228.164 162.023C226.086 162.023 225.211 162.883 225.211 164.594V165.477H223.82V167.203H225.211V174ZM232.234 164.078C232.938 164.078 233.516 163.516 233.516 162.812C233.516 162.102 232.938 161.539 232.234 161.539C231.531 161.539 230.945 162.102 230.945 162.812C230.945 163.516 231.531 164.078 232.234 164.078ZM231.094 174H233.367V165.398H231.094V174ZM235.672 174H237.945V169.188C237.945 167.977 238.797 167.234 240.039 167.234C240.406 167.234 240.938 167.297 241.117 167.359V165.359C240.922 165.297 240.539 165.258 240.227 165.258C239.133 165.258 238.242 165.906 238.016 166.766H237.875V165.398H235.672V174ZM242.719 174H244.992V168.812C244.992 167.828 245.625 167.109 246.516 167.109C247.406 167.109 247.938 167.641 247.938 168.562V174H250.125V168.711C250.125 167.781 250.719 167.109 251.641 167.109C252.602 167.109 253.078 167.625 253.078 168.664V174H255.352V168.094C255.352 166.32 254.281 165.211 252.562 165.211C251.359 165.211 250.367 165.844 249.969 166.797H249.828C249.484 165.812 248.656 165.211 247.445 165.211C246.312 165.211 245.414 165.812 245.062 166.797H244.922V165.398H242.719V174Z" fill="white"/>
<rect x="30" y="70" width="388" height="52" fill="white"/>
<path d="M40.7656 90H42.2422L38.0859 78.7266H36.6953L32.5391 90H34.0156L35.1484 86.7734H39.6328L40.7656 90ZM37.3281 80.5469H37.4531L39.2188 85.5781H35.5625L37.3281 80.5469ZM44.0469 90H45.3906V84.7812C45.3906 83.5938 46.3203 82.7344 47.6016 82.7344C47.8672 82.7344 48.3516 82.7812 48.4609 82.8125V81.4688C48.2891 81.4453 48.0078 81.4297 47.7891 81.4297C46.6719 81.4297 45.7031 82.0078 45.4531 82.8281H45.3281V81.5781H44.0469V90ZM55.4844 87.8203C55.1328 88.5625 54.3984 88.9609 53.3125 88.9609C51.8828 88.9609 50.9531 87.9062 50.8828 86.2422V86.1797H56.9375V85.6641C56.9375 83.0469 55.5547 81.4297 53.2812 81.4297C50.9688 81.4297 49.4844 83.1484 49.4844 85.7969C49.4844 88.4609 50.9453 90.1484 53.2812 90.1484C55.125 90.1484 56.4375 89.2578 56.8281 87.8203H55.4844ZM53.2656 82.6172C54.6016 82.6172 55.4922 83.6016 55.5234 85.0938H50.8828C50.9844 83.6016 51.9219 82.6172 53.2656 82.6172ZM64.2812 93.0469C65.7734 93.0469 66.4453 92.4688 67.1641 90.5156L70.4531 81.5781H69.0234L66.7188 88.5078H66.5938L64.2812 81.5781H62.8281L65.9453 90.0078L65.7891 90.5078C65.4375 91.5234 65.0156 91.8906 64.2422 91.8906C64.0547 91.8906 63.8438 91.8828 63.6797 91.8516V93C63.8672 93.0312 64.1016 93.0469 64.2812 93.0469ZM75.3984 90.1484C77.7969 90.1484 79.2812 88.4922 79.2812 85.7891C79.2812 83.0781 77.7969 81.4297 75.3984 81.4297C73 81.4297 71.5156 83.0781 71.5156 85.7891C71.5156 88.4922 73 90.1484 75.3984 90.1484ZM75.3984 88.9375C73.8047 88.9375 72.9062 87.7812 72.9062 85.7891C72.9062 83.7891 73.8047 82.6406 75.3984 82.6406C76.9922 82.6406 77.8906 83.7891 77.8906 85.7891C77.8906 87.7812 76.9922 88.9375 75.3984 88.9375ZM88.2031 81.5781H86.8594V86.5625C86.8594 88.0391 86.0469 88.9219 84.5625 88.9219C83.2188 88.9219 82.6562 88.2188 82.6562 86.7031V81.5781H81.3125V87.0312C81.3125 89.0234 82.2969 90.1484 84.1875 90.1484C85.4766 90.1484 86.375 89.6172 86.7969 88.6797H86.9219V90H88.2031V81.5781ZM95.0547 83.8828C95.0547 85.1016 95.7734 85.7812 97.3516 86.1641L98.7969 86.5156C99.6953 86.7344 100.133 87.125 100.133 87.7031C100.133 88.4766 99.3203 89.0156 98.1875 89.0156C97.1094 89.0156 96.4375 88.5625 96.2109 87.8516H94.8281C94.9766 89.25 96.2656 90.1484 98.1406 90.1484C100.055 90.1484 101.516 89.1094 101.516 87.6016C101.516 86.3906 100.75 85.7031 99.1641 85.3203L97.8672 85.0078C96.875 84.7656 96.4062 84.4062 96.4062 83.8281C96.4062 83.0781 97.1875 82.5703 98.1875 82.5703C99.2031 82.5703 99.8594 83.0156 100.039 83.6875H101.367C101.188 82.3047 99.9609 81.4297 98.1953 81.4297C96.4062 81.4297 95.0547 82.4844 95.0547 83.8828ZM110.438 81.5781H109.094V86.5625C109.094 88.0391 108.281 88.9219 106.797 88.9219C105.453 88.9219 104.891 88.2188 104.891 86.7031V81.5781H103.547V87.0312C103.547 89.0234 104.531 90.1484 106.422 90.1484C107.711 90.1484 108.609 89.6172 109.031 88.6797H109.156V90H110.438V81.5781ZM112.969 90H114.312V84.7812C114.312 83.5938 115.242 82.7344 116.523 82.7344C116.789 82.7344 117.273 82.7812 117.383 82.8125V81.4688C117.211 81.4453 116.93 81.4297 116.711 81.4297C115.594 81.4297 114.625 82.0078 114.375 82.8281H114.25V81.5781H112.969V90ZM124.406 87.8203C124.055 88.5625 123.32 88.9609 122.234 88.9609C120.805 88.9609 119.875 87.9062 119.805 86.2422V86.1797H125.859V85.6641C125.859 83.0469 124.477 81.4297 122.203 81.4297C119.891 81.4297 118.406 83.1484 118.406 85.7969C118.406 88.4609 119.867 90.1484 122.203 90.1484C124.047 90.1484 125.359 89.2578 125.75 87.8203H124.406ZM122.188 82.6172C123.523 82.6172 124.414 83.6016 124.445 85.0938H119.805C119.906 83.6016 120.844 82.6172 122.188 82.6172ZM133.203 93.0469C134.695 93.0469 135.367 92.4688 136.086 90.5156L139.375 81.5781H137.945L135.641 88.5078H135.516L133.203 81.5781H131.75L134.867 90.0078L134.711 90.5078C134.359 91.5234 133.938 91.8906 133.164 91.8906C132.977 91.8906 132.766 91.8828 132.602 91.8516V93C132.789 93.0312 133.023 93.0469 133.203 93.0469ZM144.32 90.1484C146.719 90.1484 148.203 88.4922 148.203 85.7891C148.203 83.0781 146.719 81.4297 144.32 81.4297C141.922 81.4297 140.438 83.0781 140.438 85.7891C140.438 88.4922 141.922 90.1484 144.32 90.1484ZM144.32 88.9375C142.727 88.9375 141.828 87.7812 141.828 85.7891C141.828 83.7891 142.727 82.6406 144.32 82.6406C145.914 82.6406 146.812 83.7891 146.812 85.7891C146.812 87.7812 145.914 88.9375 144.32 88.9375ZM157.125 81.5781H155.781V86.5625C155.781 88.0391 154.969 88.9219 153.484 88.9219C152.141 88.9219 151.578 88.2188 151.578 86.7031V81.5781H150.234V87.0312C150.234 89.0234 151.219 90.1484 153.109 90.1484C154.398 90.1484 155.297 89.6172 155.719 88.6797H155.844V90H157.125V81.5781ZM174.766 81.5781H173.414L171.758 88.3125H171.633L169.75 81.5781H168.461L166.578 88.3125H166.453L164.797 81.5781H163.438L165.797 90H167.156L169.031 83.4844H169.156L171.039 90H172.406L174.766 81.5781ZM178.672 90.1484C179.797 90.1484 180.719 89.6562 181.266 88.7578H181.391V90H182.672V84.2344C182.672 82.4844 181.523 81.4297 179.469 81.4297C177.672 81.4297 176.344 82.3203 176.164 83.6719H177.523C177.711 83.0078 178.414 82.625 179.422 82.625C180.68 82.625 181.328 83.1953 181.328 84.2344V85L178.898 85.1484C176.938 85.2656 175.828 86.1328 175.828 87.6406C175.828 89.1797 177.039 90.1484 178.672 90.1484ZM178.922 88.9688C177.945 88.9688 177.219 88.4688 177.219 87.6094C177.219 86.7656 177.781 86.3203 179.062 86.2344L181.328 86.0859V86.8594C181.328 88.0625 180.305 88.9688 178.922 88.9688ZM185.156 90H186.5V85.0156C186.5 83.5391 187.367 82.6406 188.711 82.6406C190.055 82.6406 190.695 83.3594 190.695 84.875V90H192.039V84.5469C192.039 82.5469 190.984 81.4297 189.094 81.4297C187.805 81.4297 186.984 81.9766 186.562 82.9062H186.438V81.5781H185.156V90ZM195.062 79.3984V81.5781H193.703V82.7031H195.062V87.8125C195.062 89.4219 195.758 90.0625 197.492 90.0625C197.758 90.0625 198.016 90.0312 198.281 89.9844V88.8516C198.031 88.875 197.898 88.8828 197.656 88.8828C196.781 88.8828 196.406 88.4609 196.406 87.4688V82.7031H198.281V81.5781H196.406V79.3984H195.062ZM205.391 79.3984V81.5781H204.031V82.7031H205.391V87.8125C205.391 89.4219 206.086 90.0625 207.82 90.0625C208.086 90.0625 208.344 90.0312 208.609 89.9844V88.8516C208.359 88.875 208.227 88.8828 207.984 88.8828C207.109 88.8828 206.734 88.4609 206.734 87.4688V82.7031H208.609V81.5781H206.734V79.3984H205.391ZM213.977 90.1484C216.375 90.1484 217.859 88.4922 217.859 85.7891C217.859 83.0781 216.375 81.4297 213.977 81.4297C211.578 81.4297 210.094 83.0781 210.094 85.7891C210.094 88.4922 211.578 90.1484 213.977 90.1484ZM213.977 88.9375C212.383 88.9375 211.484 87.7812 211.484 85.7891C211.484 83.7891 212.383 82.6406 213.977 82.6406C215.57 82.6406 216.469 83.7891 216.469 85.7891C216.469 87.7812 215.57 88.9375 213.977 88.9375ZM228.586 81.4297C227.438 81.4297 226.43 82.0156 225.891 82.9844H225.766V81.5781H224.484V92.8125H225.828V88.7344H225.953C226.414 89.625 227.383 90.1484 228.586 90.1484C230.727 90.1484 232.125 88.4219 232.125 85.7891C232.125 83.1406 230.734 81.4297 228.586 81.4297ZM228.266 88.9375C226.75 88.9375 225.789 87.7188 225.789 85.7891C225.789 83.8516 226.75 82.6406 228.273 82.6406C229.812 82.6406 230.734 83.8203 230.734 85.7891C230.734 87.7578 229.812 88.9375 228.266 88.9375ZM236.578 90.1484C237.703 90.1484 238.625 89.6562 239.172 88.7578H239.297V90H240.578V84.2344C240.578 82.4844 239.43 81.4297 237.375 81.4297C235.578 81.4297 234.25 82.3203 234.07 83.6719H235.43C235.617 83.0078 236.32 82.625 237.328 82.625C238.586 82.625 239.234 83.1953 239.234 84.2344V85L236.805 85.1484C234.844 85.2656 233.734 86.1328 233.734 87.6406C233.734 89.1797 234.945 90.1484 236.578 90.1484ZM236.828 88.9688C235.852 88.9688 235.125 88.4688 235.125 87.6094C235.125 86.7656 235.688 86.3203 236.969 86.2344L239.234 86.0859V86.8594C239.234 88.0625 238.211 88.9688 236.828 88.9688ZM243.469 93.0469C244.961 93.0469 245.633 92.4688 246.352 90.5156L249.641 81.5781H248.211L245.906 88.5078H245.781L243.469 81.5781H242.016L245.133 90.0078L244.977 90.5078C244.625 91.5234 244.203 91.8906 243.43 91.8906C243.242 91.8906 243.031 91.8828 242.867 91.8516V93C243.055 93.0312 243.289 93.0469 243.469 93.0469ZM255.281 85.9453H256.656C257.188 88.4766 259.016 90.0156 261.539 90.0156C263.961 90.0156 265.5 88.8047 266 86.8828H264.594C264.195 87.9688 263.141 88.7109 261.547 88.7109C259.875 88.7109 258.602 87.6719 258.133 85.9453H262.672V85.0078H257.961C257.938 84.7969 257.93 84.5859 257.93 84.3594C257.93 84.125 257.945 83.8984 257.961 83.6797H262.672V82.7422H258.141C258.633 81.0469 259.898 80.0156 261.539 80.0156C263.086 80.0156 264.242 80.9219 264.594 82.1094H266C265.656 80.1641 263.922 78.7109 261.539 78.7109C259.047 78.7109 257.211 80.25 256.664 82.7422H255.281V83.6797H256.531C256.508 83.8984 256.5 84.125 256.5 84.3594C256.5 84.5781 256.508 84.7969 256.523 85.0078H255.281V85.9453ZM267.969 81.9062H269.328C269.328 80.5703 270.227 79.6875 271.578 79.6875C272.906 79.6875 273.711 80.5781 273.711 81.7734C273.711 82.7656 273.289 83.3516 271.852 84.9062L268.039 89.0312V90H275.336V88.7344H269.992V88.6094L272.555 85.9609C274.586 83.8594 275.148 82.9219 275.148 81.625C275.148 79.7969 273.641 78.4609 271.672 78.4609C269.516 78.4609 267.969 79.8984 267.969 81.9062ZM281.5 90.2656C284.031 90.2656 285.484 88.125 285.484 84.3828C285.484 80.6484 284.008 78.4609 281.5 78.4609C278.977 78.4609 277.5 80.6406 277.5 84.3594C277.5 88.1094 278.961 90.2656 281.5 90.2656ZM281.5 89.0391C279.836 89.0391 278.914 87.375 278.914 84.3594C278.914 81.3828 279.852 79.6953 281.5 79.6953C283.148 79.6953 284.07 81.3672 284.07 84.3594C284.07 87.3828 283.164 89.0391 281.5 89.0391ZM302.906 81.5781H301.555L299.898 88.3125H299.773L297.891 81.5781H296.602L294.719 88.3125H294.594L292.938 81.5781H291.578L293.938 90H295.297L297.172 83.4844H297.297L299.18 90H300.547L302.906 81.5781ZM305.406 79.9531C305.922 79.9531 306.344 79.5312 306.344 79.0156C306.344 78.5 305.922 78.0781 305.406 78.0781C304.891 78.0781 304.469 78.5 304.469 79.0156C304.469 79.5312 304.891 79.9531 305.406 79.9531ZM304.734 90H306.078V81.5781H304.734V90ZM309.203 79.3984V81.5781H307.844V82.7031H309.203V87.8125C309.203 89.4219 309.898 90.0625 311.633 90.0625C311.898 90.0625 312.156 90.0312 312.422 89.9844V88.8516C312.172 88.875 312.039 88.8828 311.797 88.8828C310.922 88.8828 310.547 88.4609 310.547 87.4688V82.7031H312.422V81.5781H310.547V79.3984H309.203ZM314.531 90H315.875V85.0156C315.875 83.5938 316.703 82.6406 318.211 82.6406C319.484 82.6406 320.156 83.3828 320.156 84.875V90H321.5V84.5469C321.5 82.5703 320.375 81.4297 318.594 81.4297C317.305 81.4297 316.422 81.9766 316 82.9062H315.875V78.2344H314.531V90ZM329.188 93.0469C330.68 93.0469 331.352 92.4688 332.07 90.5156L335.359 81.5781H333.93L331.625 88.5078H331.5L329.188 81.5781H327.734L330.852 90.0078L330.695 90.5078C330.344 91.5234 329.922 91.8906 329.148 91.8906C328.961 91.8906 328.75 91.8828 328.586 91.8516V93C328.773 93.0312 329.008 93.0469 329.188 93.0469ZM340.305 90.1484C342.703 90.1484 344.188 88.4922 344.188 85.7891C344.188 83.0781 342.703 81.4297 340.305 81.4297C337.906 81.4297 336.422 83.0781 336.422 85.7891C336.422 88.4922 337.906 90.1484 340.305 90.1484ZM340.305 88.9375C338.711 88.9375 337.812 87.7812 337.812 85.7891C337.812 83.7891 338.711 82.6406 340.305 82.6406C341.898 82.6406 342.797 83.7891 342.797 85.7891C342.797 87.7812 341.898 88.9375 340.305 88.9375ZM353.109 81.5781H351.766V86.5625C351.766 88.0391 350.953 88.9219 349.469 88.9219C348.125 88.9219 347.562 88.2188 347.562 86.7031V81.5781H346.219V87.0312C346.219 89.0234 347.203 90.1484 349.094 90.1484C350.383 90.1484 351.281 89.6172 351.703 88.6797H351.828V90H353.109V81.5781ZM355.641 90H356.984V84.7812C356.984 83.5938 357.914 82.7344 359.195 82.7344C359.461 82.7344 359.945 82.7812 360.055 82.8125V81.4688C359.883 81.4453 359.602 81.4297 359.383 81.4297C358.266 81.4297 357.297 82.0078 357.047 82.8281H356.922V81.5781H355.641V90ZM371.07 90L375.227 78.7266H373.75L370.438 88.1797H370.312L367 78.7266H365.523L369.68 90H371.07ZM377.734 79.9531C378.25 79.9531 378.672 79.5312 378.672 79.0156C378.672 78.5 378.25 78.0781 377.734 78.0781C377.219 78.0781 376.797 78.5 376.797 79.0156C376.797 79.5312 377.219 79.9531 377.734 79.9531ZM377.062 90H378.406V81.5781H377.062V90ZM380.773 83.8828C380.773 85.1016 381.492 85.7812 383.07 86.1641L384.516 86.5156C385.414 86.7344 385.852 87.125 385.852 87.7031C385.852 88.4766 385.039 89.0156 383.906 89.0156C382.828 89.0156 382.156 88.5625 381.93 87.8516H380.547C380.695 89.25 381.984 90.1484 383.859 90.1484C385.773 90.1484 387.234 89.1094 387.234 87.6016C387.234 86.3906 386.469 85.7031 384.883 85.3203L383.586 85.0078C382.594 84.7656 382.125 84.4062 382.125 83.8281C382.125 83.0781 382.906 82.5703 383.906 82.5703C384.922 82.5703 385.578 83.0156 385.758 83.6875H387.086C386.906 82.3047 385.68 81.4297 383.914 81.4297C382.125 81.4297 380.773 82.4844 380.773 83.8828ZM391.688 90.1484C392.812 90.1484 393.734 89.6562 394.281 88.7578H394.406V90H395.688V84.2344C395.688 82.4844 394.539 81.4297 392.484 81.4297C390.688 81.4297 389.359 82.3203 389.18 83.6719H390.539C390.727 83.0078 391.43 82.625 392.438 82.625C393.695 82.625 394.344 83.1953 394.344 84.2344V85L391.914 85.1484C389.953 85.2656 388.844 86.1328 388.844 87.6406C388.844 89.1797 390.055 90.1484 391.688 90.1484ZM391.938 88.9688C390.961 88.9688 390.234 88.4688 390.234 87.6094C390.234 86.7656 390.797 86.3203 392.078 86.2344L394.344 86.0859V86.8594C394.344 88.0625 393.32 88.9688 391.938 88.9688ZM40.2344 108.156C40 106.656 38.75 105.43 36.7031 105.43C34.3438 105.43 32.8438 107.133 32.8438 109.758C32.8438 112.438 34.3516 114.148 36.7109 114.148C38.7344 114.148 39.9922 113.008 40.2344 111.461H38.875C38.625 112.414 37.8359 112.938 36.7031 112.938C35.2031 112.938 34.2344 111.703 34.2344 109.758C34.2344 107.852 35.1875 106.641 36.7031 106.641C37.9141 106.641 38.6562 107.32 38.875 108.156H40.2344ZM42.2188 114H43.5625V108.781C43.5625 107.594 44.4922 106.734 45.7734 106.734C46.0391 106.734 46.5234 106.781 46.6328 106.812V105.469C46.4609 105.445 46.1797 105.43 45.9609 105.43C44.8438 105.43 43.875 106.008 43.625 106.828H43.5V105.578H42.2188V114ZM53.6562 111.82C53.3047 112.562 52.5703 112.961 51.4844 112.961C50.0547 112.961 49.125 111.906 49.0547 110.242V110.18H55.1094V109.664C55.1094 107.047 53.7266 105.43 51.4531 105.43C49.1406 105.43 47.6562 107.148 47.6562 109.797C47.6562 112.461 49.1172 114.148 51.4531 114.148C53.2969 114.148 54.6094 113.258 55 111.82H53.6562ZM51.4375 106.617C52.7734 106.617 53.6641 107.602 53.6953 109.094H49.0547C49.1562 107.602 50.0938 106.617 51.4375 106.617ZM60.3359 114.148C61.5 114.148 62.5 113.594 63.0312 112.656H63.1562V114H64.4375V102.234H63.0938V106.906H62.9766C62.5 105.984 61.5078 105.43 60.3359 105.43C58.1953 105.43 56.7969 107.148 56.7969 109.789C56.7969 112.438 58.1797 114.148 60.3359 114.148ZM60.6484 106.641C62.1719 106.641 63.125 107.859 63.125 109.789C63.125 111.734 62.1797 112.938 60.6484 112.938C59.1094 112.938 58.1875 111.758 58.1875 109.789C58.1875 107.828 59.1172 106.641 60.6484 106.641ZM67.75 103.953C68.2656 103.953 68.6875 103.531 68.6875 103.016C68.6875 102.5 68.2656 102.078 67.75 102.078C67.2344 102.078 66.8125 102.5 66.8125 103.016C66.8125 103.531 67.2344 103.953 67.75 103.953ZM67.0781 114H68.4219V105.578H67.0781V114ZM71.5469 103.398V105.578H70.1875V106.703H71.5469V111.812C71.5469 113.422 72.2422 114.062 73.9766 114.062C74.2422 114.062 74.5 114.031 74.7656 113.984V112.852C74.5156 112.875 74.3828 112.883 74.1406 112.883C73.2656 112.883 72.8906 112.461 72.8906 111.469V106.703H74.7656V105.578H72.8906V103.398H71.5469ZM88.2812 108.156C88.0469 106.656 86.7969 105.43 84.75 105.43C82.3906 105.43 80.8906 107.133 80.8906 109.758C80.8906 112.438 82.3984 114.148 84.7578 114.148C86.7812 114.148 88.0391 113.008 88.2812 111.461H86.9219C86.6719 112.414 85.8828 112.938 84.75 112.938C83.25 112.938 82.2812 111.703 82.2812 109.758C82.2812 107.852 83.2344 106.641 84.75 106.641C85.9609 106.641 86.7031 107.32 86.9219 108.156H88.2812ZM92.6094 114.148C93.7344 114.148 94.6562 113.656 95.2031 112.758H95.3281V114H96.6094V108.234C96.6094 106.484 95.4609 105.43 93.4062 105.43C91.6094 105.43 90.2812 106.32 90.1016 107.672H91.4609C91.6484 107.008 92.3516 106.625 93.3594 106.625C94.6172 106.625 95.2656 107.195 95.2656 108.234V109L92.8359 109.148C90.875 109.266 89.7656 110.133 89.7656 111.641C89.7656 113.18 90.9766 114.148 92.6094 114.148ZM92.8594 112.969C91.8828 112.969 91.1562 112.469 91.1562 111.609C91.1562 110.766 91.7188 110.32 93 110.234L95.2656 110.086V110.859C95.2656 112.062 94.2422 112.969 92.8594 112.969ZM99.0938 114H100.438V108.781C100.438 107.594 101.367 106.734 102.648 106.734C102.914 106.734 103.398 106.781 103.508 106.812V105.469C103.336 105.445 103.055 105.43 102.836 105.43C101.719 105.43 100.75 106.008 100.5 106.828H100.375V105.578H99.0938V114ZM108.07 114.148C109.234 114.148 110.234 113.594 110.766 112.656H110.891V114H112.172V102.234H110.828V106.906H110.711C110.234 105.984 109.242 105.43 108.07 105.43C105.93 105.43 104.531 107.148 104.531 109.789C104.531 112.438 105.914 114.148 108.07 114.148ZM108.383 106.641C109.906 106.641 110.859 107.859 110.859 109.789C110.859 111.734 109.914 112.938 108.383 112.938C106.844 112.938 105.922 111.758 105.922 109.789C105.922 107.828 106.852 106.641 108.383 106.641ZM124.875 111.82C124.523 112.562 123.789 112.961 122.703 112.961C121.273 112.961 120.344 111.906 120.273 110.242V110.18H126.328V109.664C126.328 107.047 124.945 105.43 122.672 105.43C120.359 105.43 118.875 107.148 118.875 109.797C118.875 112.461 120.336 114.148 122.672 114.148C124.516 114.148 125.828 113.258 126.219 111.82H124.875ZM122.656 106.617C123.992 106.617 124.883 107.602 124.914 109.094H120.273C120.375 107.602 121.312 106.617 122.656 106.617ZM128.438 114H129.781V109.016C129.781 107.539 130.648 106.641 131.992 106.641C133.336 106.641 133.977 107.359 133.977 108.875V114H135.32V108.547C135.32 106.547 134.266 105.43 132.375 105.43C131.086 105.43 130.266 105.977 129.844 106.906H129.719V105.578H128.438V114ZM140.898 114.148C142.062 114.148 143.062 113.594 143.594 112.656H143.719V114H145V102.234H143.656V106.906H143.539C143.062 105.984 142.07 105.43 140.898 105.43C138.758 105.43 137.359 107.148 137.359 109.789C137.359 112.438 138.742 114.148 140.898 114.148ZM141.211 106.641C142.734 106.641 143.688 107.859 143.688 109.789C143.688 111.734 142.742 112.938 141.211 112.938C139.672 112.938 138.75 111.758 138.75 109.789C138.75 107.828 139.68 106.641 141.211 106.641ZM148.312 103.953C148.828 103.953 149.25 103.531 149.25 103.016C149.25 102.5 148.828 102.078 148.312 102.078C147.797 102.078 147.375 102.5 147.375 103.016C147.375 103.531 147.797 103.953 148.312 103.953ZM147.641 114H148.984V105.578H147.641V114ZM151.547 114H152.891V109.016C152.891 107.539 153.758 106.641 155.102 106.641C156.445 106.641 157.086 107.359 157.086 108.875V114H158.43V108.547C158.43 106.547 157.375 105.43 155.484 105.43C154.195 105.43 153.375 105.977 152.953 106.906H152.828V105.578H151.547V114ZM164.359 117.234C166.656 117.234 168.109 116.031 168.109 114.148V105.578H166.828V106.914H166.703C166.219 106.008 165.18 105.43 164 105.43C161.836 105.43 160.469 107.141 160.469 109.664C160.469 112.188 161.82 113.875 164 113.875C165.156 113.875 166.109 113.352 166.641 112.422H166.766V114.078C166.766 115.32 165.867 116.062 164.359 116.062C163.148 116.062 162.398 115.617 162.25 114.93H160.828C161.031 116.32 162.328 117.234 164.359 117.234ZM164.297 112.688C162.734 112.688 161.859 111.5 161.859 109.664C161.859 107.828 162.734 106.641 164.297 106.641C165.852 106.641 166.797 107.828 166.797 109.664C166.797 111.5 165.859 112.688 164.297 112.688ZM177.562 111.531C178.633 111.531 179.461 110.703 179.461 109.633C179.461 108.562 178.633 107.734 177.562 107.734C176.492 107.734 175.664 108.562 175.664 109.633C175.664 110.703 176.492 111.531 177.562 111.531ZM184.906 111.531C185.977 111.531 186.805 110.703 186.805 109.633C186.805 108.562 185.977 107.734 184.906 107.734C183.836 107.734 183.008 108.562 183.008 109.633C183.008 110.703 183.836 111.531 184.906 111.531ZM192.25 111.531C193.32 111.531 194.148 110.703 194.148 109.633C194.148 108.562 193.32 107.734 192.25 107.734C191.18 107.734 190.352 108.562 190.352 109.633C190.352 110.703 191.18 111.531 192.25 111.531ZM199.594 111.531C200.664 111.531 201.492 110.703 201.492 109.633C201.492 108.562 200.664 107.734 199.594 107.734C198.523 107.734 197.695 108.562 197.695 109.633C197.695 110.703 198.523 111.531 199.594 111.531ZM209.672 114H211.047V111.664H212.648V110.406H211.047V102.727H209.008C207.43 105.078 205.703 107.828 204.18 110.383V111.664H209.672V114ZM205.617 110.32C206.844 108.25 208.32 105.922 209.586 104.031H209.68V110.414H205.617V110.32ZM214.75 105.906H216.109C216.109 104.57 217.008 103.688 218.359 103.688C219.688 103.688 220.492 104.578 220.492 105.773C220.492 106.766 220.07 107.352 218.633 108.906L214.82 113.031V114H222.117V112.734H216.773V112.609L219.336 109.961C221.367 107.859 221.93 106.922 221.93 105.625C221.93 103.797 220.422 102.461 218.453 102.461C216.297 102.461 214.75 103.898 214.75 105.906ZM229.406 114H230.781V111.664H232.383V110.406H230.781V102.727H228.742C227.164 105.078 225.438 107.828 223.914 110.383V111.664H229.406V114ZM225.352 110.32C226.578 108.25 228.055 105.922 229.32 104.031H229.414V110.414H225.352V110.32ZM234.484 105.906H235.844C235.844 104.57 236.742 103.688 238.094 103.688C239.422 103.688 240.227 104.578 240.227 105.773C240.227 106.766 239.805 107.352 238.367 108.906L234.555 113.031V114H241.852V112.734H236.508V112.609L239.07 109.961C241.102 107.859 241.664 106.922 241.664 105.625C241.664 103.797 240.156 102.461 238.188 102.461C236.031 102.461 234.484 103.898 234.484 105.906ZM243.594 105.672H244.93C245.016 104.555 245.766 103.859 246.945 103.859C248.109 103.859 248.859 104.57 248.859 105.539C248.859 106.375 248.508 106.867 247.602 107.422C246.531 108.062 246.031 108.766 246.039 109.797V110.516H247.406V110.008C247.406 109.188 247.688 108.75 248.68 108.164C249.68 107.562 250.312 106.695 250.312 105.469C250.312 103.859 248.969 102.641 247 102.641C244.805 102.641 243.68 103.984 243.594 105.672ZM246.828 114.141C247.461 114.141 247.906 113.688 247.906 113.055C247.906 112.414 247.461 111.961 246.828 111.961C246.195 111.961 245.742 112.414 245.742 113.055C245.742 113.688 246.195 114.141 246.828 114.141Z" fill="#4F566B"/>
<rect x="30" y="70" width="388" height="52" stroke="white" stroke-width="4"/>
<rect x="30" y="26" width="144" height="28" fill="white"/>
<path d="M38.1562 46.2891C40.875 46.2891 42.8594 44.6406 43.0547 42.2344H40.7578C40.5312 43.4766 39.5156 44.2734 38.1641 44.2734C36.3828 44.2734 35.2812 42.7734 35.2812 40.3594C35.2812 37.9453 36.3828 36.4453 38.1562 36.4453C39.5 36.4453 40.5234 37.3047 40.75 38.6094H43.0469C42.875 36.1875 40.8281 34.4375 38.1562 34.4375C34.8828 34.4375 32.8672 36.6953 32.8672 40.3594C32.8672 44.0234 34.8906 46.2891 38.1562 46.2891ZM48.8203 46.1797C51.4688 46.1797 53.0625 44.5078 53.0625 41.6953C53.0625 38.9062 51.4453 37.2109 48.8203 37.2109C46.1953 37.2109 44.5781 38.9141 44.5781 41.6953C44.5781 44.5 46.1719 46.1797 48.8203 46.1797ZM48.8203 44.3828C47.6016 44.3828 46.9141 43.3984 46.9141 41.6953C46.9141 40.0078 47.6094 39.0156 48.8203 39.0156C50.0234 39.0156 50.7266 40.0078 50.7266 41.6953C50.7266 43.3984 50.0312 44.3828 48.8203 44.3828ZM54.9219 46H57.1953V41.0234C57.1953 39.8594 57.8438 39.1094 58.8984 39.1094C59.9766 39.1094 60.4844 39.7422 60.4844 40.9531V46H62.7578V40.4375C62.7578 38.3828 61.7266 37.2109 59.8125 37.2109C58.5391 37.2109 57.6641 37.8125 57.2656 38.7812H57.125V37.3984H54.9219V46ZM65.6328 46H67.9062V39.2031H69.6875V37.4766H67.8594V36.75C67.8594 36 68.1875 35.6328 69.0781 35.6328C69.375 35.6328 69.6094 35.6562 69.7578 35.6797V34.1094C69.4297 34.0625 69.0469 34.0234 68.5859 34.0234C66.5078 34.0234 65.6328 34.8828 65.6328 36.5938V37.4766H64.2422V39.2031H65.6328V46ZM72.6562 36.0781C73.3594 36.0781 73.9375 35.5156 73.9375 34.8125C73.9375 34.1016 73.3594 33.5391 72.6562 33.5391C71.9531 33.5391 71.3672 34.1016 71.3672 34.8125C71.3672 35.5156 71.9531 36.0781 72.6562 36.0781ZM71.5156 46H73.7891V37.3984H71.5156V46ZM76.0938 46H78.3672V41.1875C78.3672 39.9766 79.2188 39.2344 80.4609 39.2344C80.8281 39.2344 81.3594 39.2969 81.5391 39.3594V37.3594C81.3438 37.2969 80.9609 37.2578 80.6484 37.2578C79.5547 37.2578 78.6641 37.9062 78.4375 38.7656H78.2969V37.3984H76.0938V46ZM83.1406 46H85.4141V40.8125C85.4141 39.8281 86.0469 39.1094 86.9375 39.1094C87.8281 39.1094 88.3594 39.6406 88.3594 40.5625V46H90.5469V40.7109C90.5469 39.7812 91.1406 39.1094 92.0625 39.1094C93.0234 39.1094 93.5 39.625 93.5 40.6641V46H95.7734V40.0938C95.7734 38.3203 94.7031 37.2109 92.9844 37.2109C91.7812 37.2109 90.7891 37.8438 90.3906 38.7969H90.25C89.9062 37.8125 89.0781 37.2109 87.8672 37.2109C86.7344 37.2109 85.8359 37.8125 85.4844 38.7969H85.3438V37.3984H83.1406V46ZM107.086 37.2578C105.898 37.2578 104.922 37.8438 104.453 38.8125H104.312V37.3984H102.109V48.8516H104.383V44.6875H104.523C104.945 45.5938 105.891 46.1328 107.125 46.1328C109.281 46.1328 110.602 44.4609 110.602 41.6953C110.602 38.9219 109.266 37.2578 107.086 37.2578ZM106.312 44.2969C105.109 44.2969 104.359 43.3125 104.359 41.7031C104.359 40.0938 105.109 39.1016 106.32 39.1016C107.531 39.1016 108.266 40.0781 108.266 41.6953C108.266 43.3203 107.539 44.2969 106.312 44.2969ZM114.812 46.1328C115.93 46.1328 116.867 45.6562 117.312 44.8594H117.453V46H119.656V40.125C119.656 38.2891 118.367 37.2109 116.086 37.2109C113.922 37.2109 112.461 38.2031 112.312 39.7812H114.406C114.594 39.2422 115.141 38.9531 115.961 38.9531C116.898 38.9531 117.414 39.3828 117.414 40.125V40.8359L115.328 40.9609C113.188 41.0859 111.992 41.9922 111.992 43.5469C111.992 45.1172 113.156 46.1328 114.812 46.1328ZM115.562 44.4688C114.773 44.4688 114.219 44.0703 114.219 43.4062C114.219 42.7734 114.695 42.4062 115.672 42.3438L117.414 42.2266V42.8672C117.414 43.7734 116.617 44.4688 115.562 44.4688ZM122.727 49.125C124.875 49.125 125.93 48.3594 126.664 46.1641L129.633 37.3984H127.227L125.414 43.9609H125.273L123.461 37.3984H120.953L123.977 46.0469L123.898 46.375C123.711 47.0703 123.227 47.3516 122.375 47.3516C122.281 47.3516 121.938 47.3438 121.859 47.3281V49.1016C121.953 49.1172 122.641 49.125 122.727 49.125ZM131.219 46H133.492V40.8125C133.492 39.8281 134.125 39.1094 135.016 39.1094C135.906 39.1094 136.438 39.6406 136.438 40.5625V46H138.625V40.7109C138.625 39.7812 139.219 39.1094 140.141 39.1094C141.102 39.1094 141.578 39.625 141.578 40.6641V46H143.852V40.0938C143.852 38.3203 142.781 37.2109 141.062 37.2109C139.859 37.2109 138.867 37.8438 138.469 38.7969H138.328C137.984 37.8125 137.156 37.2109 135.945 37.2109C134.812 37.2109 133.914 37.8125 133.562 38.7969H133.422V37.3984H131.219V46ZM151.633 43.5703C151.391 44.1562 150.773 44.4844 149.875 44.4844C148.688 44.4844 147.938 43.6641 147.906 42.3516V42.2344H153.82V41.5547C153.82 38.8359 152.32 37.2109 149.781 37.2109C147.219 37.2109 145.641 38.9453 145.641 41.7422C145.641 44.5234 147.188 46.1797 149.812 46.1797C151.922 46.1797 153.414 45.1719 153.75 43.5703H151.633ZM149.789 38.9062C150.852 38.9062 151.539 39.6406 151.586 40.8203H147.914C147.992 39.6641 148.734 38.9062 149.789 38.9062ZM155.688 46H157.961V41.0234C157.961 39.8594 158.609 39.1094 159.664 39.1094C160.742 39.1094 161.25 39.7422 161.25 40.9531V46H163.523V40.4375C163.523 38.3828 162.492 37.2109 160.578 37.2109C159.305 37.2109 158.43 37.8125 158.031 38.7812H157.891V37.3984H155.688V46ZM166.383 35.3438V37.4766H165.039V39.2031H166.383V43.6797C166.383 45.3516 167.211 46.0312 169.305 46.0312C169.742 46.0312 170.164 45.9844 170.445 45.9297V44.25C170.227 44.2734 170.07 44.2891 169.773 44.2891C169 44.2891 168.656 43.9297 168.656 43.1562V39.2031H170.445V37.4766H168.656V35.3438H166.383Z" fill="#3C4257"/>
<rect x="30" y="26" width="144" height="28" stroke="white" stroke-width="4"/>
<rect x="0.5" y="0.5" width="447" height="223" rx="7.5" stroke="#E3E8EE"/>
<defs>
<clipPath id="clip0">
<path d="M0 0H448V224H0V0Z" fill="white"/>
</clipPath>
</defs>
</svg>
