<svg xmlns="http://www.w3.org/2000/svg" xmlns:xlink="http://www.w3.org/1999/xlink" width="126" height="20" viewBox="0 0 126 20">
  <defs>
    <path id="restrictedsoon-a" d="M6,12 C2.6862915,12 0,9.3137085 0,6 C0,2.6862915 2.6862915,0 6,0 C9.3137085,0 12,2.6862915 12,6 C12,9.3137085 9.3137085,12 6,12 Z M6.75,5.5669873 L6.75,3 C6.75,2.58578644 6.41421356,2.25 6,2.25 C5.58578644,2.25 5.25,2.58578644 5.25,3 L5.25,6 C5.25,6.28272156 5.40643444,6.52890589 5.63746745,6.65671714 L7.57355716,7.77451905 C7.93227663,7.98162583 8.39096943,7.85871947 8.59807621,7.5 C8.80518299,7.14128053 8.68227663,6.68258773 8.32355716,6.47548095 L6.75,5.5669873 Z"/>
  </defs>
  <g fill="none" fill-rule="evenodd">
    <rect width="126" height="20" fill="#F8E5B9" rx="10"/>
    <path fill="#BB5504" fill-rule="nonzero" d="M10.3730469,6.69921875 L10.3730469,9.65820312 L12.2597656,9.65820312 C13.2734375,9.65820312 13.859375,9.11914062 13.859375,8.17578125 C13.859375,7.25585938 13.2382812,6.69921875 12.2246094,6.69921875 L10.3730469,6.69921875 Z M10.3730469,10.7773438 L10.3730469,14 L9.06054688,14 L9.06054688,5.54492188 L12.40625,5.54492188 C14.1113281,5.54492188 15.2070312,6.55859375 15.2070312,8.14648438 C15.2070312,9.28320312 14.5976562,10.2089844 13.5664062,10.5605469 L15.4648438,14 L13.9472656,14 L12.2246094,10.7773438 L10.3730469,10.7773438 Z M19.5488281,8.56835938 C18.6171875,8.56835938 17.9667969,9.22460938 17.8964844,10.2207031 L21.1191406,10.2207031 C21.0898438,9.21875 20.4804688,8.56835938 19.5488281,8.56835938 Z M21.1132812,12.2773438 L22.3261719,12.2773438 C22.0390625,13.4199219 21.0195312,14.1230469 19.5605469,14.1230469 C17.7324219,14.1230469 16.6132812,12.8691406 16.6132812,10.8300781 C16.6132812,8.79101562 17.7558594,7.49609375 19.5546875,7.49609375 C21.3300781,7.49609375 22.4023438,8.70898438 22.4023438,10.7128906 L22.4023438,11.1523438 L17.8964844,11.1523438 L17.8964844,11.2226562 C17.9375,12.3417969 18.5878906,13.0507812 19.5957031,13.0507812 C20.3574219,13.0507812 20.8789062,12.7753906 21.1132812,12.2773438 Z M23.7675781,9.42382812 C23.7675781,8.29296875 24.8046875,7.49609375 26.2460938,7.49609375 C27.6816406,7.49609375 28.6191406,8.1640625 28.7421875,9.2890625 L27.5351562,9.2890625 C27.4179688,8.8203125 26.9609375,8.52148438 26.2460938,8.52148438 C25.5429688,8.52148438 25.0097656,8.85546875 25.0097656,9.35351562 C25.0097656,9.734375 25.3320312,9.97460938 26.0234375,10.1328125 L27.0839844,10.3789062 C28.296875,10.6601562 28.8652344,11.1816406 28.8652344,12.1191406 C28.8652344,13.3203125 27.7460938,14.1230469 26.2226562,14.1230469 C24.7050781,14.1230469 23.7148438,13.4375 23.6035156,12.3066406 L24.8632812,12.3066406 C25.0214844,12.7988281 25.4902344,13.1035156 26.2519531,13.1035156 C27.0371094,13.1035156 27.59375,12.7519531 27.59375,12.2421875 C27.59375,11.8613281 27.2949219,11.6152344 26.65625,11.4628906 L25.5429688,11.2050781 C24.3300781,10.9179688 23.7675781,10.3730469 23.7675781,9.42382812 Z M30.828125,6.03125 L32.0878906,6.03125 L32.0878906,7.6484375 L33.4707031,7.6484375 L33.4707031,8.70898438 L32.0878906,8.70898438 L32.0878906,11.9902344 C32.0878906,12.6582031 32.3632812,12.9511719 32.9902344,12.9511719 C33.1835938,12.9511719 33.2949219,12.9394531 33.4707031,12.921875 L33.4707031,13.9707031 C33.265625,14.0058594 33.03125,14.0351562 32.7851562,14.0351562 C31.3847656,14.0351562 30.828125,13.5429688 30.828125,12.3125 L30.828125,8.70898438 L29.8144531,8.70898438 L29.8144531,7.6484375 L30.828125,7.6484375 L30.828125,6.03125 Z M34.953125,14 L34.953125,7.61914062 L36.1660156,7.61914062 L36.1660156,8.59765625 L36.2597656,8.59765625 C36.4414062,7.97070312 37.1503906,7.51367188 37.9824219,7.51367188 C38.1699219,7.51367188 38.4101562,7.53125 38.5449219,7.56640625 L38.5449219,8.80859375 C38.4394531,8.7734375 38.0644531,8.73242188 37.8417969,8.73242188 C36.8867188,8.73242188 36.2128906,9.3359375 36.2128906,10.2324219 L36.2128906,14 L34.953125,14 Z M39.78125,14 L39.78125,7.61914062 L41.0351562,7.61914062 L41.0351562,14 L39.78125,14 Z M40.4082031,6.5 C39.9394531,6.5 39.59375,6.16601562 39.59375,5.73242188 C39.59375,5.29296875 39.9394531,4.95898438 40.4082031,4.95898438 C40.8769531,4.95898438 41.2226562,5.29296875 41.2226562,5.73242188 C41.2226562,6.16601562 40.8769531,6.5 40.4082031,6.5 Z M48.2890625,9.70507812 L47.0644531,9.70507812 C46.9179688,9.08398438 46.4023438,8.62109375 45.5585938,8.62109375 C44.5039062,8.62109375 43.859375,9.4296875 43.859375,10.7890625 C43.859375,12.171875 44.5097656,12.9980469 45.5585938,12.9980469 C46.3554688,12.9980469 46.9003906,12.6347656 47.0644531,11.9492188 L48.2890625,11.9492188 C48.125,13.2324219 47.140625,14.1230469 45.5644531,14.1230469 C43.7070312,14.1230469 42.5703125,12.8691406 42.5703125,10.7890625 C42.5703125,8.74414062 43.7011719,7.49609375 45.5585938,7.49609375 C47.1582031,7.49609375 48.125,8.42773438 48.2890625,9.70507812 Z M50.1699219,6.03125 L51.4296875,6.03125 L51.4296875,7.6484375 L52.8125,7.6484375 L52.8125,8.70898438 L51.4296875,8.70898438 L51.4296875,11.9902344 C51.4296875,12.6582031 51.7050781,12.9511719 52.3320312,12.9511719 C52.5253906,12.9511719 52.6367188,12.9394531 52.8125,12.921875 L52.8125,13.9707031 C52.6074219,14.0058594 52.3730469,14.0351562 52.1269531,14.0351562 C50.7265625,14.0351562 50.1699219,13.5429688 50.1699219,12.3125 L50.1699219,8.70898438 L49.15625,8.70898438 L49.15625,7.6484375 L50.1699219,7.6484375 L50.1699219,6.03125 Z M56.9140625,8.56835938 C55.9824219,8.56835938 55.3320312,9.22460938 55.2617188,10.2207031 L58.484375,10.2207031 C58.4550781,9.21875 57.8457031,8.56835938 56.9140625,8.56835938 Z M58.4785156,12.2773438 L59.6914062,12.2773438 C59.4042969,13.4199219 58.3847656,14.1230469 56.9257812,14.1230469 C55.0976562,14.1230469 53.9785156,12.8691406 53.9785156,10.8300781 C53.9785156,8.79101562 55.1210938,7.49609375 56.9199219,7.49609375 C58.6953125,7.49609375 59.7675781,8.70898438 59.7675781,10.7128906 L59.7675781,11.1523438 L55.2617188,11.1523438 L55.2617188,11.2226562 C55.3027344,12.3417969 55.953125,13.0507812 56.9609375,13.0507812 C57.7226562,13.0507812 58.2441406,12.7753906 58.4785156,12.2773438 Z M63.6113281,14.1054688 C61.9882812,14.1054688 60.9628906,12.828125 60.9628906,10.8066406 C60.9628906,8.79101562 62,7.51367188 63.6113281,7.51367188 C64.484375,7.51367188 65.2226562,7.9296875 65.5683594,8.6328125 L65.6621094,8.6328125 L65.6621094,5.12890625 L66.921875,5.12890625 L66.921875,14 L65.7148438,14 L65.7148438,12.9921875 L65.6152344,12.9921875 C65.234375,13.6894531 64.4902344,14.1054688 63.6113281,14.1054688 Z M63.96875,8.64453125 C62.9082031,8.64453125 62.2636719,9.46484375 62.2636719,10.8066406 C62.2636719,12.1601562 62.9023438,12.9746094 63.96875,12.9746094 C65.0292969,12.9746094 65.6855469,12.1484375 65.6855469,10.8125 C65.6855469,9.48242188 65.0234375,8.64453125 63.96875,8.64453125 Z M71.9433594,9.42382812 C71.9433594,8.29296875 72.9804688,7.49609375 74.421875,7.49609375 C75.8574219,7.49609375 76.7949219,8.1640625 76.9179688,9.2890625 L75.7109375,9.2890625 C75.59375,8.8203125 75.1367188,8.52148438 74.421875,8.52148438 C73.71875,8.52148438 73.1855469,8.85546875 73.1855469,9.35351562 C73.1855469,9.734375 73.5078125,9.97460938 74.1992188,10.1328125 L75.2597656,10.3789062 C76.4726562,10.6601562 77.0410156,11.1816406 77.0410156,12.1191406 C77.0410156,13.3203125 75.921875,14.1230469 74.3984375,14.1230469 C72.8808594,14.1230469 71.890625,13.4375 71.7792969,12.3066406 L73.0390625,12.3066406 C73.1972656,12.7988281 73.6660156,13.1035156 74.4277344,13.1035156 C75.2128906,13.1035156 75.7695312,12.7519531 75.7695312,12.2421875 C75.7695312,11.8613281 75.4707031,11.6152344 74.8320312,11.4628906 L73.71875,11.2050781 C72.5058594,10.9179688 71.9433594,10.3730469 71.9433594,9.42382812 Z M81.2539062,14.1230469 C79.3847656,14.1230469 78.2421875,12.875 78.2421875,10.8066406 C78.2421875,8.75 79.390625,7.49609375 81.2539062,7.49609375 C83.1113281,7.49609375 84.2597656,8.75 84.2597656,10.8066406 C84.2597656,12.875 83.1171875,14.1230469 81.2539062,14.1230469 Z M81.2539062,13.0039062 C82.34375,13.0039062 82.9648438,12.1953125 82.9648438,10.8066406 C82.9648438,9.42382812 82.34375,8.61523438 81.2539062,8.61523438 C80.1582031,8.61523438 79.5429688,9.42382812 79.5429688,10.8066406 C79.5429688,12.2011719 80.1582031,13.0039062 81.2539062,13.0039062 Z M88.4667969,14.1230469 C86.5976562,14.1230469 85.4550781,12.875 85.4550781,10.8066406 C85.4550781,8.75 86.6035156,7.49609375 88.4667969,7.49609375 C90.3242188,7.49609375 91.4726562,8.75 91.4726562,10.8066406 C91.4726562,12.875 90.3300781,14.1230469 88.4667969,14.1230469 Z M88.4667969,13.0039062 C89.5566406,13.0039062 90.1777344,12.1953125 90.1777344,10.8066406 C90.1777344,9.42382812 89.5566406,8.61523438 88.4667969,8.61523438 C87.3710938,8.61523438 86.7558594,9.42382812 86.7558594,10.8066406 C86.7558594,12.2011719 87.3710938,13.0039062 88.4667969,13.0039062 Z M92.984375,14 L92.984375,7.61914062 L94.1972656,7.61914062 L94.1972656,8.6328125 L94.2910156,8.6328125 C94.6015625,7.92382812 95.234375,7.49609375 96.1953125,7.49609375 C97.6191406,7.49609375 98.4042969,8.3515625 98.4042969,9.86914062 L98.4042969,14 L97.1445312,14 L97.1445312,10.1855469 C97.1445312,9.16015625 96.6992188,8.65039062 95.7675781,8.65039062 C94.8359375,8.65039062 94.2441406,9.27148438 94.2441406,10.2675781 L94.2441406,14 L92.984375,14 Z"/>
    <g transform="translate(106 4)">
      <mask id="restrictedsoon-b" fill="#fff">
        <use xlink:href="#restrictedsoon-a"/>
      </mask>
      <use fill="#000" xlink:href="#restrictedsoon-a"/>
      <g fill="#D97917" mask="url(#restrictedsoon-b)">
        <rect width="12" height="12"/>
      </g>
    </g>
  </g>
</svg>
