<svg width="736" height="464" viewBox="0 0 736 464" fill="none" xmlns="http://www.w3.org/2000/svg">
<g clip-path="url(#clip0)">
<path d="M0 0H736V464H0V0Z" fill="white"/>
<path d="M0 0L736 -6.43432e-05" stroke="#E3E8EE" stroke-width="2" stroke-linecap="round" stroke-linejoin="round" stroke-dasharray="0.01 16"/>
<path d="M0 16L736 15.9999" stroke="#E3E8EE" stroke-width="2" stroke-linecap="round" stroke-linejoin="round" stroke-dasharray="0.01 16"/>
<path d="M0 32L736 31.9999" stroke="#E3E8EE" stroke-width="2" stroke-linecap="round" stroke-linejoin="round" stroke-dasharray="0.01 16"/>
<path d="M0 48L736 47.9999" stroke="#E3E8EE" stroke-width="2" stroke-linecap="round" stroke-linejoin="round" stroke-dasharray="0.01 16"/>
<path d="M0 64L736 63.9999" stroke="#E3E8EE" stroke-width="2" stroke-linecap="round" stroke-linejoin="round" stroke-dasharray="0.01 16"/>
<path d="M0 80L736 79.9999" stroke="#E3E8EE" stroke-width="2" stroke-linecap="round" stroke-linejoin="round" stroke-dasharray="0.01 16"/>
<path d="M0 96L736 95.9999" stroke="#E3E8EE" stroke-width="2" stroke-linecap="round" stroke-linejoin="round" stroke-dasharray="0.01 16"/>
<path d="M0 112L736 112" stroke="#E3E8EE" stroke-width="2" stroke-linecap="round" stroke-linejoin="round" stroke-dasharray="0.01 16"/>
<path d="M0 128L736 128" stroke="#E3E8EE" stroke-width="2" stroke-linecap="round" stroke-linejoin="round" stroke-dasharray="0.01 16"/>
<path d="M0 144L736 144" stroke="#E3E8EE" stroke-width="2" stroke-linecap="round" stroke-linejoin="round" stroke-dasharray="0.01 16"/>
<path d="M0 160L736 160" stroke="#E3E8EE" stroke-width="2" stroke-linecap="round" stroke-linejoin="round" stroke-dasharray="0.01 16"/>
<path d="M0 176L736 176" stroke="#E3E8EE" stroke-width="2" stroke-linecap="round" stroke-linejoin="round" stroke-dasharray="0.01 16"/>
<path d="M0 192L736 192" stroke="#E3E8EE" stroke-width="2" stroke-linecap="round" stroke-linejoin="round" stroke-dasharray="0.01 16"/>
<path d="M0 208L736 208" stroke="#E3E8EE" stroke-width="2" stroke-linecap="round" stroke-linejoin="round" stroke-dasharray="0.01 16"/>
<path d="M0 224L736 224" stroke="#E3E8EE" stroke-width="2" stroke-linecap="round" stroke-linejoin="round" stroke-dasharray="0.01 16"/>
<path d="M0 240L736 240" stroke="#E3E8EE" stroke-width="2" stroke-linecap="round" stroke-linejoin="round" stroke-dasharray="0.01 16"/>
<path d="M0 256L736 256" stroke="#E3E8EE" stroke-width="2" stroke-linecap="round" stroke-linejoin="round" stroke-dasharray="0.01 16"/>
<path d="M0 272L736 272" stroke="#E3E8EE" stroke-width="2" stroke-linecap="round" stroke-linejoin="round" stroke-dasharray="0.01 16"/>
<path d="M0 288L736 288" stroke="#E3E8EE" stroke-width="2" stroke-linecap="round" stroke-linejoin="round" stroke-dasharray="0.01 16"/>
<path d="M0 304L736 304" stroke="#E3E8EE" stroke-width="2" stroke-linecap="round" stroke-linejoin="round" stroke-dasharray="0.01 16"/>
<path d="M0 320L736 320" stroke="#E3E8EE" stroke-width="2" stroke-linecap="round" stroke-linejoin="round" stroke-dasharray="0.01 16"/>
<path d="M0 336L736 336" stroke="#E3E8EE" stroke-width="2" stroke-linecap="round" stroke-linejoin="round" stroke-dasharray="0.01 16"/>
<path d="M0 352L736 352" stroke="#E3E8EE" stroke-width="2" stroke-linecap="round" stroke-linejoin="round" stroke-dasharray="0.01 16"/>
<path d="M0 368L736 368" stroke="#E3E8EE" stroke-width="2" stroke-linecap="round" stroke-linejoin="round" stroke-dasharray="0.01 16"/>
<path d="M0 384L736 384" stroke="#E3E8EE" stroke-width="2" stroke-linecap="round" stroke-linejoin="round" stroke-dasharray="0.01 16"/>
<path d="M0 400L736 400" stroke="#E3E8EE" stroke-width="2" stroke-linecap="round" stroke-linejoin="round" stroke-dasharray="0.01 16"/>
<path d="M0 416L736 416" stroke="#E3E8EE" stroke-width="2" stroke-linecap="round" stroke-linejoin="round" stroke-dasharray="0.01 16"/>
<path d="M0 432L736 432" stroke="#E3E8EE" stroke-width="2" stroke-linecap="round" stroke-linejoin="round" stroke-dasharray="0.01 16"/>
<path d="M0 448L736 448" stroke="#E3E8EE" stroke-width="2" stroke-linecap="round" stroke-linejoin="round" stroke-dasharray="0.01 16"/>
<path d="M0 464L736 464" stroke="#E3E8EE" stroke-width="2" stroke-linecap="round" stroke-linejoin="round" stroke-dasharray="0.01 16"/>
<rect x="0.5" y="0.5" width="735" height="463" stroke="white"/>
</g>
<path d="M32 48C32 39.1635 39.1634 32 48 32H232C240.837 32 248 39.1634 248 48V416C248 424.837 240.837 432 232 432H48C39.1634 432 32 424.837 32 416V48Z" fill="#F7FAFC"/>
<rect x="27" y="27" width="226" height="410" rx="21" stroke="white" stroke-width="10"/>
<path d="M264 48C264 39.1635 271.163 32 280 32H456C464.837 32 472 39.1634 472 48V416C472 424.837 464.837 432 456 432H280C271.163 432 264 424.837 264 416V48Z" fill="#F7FAFC"/>
<rect x="259" y="27" width="218" height="410" rx="21" stroke="white" stroke-width="10"/>
<path d="M488 48C488 39.1635 495.163 32 504 32H688C696.837 32 704 39.1634 704 48V416C704 424.837 696.837 432 688 432H504C495.163 432 488 424.837 488 416V48Z" fill="#F7FAFC"/>
<rect x="483" y="27" width="226" height="410" rx="21" stroke="white" stroke-width="10"/>
<rect x="106" y="52" width="68" height="24" fill="#F7FAFC"/>
<path d="M111.351 69V65.1172H115.363V63.4834H111.351V60.8379H115.746V59.1357H109.286V69H111.351ZM117.455 69H119.444V64.7891C119.444 63.7295 120.189 63.0801 121.276 63.0801C121.598 63.0801 122.062 63.1348 122.22 63.1895V61.4395C122.049 61.3848 121.714 61.3506 121.44 61.3506C120.483 61.3506 119.704 61.918 119.506 62.6699H119.383V61.4736H117.455V69ZM126.718 69.1572C129.035 69.1572 130.43 67.6943 130.43 65.2334C130.43 62.793 129.015 61.3096 126.718 61.3096C124.421 61.3096 123.006 62.7998 123.006 65.2334C123.006 67.6875 124.4 69.1572 126.718 69.1572ZM126.718 67.585C125.651 67.585 125.05 66.7236 125.05 65.2334C125.05 63.7568 125.658 62.8887 126.718 62.8887C127.771 62.8887 128.386 63.7568 128.386 65.2334C128.386 66.7236 127.777 67.585 126.718 67.585ZM132.057 69H134.046V64.6455C134.046 63.627 134.613 62.9707 135.536 62.9707C136.479 62.9707 136.924 63.5244 136.924 64.584V69H138.913V64.1328C138.913 62.335 138.011 61.3096 136.336 61.3096C135.222 61.3096 134.456 61.8359 134.107 62.6836H133.984V61.4736H132.057V69ZM141.415 59.6758V61.542H140.239V63.0527H141.415V66.9697C141.415 68.4326 142.14 69.0273 143.972 69.0273C144.354 69.0273 144.724 68.9863 144.97 68.9385V67.4688C144.778 67.4893 144.642 67.5029 144.382 67.5029C143.705 67.5029 143.404 67.1885 143.404 66.5117V63.0527H144.97V61.542H143.404V59.6758H141.415ZM151.45 66.874C151.238 67.3867 150.698 67.6738 149.912 67.6738C148.873 67.6738 148.217 66.9561 148.189 65.8076V65.7051H153.364V65.1104C153.364 62.7314 152.052 61.3096 149.83 61.3096C147.588 61.3096 146.207 62.8271 146.207 65.2744C146.207 67.708 147.561 69.1572 149.857 69.1572C151.703 69.1572 153.009 68.2754 153.303 66.874H151.45ZM149.837 62.793C150.767 62.793 151.368 63.4355 151.409 64.4678H148.196C148.265 63.4561 148.914 62.793 149.837 62.793ZM154.998 69H156.987V64.6455C156.987 63.627 157.555 62.9707 158.478 62.9707C159.421 62.9707 159.865 63.5244 159.865 64.584V69H161.854V64.1328C161.854 62.335 160.952 61.3096 159.277 61.3096C158.163 61.3096 157.397 61.8359 157.049 62.6836H156.926V61.4736H154.998V69ZM166.489 69.1162C167.535 69.1162 168.39 68.6309 168.793 67.8174H168.916V69H170.844V58.5957H168.854V62.6768H168.738C168.349 61.8428 167.508 61.3506 166.489 61.3506C164.596 61.3506 163.42 62.834 163.42 65.2266C163.42 67.626 164.589 69.1162 166.489 69.1162ZM167.166 62.9639C168.226 62.9639 168.875 63.832 168.875 65.2402C168.875 66.6484 168.232 67.5098 167.166 67.5098C166.1 67.5098 165.464 66.6553 165.464 65.2334C165.464 63.8184 166.106 62.9639 167.166 62.9639Z" fill="#2A2F45"/>
<rect x="106" y="52" width="68" height="24" stroke="#F7FAFC" stroke-width="4"/>
<rect x="335" y="52" width="65" height="24" fill="#F7FAFC"/>
<path d="M342.877 69C344.982 69 346.288 67.9131 346.288 66.1768C346.288 64.9053 345.338 63.9277 344.032 63.8252V63.7021C345.044 63.5518 345.816 62.6426 345.816 61.5967C345.816 60.0723 344.675 59.1357 342.761 59.1357H338.447V69H342.877ZM340.512 60.667H342.234C343.219 60.667 343.786 61.1455 343.786 61.9521C343.786 62.7725 343.178 63.2373 342.063 63.2373H340.512V60.667ZM340.512 67.4619V64.5977H342.303C343.52 64.5977 344.183 65.0898 344.183 66.0127C344.183 66.9561 343.54 67.4619 342.351 67.4619H340.512ZM350.021 69.1162C350.998 69.1162 351.818 68.6992 352.208 68.002H352.331V69H354.259V63.8594C354.259 62.2529 353.131 61.3096 351.135 61.3096C349.241 61.3096 347.963 62.1777 347.833 63.5586H349.665C349.829 63.0869 350.308 62.834 351.025 62.834C351.846 62.834 352.297 63.21 352.297 63.8594V64.4814L350.472 64.5908C348.599 64.7002 347.553 65.4932 347.553 66.8535C347.553 68.2275 348.571 69.1162 350.021 69.1162ZM350.677 67.6602C349.986 67.6602 349.501 67.3115 349.501 66.7305C349.501 66.1768 349.918 65.8555 350.772 65.8008L352.297 65.6982V66.2588C352.297 67.0518 351.6 67.6602 350.677 67.6602ZM362.886 64.0986C362.722 62.417 361.525 61.3096 359.529 61.3096C357.171 61.3096 355.845 62.7383 355.845 65.2197C355.845 67.7285 357.178 69.1572 359.529 69.1572C361.491 69.1572 362.722 68.0771 362.886 66.4229H361.026C360.876 67.1748 360.343 67.5781 359.529 67.5781C358.463 67.5781 357.854 66.7373 357.854 65.2197C357.854 63.7227 358.456 62.8955 359.529 62.8955C360.377 62.8955 360.89 63.374 361.026 64.0986H362.886ZM366.625 64.4473H366.502V58.5957H364.513V69H366.502V66.4707L367.049 65.9033L369.25 69H371.608L368.539 64.7002L371.41 61.4736H369.147L366.625 64.4473ZM377.289 66.874C377.077 67.3867 376.537 67.6738 375.751 67.6738C374.712 67.6738 374.056 66.9561 374.028 65.8076V65.7051H379.203V65.1104C379.203 62.7314 377.891 61.3096 375.669 61.3096C373.427 61.3096 372.046 62.8271 372.046 65.2744C372.046 67.708 373.399 69.1572 375.696 69.1572C377.542 69.1572 378.848 68.2754 379.142 66.874H377.289ZM375.676 62.793C376.605 62.793 377.207 63.4355 377.248 64.4678H374.035C374.104 63.4561 374.753 62.793 375.676 62.793ZM380.837 69H382.826V64.6455C382.826 63.627 383.394 62.9707 384.316 62.9707C385.26 62.9707 385.704 63.5244 385.704 64.584V69H387.693V64.1328C387.693 62.335 386.791 61.3096 385.116 61.3096C384.002 61.3096 383.236 61.8359 382.888 62.6836H382.765V61.4736H380.837V69ZM392.328 69.1162C393.374 69.1162 394.229 68.6309 394.632 67.8174H394.755V69H396.683V58.5957H394.693V62.6768H394.577C394.188 61.8428 393.347 61.3506 392.328 61.3506C390.435 61.3506 389.259 62.834 389.259 65.2266C389.259 67.626 390.428 69.1162 392.328 69.1162ZM393.005 62.9639C394.064 62.9639 394.714 63.832 394.714 65.2402C394.714 66.6484 394.071 67.5098 393.005 67.5098C391.938 67.5098 391.303 66.6553 391.303 65.2334C391.303 63.8184 391.945 62.9639 393.005 62.9639Z" fill="#2A2F45"/>
<rect x="335" y="52" width="65" height="24" stroke="#F7FAFC" stroke-width="4"/>
<rect x="558" y="52" width="75" height="24" fill="#F7FAFC"/>
<path d="M560.958 66.2725C561.033 68.0977 562.558 69.2529 564.909 69.2529C567.384 69.2529 568.908 68.0361 568.908 66.0674C568.908 64.543 568.054 63.6885 566.071 63.2646L564.882 63.0117C563.727 62.7588 563.255 62.3965 563.255 61.7744C563.255 61.002 563.938 60.5029 564.971 60.5029C565.969 60.5029 566.693 61.0293 566.789 61.8359H568.73C568.669 60.0928 567.131 58.8828 564.957 58.8828C562.681 58.8828 561.184 60.0996 561.184 61.9385C561.184 63.4355 562.065 64.3584 563.863 64.7412L565.148 65.0215C566.358 65.2881 566.851 65.6641 566.851 66.3135C566.851 67.0791 566.092 67.6191 565.019 67.6191C563.856 67.6191 563.05 67.0928 562.954 66.2725H560.958ZM571.232 59.6758V61.542H570.057V63.0527H571.232V66.9697C571.232 68.4326 571.957 69.0273 573.789 69.0273C574.172 69.0273 574.541 68.9863 574.787 68.9385V67.4688C574.596 67.4893 574.459 67.5029 574.199 67.5029C573.522 67.5029 573.222 67.1885 573.222 66.5117V63.0527H574.787V61.542H573.222V59.6758H571.232ZM576.448 69H578.438V64.7891C578.438 63.7295 579.183 63.0801 580.27 63.0801C580.591 63.0801 581.056 63.1348 581.213 63.1895V61.4395C581.042 61.3848 580.707 61.3506 580.434 61.3506C579.477 61.3506 578.697 61.918 578.499 62.6699H578.376V61.4736H576.448V69ZM583.558 60.3184C584.173 60.3184 584.679 59.8262 584.679 59.2109C584.679 58.5889 584.173 58.0967 583.558 58.0967C582.942 58.0967 582.43 58.5889 582.43 59.2109C582.43 59.8262 582.942 60.3184 583.558 60.3184ZM582.56 69H584.549V61.4736H582.56V69ZM590.92 61.3506C589.881 61.3506 589.026 61.8633 588.616 62.7109H588.493V61.4736H586.565V71.4951H588.555V67.8516H588.678C589.047 68.6445 589.874 69.1162 590.954 69.1162C592.841 69.1162 593.996 67.6533 593.996 65.2334C593.996 62.8066 592.827 61.3506 590.92 61.3506ZM590.243 67.5098C589.19 67.5098 588.534 66.6484 588.534 65.2402C588.534 63.832 589.19 62.9639 590.25 62.9639C591.31 62.9639 591.952 63.8184 591.952 65.2334C591.952 66.6553 591.316 67.5098 590.243 67.5098ZM600.49 66.874C600.278 67.3867 599.738 67.6738 598.952 67.6738C597.913 67.6738 597.257 66.9561 597.229 65.8076V65.7051H602.404V65.1104C602.404 62.7314 601.092 61.3096 598.87 61.3096C596.628 61.3096 595.247 62.8271 595.247 65.2744C595.247 67.708 596.601 69.1572 598.897 69.1572C600.743 69.1572 602.049 68.2754 602.343 66.874H600.49ZM598.877 62.793C599.807 62.793 600.408 63.4355 600.449 64.4678H597.236C597.305 63.4561 597.954 62.793 598.877 62.793ZM614.183 69H616.418L612.993 59.1357H610.566L607.142 69H609.213L609.972 66.6074H613.438L614.183 69ZM611.653 61.1387H611.776L613 65.0625H610.416L611.653 61.1387ZM618.1 59.1357V69H620.164V65.8896H622.112C624.19 65.8896 625.633 64.5361 625.633 62.5264C625.633 60.4893 624.245 59.1357 622.215 59.1357H618.1ZM620.164 60.7764H621.668C622.857 60.7764 623.534 61.3848 623.534 62.5332C623.534 63.6543 622.844 64.2695 621.661 64.2695H620.164V60.7764ZM629.598 69V59.1357H627.533V69H629.598Z" fill="#2A2F45"/>
<rect x="558" y="52" width="75" height="24" stroke="#F7FAFC" stroke-width="4"/>
<path d="M504 104C504 99.5817 507.582 96 512 96H680C684.418 96 688 99.5817 688 104V136C688 140.418 684.418 144 680 144H512C507.582 144 504 140.418 504 136V104Z" fill="#D6ECFF"/>
<path d="M542.902 121.791C543.014 123.25 544.25 124.199 546.043 124.199C547.977 124.199 549.201 123.209 549.201 121.656C549.201 120.414 548.498 119.734 546.746 119.295L545.861 119.061C544.695 118.762 544.232 118.381 544.232 117.719C544.232 116.863 544.977 116.301 546.102 116.301C547.156 116.301 547.871 116.816 548.018 117.684H549.078C548.99 116.318 547.771 115.346 546.137 115.346C544.35 115.346 543.148 116.318 543.148 117.754C543.148 118.955 543.811 119.646 545.34 120.033L546.424 120.314C547.59 120.607 548.117 121.064 548.117 121.785C548.117 122.623 547.279 123.238 546.143 123.238C544.941 123.238 544.098 122.676 543.969 121.791H542.902ZM555.014 122.365C554.75 122.922 554.199 123.221 553.385 123.221C552.312 123.221 551.615 122.43 551.562 121.182V121.135H556.104V120.748C556.104 118.785 555.066 117.572 553.361 117.572C551.627 117.572 550.514 118.861 550.514 120.848C550.514 122.846 551.609 124.111 553.361 124.111C554.744 124.111 555.729 123.443 556.021 122.365H555.014ZM553.35 118.463C554.352 118.463 555.02 119.201 555.043 120.32H551.562C551.639 119.201 552.342 118.463 553.35 118.463ZM558.107 116.049V117.684H557.088V118.527H558.107V122.359C558.107 123.566 558.629 124.047 559.93 124.047C560.129 124.047 560.322 124.023 560.521 123.988V123.139C560.334 123.156 560.234 123.162 560.053 123.162C559.396 123.162 559.115 122.846 559.115 122.102V118.527H560.521V117.684H559.115V116.049H558.107ZM567.154 117.684H566.146V121.422C566.146 122.529 565.537 123.191 564.424 123.191C563.416 123.191 562.994 122.664 562.994 121.527V117.684H561.986V121.773C561.986 123.268 562.725 124.111 564.143 124.111C565.109 124.111 565.783 123.713 566.1 123.01H566.193V124H567.154V117.684ZM572.129 117.572C571.268 117.572 570.512 118.012 570.107 118.738H570.014V117.684H569.053V126.109H570.061V123.051H570.154C570.5 123.719 571.227 124.111 572.129 124.111C573.734 124.111 574.783 122.816 574.783 120.842C574.783 118.855 573.74 117.572 572.129 117.572ZM571.889 123.203C570.752 123.203 570.031 122.289 570.031 120.842C570.031 119.389 570.752 118.48 571.895 118.48C573.049 118.48 573.74 119.365 573.74 120.842C573.74 122.318 573.049 123.203 571.889 123.203ZM580.279 116.465C580.666 116.465 580.982 116.148 580.982 115.762C580.982 115.375 580.666 115.059 580.279 115.059C579.893 115.059 579.576 115.375 579.576 115.762C579.576 116.148 579.893 116.465 580.279 116.465ZM579.775 124H580.783V117.684H579.775V124ZM582.559 119.412C582.559 120.326 583.098 120.836 584.281 121.123L585.365 121.387C586.039 121.551 586.367 121.844 586.367 122.277C586.367 122.857 585.758 123.262 584.908 123.262C584.1 123.262 583.596 122.922 583.426 122.389H582.389C582.5 123.438 583.467 124.111 584.873 124.111C586.309 124.111 587.404 123.332 587.404 122.201C587.404 121.293 586.83 120.777 585.641 120.49L584.668 120.256C583.924 120.074 583.572 119.805 583.572 119.371C583.572 118.809 584.158 118.428 584.908 118.428C585.67 118.428 586.162 118.762 586.297 119.266H587.293C587.158 118.229 586.238 117.572 584.914 117.572C583.572 117.572 582.559 118.363 582.559 119.412ZM594.131 124.111C594.975 124.111 595.666 123.742 596.076 123.068H596.17V124H597.131V119.676C597.131 118.363 596.27 117.572 594.729 117.572C593.381 117.572 592.385 118.24 592.25 119.254H593.27C593.41 118.756 593.938 118.469 594.693 118.469C595.637 118.469 596.123 118.896 596.123 119.676V120.25L594.301 120.361C592.83 120.449 591.998 121.1 591.998 122.23C591.998 123.385 592.906 124.111 594.131 124.111ZM594.318 123.227C593.586 123.227 593.041 122.852 593.041 122.207C593.041 121.574 593.463 121.24 594.424 121.176L596.123 121.064V121.645C596.123 122.547 595.355 123.227 594.318 123.227ZM599.416 116.049V117.684H598.396V118.527H599.416V122.359C599.416 123.566 599.938 124.047 601.238 124.047C601.438 124.047 601.631 124.023 601.83 123.988V123.139C601.643 123.156 601.543 123.162 601.361 123.162C600.705 123.162 600.424 122.846 600.424 122.102V118.527H601.83V117.684H600.424V116.049H599.416ZM603.775 116.049V117.684H602.756V118.527H603.775V122.359C603.775 123.566 604.297 124.047 605.598 124.047C605.797 124.047 605.99 124.023 606.189 123.988V123.139C606.002 123.156 605.902 123.162 605.721 123.162C605.064 123.162 604.783 122.846 604.783 122.102V118.527H606.189V117.684H604.783V116.049H603.775ZM611.803 122.365C611.539 122.922 610.988 123.221 610.174 123.221C609.102 123.221 608.404 122.43 608.352 121.182V121.135H612.893V120.748C612.893 118.785 611.855 117.572 610.15 117.572C608.416 117.572 607.303 118.861 607.303 120.848C607.303 122.846 608.398 124.111 610.15 124.111C611.533 124.111 612.518 123.443 612.811 122.365H611.803ZM610.139 118.463C611.141 118.463 611.809 119.201 611.832 120.32H608.352C608.428 119.201 609.131 118.463 610.139 118.463ZM614.475 124H615.482V120.086C615.482 119.195 616.121 118.48 616.947 118.48C617.744 118.48 618.266 118.961 618.266 119.711V124H619.273V119.939C619.273 119.137 619.859 118.48 620.738 118.48C621.629 118.48 622.068 118.938 622.068 119.869V124H623.076V119.635C623.076 118.311 622.355 117.572 621.066 117.572C620.193 117.572 619.473 118.012 619.133 118.68H619.039C618.746 118.023 618.148 117.572 617.293 117.572C616.449 117.572 615.816 117.977 615.529 118.68H615.436V117.684H614.475V124ZM627.992 117.572C627.131 117.572 626.375 118.012 625.971 118.738H625.877V117.684H624.916V126.109H625.924V123.051H626.018C626.363 123.719 627.09 124.111 627.992 124.111C629.598 124.111 630.646 122.816 630.646 120.842C630.646 118.855 629.604 117.572 627.992 117.572ZM627.752 123.203C626.615 123.203 625.895 122.289 625.895 120.842C625.895 119.389 626.615 118.48 627.758 118.48C628.912 118.48 629.604 119.365 629.604 120.842C629.604 122.318 628.912 123.203 627.752 123.203ZM632.65 116.049V117.684H631.631V118.527H632.65V122.359C632.65 123.566 633.172 124.047 634.473 124.047C634.672 124.047 634.865 124.023 635.064 123.988V123.139C634.877 123.156 634.777 123.162 634.596 123.162C633.939 123.162 633.658 122.846 633.658 122.102V118.527H635.064V117.684H633.658V116.049H632.65ZM640.678 122.365C640.414 122.922 639.863 123.221 639.049 123.221C637.977 123.221 637.279 122.43 637.227 121.182V121.135H641.768V120.748C641.768 118.785 640.73 117.572 639.025 117.572C637.291 117.572 636.178 118.861 636.178 120.848C636.178 122.846 637.273 124.111 639.025 124.111C640.408 124.111 641.393 123.443 641.686 122.365H640.678ZM639.014 118.463C640.016 118.463 640.684 119.201 640.707 120.32H637.227C637.303 119.201 638.006 118.463 639.014 118.463ZM645.688 124.111C646.561 124.111 647.311 123.695 647.709 122.992H647.803V124H648.764V115.176H647.756V118.68H647.668C647.311 117.988 646.566 117.572 645.688 117.572C644.082 117.572 643.033 118.861 643.033 120.842C643.033 122.828 644.07 124.111 645.688 124.111ZM645.922 118.48C647.064 118.48 647.779 119.395 647.779 120.842C647.779 122.301 647.07 123.203 645.922 123.203C644.768 123.203 644.076 122.318 644.076 120.842C644.076 119.371 644.773 118.48 645.922 118.48Z" fill="#2A2F45"/>
<path d="M504 264C504 259.582 507.582 256 512 256H680C684.418 256 688 259.582 688 264V320C688 324.418 684.418 328 680 328H512C507.582 328 504 324.418 504 320V264Z" fill="#D6ECFF"/>
<path d="M524.75 280.85H525.453V279.836C526.836 279.73 527.984 278.963 527.984 277.551C527.984 276.32 527.141 275.699 525.635 275.336L525.453 275.295V272.629C526.244 272.729 526.807 273.191 526.883 273.982H527.902C527.861 272.688 526.807 271.832 525.453 271.709V270.695H524.75V271.715C523.361 271.838 522.371 272.67 522.371 273.93C522.371 275.084 523.156 275.734 524.615 276.086L524.75 276.121V278.916C523.736 278.805 523.285 278.248 523.18 277.516H522.16C522.201 278.881 523.355 279.707 524.75 279.83V280.85ZM523.391 273.859C523.391 273.291 523.859 272.752 524.75 272.635V275.125C523.742 274.879 523.391 274.434 523.391 273.859ZM525.488 276.297C526.648 276.578 526.965 276.988 526.965 277.633C526.965 278.307 526.543 278.84 525.453 278.922V276.291L525.488 276.297ZM532.766 280.199C534.664 280.199 535.754 278.594 535.754 275.787C535.754 272.986 534.646 271.346 532.766 271.346C530.873 271.346 529.766 272.98 529.766 275.77C529.766 278.582 530.861 280.199 532.766 280.199ZM532.766 279.279C531.518 279.279 530.826 278.031 530.826 275.77C530.826 273.537 531.529 272.271 532.766 272.271C534.002 272.271 534.693 273.525 534.693 275.77C534.693 278.037 534.014 279.279 532.766 279.279ZM541.402 272.465C541.789 272.465 542.105 272.148 542.105 271.762C542.105 271.375 541.789 271.059 541.402 271.059C541.016 271.059 540.699 271.375 540.699 271.762C540.699 272.148 541.016 272.465 541.402 272.465ZM540.898 280H541.906V273.684H540.898V280ZM543.828 280H544.836V276.262C544.836 275.154 545.486 274.48 546.494 274.48C547.502 274.48 547.982 275.02 547.982 276.156V280H548.99V275.91C548.99 274.41 548.199 273.572 546.781 273.572C545.814 273.572 545.199 273.982 544.883 274.68H544.789V273.684H543.828V280ZM555.758 273.684H554.68L552.951 278.887H552.857L551.129 273.684H550.051L552.389 280H553.42L555.758 273.684ZM559.467 280.111C561.266 280.111 562.379 278.869 562.379 276.842C562.379 274.809 561.266 273.572 559.467 273.572C557.668 273.572 556.555 274.809 556.555 276.842C556.555 278.869 557.668 280.111 559.467 280.111ZM559.467 279.203C558.271 279.203 557.598 278.336 557.598 276.842C557.598 275.342 558.271 274.48 559.467 274.48C560.662 274.48 561.336 275.342 561.336 276.842C561.336 278.336 560.662 279.203 559.467 279.203ZM564.488 272.465C564.875 272.465 565.191 272.148 565.191 271.762C565.191 271.375 564.875 271.059 564.488 271.059C564.102 271.059 563.785 271.375 563.785 271.762C563.785 272.148 564.102 272.465 564.488 272.465ZM563.984 280H564.992V273.684H563.984V280ZM572.141 275.617C571.965 274.492 571.027 273.572 569.492 273.572C567.723 273.572 566.598 274.85 566.598 276.818C566.598 278.828 567.729 280.111 569.498 280.111C571.016 280.111 571.959 279.256 572.141 278.096H571.121C570.934 278.811 570.342 279.203 569.492 279.203C568.367 279.203 567.641 278.277 567.641 276.818C567.641 275.389 568.355 274.48 569.492 274.48C570.4 274.48 570.957 274.99 571.121 275.617H572.141ZM577.812 278.365C577.549 278.922 576.998 279.221 576.184 279.221C575.111 279.221 574.414 278.43 574.361 277.182V277.135H578.902V276.748C578.902 274.785 577.865 273.572 576.16 273.572C574.426 273.572 573.312 274.861 573.312 276.848C573.312 278.846 574.408 280.111 576.16 280.111C577.543 280.111 578.527 279.443 578.82 278.365H577.812ZM576.148 274.463C577.15 274.463 577.818 275.201 577.842 276.32H574.361C574.438 275.201 575.141 274.463 576.148 274.463ZM584.398 272.465C584.785 272.465 585.102 272.148 585.102 271.762C585.102 271.375 584.785 271.059 584.398 271.059C584.012 271.059 583.695 271.375 583.695 271.762C583.695 272.148 584.012 272.465 584.398 272.465ZM583.895 280H584.902V273.684H583.895V280ZM586.678 275.412C586.678 276.326 587.217 276.836 588.4 277.123L589.484 277.387C590.158 277.551 590.486 277.844 590.486 278.277C590.486 278.857 589.877 279.262 589.027 279.262C588.219 279.262 587.715 278.922 587.545 278.389H586.508C586.619 279.438 587.586 280.111 588.992 280.111C590.428 280.111 591.523 279.332 591.523 278.201C591.523 277.293 590.949 276.777 589.76 276.49L588.787 276.256C588.043 276.074 587.691 275.805 587.691 275.371C587.691 274.809 588.277 274.428 589.027 274.428C589.789 274.428 590.281 274.762 590.416 275.266H591.412C591.277 274.229 590.357 273.572 589.033 273.572C587.691 273.572 586.678 274.363 586.678 275.412ZM598.25 280.111C599.094 280.111 599.785 279.742 600.195 279.068H600.289V280H601.25V275.676C601.25 274.363 600.389 273.572 598.848 273.572C597.5 273.572 596.504 274.24 596.369 275.254H597.389C597.529 274.756 598.057 274.469 598.812 274.469C599.756 274.469 600.242 274.896 600.242 275.676V276.25L598.42 276.361C596.949 276.449 596.117 277.1 596.117 278.23C596.117 279.385 597.025 280.111 598.25 280.111ZM598.438 279.227C597.705 279.227 597.16 278.852 597.16 278.207C597.16 277.574 597.582 277.24 598.543 277.176L600.242 277.064V277.645C600.242 278.547 599.475 279.227 598.438 279.227ZM608.223 273.684H607.215V277.422C607.215 278.529 606.605 279.191 605.492 279.191C604.484 279.191 604.062 278.664 604.062 277.527V273.684H603.055V277.773C603.055 279.268 603.793 280.111 605.211 280.111C606.178 280.111 606.852 279.713 607.168 279.01H607.262V280H608.223V273.684ZM610.543 272.049V273.684H609.523V274.527H610.543V278.359C610.543 279.566 611.064 280.047 612.365 280.047C612.564 280.047 612.758 280.023 612.957 279.988V279.139C612.77 279.156 612.67 279.162 612.488 279.162C611.832 279.162 611.551 278.846 611.551 278.102V274.527H612.957V273.684H611.551V272.049H610.543ZM616.982 280.111C618.781 280.111 619.895 278.869 619.895 276.842C619.895 274.809 618.781 273.572 616.982 273.572C615.184 273.572 614.07 274.809 614.07 276.842C614.07 278.869 615.184 280.111 616.982 280.111ZM616.982 279.203C615.787 279.203 615.113 278.336 615.113 276.842C615.113 275.342 615.787 274.48 616.982 274.48C618.178 274.48 618.852 275.342 618.852 276.842C618.852 278.336 618.178 279.203 616.982 279.203ZM621.477 280H622.484V276.086C622.484 275.195 623.123 274.48 623.949 274.48C624.746 274.48 625.268 274.961 625.268 275.711V280H626.275V275.939C626.275 275.137 626.861 274.48 627.74 274.48C628.631 274.48 629.07 274.938 629.07 275.869V280H630.078V275.635C630.078 274.311 629.357 273.572 628.068 273.572C627.195 273.572 626.475 274.012 626.135 274.68H626.041C625.748 274.023 625.15 273.572 624.295 273.572C623.451 273.572 622.818 273.977 622.531 274.68H622.438V273.684H621.477V280ZM633.676 280.111C634.52 280.111 635.211 279.742 635.621 279.068H635.715V280H636.676V275.676C636.676 274.363 635.814 273.572 634.273 273.572C632.926 273.572 631.93 274.24 631.795 275.254H632.814C632.955 274.756 633.482 274.469 634.238 274.469C635.182 274.469 635.668 274.896 635.668 275.676V276.25L633.846 276.361C632.375 276.449 631.543 277.1 631.543 278.23C631.543 279.385 632.451 280.111 633.676 280.111ZM633.863 279.227C633.131 279.227 632.586 278.852 632.586 278.207C632.586 277.574 633.008 277.24 633.969 277.176L635.668 277.064V277.645C635.668 278.547 634.9 279.227 633.863 279.227ZM638.961 272.049V273.684H637.941V274.527H638.961V278.359C638.961 279.566 639.482 280.047 640.783 280.047C640.982 280.047 641.176 280.023 641.375 279.988V279.139C641.188 279.156 641.088 279.162 640.906 279.162C640.25 279.162 639.969 278.846 639.969 278.102V274.527H641.375V273.684H639.969V272.049H638.961ZM643.426 272.465C643.812 272.465 644.129 272.148 644.129 271.762C644.129 271.375 643.812 271.059 643.426 271.059C643.039 271.059 642.723 271.375 642.723 271.762C642.723 272.148 643.039 272.465 643.426 272.465ZM642.922 280H643.93V273.684H642.922V280ZM651.078 275.617C650.902 274.492 649.965 273.572 648.43 273.572C646.66 273.572 645.535 274.85 645.535 276.818C645.535 278.828 646.666 280.111 648.436 280.111C649.953 280.111 650.896 279.256 651.078 278.096H650.059C649.871 278.811 649.279 279.203 648.43 279.203C647.305 279.203 646.578 278.277 646.578 276.818C646.578 275.389 647.293 274.48 648.43 274.48C649.338 274.48 649.895 274.99 650.059 275.617H651.078ZM654.324 280.111C655.168 280.111 655.859 279.742 656.27 279.068H656.363V280H657.324V275.676C657.324 274.363 656.463 273.572 654.922 273.572C653.574 273.572 652.578 274.24 652.443 275.254H653.463C653.604 274.756 654.131 274.469 654.887 274.469C655.83 274.469 656.316 274.896 656.316 275.676V276.25L654.494 276.361C653.023 276.449 652.191 277.1 652.191 278.23C652.191 279.385 653.1 280.111 654.324 280.111ZM654.512 279.227C653.779 279.227 653.234 278.852 653.234 278.207C653.234 277.574 653.656 277.24 654.617 277.176L656.316 277.064V277.645C656.316 278.547 655.549 279.227 654.512 279.227ZM659.246 280H660.254V271.176H659.246V280ZM662.27 280H663.277V271.176H662.27V280ZM665.773 282.285C666.893 282.285 667.396 281.852 667.936 280.387L670.402 273.684H669.33L667.602 278.881H667.508L665.773 273.684H664.684L667.021 280.006L666.904 280.381C666.641 281.143 666.324 281.418 665.744 281.418C665.604 281.418 665.445 281.412 665.322 281.389V282.25C665.463 282.273 665.639 282.285 665.773 282.285ZM539.059 289.572C538.197 289.572 537.441 290.012 537.037 290.738H536.943V289.684H535.982V298.109H536.99V295.051H537.084C537.43 295.719 538.156 296.111 539.059 296.111C540.664 296.111 541.713 294.816 541.713 292.842C541.713 290.855 540.67 289.572 539.059 289.572ZM538.818 295.203C537.682 295.203 536.961 294.289 536.961 292.842C536.961 291.389 537.682 290.48 538.824 290.48C539.979 290.48 540.67 291.365 540.67 292.842C540.67 294.318 539.979 295.203 538.818 295.203ZM545.053 296.111C545.896 296.111 546.588 295.742 546.998 295.068H547.092V296H548.053V291.676C548.053 290.363 547.191 289.572 545.65 289.572C544.303 289.572 543.307 290.24 543.172 291.254H544.191C544.332 290.756 544.859 290.469 545.615 290.469C546.559 290.469 547.045 290.896 547.045 291.676V292.25L545.223 292.361C543.752 292.449 542.92 293.1 542.92 294.23C542.92 295.385 543.828 296.111 545.053 296.111ZM545.24 295.227C544.508 295.227 543.963 294.852 543.963 294.207C543.963 293.574 544.385 293.24 545.346 293.176L547.045 293.064V293.645C547.045 294.547 546.277 295.227 545.24 295.227ZM550.443 288.465C550.83 288.465 551.146 288.148 551.146 287.762C551.146 287.375 550.83 287.059 550.443 287.059C550.057 287.059 549.74 287.375 549.74 287.762C549.74 288.148 550.057 288.465 550.443 288.465ZM549.939 296H550.947V289.684H549.939V296ZM555.207 296.111C556.08 296.111 556.83 295.695 557.229 294.992H557.322V296H558.283V287.176H557.275V290.68H557.188C556.83 289.988 556.086 289.572 555.207 289.572C553.602 289.572 552.553 290.861 552.553 292.842C552.553 294.828 553.59 296.111 555.207 296.111ZM555.441 290.48C556.584 290.48 557.299 291.395 557.299 292.842C557.299 294.301 556.59 295.203 555.441 295.203C554.287 295.203 553.596 294.318 553.596 292.842C553.596 291.371 554.293 290.48 555.441 290.48ZM565.385 296.111C566.229 296.111 566.92 295.742 567.33 295.068H567.424V296H568.385V291.676C568.385 290.363 567.523 289.572 565.982 289.572C564.635 289.572 563.639 290.24 563.504 291.254H564.523C564.664 290.756 565.191 290.469 565.947 290.469C566.891 290.469 567.377 290.896 567.377 291.676V292.25L565.555 292.361C564.084 292.449 563.252 293.1 563.252 294.23C563.252 295.385 564.16 296.111 565.385 296.111ZM565.572 295.227C564.84 295.227 564.295 294.852 564.295 294.207C564.295 293.574 564.717 293.24 565.678 293.176L567.377 293.064V293.645C567.377 294.547 566.609 295.227 565.572 295.227ZM570.248 296H571.256V292.262C571.256 291.154 571.906 290.48 572.914 290.48C573.922 290.48 574.402 291.02 574.402 292.156V296H575.41V291.91C575.41 290.41 574.619 289.572 573.201 289.572C572.234 289.572 571.619 289.982 571.303 290.68H571.209V289.684H570.248V296ZM579.594 296.111C580.467 296.111 581.217 295.695 581.615 294.992H581.709V296H582.67V287.176H581.662V290.68H581.574C581.217 289.988 580.473 289.572 579.594 289.572C577.988 289.572 576.939 290.861 576.939 292.842C576.939 294.828 577.977 296.111 579.594 296.111ZM579.828 290.48C580.971 290.48 581.686 291.395 581.686 292.842C581.686 294.301 580.977 295.203 579.828 295.203C578.674 295.203 577.982 294.318 577.982 292.842C577.982 291.371 578.68 290.48 579.828 290.48ZM587.867 291.412C587.867 292.326 588.406 292.836 589.59 293.123L590.674 293.387C591.348 293.551 591.676 293.844 591.676 294.277C591.676 294.857 591.066 295.262 590.217 295.262C589.408 295.262 588.904 294.922 588.734 294.389H587.697C587.809 295.438 588.775 296.111 590.182 296.111C591.617 296.111 592.713 295.332 592.713 294.201C592.713 293.293 592.139 292.777 590.949 292.49L589.977 292.256C589.232 292.074 588.881 291.805 588.881 291.371C588.881 290.809 589.467 290.428 590.217 290.428C590.979 290.428 591.471 290.762 591.605 291.266H592.602C592.467 290.229 591.547 289.572 590.223 289.572C588.881 289.572 587.867 290.363 587.867 291.412ZM599.404 289.684H598.396V293.422C598.396 294.529 597.787 295.191 596.674 295.191C595.666 295.191 595.244 294.664 595.244 293.527V289.684H594.236V293.773C594.236 295.268 594.975 296.111 596.393 296.111C597.359 296.111 598.033 295.713 598.35 295.01H598.443V296H599.404V289.684ZM604.443 296.111C606.043 296.111 607.092 294.816 607.092 292.842C607.092 290.855 606.049 289.572 604.443 289.572C603.576 289.572 602.809 290 602.463 290.68H602.369V287.176H601.361V296H602.322V294.992H602.416C602.814 295.695 603.564 296.111 604.443 296.111ZM604.209 290.48C605.363 290.48 606.049 291.365 606.049 292.842C606.049 294.318 605.363 295.203 604.209 295.203C603.061 295.203 602.346 294.301 602.346 292.842C602.346 291.383 603.061 290.48 604.209 290.48ZM608.527 291.412C608.527 292.326 609.066 292.836 610.25 293.123L611.334 293.387C612.008 293.551 612.336 293.844 612.336 294.277C612.336 294.857 611.727 295.262 610.877 295.262C610.068 295.262 609.564 294.922 609.395 294.389H608.357C608.469 295.438 609.436 296.111 610.842 296.111C612.277 296.111 613.373 295.332 613.373 294.201C613.373 293.293 612.799 292.777 611.609 292.49L610.637 292.256C609.893 292.074 609.541 291.805 609.541 291.371C609.541 290.809 610.127 290.428 610.877 290.428C611.639 290.428 612.131 290.762 612.266 291.266H613.262C613.127 290.229 612.207 289.572 610.883 289.572C609.541 289.572 608.527 290.363 608.527 291.412ZM620.182 291.617C620.006 290.492 619.068 289.572 617.533 289.572C615.764 289.572 614.639 290.85 614.639 292.818C614.639 294.828 615.77 296.111 617.539 296.111C619.057 296.111 620 295.256 620.182 294.096H619.162C618.975 294.811 618.383 295.203 617.533 295.203C616.408 295.203 615.682 294.277 615.682 292.818C615.682 291.389 616.396 290.48 617.533 290.48C618.441 290.48 618.998 290.99 619.162 291.617H620.182ZM621.67 296H622.678V292.086C622.678 291.195 623.375 290.551 624.336 290.551C624.535 290.551 624.898 290.586 624.98 290.609V289.602C624.852 289.584 624.641 289.572 624.477 289.572C623.639 289.572 622.912 290.006 622.725 290.621H622.631V289.684H621.67V296ZM626.768 288.465C627.154 288.465 627.471 288.148 627.471 287.762C627.471 287.375 627.154 287.059 626.768 287.059C626.381 287.059 626.064 287.375 626.064 287.762C626.064 288.148 626.381 288.465 626.768 288.465ZM626.264 296H627.271V289.684H626.264V296ZM632.27 289.572C631.408 289.572 630.652 290.012 630.248 290.738H630.154V289.684H629.193V298.109H630.201V295.051H630.295C630.641 295.719 631.367 296.111 632.27 296.111C633.875 296.111 634.924 294.816 634.924 292.842C634.924 290.855 633.881 289.572 632.27 289.572ZM632.029 295.203C630.893 295.203 630.172 294.289 630.172 292.842C630.172 291.389 630.893 290.48 632.035 290.48C633.189 290.48 633.881 291.365 633.881 292.842C633.881 294.318 633.189 295.203 632.029 295.203ZM636.928 288.049V289.684H635.908V290.527H636.928V294.359C636.928 295.566 637.449 296.047 638.75 296.047C638.949 296.047 639.143 296.023 639.342 295.988V295.139C639.154 295.156 639.055 295.162 638.873 295.162C638.217 295.162 637.936 294.846 637.936 294.102V290.527H639.342V289.684H637.936V288.049H636.928ZM641.393 288.465C641.779 288.465 642.096 288.148 642.096 287.762C642.096 287.375 641.779 287.059 641.393 287.059C641.006 287.059 640.689 287.375 640.689 287.762C640.689 288.148 641.006 288.465 641.393 288.465ZM640.889 296H641.896V289.684H640.889V296ZM646.414 296.111C648.213 296.111 649.326 294.869 649.326 292.842C649.326 290.809 648.213 289.572 646.414 289.572C644.615 289.572 643.502 290.809 643.502 292.842C643.502 294.869 644.615 296.111 646.414 296.111ZM646.414 295.203C645.219 295.203 644.545 294.336 644.545 292.842C644.545 291.342 645.219 290.48 646.414 290.48C647.609 290.48 648.283 291.342 648.283 292.842C648.283 294.336 647.609 295.203 646.414 295.203ZM650.908 296H651.916V292.262C651.916 291.154 652.566 290.48 653.574 290.48C654.582 290.48 655.062 291.02 655.062 292.156V296H656.07V291.91C656.07 290.41 655.279 289.572 653.861 289.572C652.895 289.572 652.279 289.982 651.963 290.68H651.869V289.684H650.908V296ZM527.029 312.111C528.629 312.111 529.678 310.816 529.678 308.842C529.678 306.855 528.635 305.572 527.029 305.572C526.162 305.572 525.395 306 525.049 306.68H524.955V303.176H523.947V312H524.908V310.992H525.002C525.4 311.695 526.15 312.111 527.029 312.111ZM526.795 306.48C527.949 306.48 528.635 307.365 528.635 308.842C528.635 310.318 527.949 311.203 526.795 311.203C525.646 311.203 524.932 310.301 524.932 308.842C524.932 307.383 525.646 306.48 526.795 306.48ZM535.443 310.365C535.18 310.922 534.629 311.221 533.814 311.221C532.742 311.221 532.045 310.43 531.992 309.182V309.135H536.533V308.748C536.533 306.785 535.496 305.572 533.791 305.572C532.057 305.572 530.943 306.861 530.943 308.848C530.943 310.846 532.039 312.111 533.791 312.111C535.174 312.111 536.158 311.443 536.451 310.365H535.443ZM533.779 306.463C534.781 306.463 535.449 307.201 535.473 308.32H531.992C532.068 307.201 532.771 306.463 533.779 306.463ZM543.342 307.617C543.166 306.492 542.229 305.572 540.693 305.572C538.924 305.572 537.799 306.85 537.799 308.818C537.799 310.828 538.93 312.111 540.699 312.111C542.217 312.111 543.16 311.256 543.342 310.096H542.322C542.135 310.811 541.543 311.203 540.693 311.203C539.568 311.203 538.842 310.277 538.842 308.818C538.842 307.389 539.557 306.48 540.693 306.48C541.602 306.48 542.158 306.99 542.322 307.617H543.342ZM547.426 312.111C549.225 312.111 550.338 310.869 550.338 308.842C550.338 306.809 549.225 305.572 547.426 305.572C545.627 305.572 544.514 306.809 544.514 308.842C544.514 310.869 545.627 312.111 547.426 312.111ZM547.426 311.203C546.23 311.203 545.557 310.336 545.557 308.842C545.557 307.342 546.23 306.48 547.426 306.48C548.621 306.48 549.295 307.342 549.295 308.842C549.295 310.336 548.621 311.203 547.426 311.203ZM551.92 312H552.928V308.086C552.928 307.195 553.566 306.48 554.393 306.48C555.189 306.48 555.711 306.961 555.711 307.711V312H556.719V307.939C556.719 307.137 557.305 306.48 558.184 306.48C559.074 306.48 559.514 306.938 559.514 307.869V312H560.521V307.635C560.521 306.311 559.801 305.572 558.512 305.572C557.639 305.572 556.918 306.012 556.578 306.68H556.484C556.191 306.023 555.594 305.572 554.738 305.572C553.895 305.572 553.262 305.977 552.975 306.68H552.881V305.684H551.92V312ZM566.545 310.365C566.281 310.922 565.73 311.221 564.916 311.221C563.844 311.221 563.146 310.43 563.094 309.182V309.135H567.635V308.748C567.635 306.785 566.598 305.572 564.893 305.572C563.158 305.572 562.045 306.861 562.045 308.848C562.045 310.846 563.141 312.111 564.893 312.111C566.275 312.111 567.26 311.443 567.553 310.365H566.545ZM564.881 306.463C565.883 306.463 566.551 307.201 566.574 308.32H563.094C563.17 307.201 563.873 306.463 564.881 306.463ZM569.07 307.412C569.07 308.326 569.609 308.836 570.793 309.123L571.877 309.387C572.551 309.551 572.879 309.844 572.879 310.277C572.879 310.857 572.27 311.262 571.42 311.262C570.611 311.262 570.107 310.922 569.938 310.389H568.9C569.012 311.438 569.979 312.111 571.385 312.111C572.82 312.111 573.916 311.332 573.916 310.201C573.916 309.293 573.342 308.777 572.152 308.49L571.18 308.256C570.436 308.074 570.084 307.805 570.084 307.371C570.084 306.809 570.67 306.428 571.42 306.428C572.182 306.428 572.674 306.762 572.809 307.266H573.805C573.67 306.229 572.75 305.572 571.426 305.572C570.084 305.572 569.07 306.363 569.07 307.412ZM580.643 312.111C581.486 312.111 582.178 311.742 582.588 311.068H582.682V312H583.643V307.676C583.643 306.363 582.781 305.572 581.24 305.572C579.893 305.572 578.896 306.24 578.762 307.254H579.781C579.922 306.756 580.449 306.469 581.205 306.469C582.148 306.469 582.635 306.896 582.635 307.676V308.25L580.812 308.361C579.342 308.449 578.51 309.1 578.51 310.23C578.51 311.385 579.418 312.111 580.643 312.111ZM580.83 311.227C580.098 311.227 579.553 310.852 579.553 310.207C579.553 309.574 579.975 309.24 580.936 309.176L582.635 309.064V309.645C582.635 310.547 581.867 311.227 580.83 311.227ZM590.732 307.617C590.557 306.492 589.619 305.572 588.084 305.572C586.314 305.572 585.189 306.85 585.189 308.818C585.189 310.828 586.32 312.111 588.09 312.111C589.607 312.111 590.551 311.256 590.732 310.096H589.713C589.525 310.811 588.934 311.203 588.084 311.203C586.959 311.203 586.232 310.277 586.232 308.818C586.232 307.389 586.947 306.48 588.084 306.48C588.992 306.48 589.549 306.99 589.713 307.617H590.732ZM592.76 304.049V305.684H591.74V306.527H592.76V310.359C592.76 311.566 593.281 312.047 594.582 312.047C594.781 312.047 594.975 312.023 595.174 311.988V311.139C594.986 311.156 594.887 311.162 594.705 311.162C594.049 311.162 593.768 310.846 593.768 310.102V306.527H595.174V305.684H593.768V304.049H592.76ZM597.225 304.465C597.611 304.465 597.928 304.148 597.928 303.762C597.928 303.375 597.611 303.059 597.225 303.059C596.838 303.059 596.521 303.375 596.521 303.762C596.521 304.148 596.838 304.465 597.225 304.465ZM596.721 312H597.729V305.684H596.721V312ZM604.807 305.684H603.729L602 310.887H601.906L600.178 305.684H599.1L601.438 312H602.469L604.807 305.684ZM610.104 310.365C609.84 310.922 609.289 311.221 608.475 311.221C607.402 311.221 606.705 310.43 606.652 309.182V309.135H611.193V308.748C611.193 306.785 610.156 305.572 608.451 305.572C606.717 305.572 605.604 306.861 605.604 308.848C605.604 310.846 606.699 312.111 608.451 312.111C609.834 312.111 610.818 311.443 611.111 310.365H610.104ZM608.439 306.463C609.441 306.463 610.109 307.201 610.133 308.32H606.652C606.729 307.201 607.432 306.463 608.439 306.463ZM618.758 312.111C620.557 312.111 621.67 310.869 621.67 308.842C621.67 306.809 620.557 305.572 618.758 305.572C616.959 305.572 615.846 306.809 615.846 308.842C615.846 310.869 616.959 312.111 618.758 312.111ZM618.758 311.203C617.562 311.203 616.889 310.336 616.889 308.842C616.889 307.342 617.562 306.48 618.758 306.48C619.953 306.48 620.627 307.342 620.627 308.842C620.627 310.336 619.953 311.203 618.758 311.203ZM623.252 312H624.26V308.086C624.26 307.195 624.957 306.551 625.918 306.551C626.117 306.551 626.48 306.586 626.562 306.609V305.602C626.434 305.584 626.223 305.572 626.059 305.572C625.221 305.572 624.494 306.006 624.307 306.621H624.213V305.684H623.252V312ZM631.631 304.049V305.684H630.611V306.527H631.631V310.359C631.631 311.566 632.152 312.047 633.453 312.047C633.652 312.047 633.846 312.023 634.045 311.988V311.139C633.857 311.156 633.758 311.162 633.576 311.162C632.92 311.162 632.639 310.846 632.639 310.102V306.527H634.045V305.684H632.639V304.049H631.631ZM635.568 312H636.576V308.086C636.576 307.195 637.273 306.551 638.234 306.551C638.434 306.551 638.797 306.586 638.879 306.609V305.602C638.75 305.584 638.539 305.572 638.375 305.572C637.537 305.572 636.811 306.006 636.623 306.621H636.529V305.684H635.568V312ZM640.666 304.465C641.053 304.465 641.369 304.148 641.369 303.762C641.369 303.375 641.053 303.059 640.666 303.059C640.279 303.059 639.963 303.375 639.963 303.762C639.963 304.148 640.279 304.465 640.666 304.465ZM640.162 312H641.17V305.684H640.162V312ZM644.85 312.111C645.693 312.111 646.385 311.742 646.795 311.068H646.889V312H647.85V307.676C647.85 306.363 646.988 305.572 645.447 305.572C644.1 305.572 643.104 306.24 642.969 307.254H643.988C644.129 306.756 644.656 306.469 645.412 306.469C646.355 306.469 646.842 306.896 646.842 307.676V308.25L645.02 308.361C643.549 308.449 642.717 309.1 642.717 310.23C642.717 311.385 643.625 312.111 644.85 312.111ZM645.037 311.227C644.305 311.227 643.76 310.852 643.76 310.207C643.76 309.574 644.182 309.24 645.143 309.176L646.842 309.064V309.645C646.842 310.547 646.074 311.227 645.037 311.227ZM649.771 312H650.779V303.176H649.771V312ZM653.264 304.465C653.65 304.465 653.967 304.148 653.967 303.762C653.967 303.375 653.65 303.059 653.264 303.059C652.877 303.059 652.561 303.375 652.561 303.762C652.561 304.148 652.877 304.465 653.264 304.465ZM652.76 312H653.768V305.684H652.76V312ZM655.689 312H656.697V308.262C656.697 307.154 657.348 306.48 658.355 306.48C659.363 306.48 659.844 307.02 659.844 308.156V312H660.852V307.91C660.852 306.41 660.061 305.572 658.643 305.572C657.676 305.572 657.061 305.982 656.744 306.68H656.65V305.684H655.689V312ZM665.299 314.426C667.021 314.426 668.111 313.523 668.111 312.111V305.684H667.15V306.686H667.057C666.693 306.006 665.914 305.572 665.029 305.572C663.406 305.572 662.381 306.855 662.381 308.748C662.381 310.641 663.395 311.906 665.029 311.906C665.896 311.906 666.611 311.514 667.01 310.816H667.104V312.059C667.104 312.99 666.43 313.547 665.299 313.547C664.391 313.547 663.828 313.213 663.717 312.697H662.65C662.803 313.74 663.775 314.426 665.299 314.426ZM665.252 311.016C664.08 311.016 663.424 310.125 663.424 308.748C663.424 307.371 664.08 306.48 665.252 306.48C666.418 306.48 667.127 307.371 667.127 308.748C667.127 310.125 666.424 311.016 665.252 311.016Z" fill="#2A2F45"/>
<path d="M48 264C48 259.582 51.5817 256 56 256H224C228.418 256 232 259.582 232 264V312C232 316.418 228.418 320 224 320H56C51.5817 320 48 316.418 48 312V264Z" fill="white"/>
<path d="M74.0176 284V277.443H74.1113L78.6992 284H79.7246V275.545H78.6816V282.125H78.5879L74 275.545H72.9746V284H74.0176ZM84.3477 284.111C86.1465 284.111 87.2598 282.869 87.2598 280.842C87.2598 278.809 86.1465 277.572 84.3477 277.572C82.5488 277.572 81.4355 278.809 81.4355 280.842C81.4355 282.869 82.5488 284.111 84.3477 284.111ZM84.3477 283.203C83.1523 283.203 82.4785 282.336 82.4785 280.842C82.4785 279.342 83.1523 278.48 84.3477 278.48C85.543 278.48 86.2168 279.342 86.2168 280.842C86.2168 282.336 85.543 283.203 84.3477 283.203ZM89.2637 276.049V277.684H88.2441V278.527H89.2637V282.359C89.2637 283.566 89.7852 284.047 91.0859 284.047C91.2852 284.047 91.4785 284.023 91.6777 283.988V283.139C91.4902 283.156 91.3906 283.162 91.209 283.162C90.5527 283.162 90.2715 282.846 90.2715 282.102V278.527H91.6777V277.684H90.2715V276.049H89.2637ZM93.7285 276.465C94.1152 276.465 94.4316 276.148 94.4316 275.762C94.4316 275.375 94.1152 275.059 93.7285 275.059C93.3418 275.059 93.0254 275.375 93.0254 275.762C93.0254 276.148 93.3418 276.465 93.7285 276.465ZM93.2246 284H94.2324V277.684H93.2246V284ZM96.5762 284H97.584V278.527H99.0312V277.684H97.584V277.01C97.584 276.318 97.8887 275.967 98.6152 275.967C98.7969 275.967 98.9668 275.973 99.0898 275.996V275.176C98.8789 275.135 98.6562 275.117 98.4102 275.117C97.209 275.117 96.5762 275.721 96.5762 276.98V277.684H95.5273V278.527H96.5762V284ZM101.041 286.285C102.16 286.285 102.664 285.852 103.203 284.387L105.67 277.684H104.598L102.869 282.881H102.775L101.041 277.684H99.9512L102.289 284.006L102.172 284.381C101.908 285.143 101.592 285.418 101.012 285.418C100.871 285.418 100.713 285.412 100.59 285.389V286.25C100.73 286.273 100.906 286.285 101.041 286.285ZM115.631 279.617C115.455 278.492 114.518 277.572 112.982 277.572C111.213 277.572 110.088 278.85 110.088 280.818C110.088 282.828 111.219 284.111 112.988 284.111C114.506 284.111 115.449 283.256 115.631 282.096H114.611C114.424 282.811 113.832 283.203 112.982 283.203C111.857 283.203 111.131 282.277 111.131 280.818C111.131 279.389 111.846 278.48 112.982 278.48C113.891 278.48 114.447 278.99 114.611 279.617H115.631ZM122.229 277.684H121.221V281.422C121.221 282.529 120.611 283.191 119.498 283.191C118.49 283.191 118.068 282.664 118.068 281.527V277.684H117.061V281.773C117.061 283.268 117.799 284.111 119.217 284.111C120.184 284.111 120.857 283.713 121.174 283.01H121.268V284H122.229V277.684ZM123.98 279.412C123.98 280.326 124.52 280.836 125.703 281.123L126.787 281.387C127.461 281.551 127.789 281.844 127.789 282.277C127.789 282.857 127.18 283.262 126.33 283.262C125.521 283.262 125.018 282.922 124.848 282.389H123.811C123.922 283.438 124.889 284.111 126.295 284.111C127.73 284.111 128.826 283.332 128.826 282.201C128.826 281.293 128.252 280.777 127.062 280.49L126.09 280.256C125.346 280.074 124.994 279.805 124.994 279.371C124.994 278.809 125.58 278.428 126.33 278.428C127.092 278.428 127.584 278.762 127.719 279.266H128.715C128.58 278.229 127.66 277.572 126.336 277.572C124.994 277.572 123.98 278.363 123.98 279.412ZM130.771 276.049V277.684H129.752V278.527H130.771V282.359C130.771 283.566 131.293 284.047 132.594 284.047C132.793 284.047 132.986 284.023 133.186 283.988V283.139C132.998 283.156 132.898 283.162 132.717 283.162C132.061 283.162 131.779 282.846 131.779 282.102V278.527H133.186V277.684H131.779V276.049H130.771ZM137.211 284.111C139.01 284.111 140.123 282.869 140.123 280.842C140.123 278.809 139.01 277.572 137.211 277.572C135.412 277.572 134.299 278.809 134.299 280.842C134.299 282.869 135.412 284.111 137.211 284.111ZM137.211 283.203C136.016 283.203 135.342 282.336 135.342 280.842C135.342 279.342 136.016 278.48 137.211 278.48C138.406 278.48 139.08 279.342 139.08 280.842C139.08 282.336 138.406 283.203 137.211 283.203ZM141.705 284H142.713V280.086C142.713 279.195 143.352 278.48 144.178 278.48C144.975 278.48 145.496 278.961 145.496 279.711V284H146.504V279.939C146.504 279.137 147.09 278.48 147.969 278.48C148.859 278.48 149.299 278.938 149.299 279.869V284H150.307V279.635C150.307 278.311 149.586 277.572 148.297 277.572C147.424 277.572 146.703 278.012 146.363 278.68H146.27C145.977 278.023 145.379 277.572 144.523 277.572C143.68 277.572 143.047 277.977 142.76 278.68H142.666V277.684H141.705V284ZM156.33 282.365C156.066 282.922 155.516 283.221 154.701 283.221C153.629 283.221 152.932 282.43 152.879 281.182V281.135H157.42V280.748C157.42 278.785 156.383 277.572 154.678 277.572C152.943 277.572 151.83 278.861 151.83 280.848C151.83 282.846 152.926 284.111 154.678 284.111C156.061 284.111 157.045 283.443 157.338 282.365H156.33ZM154.666 278.463C155.668 278.463 156.336 279.201 156.359 280.32H152.879C152.955 279.201 153.658 278.463 154.666 278.463ZM159.002 284H160.01V280.086C160.01 279.195 160.707 278.551 161.668 278.551C161.867 278.551 162.23 278.586 162.312 278.609V277.602C162.184 277.584 161.973 277.572 161.809 277.572C160.971 277.572 160.244 278.006 160.057 278.621H159.963V277.684H159.002V284ZM167.381 276.049V277.684H166.361V278.527H167.381V282.359C167.381 283.566 167.902 284.047 169.203 284.047C169.402 284.047 169.596 284.023 169.795 283.988V283.139C169.607 283.156 169.508 283.162 169.326 283.162C168.67 283.162 168.389 282.846 168.389 282.102V278.527H169.795V277.684H168.389V276.049H167.381ZM171.377 284H172.385V280.262C172.385 279.195 173.006 278.48 174.137 278.48C175.092 278.48 175.596 279.037 175.596 280.156V284H176.604V279.91C176.604 278.428 175.76 277.572 174.424 277.572C173.457 277.572 172.795 277.982 172.479 278.68H172.385V275.176H171.377V284ZM180.201 284.111C181.045 284.111 181.736 283.742 182.146 283.068H182.24V284H183.201V279.676C183.201 278.363 182.34 277.572 180.799 277.572C179.451 277.572 178.455 278.24 178.32 279.254H179.34C179.48 278.756 180.008 278.469 180.764 278.469C181.707 278.469 182.193 278.896 182.193 279.676V280.25L180.371 280.361C178.9 280.449 178.068 281.1 178.068 282.23C178.068 283.385 178.977 284.111 180.201 284.111ZM180.389 283.227C179.656 283.227 179.111 282.852 179.111 282.207C179.111 281.574 179.533 281.24 180.494 281.176L182.193 281.064V281.645C182.193 282.547 181.426 283.227 180.389 283.227ZM185.486 276.049V277.684H184.467V278.527H185.486V282.359C185.486 283.566 186.008 284.047 187.309 284.047C187.508 284.047 187.701 284.023 187.9 283.988V283.139C187.713 283.156 187.613 283.162 187.432 283.162C186.775 283.162 186.494 282.846 186.494 282.102V278.527H187.9V277.684H186.494V276.049H185.486ZM194.58 280.104H195.629C196.818 280.104 197.551 280.713 197.551 281.691C197.551 282.641 196.76 283.279 195.646 283.279C194.557 283.279 193.795 282.711 193.701 281.82H192.682C192.758 283.256 193.941 284.199 195.658 284.199C197.34 284.199 198.635 283.139 198.635 281.721C198.635 280.543 197.908 279.799 196.812 279.623V279.529C197.68 279.277 198.312 278.604 198.318 277.584C198.324 276.4 197.363 275.346 195.693 275.346C193.982 275.346 192.934 276.359 192.828 277.736H193.854C193.941 276.787 194.604 276.266 195.623 276.266C196.643 276.266 197.246 276.91 197.246 277.701C197.246 278.58 196.555 279.201 195.582 279.201H194.58V280.104ZM200.463 275.545V284H203.363C205.877 284 207.354 282.436 207.354 279.77C207.354 277.109 205.871 275.545 203.363 275.545H200.463ZM201.518 276.494H203.293C205.168 276.494 206.275 277.713 206.275 279.781C206.275 281.844 205.18 283.051 203.293 283.051H201.518V276.494ZM89.3574 297.791C89.4688 299.25 90.7051 300.199 92.498 300.199C94.4316 300.199 95.6562 299.209 95.6562 297.656C95.6562 296.414 94.9531 295.734 93.2012 295.295L92.3164 295.061C91.1504 294.762 90.6875 294.381 90.6875 293.719C90.6875 292.863 91.4316 292.301 92.5566 292.301C93.6113 292.301 94.3262 292.816 94.4727 293.684H95.5332C95.4453 292.318 94.2266 291.346 92.5918 291.346C90.8047 291.346 89.6035 292.318 89.6035 293.754C89.6035 294.955 90.2656 295.646 91.7949 296.033L92.8789 296.314C94.0449 296.607 94.5723 297.064 94.5723 297.785C94.5723 298.623 93.7344 299.238 92.5977 299.238C91.3965 299.238 90.5527 298.676 90.4238 297.791H89.3574ZM101.469 298.365C101.205 298.922 100.654 299.221 99.8398 299.221C98.7676 299.221 98.0703 298.43 98.0176 297.182V297.135H102.559V296.748C102.559 294.785 101.521 293.572 99.8164 293.572C98.082 293.572 96.9688 294.861 96.9688 296.848C96.9688 298.846 98.0645 300.111 99.8164 300.111C101.199 300.111 102.184 299.443 102.477 298.365H101.469ZM99.8047 294.463C100.807 294.463 101.475 295.201 101.498 296.32H98.0176C98.0938 295.201 98.7969 294.463 99.8047 294.463ZM109.367 295.617C109.191 294.492 108.254 293.572 106.719 293.572C104.949 293.572 103.824 294.85 103.824 296.818C103.824 298.828 104.955 300.111 106.725 300.111C108.242 300.111 109.186 299.256 109.367 298.096H108.348C108.16 298.811 107.568 299.203 106.719 299.203C105.594 299.203 104.867 298.277 104.867 296.818C104.867 295.389 105.582 294.48 106.719 294.48C107.627 294.48 108.184 294.99 108.348 295.617H109.367ZM115.965 293.684H114.957V297.422C114.957 298.529 114.348 299.191 113.234 299.191C112.227 299.191 111.805 298.664 111.805 297.527V293.684H110.797V297.773C110.797 299.268 111.535 300.111 112.953 300.111C113.92 300.111 114.594 299.713 114.91 299.01H115.004V300H115.965V293.684ZM117.863 300H118.871V296.086C118.871 295.195 119.568 294.551 120.529 294.551C120.729 294.551 121.092 294.586 121.174 294.609V293.602C121.045 293.584 120.834 293.572 120.67 293.572C119.832 293.572 119.105 294.006 118.918 294.621H118.824V293.684H117.863V300ZM126.441 298.365C126.178 298.922 125.627 299.221 124.812 299.221C123.74 299.221 123.043 298.43 122.99 297.182V297.135H127.531V296.748C127.531 294.785 126.494 293.572 124.789 293.572C123.055 293.572 121.941 294.861 121.941 296.848C121.941 298.846 123.037 300.111 124.789 300.111C126.172 300.111 127.156 299.443 127.449 298.365H126.441ZM124.777 294.463C125.779 294.463 126.447 295.201 126.471 296.32H122.99C123.066 295.201 123.77 294.463 124.777 294.463ZM133.027 292.465C133.414 292.465 133.73 292.148 133.73 291.762C133.73 291.375 133.414 291.059 133.027 291.059C132.641 291.059 132.324 291.375 132.324 291.762C132.324 292.148 132.641 292.465 133.027 292.465ZM132.523 300H133.531V293.684H132.523V300ZM135.307 295.412C135.307 296.326 135.846 296.836 137.029 297.123L138.113 297.387C138.787 297.551 139.115 297.844 139.115 298.277C139.115 298.857 138.506 299.262 137.656 299.262C136.848 299.262 136.344 298.922 136.174 298.389H135.137C135.248 299.438 136.215 300.111 137.621 300.111C139.057 300.111 140.152 299.332 140.152 298.201C140.152 297.293 139.578 296.777 138.389 296.49L137.416 296.256C136.672 296.074 136.32 295.805 136.32 295.371C136.32 294.809 136.906 294.428 137.656 294.428C138.418 294.428 138.91 294.762 139.045 295.266H140.041C139.906 294.229 138.986 293.572 137.662 293.572C136.32 293.572 135.307 294.363 135.307 295.412ZM145.121 300H146.129V296.086C146.129 295.195 146.826 294.551 147.787 294.551C147.986 294.551 148.35 294.586 148.432 294.609V293.602C148.303 293.584 148.092 293.572 147.928 293.572C147.09 293.572 146.363 294.006 146.176 294.621H146.082V293.684H145.121V300ZM153.699 298.365C153.436 298.922 152.885 299.221 152.07 299.221C150.998 299.221 150.301 298.43 150.248 297.182V297.135H154.789V296.748C154.789 294.785 153.752 293.572 152.047 293.572C150.312 293.572 149.199 294.861 149.199 296.848C149.199 298.846 150.295 300.111 152.047 300.111C153.43 300.111 154.414 299.443 154.707 298.365H153.699ZM152.035 294.463C153.037 294.463 153.705 295.201 153.729 296.32H150.248C150.324 295.201 151.027 294.463 152.035 294.463ZM158.697 293.572C157.098 293.572 156.055 294.861 156.055 296.842C156.055 298.834 157.086 300.111 158.697 300.111C159.588 300.111 160.268 299.742 160.672 299.051H160.766V302.109H161.785V293.684H160.812V294.738H160.719C160.344 294.029 159.559 293.572 158.697 293.572ZM158.926 299.203C157.777 299.203 157.098 298.324 157.098 296.842C157.098 295.365 157.783 294.48 158.932 294.48C160.074 294.48 160.795 295.395 160.795 296.842C160.795 298.295 160.08 299.203 158.926 299.203ZM168.793 293.684H167.785V297.422C167.785 298.529 167.176 299.191 166.062 299.191C165.055 299.191 164.633 298.664 164.633 297.527V293.684H163.625V297.773C163.625 299.268 164.363 300.111 165.781 300.111C166.748 300.111 167.422 299.713 167.738 299.01H167.832V300H168.793V293.684ZM171.219 292.465C171.605 292.465 171.922 292.148 171.922 291.762C171.922 291.375 171.605 291.059 171.219 291.059C170.832 291.059 170.516 291.375 170.516 291.762C170.516 292.148 170.832 292.465 171.219 292.465ZM170.715 300H171.723V293.684H170.715V300ZM173.645 300H174.652V296.086C174.652 295.195 175.35 294.551 176.311 294.551C176.51 294.551 176.873 294.586 176.955 294.609V293.602C176.826 293.584 176.615 293.572 176.451 293.572C175.613 293.572 174.887 294.006 174.699 294.621H174.605V293.684H173.645V300ZM182.223 298.365C181.959 298.922 181.408 299.221 180.594 299.221C179.521 299.221 178.824 298.43 178.771 297.182V297.135H183.312V296.748C183.312 294.785 182.275 293.572 180.57 293.572C178.836 293.572 177.723 294.861 177.723 296.848C177.723 298.846 178.818 300.111 180.57 300.111C181.953 300.111 182.938 299.443 183.23 298.365H182.223ZM180.559 294.463C181.561 294.463 182.229 295.201 182.252 296.32H178.771C178.848 295.201 179.551 294.463 180.559 294.463ZM187.232 300.111C188.105 300.111 188.855 299.695 189.254 298.992H189.348V300H190.309V291.176H189.301V294.68H189.213C188.855 293.988 188.111 293.572 187.232 293.572C185.627 293.572 184.578 294.861 184.578 296.842C184.578 298.828 185.615 300.111 187.232 300.111ZM187.467 294.48C188.609 294.48 189.324 295.395 189.324 296.842C189.324 298.301 188.615 299.203 187.467 299.203C186.312 299.203 185.621 298.318 185.621 296.842C185.621 295.371 186.318 294.48 187.467 294.48Z" fill="#2A2F45"/>
<rect x="48.5" y="256.5" width="183" height="63" rx="7.5" stroke="#E3E8EE"/>
<path d="M48 360C48 355.582 51.5817 352 56 352H224C228.418 352 232 355.582 232 360V408C232 412.418 228.418 416 224 416H56C51.5817 416 48 412.418 48 408V360Z" fill="white"/>
<path d="M122.902 380.199C124.701 380.199 126.037 379.197 126.318 377.645H125.246C124.977 378.623 124.08 379.227 122.902 379.227C121.273 379.227 120.254 377.896 120.254 375.775C120.254 373.654 121.273 372.318 122.896 372.318C124.062 372.318 124.965 373.004 125.246 374.094H126.318C126.066 372.465 124.678 371.346 122.896 371.346C120.6 371.346 119.17 373.045 119.17 375.775C119.17 378.5 120.605 380.199 122.902 380.199ZM130.555 380.111C132.354 380.111 133.467 378.869 133.467 376.842C133.467 374.809 132.354 373.572 130.555 373.572C128.756 373.572 127.643 374.809 127.643 376.842C127.643 378.869 128.756 380.111 130.555 380.111ZM130.555 379.203C129.359 379.203 128.686 378.336 128.686 376.842C128.686 375.342 129.359 374.48 130.555 374.48C131.75 374.48 132.424 375.342 132.424 376.842C132.424 378.336 131.75 379.203 130.555 379.203ZM135.107 380H136.115V371.176H135.107V380ZM138.131 380H139.139V371.176H138.131V380ZM145.279 378.365C145.016 378.922 144.465 379.221 143.65 379.221C142.578 379.221 141.881 378.43 141.828 377.182V377.135H146.369V376.748C146.369 374.785 145.332 373.572 143.627 373.572C141.893 373.572 140.779 374.861 140.779 376.848C140.779 378.846 141.875 380.111 143.627 380.111C145.01 380.111 145.994 379.443 146.287 378.365H145.279ZM143.615 374.463C144.617 374.463 145.285 375.201 145.309 376.32H141.828C141.904 375.201 142.607 374.463 143.615 374.463ZM153.178 375.617C153.002 374.492 152.064 373.572 150.529 373.572C148.76 373.572 147.635 374.85 147.635 376.818C147.635 378.828 148.766 380.111 150.535 380.111C152.053 380.111 152.996 379.256 153.178 378.096H152.158C151.971 378.811 151.379 379.203 150.529 379.203C149.404 379.203 148.678 378.277 148.678 376.818C148.678 375.389 149.393 374.48 150.529 374.48C151.438 374.48 151.994 374.99 152.158 375.617H153.178ZM155.205 372.049V373.684H154.186V374.527H155.205V378.359C155.205 379.566 155.727 380.047 157.027 380.047C157.227 380.047 157.42 380.023 157.619 379.988V379.139C157.432 379.156 157.332 379.162 157.15 379.162C156.494 379.162 156.213 378.846 156.213 378.102V374.527H157.619V373.684H156.213V372.049H155.205ZM70.9531 392.104H72.002C73.1914 392.104 73.9238 392.713 73.9238 393.691C73.9238 394.641 73.1328 395.279 72.0195 395.279C70.9297 395.279 70.168 394.711 70.0742 393.82H69.0547C69.1309 395.256 70.3145 396.199 72.0312 396.199C73.7129 396.199 75.0078 395.139 75.0078 393.721C75.0078 392.543 74.2812 391.799 73.1855 391.623V391.529C74.0527 391.277 74.6855 390.604 74.6914 389.584C74.6973 388.4 73.7363 387.346 72.0664 387.346C70.3555 387.346 69.3066 388.359 69.2012 389.736H70.2266C70.3145 388.787 70.9766 388.266 71.9961 388.266C73.0156 388.266 73.6191 388.91 73.6191 389.701C73.6191 390.58 72.9277 391.201 71.9551 391.201H70.9531V392.104ZM76.8359 387.545V396H79.7363C82.25 396 83.7266 394.436 83.7266 391.77C83.7266 389.109 82.2441 387.545 79.7363 387.545H76.8359ZM77.8906 388.494H79.666C81.541 388.494 82.6484 389.713 82.6484 391.781C82.6484 393.844 81.5527 395.051 79.666 395.051H77.8906V388.494ZM88.5371 393.791C88.6484 395.25 89.8848 396.199 91.6777 396.199C93.6113 396.199 94.8359 395.209 94.8359 393.656C94.8359 392.414 94.1328 391.734 92.3809 391.295L91.4961 391.061C90.3301 390.762 89.8672 390.381 89.8672 389.719C89.8672 388.863 90.6113 388.301 91.7363 388.301C92.791 388.301 93.5059 388.816 93.6523 389.684H94.7129C94.625 388.318 93.4062 387.346 91.7715 387.346C89.9844 387.346 88.7832 388.318 88.7832 389.754C88.7832 390.955 89.4453 391.646 90.9746 392.033L92.0586 392.314C93.2246 392.607 93.752 393.064 93.752 393.785C93.752 394.623 92.9141 395.238 91.7773 395.238C90.5762 395.238 89.7324 394.676 89.6035 393.791H88.5371ZM100.648 394.365C100.385 394.922 99.834 395.221 99.0195 395.221C97.9473 395.221 97.25 394.43 97.1973 393.182V393.135H101.738V392.748C101.738 390.785 100.701 389.572 98.9961 389.572C97.2617 389.572 96.1484 390.861 96.1484 392.848C96.1484 394.846 97.2441 396.111 98.9961 396.111C100.379 396.111 101.363 395.443 101.656 394.365H100.648ZM98.9844 390.463C99.9863 390.463 100.654 391.201 100.678 392.32H97.1973C97.2734 391.201 97.9766 390.463 98.9844 390.463ZM108.547 391.617C108.371 390.492 107.434 389.572 105.898 389.572C104.129 389.572 103.004 390.85 103.004 392.818C103.004 394.828 104.135 396.111 105.904 396.111C107.422 396.111 108.365 395.256 108.547 394.096H107.527C107.34 394.811 106.748 395.203 105.898 395.203C104.773 395.203 104.047 394.277 104.047 392.818C104.047 391.389 104.762 390.48 105.898 390.48C106.807 390.48 107.363 390.99 107.527 391.617H108.547ZM115.145 389.684H114.137V393.422C114.137 394.529 113.527 395.191 112.414 395.191C111.406 395.191 110.984 394.664 110.984 393.527V389.684H109.977V393.773C109.977 395.268 110.715 396.111 112.133 396.111C113.1 396.111 113.773 395.713 114.09 395.01H114.184V396H115.145V389.684ZM117.043 396H118.051V392.086C118.051 391.195 118.748 390.551 119.709 390.551C119.908 390.551 120.271 390.586 120.354 390.609V389.602C120.225 389.584 120.014 389.572 119.85 389.572C119.012 389.572 118.285 390.006 118.098 390.621H118.004V389.684H117.043V396ZM125.621 394.365C125.357 394.922 124.807 395.221 123.992 395.221C122.92 395.221 122.223 394.43 122.17 393.182V393.135H126.711V392.748C126.711 390.785 125.674 389.572 123.969 389.572C122.234 389.572 121.121 390.861 121.121 392.848C121.121 394.846 122.217 396.111 123.969 396.111C125.352 396.111 126.336 395.443 126.629 394.365H125.621ZM123.957 390.463C124.959 390.463 125.627 391.201 125.65 392.32H122.17C122.246 391.201 122.949 390.463 123.957 390.463ZM133.438 396.111C134.281 396.111 134.973 395.742 135.383 395.068H135.477V396H136.438V391.676C136.438 390.363 135.576 389.572 134.035 389.572C132.688 389.572 131.691 390.24 131.557 391.254H132.576C132.717 390.756 133.244 390.469 134 390.469C134.943 390.469 135.43 390.896 135.43 391.676V392.25L133.607 392.361C132.137 392.449 131.305 393.1 131.305 394.23C131.305 395.385 132.213 396.111 133.438 396.111ZM133.625 395.227C132.893 395.227 132.348 394.852 132.348 394.207C132.348 393.574 132.77 393.24 133.73 393.176L135.43 393.064V393.645C135.43 394.547 134.662 395.227 133.625 395.227ZM143.41 389.684H142.402V393.422C142.402 394.529 141.793 395.191 140.68 395.191C139.672 395.191 139.25 394.664 139.25 393.527V389.684H138.242V393.773C138.242 395.268 138.98 396.111 140.398 396.111C141.365 396.111 142.039 395.713 142.355 395.01H142.449V396H143.41V389.684ZM145.73 388.049V389.684H144.711V390.527H145.73V394.359C145.73 395.566 146.252 396.047 147.553 396.047C147.752 396.047 147.945 396.023 148.145 395.988V395.139C147.957 395.156 147.857 395.162 147.676 395.162C147.02 395.162 146.738 394.846 146.738 394.102V390.527H148.145V389.684H146.738V388.049H145.73ZM149.727 396H150.734V392.262C150.734 391.195 151.355 390.48 152.486 390.48C153.441 390.48 153.945 391.037 153.945 392.156V396H154.953V391.91C154.953 390.428 154.109 389.572 152.773 389.572C151.807 389.572 151.145 389.982 150.828 390.68H150.734V387.176H149.727V396ZM160.977 394.365C160.713 394.922 160.162 395.221 159.348 395.221C158.275 395.221 157.578 394.43 157.525 393.182V393.135H162.066V392.748C162.066 390.785 161.029 389.572 159.324 389.572C157.59 389.572 156.477 390.861 156.477 392.848C156.477 394.846 157.572 396.111 159.324 396.111C160.707 396.111 161.691 395.443 161.984 394.365H160.977ZM159.312 390.463C160.314 390.463 160.982 391.201 161.006 392.32H157.525C157.602 391.201 158.305 390.463 159.312 390.463ZM163.648 396H164.656V392.262C164.656 391.154 165.307 390.48 166.314 390.48C167.322 390.48 167.803 391.02 167.803 392.156V396H168.811V391.91C168.811 390.41 168.02 389.572 166.602 389.572C165.635 389.572 165.02 389.982 164.703 390.68H164.609V389.684H163.648V396ZM171.078 388.049V389.684H170.059V390.527H171.078V394.359C171.078 395.566 171.6 396.047 172.9 396.047C173.1 396.047 173.293 396.023 173.492 395.988V395.139C173.305 395.156 173.205 395.162 173.023 395.162C172.367 395.162 172.086 394.846 172.086 394.102V390.527H173.492V389.684H172.086V388.049H171.078ZM175.543 388.465C175.93 388.465 176.246 388.148 176.246 387.762C176.246 387.375 175.93 387.059 175.543 387.059C175.156 387.059 174.84 387.375 174.84 387.762C174.84 388.148 175.156 388.465 175.543 388.465ZM175.039 396H176.047V389.684H175.039V396ZM183.195 391.617C183.02 390.492 182.082 389.572 180.547 389.572C178.777 389.572 177.652 390.85 177.652 392.818C177.652 394.828 178.783 396.111 180.553 396.111C182.07 396.111 183.014 395.256 183.195 394.096H182.176C181.988 394.811 181.396 395.203 180.547 395.203C179.422 395.203 178.695 394.277 178.695 392.818C178.695 391.389 179.41 390.48 180.547 390.48C181.455 390.48 182.012 390.99 182.176 391.617H183.195ZM186.441 396.111C187.285 396.111 187.977 395.742 188.387 395.068H188.48V396H189.441V391.676C189.441 390.363 188.58 389.572 187.039 389.572C185.691 389.572 184.695 390.24 184.561 391.254H185.58C185.721 390.756 186.248 390.469 187.004 390.469C187.947 390.469 188.434 390.896 188.434 391.676V392.25L186.611 392.361C185.141 392.449 184.309 393.1 184.309 394.23C184.309 395.385 185.217 396.111 186.441 396.111ZM186.629 395.227C185.896 395.227 185.352 394.852 185.352 394.207C185.352 393.574 185.773 393.24 186.734 393.176L188.434 393.064V393.645C188.434 394.547 187.666 395.227 186.629 395.227ZM191.727 388.049V389.684H190.707V390.527H191.727V394.359C191.727 395.566 192.248 396.047 193.549 396.047C193.748 396.047 193.941 396.023 194.141 395.988V395.139C193.953 395.156 193.854 395.162 193.672 395.162C193.016 395.162 192.734 394.846 192.734 394.102V390.527H194.141V389.684H192.734V388.049H191.727ZM196.191 388.465C196.578 388.465 196.895 388.148 196.895 387.762C196.895 387.375 196.578 387.059 196.191 387.059C195.805 387.059 195.488 387.375 195.488 387.762C195.488 388.148 195.805 388.465 196.191 388.465ZM195.688 396H196.695V389.684H195.688V396ZM201.213 396.111C203.012 396.111 204.125 394.869 204.125 392.842C204.125 390.809 203.012 389.572 201.213 389.572C199.414 389.572 198.301 390.809 198.301 392.842C198.301 394.869 199.414 396.111 201.213 396.111ZM201.213 395.203C200.018 395.203 199.344 394.336 199.344 392.842C199.344 391.342 200.018 390.48 201.213 390.48C202.408 390.48 203.082 391.342 203.082 392.842C203.082 394.336 202.408 395.203 201.213 395.203ZM205.707 396H206.715V392.262C206.715 391.154 207.365 390.48 208.373 390.48C209.381 390.48 209.861 391.02 209.861 392.156V396H210.869V391.91C210.869 390.41 210.078 389.572 208.66 389.572C207.693 389.572 207.078 389.982 206.762 390.68H206.668V389.684H205.707V396Z" fill="#2A2F45"/>
<rect x="48.5" y="352.5" width="183" height="63" rx="7.5" stroke="#E3E8EE"/>
<path d="M504 184C504 179.582 507.582 176 512 176H680C684.418 176 688 179.582 688 184V216C688 220.418 684.418 224 680 224H512C507.582 224 504 220.418 504 216V184Z" fill="#F8E5B9"/>
<path d="M536.234 201.791C536.346 203.25 537.582 204.199 539.375 204.199C541.309 204.199 542.533 203.209 542.533 201.656C542.533 200.414 541.83 199.734 540.078 199.295L539.193 199.061C538.027 198.762 537.564 198.381 537.564 197.719C537.564 196.863 538.309 196.301 539.434 196.301C540.488 196.301 541.203 196.816 541.35 197.684H542.41C542.322 196.318 541.104 195.346 539.469 195.346C537.682 195.346 536.48 196.318 536.48 197.754C536.48 198.955 537.143 199.646 538.672 200.033L539.756 200.314C540.922 200.607 541.449 201.064 541.449 201.785C541.449 202.623 540.611 203.238 539.475 203.238C538.273 203.238 537.43 202.676 537.301 201.791H536.234ZM548.346 202.365C548.082 202.922 547.531 203.221 546.717 203.221C545.645 203.221 544.947 202.43 544.895 201.182V201.135H549.436V200.748C549.436 198.785 548.398 197.572 546.693 197.572C544.959 197.572 543.846 198.861 543.846 200.848C543.846 202.846 544.941 204.111 546.693 204.111C548.076 204.111 549.061 203.443 549.354 202.365H548.346ZM546.682 198.463C547.684 198.463 548.352 199.201 548.375 200.32H544.895C544.971 199.201 545.674 198.463 546.682 198.463ZM551.439 196.049V197.684H550.42V198.527H551.439V202.359C551.439 203.566 551.961 204.047 553.262 204.047C553.461 204.047 553.654 204.023 553.854 203.988V203.139C553.666 203.156 553.566 203.162 553.385 203.162C552.729 203.162 552.447 202.846 552.447 202.102V198.527H553.854V197.684H552.447V196.049H551.439ZM560.486 197.684H559.479V201.422C559.479 202.529 558.869 203.191 557.756 203.191C556.748 203.191 556.326 202.664 556.326 201.527V197.684H555.318V201.773C555.318 203.268 556.057 204.111 557.475 204.111C558.441 204.111 559.115 203.713 559.432 203.01H559.525V204H560.486V197.684ZM565.461 197.572C564.6 197.572 563.844 198.012 563.439 198.738H563.346V197.684H562.385V206.109H563.393V203.051H563.486C563.832 203.719 564.559 204.111 565.461 204.111C567.066 204.111 568.115 202.816 568.115 200.842C568.115 198.855 567.072 197.572 565.461 197.572ZM565.221 203.203C564.084 203.203 563.363 202.289 563.363 200.842C563.363 199.389 564.084 198.48 565.227 198.48C566.381 198.48 567.072 199.365 567.072 200.842C567.072 202.318 566.381 203.203 565.221 203.203ZM573.084 204H574.092V200.086C574.092 199.195 574.789 198.551 575.75 198.551C575.949 198.551 576.312 198.586 576.395 198.609V197.602C576.266 197.584 576.055 197.572 575.891 197.572C575.053 197.572 574.326 198.006 574.139 198.621H574.045V197.684H573.084V204ZM581.662 202.365C581.398 202.922 580.848 203.221 580.033 203.221C578.961 203.221 578.264 202.43 578.211 201.182V201.135H582.752V200.748C582.752 198.785 581.715 197.572 580.01 197.572C578.275 197.572 577.162 198.861 577.162 200.848C577.162 202.846 578.258 204.111 580.01 204.111C581.393 204.111 582.377 203.443 582.67 202.365H581.662ZM579.998 198.463C581 198.463 581.668 199.201 581.691 200.32H578.211C578.287 199.201 578.99 198.463 579.998 198.463ZM586.66 197.572C585.061 197.572 584.018 198.861 584.018 200.842C584.018 202.834 585.049 204.111 586.66 204.111C587.551 204.111 588.23 203.742 588.635 203.051H588.729V206.109H589.748V197.684H588.775V198.738H588.682C588.307 198.029 587.521 197.572 586.66 197.572ZM586.889 203.203C585.74 203.203 585.061 202.324 585.061 200.842C585.061 199.365 585.746 198.48 586.895 198.48C588.037 198.48 588.758 199.395 588.758 200.842C588.758 202.295 588.043 203.203 586.889 203.203ZM596.756 197.684H595.748V201.422C595.748 202.529 595.139 203.191 594.025 203.191C593.018 203.191 592.596 202.664 592.596 201.527V197.684H591.588V201.773C591.588 203.268 592.326 204.111 593.744 204.111C594.711 204.111 595.385 203.713 595.701 203.01H595.795V204H596.756V197.684ZM599.182 196.465C599.568 196.465 599.885 196.148 599.885 195.762C599.885 195.375 599.568 195.059 599.182 195.059C598.795 195.059 598.479 195.375 598.479 195.762C598.479 196.148 598.795 196.465 599.182 196.465ZM598.678 204H599.686V197.684H598.678V204ZM601.607 204H602.615V200.086C602.615 199.195 603.312 198.551 604.273 198.551C604.473 198.551 604.836 198.586 604.918 198.609V197.602C604.789 197.584 604.578 197.572 604.414 197.572C603.576 197.572 602.85 198.006 602.662 198.621H602.568V197.684H601.607V204ZM610.186 202.365C609.922 202.922 609.371 203.221 608.557 203.221C607.484 203.221 606.787 202.43 606.734 201.182V201.135H611.275V200.748C611.275 198.785 610.238 197.572 608.533 197.572C606.799 197.572 605.686 198.861 605.686 200.848C605.686 202.846 606.781 204.111 608.533 204.111C609.916 204.111 610.9 203.443 611.193 202.365H610.186ZM608.521 198.463C609.523 198.463 610.191 199.201 610.215 200.32H606.734C606.811 199.201 607.514 198.463 608.521 198.463ZM612.711 199.412C612.711 200.326 613.25 200.836 614.434 201.123L615.518 201.387C616.191 201.551 616.52 201.844 616.52 202.277C616.52 202.857 615.91 203.262 615.061 203.262C614.252 203.262 613.748 202.922 613.578 202.389H612.541C612.652 203.438 613.619 204.111 615.025 204.111C616.461 204.111 617.557 203.332 617.557 202.201C617.557 201.293 616.982 200.777 615.793 200.49L614.82 200.256C614.076 200.074 613.725 199.805 613.725 199.371C613.725 198.809 614.311 198.428 615.061 198.428C615.822 198.428 616.314 198.762 616.449 199.266H617.445C617.311 198.229 616.391 197.572 615.066 197.572C613.725 197.572 612.711 198.363 612.711 199.412ZM624.283 204.111C625.127 204.111 625.818 203.742 626.229 203.068H626.322V204H627.283V199.676C627.283 198.363 626.422 197.572 624.881 197.572C623.533 197.572 622.537 198.24 622.402 199.254H623.422C623.562 198.756 624.09 198.469 624.846 198.469C625.789 198.469 626.275 198.896 626.275 199.676V200.25L624.453 200.361C622.982 200.449 622.15 201.1 622.15 202.23C622.15 203.385 623.059 204.111 624.283 204.111ZM624.471 203.227C623.738 203.227 623.193 202.852 623.193 202.207C623.193 201.574 623.615 201.24 624.576 201.176L626.275 201.064V201.645C626.275 202.547 625.508 203.227 624.471 203.227ZM634.373 199.617C634.197 198.492 633.26 197.572 631.725 197.572C629.955 197.572 628.83 198.85 628.83 200.818C628.83 202.828 629.961 204.111 631.73 204.111C633.248 204.111 634.191 203.256 634.373 202.096H633.354C633.166 202.811 632.574 203.203 631.725 203.203C630.6 203.203 629.873 202.277 629.873 200.818C629.873 199.389 630.588 198.48 631.725 198.48C632.633 198.48 633.189 198.99 633.354 199.617H634.373ZM636.4 196.049V197.684H635.381V198.527H636.4V202.359C636.4 203.566 636.922 204.047 638.223 204.047C638.422 204.047 638.615 204.023 638.814 203.988V203.139C638.627 203.156 638.527 203.162 638.346 203.162C637.689 203.162 637.408 202.846 637.408 202.102V198.527H638.814V197.684H637.408V196.049H636.4ZM640.865 196.465C641.252 196.465 641.568 196.148 641.568 195.762C641.568 195.375 641.252 195.059 640.865 195.059C640.479 195.059 640.162 195.375 640.162 195.762C640.162 196.148 640.479 196.465 640.865 196.465ZM640.361 204H641.369V197.684H640.361V204ZM645.887 204.111C647.686 204.111 648.799 202.869 648.799 200.842C648.799 198.809 647.686 197.572 645.887 197.572C644.088 197.572 642.975 198.809 642.975 200.842C642.975 202.869 644.088 204.111 645.887 204.111ZM645.887 203.203C644.691 203.203 644.018 202.336 644.018 200.842C644.018 199.342 644.691 198.48 645.887 198.48C647.082 198.48 647.756 199.342 647.756 200.842C647.756 202.336 647.082 203.203 645.887 203.203ZM650.381 204H651.389V200.262C651.389 199.154 652.039 198.48 653.047 198.48C654.055 198.48 654.535 199.02 654.535 200.156V204H655.543V199.91C655.543 198.41 654.752 197.572 653.334 197.572C652.367 197.572 651.752 197.982 651.436 198.68H651.342V197.684H650.381V204Z" fill="#2A2F45"/>
<path d="M596.75 232.5C596.75 232.086 596.414 231.75 596 231.75C595.586 231.75 595.25 232.086 595.25 232.5L596.75 232.5ZM595.47 248.03C595.763 248.323 596.237 248.323 596.53 248.03L601.303 243.257C601.596 242.964 601.596 242.49 601.303 242.197C601.01 241.904 600.536 241.904 600.243 242.197L596 246.439L591.757 242.197C591.464 241.904 590.99 241.904 590.697 242.197C590.404 242.49 590.404 242.964 590.697 243.257L595.47 248.03ZM595.25 232.5L595.25 247.5L596.75 247.5L596.75 232.5L595.25 232.5Z" fill="#8792A2"/>
<path d="M140.75 328.5C140.75 328.086 140.414 327.75 140 327.75C139.586 327.75 139.25 328.086 139.25 328.5L140.75 328.5ZM139.47 344.03C139.763 344.323 140.237 344.323 140.53 344.03L145.303 339.257C145.596 338.964 145.596 338.49 145.303 338.197C145.01 337.904 144.536 337.904 144.243 338.197L140 342.439L135.757 338.197C135.464 337.904 134.99 337.904 134.697 338.197C134.404 338.49 134.404 338.964 134.697 339.257L139.47 344.03ZM139.25 328.5L139.25 343.5L140.75 343.5L140.75 328.5L139.25 328.5Z" fill="#8792A2"/>
<path d="M495.5 288.75C495.914 288.75 496.25 288.414 496.25 288C496.25 287.586 495.914 287.25 495.5 287.25L495.5 288.75ZM239.97 287.47C239.677 287.763 239.677 288.237 239.97 288.53L244.743 293.303C245.036 293.596 245.51 293.596 245.803 293.303C246.096 293.01 246.096 292.536 245.803 292.243L241.561 288L245.803 283.757C246.096 283.464 246.096 282.99 245.803 282.697C245.51 282.404 245.036 282.404 244.743 282.697L239.97 287.47ZM495.5 287.25L240.5 287.25L240.5 288.75L495.5 288.75L495.5 287.25Z" fill="#8792A2"/>
<path d="M596.75 152.5C596.75 152.086 596.414 151.75 596 151.75C595.586 151.75 595.25 152.086 595.25 152.5L596.75 152.5ZM595.47 168.03C595.763 168.323 596.237 168.323 596.53 168.03L601.303 163.257C601.596 162.964 601.596 162.49 601.303 162.197C601.01 161.904 600.536 161.904 600.243 162.197L596 166.439L591.757 162.197C591.464 161.904 590.99 161.904 590.697 162.197C590.404 162.49 590.404 162.964 590.697 163.257L595.47 168.03ZM595.25 152.5L595.25 167.5L596.75 167.5L596.75 152.5L595.25 152.5Z" fill="#8792A2"/>
<defs>
<clipPath id="clip0">
<path d="M0 0H736V464H0V0Z" fill="white"/>
</clipPath>
</defs>
</svg>
