<svg width="448" height="240" viewBox="0 0 448 240" fill="none" xmlns="http://www.w3.org/2000/svg">
<g clip-path="url(#clip0)">
<path d="M0 0H448V240H0V0Z" fill="white"/>
<path d="M0 0L448 -3.91654e-05" stroke="#E3E8EE" stroke-width="2" stroke-linecap="round" stroke-linejoin="round" stroke-dasharray="0.01 16"/>
<path d="M0 16L448 16" stroke="#E3E8EE" stroke-width="2" stroke-linecap="round" stroke-linejoin="round" stroke-dasharray="0.01 16"/>
<path d="M0 32L448 32" stroke="#E3E8EE" stroke-width="2" stroke-linecap="round" stroke-linejoin="round" stroke-dasharray="0.01 16"/>
<path d="M0 48L448 48" stroke="#E3E8EE" stroke-width="2" stroke-linecap="round" stroke-linejoin="round" stroke-dasharray="0.01 16"/>
<path d="M0 64L448 64" stroke="#E3E8EE" stroke-width="2" stroke-linecap="round" stroke-linejoin="round" stroke-dasharray="0.01 16"/>
<path d="M0 80L448 80" stroke="#E3E8EE" stroke-width="2" stroke-linecap="round" stroke-linejoin="round" stroke-dasharray="0.01 16"/>
<path d="M0 96L448 96" stroke="#E3E8EE" stroke-width="2" stroke-linecap="round" stroke-linejoin="round" stroke-dasharray="0.01 16"/>
<path d="M0 112L448 112" stroke="#E3E8EE" stroke-width="2" stroke-linecap="round" stroke-linejoin="round" stroke-dasharray="0.01 16"/>
<path d="M0 128L448 128" stroke="#E3E8EE" stroke-width="2" stroke-linecap="round" stroke-linejoin="round" stroke-dasharray="0.01 16"/>
<path d="M0 144L448 144" stroke="#E3E8EE" stroke-width="2" stroke-linecap="round" stroke-linejoin="round" stroke-dasharray="0.01 16"/>
<path d="M0 160L448 160" stroke="#E3E8EE" stroke-width="2" stroke-linecap="round" stroke-linejoin="round" stroke-dasharray="0.01 16"/>
<path d="M0 176L448 176" stroke="#E3E8EE" stroke-width="2" stroke-linecap="round" stroke-linejoin="round" stroke-dasharray="0.01 16"/>
<path d="M0 192L448 192" stroke="#E3E8EE" stroke-width="2" stroke-linecap="round" stroke-linejoin="round" stroke-dasharray="0.01 16"/>
<path d="M0 208L448 208" stroke="#E3E8EE" stroke-width="2" stroke-linecap="round" stroke-linejoin="round" stroke-dasharray="0.01 16"/>
<path d="M0 224L448 224" stroke="#E3E8EE" stroke-width="2" stroke-linecap="round" stroke-linejoin="round" stroke-dasharray="0.01 16"/>
<path d="M0 240L448 240" stroke="#E3E8EE" stroke-width="2" stroke-linecap="round" stroke-linejoin="round" stroke-dasharray="0.01 16"/>
<rect x="0.5" y="0.5" width="447" height="239" stroke="white"/>
</g>
<rect x="30" y="134" width="396" height="76" fill="white"/>
<path d="M42.4375 154V142.727H41.0312V147.602H34.8438V142.727H33.4375V154H34.8438V148.867H41.0312V154H42.4375ZM48.6016 154.148C51 154.148 52.4844 152.492 52.4844 149.789C52.4844 147.078 51 145.43 48.6016 145.43C46.2031 145.43 44.7188 147.078 44.7188 149.789C44.7188 152.492 46.2031 154.148 48.6016 154.148ZM48.6016 152.938C47.0078 152.938 46.1094 151.781 46.1094 149.789C46.1094 147.789 47.0078 146.641 48.6016 146.641C50.1953 146.641 51.0938 147.789 51.0938 149.789C51.0938 151.781 50.1953 152.938 48.6016 152.938ZM54.6719 154H56.0156V142.234H54.6719V154ZM61.7422 154.148C62.9062 154.148 63.9062 153.594 64.4375 152.656H64.5625V154H65.8438V142.234H64.5V146.906H64.3828C63.9062 145.984 62.9141 145.43 61.7422 145.43C59.6016 145.43 58.2031 147.148 58.2031 149.789C58.2031 152.438 59.5859 154.148 61.7422 154.148ZM62.0547 146.641C63.5781 146.641 64.5312 147.859 64.5312 149.789C64.5312 151.734 63.5859 152.938 62.0547 152.938C60.5156 152.938 59.5938 151.758 59.5938 149.789C59.5938 147.828 60.5234 146.641 62.0547 146.641ZM73.5312 143.398V145.578H72.1719V146.703H73.5312V151.812C73.5312 153.422 74.2266 154.062 75.9609 154.062C76.2266 154.062 76.4844 154.031 76.75 153.984V152.852C76.5 152.875 76.3672 152.883 76.125 152.883C75.25 152.883 74.875 152.461 74.875 151.469V146.703H76.75V145.578H74.875V143.398H73.5312ZM79.4844 143.953C80 143.953 80.4219 143.531 80.4219 143.016C80.4219 142.5 80 142.078 79.4844 142.078C78.9688 142.078 78.5469 142.5 78.5469 143.016C78.5469 143.531 78.9688 143.953 79.4844 143.953ZM78.8125 154H80.1562V145.578H78.8125V154ZM86.1875 157.234C88.4844 157.234 89.9375 156.031 89.9375 154.148V145.578H88.6562V146.914H88.5312C88.0469 146.008 87.0078 145.43 85.8281 145.43C83.6641 145.43 82.2969 147.141 82.2969 149.664C82.2969 152.188 83.6484 153.875 85.8281 153.875C86.9844 153.875 87.9375 153.352 88.4688 152.422H88.5938V154.078C88.5938 155.32 87.6953 156.062 86.1875 156.062C84.9766 156.062 84.2266 155.617 84.0781 154.93H82.6562C82.8594 156.32 84.1562 157.234 86.1875 157.234ZM86.125 152.688C84.5625 152.688 83.6875 151.5 83.6875 149.664C83.6875 147.828 84.5625 146.641 86.125 146.641C87.6797 146.641 88.625 147.828 88.625 149.664C88.625 151.5 87.6875 152.688 86.125 152.688ZM92.5469 154H93.8906V149.016C93.8906 147.594 94.7188 146.641 96.2266 146.641C97.5 146.641 98.1719 147.383 98.1719 148.875V154H99.5156V148.547C99.5156 146.57 98.3906 145.43 96.6094 145.43C95.3203 145.43 94.4375 145.977 94.0156 146.906H93.8906V142.234H92.5469V154ZM102.531 143.398V145.578H101.172V146.703H102.531V151.812C102.531 153.422 103.227 154.062 104.961 154.062C105.227 154.062 105.484 154.031 105.75 153.984V152.852C105.5 152.875 105.367 152.883 105.125 152.883C104.25 152.883 103.875 152.461 103.875 151.469V146.703H105.75V145.578H103.875V143.398H102.531ZM108.633 156.867L109.859 152.422H108.367L107.625 156.867H108.633ZM127.641 145.578H126.289L124.633 152.312H124.508L122.625 145.578H121.336L119.453 152.312H119.328L117.672 145.578H116.312L118.672 154H120.031L121.906 147.484H122.031L123.914 154H125.281L127.641 145.578ZM134.703 151.82C134.352 152.562 133.617 152.961 132.531 152.961C131.102 152.961 130.172 151.906 130.102 150.242V150.18H136.156V149.664C136.156 147.047 134.773 145.43 132.5 145.43C130.188 145.43 128.703 147.148 128.703 149.797C128.703 152.461 130.164 154.148 132.5 154.148C134.344 154.148 135.656 153.258 136.047 151.82H134.703ZM132.484 146.617C133.82 146.617 134.711 147.602 134.742 149.094H130.102C130.203 147.602 131.141 146.617 132.484 146.617ZM139.102 146.938L140.516 142.727H138.992L138.125 146.938H139.102ZM142.906 154H144.25V148.781C144.25 147.594 145.18 146.734 146.461 146.734C146.727 146.734 147.211 146.781 147.32 146.812V145.469C147.148 145.445 146.867 145.43 146.648 145.43C145.531 145.43 144.562 146.008 144.312 146.828H144.188V145.578H142.906V154ZM154.344 151.82C153.992 152.562 153.258 152.961 152.172 152.961C150.742 152.961 149.812 151.906 149.742 150.242V150.18H155.797V149.664C155.797 147.047 154.414 145.43 152.141 145.43C149.828 145.43 148.344 147.148 148.344 149.797C148.344 152.461 149.805 154.148 152.141 154.148C153.984 154.148 155.297 153.258 155.688 151.82H154.344ZM152.125 146.617C153.461 146.617 154.352 147.602 154.383 149.094H149.742C149.844 147.602 150.781 146.617 152.125 146.617ZM162.227 147.883C162.227 149.102 162.945 149.781 164.523 150.164L165.969 150.516C166.867 150.734 167.305 151.125 167.305 151.703C167.305 152.477 166.492 153.016 165.359 153.016C164.281 153.016 163.609 152.562 163.383 151.852H162C162.148 153.25 163.438 154.148 165.312 154.148C167.227 154.148 168.688 153.109 168.688 151.602C168.688 150.391 167.922 149.703 166.336 149.32L165.039 149.008C164.047 148.766 163.578 148.406 163.578 147.828C163.578 147.078 164.359 146.57 165.359 146.57C166.375 146.57 167.031 147.016 167.211 147.688H168.539C168.359 146.305 167.133 145.43 165.367 145.43C163.578 145.43 162.227 146.484 162.227 147.883ZM176.375 151.82C176.023 152.562 175.289 152.961 174.203 152.961C172.773 152.961 171.844 151.906 171.773 150.242V150.18H177.828V149.664C177.828 147.047 176.445 145.43 174.172 145.43C171.859 145.43 170.375 147.148 170.375 149.797C170.375 152.461 171.836 154.148 174.172 154.148C176.016 154.148 177.328 153.258 177.719 151.82H176.375ZM174.156 146.617C175.492 146.617 176.383 147.602 176.414 149.094H171.773C171.875 147.602 172.812 146.617 174.156 146.617ZM180.5 143.398V145.578H179.141V146.703H180.5V151.812C180.5 153.422 181.195 154.062 182.93 154.062C183.195 154.062 183.453 154.031 183.719 153.984V152.852C183.469 152.875 183.336 152.883 183.094 152.883C182.219 152.883 181.844 152.461 181.844 151.469V146.703H183.719V145.578H181.844V143.398H180.5ZM186.312 143.398V145.578H184.953V146.703H186.312V151.812C186.312 153.422 187.008 154.062 188.742 154.062C189.008 154.062 189.266 154.031 189.531 153.984V152.852C189.281 152.875 189.148 152.883 188.906 152.883C188.031 152.883 187.656 152.461 187.656 151.469V146.703H189.531V145.578H187.656V143.398H186.312ZM192.266 143.953C192.781 143.953 193.203 143.531 193.203 143.016C193.203 142.5 192.781 142.078 192.266 142.078C191.75 142.078 191.328 142.5 191.328 143.016C191.328 143.531 191.75 143.953 192.266 143.953ZM191.594 154H192.938V145.578H191.594V154ZM195.5 154H196.844V149.016C196.844 147.539 197.711 146.641 199.055 146.641C200.398 146.641 201.039 147.359 201.039 148.875V154H202.383V148.547C202.383 146.547 201.328 145.43 199.438 145.43C198.148 145.43 197.328 145.977 196.906 146.906H196.781V145.578H195.5V154ZM208.312 157.234C210.609 157.234 212.062 156.031 212.062 154.148V145.578H210.781V146.914H210.656C210.172 146.008 209.133 145.43 207.953 145.43C205.789 145.43 204.422 147.141 204.422 149.664C204.422 152.188 205.773 153.875 207.953 153.875C209.109 153.875 210.062 153.352 210.594 152.422H210.719V154.078C210.719 155.32 209.82 156.062 208.312 156.062C207.102 156.062 206.352 155.617 206.203 154.93H204.781C204.984 156.32 206.281 157.234 208.312 157.234ZM208.25 152.688C206.688 152.688 205.812 151.5 205.812 149.664C205.812 147.828 206.688 146.641 208.25 146.641C209.805 146.641 210.75 147.828 210.75 149.664C210.75 151.5 209.812 152.688 208.25 152.688ZM225.922 145.578H224.578V150.562C224.578 152.039 223.766 152.922 222.281 152.922C220.938 152.922 220.375 152.219 220.375 150.703V145.578H219.031V151.031C219.031 153.023 220.016 154.148 221.906 154.148C223.195 154.148 224.094 153.617 224.516 152.68H224.641V154H225.922V145.578ZM232.555 145.43C231.406 145.43 230.398 146.016 229.859 146.984H229.734V145.578H228.453V156.812H229.797V152.734H229.922C230.383 153.625 231.352 154.148 232.555 154.148C234.695 154.148 236.094 152.422 236.094 149.789C236.094 147.141 234.703 145.43 232.555 145.43ZM232.234 152.938C230.719 152.938 229.758 151.719 229.758 149.789C229.758 147.852 230.719 146.641 232.242 146.641C233.781 146.641 234.703 147.82 234.703 149.789C234.703 151.758 233.781 152.938 232.234 152.938ZM243.438 157.047C244.93 157.047 245.602 156.469 246.32 154.516L249.609 145.578H248.18L245.875 152.508H245.75L243.438 145.578H241.984L245.102 154.008L244.945 154.508C244.594 155.523 244.172 155.891 243.398 155.891C243.211 155.891 243 155.883 242.836 155.852V157C243.023 157.031 243.258 157.047 243.438 157.047ZM254.555 154.148C256.953 154.148 258.438 152.492 258.438 149.789C258.438 147.078 256.953 145.43 254.555 145.43C252.156 145.43 250.672 147.078 250.672 149.789C250.672 152.492 252.156 154.148 254.555 154.148ZM254.555 152.938C252.961 152.938 252.062 151.781 252.062 149.789C252.062 147.789 252.961 146.641 254.555 146.641C256.148 146.641 257.047 147.789 257.047 149.789C257.047 151.781 256.148 152.938 254.555 152.938ZM267.359 145.578H266.016V150.562C266.016 152.039 265.203 152.922 263.719 152.922C262.375 152.922 261.812 152.219 261.812 150.703V145.578H260.469V151.031C260.469 153.023 261.453 154.148 263.344 154.148C264.633 154.148 265.531 153.617 265.953 152.68H266.078V154H267.359V145.578ZM269.891 154H271.234V148.781C271.234 147.594 272.164 146.734 273.445 146.734C273.711 146.734 274.195 146.781 274.305 146.812V145.469C274.133 145.445 273.852 145.43 273.633 145.43C272.516 145.43 271.547 146.008 271.297 146.828H271.172V145.578H269.891V154ZM284.602 145.43C283.453 145.43 282.445 146.016 281.906 146.984H281.781V145.578H280.5V156.812H281.844V152.734H281.969C282.43 153.625 283.398 154.148 284.602 154.148C286.742 154.148 288.141 152.422 288.141 149.789C288.141 147.141 286.75 145.43 284.602 145.43ZM284.281 152.938C282.766 152.938 281.805 151.719 281.805 149.789C281.805 147.852 282.766 146.641 284.289 146.641C285.828 146.641 286.75 147.82 286.75 149.789C286.75 151.758 285.828 152.938 284.281 152.938ZM292.594 154.148C293.719 154.148 294.641 153.656 295.188 152.758H295.312V154H296.594V148.234C296.594 146.484 295.445 145.43 293.391 145.43C291.594 145.43 290.266 146.32 290.086 147.672H291.445C291.633 147.008 292.336 146.625 293.344 146.625C294.602 146.625 295.25 147.195 295.25 148.234V149L292.82 149.148C290.859 149.266 289.75 150.133 289.75 151.641C289.75 153.18 290.961 154.148 292.594 154.148ZM292.844 152.969C291.867 152.969 291.141 152.469 291.141 151.609C291.141 150.766 291.703 150.32 292.984 150.234L295.25 150.086V150.859C295.25 152.062 294.227 152.969 292.844 152.969ZM299.484 157.047C300.977 157.047 301.648 156.469 302.367 154.516L305.656 145.578H304.227L301.922 152.508H301.797L299.484 145.578H298.031L301.148 154.008L300.992 154.508C300.641 155.523 300.219 155.891 299.445 155.891C299.258 155.891 299.047 155.883 298.883 155.852V157C299.07 157.031 299.305 157.047 299.484 157.047ZM307.453 154H308.797V148.781C308.797 147.594 309.648 146.641 310.75 146.641C311.812 146.641 312.508 147.281 312.508 148.281V154H313.852V148.586C313.852 147.516 314.633 146.641 315.805 146.641C316.992 146.641 317.578 147.25 317.578 148.492V154H318.922V148.18C318.922 146.414 317.961 145.43 316.242 145.43C315.078 145.43 314.117 146.016 313.664 146.906H313.539C313.148 146.031 312.352 145.43 311.211 145.43C310.086 145.43 309.242 145.969 308.859 146.906H308.734V145.578H307.453V154ZM326.953 151.82C326.602 152.562 325.867 152.961 324.781 152.961C323.352 152.961 322.422 151.906 322.352 150.242V150.18H328.406V149.664C328.406 147.047 327.023 145.43 324.75 145.43C322.438 145.43 320.953 147.148 320.953 149.797C320.953 152.461 322.414 154.148 324.75 154.148C326.594 154.148 327.906 153.258 328.297 151.82H326.953ZM324.734 146.617C326.07 146.617 326.961 147.602 326.992 149.094H322.352C322.453 147.602 323.391 146.617 324.734 146.617ZM330.516 154H331.859V149.016C331.859 147.539 332.727 146.641 334.07 146.641C335.414 146.641 336.055 147.359 336.055 148.875V154H337.398V148.547C337.398 146.547 336.344 145.43 334.453 145.43C333.164 145.43 332.344 145.977 331.922 146.906H331.797V145.578H330.516V154ZM340.422 143.398V145.578H339.062V146.703H340.422V151.812C340.422 153.422 341.117 154.062 342.852 154.062C343.117 154.062 343.375 154.031 343.641 153.984V152.852C343.391 152.875 343.258 152.883 343.016 152.883C342.141 152.883 341.766 152.461 341.766 151.469V146.703H343.641V145.578H341.766V143.398H340.422ZM350.188 154H351.531V148.781C351.531 147.594 352.383 146.641 353.484 146.641C354.547 146.641 355.242 147.281 355.242 148.281V154H356.586V148.586C356.586 147.516 357.367 146.641 358.539 146.641C359.727 146.641 360.312 147.25 360.312 148.492V154H361.656V148.18C361.656 146.414 360.695 145.43 358.977 145.43C357.812 145.43 356.852 146.016 356.398 146.906H356.273C355.883 146.031 355.086 145.43 353.945 145.43C352.82 145.43 351.977 145.969 351.594 146.906H351.469V145.578H350.188V154ZM369.688 151.82C369.336 152.562 368.602 152.961 367.516 152.961C366.086 152.961 365.156 151.906 365.086 150.242V150.18H371.141V149.664C371.141 147.047 369.758 145.43 367.484 145.43C365.172 145.43 363.688 147.148 363.688 149.797C363.688 152.461 365.148 154.148 367.484 154.148C369.328 154.148 370.641 153.258 371.031 151.82H369.688ZM367.469 146.617C368.805 146.617 369.695 147.602 369.727 149.094H365.086C365.188 147.602 366.125 146.617 367.469 146.617ZM373.812 143.398V145.578H372.453V146.703H373.812V151.812C373.812 153.422 374.508 154.062 376.242 154.062C376.508 154.062 376.766 154.031 377.031 153.984V152.852C376.781 152.875 376.648 152.883 376.406 152.883C375.531 152.883 375.156 152.461 375.156 151.469V146.703H377.031V145.578H375.156V143.398H373.812ZM379.141 154H380.484V149.016C380.484 147.594 381.312 146.641 382.82 146.641C384.094 146.641 384.766 147.383 384.766 148.875V154H386.109V148.547C386.109 146.57 384.984 145.43 383.203 145.43C381.914 145.43 381.031 145.977 380.609 146.906H380.484V142.234H379.141V154ZM392.023 154.148C394.422 154.148 395.906 152.492 395.906 149.789C395.906 147.078 394.422 145.43 392.023 145.43C389.625 145.43 388.141 147.078 388.141 149.789C388.141 152.492 389.625 154.148 392.023 154.148ZM392.023 152.938C390.43 152.938 389.531 151.781 389.531 149.789C389.531 147.789 390.43 146.641 392.023 146.641C393.617 146.641 394.516 147.789 394.516 149.789C394.516 151.781 393.617 152.938 392.023 152.938ZM401.133 154.148C402.297 154.148 403.297 153.594 403.828 152.656H403.953V154H405.234V142.234H403.891V146.906H403.773C403.297 145.984 402.305 145.43 401.133 145.43C398.992 145.43 397.594 147.148 397.594 149.789C397.594 152.438 398.977 154.148 401.133 154.148ZM401.445 146.641C402.969 146.641 403.922 147.859 403.922 149.789C403.922 151.734 402.977 152.938 401.445 152.938C399.906 152.938 398.984 151.758 398.984 149.789C398.984 147.828 399.914 146.641 401.445 146.641ZM33.8281 178H35.1719V170.703H37.1016V169.578H35.1719V168.68C35.1719 167.758 35.5781 167.289 36.5469 167.289C36.7891 167.289 37.0156 167.297 37.1797 167.328V166.234C36.8984 166.18 36.6016 166.156 36.2734 166.156C34.6719 166.156 33.8281 166.961 33.8281 168.641V169.578H32.4297V170.703H33.8281V178ZM42.1641 178.148C44.5625 178.148 46.0469 176.492 46.0469 173.789C46.0469 171.078 44.5625 169.43 42.1641 169.43C39.7656 169.43 38.2812 171.078 38.2812 173.789C38.2812 176.492 39.7656 178.148 42.1641 178.148ZM42.1641 176.938C40.5703 176.938 39.6719 175.781 39.6719 173.789C39.6719 171.789 40.5703 170.641 42.1641 170.641C43.7578 170.641 44.6562 171.789 44.6562 173.789C44.6562 175.781 43.7578 176.938 42.1641 176.938ZM48.1562 178H49.5V172.781C49.5 171.594 50.4297 170.734 51.7109 170.734C51.9766 170.734 52.4609 170.781 52.5703 170.812V169.469C52.3984 169.445 52.1172 169.43 51.8984 169.43C50.7812 169.43 49.8125 170.008 49.5625 170.828H49.4375V169.578H48.1562V178ZM59.3281 178H60.6719V170.703H62.6016V169.578H60.6719V168.68C60.6719 167.758 61.0781 167.289 62.0469 167.289C62.2891 167.289 62.5156 167.297 62.6797 167.328V166.234C62.3984 166.18 62.1016 166.156 61.7734 166.156C60.1719 166.156 59.3281 166.961 59.3281 168.641V169.578H57.9297V170.703H59.3281V178ZM71.375 169.578H70.0312V174.562C70.0312 176.039 69.2188 176.922 67.7344 176.922C66.3906 176.922 65.8281 176.219 65.8281 174.703V169.578H64.4844V175.031C64.4844 177.023 65.4688 178.148 67.3594 178.148C68.6484 178.148 69.5469 177.617 69.9688 176.68H70.0938V178H71.375V169.578ZM74.4688 167.398V169.578H73.1094V170.703H74.4688V175.812C74.4688 177.422 75.1641 178.062 76.8984 178.062C77.1641 178.062 77.4219 178.031 77.6875 177.984V176.852C77.4375 176.875 77.3047 176.883 77.0625 176.883C76.1875 176.883 75.8125 176.461 75.8125 175.469V170.703H77.6875V169.578H75.8125V167.398H74.4688ZM86.5312 169.578H85.1875V174.562C85.1875 176.039 84.375 176.922 82.8906 176.922C81.5469 176.922 80.9844 176.219 80.9844 174.703V169.578H79.6406V175.031C79.6406 177.023 80.625 178.148 82.5156 178.148C83.8047 178.148 84.7031 177.617 85.125 176.68H85.25V178H86.5312V169.578ZM89.0625 178H90.4062V172.781C90.4062 171.594 91.3359 170.734 92.6172 170.734C92.8828 170.734 93.3672 170.781 93.4766 170.812V169.469C93.3047 169.445 93.0234 169.43 92.8047 169.43C91.6875 169.43 90.7188 170.008 90.4688 170.828H90.3438V169.578H89.0625V178ZM100.5 175.82C100.148 176.562 99.4141 176.961 98.3281 176.961C96.8984 176.961 95.9688 175.906 95.8984 174.242V174.18H101.953V173.664C101.953 171.047 100.57 169.43 98.2969 169.43C95.9844 169.43 94.5 171.148 94.5 173.797C94.5 176.461 95.9609 178.148 98.2969 178.148C100.141 178.148 101.453 177.258 101.844 175.82H100.5ZM98.2812 170.617C99.6172 170.617 100.508 171.602 100.539 173.094H95.8984C96 171.602 96.9375 170.617 98.2812 170.617ZM112.68 169.43C111.531 169.43 110.523 170.016 109.984 170.984H109.859V169.578H108.578V180.812H109.922V176.734H110.047C110.508 177.625 111.477 178.148 112.68 178.148C114.82 178.148 116.219 176.422 116.219 173.789C116.219 171.141 114.828 169.43 112.68 169.43ZM112.359 176.938C110.844 176.938 109.883 175.719 109.883 173.789C109.883 171.852 110.844 170.641 112.367 170.641C113.906 170.641 114.828 171.82 114.828 173.789C114.828 175.758 113.906 176.938 112.359 176.938ZM120.672 178.148C121.797 178.148 122.719 177.656 123.266 176.758H123.391V178H124.672V172.234C124.672 170.484 123.523 169.43 121.469 169.43C119.672 169.43 118.344 170.32 118.164 171.672H119.523C119.711 171.008 120.414 170.625 121.422 170.625C122.68 170.625 123.328 171.195 123.328 172.234V173L120.898 173.148C118.938 173.266 117.828 174.133 117.828 175.641C117.828 177.18 119.039 178.148 120.672 178.148ZM120.922 176.969C119.945 176.969 119.219 176.469 119.219 175.609C119.219 174.766 119.781 174.32 121.062 174.234L123.328 174.086V174.859C123.328 176.062 122.305 176.969 120.922 176.969ZM127.562 181.047C129.055 181.047 129.727 180.469 130.445 178.516L133.734 169.578H132.305L130 176.508H129.875L127.562 169.578H126.109L129.227 178.008L129.07 178.508C128.719 179.523 128.297 179.891 127.523 179.891C127.336 179.891 127.125 179.883 126.961 179.852V181C127.148 181.031 127.383 181.047 127.562 181.047ZM135.531 178H136.875V172.781C136.875 171.594 137.727 170.641 138.828 170.641C139.891 170.641 140.586 171.281 140.586 172.281V178H141.93V172.586C141.93 171.516 142.711 170.641 143.883 170.641C145.07 170.641 145.656 171.25 145.656 172.492V178H147V172.18C147 170.414 146.039 169.43 144.32 169.43C143.156 169.43 142.195 170.016 141.742 170.906H141.617C141.227 170.031 140.43 169.43 139.289 169.43C138.164 169.43 137.32 169.969 136.938 170.906H136.812V169.578H135.531V178ZM155.031 175.82C154.68 176.562 153.945 176.961 152.859 176.961C151.43 176.961 150.5 175.906 150.43 174.242V174.18H156.484V173.664C156.484 171.047 155.102 169.43 152.828 169.43C150.516 169.43 149.031 171.148 149.031 173.797C149.031 176.461 150.492 178.148 152.828 178.148C154.672 178.148 155.984 177.258 156.375 175.82H155.031ZM152.812 170.617C154.148 170.617 155.039 171.602 155.07 173.094H150.43C150.531 171.602 151.469 170.617 152.812 170.617ZM158.594 178H159.938V173.016C159.938 171.539 160.805 170.641 162.148 170.641C163.492 170.641 164.133 171.359 164.133 172.875V178H165.477V172.547C165.477 170.547 164.422 169.43 162.531 169.43C161.242 169.43 160.422 169.977 160 170.906H159.875V169.578H158.594V178ZM168.5 167.398V169.578H167.141V170.703H168.5V175.812C168.5 177.422 169.195 178.062 170.93 178.062C171.195 178.062 171.453 178.031 171.719 177.984V176.852C171.469 176.875 171.336 176.883 171.094 176.883C170.219 176.883 169.844 176.461 169.844 175.469V170.703H171.719V169.578H169.844V167.398H168.5ZM173.398 171.883C173.398 173.102 174.117 173.781 175.695 174.164L177.141 174.516C178.039 174.734 178.477 175.125 178.477 175.703C178.477 176.477 177.664 177.016 176.531 177.016C175.453 177.016 174.781 176.562 174.555 175.852H173.172C173.32 177.25 174.609 178.148 176.484 178.148C178.398 178.148 179.859 177.109 179.859 175.602C179.859 174.391 179.094 173.703 177.508 173.32L176.211 173.008C175.219 172.766 174.75 172.406 174.75 171.828C174.75 171.078 175.531 170.57 176.531 170.57C177.547 170.57 178.203 171.016 178.383 171.688H179.711C179.531 170.305 178.305 169.43 176.539 169.43C174.75 169.43 173.398 170.484 173.398 171.883ZM183.078 178.078C183.641 178.078 184.094 177.617 184.094 177.062C184.094 176.5 183.641 176.047 183.078 176.047C182.523 176.047 182.062 176.5 182.062 177.062C182.062 177.617 182.523 178.078 183.078 178.078ZM197.664 169.102H197.758L200.352 178H201.68L204.75 166.727H203.281L201.039 175.891H200.945L198.422 166.727H197L194.477 175.891H194.383L192.141 166.727H190.672L193.742 178H195.07L197.664 169.102ZM211.516 175.82C211.164 176.562 210.43 176.961 209.344 176.961C207.914 176.961 206.984 175.906 206.914 174.242V174.18H212.969V173.664C212.969 171.047 211.586 169.43 209.312 169.43C207 169.43 205.516 171.148 205.516 173.797C205.516 176.461 206.977 178.148 209.312 178.148C211.156 178.148 212.469 177.258 212.859 175.82H211.516ZM209.297 170.617C210.633 170.617 211.523 171.602 211.555 173.094H206.914C207.016 171.602 207.953 170.617 209.297 170.617ZM215.914 170.938L217.328 166.727H215.805L214.938 170.938H215.914ZM219.797 178H221.141V166.234H219.797V178ZM223.828 178H225.172V166.234H223.828V178ZM237.875 175.82C237.523 176.562 236.789 176.961 235.703 176.961C234.273 176.961 233.344 175.906 233.273 174.242V174.18H239.328V173.664C239.328 171.047 237.945 169.43 235.672 169.43C233.359 169.43 231.875 171.148 231.875 173.797C231.875 176.461 233.336 178.148 235.672 178.148C237.516 178.148 238.828 177.258 239.219 175.82H237.875ZM235.656 170.617C236.992 170.617 237.883 171.602 237.914 173.094H233.273C233.375 171.602 234.312 170.617 235.656 170.617ZM241.438 178H242.781V172.781C242.781 171.594 243.633 170.641 244.734 170.641C245.797 170.641 246.492 171.281 246.492 172.281V178H247.836V172.586C247.836 171.516 248.617 170.641 249.789 170.641C250.977 170.641 251.562 171.25 251.562 172.492V178H252.906V172.18C252.906 170.414 251.945 169.43 250.227 169.43C249.062 169.43 248.102 170.016 247.648 170.906H247.523C247.133 170.031 246.336 169.43 245.195 169.43C244.07 169.43 243.227 169.969 242.844 170.906H242.719V169.578H241.438V178ZM257.703 178.148C258.828 178.148 259.75 177.656 260.297 176.758H260.422V178H261.703V172.234C261.703 170.484 260.555 169.43 258.5 169.43C256.703 169.43 255.375 170.32 255.195 171.672H256.555C256.742 171.008 257.445 170.625 258.453 170.625C259.711 170.625 260.359 171.195 260.359 172.234V173L257.93 173.148C255.969 173.266 254.859 174.133 254.859 175.641C254.859 177.18 256.07 178.148 257.703 178.148ZM257.953 176.969C256.977 176.969 256.25 176.469 256.25 175.609C256.25 174.766 256.812 174.32 258.094 174.234L260.359 174.086V174.859C260.359 176.062 259.336 176.969 257.953 176.969ZM264.891 167.953C265.406 167.953 265.828 167.531 265.828 167.016C265.828 166.5 265.406 166.078 264.891 166.078C264.375 166.078 263.953 166.5 263.953 167.016C263.953 167.531 264.375 167.953 264.891 167.953ZM264.219 178H265.562V169.578H264.219V178ZM268.203 178H269.547V166.234H268.203V178ZM277.391 181.047C278.883 181.047 279.555 180.469 280.273 178.516L283.562 169.578H282.133L279.828 176.508H279.703L277.391 169.578H275.938L279.055 178.008L278.898 178.508C278.547 179.523 278.125 179.891 277.352 179.891C277.164 179.891 276.953 179.883 276.789 179.852V181C276.977 181.031 277.211 181.047 277.391 181.047ZM288.508 178.148C290.906 178.148 292.391 176.492 292.391 173.789C292.391 171.078 290.906 169.43 288.508 169.43C286.109 169.43 284.625 171.078 284.625 173.789C284.625 176.492 286.109 178.148 288.508 178.148ZM288.508 176.938C286.914 176.938 286.016 175.781 286.016 173.789C286.016 171.789 286.914 170.641 288.508 170.641C290.102 170.641 291 171.789 291 173.789C291 175.781 290.102 176.938 288.508 176.938ZM301.312 169.578H299.969V174.562C299.969 176.039 299.156 176.922 297.672 176.922C296.328 176.922 295.766 176.219 295.766 174.703V169.578H294.422V175.031C294.422 177.023 295.406 178.148 297.297 178.148C298.586 178.148 299.484 177.617 299.906 176.68H300.031V178H301.312V169.578ZM318.953 169.578H317.602L315.945 176.312H315.82L313.938 169.578H312.648L310.766 176.312H310.641L308.984 169.578H307.625L309.984 178H311.344L313.219 171.484H313.344L315.227 178H316.594L318.953 169.578ZM320.828 178H322.172V173.016C322.172 171.594 323 170.641 324.508 170.641C325.781 170.641 326.453 171.383 326.453 172.875V178H327.797V172.547C327.797 170.57 326.672 169.43 324.891 169.43C323.602 169.43 322.719 169.977 322.297 170.906H322.172V166.234H320.828V178ZM335.828 175.82C335.477 176.562 334.742 176.961 333.656 176.961C332.227 176.961 331.297 175.906 331.227 174.242V174.18H337.281V173.664C337.281 171.047 335.898 169.43 333.625 169.43C331.312 169.43 329.828 171.148 329.828 173.797C329.828 176.461 331.289 178.148 333.625 178.148C335.469 178.148 336.781 177.258 337.172 175.82H335.828ZM333.609 170.617C334.945 170.617 335.836 171.602 335.867 173.094H331.227C331.328 171.602 332.266 170.617 333.609 170.617ZM339.391 178H340.734V173.016C340.734 171.539 341.602 170.641 342.945 170.641C344.289 170.641 344.93 171.359 344.93 172.875V178H346.273V172.547C346.273 170.547 345.219 169.43 343.328 169.43C342.039 169.43 341.219 169.977 340.797 170.906H340.672V169.578H339.391V178ZM353.969 181.047C355.461 181.047 356.133 180.469 356.852 178.516L360.141 169.578H358.711L356.406 176.508H356.281L353.969 169.578H352.516L355.633 178.008L355.477 178.508C355.125 179.523 354.703 179.891 353.93 179.891C353.742 179.891 353.531 179.883 353.367 179.852V181C353.555 181.031 353.789 181.047 353.969 181.047ZM365.086 178.148C367.484 178.148 368.969 176.492 368.969 173.789C368.969 171.078 367.484 169.43 365.086 169.43C362.688 169.43 361.203 171.078 361.203 173.789C361.203 176.492 362.688 178.148 365.086 178.148ZM365.086 176.938C363.492 176.938 362.594 175.781 362.594 173.789C362.594 171.789 363.492 170.641 365.086 170.641C366.68 170.641 367.578 171.789 367.578 173.789C367.578 175.781 366.68 176.938 365.086 176.938ZM377.891 169.578H376.547V174.562C376.547 176.039 375.734 176.922 374.25 176.922C372.906 176.922 372.344 176.219 372.344 174.703V169.578H371V175.031C371 177.023 371.984 178.148 373.875 178.148C375.164 178.148 376.062 177.617 376.484 176.68H376.609V178H377.891V169.578ZM380.422 178H381.766V172.781C381.766 171.594 382.695 170.734 383.977 170.734C384.242 170.734 384.727 170.781 384.836 170.812V169.469C384.664 169.445 384.383 169.43 384.164 169.43C383.047 169.43 382.078 170.008 381.828 170.828H381.703V169.578H380.422V178ZM37.3672 193.43C36.2188 193.43 35.2109 194.016 34.6719 194.984H34.5469V193.578H33.2656V204.812H34.6094V200.734H34.7344C35.1953 201.625 36.1641 202.148 37.3672 202.148C39.5078 202.148 40.9062 200.422 40.9062 197.789C40.9062 195.141 39.5156 193.43 37.3672 193.43ZM37.0469 200.938C35.5312 200.938 34.5703 199.719 34.5703 197.789C34.5703 195.852 35.5312 194.641 37.0547 194.641C38.5938 194.641 39.5156 195.82 39.5156 197.789C39.5156 199.758 38.5938 200.938 37.0469 200.938ZM45.3594 202.148C46.4844 202.148 47.4062 201.656 47.9531 200.758H48.0781V202H49.3594V196.234C49.3594 194.484 48.2109 193.43 46.1562 193.43C44.3594 193.43 43.0312 194.32 42.8516 195.672H44.2109C44.3984 195.008 45.1016 194.625 46.1094 194.625C47.3672 194.625 48.0156 195.195 48.0156 196.234V197L45.5859 197.148C43.625 197.266 42.5156 198.133 42.5156 199.641C42.5156 201.18 43.7266 202.148 45.3594 202.148ZM45.6094 200.969C44.6328 200.969 43.9062 200.469 43.9062 199.609C43.9062 198.766 44.4688 198.32 45.75 198.234L48.0156 198.086V198.859C48.0156 200.062 46.9922 200.969 45.6094 200.969ZM52.25 205.047C53.7422 205.047 54.4141 204.469 55.1328 202.516L58.4219 193.578H56.9922L54.6875 200.508H54.5625L52.25 193.578H50.7969L53.9141 202.008L53.7578 202.508C53.4062 203.523 52.9844 203.891 52.2109 203.891C52.0234 203.891 51.8125 203.883 51.6484 203.852V205C51.8359 205.031 52.0703 205.047 52.25 205.047ZM60.2188 202H61.5625V196.781C61.5625 195.594 62.4141 194.641 63.5156 194.641C64.5781 194.641 65.2734 195.281 65.2734 196.281V202H66.6172V196.586C66.6172 195.516 67.3984 194.641 68.5703 194.641C69.7578 194.641 70.3438 195.25 70.3438 196.492V202H71.6875V196.18C71.6875 194.414 70.7266 193.43 69.0078 193.43C67.8438 193.43 66.8828 194.016 66.4297 194.906H66.3047C65.9141 194.031 65.1172 193.43 63.9766 193.43C62.8516 193.43 62.0078 193.969 61.625 194.906H61.5V193.578H60.2188V202ZM79.7188 199.82C79.3672 200.562 78.6328 200.961 77.5469 200.961C76.1172 200.961 75.1875 199.906 75.1172 198.242V198.18H81.1719V197.664C81.1719 195.047 79.7891 193.43 77.5156 193.43C75.2031 193.43 73.7188 195.148 73.7188 197.797C73.7188 200.461 75.1797 202.148 77.5156 202.148C79.3594 202.148 80.6719 201.258 81.0625 199.82H79.7188ZM77.5 194.617C78.8359 194.617 79.7266 195.602 79.7578 197.094H75.1172C75.2188 195.602 76.1562 194.617 77.5 194.617ZM83.2812 202H84.625V197.016C84.625 195.539 85.4922 194.641 86.8359 194.641C88.1797 194.641 88.8203 195.359 88.8203 196.875V202H90.1641V196.547C90.1641 194.547 89.1094 193.43 87.2188 193.43C85.9297 193.43 85.1094 193.977 84.6875 194.906H84.5625V193.578H83.2812V202ZM93.1875 191.398V193.578H91.8281V194.703H93.1875V199.812C93.1875 201.422 93.8828 202.062 95.6172 202.062C95.8828 202.062 96.1406 202.031 96.4062 201.984V200.852C96.1562 200.875 96.0234 200.883 95.7812 200.883C94.9062 200.883 94.5312 200.461 94.5312 199.469V194.703H96.4062V193.578H94.5312V191.398H93.1875ZM102.953 202H104.297V196.781C104.297 195.594 105.148 194.641 106.25 194.641C107.312 194.641 108.008 195.281 108.008 196.281V202H109.352V196.586C109.352 195.516 110.133 194.641 111.305 194.641C112.492 194.641 113.078 195.25 113.078 196.492V202H114.422V196.18C114.422 194.414 113.461 193.43 111.742 193.43C110.578 193.43 109.617 194.016 109.164 194.906H109.039C108.648 194.031 107.852 193.43 106.711 193.43C105.586 193.43 104.742 193.969 104.359 194.906H104.234V193.578H102.953V202ZM122.453 199.82C122.102 200.562 121.367 200.961 120.281 200.961C118.852 200.961 117.922 199.906 117.852 198.242V198.18H123.906V197.664C123.906 195.047 122.523 193.43 120.25 193.43C117.938 193.43 116.453 195.148 116.453 197.797C116.453 200.461 117.914 202.148 120.25 202.148C122.094 202.148 123.406 201.258 123.797 199.82H122.453ZM120.234 194.617C121.57 194.617 122.461 195.602 122.492 197.094H117.852C117.953 195.602 118.891 194.617 120.234 194.617ZM126.578 191.398V193.578H125.219V194.703H126.578V199.812C126.578 201.422 127.273 202.062 129.008 202.062C129.273 202.062 129.531 202.031 129.797 201.984V200.852C129.547 200.875 129.414 200.883 129.172 200.883C128.297 200.883 127.922 200.461 127.922 199.469V194.703H129.797V193.578H127.922V191.398H126.578ZM131.906 202H133.25V197.016C133.25 195.594 134.078 194.641 135.586 194.641C136.859 194.641 137.531 195.383 137.531 196.875V202H138.875V196.547C138.875 194.57 137.75 193.43 135.969 193.43C134.68 193.43 133.797 193.977 133.375 194.906H133.25V190.234H131.906V202ZM144.789 202.148C147.188 202.148 148.672 200.492 148.672 197.789C148.672 195.078 147.188 193.43 144.789 193.43C142.391 193.43 140.906 195.078 140.906 197.789C140.906 200.492 142.391 202.148 144.789 202.148ZM144.789 200.938C143.195 200.938 142.297 199.781 142.297 197.789C142.297 195.789 143.195 194.641 144.789 194.641C146.383 194.641 147.281 195.789 147.281 197.789C147.281 199.781 146.383 200.938 144.789 200.938ZM153.898 202.148C155.062 202.148 156.062 201.594 156.594 200.656H156.719V202H158V190.234H156.656V194.906H156.539C156.062 193.984 155.07 193.43 153.898 193.43C151.758 193.43 150.359 195.148 150.359 197.789C150.359 200.438 151.742 202.148 153.898 202.148ZM154.211 194.641C155.734 194.641 156.688 195.859 156.688 197.789C156.688 199.734 155.742 200.938 154.211 200.938C152.672 200.938 151.75 199.758 151.75 197.789C151.75 195.828 152.68 194.641 154.211 194.641ZM165.203 202H166.547V197.016C166.547 195.594 167.375 194.641 168.883 194.641C170.156 194.641 170.828 195.383 170.828 196.875V202H172.172V196.547C172.172 194.57 171.047 193.43 169.266 193.43C167.977 193.43 167.094 193.977 166.672 194.906H166.547V190.234H165.203V202ZM176.969 202.148C178.094 202.148 179.016 201.656 179.562 200.758H179.688V202H180.969V196.234C180.969 194.484 179.82 193.43 177.766 193.43C175.969 193.43 174.641 194.32 174.461 195.672H175.82C176.008 195.008 176.711 194.625 177.719 194.625C178.977 194.625 179.625 195.195 179.625 196.234V197L177.195 197.148C175.234 197.266 174.125 198.133 174.125 199.641C174.125 201.18 175.336 202.148 176.969 202.148ZM177.219 200.969C176.242 200.969 175.516 200.469 175.516 199.609C175.516 198.766 176.078 198.32 177.359 198.234L179.625 198.086V198.859C179.625 200.062 178.602 200.969 177.219 200.969ZM183.258 195.883C183.258 197.102 183.977 197.781 185.555 198.164L187 198.516C187.898 198.734 188.336 199.125 188.336 199.703C188.336 200.477 187.523 201.016 186.391 201.016C185.312 201.016 184.641 200.562 184.414 199.852H183.031C183.18 201.25 184.469 202.148 186.344 202.148C188.258 202.148 189.719 201.109 189.719 199.602C189.719 198.391 188.953 197.703 187.367 197.32L186.07 197.008C185.078 196.766 184.609 196.406 184.609 195.828C184.609 195.078 185.391 194.57 186.391 194.57C187.406 194.57 188.062 195.016 188.242 195.688H189.57C189.391 194.305 188.164 193.43 186.398 193.43C184.609 193.43 183.258 194.484 183.258 195.883ZM200.531 202.148C202.664 202.148 204.062 200.422 204.062 197.789C204.062 195.141 202.672 193.43 200.531 193.43C199.375 193.43 198.352 194 197.891 194.906H197.766V190.234H196.422V202H197.703V200.656H197.828C198.359 201.594 199.359 202.148 200.531 202.148ZM200.219 194.641C201.758 194.641 202.672 195.82 202.672 197.789C202.672 199.758 201.758 200.938 200.219 200.938C198.688 200.938 197.734 199.734 197.734 197.789C197.734 195.844 198.688 194.641 200.219 194.641ZM211.75 199.82C211.398 200.562 210.664 200.961 209.578 200.961C208.148 200.961 207.219 199.906 207.148 198.242V198.18H213.203V197.664C213.203 195.047 211.82 193.43 209.547 193.43C207.234 193.43 205.75 195.148 205.75 197.797C205.75 200.461 207.211 202.148 209.547 202.148C211.391 202.148 212.703 201.258 213.094 199.82H211.75ZM209.531 194.617C210.867 194.617 211.758 195.602 211.789 197.094H207.148C207.25 195.602 208.188 194.617 209.531 194.617ZM220.891 199.82C220.539 200.562 219.805 200.961 218.719 200.961C217.289 200.961 216.359 199.906 216.289 198.242V198.18H222.344V197.664C222.344 195.047 220.961 193.43 218.688 193.43C216.375 193.43 214.891 195.148 214.891 197.797C214.891 200.461 216.352 202.148 218.688 202.148C220.531 202.148 221.844 201.258 222.234 199.82H220.891ZM218.672 194.617C220.008 194.617 220.898 195.602 220.93 197.094H216.289C216.391 195.602 217.328 194.617 218.672 194.617ZM224.453 202H225.797V197.016C225.797 195.539 226.664 194.641 228.008 194.641C229.352 194.641 229.992 195.359 229.992 196.875V202H231.336V196.547C231.336 194.547 230.281 193.43 228.391 193.43C227.102 193.43 226.281 193.977 225.859 194.906H225.734V193.578H224.453V202ZM238.117 195.883C238.117 197.102 238.836 197.781 240.414 198.164L241.859 198.516C242.758 198.734 243.195 199.125 243.195 199.703C243.195 200.477 242.383 201.016 241.25 201.016C240.172 201.016 239.5 200.562 239.273 199.852H237.891C238.039 201.25 239.328 202.148 241.203 202.148C243.117 202.148 244.578 201.109 244.578 199.602C244.578 198.391 243.812 197.703 242.227 197.32L240.93 197.008C239.938 196.766 239.469 196.406 239.469 195.828C239.469 195.078 240.25 194.57 241.25 194.57C242.266 194.57 242.922 195.016 243.102 195.688H244.43C244.25 194.305 243.023 193.43 241.258 193.43C239.469 193.43 238.117 194.484 238.117 195.883ZM253.5 193.578H252.156V198.562C252.156 200.039 251.344 200.922 249.859 200.922C248.516 200.922 247.953 200.219 247.953 198.703V193.578H246.609V199.031C246.609 201.023 247.594 202.148 249.484 202.148C250.773 202.148 251.672 201.617 252.094 200.68H252.219V202H253.5V193.578ZM263 196.156C262.766 194.656 261.516 193.43 259.469 193.43C257.109 193.43 255.609 195.133 255.609 197.758C255.609 200.438 257.117 202.148 259.477 202.148C261.5 202.148 262.758 201.008 263 199.461H261.641C261.391 200.414 260.602 200.938 259.469 200.938C257.969 200.938 257 199.703 257 197.758C257 195.852 257.953 194.641 259.469 194.641C260.68 194.641 261.422 195.32 261.641 196.156H263ZM271.953 196.156C271.719 194.656 270.469 193.43 268.422 193.43C266.062 193.43 264.562 195.133 264.562 197.758C264.562 200.438 266.07 202.148 268.43 202.148C270.453 202.148 271.711 201.008 271.953 199.461H270.594C270.344 200.414 269.555 200.938 268.422 200.938C266.922 200.938 265.953 199.703 265.953 197.758C265.953 195.852 266.906 194.641 268.422 194.641C269.633 194.641 270.375 195.32 270.594 196.156H271.953ZM279.516 199.82C279.164 200.562 278.43 200.961 277.344 200.961C275.914 200.961 274.984 199.906 274.914 198.242V198.18H280.969V197.664C280.969 195.047 279.586 193.43 277.312 193.43C275 193.43 273.516 195.148 273.516 197.797C273.516 200.461 274.977 202.148 277.312 202.148C279.156 202.148 280.469 201.258 280.859 199.82H279.516ZM277.297 194.617C278.633 194.617 279.523 195.602 279.555 197.094H274.914C275.016 195.602 275.953 194.617 277.297 194.617ZM282.883 195.883C282.883 197.102 283.602 197.781 285.18 198.164L286.625 198.516C287.523 198.734 287.961 199.125 287.961 199.703C287.961 200.477 287.148 201.016 286.016 201.016C284.938 201.016 284.266 200.562 284.039 199.852H282.656C282.805 201.25 284.094 202.148 285.969 202.148C287.883 202.148 289.344 201.109 289.344 199.602C289.344 198.391 288.578 197.703 286.992 197.32L285.695 197.008C284.703 196.766 284.234 196.406 284.234 195.828C284.234 195.078 285.016 194.57 286.016 194.57C287.031 194.57 287.688 195.016 287.867 195.688H289.195C289.016 194.305 287.789 193.43 286.023 193.43C284.234 193.43 282.883 194.484 282.883 195.883ZM291.102 195.883C291.102 197.102 291.82 197.781 293.398 198.164L294.844 198.516C295.742 198.734 296.18 199.125 296.18 199.703C296.18 200.477 295.367 201.016 294.234 201.016C293.156 201.016 292.484 200.562 292.258 199.852H290.875C291.023 201.25 292.312 202.148 294.188 202.148C296.102 202.148 297.562 201.109 297.562 199.602C297.562 198.391 296.797 197.703 295.211 197.32L293.914 197.008C292.922 196.766 292.453 196.406 292.453 195.828C292.453 195.078 293.234 194.57 294.234 194.57C295.25 194.57 295.906 195.016 296.086 195.688H297.414C297.234 194.305 296.008 193.43 294.242 193.43C292.453 193.43 291.102 194.484 291.102 195.883ZM300.234 202H301.578V194.703H303.508V193.578H301.578V192.68C301.578 191.758 301.984 191.289 302.953 191.289C303.195 191.289 303.422 191.297 303.586 191.328V190.234C303.305 190.18 303.008 190.156 302.68 190.156C301.078 190.156 300.234 190.961 300.234 192.641V193.578H298.836V194.703H300.234V202ZM312.281 193.578H310.938V198.562C310.938 200.039 310.125 200.922 308.641 200.922C307.297 200.922 306.734 200.219 306.734 198.703V193.578H305.391V199.031C305.391 201.023 306.375 202.148 308.266 202.148C309.555 202.148 310.453 201.617 310.875 200.68H311V202H312.281V193.578ZM314.891 202H316.234V190.234H314.891V202ZM318.922 202H320.266V190.234H318.922V202ZM323.594 205.047C325.086 205.047 325.758 204.469 326.477 202.516L329.766 193.578H328.336L326.031 200.508H325.906L323.594 193.578H322.141L325.258 202.008L325.102 202.508C324.75 203.523 324.328 203.891 323.555 203.891C323.367 203.891 323.156 203.883 322.992 203.852V205C323.18 205.031 323.414 205.047 323.594 205.047ZM335.883 195.883C335.883 197.102 336.602 197.781 338.18 198.164L339.625 198.516C340.523 198.734 340.961 199.125 340.961 199.703C340.961 200.477 340.148 201.016 339.016 201.016C337.938 201.016 337.266 200.562 337.039 199.852H335.656C335.805 201.25 337.094 202.148 338.969 202.148C340.883 202.148 342.344 201.109 342.344 199.602C342.344 198.391 341.578 197.703 339.992 197.32L338.695 197.008C337.703 196.766 337.234 196.406 337.234 195.828C337.234 195.078 338.016 194.57 339.016 194.57C340.031 194.57 340.688 195.016 340.867 195.688H342.195C342.016 194.305 340.789 193.43 339.023 193.43C337.234 193.43 335.883 194.484 335.883 195.883ZM350.031 199.82C349.68 200.562 348.945 200.961 347.859 200.961C346.43 200.961 345.5 199.906 345.43 198.242V198.18H351.484V197.664C351.484 195.047 350.102 193.43 347.828 193.43C345.516 193.43 344.031 195.148 344.031 197.797C344.031 200.461 345.492 202.148 347.828 202.148C349.672 202.148 350.984 201.258 351.375 199.82H350.031ZM347.812 194.617C349.148 194.617 350.039 195.602 350.07 197.094H345.43C345.531 195.602 346.469 194.617 347.812 194.617ZM354.156 191.398V193.578H352.797V194.703H354.156V199.812C354.156 201.422 354.852 202.062 356.586 202.062C356.852 202.062 357.109 202.031 357.375 201.984V200.852C357.125 200.875 356.992 200.883 356.75 200.883C355.875 200.883 355.5 200.461 355.5 199.469V194.703H357.375V193.578H355.5V191.398H354.156ZM370.734 193.578H369.391V198.562C369.391 200.039 368.578 200.922 367.094 200.922C365.75 200.922 365.188 200.219 365.188 198.703V193.578H363.844V199.031C363.844 201.023 364.828 202.148 366.719 202.148C368.008 202.148 368.906 201.617 369.328 200.68H369.453V202H370.734V193.578ZM377.367 193.43C376.219 193.43 375.211 194.016 374.672 194.984H374.547V193.578H373.266V204.812H374.609V200.734H374.734C375.195 201.625 376.164 202.148 377.367 202.148C379.508 202.148 380.906 200.422 380.906 197.789C380.906 195.141 379.516 193.43 377.367 193.43ZM377.047 200.938C375.531 200.938 374.57 199.719 374.57 197.789C374.57 195.852 375.531 194.641 377.055 194.641C378.594 194.641 379.516 195.82 379.516 197.789C379.516 199.758 378.594 200.938 377.047 200.938ZM383.969 202.078C384.531 202.078 384.984 201.617 384.984 201.062C384.984 200.5 384.531 200.047 383.969 200.047C383.414 200.047 382.953 200.5 382.953 201.062C382.953 201.617 383.414 202.078 383.969 202.078Z" fill="#4F566B"/>
<rect x="30" y="134" width="396" height="76" stroke="white" stroke-width="4"/>
<rect x="30" y="93" width="111" height="28" fill="white"/>
<path d="M33.3672 101.727V113H35.7266V109.445H37.9531C40.3281 109.445 41.9766 107.898 41.9766 105.602C41.9766 103.273 40.3906 101.727 38.0703 101.727H33.3672ZM35.7266 103.602H37.4453C38.8047 103.602 39.5781 104.297 39.5781 105.609C39.5781 106.891 38.7891 107.594 37.4375 107.594H35.7266V103.602ZM43.9219 113H46.1953V108.188C46.1953 106.977 47.0469 106.234 48.2891 106.234C48.6562 106.234 49.1875 106.297 49.3672 106.359V104.359C49.1719 104.297 48.7891 104.258 48.4766 104.258C47.3828 104.258 46.4922 104.906 46.2656 105.766H46.125V104.398H43.9219V113ZM54.5078 113.18C57.1562 113.18 58.75 111.508 58.75 108.695C58.75 105.906 57.1328 104.211 54.5078 104.211C51.8828 104.211 50.2656 105.914 50.2656 108.695C50.2656 111.5 51.8594 113.18 54.5078 113.18ZM54.5078 111.383C53.2891 111.383 52.6016 110.398 52.6016 108.695C52.6016 107.008 53.2969 106.016 54.5078 106.016C55.7109 106.016 56.4141 107.008 56.4141 108.695C56.4141 110.398 55.7188 111.383 54.5078 111.383ZM68.2344 107.398C68.0469 105.477 66.6797 104.211 64.3984 104.211C61.7031 104.211 60.1875 105.844 60.1875 108.68C60.1875 111.547 61.7109 113.18 64.3984 113.18C66.6406 113.18 68.0469 111.945 68.2344 110.055H66.1094C65.9375 110.914 65.3281 111.375 64.3984 111.375C63.1797 111.375 62.4844 110.414 62.4844 108.68C62.4844 106.969 63.1719 106.023 64.3984 106.023C65.3672 106.023 65.9531 106.57 66.1094 107.398H68.2344ZM75.5859 110.57C75.3438 111.156 74.7266 111.484 73.8281 111.484C72.6406 111.484 71.8906 110.664 71.8594 109.352V109.234H77.7734V108.555C77.7734 105.836 76.2734 104.211 73.7344 104.211C71.1719 104.211 69.5938 105.945 69.5938 108.742C69.5938 111.523 71.1406 113.18 73.7656 113.18C75.875 113.18 77.3672 112.172 77.7031 110.57H75.5859ZM73.7422 105.906C74.8047 105.906 75.4922 106.641 75.5391 107.82H71.8672C71.9453 106.664 72.6875 105.906 73.7422 105.906ZM79.4453 106.906C79.4453 108.227 80.2578 109.016 81.9297 109.383L83.4922 109.734C84.25 109.906 84.5781 110.172 84.5781 110.609C84.5781 111.18 83.9688 111.57 83.0859 111.57C82.1797 111.57 81.625 111.219 81.4531 110.625H79.2344C79.3906 112.25 80.7656 113.18 83.0391 113.18C85.2969 113.18 86.8359 112.07 86.8359 110.367C86.8359 109.086 86.0859 108.383 84.4141 108.016L82.7969 107.664C82 107.484 81.6328 107.211 81.6328 106.773C81.6328 106.211 82.2344 105.828 83.0469 105.828C83.8906 105.828 84.4141 106.18 84.5312 106.75H86.6328C86.5078 105.125 85.2188 104.211 83.0312 104.211C80.8828 104.211 79.4453 105.297 79.4453 106.906ZM88.3516 106.906C88.3516 108.227 89.1641 109.016 90.8359 109.383L92.3984 109.734C93.1562 109.906 93.4844 110.172 93.4844 110.609C93.4844 111.18 92.875 111.57 91.9922 111.57C91.0859 111.57 90.5312 111.219 90.3594 110.625H88.1406C88.2969 112.25 89.6719 113.18 91.9453 113.18C94.2031 113.18 95.7422 112.07 95.7422 110.367C95.7422 109.086 94.9922 108.383 93.3203 108.016L91.7031 107.664C90.9062 107.484 90.5391 107.211 90.5391 106.773C90.5391 106.211 91.1406 105.828 91.9531 105.828C92.7969 105.828 93.3203 106.18 93.4375 106.75H95.5391C95.4141 105.125 94.125 104.211 91.9375 104.211C89.7891 104.211 88.3516 105.297 88.3516 106.906ZM98.7656 103.078C99.4688 103.078 100.047 102.516 100.047 101.812C100.047 101.102 99.4688 100.539 98.7656 100.539C98.0625 100.539 97.4766 101.102 97.4766 101.812C97.4766 102.516 98.0625 103.078 98.7656 103.078ZM97.625 113H99.8984V104.398H97.625V113ZM102.203 113H104.477V108.023C104.477 106.859 105.125 106.109 106.18 106.109C107.258 106.109 107.766 106.742 107.766 107.953V113H110.039V107.438C110.039 105.383 109.008 104.211 107.094 104.211C105.82 104.211 104.945 104.812 104.547 105.781H104.406V104.398H102.203V113ZM116.047 116.258C118.648 116.258 120.297 114.992 120.297 112.984V104.398H118.094V105.773H117.953C117.492 104.836 116.5 104.258 115.336 104.258C113.148 104.258 111.805 105.961 111.805 108.625C111.805 111.203 113.141 112.875 115.289 112.875C116.5 112.875 117.406 112.383 117.883 111.477H118.023V113.078C118.023 114.07 117.312 114.648 116.094 114.648C115.109 114.648 114.469 114.305 114.352 113.758H112.102C112.242 115.266 113.758 116.258 116.047 116.258ZM116.078 111.133C114.844 111.133 114.141 110.164 114.141 108.617C114.141 107.07 114.852 106.102 116.078 106.102C117.305 106.102 118.047 107.07 118.047 108.617C118.047 110.164 117.312 111.133 116.078 111.133ZM124.219 113.195C125.062 113.195 125.602 112.633 125.602 111.867C125.602 111.102 125.062 110.547 124.219 110.547C123.383 110.547 122.836 111.102 122.836 111.867C122.836 112.633 123.383 113.195 124.219 113.195ZM129.781 113.195C130.625 113.195 131.164 112.633 131.164 111.867C131.164 111.102 130.625 110.547 129.781 110.547C128.945 110.547 128.398 111.102 128.398 111.867C128.398 112.633 128.945 113.195 129.781 113.195ZM135.344 113.195C136.188 113.195 136.727 112.633 136.727 111.867C136.727 111.102 136.188 110.547 135.344 110.547C134.508 110.547 133.961 111.102 133.961 111.867C133.961 112.633 134.508 113.195 135.344 113.195Z" fill="#3C4257"/>
<rect x="30" y="93" width="111" height="28" stroke="white" stroke-width="4"/>
<path d="M28 28H52V52H28V28Z" fill="white"/>
<path fill-rule="evenodd" clip-rule="evenodd" d="M40 28C46.6274 28 52 33.3726 52 40C52 46.6274 46.6274 52 40 52C33.3726 52 28 46.6274 28 40C28 33.3726 33.3726 28 40 28ZM40 32.5C39.1716 32.5 38.5 33.1716 38.5 34V40C38.5 40.5654 38.8129 41.0578 39.2749 41.3134L43.1471 43.549C43.8646 43.9633 44.7819 43.7174 45.1962 43C45.6104 42.2826 45.3646 41.3652 44.6471 40.951L41.5 39.134V34C41.5 33.1716 40.8284 32.5 40 32.5Z" fill="#4F566B"/>
<rect x="0.5" y="0.5" width="447" height="239" rx="7.5" stroke="#E3E8EE"/>
<defs>
<clipPath id="clip0">
<path d="M0 0H448V240H0V0Z" fill="white"/>
</clipPath>
</defs>
</svg>
