<svg width="448" height="224" viewBox="0 0 448 224" fill="none" xmlns="http://www.w3.org/2000/svg">
<g clip-path="url(#clip0)">
<path d="M0 0H448V224H0V0Z" fill="white"/>
<path d="M0 0L448 -3.91654e-05" stroke="#E3E8EE" stroke-width="2" stroke-linecap="round" stroke-linejoin="round" stroke-dasharray="0.01 16"/>
<path d="M0 16L448 16" stroke="#E3E8EE" stroke-width="2" stroke-linecap="round" stroke-linejoin="round" stroke-dasharray="0.01 16"/>
<path d="M0 32L448 32" stroke="#E3E8EE" stroke-width="2" stroke-linecap="round" stroke-linejoin="round" stroke-dasharray="0.01 16"/>
<path d="M0 48L448 48" stroke="#E3E8EE" stroke-width="2" stroke-linecap="round" stroke-linejoin="round" stroke-dasharray="0.01 16"/>
<path d="M0 64L448 64" stroke="#E3E8EE" stroke-width="2" stroke-linecap="round" stroke-linejoin="round" stroke-dasharray="0.01 16"/>
<path d="M0 80L448 80" stroke="#E3E8EE" stroke-width="2" stroke-linecap="round" stroke-linejoin="round" stroke-dasharray="0.01 16"/>
<path d="M0 96L448 96" stroke="#E3E8EE" stroke-width="2" stroke-linecap="round" stroke-linejoin="round" stroke-dasharray="0.01 16"/>
<path d="M0 112L448 112" stroke="#E3E8EE" stroke-width="2" stroke-linecap="round" stroke-linejoin="round" stroke-dasharray="0.01 16"/>
<path d="M0 128L448 128" stroke="#E3E8EE" stroke-width="2" stroke-linecap="round" stroke-linejoin="round" stroke-dasharray="0.01 16"/>
<path d="M0 144L448 144" stroke="#E3E8EE" stroke-width="2" stroke-linecap="round" stroke-linejoin="round" stroke-dasharray="0.01 16"/>
<path d="M0 160L448 160" stroke="#E3E8EE" stroke-width="2" stroke-linecap="round" stroke-linejoin="round" stroke-dasharray="0.01 16"/>
<path d="M0 176L448 176" stroke="#E3E8EE" stroke-width="2" stroke-linecap="round" stroke-linejoin="round" stroke-dasharray="0.01 16"/>
<path d="M0 192L448 192" stroke="#E3E8EE" stroke-width="2" stroke-linecap="round" stroke-linejoin="round" stroke-dasharray="0.01 16"/>
<path d="M0 208L448 208" stroke="#E3E8EE" stroke-width="2" stroke-linecap="round" stroke-linejoin="round" stroke-dasharray="0.01 16"/>
<path d="M0 224L448 224" stroke="#E3E8EE" stroke-width="2" stroke-linecap="round" stroke-linejoin="round" stroke-dasharray="0.01 16"/>
<rect x="0.5" y="0.5" width="447" height="223" stroke="white"/>
</g>
<path d="M32 148C32 145.791 33.7909 144 36 144H412C414.209 144 416 145.791 416 148V188C416 190.209 414.209 192 412 192H36C33.7909 192 32 190.209 32 188V148Z" fill="#8792A2"/>
<rect x="30" y="142" width="388" height="52" rx="6" fill="#C1C9D2" stroke="white" stroke-width="4"/>
<path d="M197.734 174.289C200.453 174.289 202.438 172.641 202.633 170.234H200.336C200.109 171.477 199.094 172.273 197.742 172.273C195.961 172.273 194.859 170.773 194.859 168.359C194.859 165.945 195.961 164.445 197.734 164.445C199.078 164.445 200.102 165.305 200.328 166.609H202.625C202.453 164.188 200.406 162.438 197.734 162.438C194.461 162.438 192.445 164.695 192.445 168.359C192.445 172.023 194.469 174.289 197.734 174.289ZM208.398 174.18C211.047 174.18 212.641 172.508 212.641 169.695C212.641 166.906 211.023 165.211 208.398 165.211C205.773 165.211 204.156 166.914 204.156 169.695C204.156 172.5 205.75 174.18 208.398 174.18ZM208.398 172.383C207.18 172.383 206.492 171.398 206.492 169.695C206.492 168.008 207.188 167.016 208.398 167.016C209.602 167.016 210.305 168.008 210.305 169.695C210.305 171.398 209.609 172.383 208.398 172.383ZM214.5 174H216.773V169.023C216.773 167.859 217.422 167.109 218.477 167.109C219.555 167.109 220.062 167.742 220.062 168.953V174H222.336V168.438C222.336 166.383 221.305 165.211 219.391 165.211C218.117 165.211 217.242 165.812 216.844 166.781H216.703V165.398H214.5V174ZM225.211 174H227.484V167.203H229.266V165.477H227.438V164.75C227.438 164 227.766 163.633 228.656 163.633C228.953 163.633 229.188 163.656 229.336 163.68V162.109C229.008 162.062 228.625 162.023 228.164 162.023C226.086 162.023 225.211 162.883 225.211 164.594V165.477H223.82V167.203H225.211V174ZM232.234 164.078C232.938 164.078 233.516 163.516 233.516 162.812C233.516 162.102 232.938 161.539 232.234 161.539C231.531 161.539 230.945 162.102 230.945 162.812C230.945 163.516 231.531 164.078 232.234 164.078ZM231.094 174H233.367V165.398H231.094V174ZM235.672 174H237.945V169.188C237.945 167.977 238.797 167.234 240.039 167.234C240.406 167.234 240.938 167.297 241.117 167.359V165.359C240.922 165.297 240.539 165.258 240.227 165.258C239.133 165.258 238.242 165.906 238.016 166.766H237.875V165.398H235.672V174ZM242.719 174H244.992V168.812C244.992 167.828 245.625 167.109 246.516 167.109C247.406 167.109 247.938 167.641 247.938 168.562V174H250.125V168.711C250.125 167.781 250.719 167.109 251.641 167.109C252.602 167.109 253.078 167.625 253.078 168.664V174H255.352V168.094C255.352 166.32 254.281 165.211 252.562 165.211C251.359 165.211 250.367 165.844 249.969 166.797H249.828C249.484 165.812 248.656 165.211 247.445 165.211C246.312 165.211 245.414 165.812 245.062 166.797H244.922V165.398H242.719V174Z" fill="white"/>
<rect x="30" y="70" width="396" height="52" fill="white"/>
<path d="M40.7656 90H42.2422L38.0859 78.7266H36.6953L32.5391 90H34.0156L35.1484 86.7734H39.6328L40.7656 90ZM37.3281 80.5469H37.4531L39.2188 85.5781H35.5625L37.3281 80.5469ZM44.0469 90H45.3906V84.7812C45.3906 83.5938 46.3203 82.7344 47.6016 82.7344C47.8672 82.7344 48.3516 82.7812 48.4609 82.8125V81.4688C48.2891 81.4453 48.0078 81.4297 47.7891 81.4297C46.6719 81.4297 45.7031 82.0078 45.4531 82.8281H45.3281V81.5781H44.0469V90ZM55.4844 87.8203C55.1328 88.5625 54.3984 88.9609 53.3125 88.9609C51.8828 88.9609 50.9531 87.9062 50.8828 86.2422V86.1797H56.9375V85.6641C56.9375 83.0469 55.5547 81.4297 53.2812 81.4297C50.9688 81.4297 49.4844 83.1484 49.4844 85.7969C49.4844 88.4609 50.9453 90.1484 53.2812 90.1484C55.125 90.1484 56.4375 89.2578 56.8281 87.8203H55.4844ZM53.2656 82.6172C54.6016 82.6172 55.4922 83.6016 55.5234 85.0938H50.8828C50.9844 83.6016 51.9219 82.6172 53.2656 82.6172ZM64.2812 93.0469C65.7734 93.0469 66.4453 92.4688 67.1641 90.5156L70.4531 81.5781H69.0234L66.7188 88.5078H66.5938L64.2812 81.5781H62.8281L65.9453 90.0078L65.7891 90.5078C65.4375 91.5234 65.0156 91.8906 64.2422 91.8906C64.0547 91.8906 63.8438 91.8828 63.6797 91.8516V93C63.8672 93.0312 64.1016 93.0469 64.2812 93.0469ZM75.3984 90.1484C77.7969 90.1484 79.2812 88.4922 79.2812 85.7891C79.2812 83.0781 77.7969 81.4297 75.3984 81.4297C73 81.4297 71.5156 83.0781 71.5156 85.7891C71.5156 88.4922 73 90.1484 75.3984 90.1484ZM75.3984 88.9375C73.8047 88.9375 72.9062 87.7812 72.9062 85.7891C72.9062 83.7891 73.8047 82.6406 75.3984 82.6406C76.9922 82.6406 77.8906 83.7891 77.8906 85.7891C77.8906 87.7812 76.9922 88.9375 75.3984 88.9375ZM88.2031 81.5781H86.8594V86.5625C86.8594 88.0391 86.0469 88.9219 84.5625 88.9219C83.2188 88.9219 82.6562 88.2188 82.6562 86.7031V81.5781H81.3125V87.0312C81.3125 89.0234 82.2969 90.1484 84.1875 90.1484C85.4766 90.1484 86.375 89.6172 86.7969 88.6797H86.9219V90H88.2031V81.5781ZM95.0547 83.8828C95.0547 85.1016 95.7734 85.7812 97.3516 86.1641L98.7969 86.5156C99.6953 86.7344 100.133 87.125 100.133 87.7031C100.133 88.4766 99.3203 89.0156 98.1875 89.0156C97.1094 89.0156 96.4375 88.5625 96.2109 87.8516H94.8281C94.9766 89.25 96.2656 90.1484 98.1406 90.1484C100.055 90.1484 101.516 89.1094 101.516 87.6016C101.516 86.3906 100.75 85.7031 99.1641 85.3203L97.8672 85.0078C96.875 84.7656 96.4062 84.4062 96.4062 83.8281C96.4062 83.0781 97.1875 82.5703 98.1875 82.5703C99.2031 82.5703 99.8594 83.0156 100.039 83.6875H101.367C101.188 82.3047 99.9609 81.4297 98.1953 81.4297C96.4062 81.4297 95.0547 82.4844 95.0547 83.8828ZM110.438 81.5781H109.094V86.5625C109.094 88.0391 108.281 88.9219 106.797 88.9219C105.453 88.9219 104.891 88.2188 104.891 86.7031V81.5781H103.547V87.0312C103.547 89.0234 104.531 90.1484 106.422 90.1484C107.711 90.1484 108.609 89.6172 109.031 88.6797H109.156V90H110.438V81.5781ZM112.969 90H114.312V84.7812C114.312 83.5938 115.242 82.7344 116.523 82.7344C116.789 82.7344 117.273 82.7812 117.383 82.8125V81.4688C117.211 81.4453 116.93 81.4297 116.711 81.4297C115.594 81.4297 114.625 82.0078 114.375 82.8281H114.25V81.5781H112.969V90ZM124.406 87.8203C124.055 88.5625 123.32 88.9609 122.234 88.9609C120.805 88.9609 119.875 87.9062 119.805 86.2422V86.1797H125.859V85.6641C125.859 83.0469 124.477 81.4297 122.203 81.4297C119.891 81.4297 118.406 83.1484 118.406 85.7969C118.406 88.4609 119.867 90.1484 122.203 90.1484C124.047 90.1484 125.359 89.2578 125.75 87.8203H124.406ZM122.188 82.6172C123.523 82.6172 124.414 83.6016 124.445 85.0938H119.805C119.906 83.6016 120.844 82.6172 122.188 82.6172ZM133.203 93.0469C134.695 93.0469 135.367 92.4688 136.086 90.5156L139.375 81.5781H137.945L135.641 88.5078H135.516L133.203 81.5781H131.75L134.867 90.0078L134.711 90.5078C134.359 91.5234 133.938 91.8906 133.164 91.8906C132.977 91.8906 132.766 91.8828 132.602 91.8516V93C132.789 93.0312 133.023 93.0469 133.203 93.0469ZM144.32 90.1484C146.719 90.1484 148.203 88.4922 148.203 85.7891C148.203 83.0781 146.719 81.4297 144.32 81.4297C141.922 81.4297 140.438 83.0781 140.438 85.7891C140.438 88.4922 141.922 90.1484 144.32 90.1484ZM144.32 88.9375C142.727 88.9375 141.828 87.7812 141.828 85.7891C141.828 83.7891 142.727 82.6406 144.32 82.6406C145.914 82.6406 146.812 83.7891 146.812 85.7891C146.812 87.7812 145.914 88.9375 144.32 88.9375ZM157.125 81.5781H155.781V86.5625C155.781 88.0391 154.969 88.9219 153.484 88.9219C152.141 88.9219 151.578 88.2188 151.578 86.7031V81.5781H150.234V87.0312C150.234 89.0234 151.219 90.1484 153.109 90.1484C154.398 90.1484 155.297 89.6172 155.719 88.6797H155.844V90H157.125V81.5781ZM174.766 81.5781H173.414L171.758 88.3125H171.633L169.75 81.5781H168.461L166.578 88.3125H166.453L164.797 81.5781H163.438L165.797 90H167.156L169.031 83.4844H169.156L171.039 90H172.406L174.766 81.5781ZM178.672 90.1484C179.797 90.1484 180.719 89.6562 181.266 88.7578H181.391V90H182.672V84.2344C182.672 82.4844 181.523 81.4297 179.469 81.4297C177.672 81.4297 176.344 82.3203 176.164 83.6719H177.523C177.711 83.0078 178.414 82.625 179.422 82.625C180.68 82.625 181.328 83.1953 181.328 84.2344V85L178.898 85.1484C176.938 85.2656 175.828 86.1328 175.828 87.6406C175.828 89.1797 177.039 90.1484 178.672 90.1484ZM178.922 88.9688C177.945 88.9688 177.219 88.4688 177.219 87.6094C177.219 86.7656 177.781 86.3203 179.062 86.2344L181.328 86.0859V86.8594C181.328 88.0625 180.305 88.9688 178.922 88.9688ZM185.156 90H186.5V85.0156C186.5 83.5391 187.367 82.6406 188.711 82.6406C190.055 82.6406 190.695 83.3594 190.695 84.875V90H192.039V84.5469C192.039 82.5469 190.984 81.4297 189.094 81.4297C187.805 81.4297 186.984 81.9766 186.562 82.9062H186.438V81.5781H185.156V90ZM195.062 79.3984V81.5781H193.703V82.7031H195.062V87.8125C195.062 89.4219 195.758 90.0625 197.492 90.0625C197.758 90.0625 198.016 90.0312 198.281 89.9844V88.8516C198.031 88.875 197.898 88.8828 197.656 88.8828C196.781 88.8828 196.406 88.4609 196.406 87.4688V82.7031H198.281V81.5781H196.406V79.3984H195.062ZM205.391 79.3984V81.5781H204.031V82.7031H205.391V87.8125C205.391 89.4219 206.086 90.0625 207.82 90.0625C208.086 90.0625 208.344 90.0312 208.609 89.9844V88.8516C208.359 88.875 208.227 88.8828 207.984 88.8828C207.109 88.8828 206.734 88.4609 206.734 87.4688V82.7031H208.609V81.5781H206.734V79.3984H205.391ZM213.977 90.1484C216.375 90.1484 217.859 88.4922 217.859 85.7891C217.859 83.0781 216.375 81.4297 213.977 81.4297C211.578 81.4297 210.094 83.0781 210.094 85.7891C210.094 88.4922 211.578 90.1484 213.977 90.1484ZM213.977 88.9375C212.383 88.9375 211.484 87.7812 211.484 85.7891C211.484 83.7891 212.383 82.6406 213.977 82.6406C215.57 82.6406 216.469 83.7891 216.469 85.7891C216.469 87.7812 215.57 88.9375 213.977 88.9375ZM226.828 90.1484C227.953 90.1484 228.875 89.6562 229.422 88.7578H229.547V90H230.828V84.2344C230.828 82.4844 229.68 81.4297 227.625 81.4297C225.828 81.4297 224.5 82.3203 224.32 83.6719H225.68C225.867 83.0078 226.57 82.625 227.578 82.625C228.836 82.625 229.484 83.1953 229.484 84.2344V85L227.055 85.1484C225.094 85.2656 223.984 86.1328 223.984 87.6406C223.984 89.1797 225.195 90.1484 226.828 90.1484ZM227.078 88.9688C226.102 88.9688 225.375 88.4688 225.375 87.6094C225.375 86.7656 225.938 86.3203 227.219 86.2344L229.484 86.0859V86.8594C229.484 88.0625 228.461 88.9688 227.078 88.9688ZM236.43 90.1484C237.594 90.1484 238.594 89.5938 239.125 88.6562H239.25V90H240.531V78.2344H239.188V82.9062H239.07C238.594 81.9844 237.602 81.4297 236.43 81.4297C234.289 81.4297 232.891 83.1484 232.891 85.7891C232.891 88.4375 234.273 90.1484 236.43 90.1484ZM236.742 82.6406C238.266 82.6406 239.219 83.8594 239.219 85.7891C239.219 87.7344 238.273 88.9375 236.742 88.9375C235.203 88.9375 234.281 87.7578 234.281 85.7891C234.281 83.8281 235.211 82.6406 236.742 82.6406ZM246.258 90.1484C247.422 90.1484 248.422 89.5938 248.953 88.6562H249.078V90H250.359V78.2344H249.016V82.9062H248.898C248.422 81.9844 247.43 81.4297 246.258 81.4297C244.117 81.4297 242.719 83.1484 242.719 85.7891C242.719 88.4375 244.102 90.1484 246.258 90.1484ZM246.57 82.6406C248.094 82.6406 249.047 83.8594 249.047 85.7891C249.047 87.7344 248.102 88.9375 246.57 88.9375C245.031 88.9375 244.109 87.7578 244.109 85.7891C244.109 83.8281 245.039 82.6406 246.57 82.6406ZM258.203 93.0469C259.695 93.0469 260.367 92.4688 261.086 90.5156L264.375 81.5781H262.945L260.641 88.5078H260.516L258.203 81.5781H256.75L259.867 90.0078L259.711 90.5078C259.359 91.5234 258.938 91.8906 258.164 91.8906C257.977 91.8906 257.766 91.8828 257.602 91.8516V93C257.789 93.0312 258.023 93.0469 258.203 93.0469ZM269.32 90.1484C271.719 90.1484 273.203 88.4922 273.203 85.7891C273.203 83.0781 271.719 81.4297 269.32 81.4297C266.922 81.4297 265.438 83.0781 265.438 85.7891C265.438 88.4922 266.922 90.1484 269.32 90.1484ZM269.32 88.9375C267.727 88.9375 266.828 87.7812 266.828 85.7891C266.828 83.7891 267.727 82.6406 269.32 82.6406C270.914 82.6406 271.812 83.7891 271.812 85.7891C271.812 87.7812 270.914 88.9375 269.32 88.9375ZM282.125 81.5781H280.781V86.5625C280.781 88.0391 279.969 88.9219 278.484 88.9219C277.141 88.9219 276.578 88.2188 276.578 86.7031V81.5781H275.234V87.0312C275.234 89.0234 276.219 90.1484 278.109 90.1484C279.398 90.1484 280.297 89.6172 280.719 88.6797H280.844V90H282.125V81.5781ZM284.656 90H286V84.7812C286 83.5938 286.93 82.7344 288.211 82.7344C288.477 82.7344 288.961 82.7812 289.07 82.8125V81.4688C288.898 81.4453 288.617 81.4297 288.398 81.4297C287.281 81.4297 286.312 82.0078 286.062 82.8281H285.938V81.5781H284.656V90ZM300.086 90L304.242 78.7266H302.766L299.453 88.1797H299.328L296.016 78.7266H294.539L298.695 90H300.086ZM306.75 79.9531C307.266 79.9531 307.688 79.5312 307.688 79.0156C307.688 78.5 307.266 78.0781 306.75 78.0781C306.234 78.0781 305.812 78.5 305.812 79.0156C305.812 79.5312 306.234 79.9531 306.75 79.9531ZM306.078 90H307.422V81.5781H306.078V90ZM309.789 83.8828C309.789 85.1016 310.508 85.7812 312.086 86.1641L313.531 86.5156C314.43 86.7344 314.867 87.125 314.867 87.7031C314.867 88.4766 314.055 89.0156 312.922 89.0156C311.844 89.0156 311.172 88.5625 310.945 87.8516H309.562C309.711 89.25 311 90.1484 312.875 90.1484C314.789 90.1484 316.25 89.1094 316.25 87.6016C316.25 86.3906 315.484 85.7031 313.898 85.3203L312.602 85.0078C311.609 84.7656 311.141 84.4062 311.141 83.8281C311.141 83.0781 311.922 82.5703 312.922 82.5703C313.938 82.5703 314.594 83.0156 314.773 83.6875H316.102C315.922 82.3047 314.695 81.4297 312.93 81.4297C311.141 81.4297 309.789 82.4844 309.789 83.8828ZM320.703 90.1484C321.828 90.1484 322.75 89.6562 323.297 88.7578H323.422V90H324.703V84.2344C324.703 82.4844 323.555 81.4297 321.5 81.4297C319.703 81.4297 318.375 82.3203 318.195 83.6719H319.555C319.742 83.0078 320.445 82.625 321.453 82.625C322.711 82.625 323.359 83.1953 323.359 84.2344V85L320.93 85.1484C318.969 85.2656 317.859 86.1328 317.859 87.6406C317.859 89.1797 319.07 90.1484 320.703 90.1484ZM320.953 88.9688C319.977 88.9688 319.25 88.4688 319.25 87.6094C319.25 86.7656 319.812 86.3203 321.094 86.2344L323.359 86.0859V86.8594C323.359 88.0625 322.336 88.9688 320.953 88.9688ZM338.672 84.1562C338.438 82.6562 337.188 81.4297 335.141 81.4297C332.781 81.4297 331.281 83.1328 331.281 85.7578C331.281 88.4375 332.789 90.1484 335.148 90.1484C337.172 90.1484 338.43 89.0078 338.672 87.4609H337.312C337.062 88.4141 336.273 88.9375 335.141 88.9375C333.641 88.9375 332.672 87.7031 332.672 85.7578C332.672 83.8516 333.625 82.6406 335.141 82.6406C336.352 82.6406 337.094 83.3203 337.312 84.1562H338.672ZM340.656 90H342V84.7812C342 83.5938 342.93 82.7344 344.211 82.7344C344.477 82.7344 344.961 82.7812 345.07 82.8125V81.4688C344.898 81.4453 344.617 81.4297 344.398 81.4297C343.281 81.4297 342.312 82.0078 342.062 82.8281H341.938V81.5781H340.656V90ZM352.094 87.8203C351.742 88.5625 351.008 88.9609 349.922 88.9609C348.492 88.9609 347.562 87.9062 347.492 86.2422V86.1797H353.547V85.6641C353.547 83.0469 352.164 81.4297 349.891 81.4297C347.578 81.4297 346.094 83.1484 346.094 85.7969C346.094 88.4609 347.555 90.1484 349.891 90.1484C351.734 90.1484 353.047 89.2578 353.438 87.8203H352.094ZM349.875 82.6172C351.211 82.6172 352.102 83.6016 352.133 85.0938H347.492C347.594 83.6016 348.531 82.6172 349.875 82.6172ZM358.773 90.1484C359.938 90.1484 360.938 89.5938 361.469 88.6562H361.594V90H362.875V78.2344H361.531V82.9062H361.414C360.938 81.9844 359.945 81.4297 358.773 81.4297C356.633 81.4297 355.234 83.1484 355.234 85.7891C355.234 88.4375 356.617 90.1484 358.773 90.1484ZM359.086 82.6406C360.609 82.6406 361.562 83.8594 361.562 85.7891C361.562 87.7344 360.617 88.9375 359.086 88.9375C357.547 88.9375 356.625 87.7578 356.625 85.7891C356.625 83.8281 357.555 82.6406 359.086 82.6406ZM366.188 79.9531C366.703 79.9531 367.125 79.5312 367.125 79.0156C367.125 78.5 366.703 78.0781 366.188 78.0781C365.672 78.0781 365.25 78.5 365.25 79.0156C365.25 79.5312 365.672 79.9531 366.188 79.9531ZM365.516 90H366.859V81.5781H365.516V90ZM369.984 79.3984V81.5781H368.625V82.7031H369.984V87.8125C369.984 89.4219 370.68 90.0625 372.414 90.0625C372.68 90.0625 372.938 90.0312 373.203 89.9844V88.8516C372.953 88.875 372.82 88.8828 372.578 88.8828C371.703 88.8828 371.328 88.4609 371.328 87.4688V82.7031H373.203V81.5781H371.328V79.3984H369.984ZM386.719 84.1562C386.484 82.6562 385.234 81.4297 383.188 81.4297C380.828 81.4297 379.328 83.1328 379.328 85.7578C379.328 88.4375 380.836 90.1484 383.195 90.1484C385.219 90.1484 386.477 89.0078 386.719 87.4609H385.359C385.109 88.4141 384.32 88.9375 383.188 88.9375C381.688 88.9375 380.719 87.7031 380.719 85.7578C380.719 83.8516 381.672 82.6406 383.188 82.6406C384.398 82.6406 385.141 83.3203 385.359 84.1562H386.719ZM391.047 90.1484C392.172 90.1484 393.094 89.6562 393.641 88.7578H393.766V90H395.047V84.2344C395.047 82.4844 393.898 81.4297 391.844 81.4297C390.047 81.4297 388.719 82.3203 388.539 83.6719H389.898C390.086 83.0078 390.789 82.625 391.797 82.625C393.055 82.625 393.703 83.1953 393.703 84.2344V85L391.273 85.1484C389.312 85.2656 388.203 86.1328 388.203 87.6406C388.203 89.1797 389.414 90.1484 391.047 90.1484ZM391.297 88.9688C390.32 88.9688 389.594 88.4688 389.594 87.6094C389.594 86.7656 390.156 86.3203 391.438 86.2344L393.703 86.0859V86.8594C393.703 88.0625 392.68 88.9688 391.297 88.9688ZM397.531 90H398.875V84.7812C398.875 83.5938 399.805 82.7344 401.086 82.7344C401.352 82.7344 401.836 82.7812 401.945 82.8125V81.4688C401.773 81.4453 401.492 81.4297 401.273 81.4297C400.156 81.4297 399.188 82.0078 398.938 82.8281H398.812V81.5781H397.531V90ZM406.508 90.1484C407.672 90.1484 408.672 89.5938 409.203 88.6562H409.328V90H410.609V78.2344H409.266V82.9062H409.148C408.672 81.9844 407.68 81.4297 406.508 81.4297C404.367 81.4297 402.969 83.1484 402.969 85.7891C402.969 88.4375 404.352 90.1484 406.508 90.1484ZM406.82 82.6406C408.344 82.6406 409.297 83.8594 409.297 85.7891C409.297 87.7344 408.352 88.9375 406.82 88.9375C405.281 88.9375 404.359 87.7578 404.359 85.7891C404.359 83.8281 405.289 82.6406 406.82 82.6406ZM38.8438 111.82C38.4922 112.562 37.7578 112.961 36.6719 112.961C35.2422 112.961 34.3125 111.906 34.2422 110.242V110.18H40.2969V109.664C40.2969 107.047 38.9141 105.43 36.6406 105.43C34.3281 105.43 32.8438 107.148 32.8438 109.797C32.8438 112.461 34.3047 114.148 36.6406 114.148C38.4844 114.148 39.7969 113.258 40.1875 111.82H38.8438ZM36.625 106.617C37.9609 106.617 38.8516 107.602 38.8828 109.094H34.2422C34.3438 107.602 35.2812 106.617 36.625 106.617ZM42.4062 114H43.75V109.016C43.75 107.539 44.6172 106.641 45.9609 106.641C47.3047 106.641 47.9453 107.359 47.9453 108.875V114H49.2891V108.547C49.2891 106.547 48.2344 105.43 46.3438 105.43C45.0547 105.43 44.2344 105.977 43.8125 106.906H43.6875V105.578H42.4062V114ZM54.8672 114.148C56.0312 114.148 57.0312 113.594 57.5625 112.656H57.6875V114H58.9688V102.234H57.625V106.906H57.5078C57.0312 105.984 56.0391 105.43 54.8672 105.43C52.7266 105.43 51.3281 107.148 51.3281 109.789C51.3281 112.438 52.7109 114.148 54.8672 114.148ZM55.1797 106.641C56.7031 106.641 57.6562 107.859 57.6562 109.789C57.6562 111.734 56.7109 112.938 55.1797 112.938C53.6406 112.938 52.7188 111.758 52.7188 109.789C52.7188 107.828 53.6484 106.641 55.1797 106.641ZM62.2812 103.953C62.7969 103.953 63.2188 103.531 63.2188 103.016C63.2188 102.5 62.7969 102.078 62.2812 102.078C61.7656 102.078 61.3438 102.5 61.3438 103.016C61.3438 103.531 61.7656 103.953 62.2812 103.953ZM61.6094 114H62.9531V105.578H61.6094V114ZM65.5156 114H66.8594V109.016C66.8594 107.539 67.7266 106.641 69.0703 106.641C70.4141 106.641 71.0547 107.359 71.0547 108.875V114H72.3984V108.547C72.3984 106.547 71.3438 105.43 69.4531 105.43C68.1641 105.43 67.3438 105.977 66.9219 106.906H66.7969V105.578H65.5156V114ZM78.3281 117.234C80.625 117.234 82.0781 116.031 82.0781 114.148V105.578H80.7969V106.914H80.6719C80.1875 106.008 79.1484 105.43 77.9688 105.43C75.8047 105.43 74.4375 107.141 74.4375 109.664C74.4375 112.188 75.7891 113.875 77.9688 113.875C79.125 113.875 80.0781 113.352 80.6094 112.422H80.7344V114.078C80.7344 115.32 79.8359 116.062 78.3281 116.062C77.1172 116.062 76.3672 115.617 76.2188 114.93H74.7969C75 116.32 76.2969 117.234 78.3281 117.234ZM78.2656 112.688C76.7031 112.688 75.8281 111.5 75.8281 109.664C75.8281 107.828 76.7031 106.641 78.2656 106.641C79.8203 106.641 80.7656 107.828 80.7656 109.664C80.7656 111.5 79.8281 112.688 78.2656 112.688ZM91.5312 111.531C92.6016 111.531 93.4297 110.703 93.4297 109.633C93.4297 108.562 92.6016 107.734 91.5312 107.734C90.4609 107.734 89.6328 108.562 89.6328 109.633C89.6328 110.703 90.4609 111.531 91.5312 111.531ZM98.875 111.531C99.9453 111.531 100.773 110.703 100.773 109.633C100.773 108.562 99.9453 107.734 98.875 107.734C97.8047 107.734 96.9766 108.562 96.9766 109.633C96.9766 110.703 97.8047 111.531 98.875 111.531ZM106.219 111.531C107.289 111.531 108.117 110.703 108.117 109.633C108.117 108.562 107.289 107.734 106.219 107.734C105.148 107.734 104.32 108.562 104.32 109.633C104.32 110.703 105.148 111.531 106.219 111.531ZM113.562 111.531C114.633 111.531 115.461 110.703 115.461 109.633C115.461 108.562 114.633 107.734 113.562 107.734C112.492 107.734 111.664 108.562 111.664 109.633C111.664 110.703 112.492 111.531 113.562 111.531ZM123.641 114H125.016V111.664H126.617V110.406H125.016V102.727H122.977C121.398 105.078 119.672 107.828 118.148 110.383V111.664H123.641V114ZM119.586 110.32C120.812 108.25 122.289 105.922 123.555 104.031H123.648V110.414H119.586V110.32ZM128.719 105.906H130.078C130.078 104.57 130.977 103.688 132.328 103.688C133.656 103.688 134.461 104.578 134.461 105.773C134.461 106.766 134.039 107.352 132.602 108.906L128.789 113.031V114H136.086V112.734H130.742V112.609L133.305 109.961C135.336 107.859 135.898 106.922 135.898 105.625C135.898 103.797 134.391 102.461 132.422 102.461C130.266 102.461 128.719 103.898 128.719 105.906ZM143.375 114H144.75V111.664H146.352V110.406H144.75V102.727H142.711C141.133 105.078 139.406 107.828 137.883 110.383V111.664H143.375V114ZM139.32 110.32C140.547 108.25 142.023 105.922 143.289 104.031H143.383V110.414H139.32V110.32ZM148.453 105.906H149.812C149.812 104.57 150.711 103.688 152.062 103.688C153.391 103.688 154.195 104.578 154.195 105.773C154.195 106.766 153.773 107.352 152.336 108.906L148.523 113.031V114H155.82V112.734H150.477V112.609L153.039 109.961C155.07 107.859 155.633 106.922 155.633 105.625C155.633 103.797 154.125 102.461 152.156 102.461C150 102.461 148.453 103.898 148.453 105.906ZM157.562 105.672H158.898C158.984 104.555 159.734 103.859 160.914 103.859C162.078 103.859 162.828 104.57 162.828 105.539C162.828 106.375 162.477 106.867 161.57 107.422C160.5 108.062 160 108.766 160.008 109.797V110.516H161.375V110.008C161.375 109.188 161.656 108.75 162.648 108.164C163.648 107.562 164.281 106.695 164.281 105.469C164.281 103.859 162.938 102.641 160.969 102.641C158.773 102.641 157.648 103.984 157.562 105.672ZM160.797 114.141C161.43 114.141 161.875 113.688 161.875 113.055C161.875 112.414 161.43 111.961 160.797 111.961C160.164 111.961 159.711 112.414 159.711 113.055C159.711 113.688 160.164 114.141 160.797 114.141Z" fill="#4F566B"/>
<rect x="30" y="70" width="396" height="52" stroke="white" stroke-width="4"/>
<rect x="30" y="26" width="119" height="28" fill="white"/>
<path d="M38.1562 46.2891C40.875 46.2891 42.8594 44.6406 43.0547 42.2344H40.7578C40.5312 43.4766 39.5156 44.2734 38.1641 44.2734C36.3828 44.2734 35.2812 42.7734 35.2812 40.3594C35.2812 37.9453 36.3828 36.4453 38.1562 36.4453C39.5 36.4453 40.5234 37.3047 40.75 38.6094H43.0469C42.875 36.1875 40.8281 34.4375 38.1562 34.4375C34.8828 34.4375 32.8672 36.6953 32.8672 40.3594C32.8672 44.0234 34.8906 46.2891 38.1562 46.2891ZM48.8203 46.1797C51.4688 46.1797 53.0625 44.5078 53.0625 41.6953C53.0625 38.9062 51.4453 37.2109 48.8203 37.2109C46.1953 37.2109 44.5781 38.9141 44.5781 41.6953C44.5781 44.5 46.1719 46.1797 48.8203 46.1797ZM48.8203 44.3828C47.6016 44.3828 46.9141 43.3984 46.9141 41.6953C46.9141 40.0078 47.6094 39.0156 48.8203 39.0156C50.0234 39.0156 50.7266 40.0078 50.7266 41.6953C50.7266 43.3984 50.0312 44.3828 48.8203 44.3828ZM54.9219 46H57.1953V41.0234C57.1953 39.8594 57.8438 39.1094 58.8984 39.1094C59.9766 39.1094 60.4844 39.7422 60.4844 40.9531V46H62.7578V40.4375C62.7578 38.3828 61.7266 37.2109 59.8125 37.2109C58.5391 37.2109 57.6641 37.8125 57.2656 38.7812H57.125V37.3984H54.9219V46ZM65.6328 46H67.9062V39.2031H69.6875V37.4766H67.8594V36.75C67.8594 36 68.1875 35.6328 69.0781 35.6328C69.375 35.6328 69.6094 35.6562 69.7578 35.6797V34.1094C69.4297 34.0625 69.0469 34.0234 68.5859 34.0234C66.5078 34.0234 65.6328 34.8828 65.6328 36.5938V37.4766H64.2422V39.2031H65.6328V46ZM72.6562 36.0781C73.3594 36.0781 73.9375 35.5156 73.9375 34.8125C73.9375 34.1016 73.3594 33.5391 72.6562 33.5391C71.9531 33.5391 71.3672 34.1016 71.3672 34.8125C71.3672 35.5156 71.9531 36.0781 72.6562 36.0781ZM71.5156 46H73.7891V37.3984H71.5156V46ZM76.0938 46H78.3672V41.1875C78.3672 39.9766 79.2188 39.2344 80.4609 39.2344C80.8281 39.2344 81.3594 39.2969 81.5391 39.3594V37.3594C81.3438 37.2969 80.9609 37.2578 80.6484 37.2578C79.5547 37.2578 78.6641 37.9062 78.4375 38.7656H78.2969V37.3984H76.0938V46ZM83.1406 46H85.4141V40.8125C85.4141 39.8281 86.0469 39.1094 86.9375 39.1094C87.8281 39.1094 88.3594 39.6406 88.3594 40.5625V46H90.5469V40.7109C90.5469 39.7812 91.1406 39.1094 92.0625 39.1094C93.0234 39.1094 93.5 39.625 93.5 40.6641V46H95.7734V40.0938C95.7734 38.3203 94.7031 37.2109 92.9844 37.2109C91.7812 37.2109 90.7891 37.8438 90.3906 38.7969H90.25C89.9062 37.8125 89.0781 37.2109 87.8672 37.2109C86.7344 37.2109 85.8359 37.8125 85.4844 38.7969H85.3438V37.3984H83.1406V46ZM101.914 39.9062C101.914 41.2266 102.727 42.0156 104.398 42.3828L105.961 42.7344C106.719 42.9062 107.047 43.1719 107.047 43.6094C107.047 44.1797 106.438 44.5703 105.555 44.5703C104.648 44.5703 104.094 44.2188 103.922 43.625H101.703C101.859 45.25 103.234 46.1797 105.508 46.1797C107.766 46.1797 109.305 45.0703 109.305 43.3672C109.305 42.0859 108.555 41.3828 106.883 41.0156L105.266 40.6641C104.469 40.4844 104.102 40.2109 104.102 39.7734C104.102 39.2109 104.703 38.8281 105.516 38.8281C106.359 38.8281 106.883 39.1797 107 39.75H109.102C108.977 38.125 107.688 37.2109 105.5 37.2109C103.352 37.2109 101.914 38.2969 101.914 39.9062ZM116.742 43.5703C116.5 44.1562 115.883 44.4844 114.984 44.4844C113.797 44.4844 113.047 43.6641 113.016 42.3516V42.2344H118.93V41.5547C118.93 38.8359 117.43 37.2109 114.891 37.2109C112.328 37.2109 110.75 38.9453 110.75 41.7422C110.75 44.5234 112.297 46.1797 114.922 46.1797C117.031 46.1797 118.523 45.1719 118.859 43.5703H116.742ZM114.898 38.9062C115.961 38.9062 116.648 39.6406 116.695 40.8203H113.023C113.102 39.6641 113.844 38.9062 114.898 38.9062ZM121.445 35.3438V37.4766H120.102V39.2031H121.445V43.6797C121.445 45.3516 122.273 46.0312 124.367 46.0312C124.805 46.0312 125.227 45.9844 125.508 45.9297V44.25C125.289 44.2734 125.133 44.2891 124.836 44.2891C124.062 44.2891 123.719 43.9297 123.719 43.1562V39.2031H125.508V37.4766H123.719V35.3438H121.445ZM135.203 37.3984H132.93V42.3672C132.93 43.5469 132.32 44.2734 131.188 44.2734C130.141 44.2734 129.602 43.6562 129.602 42.4375V37.3984H127.328V43C127.328 45 128.484 46.1797 130.344 46.1797C131.648 46.1797 132.453 45.6172 132.859 44.6172H133V46H135.203V37.3984ZM142.461 37.2578C141.273 37.2578 140.297 37.8438 139.828 38.8125H139.688V37.3984H137.484V48.8516H139.758V44.6875H139.898C140.32 45.5938 141.266 46.1328 142.5 46.1328C144.656 46.1328 145.977 44.4609 145.977 41.6953C145.977 38.9219 144.641 37.2578 142.461 37.2578ZM141.688 44.2969C140.484 44.2969 139.734 43.3125 139.734 41.7031C139.734 40.0938 140.484 39.1016 141.695 39.1016C142.906 39.1016 143.641 40.0781 143.641 41.6953C143.641 43.3203 142.914 44.2969 141.688 44.2969Z" fill="#3C4257"/>
<rect x="30" y="26" width="119" height="28" stroke="white" stroke-width="4"/>
<rect x="0.5" y="0.5" width="447" height="223" rx="7.5" stroke="#E3E8EE"/>
<defs>
<clipPath id="clip0">
<path d="M0 0H448V224H0V0Z" fill="white"/>
</clipPath>
</defs>
</svg>
