<svg width="736" height="288" viewBox="0 0 736 288" fill="none" xmlns="http://www.w3.org/2000/svg">
<g clip-path="url(#clip0)">
<path d="M0 0H736V288H0V0Z" fill="white"/>
<path d="M0 0L736 -6.43432e-05" stroke="#E3E8EE" stroke-width="2" stroke-linecap="round" stroke-linejoin="round" stroke-dasharray="0.01 16"/>
<path d="M0 16L736 15.9999" stroke="#E3E8EE" stroke-width="2" stroke-linecap="round" stroke-linejoin="round" stroke-dasharray="0.01 16"/>
<path d="M0 32L736 31.9999" stroke="#E3E8EE" stroke-width="2" stroke-linecap="round" stroke-linejoin="round" stroke-dasharray="0.01 16"/>
<path d="M0 48L736 47.9999" stroke="#E3E8EE" stroke-width="2" stroke-linecap="round" stroke-linejoin="round" stroke-dasharray="0.01 16"/>
<path d="M0 64L736 63.9999" stroke="#E3E8EE" stroke-width="2" stroke-linecap="round" stroke-linejoin="round" stroke-dasharray="0.01 16"/>
<path d="M0 80L736 79.9999" stroke="#E3E8EE" stroke-width="2" stroke-linecap="round" stroke-linejoin="round" stroke-dasharray="0.01 16"/>
<path d="M0 96L736 95.9999" stroke="#E3E8EE" stroke-width="2" stroke-linecap="round" stroke-linejoin="round" stroke-dasharray="0.01 16"/>
<path d="M0 112L736 112" stroke="#E3E8EE" stroke-width="2" stroke-linecap="round" stroke-linejoin="round" stroke-dasharray="0.01 16"/>
<path d="M0 128L736 128" stroke="#E3E8EE" stroke-width="2" stroke-linecap="round" stroke-linejoin="round" stroke-dasharray="0.01 16"/>
<path d="M0 144L736 144" stroke="#E3E8EE" stroke-width="2" stroke-linecap="round" stroke-linejoin="round" stroke-dasharray="0.01 16"/>
<path d="M0 160L736 160" stroke="#E3E8EE" stroke-width="2" stroke-linecap="round" stroke-linejoin="round" stroke-dasharray="0.01 16"/>
<path d="M0 176L736 176" stroke="#E3E8EE" stroke-width="2" stroke-linecap="round" stroke-linejoin="round" stroke-dasharray="0.01 16"/>
<path d="M0 192L736 192" stroke="#E3E8EE" stroke-width="2" stroke-linecap="round" stroke-linejoin="round" stroke-dasharray="0.01 16"/>
<path d="M0 208L736 208" stroke="#E3E8EE" stroke-width="2" stroke-linecap="round" stroke-linejoin="round" stroke-dasharray="0.01 16"/>
<path d="M0 224L736 224" stroke="#E3E8EE" stroke-width="2" stroke-linecap="round" stroke-linejoin="round" stroke-dasharray="0.01 16"/>
<path d="M0 240L736 240" stroke="#E3E8EE" stroke-width="2" stroke-linecap="round" stroke-linejoin="round" stroke-dasharray="0.01 16"/>
<path d="M0 256L736 256" stroke="#E3E8EE" stroke-width="2" stroke-linecap="round" stroke-linejoin="round" stroke-dasharray="0.01 16"/>
<path d="M0 272L736 272" stroke="#E3E8EE" stroke-width="2" stroke-linecap="round" stroke-linejoin="round" stroke-dasharray="0.01 16"/>
<path d="M0 288L736 288" stroke="#E3E8EE" stroke-width="2" stroke-linecap="round" stroke-linejoin="round" stroke-dasharray="0.01 16"/>
<rect x="0.5" y="0.5" width="735" height="287" stroke="white"/>
</g>
<rect x="30" y="22" width="265" height="36" fill="white"/>
<path fill-rule="evenodd" clip-rule="evenodd" d="M35.5 39V37C35.5 34.2386 37.7386 32 40.5 32C43.2614 32 45.5 34.2386 45.5 37V39H46C46.5523 39 47 39.4477 47 40V46C47 47.1046 46.1046 48 45 48H36C34.8954 48 34 47.1046 34 46V40C34 39.4477 34.4477 39 35 39H35.5ZM40.5 41.5C39.9477 41.5 39.5 41.9477 39.5 42.5V44.5C39.5 45.0523 39.9477 45.5 40.5 45.5C41.0523 45.5 41.5 45.0523 41.5 44.5V42.5C41.5 41.9477 41.0523 41.5 40.5 41.5ZM43.5 39V37C43.5 35.3431 42.1569 34 40.5 34C38.8431 34 37.5 35.3431 37.5 37V39H43.5Z" fill="#4F566B"/>
<path d="M67.7266 46V34.7266H65.3672V46H67.7266ZM70.2344 46H72.5078V41.0234C72.5078 39.8594 73.1562 39.1094 74.2109 39.1094C75.2891 39.1094 75.7969 39.7422 75.7969 40.9531V46H78.0703V40.4375C78.0703 38.3828 77.0391 37.2109 75.125 37.2109C73.8516 37.2109 72.9766 37.8125 72.5781 38.7812H72.4375V37.3984H70.2344V46ZM81.4375 36.0781C82.1406 36.0781 82.7188 35.5156 82.7188 34.8125C82.7188 34.1016 82.1406 33.5391 81.4375 33.5391C80.7344 33.5391 80.1484 34.1016 80.1484 34.8125C80.1484 35.5156 80.7344 36.0781 81.4375 36.0781ZM80.2969 46H82.5703V37.3984H80.2969V46ZM85.5234 35.3438V37.4766H84.1797V39.2031H85.5234V43.6797C85.5234 45.3516 86.3516 46.0312 88.4453 46.0312C88.8828 46.0312 89.3047 45.9844 89.5859 45.9297V44.25C89.3672 44.2734 89.2109 44.2891 88.9141 44.2891C88.1406 44.2891 87.7969 43.9297 87.7969 43.1562V39.2031H89.5859V37.4766H87.7969V35.3438H85.5234ZM92.6406 36.0781C93.3438 36.0781 93.9219 35.5156 93.9219 34.8125C93.9219 34.1016 93.3438 33.5391 92.6406 33.5391C91.9375 33.5391 91.3516 34.1016 91.3516 34.8125C91.3516 35.5156 91.9375 36.0781 92.6406 36.0781ZM91.5 46H93.7734V37.3984H91.5V46ZM98.4375 46.1328C99.5547 46.1328 100.492 45.6562 100.938 44.8594H101.078V46H103.281V40.125C103.281 38.2891 101.992 37.2109 99.7109 37.2109C97.5469 37.2109 96.0859 38.2031 95.9375 39.7812H98.0312C98.2188 39.2422 98.7656 38.9531 99.5859 38.9531C100.523 38.9531 101.039 39.3828 101.039 40.125V40.8359L98.9531 40.9609C96.8125 41.0859 95.6172 41.9922 95.6172 43.5469C95.6172 45.1172 96.7812 46.1328 98.4375 46.1328ZM99.1875 44.4688C98.3984 44.4688 97.8438 44.0703 97.8438 43.4062C97.8438 42.7734 98.3203 42.4062 99.2969 42.3438L101.039 42.2266V42.8672C101.039 43.7734 100.242 44.4688 99.1875 44.4688ZM105.594 46H107.867V34.1094H105.594V46ZM119.336 37.2578C118.148 37.2578 117.172 37.8438 116.703 38.8125H116.562V37.3984H114.359V48.8516H116.633V44.6875H116.773C117.195 45.5938 118.141 46.1328 119.375 46.1328C121.531 46.1328 122.852 44.4609 122.852 41.6953C122.852 38.9219 121.516 37.2578 119.336 37.2578ZM118.562 44.2969C117.359 44.2969 116.609 43.3125 116.609 41.7031C116.609 40.0938 117.359 39.1016 118.57 39.1016C119.781 39.1016 120.516 40.0781 120.516 41.6953C120.516 43.3203 119.789 44.2969 118.562 44.2969ZM127.062 46.1328C128.18 46.1328 129.117 45.6562 129.562 44.8594H129.703V46H131.906V40.125C131.906 38.2891 130.617 37.2109 128.336 37.2109C126.172 37.2109 124.711 38.2031 124.562 39.7812H126.656C126.844 39.2422 127.391 38.9531 128.211 38.9531C129.148 38.9531 129.664 39.3828 129.664 40.125V40.8359L127.578 40.9609C125.438 41.0859 124.242 41.9922 124.242 43.5469C124.242 45.1172 125.406 46.1328 127.062 46.1328ZM127.812 44.4688C127.023 44.4688 126.469 44.0703 126.469 43.4062C126.469 42.7734 126.945 42.4062 127.922 42.3438L129.664 42.2266V42.8672C129.664 43.7734 128.867 44.4688 127.812 44.4688ZM134.977 49.125C137.125 49.125 138.18 48.3594 138.914 46.1641L141.883 37.3984H139.477L137.664 43.9609H137.523L135.711 37.3984H133.203L136.227 46.0469L136.148 46.375C135.961 47.0703 135.477 47.3516 134.625 47.3516C134.531 47.3516 134.188 47.3438 134.109 47.3281V49.1016C134.203 49.1172 134.891 49.125 134.977 49.125ZM143.469 46H145.742V40.8125C145.742 39.8281 146.375 39.1094 147.266 39.1094C148.156 39.1094 148.688 39.6406 148.688 40.5625V46H150.875V40.7109C150.875 39.7812 151.469 39.1094 152.391 39.1094C153.352 39.1094 153.828 39.625 153.828 40.6641V46H156.102V40.0938C156.102 38.3203 155.031 37.2109 153.312 37.2109C152.109 37.2109 151.117 37.8438 150.719 38.7969H150.578C150.234 37.8125 149.406 37.2109 148.195 37.2109C147.062 37.2109 146.164 37.8125 145.812 38.7969H145.672V37.3984H143.469V46ZM163.883 43.5703C163.641 44.1562 163.023 44.4844 162.125 44.4844C160.938 44.4844 160.188 43.6641 160.156 42.3516V42.2344H166.07V41.5547C166.07 38.8359 164.57 37.2109 162.031 37.2109C159.469 37.2109 157.891 38.9453 157.891 41.7422C157.891 44.5234 159.438 46.1797 162.062 46.1797C164.172 46.1797 165.664 45.1719 166 43.5703H163.883ZM162.039 38.9062C163.102 38.9062 163.789 39.6406 163.836 40.8203H160.164C160.242 39.6641 160.984 38.9062 162.039 38.9062ZM167.938 46H170.211V41.0234C170.211 39.8594 170.859 39.1094 171.914 39.1094C172.992 39.1094 173.5 39.7422 173.5 40.9531V46H175.773V40.4375C175.773 38.3828 174.742 37.2109 172.828 37.2109C171.555 37.2109 170.68 37.8125 170.281 38.7812H170.141V37.3984H167.938V46ZM178.633 35.3438V37.4766H177.289V39.2031H178.633V43.6797C178.633 45.3516 179.461 46.0312 181.555 46.0312C181.992 46.0312 182.414 45.9844 182.695 45.9297V44.25C182.477 44.2734 182.32 44.2891 182.023 44.2891C181.25 44.2891 180.906 43.9297 180.906 43.1562V39.2031H182.695V37.4766H180.906V35.3438H178.633ZM188.719 46H190.992V41.1875C190.992 39.9766 191.844 39.2344 193.086 39.2344C193.453 39.2344 193.984 39.2969 194.164 39.3594V37.3594C193.969 37.2969 193.586 37.2578 193.273 37.2578C192.18 37.2578 191.289 37.9062 191.062 38.7656H190.922V37.3984H188.719V46ZM201.055 43.5703C200.812 44.1562 200.195 44.4844 199.297 44.4844C198.109 44.4844 197.359 43.6641 197.328 42.3516V42.2344H203.242V41.5547C203.242 38.8359 201.742 37.2109 199.203 37.2109C196.641 37.2109 195.062 38.9453 195.062 41.7422C195.062 44.5234 196.609 46.1797 199.234 46.1797C201.344 46.1797 202.836 45.1719 203.172 43.5703H201.055ZM199.211 38.9062C200.273 38.9062 200.961 39.6406 201.008 40.8203H197.336C197.414 39.6641 198.156 38.9062 199.211 38.9062ZM208.211 37.2578C206.039 37.2578 204.688 38.9609 204.688 41.6875C204.688 44.4375 206 46.1328 208.164 46.1328C209.383 46.1328 210.289 45.6016 210.75 44.6875H210.891V48.8516H213.172V37.3984H210.961V38.8125H210.82C210.367 37.8594 209.375 37.2578 208.211 37.2578ZM208.953 44.2969C207.742 44.2969 207.023 43.3281 207.023 41.6953C207.023 40.0781 207.75 39.1016 208.961 39.1016C210.164 39.1016 210.922 40.0938 210.922 41.7031C210.922 43.3125 210.172 44.2969 208.953 44.2969ZM223.25 37.3984H220.977V42.3672C220.977 43.5469 220.367 44.2734 219.234 44.2734C218.188 44.2734 217.648 43.6562 217.648 42.4375V37.3984H215.375V43C215.375 45 216.531 46.1797 218.391 46.1797C219.695 46.1797 220.5 45.6172 220.906 44.6172H221.047V46H223.25V37.3984ZM226.688 36.0781C227.391 36.0781 227.969 35.5156 227.969 34.8125C227.969 34.1016 227.391 33.5391 226.688 33.5391C225.984 33.5391 225.398 34.1016 225.398 34.8125C225.398 35.5156 225.984 36.0781 226.688 36.0781ZM225.547 46H227.82V37.3984H225.547V46ZM230.125 46H232.398V41.1875C232.398 39.9766 233.25 39.2344 234.492 39.2344C234.859 39.2344 235.391 39.2969 235.57 39.3594V37.3594C235.375 37.2969 234.992 37.2578 234.68 37.2578C233.586 37.2578 232.695 37.9062 232.469 38.7656H232.328V37.3984H230.125V46ZM242.461 43.5703C242.219 44.1562 241.602 44.4844 240.703 44.4844C239.516 44.4844 238.766 43.6641 238.734 42.3516V42.2344H244.648V41.5547C244.648 38.8359 243.148 37.2109 240.609 37.2109C238.047 37.2109 236.469 38.9453 236.469 41.7422C236.469 44.5234 238.016 46.1797 240.641 46.1797C242.75 46.1797 244.242 45.1719 244.578 43.5703H242.461ZM240.617 38.9062C241.68 38.9062 242.367 39.6406 242.414 40.8203H238.742C238.82 39.6641 239.562 38.9062 240.617 38.9062ZM246.32 39.9062C246.32 41.2266 247.133 42.0156 248.805 42.3828L250.367 42.7344C251.125 42.9062 251.453 43.1719 251.453 43.6094C251.453 44.1797 250.844 44.5703 249.961 44.5703C249.055 44.5703 248.5 44.2188 248.328 43.625H246.109C246.266 45.25 247.641 46.1797 249.914 46.1797C252.172 46.1797 253.711 45.0703 253.711 43.3672C253.711 42.0859 252.961 41.3828 251.289 41.0156L249.672 40.6641C248.875 40.4844 248.508 40.2109 248.508 39.7734C248.508 39.2109 249.109 38.8281 249.922 38.8281C250.766 38.8281 251.289 39.1797 251.406 39.75H253.508C253.383 38.125 252.094 37.2109 249.906 37.2109C247.758 37.2109 246.32 38.2969 246.32 39.9062ZM259.422 42.8828C259.508 44.9688 261.25 46.2891 263.938 46.2891C266.766 46.2891 268.508 44.8984 268.508 42.6484C268.508 40.9062 267.531 39.9297 265.266 39.4453L263.906 39.1562C262.586 38.8672 262.047 38.4531 262.047 37.7422C262.047 36.8594 262.828 36.2891 264.008 36.2891C265.148 36.2891 265.977 36.8906 266.086 37.8125H268.305C268.234 35.8203 266.477 34.4375 263.992 34.4375C261.391 34.4375 259.68 35.8281 259.68 37.9297C259.68 39.6406 260.688 40.6953 262.742 41.1328L264.211 41.4531C265.594 41.7578 266.156 42.1875 266.156 42.9297C266.156 43.8047 265.289 44.4219 264.062 44.4219C262.734 44.4219 261.812 43.8203 261.703 42.8828H259.422ZM275.531 46.2891C278.25 46.2891 280.234 44.6406 280.43 42.2344H278.133C277.906 43.4766 276.891 44.2734 275.539 44.2734C273.758 44.2734 272.656 42.7734 272.656 40.3594C272.656 37.9453 273.758 36.4453 275.531 36.4453C276.875 36.4453 277.898 37.3047 278.125 38.6094H280.422C280.25 36.1875 278.203 34.4375 275.531 34.4375C272.258 34.4375 270.242 36.6953 270.242 40.3594C270.242 44.0234 272.266 46.2891 275.531 46.2891ZM289.484 46H292.039L288.125 34.7266H285.352L281.438 46H283.805L284.672 43.2656H288.633L289.484 46ZM286.594 37.0156H286.734L288.133 41.5H285.18L286.594 37.0156Z" fill="#3C4257"/>
<rect x="30" y="22" width="265" height="36" stroke="white" stroke-width="4"/>
<path d="M32 88C32 83.5817 35.5817 80 40 80H216C220.418 80 224 83.5817 224 88V248C224 252.418 220.418 256 216 256H40C35.5817 256 32 252.418 32 248V88Z" fill="white"/>
<rect x="27" y="75" width="202" height="186" rx="13" stroke="white" stroke-width="10"/>
<path d="M53.0049 135.254H53.083L54.416 140H55.7979L57.668 132.954H56.1445L55.0557 137.988H54.9775L53.6689 132.954H52.4238L51.1396 137.988H51.0615L49.9629 132.954H48.4297L50.2949 140H51.6865L53.0049 135.254ZM63.6201 138.784H60.4268V137.002H63.4395V135.869H60.4268V134.17H63.6201V132.954H58.9521V140H63.6201V138.784ZM68.3369 140C69.8408 140 70.7734 139.224 70.7734 137.983C70.7734 137.075 70.0947 136.377 69.1621 136.304V136.216C69.8848 136.108 70.4365 135.459 70.4365 134.712C70.4365 133.623 69.6211 132.954 68.2539 132.954H65.1729V140H68.3369ZM66.6475 134.048H67.8779C68.5811 134.048 68.9863 134.39 68.9863 134.966C68.9863 135.552 68.5518 135.884 67.7559 135.884H66.6475V134.048ZM66.6475 138.901V136.855H67.9268C68.7959 136.855 69.2695 137.207 69.2695 137.866C69.2695 138.54 68.8105 138.901 67.9609 138.901H66.6475ZM78.2295 140V132.954H76.7549V135.815H73.5811V132.954H72.1064V140H73.5811V137.031H76.7549V140H78.2295ZM83.0195 132.773C80.9443 132.773 79.626 134.189 79.626 136.475C79.626 138.755 80.9248 140.181 83.0195 140.181C85.0996 140.181 86.4082 138.755 86.4082 136.475C86.4082 134.194 85.0947 132.773 83.0195 132.773ZM83.0195 134.023C84.1621 134.023 84.8994 134.976 84.8994 136.475C84.8994 137.969 84.167 138.931 83.0195 138.931C81.8574 138.931 81.1348 137.969 81.1348 136.475C81.1348 134.976 81.8721 134.023 83.0195 134.023ZM90.8906 132.773C88.8154 132.773 87.4971 134.189 87.4971 136.475C87.4971 138.755 88.7959 140.181 90.8906 140.181C92.9707 140.181 94.2793 138.755 94.2793 136.475C94.2793 134.194 92.9658 132.773 90.8906 132.773ZM90.8906 134.023C92.0332 134.023 92.7705 134.976 92.7705 136.475C92.7705 137.969 92.0381 138.931 90.8906 138.931C89.7285 138.931 89.0059 137.969 89.0059 136.475C89.0059 134.976 89.7432 134.023 90.8906 134.023ZM97.1553 140V137.847L97.8535 137.007L99.8994 140H101.667L98.918 136.04L101.486 132.954H99.8457L97.2432 136.118H97.1553V132.954H95.6807V140H97.1553ZM53.3809 204H54.9775L52.5312 196.954H50.7979L48.3516 204H49.8311L50.373 202.291H52.8486L53.3809 204ZM51.5742 198.385H51.6621L52.5361 201.188H50.6904L51.5742 198.385ZM58.6006 204V198.17H60.7148V196.954H55.0117V198.17H57.126V204H58.6006ZM65.2021 204V198.17H67.3164V196.954H61.6133V198.17H63.7275V204H65.2021ZM70.0947 201.422H71.3008L72.6143 204H74.2842L72.7998 201.202C73.6104 200.885 74.0791 200.104 74.0791 199.2C74.0791 197.809 73.127 196.954 71.5791 196.954H68.6201V204H70.0947V201.422ZM70.0947 198.106H71.374C72.1064 198.106 72.5654 198.536 72.5654 199.22C72.5654 199.918 72.1309 200.323 71.3887 200.323H70.0947V198.106ZM77.0381 204V196.954H75.5635V204H77.0381ZM81.9111 204C83.415 204 84.3477 203.224 84.3477 201.983C84.3477 201.075 83.6689 200.377 82.7363 200.304V200.216C83.459 200.108 84.0107 199.459 84.0107 198.712C84.0107 197.623 83.1953 196.954 81.8281 196.954H78.7471V204H81.9111ZM80.2217 198.048H81.4521C82.1553 198.048 82.5605 198.39 82.5605 198.966C82.5605 199.552 82.126 199.884 81.3301 199.884H80.2217V198.048ZM80.2217 202.901V200.855H81.501C82.3701 200.855 82.8438 201.207 82.8438 201.866C82.8438 202.54 82.3848 202.901 81.5352 202.901H80.2217ZM87.1504 196.954H85.6758V201.568C85.6758 203.126 86.8281 204.181 88.6299 204.181C90.4316 204.181 91.5791 203.126 91.5791 201.568V196.954H90.1045V201.427C90.1045 202.33 89.5723 202.916 88.6299 202.916C87.6875 202.916 87.1504 202.33 87.1504 201.427V196.954ZM96.4717 204V198.17H98.5859V196.954H92.8828V198.17H94.9971V204H96.4717ZM104.558 202.784H101.364V201.002H104.377V199.869H101.364V198.17H104.558V196.954H99.8896V204H104.558V202.784ZM105.793 202.052C105.847 203.355 106.936 204.181 108.615 204.181C110.383 204.181 111.472 203.312 111.472 201.905C111.472 200.816 110.861 200.206 109.445 199.903L108.596 199.723C107.771 199.542 107.434 199.283 107.434 198.839C107.434 198.287 107.922 197.931 108.659 197.931C109.372 197.931 109.89 198.307 109.958 198.883H111.345C111.301 197.638 110.202 196.773 108.649 196.773C107.023 196.773 105.954 197.643 105.954 198.956C105.954 200.025 106.584 200.685 107.868 200.958L108.786 201.158C109.65 201.349 110.002 201.617 110.002 202.081C110.002 202.628 109.46 203.014 108.693 203.014C107.863 203.014 107.287 202.638 107.219 202.052H105.793Z" fill="#8792A2"/>
<path d="M54.3574 151.623C54.1934 150.316 53.2324 149.52 51.8262 149.52C50.0977 149.52 49.0898 150.58 49.0898 152.402V153.234C49.0898 155.057 50.0977 156.117 51.8262 156.117C53.2324 156.117 54.1992 155.326 54.3574 154.031H53.373C53.25 154.758 52.6289 155.221 51.8086 155.221C50.7012 155.221 50.0859 154.471 50.0859 153.105V152.531C50.0859 151.166 50.7012 150.41 51.8086 150.41C52.6289 150.41 53.25 150.879 53.373 151.623H54.3574ZM61.7285 149.643H60.7324V153.387C60.7324 154.471 60.0293 155.203 58.9805 155.203C57.9902 155.203 57.5215 154.664 57.5215 153.516V149.643H56.5254V153.768C56.5254 155.291 57.2754 156.117 58.6582 156.117C59.625 156.117 60.3516 155.672 60.6914 154.881H60.7734V156H61.7285V149.643ZM64.2305 151.359C64.2305 152.262 64.7988 152.842 65.9473 153.105L66.8906 153.322C67.6992 153.504 68.0098 153.773 68.0098 154.277C68.0098 154.887 67.459 155.279 66.5918 155.279C65.7715 155.279 65.209 154.939 65.0625 154.354H64.0488C64.1602 155.443 65.1152 156.117 66.5566 156.117C68.0625 156.117 69.041 155.355 69.041 154.184C69.041 153.264 68.4785 152.725 67.2422 152.443L66.3457 152.238C65.5488 152.062 65.2207 151.787 65.2207 151.301C65.2207 150.721 65.7422 150.346 66.5508 150.346C67.2949 150.346 67.8281 150.686 67.9453 151.242H68.9062C68.7891 150.182 67.8926 149.52 66.5684 149.52C65.168 149.52 64.2305 150.258 64.2305 151.359ZM72.8789 147.938V149.66H71.1855V150.51H72.8789V154.107C72.8789 155.432 73.6113 156.029 75.1875 156.029C75.4922 156.029 76.2656 156 76.4238 155.971V155.127C76.2539 155.145 75.6152 155.162 75.2578 155.162C74.3613 155.162 73.875 154.787 73.875 154.096V150.51H76.4414V149.66H73.8633V147.938H72.8789ZM81.3809 156.117C83.0625 156.117 84.1348 155.021 84.1348 153.305V152.344C84.1348 150.627 83.0625 149.531 81.3809 149.531C79.6992 149.531 78.627 150.627 78.627 152.344V153.305C78.627 155.021 79.6992 156.117 81.3809 156.117ZM81.3809 150.41C82.4707 150.41 83.1504 151.184 83.1504 152.432V153.211C83.1504 154.465 82.4707 155.232 81.3809 155.232C80.291 155.232 79.6113 154.465 79.6113 153.211V152.432C79.6113 151.184 80.291 150.41 81.3809 150.41ZM91.8633 151.318C91.8633 150.141 91.4004 149.525 90.5156 149.525C89.877 149.525 89.3672 149.912 89.2031 150.521H89.0977C88.9629 149.895 88.541 149.525 87.9434 149.525C87.3457 149.525 86.8887 149.9 86.7305 150.539H86.625V149.643H85.7344V156H86.6309V151.711C86.6309 150.92 86.9824 150.434 87.5449 150.434C88.084 150.434 88.3652 150.838 88.3652 151.605V156H89.2559V151.711C89.2559 150.92 89.5957 150.434 90.1523 150.434C90.6855 150.434 90.9668 150.838 90.9668 151.611V156H91.8633V151.318ZM96.2871 150.381C97.3125 150.381 97.9336 151.113 97.9336 152.326H94.5879C94.5879 151.107 95.2266 150.381 96.2871 150.381ZM97.9336 154.359C97.7578 154.916 97.166 155.256 96.3633 155.256C95.2793 155.256 94.5879 154.506 94.5879 153.34V153.082H98.918V152.461C98.918 150.621 97.9453 149.525 96.293 149.525C94.6758 149.525 93.6035 150.627 93.6035 152.303V153.258C93.6035 155.068 94.6172 156.117 96.3633 156.117C97.6992 156.117 98.707 155.408 98.9004 154.359H97.9336ZM103.371 151.266V149.643H100.998V150.439H102.41V155.203H101.127V156H102.41H103.383H105.352V155.203H103.383V153.152C103.383 151.535 104.215 150.562 105.621 150.562C105.967 150.562 106.377 150.633 106.67 150.738V149.619C106.459 149.531 106.113 149.479 105.75 149.479C104.525 149.479 103.734 150.088 103.5 151.266H103.371ZM111.053 156.035C111.633 156.035 112.113 155.549 112.113 154.951C112.113 154.359 111.633 153.873 111.053 153.873C110.473 153.873 109.992 154.359 109.992 154.951C109.992 155.549 110.473 156.035 111.053 156.035ZM49.3945 167.359C49.3945 168.262 49.9629 168.842 51.1113 169.105L52.0547 169.322C52.8633 169.504 53.1738 169.773 53.1738 170.277C53.1738 170.887 52.623 171.279 51.7559 171.279C50.9355 171.279 50.373 170.939 50.2266 170.354H49.2129C49.3242 171.443 50.2793 172.117 51.7207 172.117C53.2266 172.117 54.2051 171.355 54.2051 170.184C54.2051 169.264 53.6426 168.725 52.4062 168.443L51.5098 168.238C50.7129 168.062 50.3848 167.787 50.3848 167.301C50.3848 166.721 50.9062 166.346 51.7148 166.346C52.459 166.346 52.9922 166.686 53.1094 167.242H54.0703C53.9531 166.182 53.0566 165.52 51.7324 165.52C50.332 165.52 49.3945 166.258 49.3945 167.359ZM61.7285 165.643H60.7324V169.387C60.7324 170.471 60.0293 171.203 58.9805 171.203C57.9902 171.203 57.5215 170.664 57.5215 169.516V165.643H56.5254V169.768C56.5254 171.291 57.2754 172.117 58.6582 172.117C59.625 172.117 60.3516 171.672 60.6914 170.881H60.7734V172H61.7285V165.643ZM66.9434 172.105C68.4141 172.105 69.375 171.045 69.375 169.41V168.227C69.375 166.598 68.4141 165.537 66.9434 165.537C66.0234 165.537 65.3496 165.93 65.0684 166.627H64.9629V163.146H63.9492V172H64.9277V171.027H65.0391C65.3672 171.73 66.0352 172.105 66.9434 172.105ZM66.6504 171.197C65.6074 171.197 64.9395 170.447 64.9395 169.27V168.355C64.9395 167.184 65.6074 166.434 66.6504 166.434C67.7051 166.434 68.373 167.184 68.373 168.355V169.27C68.373 170.441 67.7051 171.197 66.6504 171.197ZM71.6484 167.359C71.6484 168.262 72.2168 168.842 73.3652 169.105L74.3086 169.322C75.1172 169.504 75.4277 169.773 75.4277 170.277C75.4277 170.887 74.877 171.279 74.0098 171.279C73.1895 171.279 72.627 170.939 72.4805 170.354H71.4668C71.5781 171.443 72.5332 172.117 73.9746 172.117C75.4805 172.117 76.459 171.355 76.459 170.184C76.459 169.264 75.8965 168.725 74.6602 168.443L73.7637 168.238C72.9668 168.062 72.6387 167.787 72.6387 167.301C72.6387 166.721 73.1602 166.346 73.9688 166.346C74.7129 166.346 75.2461 166.686 75.3633 167.242H76.3242C76.207 166.182 75.3105 165.52 73.9863 165.52C72.5859 165.52 71.6484 166.258 71.6484 167.359ZM84.0293 167.623C83.8652 166.316 82.9043 165.52 81.498 165.52C79.7695 165.52 78.7617 166.58 78.7617 168.402V169.234C78.7617 171.057 79.7695 172.117 81.498 172.117C82.9043 172.117 83.8711 171.326 84.0293 170.031H83.0449C82.9219 170.758 82.3008 171.221 81.4805 171.221C80.373 171.221 79.7578 170.471 79.7578 169.105V168.531C79.7578 167.166 80.373 166.41 81.4805 166.41C82.3008 166.41 82.9219 166.879 83.0449 167.623H84.0293ZM88.5352 167.266V165.643H86.1621V166.439H87.5742V171.203H86.291V172H87.5742H88.5469H90.5156V171.203H88.5469V169.152C88.5469 167.535 89.3789 166.562 90.7852 166.562C91.1309 166.562 91.541 166.633 91.834 166.738V165.619C91.623 165.531 91.2773 165.479 90.9141 165.479C89.6895 165.479 88.8984 166.088 88.6641 167.266H88.5352ZM96.3281 164.084C96.7969 164.084 97.1543 163.732 97.1543 163.264C97.1543 162.801 96.7969 162.449 96.3281 162.449C95.8594 162.449 95.502 162.801 95.502 163.264C95.502 163.732 95.8594 164.084 96.3281 164.084ZM98.9941 172V171.174H96.8906V165.643H93.7441V166.469H95.9062V171.174H93.7266V172H98.9941ZM104.033 165.537C103.125 165.537 102.463 165.912 102.129 166.615H102.023V165.643H101.039V174.145H102.053V171.016H102.164C102.439 171.713 103.113 172.105 104.033 172.105C105.504 172.105 106.465 171.045 106.465 169.416V168.232C106.465 166.598 105.504 165.537 104.033 165.537ZM103.746 166.451C104.795 166.451 105.463 167.201 105.463 168.373V169.287C105.463 170.459 104.795 171.215 103.746 171.215C102.697 171.215 102.029 170.465 102.029 169.287V168.373C102.029 167.201 102.697 166.451 103.746 166.451ZM109.969 163.938V165.66H108.275V166.51H109.969V170.107C109.969 171.432 110.701 172.029 112.277 172.029C112.582 172.029 113.355 172 113.514 171.971V171.127C113.344 171.145 112.705 171.162 112.348 171.162C111.451 171.162 110.965 170.787 110.965 170.096V166.51H113.531V165.66H110.953V163.938H109.969ZM118.582 164.084C119.051 164.084 119.408 163.732 119.408 163.264C119.408 162.801 119.051 162.449 118.582 162.449C118.113 162.449 117.756 162.801 117.756 163.264C117.756 163.732 118.113 164.084 118.582 164.084ZM121.248 172V171.174H119.145V165.643H115.998V166.469H118.16V171.174H115.98V172H121.248ZM125.889 172.117C127.57 172.117 128.643 171.021 128.643 169.305V168.344C128.643 166.627 127.57 165.531 125.889 165.531C124.207 165.531 123.135 166.627 123.135 168.344V169.305C123.135 171.021 124.207 172.117 125.889 172.117ZM125.889 166.41C126.979 166.41 127.658 167.184 127.658 168.432V169.211C127.658 170.465 126.979 171.232 125.889 171.232C124.799 171.232 124.119 170.465 124.119 169.211V168.432C124.119 167.184 124.799 166.41 125.889 166.41ZM130.705 172H131.701V168.256C131.701 167.172 132.404 166.439 133.453 166.439C134.443 166.439 134.912 166.979 134.912 168.127V172H135.908V167.875C135.908 166.352 135.158 165.525 133.775 165.525C132.809 165.525 132.082 165.971 131.742 166.762H131.66V165.643H130.705V172ZM140.725 172.035C141.305 172.035 141.785 171.549 141.785 170.951C141.785 170.359 141.305 169.873 140.725 169.873C140.145 169.873 139.664 170.359 139.664 170.951C139.664 171.549 140.145 172.035 140.725 172.035ZM150.791 167.623C150.627 166.316 149.666 165.52 148.26 165.52C146.531 165.52 145.523 166.58 145.523 168.402V169.234C145.523 171.057 146.531 172.117 148.26 172.117C149.666 172.117 150.633 171.326 150.791 170.031H149.807C149.684 170.758 149.062 171.221 148.242 171.221C147.135 171.221 146.52 170.471 146.52 169.105V168.531C146.52 167.166 147.135 166.41 148.242 166.41C149.062 166.41 149.684 166.879 149.807 167.623H150.791ZM155.297 167.266V165.643H152.924V166.439H154.336V171.203H153.053V172H154.336H155.309H157.277V171.203H155.309V169.152C155.309 167.535 156.141 166.562 157.547 166.562C157.893 166.562 158.303 166.633 158.596 166.738V165.619C158.385 165.531 158.039 165.479 157.676 165.479C156.451 165.479 155.66 166.088 155.426 167.266H155.297ZM163.049 166.381C164.074 166.381 164.695 167.113 164.695 168.326H161.35C161.35 167.107 161.988 166.381 163.049 166.381ZM164.695 170.359C164.52 170.916 163.928 171.256 163.125 171.256C162.041 171.256 161.35 170.506 161.35 169.34V169.082H165.68V168.461C165.68 166.621 164.707 165.525 163.055 165.525C161.438 165.525 160.365 166.627 160.365 168.303V169.258C160.365 171.068 161.379 172.117 163.125 172.117C164.461 172.117 165.469 171.408 165.662 170.359H164.695ZM169.752 172.111C170.678 172.111 171.369 171.73 171.674 171.051H171.773V172.006H172.723V167.652C172.723 166.328 171.867 165.566 170.373 165.566C169.072 165.566 168.088 166.264 167.971 167.283H168.949C169.113 166.738 169.629 166.428 170.361 166.428C171.246 166.428 171.732 166.867 171.732 167.664V168.238L169.986 168.326C168.539 168.402 167.73 169.07 167.73 170.195C167.73 171.35 168.539 172.111 169.752 172.111ZM170.039 171.238C169.236 171.238 168.738 170.828 168.738 170.16C168.738 169.498 169.207 169.117 170.098 169.076L171.732 169V169.75C171.732 170.6 171 171.238 170.039 171.238ZM176.73 163.938V165.66H175.037V166.51H176.73V170.107C176.73 171.432 177.463 172.029 179.039 172.029C179.344 172.029 180.117 172 180.275 171.971V171.127C180.105 171.145 179.467 171.162 179.109 171.162C178.213 171.162 177.727 170.787 177.727 170.096V166.51H180.293V165.66H177.715V163.938H176.73ZM185.303 166.381C186.328 166.381 186.949 167.113 186.949 168.326H183.604C183.604 167.107 184.242 166.381 185.303 166.381ZM186.949 170.359C186.773 170.916 186.182 171.256 185.379 171.256C184.295 171.256 183.604 170.506 183.604 169.34V169.082H187.934V168.461C187.934 166.621 186.961 165.525 185.309 165.525C183.691 165.525 182.619 166.627 182.619 168.303V169.258C182.619 171.068 183.633 172.117 185.379 172.117C186.715 172.117 187.723 171.408 187.916 170.359H186.949ZM190.822 168.355C190.822 167.184 191.49 166.434 192.545 166.434C193.588 166.434 194.256 167.184 194.256 168.355V169.27C194.256 170.447 193.588 171.197 192.545 171.197C191.49 171.197 190.822 170.441 190.822 169.27V168.355ZM194.268 171.027V172H195.246V163.146H194.232V166.627H194.127C193.846 165.93 193.172 165.537 192.252 165.537C190.781 165.537 189.82 166.598 189.82 168.227V169.41C189.82 171.045 190.781 172.105 192.252 172.105C193.16 172.105 193.828 171.73 194.156 171.027H194.268ZM49.3945 215.359C49.3945 216.262 49.9629 216.842 51.1113 217.105L52.0547 217.322C52.8633 217.504 53.1738 217.773 53.1738 218.277C53.1738 218.887 52.623 219.279 51.7559 219.279C50.9355 219.279 50.373 218.939 50.2266 218.354H49.2129C49.3242 219.443 50.2793 220.117 51.7207 220.117C53.2266 220.117 54.2051 219.355 54.2051 218.184C54.2051 217.264 53.6426 216.725 52.4062 216.443L51.5098 216.238C50.7129 216.062 50.3848 215.787 50.3848 215.301C50.3848 214.721 50.9062 214.346 51.7148 214.346C52.459 214.346 52.9922 214.686 53.1094 215.242H54.0703C53.9531 214.182 53.0566 213.52 51.7324 213.52C50.332 213.52 49.3945 214.258 49.3945 215.359ZM58.043 211.938V213.66H56.3496V214.51H58.043V218.107C58.043 219.432 58.7754 220.029 60.3516 220.029C60.6562 220.029 61.4297 220 61.5879 219.971V219.127C61.418 219.145 60.7793 219.162 60.4219 219.162C59.5254 219.162 59.0391 218.787 59.0391 218.096V214.51H61.6055V213.66H59.0273V211.938H58.043ZM65.9004 220.111C66.8262 220.111 67.5176 219.73 67.8223 219.051H67.9219V220.006H68.8711V215.652C68.8711 214.328 68.0156 213.566 66.5215 213.566C65.2207 213.566 64.2363 214.264 64.1191 215.283H65.0977C65.2617 214.738 65.7773 214.428 66.5098 214.428C67.3945 214.428 67.8809 214.867 67.8809 215.664V216.238L66.1348 216.326C64.6875 216.402 63.8789 217.07 63.8789 218.195C63.8789 219.35 64.6875 220.111 65.9004 220.111ZM66.1875 219.238C65.3848 219.238 64.8867 218.828 64.8867 218.16C64.8867 217.498 65.3555 217.117 66.2461 217.076L67.8809 217V217.75C67.8809 218.6 67.1484 219.238 66.1875 219.238ZM72.8789 211.938V213.66H71.1855V214.51H72.8789V218.107C72.8789 219.432 73.6113 220.029 75.1875 220.029C75.4922 220.029 76.2656 220 76.4238 219.971V219.127C76.2539 219.145 75.6152 219.162 75.2578 219.162C74.3613 219.162 73.875 218.787 73.875 218.096V214.51H76.4414V213.66H73.8633V211.938H72.8789ZM83.9824 213.643H82.9863V217.387C82.9863 218.471 82.2832 219.203 81.2344 219.203C80.2441 219.203 79.7754 218.664 79.7754 217.516V213.643H78.7793V217.768C78.7793 219.291 79.5293 220.117 80.9121 220.117C81.8789 220.117 82.6055 219.672 82.9453 218.881H83.0273V220H83.9824V213.643ZM86.4844 215.359C86.4844 216.262 87.0527 216.842 88.2012 217.105L89.1445 217.322C89.9531 217.504 90.2637 217.773 90.2637 218.277C90.2637 218.887 89.7129 219.279 88.8457 219.279C88.0254 219.279 87.4629 218.939 87.3164 218.354H86.3027C86.4141 219.443 87.3691 220.117 88.8105 220.117C90.3164 220.117 91.2949 219.355 91.2949 218.184C91.2949 217.264 90.7324 216.725 89.4961 216.443L88.5996 216.238C87.8027 216.062 87.4746 215.787 87.4746 215.301C87.4746 214.721 87.9961 214.346 88.8047 214.346C89.5488 214.346 90.082 214.686 90.1992 215.242H91.1602C91.043 214.182 90.1465 213.52 88.8223 213.52C87.4219 213.52 86.4844 214.258 86.4844 215.359ZM99.3164 218.072V217.105H93.1172V218.072H99.3164ZM99.3164 215.4V214.434H93.1172V215.4H99.3164ZM103.729 212.219C104.385 212.219 104.83 211.814 104.83 211.205C104.83 210.596 104.385 210.191 103.729 210.191C103.072 210.191 102.633 210.596 102.633 211.205C102.633 211.814 103.072 212.219 103.729 212.219ZM106.488 220V218.723H104.537V213.537H101.01V214.82H102.979V218.723H100.904V220H106.488ZM108.176 220H109.775V216.268C109.775 215.371 110.309 214.803 111.129 214.803C111.943 214.803 112.324 215.254 112.324 216.203V220H113.93V215.822C113.93 214.246 113.18 213.402 111.773 213.402C110.842 213.402 110.145 213.842 109.828 214.621H109.729V213.537H108.176V220ZM121.395 215.793C121.242 214.211 120.27 213.379 118.6 213.379C116.695 213.379 115.641 214.457 115.641 216.42V217.1C115.641 219.062 116.695 220.141 118.6 220.141C120.27 220.141 121.254 219.32 121.395 217.779H119.824C119.713 218.471 119.291 218.805 118.588 218.805C117.727 218.805 117.252 218.16 117.252 216.977V216.543C117.252 215.359 117.727 214.715 118.588 214.715C119.285 214.715 119.719 215.066 119.824 215.793H121.395ZM125.889 220.141C127.711 220.141 128.859 219.033 128.859 217.27V216.273C128.859 214.51 127.711 213.402 125.889 213.402C124.066 213.402 122.918 214.51 122.918 216.273V217.27C122.918 219.033 124.066 220.141 125.889 220.141ZM125.889 214.715C126.75 214.715 127.283 215.336 127.283 216.338V217.205C127.283 218.201 126.75 218.828 125.889 218.828C125.027 218.828 124.494 218.201 124.494 217.205V216.338C124.494 215.336 125.027 214.715 125.889 214.715ZM136.57 214.984C136.57 213.959 136.137 213.402 135.34 213.402C134.725 213.402 134.273 213.807 134.139 214.498H133.969C133.834 213.801 133.424 213.402 132.838 213.402C132.199 213.402 131.76 213.807 131.613 214.551H131.443V213.537H130.043V220H131.402V215.564C131.402 215.09 131.654 214.785 132.041 214.785C132.422 214.785 132.639 215.061 132.639 215.523V220H133.98V215.564C133.98 215.09 134.232 214.785 134.613 214.785C134.982 214.785 135.211 215.061 135.211 215.523V220H136.57V214.984ZM141.445 213.438C140.502 213.438 139.863 213.871 139.635 214.65H139.512V213.537H137.865V222.15H139.535V218.904H139.652C139.869 219.678 140.514 220.111 141.445 220.111C142.928 220.111 143.801 219.092 143.801 217.328V216.215C143.801 214.457 142.928 213.438 141.445 213.438ZM140.83 214.832C141.656 214.832 142.166 215.377 142.166 216.262V217.334C142.166 218.219 141.656 218.764 140.83 218.764C139.998 218.764 139.494 218.225 139.494 217.334V216.262C139.494 215.371 139.998 214.832 140.83 214.832ZM150.996 220V218.723H149.068V211.076H145.518V212.354H147.463V218.723H145.412V220H150.996ZM155.637 214.645C156.445 214.645 156.926 215.201 156.926 216.127H154.307C154.307 215.201 154.805 214.645 155.637 214.645ZM156.961 218.184C156.844 218.605 156.334 218.898 155.689 218.898C154.852 218.898 154.307 218.348 154.307 217.504V217.152H158.473V216.262C158.473 214.527 157.377 213.402 155.666 213.402C153.908 213.402 152.736 214.521 152.736 216.215V217.252C152.736 219.086 153.814 220.141 155.695 220.141C157.195 220.141 158.338 219.326 158.473 218.184H156.961ZM161.643 211.691V213.602H159.961V214.885H161.643V217.955C161.643 219.455 162.316 220.012 164.074 220.012C164.203 220.012 165.48 220 165.545 219.988V218.723C165.475 218.729 164.355 218.734 164.203 218.734C163.588 218.734 163.242 218.459 163.242 217.973V214.885H165.621V213.602H163.213V211.691H161.643ZM170.473 214.645C171.281 214.645 171.762 215.201 171.762 216.127H169.143C169.143 215.201 169.641 214.645 170.473 214.645ZM171.797 218.184C171.68 218.605 171.17 218.898 170.525 218.898C169.688 218.898 169.143 218.348 169.143 217.504V217.152H173.309V216.262C173.309 214.527 172.213 213.402 170.502 213.402C168.744 213.402 167.572 214.521 167.572 216.215V217.252C167.572 219.086 168.65 220.141 170.531 220.141C172.031 220.141 173.174 219.326 173.309 218.184H171.797ZM54.4863 236V235.174H52.3887V227.146H49.2363V227.973H51.3926V235.174H49.2188V236H54.4863ZM58.4824 236.111C59.4082 236.111 60.0996 235.73 60.4043 235.051H60.5039V236.006H61.4531V231.652C61.4531 230.328 60.5977 229.566 59.1035 229.566C57.8027 229.566 56.8184 230.264 56.7012 231.283H57.6797C57.8438 230.738 58.3594 230.428 59.0918 230.428C59.9766 230.428 60.4629 230.867 60.4629 231.664V232.238L58.7168 232.326C57.2695 232.402 56.4609 233.07 56.4609 234.195C56.4609 235.35 57.2695 236.111 58.4824 236.111ZM58.7695 235.238C57.9668 235.238 57.4688 234.828 57.4688 234.16C57.4688 233.498 57.9375 233.117 58.8281 233.076L60.4629 233V233.75C60.4629 234.6 59.7305 235.238 58.7695 235.238ZM65.4609 227.938V229.66H63.7676V230.51H65.4609V234.107C65.4609 235.432 66.1934 236.029 67.7695 236.029C68.0742 236.029 68.8477 236 69.0059 235.971V235.127C68.8359 235.145 68.1973 235.162 67.8398 235.162C66.9434 235.162 66.457 234.787 66.457 234.096V230.51H69.0234V229.66H66.4453V227.938H65.4609ZM74.0332 230.381C75.0586 230.381 75.6797 231.113 75.6797 232.326H72.334C72.334 231.107 72.9727 230.381 74.0332 230.381ZM75.6797 234.359C75.5039 234.916 74.9121 235.256 74.1094 235.256C73.0254 235.256 72.334 234.506 72.334 233.34V233.082H76.6641V232.461C76.6641 230.621 75.6914 229.525 74.0391 229.525C72.4219 229.525 71.3496 230.627 71.3496 232.303V233.258C71.3496 235.068 72.3633 236.117 74.1094 236.117C75.4453 236.117 76.4531 235.408 76.6465 234.359H75.6797ZM79.0664 231.359C79.0664 232.262 79.6348 232.842 80.7832 233.105L81.7266 233.322C82.5352 233.504 82.8457 233.773 82.8457 234.277C82.8457 234.887 82.2949 235.279 81.4277 235.279C80.6074 235.279 80.0449 234.939 79.8984 234.354H78.8848C78.9961 235.443 79.9512 236.117 81.3926 236.117C82.8984 236.117 83.877 235.355 83.877 234.184C83.877 233.264 83.3145 232.725 82.0781 232.443L81.1816 232.238C80.3848 232.062 80.0566 231.787 80.0566 231.301C80.0566 230.721 80.5781 230.346 81.3867 230.346C82.1309 230.346 82.6641 230.686 82.7812 231.242H83.7422C83.625 230.182 82.7285 229.52 81.4043 229.52C80.0039 229.52 79.0664 230.258 79.0664 231.359ZM87.7148 227.938V229.66H86.0215V230.51H87.7148V234.107C87.7148 235.432 88.4473 236.029 90.0234 236.029C90.3281 236.029 91.1016 236 91.2598 235.971V235.127C91.0898 235.145 90.4512 235.162 90.0938 235.162C89.1973 235.162 88.7109 234.787 88.7109 234.096V230.51H91.2773V229.66H88.6992V227.938H87.7148ZM99.2578 237.828V236.967H93.1758V237.828H99.2578ZM103.746 228.084C104.215 228.084 104.572 227.732 104.572 227.264C104.572 226.801 104.215 226.449 103.746 226.449C103.277 226.449 102.92 226.801 102.92 227.264C102.92 227.732 103.277 228.084 103.746 228.084ZM106.412 236V235.174H104.309V229.643H101.162V230.469H103.324V235.174H101.145V236H106.412ZM108.451 236H109.447V232.256C109.447 231.172 110.15 230.439 111.199 230.439C112.189 230.439 112.658 230.979 112.658 232.127V236H113.654V231.875C113.654 230.352 112.904 229.525 111.521 229.525C110.555 229.525 109.828 229.971 109.488 230.762H109.406V229.643H108.451V236ZM115.6 229.643L117.926 236H119.021L121.342 229.643H120.281L118.518 234.934H118.441L116.666 229.643H115.6ZM125.889 236.117C127.57 236.117 128.643 235.021 128.643 233.305V232.344C128.643 230.627 127.57 229.531 125.889 229.531C124.207 229.531 123.135 230.627 123.135 232.344V233.305C123.135 235.021 124.207 236.117 125.889 236.117ZM125.889 230.41C126.979 230.41 127.658 231.184 127.658 232.432V233.211C127.658 234.465 126.979 235.232 125.889 235.232C124.799 235.232 124.119 234.465 124.119 233.211V232.432C124.119 231.184 124.799 230.41 125.889 230.41ZM133.418 228.084C133.887 228.084 134.244 227.732 134.244 227.264C134.244 226.801 133.887 226.449 133.418 226.449C132.949 226.449 132.592 226.801 132.592 227.264C132.592 227.732 132.949 228.084 133.418 228.084ZM136.084 236V235.174H133.98V229.643H130.834V230.469H132.996V235.174H130.816V236H136.084ZM143.373 231.623C143.209 230.316 142.248 229.52 140.842 229.52C139.113 229.52 138.105 230.58 138.105 232.402V233.234C138.105 235.057 139.113 236.117 140.842 236.117C142.248 236.117 143.215 235.326 143.373 234.031H142.389C142.266 234.758 141.645 235.221 140.824 235.221C139.717 235.221 139.102 234.471 139.102 233.105V232.531C139.102 231.166 139.717 230.41 140.824 230.41C141.645 230.41 142.266 230.879 142.389 231.623H143.373ZM148.213 230.381C149.238 230.381 149.859 231.113 149.859 232.326H146.514C146.514 231.107 147.152 230.381 148.213 230.381ZM149.859 234.359C149.684 234.916 149.092 235.256 148.289 235.256C147.205 235.256 146.514 234.506 146.514 233.34V233.082H150.844V232.461C150.844 230.621 149.871 229.525 148.219 229.525C146.602 229.525 145.529 230.627 145.529 232.303V233.258C145.529 235.068 146.543 236.117 148.289 236.117C149.625 236.117 150.633 235.408 150.826 234.359H149.859Z" fill="#3C4257"/>
<path d="M32 88C32 83.5817 35.5817 80 40 80H216C220.418 80 224 83.5817 224 88V120H32V88Z" fill="#F7FAFC"/>
<path d="M48.6445 101.662C48.709 103.227 50.0156 104.217 52.0312 104.217C54.1523 104.217 55.459 103.174 55.459 101.486C55.459 100.18 54.7266 99.4473 53.0273 99.084L52.0078 98.8672C51.0176 98.6504 50.6133 98.3398 50.6133 97.8066C50.6133 97.1445 51.1992 96.7168 52.084 96.7168C52.9395 96.7168 53.5605 97.168 53.6426 97.8594H55.3066C55.2539 96.3652 53.9355 95.3281 52.0723 95.3281C50.1211 95.3281 48.8379 96.3711 48.8379 97.9473C48.8379 99.2305 49.5938 100.021 51.1348 100.35L52.2363 100.59C53.2734 100.818 53.6953 101.141 53.6953 101.697C53.6953 102.354 53.0449 102.816 52.125 102.816C51.1289 102.816 50.4375 102.365 50.3555 101.662H48.6445ZM62.8125 97.5488H61.1074V101.275C61.1074 102.16 60.6504 102.705 59.8008 102.705C59.0156 102.705 58.6113 102.242 58.6113 101.328V97.5488H56.9062V101.75C56.9062 103.25 57.7734 104.135 59.168 104.135C60.1465 104.135 60.75 103.713 61.0547 102.963H61.1602V104H62.8125V97.5488ZM68.332 104.1C69.9551 104.1 70.9512 102.84 70.9512 100.771C70.9512 98.6914 69.9668 97.4434 68.332 97.4434C67.4473 97.4434 66.7207 97.8711 66.3926 98.5801H66.2871V95.082H64.582V104H66.2344V102.986H66.3398C66.6855 103.689 67.418 104.1 68.332 104.1ZM67.7402 98.8262C68.6426 98.8262 69.1992 99.5703 69.1992 100.771C69.1992 101.984 68.6484 102.723 67.7402 102.723C66.8379 102.723 66.2754 101.979 66.2695 100.777C66.2754 99.5762 66.8438 98.8262 67.7402 98.8262ZM72.1934 99.4297C72.1934 100.42 72.8027 101.012 74.0566 101.287L75.2285 101.551C75.7969 101.68 76.043 101.879 76.043 102.207C76.043 102.635 75.5859 102.928 74.9238 102.928C74.2441 102.928 73.8281 102.664 73.6992 102.219H72.0352C72.1523 103.438 73.1836 104.135 74.8887 104.135C76.582 104.135 77.7363 103.303 77.7363 102.025C77.7363 101.064 77.1738 100.537 75.9199 100.262L74.707 99.998C74.1094 99.8633 73.834 99.6582 73.834 99.3301C73.834 98.9082 74.2852 98.6211 74.8945 98.6211C75.5273 98.6211 75.9199 98.8848 76.0078 99.3125H77.584C77.4902 98.0938 76.5234 97.4082 74.8828 97.4082C73.2715 97.4082 72.1934 98.2227 72.1934 99.4297ZM84.8555 99.7988C84.7148 98.3574 83.6895 97.4082 81.9785 97.4082C79.957 97.4082 78.8203 98.6328 78.8203 100.76C78.8203 102.91 79.9629 104.135 81.9785 104.135C83.6602 104.135 84.7148 103.209 84.8555 101.791H83.2617C83.1328 102.436 82.6758 102.781 81.9785 102.781C81.0645 102.781 80.543 102.061 80.543 100.76C80.543 99.4766 81.0586 98.7676 81.9785 98.7676C82.7051 98.7676 83.1445 99.1777 83.2617 99.7988H84.8555ZM86.1914 104H87.8965V100.391C87.8965 99.4824 88.5352 98.9258 89.4668 98.9258C89.7422 98.9258 90.1406 98.9727 90.2754 99.0195V97.5195C90.1289 97.4727 89.8418 97.4434 89.6074 97.4434C88.7871 97.4434 88.1191 97.9297 87.9492 98.5742H87.8438V97.5488H86.1914V104ZM92.2852 96.5586C92.8125 96.5586 93.2461 96.1367 93.2461 95.6094C93.2461 95.0762 92.8125 94.6543 92.2852 94.6543C91.7578 94.6543 91.3184 95.0762 91.3184 95.6094C91.3184 96.1367 91.7578 96.5586 92.2852 96.5586ZM91.4297 104H93.1348V97.5488H91.4297V104ZM98.5957 97.4434C97.7051 97.4434 96.9727 97.8828 96.6211 98.6094H96.5156V97.5488H94.8633V106.139H96.5684V103.016H96.6738C96.9902 103.695 97.6992 104.1 98.625 104.1C100.242 104.1 101.232 102.846 101.232 100.771C101.232 98.6914 100.23 97.4434 98.5957 97.4434ZM98.0156 102.723C97.1133 102.723 96.5508 101.984 96.5508 100.777C96.5508 99.5703 97.1133 98.8262 98.0215 98.8262C98.9297 98.8262 99.4805 99.5586 99.4805 100.771C99.4805 101.99 98.9355 102.723 98.0156 102.723ZM103.107 96.0078V97.6074H102.1V98.9023H103.107V102.26C103.107 103.514 103.729 104.023 105.299 104.023C105.627 104.023 105.943 103.988 106.154 103.947V102.688C105.99 102.705 105.873 102.717 105.65 102.717C105.07 102.717 104.812 102.447 104.812 101.867V98.9023H106.154V97.6074H104.812V96.0078H103.107ZM108.445 96.5586C108.973 96.5586 109.406 96.1367 109.406 95.6094C109.406 95.0762 108.973 94.6543 108.445 94.6543C107.918 94.6543 107.479 95.0762 107.479 95.6094C107.479 96.1367 107.918 96.5586 108.445 96.5586ZM107.59 104H109.295V97.5488H107.59V104ZM113.889 104.135C115.875 104.135 117.07 102.881 117.07 100.771C117.07 98.6797 115.857 97.4082 113.889 97.4082C111.92 97.4082 110.707 98.6855 110.707 100.771C110.707 102.875 111.902 104.135 113.889 104.135ZM113.889 102.787C112.975 102.787 112.459 102.049 112.459 100.771C112.459 99.5059 112.98 98.7617 113.889 98.7617C114.791 98.7617 115.318 99.5059 115.318 100.771C115.318 102.049 114.797 102.787 113.889 102.787ZM118.465 104H120.17V100.268C120.17 99.3945 120.656 98.832 121.447 98.832C122.256 98.832 122.637 99.3066 122.637 100.215V104H124.342V99.8281C124.342 98.2871 123.568 97.4082 122.133 97.4082C121.178 97.4082 120.521 97.8594 120.223 98.5859H120.117V97.5488H118.465V104Z" fill="#3C4257"/>
<rect x="32.5" y="80.5" width="191" height="175" rx="7.5" stroke="#E3E8EE"/>
<path d="M272 88C272 83.5817 275.582 80 280 80H456C460.418 80 464 83.5817 464 88V248C464 252.418 460.418 256 456 256H280C275.582 256 272 252.418 272 248V88Z" fill="white"/>
<rect x="267" y="75" width="202" height="186" rx="13" stroke="white" stroke-width="10"/>
<path d="M293.005 135.254H293.083L294.416 140H295.798L297.668 132.954H296.145L295.056 137.988H294.978L293.669 132.954H292.424L291.14 137.988H291.062L289.963 132.954H288.43L290.295 140H291.687L293.005 135.254ZM303.62 138.784H300.427V137.002H303.439V135.869H300.427V134.17H303.62V132.954H298.952V140H303.62V138.784ZM308.337 140C309.841 140 310.773 139.224 310.773 137.983C310.773 137.075 310.095 136.377 309.162 136.304V136.216C309.885 136.108 310.437 135.459 310.437 134.712C310.437 133.623 309.621 132.954 308.254 132.954H305.173V140H308.337ZM306.647 134.048H307.878C308.581 134.048 308.986 134.39 308.986 134.966C308.986 135.552 308.552 135.884 307.756 135.884H306.647V134.048ZM306.647 138.901V136.855H307.927C308.796 136.855 309.27 137.207 309.27 137.866C309.27 138.54 308.811 138.901 307.961 138.901H306.647ZM318.229 140V132.954H316.755V135.815H313.581V132.954H312.106V140H313.581V137.031H316.755V140H318.229ZM323.02 132.773C320.944 132.773 319.626 134.189 319.626 136.475C319.626 138.755 320.925 140.181 323.02 140.181C325.1 140.181 326.408 138.755 326.408 136.475C326.408 134.194 325.095 132.773 323.02 132.773ZM323.02 134.023C324.162 134.023 324.899 134.976 324.899 136.475C324.899 137.969 324.167 138.931 323.02 138.931C321.857 138.931 321.135 137.969 321.135 136.475C321.135 134.976 321.872 134.023 323.02 134.023ZM330.891 132.773C328.815 132.773 327.497 134.189 327.497 136.475C327.497 138.755 328.796 140.181 330.891 140.181C332.971 140.181 334.279 138.755 334.279 136.475C334.279 134.194 332.966 132.773 330.891 132.773ZM330.891 134.023C332.033 134.023 332.771 134.976 332.771 136.475C332.771 137.969 332.038 138.931 330.891 138.931C329.729 138.931 329.006 137.969 329.006 136.475C329.006 134.976 329.743 134.023 330.891 134.023ZM337.155 140V137.847L337.854 137.007L339.899 140H341.667L338.918 136.04L341.486 132.954H339.846L337.243 136.118H337.155V132.954H335.681V140H337.155ZM293.381 204H294.978L292.531 196.954H290.798L288.352 204H289.831L290.373 202.291H292.849L293.381 204ZM291.574 198.385H291.662L292.536 201.188H290.69L291.574 198.385ZM298.601 204V198.17H300.715V196.954H295.012V198.17H297.126V204H298.601ZM305.202 204V198.17H307.316V196.954H301.613V198.17H303.728V204H305.202ZM310.095 201.422H311.301L312.614 204H314.284L312.8 201.202C313.61 200.885 314.079 200.104 314.079 199.2C314.079 197.809 313.127 196.954 311.579 196.954H308.62V204H310.095V201.422ZM310.095 198.106H311.374C312.106 198.106 312.565 198.536 312.565 199.22C312.565 199.918 312.131 200.323 311.389 200.323H310.095V198.106ZM317.038 204V196.954H315.563V204H317.038ZM321.911 204C323.415 204 324.348 203.224 324.348 201.983C324.348 201.075 323.669 200.377 322.736 200.304V200.216C323.459 200.108 324.011 199.459 324.011 198.712C324.011 197.623 323.195 196.954 321.828 196.954H318.747V204H321.911ZM320.222 198.048H321.452C322.155 198.048 322.561 198.39 322.561 198.966C322.561 199.552 322.126 199.884 321.33 199.884H320.222V198.048ZM320.222 202.901V200.855H321.501C322.37 200.855 322.844 201.207 322.844 201.866C322.844 202.54 322.385 202.901 321.535 202.901H320.222ZM327.15 196.954H325.676V201.568C325.676 203.126 326.828 204.181 328.63 204.181C330.432 204.181 331.579 203.126 331.579 201.568V196.954H330.104V201.427C330.104 202.33 329.572 202.916 328.63 202.916C327.688 202.916 327.15 202.33 327.15 201.427V196.954ZM336.472 204V198.17H338.586V196.954H332.883V198.17H334.997V204H336.472ZM344.558 202.784H341.364V201.002H344.377V199.869H341.364V198.17H344.558V196.954H339.89V204H344.558V202.784ZM345.793 202.052C345.847 203.355 346.936 204.181 348.615 204.181C350.383 204.181 351.472 203.312 351.472 201.905C351.472 200.816 350.861 200.206 349.445 199.903L348.596 199.723C347.771 199.542 347.434 199.283 347.434 198.839C347.434 198.287 347.922 197.931 348.659 197.931C349.372 197.931 349.89 198.307 349.958 198.883H351.345C351.301 197.638 350.202 196.773 348.649 196.773C347.023 196.773 345.954 197.643 345.954 198.956C345.954 200.025 346.584 200.685 347.868 200.958L348.786 201.158C349.65 201.349 350.002 201.617 350.002 202.081C350.002 202.628 349.46 203.014 348.693 203.014C347.863 203.014 347.287 202.638 347.219 202.052H345.793Z" fill="#8792A2"/>
<path d="M291.82 148.084C292.289 148.084 292.646 147.732 292.646 147.264C292.646 146.801 292.289 146.449 291.82 146.449C291.352 146.449 290.994 146.801 290.994 147.264C290.994 147.732 291.352 148.084 291.82 148.084ZM294.486 156V155.174H292.383V149.643H289.236V150.469H291.398V155.174H289.219V156H294.486ZM296.525 156H297.521V152.256C297.521 151.172 298.225 150.439 299.273 150.439C300.264 150.439 300.732 150.979 300.732 152.127V156H301.729V151.875C301.729 150.352 300.979 149.525 299.596 149.525C298.629 149.525 297.902 149.971 297.562 150.762H297.48V149.643H296.525V156ZM303.674 149.643L306 156H307.096L309.416 149.643H308.355L306.592 154.934H306.516L304.74 149.643H303.674ZM313.963 156.117C315.645 156.117 316.717 155.021 316.717 153.305V152.344C316.717 150.627 315.645 149.531 313.963 149.531C312.281 149.531 311.209 150.627 311.209 152.344V153.305C311.209 155.021 312.281 156.117 313.963 156.117ZM313.963 150.41C315.053 150.41 315.732 151.184 315.732 152.432V153.211C315.732 154.465 315.053 155.232 313.963 155.232C312.873 155.232 312.193 154.465 312.193 153.211V152.432C312.193 151.184 312.873 150.41 313.963 150.41ZM321.492 148.084C321.961 148.084 322.318 147.732 322.318 147.264C322.318 146.801 321.961 146.449 321.492 146.449C321.023 146.449 320.666 146.801 320.666 147.264C320.666 147.732 321.023 148.084 321.492 148.084ZM324.158 156V155.174H322.055V149.643H318.908V150.469H321.07V155.174H318.891V156H324.158ZM331.447 151.623C331.283 150.316 330.322 149.52 328.916 149.52C327.188 149.52 326.18 150.58 326.18 152.402V153.234C326.18 155.057 327.188 156.117 328.916 156.117C330.322 156.117 331.289 155.326 331.447 154.031H330.463C330.34 154.758 329.719 155.221 328.898 155.221C327.791 155.221 327.176 154.471 327.176 153.105V152.531C327.176 151.166 327.791 150.41 328.898 150.41C329.719 150.41 330.34 150.879 330.463 151.623H331.447ZM337.934 154.359C337.758 154.916 337.166 155.256 336.363 155.256C335.279 155.256 334.588 154.506 334.588 153.34V153.082H338.918V152.461C338.918 150.621 337.945 149.525 336.293 149.525C334.676 149.525 333.604 150.627 333.604 152.303V153.258C333.604 155.068 334.617 156.117 336.363 156.117C337.699 156.117 338.707 155.408 338.9 154.359H337.934ZM336.287 150.381C337.312 150.381 337.934 151.113 337.934 152.326H334.588C334.588 151.107 335.227 150.381 336.287 150.381ZM343.635 156.035C344.215 156.035 344.695 155.549 344.695 154.951C344.695 154.359 344.215 153.873 343.635 153.873C343.055 153.873 342.574 154.359 342.574 154.951C342.574 155.549 343.055 156.035 343.635 156.035ZM351.451 149.537C350.543 149.537 349.881 149.912 349.547 150.615H349.441V149.643H348.457V158.145H349.471V155.016H349.582C349.857 155.713 350.531 156.105 351.451 156.105C352.922 156.105 353.883 155.045 353.883 153.416V152.232C353.883 150.598 352.922 149.537 351.451 149.537ZM351.164 150.451C352.213 150.451 352.881 151.201 352.881 152.373V153.287C352.881 154.459 352.213 155.215 351.164 155.215C350.115 155.215 349.447 154.465 349.447 153.287V152.373C349.447 151.201 350.115 150.451 351.164 150.451ZM357.826 156.111C358.752 156.111 359.443 155.73 359.748 155.051H359.848V156.006H360.797V151.652C360.797 150.328 359.941 149.566 358.447 149.566C357.146 149.566 356.162 150.264 356.045 151.283H357.023C357.188 150.738 357.703 150.428 358.436 150.428C359.32 150.428 359.807 150.867 359.807 151.664V152.238L358.061 152.326C356.613 152.402 355.805 153.07 355.805 154.195C355.805 155.35 356.613 156.111 357.826 156.111ZM358.113 155.238C357.311 155.238 356.812 154.828 356.812 154.16C356.812 153.498 357.281 153.117 358.172 153.076L359.807 153V153.75C359.807 154.6 359.074 155.238 358.113 155.238ZM364.107 158.262C365.285 158.262 365.818 157.799 366.375 156.234L368.771 149.643H367.711L365.936 154.963H365.859L364.078 149.643H362.994L365.332 156.041L365.221 156.387C364.957 157.125 364.629 157.395 364.031 157.395C363.938 157.395 363.756 157.389 363.68 157.371V158.244C363.768 158.256 363.961 158.262 364.107 158.262ZM376.371 151.318C376.371 150.141 375.908 149.525 375.023 149.525C374.385 149.525 373.875 149.912 373.711 150.521H373.605C373.471 149.895 373.049 149.525 372.451 149.525C371.854 149.525 371.396 149.9 371.238 150.539H371.133V149.643H370.242V156H371.139V151.711C371.139 150.92 371.49 150.434 372.053 150.434C372.592 150.434 372.873 150.838 372.873 151.605V156H373.764V151.711C373.764 150.92 374.104 150.434 374.66 150.434C375.193 150.434 375.475 150.838 375.475 151.611V156H376.371V151.318ZM382.441 154.359C382.266 154.916 381.674 155.256 380.871 155.256C379.787 155.256 379.096 154.506 379.096 153.34V153.082H383.426V152.461C383.426 150.621 382.453 149.525 380.801 149.525C379.184 149.525 378.111 150.627 378.111 152.303V153.258C378.111 155.068 379.125 156.117 380.871 156.117C382.207 156.117 383.215 155.408 383.408 154.359H382.441ZM380.795 150.381C381.82 150.381 382.441 151.113 382.441 152.326H379.096C379.096 151.107 379.734 150.381 380.795 150.381ZM385.541 156H386.537V152.256C386.537 151.172 387.24 150.439 388.289 150.439C389.279 150.439 389.748 150.979 389.748 152.127V156H390.744V151.875C390.744 150.352 389.994 149.525 388.611 149.525C387.645 149.525 386.918 149.971 386.578 150.762H386.496V149.643H385.541V156ZM394.477 147.938V149.66H392.783V150.51H394.477V154.107C394.477 155.432 395.209 156.029 396.785 156.029C397.09 156.029 397.863 156 398.021 155.971V155.127C397.852 155.145 397.213 155.162 396.855 155.162C395.959 155.162 395.473 154.787 395.473 154.096V150.51H398.039V149.66H395.461V147.938H394.477ZM406.02 157.828V156.967H399.938V157.828H406.02ZM291.064 172.111C291.99 172.111 292.682 171.73 292.986 171.051H293.086V172.006H294.035V167.652C294.035 166.328 293.18 165.566 291.686 165.566C290.385 165.566 289.4 166.264 289.283 167.283H290.262C290.426 166.738 290.941 166.428 291.674 166.428C292.559 166.428 293.045 166.867 293.045 167.664V168.238L291.299 168.326C289.852 168.402 289.043 169.07 289.043 170.195C289.043 171.35 289.852 172.111 291.064 172.111ZM291.352 171.238C290.549 171.238 290.051 170.828 290.051 170.16C290.051 169.498 290.52 169.117 291.41 169.076L293.045 169V169.75C293.045 170.6 292.312 171.238 291.352 171.238ZM301.775 167.623C301.611 166.316 300.65 165.52 299.244 165.52C297.516 165.52 296.508 166.58 296.508 168.402V169.234C296.508 171.057 297.516 172.117 299.244 172.117C300.65 172.117 301.617 171.326 301.775 170.031H300.791C300.668 170.758 300.047 171.221 299.227 171.221C298.119 171.221 297.504 170.471 297.504 169.105V168.531C297.504 167.166 298.119 166.41 299.227 166.41C300.047 166.41 300.668 166.879 300.791 167.623H301.775ZM305.461 163.938V165.66H303.768V166.51H305.461V170.107C305.461 171.432 306.193 172.029 307.77 172.029C308.074 172.029 308.848 172 309.006 171.971V171.127C308.836 171.145 308.197 171.162 307.84 171.162C306.943 171.162 306.457 170.787 306.457 170.096V166.51H309.023V165.66H306.445V163.938H305.461ZM314.074 164.084C314.543 164.084 314.9 163.732 314.9 163.264C314.9 162.801 314.543 162.449 314.074 162.449C313.605 162.449 313.248 162.801 313.248 163.264C313.248 163.732 313.605 164.084 314.074 164.084ZM316.74 172V171.174H314.637V165.643H311.49V166.469H313.652V171.174H311.473V172H316.74ZM321.381 172.117C323.062 172.117 324.135 171.021 324.135 169.305V168.344C324.135 166.627 323.062 165.531 321.381 165.531C319.699 165.531 318.627 166.627 318.627 168.344V169.305C318.627 171.021 319.699 172.117 321.381 172.117ZM321.381 166.41C322.471 166.41 323.15 167.184 323.15 168.432V169.211C323.15 170.465 322.471 171.232 321.381 171.232C320.291 171.232 319.611 170.465 319.611 169.211V168.432C319.611 167.184 320.291 166.41 321.381 166.41ZM326.197 172H327.193V168.256C327.193 167.172 327.896 166.439 328.945 166.439C329.936 166.439 330.404 166.979 330.404 168.127V172H331.4V167.875C331.4 166.352 330.65 165.525 329.268 165.525C328.301 165.525 327.574 165.971 327.234 166.762H327.152V165.643H326.197V172ZM339.258 173.828V172.967H333.176V173.828H339.258ZM343.383 169.152C343.383 167.535 344.215 166.562 345.621 166.562C345.967 166.562 346.377 166.633 346.67 166.738V165.619C346.459 165.531 346.113 165.479 345.75 165.479C344.525 165.479 343.734 166.088 343.5 167.266H343.371V165.643H340.998V166.439H342.41V171.203H341.127V172H345.352V171.203H343.383V169.152ZM352.77 170.359C352.594 170.916 352.002 171.256 351.199 171.256C350.115 171.256 349.424 170.506 349.424 169.34V169.082H353.754V168.461C353.754 166.621 352.781 165.525 351.129 165.525C349.512 165.525 348.439 166.627 348.439 168.303V169.258C348.439 171.068 349.453 172.117 351.199 172.117C352.535 172.117 353.543 171.408 353.736 170.359H352.77ZM351.123 166.381C352.148 166.381 352.77 167.113 352.77 168.326H349.424C349.424 167.107 350.062 166.381 351.123 166.381ZM358.072 165.537C356.602 165.537 355.641 166.598 355.641 168.232V169.416C355.641 171.045 356.602 172.105 358.072 172.105C358.992 172.105 359.666 171.713 359.941 171.016H360.053V174.145H361.066V165.643H360.082V166.615H359.977C359.643 165.912 358.98 165.537 358.072 165.537ZM358.359 166.451C359.408 166.451 360.076 167.201 360.076 168.373V169.287C360.076 170.465 359.408 171.215 358.359 171.215C357.311 171.215 356.643 170.459 356.643 169.287V168.373C356.643 167.201 357.311 166.451 358.359 166.451ZM368.49 165.643H367.494V169.387C367.494 170.471 366.791 171.203 365.742 171.203C364.752 171.203 364.283 170.664 364.283 169.516V165.643H363.287V169.768C363.287 171.291 364.037 172.117 365.42 172.117C366.387 172.117 367.113 171.672 367.453 170.881H367.535V172H368.49V165.643ZM373.418 164.084C373.887 164.084 374.244 163.732 374.244 163.264C374.244 162.801 373.887 162.449 373.418 162.449C372.949 162.449 372.592 162.801 372.592 163.264C372.592 163.732 372.949 164.084 373.418 164.084ZM376.084 172V171.174H373.98V165.643H370.834V166.469H372.996V171.174H370.816V172H376.084ZM380.473 169.152C380.473 167.535 381.305 166.562 382.711 166.562C383.057 166.562 383.467 166.633 383.76 166.738V165.619C383.549 165.531 383.203 165.479 382.84 165.479C381.615 165.479 380.824 166.088 380.59 167.266H380.461V165.643H378.088V166.439H379.5V171.203H378.217V172H382.441V171.203H380.473V169.152ZM389.859 170.359C389.684 170.916 389.092 171.256 388.289 171.256C387.205 171.256 386.514 170.506 386.514 169.34V169.082H390.844V168.461C390.844 166.621 389.871 165.525 388.219 165.525C386.602 165.525 385.529 166.627 385.529 168.303V169.258C385.529 171.068 386.543 172.117 388.289 172.117C389.625 172.117 390.633 171.408 390.826 170.359H389.859ZM388.213 166.381C389.238 166.381 389.859 167.113 389.859 168.326H386.514C386.514 167.107 387.152 166.381 388.213 166.381ZM395.162 172.105C396.07 172.105 396.738 171.73 397.066 171.027H397.178V172H398.156V163.146H397.143V166.627H397.037C396.762 165.93 396.082 165.537 395.162 165.537C393.691 165.537 392.73 166.598 392.73 168.227V169.41C392.73 171.045 393.691 172.105 395.162 172.105ZM395.455 171.197C394.406 171.197 393.732 170.441 393.732 169.27V168.355C393.732 167.184 394.406 166.434 395.455 166.434C396.498 166.434 397.172 167.184 397.172 168.355V169.27C397.172 170.447 396.498 171.197 395.455 171.197ZM289.395 215.359C289.395 216.262 289.963 216.842 291.111 217.105L292.055 217.322C292.863 217.504 293.174 217.773 293.174 218.277C293.174 218.887 292.623 219.279 291.756 219.279C290.936 219.279 290.373 218.939 290.227 218.354H289.213C289.324 219.443 290.279 220.117 291.721 220.117C293.227 220.117 294.205 219.355 294.205 218.184C294.205 217.264 293.643 216.725 292.406 216.443L291.51 216.238C290.713 216.062 290.385 215.787 290.385 215.301C290.385 214.721 290.906 214.346 291.715 214.346C292.459 214.346 292.992 214.686 293.109 215.242H294.07C293.953 214.182 293.057 213.52 291.732 213.52C290.332 213.52 289.395 214.258 289.395 215.359ZM298.043 211.938V213.66H296.35V214.51H298.043V218.107C298.043 219.432 298.775 220.029 300.352 220.029C300.656 220.029 301.43 220 301.588 219.971V219.127C301.418 219.145 300.779 219.162 300.422 219.162C299.525 219.162 299.039 218.787 299.039 218.096V214.51H301.605V213.66H299.027V211.938H298.043ZM305.9 220.111C306.826 220.111 307.518 219.73 307.822 219.051H307.922V220.006H308.871V215.652C308.871 214.328 308.016 213.566 306.521 213.566C305.221 213.566 304.236 214.264 304.119 215.283H305.098C305.262 214.738 305.777 214.428 306.51 214.428C307.395 214.428 307.881 214.867 307.881 215.664V216.238L306.135 216.326C304.688 216.402 303.879 217.07 303.879 218.195C303.879 219.35 304.688 220.111 305.9 220.111ZM306.188 219.238C305.385 219.238 304.887 218.828 304.887 218.16C304.887 217.498 305.355 217.117 306.246 217.076L307.881 217V217.75C307.881 218.6 307.148 219.238 306.188 219.238ZM312.879 211.938V213.66H311.186V214.51H312.879V218.107C312.879 219.432 313.611 220.029 315.188 220.029C315.492 220.029 316.266 220 316.424 219.971V219.127C316.254 219.145 315.615 219.162 315.258 219.162C314.361 219.162 313.875 218.787 313.875 218.096V214.51H316.441V213.66H313.863V211.938H312.879ZM323.982 213.643H322.986V217.387C322.986 218.471 322.283 219.203 321.234 219.203C320.244 219.203 319.775 218.664 319.775 217.516V213.643H318.779V217.768C318.779 219.291 319.529 220.117 320.912 220.117C321.879 220.117 322.605 219.672 322.945 218.881H323.027V220H323.982V213.643ZM326.484 215.359C326.484 216.262 327.053 216.842 328.201 217.105L329.145 217.322C329.953 217.504 330.264 217.773 330.264 218.277C330.264 218.887 329.713 219.279 328.846 219.279C328.025 219.279 327.463 218.939 327.316 218.354H326.303C326.414 219.443 327.369 220.117 328.811 220.117C330.316 220.117 331.295 219.355 331.295 218.184C331.295 217.264 330.732 216.725 329.496 216.443L328.6 216.238C327.803 216.062 327.475 215.787 327.475 215.301C327.475 214.721 327.996 214.346 328.805 214.346C329.549 214.346 330.082 214.686 330.199 215.242H331.16C331.043 214.182 330.146 213.52 328.822 213.52C327.422 213.52 326.484 214.258 326.484 215.359ZM339.316 215.4V214.434H333.117V215.4H339.316ZM339.316 218.072V217.105H333.117V218.072H339.316ZM343.635 220.141C345.457 220.141 346.605 219.033 346.605 217.27V216.273C346.605 214.51 345.457 213.402 343.635 213.402C341.812 213.402 340.664 214.51 340.664 216.273V217.27C340.664 219.033 341.812 220.141 343.635 220.141ZM343.635 214.715C344.496 214.715 345.029 215.336 345.029 216.338V217.205C345.029 218.201 344.496 218.828 343.635 218.828C342.773 218.828 342.24 218.201 342.24 217.205V216.338C342.24 215.336 342.773 214.715 343.635 214.715ZM351.773 213.438C350.83 213.438 350.191 213.871 349.963 214.65H349.84V213.537H348.193V222.15H349.863V218.904H349.98C350.197 219.678 350.842 220.111 351.773 220.111C353.256 220.111 354.129 219.092 354.129 217.328V216.215C354.129 214.457 353.256 213.438 351.773 213.438ZM351.158 214.832C351.984 214.832 352.494 215.377 352.494 216.262V217.334C352.494 218.219 351.984 218.764 351.158 218.764C350.326 218.764 349.822 218.225 349.822 217.334V216.262C349.822 215.371 350.326 214.832 351.158 214.832ZM359.871 218.184C359.754 218.605 359.244 218.898 358.6 218.898C357.762 218.898 357.217 218.348 357.217 217.504V217.152H361.383V216.262C361.383 214.527 360.287 213.402 358.576 213.402C356.818 213.402 355.646 214.521 355.646 216.215V217.252C355.646 219.086 356.725 220.141 358.605 220.141C360.105 220.141 361.248 219.326 361.383 218.184H359.871ZM358.547 214.645C359.355 214.645 359.836 215.201 359.836 216.127H357.217C357.217 215.201 357.715 214.645 358.547 214.645ZM363.012 220H364.611V216.268C364.611 215.371 365.145 214.803 365.965 214.803C366.779 214.803 367.16 215.254 367.16 216.203V220H368.766V215.822C368.766 214.246 368.016 213.402 366.609 213.402C365.678 213.402 364.98 213.842 364.664 214.621H364.564V213.537H363.012V220ZM292.107 229.537C291.199 229.537 290.537 229.912 290.203 230.615H290.098V229.643H289.113V238.145H290.127V235.016H290.238C290.514 235.713 291.188 236.105 292.107 236.105C293.578 236.105 294.539 235.045 294.539 233.416V232.232C294.539 230.598 293.578 229.537 292.107 229.537ZM291.82 230.451C292.869 230.451 293.537 231.201 293.537 232.373V233.287C293.537 234.459 292.869 235.215 291.82 235.215C290.771 235.215 290.104 234.465 290.104 233.287V232.373C290.104 231.201 290.771 230.451 291.82 230.451ZM298.482 236.111C299.408 236.111 300.1 235.73 300.404 235.051H300.504V236.006H301.453V231.652C301.453 230.328 300.598 229.566 299.104 229.566C297.803 229.566 296.818 230.264 296.701 231.283H297.68C297.844 230.738 298.359 230.428 299.092 230.428C299.977 230.428 300.463 230.867 300.463 231.664V232.238L298.717 232.326C297.27 232.402 296.461 233.07 296.461 234.195C296.461 235.35 297.27 236.111 298.482 236.111ZM298.77 235.238C297.967 235.238 297.469 234.828 297.469 234.16C297.469 233.498 297.938 233.117 298.828 233.076L300.463 233V233.75C300.463 234.6 299.73 235.238 298.77 235.238ZM304.764 238.262C305.941 238.262 306.475 237.799 307.031 236.234L309.428 229.643H308.367L306.592 234.963H306.516L304.734 229.643H303.65L305.988 236.041L305.877 236.387C305.613 237.125 305.285 237.395 304.688 237.395C304.594 237.395 304.412 237.389 304.336 237.371V238.244C304.424 238.256 304.617 238.262 304.764 238.262ZM317.027 231.318C317.027 230.141 316.564 229.525 315.68 229.525C315.041 229.525 314.531 229.912 314.367 230.521H314.262C314.127 229.895 313.705 229.525 313.107 229.525C312.51 229.525 312.053 229.9 311.895 230.539H311.789V229.643H310.898V236H311.795V231.711C311.795 230.92 312.146 230.434 312.709 230.434C313.248 230.434 313.529 230.838 313.529 231.605V236H314.42V231.711C314.42 230.92 314.76 230.434 315.316 230.434C315.85 230.434 316.131 230.838 316.131 231.611V236H317.027V231.318ZM323.098 234.359C322.922 234.916 322.33 235.256 321.527 235.256C320.443 235.256 319.752 234.506 319.752 233.34V233.082H324.082V232.461C324.082 230.621 323.109 229.525 321.457 229.525C319.84 229.525 318.768 230.627 318.768 232.303V233.258C318.768 235.068 319.781 236.117 321.527 236.117C322.863 236.117 323.871 235.408 324.064 234.359H323.098ZM321.451 230.381C322.477 230.381 323.098 231.113 323.098 232.326H319.752C319.752 231.107 320.391 230.381 321.451 230.381ZM326.197 236H327.193V232.256C327.193 231.172 327.896 230.439 328.945 230.439C329.936 230.439 330.404 230.979 330.404 232.127V236H331.4V231.875C331.4 230.352 330.65 229.525 329.268 229.525C328.301 229.525 327.574 229.971 327.234 230.762H327.152V229.643H326.197V236ZM335.133 227.938V229.66H333.439V230.51H335.133V234.107C335.133 235.432 335.865 236.029 337.441 236.029C337.746 236.029 338.52 236 338.678 235.971V235.127C338.508 235.145 337.869 235.162 337.512 235.162C336.615 235.162 336.129 234.787 336.129 234.096V230.51H338.695V229.66H336.117V227.938H335.133ZM346.676 237.828V236.967H340.594V237.828H346.676ZM351.164 228.084C351.633 228.084 351.99 227.732 351.99 227.264C351.99 226.801 351.633 226.449 351.164 226.449C350.695 226.449 350.338 226.801 350.338 227.264C350.338 227.732 350.695 228.084 351.164 228.084ZM353.83 236V235.174H351.727V229.643H348.58V230.469H350.742V235.174H348.562V236H353.83ZM355.869 236H356.865V232.256C356.865 231.172 357.568 230.439 358.617 230.439C359.607 230.439 360.076 230.979 360.076 232.127V236H361.072V231.875C361.072 230.352 360.322 229.525 358.939 229.525C357.973 229.525 357.246 229.971 356.906 230.762H356.824V229.643H355.869V236ZM364.805 227.938V229.66H363.111V230.51H364.805V234.107C364.805 235.432 365.537 236.029 367.113 236.029C367.418 236.029 368.191 236 368.35 235.971V235.127C368.18 235.145 367.541 235.162 367.184 235.162C366.287 235.162 365.801 234.787 365.801 234.096V230.51H368.367V229.66H365.789V227.938H364.805ZM375.023 234.359C374.848 234.916 374.256 235.256 373.453 235.256C372.369 235.256 371.678 234.506 371.678 233.34V233.082H376.008V232.461C376.008 230.621 375.035 229.525 373.383 229.525C371.766 229.525 370.693 230.627 370.693 232.303V233.258C370.693 235.068 371.707 236.117 373.453 236.117C374.789 236.117 375.797 235.408 375.99 234.359H375.023ZM373.377 230.381C374.402 230.381 375.023 231.113 375.023 232.326H371.678C371.678 231.107 372.316 230.381 373.377 230.381ZM378.123 236H379.119V232.256C379.119 231.172 379.822 230.439 380.871 230.439C381.861 230.439 382.33 230.979 382.33 232.127V236H383.326V231.875C383.326 230.352 382.576 229.525 381.193 229.525C380.227 229.525 379.5 229.971 379.16 230.762H379.078V229.643H378.123V236ZM387.059 227.938V229.66H385.365V230.51H387.059V234.107C387.059 235.432 387.791 236.029 389.367 236.029C389.672 236.029 390.445 236 390.604 235.971V235.127C390.434 235.145 389.795 235.162 389.438 235.162C388.541 235.162 388.055 234.787 388.055 234.096V230.51H390.621V229.66H388.043V227.938H387.059Z" fill="#2D3044"/>
<path d="M272 88C272 83.5817 275.582 80 280 80H456C460.418 80 464 83.5817 464 88V120H272V88Z" fill="#FCE0F6"/>
<path d="M290.795 104V95.5449H289.025V104H290.795ZM292.676 104H294.381V100.268C294.381 99.3945 294.867 98.832 295.658 98.832C296.467 98.832 296.848 99.3066 296.848 100.215V104H298.553V99.8281C298.553 98.2871 297.779 97.4082 296.344 97.4082C295.389 97.4082 294.732 97.8594 294.434 98.5859H294.328V97.5488H292.676V104ZM305.877 97.5488H304.078L302.754 102.4H302.648L301.312 97.5488H299.479L301.723 104H303.645L305.877 97.5488ZM309.627 104.135C311.613 104.135 312.809 102.881 312.809 100.771C312.809 98.6797 311.596 97.4082 309.627 97.4082C307.658 97.4082 306.445 98.6855 306.445 100.771C306.445 102.875 307.641 104.135 309.627 104.135ZM309.627 102.787C308.713 102.787 308.197 102.049 308.197 100.771C308.197 99.5059 308.719 98.7617 309.627 98.7617C310.529 98.7617 311.057 99.5059 311.057 100.771C311.057 102.049 310.535 102.787 309.627 102.787ZM315.07 96.5586C315.598 96.5586 316.031 96.1367 316.031 95.6094C316.031 95.0762 315.598 94.6543 315.07 94.6543C314.543 94.6543 314.104 95.0762 314.104 95.6094C314.104 96.1367 314.543 96.5586 315.07 96.5586ZM314.215 104H315.92V97.5488H314.215V104ZM323.367 99.7988C323.227 98.3574 322.201 97.4082 320.49 97.4082C318.469 97.4082 317.332 98.6328 317.332 100.76C317.332 102.91 318.475 104.135 320.49 104.135C322.172 104.135 323.227 103.209 323.367 101.791H321.773C321.645 102.436 321.188 102.781 320.49 102.781C319.576 102.781 319.055 102.061 319.055 100.76C319.055 99.4766 319.57 98.7676 320.49 98.7676C321.217 98.7676 321.656 99.1777 321.773 99.7988H323.367ZM328.881 102.178C328.699 102.617 328.236 102.863 327.562 102.863C326.672 102.863 326.109 102.248 326.086 101.264V101.176H330.521V100.666C330.521 98.627 329.396 97.4082 327.492 97.4082C325.57 97.4082 324.387 98.709 324.387 100.807C324.387 102.893 325.547 104.135 327.516 104.135C329.098 104.135 330.217 103.379 330.469 102.178H328.881ZM327.498 98.6797C328.295 98.6797 328.811 99.2305 328.846 100.115H326.092C326.15 99.248 326.707 98.6797 327.498 98.6797Z" fill="#3C4257"/>
<rect x="272.5" y="80.5" width="191" height="175" rx="7.5" stroke="#E3E8EE"/>
<path d="M512 88C512 83.5817 515.582 80 520 80H695C699.418 80 703 83.5817 703 88V248C703 252.418 699.418 256 695 256H520C515.582 256 512 252.418 512 248V88Z" fill="white"/>
<rect x="507" y="75" width="201" height="186" rx="13" stroke="white" stroke-width="10"/>
<path d="M533.381 140H534.978L532.531 132.954H530.798L528.352 140H529.831L530.373 138.291H532.849L533.381 140ZM531.574 134.385H531.662L532.536 137.188H530.69L531.574 134.385ZM538.601 140V134.17H540.715V132.954H535.012V134.17H537.126V140H538.601ZM545.202 140V134.17H547.316V132.954H541.613V134.17H543.728V140H545.202ZM550.095 137.422H551.301L552.614 140H554.284L552.8 137.202C553.61 136.885 554.079 136.104 554.079 135.2C554.079 133.809 553.127 132.954 551.579 132.954H548.62V140H550.095V137.422ZM550.095 134.106H551.374C552.106 134.106 552.565 134.536 552.565 135.22C552.565 135.918 552.131 136.323 551.389 136.323H550.095V134.106ZM557.038 140V132.954H555.563V140H557.038ZM561.911 140C563.415 140 564.348 139.224 564.348 137.983C564.348 137.075 563.669 136.377 562.736 136.304V136.216C563.459 136.108 564.011 135.459 564.011 134.712C564.011 133.623 563.195 132.954 561.828 132.954H558.747V140H561.911ZM560.222 134.048H561.452C562.155 134.048 562.561 134.39 562.561 134.966C562.561 135.552 562.126 135.884 561.33 135.884H560.222V134.048ZM560.222 138.901V136.855H561.501C562.37 136.855 562.844 137.207 562.844 137.866C562.844 138.54 562.385 138.901 561.535 138.901H560.222ZM567.15 132.954H565.676V137.568C565.676 139.126 566.828 140.181 568.63 140.181C570.432 140.181 571.579 139.126 571.579 137.568V132.954H570.104V137.427C570.104 138.33 569.572 138.916 568.63 138.916C567.688 138.916 567.15 138.33 567.15 137.427V132.954ZM576.472 140V134.17H578.586V132.954H572.883V134.17H574.997V140H576.472ZM584.558 138.784H581.364V137.002H584.377V135.869H581.364V134.17H584.558V132.954H579.89V140H584.558V138.784ZM585.793 138.052C585.847 139.355 586.936 140.181 588.615 140.181C590.383 140.181 591.472 139.312 591.472 137.905C591.472 136.816 590.861 136.206 589.445 135.903L588.596 135.723C587.771 135.542 587.434 135.283 587.434 134.839C587.434 134.287 587.922 133.931 588.659 133.931C589.372 133.931 589.89 134.307 589.958 134.883H591.345C591.301 133.638 590.202 132.773 588.649 132.773C587.023 132.773 585.954 133.643 585.954 134.956C585.954 136.025 586.584 136.685 587.868 136.958L588.786 137.158C589.65 137.349 590.002 137.617 590.002 138.081C590.002 138.628 589.46 139.014 588.693 139.014C587.863 139.014 587.287 138.638 587.219 138.052H585.793Z" fill="#8792A2"/>
<path d="M529.395 151.359C529.395 152.262 529.963 152.842 531.111 153.105L532.055 153.322C532.863 153.504 533.174 153.773 533.174 154.277C533.174 154.887 532.623 155.279 531.756 155.279C530.936 155.279 530.373 154.939 530.227 154.354H529.213C529.324 155.443 530.279 156.117 531.721 156.117C533.227 156.117 534.205 155.355 534.205 154.184C534.205 153.264 533.643 152.725 532.406 152.443L531.51 152.238C530.713 152.062 530.385 151.787 530.385 151.301C530.385 150.721 530.906 150.346 531.715 150.346C532.459 150.346 532.992 150.686 533.109 151.242H534.07C533.953 150.182 533.057 149.52 531.732 149.52C530.332 149.52 529.395 150.258 529.395 151.359ZM538.043 147.938V149.66H536.35V150.51H538.043V154.107C538.043 155.432 538.775 156.029 540.352 156.029C540.656 156.029 541.43 156 541.588 155.971V155.127C541.418 155.145 540.779 155.162 540.422 155.162C539.525 155.162 539.039 154.787 539.039 154.096V150.51H541.605V149.66H539.027V147.938H538.043ZM545.9 156.111C546.826 156.111 547.518 155.73 547.822 155.051H547.922V156.006H548.871V151.652C548.871 150.328 548.016 149.566 546.521 149.566C545.221 149.566 544.236 150.264 544.119 151.283H545.098C545.262 150.738 545.777 150.428 546.51 150.428C547.395 150.428 547.881 150.867 547.881 151.664V152.238L546.135 152.326C544.688 152.402 543.879 153.07 543.879 154.195C543.879 155.35 544.688 156.111 545.9 156.111ZM546.188 155.238C545.385 155.238 544.887 154.828 544.887 154.16C544.887 153.498 545.355 153.117 546.246 153.076L547.881 153V153.75C547.881 154.6 547.148 155.238 546.188 155.238ZM552.879 147.938V149.66H551.186V150.51H552.879V154.107C552.879 155.432 553.611 156.029 555.188 156.029C555.492 156.029 556.266 156 556.424 155.971V155.127C556.254 155.145 555.615 155.162 555.258 155.162C554.361 155.162 553.875 154.787 553.875 154.096V150.51H556.441V149.66H553.863V147.938H552.879ZM563.982 149.643H562.986V153.387C562.986 154.471 562.283 155.203 561.234 155.203C560.244 155.203 559.775 154.664 559.775 153.516V149.643H558.779V153.768C558.779 155.291 559.529 156.117 560.912 156.117C561.879 156.117 562.605 155.672 562.945 154.881H563.027V156H563.982V149.643ZM566.484 151.359C566.484 152.262 567.053 152.842 568.201 153.105L569.145 153.322C569.953 153.504 570.264 153.773 570.264 154.277C570.264 154.887 569.713 155.279 568.846 155.279C568.025 155.279 567.463 154.939 567.316 154.354H566.303C566.414 155.443 567.369 156.117 568.811 156.117C570.316 156.117 571.295 155.355 571.295 154.184C571.295 153.264 570.732 152.725 569.496 152.443L568.6 152.238C567.803 152.062 567.475 151.787 567.475 151.301C567.475 150.721 567.996 150.346 568.805 150.346C569.549 150.346 570.082 150.686 570.199 151.242H571.16C571.043 150.182 570.146 149.52 568.822 149.52C567.422 149.52 566.484 150.258 566.484 151.359ZM579.316 154.072V153.105H573.117V154.072H579.316ZM579.316 151.4V150.434H573.117V151.4H579.316ZM583.523 151.195V149.537H580.629V150.721H581.977V154.822H580.746V156H581.977H583.512H585.387V154.822H583.512V153.135C583.512 151.746 584.256 151.055 585.779 151.055C586.143 151.055 586.564 151.131 586.857 151.242V149.502C586.629 149.414 586.301 149.367 585.938 149.367C584.719 149.367 584.057 149.912 583.775 151.195H583.523ZM591.129 150.645C591.938 150.645 592.418 151.201 592.418 152.127H589.799C589.799 151.201 590.297 150.645 591.129 150.645ZM592.453 154.184C592.336 154.605 591.826 154.898 591.182 154.898C590.344 154.898 589.799 154.348 589.799 153.504V153.152H593.965V152.262C593.965 150.527 592.869 149.402 591.158 149.402C589.4 149.402 588.229 150.521 588.229 152.215V153.252C588.229 155.086 589.307 156.141 591.188 156.141C592.688 156.141 593.83 155.326 593.965 154.184H592.453ZM599.701 153.334C599.701 154.225 599.197 154.764 598.365 154.764C597.539 154.764 597.029 154.219 597.029 153.334V152.262C597.029 151.377 597.539 150.832 598.365 150.832C599.197 150.832 599.701 151.371 599.701 152.262V153.334ZM595.395 153.328C595.395 155.092 596.268 156.111 597.75 156.111C598.682 156.111 599.326 155.678 599.543 154.904H599.66V158.15H601.33V149.537H599.684V150.65H599.561C599.332 149.871 598.693 149.438 597.75 149.438C596.268 149.438 595.395 150.457 595.395 152.215V153.328ZM608.766 149.537H607.166V153.27C607.166 154.166 606.633 154.734 605.812 154.734C604.998 154.734 604.617 154.283 604.617 153.334V149.537H603.012V153.715C603.012 155.291 603.762 156.135 605.168 156.135C606.1 156.135 606.797 155.695 607.113 154.916H607.213V156H608.766V149.537ZM613.4 148.219C614.057 148.219 614.502 147.814 614.502 147.205C614.502 146.596 614.057 146.191 613.4 146.191C612.744 146.191 612.305 146.596 612.305 147.205C612.305 147.814 612.744 148.219 613.4 148.219ZM616.16 156V154.723H614.209V149.537H610.682V150.82H612.65V154.723H610.576V156H616.16ZM620.613 151.195V149.537H617.719V150.721H619.066V154.822H617.836V156H619.066H620.602H622.477V154.822H620.602V153.135C620.602 151.746 621.346 151.055 622.869 151.055C623.232 151.055 623.654 151.131 623.947 151.242V149.502C623.719 149.414 623.391 149.367 623.027 149.367C621.809 149.367 621.146 149.912 620.865 151.195H620.613ZM628.219 150.645C629.027 150.645 629.508 151.201 629.508 152.127H626.889C626.889 151.201 627.387 150.645 628.219 150.645ZM629.543 154.184C629.426 154.605 628.916 154.898 628.271 154.898C627.434 154.898 626.889 154.348 626.889 153.504V153.152H631.055V152.262C631.055 150.527 629.959 149.402 628.248 149.402C626.49 149.402 625.318 150.521 625.318 152.215V153.252C625.318 155.086 626.396 156.141 628.277 156.141C629.777 156.141 630.92 155.326 631.055 154.184H629.543ZM632.947 151.424C632.947 152.42 633.562 153.053 634.775 153.316L635.742 153.521C636.422 153.668 636.668 153.844 636.668 154.207C636.668 154.629 636.246 154.904 635.59 154.904C634.922 154.904 634.488 154.658 634.389 154.213H632.807C632.895 155.426 633.914 156.135 635.566 156.135C637.248 156.135 638.314 155.309 638.314 154.002C638.314 153.018 637.734 152.461 636.428 152.191L635.426 151.986C634.799 151.857 634.529 151.646 634.529 151.295C634.529 150.885 634.934 150.609 635.543 150.609C636.141 150.609 636.562 150.873 636.639 151.301H638.15C638.074 150.088 637.119 149.385 635.555 149.385C633.955 149.385 632.947 150.17 632.947 151.424ZM646.02 158.074V156.645H639.938V158.074H646.02ZM530.836 172.105C531.68 172.105 532.359 171.748 532.676 171.139H532.816V172H534.34V167.617C534.34 166.205 533.408 165.414 531.75 165.414C530.215 165.414 529.154 166.17 529.037 167.342H530.596C530.73 166.938 531.146 166.691 531.703 166.691C532.365 166.691 532.752 167.02 532.752 167.582V168.098L531.24 168.191C529.646 168.303 528.797 168.988 528.797 170.154C528.797 171.32 529.617 172.105 530.836 172.105ZM531.387 170.822C530.766 170.822 530.379 170.518 530.379 170.037C530.379 169.539 530.76 169.252 531.51 169.205L532.752 169.129V169.598C532.752 170.318 532.184 170.822 531.387 170.822ZM542.051 167.793C541.898 166.211 540.926 165.379 539.256 165.379C537.352 165.379 536.297 166.457 536.297 168.42V169.1C536.297 171.062 537.352 172.141 539.256 172.141C540.926 172.141 541.91 171.32 542.051 169.779H540.48C540.369 170.471 539.947 170.805 539.244 170.805C538.383 170.805 537.908 170.16 537.908 168.977V168.543C537.908 167.359 538.383 166.715 539.244 166.715C539.941 166.715 540.375 167.066 540.48 167.793H542.051ZM545.209 163.691V165.602H543.527V166.885H545.209V169.955C545.209 171.455 545.883 172.012 547.641 172.012C547.77 172.012 549.047 172 549.111 171.988V170.723C549.041 170.729 547.922 170.734 547.77 170.734C547.154 170.734 546.809 170.459 546.809 169.973V166.885H549.188V165.602H546.779V163.691H545.209ZM554.057 164.219C554.713 164.219 555.158 163.814 555.158 163.205C555.158 162.596 554.713 162.191 554.057 162.191C553.4 162.191 552.961 162.596 552.961 163.205C552.961 163.814 553.4 164.219 554.057 164.219ZM556.816 172V170.723H554.865V165.537H551.338V166.82H553.307V170.723H551.232V172H556.816ZM561.381 172.141C563.203 172.141 564.352 171.033 564.352 169.27V168.273C564.352 166.51 563.203 165.402 561.381 165.402C559.559 165.402 558.41 166.51 558.41 168.273V169.27C558.41 171.033 559.559 172.141 561.381 172.141ZM561.381 166.715C562.242 166.715 562.775 167.336 562.775 168.338V169.205C562.775 170.201 562.242 170.828 561.381 170.828C560.52 170.828 559.986 170.201 559.986 169.205V168.338C559.986 167.336 560.52 166.715 561.381 166.715ZM565.922 172H567.521V168.268C567.521 167.371 568.055 166.803 568.875 166.803C569.689 166.803 570.07 167.254 570.07 168.203V172H571.676V167.822C571.676 166.246 570.926 165.402 569.52 165.402C568.588 165.402 567.891 165.842 567.574 166.621H567.475V165.537H565.922V172Z" fill="#2D3044"/>
<path d="M512 88C512 83.5817 515.582 80 520 80H695C699.418 80 703 83.5817 703 88V120H512V88Z" fill="#FEE3C0"/>
<path d="M529.025 95.5449V104H530.795V101.334H532.465C534.246 101.334 535.482 100.174 535.482 98.4512C535.482 96.7051 534.293 95.5449 532.553 95.5449H529.025ZM530.795 96.9512H532.084C533.104 96.9512 533.684 97.4727 533.684 98.457C533.684 99.418 533.092 99.9453 532.078 99.9453H530.795V96.9512ZM538.477 104.1C539.314 104.1 540.018 103.742 540.352 103.145H540.457V104H542.109V99.5938C542.109 98.2168 541.143 97.4082 539.432 97.4082C537.809 97.4082 536.713 98.1523 536.602 99.3359H538.172C538.312 98.9316 538.723 98.7148 539.338 98.7148C540.041 98.7148 540.428 99.0371 540.428 99.5938V100.127L538.863 100.221C537.258 100.314 536.361 100.994 536.361 102.16C536.361 103.338 537.234 104.1 538.477 104.1ZM539.039 102.852C538.447 102.852 538.031 102.553 538.031 102.055C538.031 101.58 538.389 101.305 539.121 101.258L540.428 101.17V101.65C540.428 102.33 539.83 102.852 539.039 102.852ZM544.412 106.344C546.023 106.344 546.814 105.77 547.365 104.123L549.592 97.5488H547.787L546.428 102.471H546.322L544.963 97.5488H543.082L545.35 104.035L545.291 104.281C545.15 104.803 544.787 105.014 544.148 105.014C544.078 105.014 543.82 105.008 543.762 104.996V106.326C543.832 106.338 544.348 106.344 544.412 106.344ZM550.781 104H552.486V100.109C552.486 99.3711 552.961 98.832 553.629 98.832C554.297 98.832 554.695 99.2305 554.695 99.9219V104H556.336V100.033C556.336 99.3359 556.781 98.832 557.473 98.832C558.193 98.832 558.551 99.2188 558.551 99.998V104H560.256V99.5703C560.256 98.2402 559.453 97.4082 558.164 97.4082C557.262 97.4082 556.518 97.8828 556.219 98.5977H556.113C555.855 97.8594 555.234 97.4082 554.326 97.4082C553.477 97.4082 552.803 97.8594 552.539 98.5977H552.434V97.5488H550.781V104ZM566.092 102.178C565.91 102.617 565.447 102.863 564.773 102.863C563.883 102.863 563.32 102.248 563.297 101.264V101.176H567.732V100.666C567.732 98.627 566.607 97.4082 564.703 97.4082C562.781 97.4082 561.598 98.709 561.598 100.807C561.598 102.893 562.758 104.135 564.727 104.135C566.309 104.135 567.428 103.379 567.68 102.178H566.092ZM564.709 98.6797C565.506 98.6797 566.021 99.2305 566.057 100.115H563.303C563.361 99.248 563.918 98.6797 564.709 98.6797ZM569.133 104H570.838V100.268C570.838 99.3945 571.324 98.832 572.115 98.832C572.924 98.832 573.305 99.3066 573.305 100.215V104H575.01V99.8281C575.01 98.2871 574.236 97.4082 572.801 97.4082C571.846 97.4082 571.189 97.8594 570.891 98.5859H570.785V97.5488H569.133V104ZM577.154 96.0078V97.6074H576.146V98.9023H577.154V102.26C577.154 103.514 577.775 104.023 579.346 104.023C579.674 104.023 579.99 103.988 580.201 103.947V102.688C580.037 102.705 579.92 102.717 579.697 102.717C579.117 102.717 578.859 102.447 578.859 101.867V98.9023H580.201V97.6074H578.859V96.0078H577.154ZM585.586 96.5586C586.113 96.5586 586.547 96.1367 586.547 95.6094C586.547 95.0762 586.113 94.6543 585.586 94.6543C585.059 94.6543 584.619 95.0762 584.619 95.6094C584.619 96.1367 585.059 96.5586 585.586 96.5586ZM584.73 104H586.436V97.5488H584.73V104ZM588.164 104H589.869V100.268C589.869 99.3945 590.355 98.832 591.146 98.832C591.955 98.832 592.336 99.3066 592.336 100.215V104H594.041V99.8281C594.041 98.2871 593.268 97.4082 591.832 97.4082C590.877 97.4082 590.221 97.8594 589.922 98.5859H589.816V97.5488H588.164V104ZM596.186 96.0078V97.6074H595.178V98.9023H596.186V102.26C596.186 103.514 596.807 104.023 598.377 104.023C598.705 104.023 599.021 103.988 599.232 103.947V102.688C599.068 102.705 598.951 102.717 598.729 102.717C598.148 102.717 597.891 102.447 597.891 101.867V98.9023H599.232V97.6074H597.891V96.0078H596.186ZM604.787 102.178C604.605 102.617 604.143 102.863 603.469 102.863C602.578 102.863 602.016 102.248 601.992 101.264V101.176H606.428V100.666C606.428 98.627 605.303 97.4082 603.398 97.4082C601.477 97.4082 600.293 98.709 600.293 100.807C600.293 102.893 601.453 104.135 603.422 104.135C605.004 104.135 606.123 103.379 606.375 102.178H604.787ZM603.404 98.6797C604.201 98.6797 604.717 99.2305 604.752 100.115H601.998C602.057 99.248 602.613 98.6797 603.404 98.6797ZM607.828 104H609.533V100.268C609.533 99.3945 610.02 98.832 610.811 98.832C611.619 98.832 612 99.3066 612 100.215V104H613.705V99.8281C613.705 98.2871 612.932 97.4082 611.496 97.4082C610.541 97.4082 609.885 97.8594 609.586 98.5859H609.48V97.5488H607.828V104ZM615.85 96.0078V97.6074H614.842V98.9023H615.85V102.26C615.85 103.514 616.471 104.023 618.041 104.023C618.369 104.023 618.686 103.988 618.896 103.947V102.688C618.732 102.705 618.615 102.717 618.393 102.717C617.812 102.717 617.555 102.447 617.555 101.867V98.9023H618.896V97.6074H617.555V96.0078H615.85Z" fill="#3C4257"/>
<rect x="512.5" y="80.5" width="190" height="175" rx="7.5" stroke="#E3E8EE"/>
<path d="M216.5 232.75C216.086 232.75 215.75 232.414 215.75 232C215.75 231.586 216.086 231.25 216.5 231.25V232.75ZM264.03 159.47C264.323 159.763 264.323 160.237 264.03 160.53L259.257 165.303C258.964 165.596 258.49 165.596 258.197 165.303C257.904 165.01 257.904 164.536 258.197 164.243L262.439 160L258.197 155.757C257.904 155.464 257.904 154.99 258.197 154.697C258.49 154.404 258.964 154.404 259.257 154.697L264.03 159.47ZM244 159.25H263.5V160.75H244V159.25ZM216.5 231.25H236V232.75H216.5V231.25ZM239.25 228L239.25 164H240.75L240.75 228H239.25ZM236 231.25C237.795 231.25 239.25 229.795 239.25 228H240.75C240.75 230.623 238.623 232.75 236 232.75V231.25ZM244 160.75C242.205 160.75 240.75 162.205 240.75 164H239.25C239.25 161.377 241.377 159.25 244 159.25V160.75Z" fill="#8792A2"/>
<path d="M456.5 232.75C456.086 232.75 455.75 232.414 455.75 232C455.75 231.586 456.086 231.25 456.5 231.25V232.75ZM504.03 159.47C504.323 159.763 504.323 160.237 504.03 160.53L499.257 165.303C498.964 165.596 498.49 165.596 498.197 165.303C497.904 165.01 497.904 164.536 498.197 164.243L502.439 160L498.197 155.757C497.904 155.464 497.904 154.99 498.197 154.697C498.49 154.404 498.964 154.404 499.257 154.697L504.03 159.47ZM484 159.25H503.5V160.75H484V159.25ZM456.5 231.25H476V232.75H456.5V231.25ZM479.25 228V164H480.75V228H479.25ZM476 231.25C477.795 231.25 479.25 229.795 479.25 228H480.75C480.75 230.623 478.623 232.75 476 232.75V231.25ZM484 160.75C482.205 160.75 480.75 162.205 480.75 164H479.25C479.25 161.377 481.377 159.25 484 159.25V160.75Z" fill="#8792A2"/>
<g style="mix-blend-mode:multiply">
<rect x="44" y="224" width="112" height="16" fill="#FCE0F6"/>
</g>
<g style="mix-blend-mode:multiply">
<rect x="284" y="224" width="112" height="16" fill="#FEE3C0"/>
</g>
<defs>
<clipPath id="clip0">
<path d="M0 0H736V288H0V0Z" fill="white"/>
</clipPath>
</defs>
</svg>
