<svg width="736" height="224" viewBox="0 0 736 224" fill="none" xmlns="http://www.w3.org/2000/svg">
<g clip-path="url(#clip0)">
<path d="M0 0H736V224H0V0Z" fill="white"/>
<path d="M0 0L736 -6.43432e-05" stroke="#E3E8EE" stroke-width="2" stroke-linecap="round" stroke-linejoin="round" stroke-dasharray="0.01 16"/>
<path d="M0 16L736 15.9999" stroke="#E3E8EE" stroke-width="2" stroke-linecap="round" stroke-linejoin="round" stroke-dasharray="0.01 16"/>
<path d="M0 32L736 31.9999" stroke="#E3E8EE" stroke-width="2" stroke-linecap="round" stroke-linejoin="round" stroke-dasharray="0.01 16"/>
<path d="M0 48L736 47.9999" stroke="#E3E8EE" stroke-width="2" stroke-linecap="round" stroke-linejoin="round" stroke-dasharray="0.01 16"/>
<path d="M0 64L736 63.9999" stroke="#E3E8EE" stroke-width="2" stroke-linecap="round" stroke-linejoin="round" stroke-dasharray="0.01 16"/>
<path d="M0 80L736 79.9999" stroke="#E3E8EE" stroke-width="2" stroke-linecap="round" stroke-linejoin="round" stroke-dasharray="0.01 16"/>
<path d="M0 96L736 95.9999" stroke="#E3E8EE" stroke-width="2" stroke-linecap="round" stroke-linejoin="round" stroke-dasharray="0.01 16"/>
<path d="M0 112L736 112" stroke="#E3E8EE" stroke-width="2" stroke-linecap="round" stroke-linejoin="round" stroke-dasharray="0.01 16"/>
<path d="M0 128L736 128" stroke="#E3E8EE" stroke-width="2" stroke-linecap="round" stroke-linejoin="round" stroke-dasharray="0.01 16"/>
<path d="M0 144L736 144" stroke="#E3E8EE" stroke-width="2" stroke-linecap="round" stroke-linejoin="round" stroke-dasharray="0.01 16"/>
<path d="M0 160L736 160" stroke="#E3E8EE" stroke-width="2" stroke-linecap="round" stroke-linejoin="round" stroke-dasharray="0.01 16"/>
<path d="M0 176L736 176" stroke="#E3E8EE" stroke-width="2" stroke-linecap="round" stroke-linejoin="round" stroke-dasharray="0.01 16"/>
<path d="M0 192L736 192" stroke="#E3E8EE" stroke-width="2" stroke-linecap="round" stroke-linejoin="round" stroke-dasharray="0.01 16"/>
<path d="M0 208L736 208" stroke="#E3E8EE" stroke-width="2" stroke-linecap="round" stroke-linejoin="round" stroke-dasharray="0.01 16"/>
<path d="M0 224L736 224" stroke="#E3E8EE" stroke-width="2" stroke-linecap="round" stroke-linejoin="round" stroke-dasharray="0.01 16"/>
<rect x="0.5" y="0.5" width="735" height="223" stroke="white"/>
</g>
<path d="M32 40C32 35.5817 35.5817 32 40 32H224C228.418 32 232 35.5817 232 40V88C232 92.4183 228.418 96 224 96H40C35.5817 96 32 92.4183 32 88V40Z" fill="white"/>
<rect x="27" y="27" width="210" height="74" rx="13" stroke="white" stroke-width="10"/>
<path d="M91.7344 60C93.5391 60 94.6582 59.0684 94.6582 57.5801C94.6582 56.4902 93.8438 55.6523 92.7246 55.5645V55.459C93.5918 55.3301 94.2539 54.5508 94.2539 53.6543C94.2539 52.3477 93.2754 51.5449 91.6348 51.5449H87.9375V60H91.7344ZM89.707 52.8574H91.1836C92.0273 52.8574 92.5137 53.2676 92.5137 53.959C92.5137 54.6621 91.9922 55.0605 91.0371 55.0605H89.707V52.8574ZM89.707 58.6816V56.2266H91.2422C92.2852 56.2266 92.8535 56.6484 92.8535 57.4395C92.8535 58.248 92.3027 58.6816 91.2832 58.6816H89.707ZM96.9551 52.5586C97.4824 52.5586 97.916 52.1367 97.916 51.6094C97.916 51.0762 97.4824 50.6543 96.9551 50.6543C96.4277 50.6543 95.9883 51.0762 95.9883 51.6094C95.9883 52.1367 96.4277 52.5586 96.9551 52.5586ZM96.0996 60H97.8047V53.5488H96.0996V60ZM99.5918 60H101.297V51.082H99.5918V60ZM103.131 60H104.836V51.082H103.131V60ZM107.479 52.5586C108.006 52.5586 108.439 52.1367 108.439 51.6094C108.439 51.0762 108.006 50.6543 107.479 50.6543C106.951 50.6543 106.512 51.0762 106.512 51.6094C106.512 52.1367 106.951 52.5586 107.479 52.5586ZM106.623 60H108.328V53.5488H106.623V60ZM110.057 60H111.762V56.2676C111.762 55.3945 112.248 54.832 113.039 54.832C113.848 54.832 114.229 55.3066 114.229 56.2148V60H115.934V55.8281C115.934 54.2871 115.16 53.4082 113.725 53.4082C112.77 53.4082 112.113 53.8594 111.814 54.5859H111.709V53.5488H110.057V60ZM120.439 62.4434C122.391 62.4434 123.627 61.4941 123.627 59.9883V53.5488H121.975V54.5801H121.869C121.523 53.877 120.779 53.4434 119.906 53.4434C118.266 53.4434 117.258 54.7207 117.258 56.7188C117.258 58.6523 118.26 59.9062 119.871 59.9062C120.779 59.9062 121.459 59.5371 121.816 58.8574H121.922V60.0586C121.922 60.8027 121.389 61.2363 120.475 61.2363C119.736 61.2363 119.256 60.9785 119.168 60.5684H117.48C117.586 61.6992 118.723 62.4434 120.439 62.4434ZM120.463 58.5996C119.537 58.5996 119.01 57.873 119.01 56.7129C119.01 55.5527 119.543 54.8262 120.463 54.8262C121.383 54.8262 121.939 55.5527 121.939 56.7129C121.939 57.873 121.389 58.5996 120.463 58.5996ZM128.285 55.4297C128.285 56.4199 128.895 57.0117 130.148 57.2871L131.32 57.5508C131.889 57.6797 132.135 57.8789 132.135 58.207C132.135 58.6348 131.678 58.9277 131.016 58.9277C130.336 58.9277 129.92 58.6641 129.791 58.2188H128.127C128.244 59.4375 129.275 60.1348 130.98 60.1348C132.674 60.1348 133.828 59.3027 133.828 58.0254C133.828 57.0645 133.266 56.5371 132.012 56.2617L130.799 55.998C130.201 55.8633 129.926 55.6582 129.926 55.3301C129.926 54.9082 130.377 54.6211 130.986 54.6211C131.619 54.6211 132.012 54.8848 132.1 55.3125H133.676C133.582 54.0938 132.615 53.4082 130.975 53.4082C129.363 53.4082 128.285 54.2227 128.285 55.4297ZM139.406 58.1777C139.225 58.6172 138.762 58.8633 138.088 58.8633C137.197 58.8633 136.635 58.248 136.611 57.2637V57.1758H141.047V56.666C141.047 54.627 139.922 53.4082 138.018 53.4082C136.096 53.4082 134.912 54.709 134.912 56.8066C134.912 58.8926 136.072 60.1348 138.041 60.1348C139.623 60.1348 140.742 59.3789 140.994 58.1777H139.406ZM138.023 54.6797C138.82 54.6797 139.336 55.2305 139.371 56.1152H136.617C136.676 55.248 137.232 54.6797 138.023 54.6797ZM142.934 52.0078V53.6074H141.926V54.9023H142.934V58.2598C142.934 59.5137 143.555 60.0234 145.125 60.0234C145.453 60.0234 145.77 59.9883 145.98 59.9473V58.6875C145.816 58.7051 145.699 58.7168 145.477 58.7168C144.896 58.7168 144.639 58.4473 144.639 57.8672V54.9023H145.98V53.6074H144.639V52.0078H142.934ZM147.949 52.0078V53.6074H146.941V54.9023H147.949V58.2598C147.949 59.5137 148.57 60.0234 150.141 60.0234C150.469 60.0234 150.785 59.9883 150.996 59.9473V58.6875C150.832 58.7051 150.715 58.7168 150.492 58.7168C149.912 58.7168 149.654 58.4473 149.654 57.8672V54.9023H150.996V53.6074H149.654V52.0078H147.949ZM153.287 52.5586C153.814 52.5586 154.248 52.1367 154.248 51.6094C154.248 51.0762 153.814 50.6543 153.287 50.6543C152.76 50.6543 152.32 51.0762 152.32 51.6094C152.32 52.1367 152.76 52.5586 153.287 52.5586ZM152.432 60H154.137V53.5488H152.432V60ZM155.865 60H157.57V56.2676C157.57 55.3945 158.057 54.832 158.848 54.832C159.656 54.832 160.037 55.3066 160.037 56.2148V60H161.742V55.8281C161.742 54.2871 160.969 53.4082 159.533 53.4082C158.578 53.4082 157.922 53.8594 157.623 54.5859H157.518V53.5488H155.865V60ZM166.248 62.4434C168.199 62.4434 169.436 61.4941 169.436 59.9883V53.5488H167.783V54.5801H167.678C167.332 53.877 166.588 53.4434 165.715 53.4434C164.074 53.4434 163.066 54.7207 163.066 56.7188C163.066 58.6523 164.068 59.9062 165.68 59.9062C166.588 59.9062 167.268 59.5371 167.625 58.8574H167.73V60.0586C167.73 60.8027 167.197 61.2363 166.283 61.2363C165.545 61.2363 165.064 60.9785 164.977 60.5684H163.289C163.395 61.6992 164.531 62.4434 166.248 62.4434ZM166.271 58.5996C165.346 58.5996 164.818 57.873 164.818 56.7129C164.818 55.5527 165.352 54.8262 166.271 54.8262C167.191 54.8262 167.748 55.5527 167.748 56.7129C167.748 57.873 167.197 58.5996 166.271 58.5996ZM171 55.4297C171 56.4199 171.609 57.0117 172.863 57.2871L174.035 57.5508C174.604 57.6797 174.85 57.8789 174.85 58.207C174.85 58.6348 174.393 58.9277 173.73 58.9277C173.051 58.9277 172.635 58.6641 172.506 58.2188H170.842C170.959 59.4375 171.99 60.1348 173.695 60.1348C175.389 60.1348 176.543 59.3027 176.543 58.0254C176.543 57.0645 175.98 56.5371 174.727 56.2617L173.514 55.998C172.916 55.8633 172.641 55.6582 172.641 55.3301C172.641 54.9082 173.092 54.6211 173.701 54.6211C174.334 54.6211 174.727 54.8848 174.814 55.3125H176.391C176.297 54.0938 175.33 53.4082 173.689 53.4082C172.078 53.4082 171 54.2227 171 55.4297ZM94.0312 67.5449V76H96.9316C99.4453 76 100.922 74.4355 100.922 71.7695C100.922 69.1094 99.4395 67.5449 96.9316 67.5449H94.0312ZM95.0859 68.4941H96.8613C98.7363 68.4941 99.8438 69.7129 99.8438 71.7812C99.8438 73.8438 98.748 75.0508 96.8613 75.0508H95.0859V68.4941ZM106.805 74.3652C106.541 74.9219 105.99 75.2207 105.176 75.2207C104.104 75.2207 103.406 74.4297 103.354 73.1816V73.1348H107.895V72.748C107.895 70.7852 106.857 69.5723 105.152 69.5723C103.418 69.5723 102.305 70.8613 102.305 72.8477C102.305 74.8457 103.4 76.1113 105.152 76.1113C106.535 76.1113 107.52 75.4434 107.812 74.3652H106.805ZM105.141 70.4629C106.143 70.4629 106.811 71.2012 106.834 72.3203H103.354C103.43 71.2012 104.133 70.4629 105.141 70.4629ZM109.898 76H110.906V70.5273H112.354V69.6836H110.906V69.0098C110.906 68.3184 111.211 67.9668 111.938 67.9668C112.119 67.9668 112.289 67.9727 112.412 67.9961V67.1758C112.201 67.1348 111.979 67.1172 111.732 67.1172C110.531 67.1172 109.898 67.7207 109.898 68.9805V69.6836H108.85V70.5273H109.898V76ZM115.406 76.1113C116.25 76.1113 116.941 75.7422 117.352 75.0684H117.445V76H118.406V71.6758C118.406 70.3633 117.545 69.5723 116.004 69.5723C114.656 69.5723 113.66 70.2402 113.525 71.2539H114.545C114.686 70.7559 115.213 70.4688 115.969 70.4688C116.912 70.4688 117.398 70.8965 117.398 71.6758V72.25L115.576 72.3613C114.105 72.4492 113.273 73.0996 113.273 74.2305C113.273 75.3848 114.182 76.1113 115.406 76.1113ZM115.594 75.2266C114.861 75.2266 114.316 74.8516 114.316 74.207C114.316 73.5742 114.738 73.2402 115.699 73.1758L117.398 73.0645V73.6445C117.398 74.5469 116.631 75.2266 115.594 75.2266ZM125.379 69.6836H124.371V73.4219C124.371 74.5293 123.762 75.1914 122.648 75.1914C121.641 75.1914 121.219 74.6641 121.219 73.5273V69.6836H120.211V73.7734C120.211 75.2676 120.949 76.1113 122.367 76.1113C123.334 76.1113 124.008 75.7129 124.324 75.0098H124.418V76H125.379V69.6836ZM127.336 76H128.344V67.1758H127.336V76ZM130.723 68.0488V69.6836H129.703V70.5273H130.723V74.3594C130.723 75.5664 131.244 76.0469 132.545 76.0469C132.744 76.0469 132.938 76.0234 133.137 75.9883V75.1387C132.949 75.1562 132.85 75.1621 132.668 75.1621C132.012 75.1621 131.73 74.8457 131.73 74.1016V70.5273H133.137V69.6836H131.73V68.0488H130.723ZM138.469 76H139.477V70.5273H140.924V69.6836H139.477V69.0098C139.477 68.3184 139.781 67.9668 140.508 67.9668C140.689 67.9668 140.859 67.9727 140.982 67.9961V67.1758C140.771 67.1348 140.549 67.1172 140.303 67.1172C139.102 67.1172 138.469 67.7207 138.469 68.9805V69.6836H137.42V70.5273H138.469V76ZM144.721 76.1113C146.52 76.1113 147.633 74.8691 147.633 72.8418C147.633 70.8086 146.52 69.5723 144.721 69.5723C142.922 69.5723 141.809 70.8086 141.809 72.8418C141.809 74.8691 142.922 76.1113 144.721 76.1113ZM144.721 75.2031C143.525 75.2031 142.852 74.3359 142.852 72.8418C142.852 71.3418 143.525 70.4805 144.721 70.4805C145.916 70.4805 146.59 71.3418 146.59 72.8418C146.59 74.3359 145.916 75.2031 144.721 75.2031ZM151.811 76.1113C153.609 76.1113 154.723 74.8691 154.723 72.8418C154.723 70.8086 153.609 69.5723 151.811 69.5723C150.012 69.5723 148.898 70.8086 148.898 72.8418C148.898 74.8691 150.012 76.1113 151.811 76.1113ZM151.811 75.2031C150.615 75.2031 149.941 74.3359 149.941 72.8418C149.941 71.3418 150.615 70.4805 151.811 70.4805C153.006 70.4805 153.68 71.3418 153.68 72.8418C153.68 74.3359 153.006 75.2031 151.811 75.2031ZM156.727 68.0488V69.6836H155.707V70.5273H156.727V74.3594C156.727 75.5664 157.248 76.0469 158.549 76.0469C158.748 76.0469 158.941 76.0234 159.141 75.9883V75.1387C158.953 75.1562 158.854 75.1621 158.672 75.1621C158.016 75.1621 157.734 74.8457 157.734 74.1016V70.5273H159.141V69.6836H157.734V68.0488H156.727ZM164.754 74.3652C164.49 74.9219 163.939 75.2207 163.125 75.2207C162.053 75.2207 161.355 74.4297 161.303 73.1816V73.1348H165.844V72.748C165.844 70.7852 164.807 69.5723 163.102 69.5723C161.367 69.5723 160.254 70.8613 160.254 72.8477C160.254 74.8457 161.35 76.1113 163.102 76.1113C164.484 76.1113 165.469 75.4434 165.762 74.3652H164.754ZM163.09 70.4629C164.092 70.4629 164.76 71.2012 164.783 72.3203H161.303C161.379 71.2012 162.082 70.4629 163.09 70.4629ZM167.426 76H168.434V72.0859C168.434 71.1953 169.131 70.5508 170.092 70.5508C170.291 70.5508 170.654 70.5859 170.736 70.6094V69.6016C170.607 69.584 170.396 69.5723 170.232 69.5723C169.395 69.5723 168.668 70.0059 168.48 70.6211H168.387V69.6836H167.426V76Z" fill="#3C4257"/>
<rect x="32.5" y="32.5" width="199" height="63" rx="7.5" stroke="#E3E8EE"/>
<path d="M264 40C264 35.5817 267.582 32 272 32H464C468.418 32 472 35.5817 472 40V88C472 92.4183 468.418 96 464 96H272C267.582 96 264 92.4183 264 88V40Z" fill="white"/>
<rect x="259" y="27" width="218" height="74" rx="13" stroke="white" stroke-width="10"/>
<path d="M343.045 60.2168C345.084 60.2168 346.572 58.9805 346.719 57.1758H344.996C344.826 58.1074 344.064 58.7051 343.051 58.7051C341.715 58.7051 340.889 57.5801 340.889 55.7695C340.889 53.959 341.715 52.834 343.045 52.834C344.053 52.834 344.82 53.4785 344.99 54.457H346.713C346.584 52.6406 345.049 51.3281 343.045 51.3281C340.59 51.3281 339.078 53.0215 339.078 55.7695C339.078 58.5176 340.596 60.2168 343.045 60.2168ZM354.025 53.5488H352.32V57.2754C352.32 58.1602 351.863 58.7051 351.014 58.7051C350.229 58.7051 349.824 58.2422 349.824 57.3281V53.5488H348.119V57.75C348.119 59.25 348.986 60.1348 350.381 60.1348C351.359 60.1348 351.963 59.7129 352.268 58.9629H352.373V60H354.025V53.5488ZM355.59 55.4297C355.59 56.4199 356.199 57.0117 357.453 57.2871L358.625 57.5508C359.193 57.6797 359.439 57.8789 359.439 58.207C359.439 58.6348 358.982 58.9277 358.32 58.9277C357.641 58.9277 357.225 58.6641 357.096 58.2188H355.432C355.549 59.4375 356.58 60.1348 358.285 60.1348C359.979 60.1348 361.133 59.3027 361.133 58.0254C361.133 57.0645 360.57 56.5371 359.316 56.2617L358.104 55.998C357.506 55.8633 357.23 55.6582 357.23 55.3301C357.23 54.9082 357.682 54.6211 358.291 54.6211C358.924 54.6211 359.316 54.8848 359.404 55.3125H360.98C360.887 54.0938 359.92 53.4082 358.279 53.4082C356.668 53.4082 355.59 54.2227 355.59 55.4297ZM362.984 52.0078V53.6074H361.977V54.9023H362.984V58.2598C362.984 59.5137 363.605 60.0234 365.176 60.0234C365.504 60.0234 365.82 59.9883 366.031 59.9473V58.6875C365.867 58.7051 365.75 58.7168 365.527 58.7168C364.947 58.7168 364.689 58.4473 364.689 57.8672V54.9023H366.031V53.6074H364.689V52.0078H362.984ZM370.273 60.1348C372.26 60.1348 373.455 58.8809 373.455 56.7715C373.455 54.6797 372.242 53.4082 370.273 53.4082C368.305 53.4082 367.092 54.6855 367.092 56.7715C367.092 58.875 368.287 60.1348 370.273 60.1348ZM370.273 58.7871C369.359 58.7871 368.844 58.0488 368.844 56.7715C368.844 55.5059 369.365 54.7617 370.273 54.7617C371.176 54.7617 371.703 55.5059 371.703 56.7715C371.703 58.0488 371.182 58.7871 370.273 58.7871ZM374.85 60H376.555V56.1094C376.555 55.3711 377.029 54.832 377.697 54.832C378.365 54.832 378.764 55.2305 378.764 55.9219V60H380.404V56.0332C380.404 55.3359 380.85 54.832 381.541 54.832C382.262 54.832 382.619 55.2188 382.619 55.998V60H384.324V55.5703C384.324 54.2402 383.521 53.4082 382.232 53.4082C381.33 53.4082 380.586 53.8828 380.287 54.5977H380.182C379.924 53.8594 379.303 53.4082 378.395 53.4082C377.545 53.4082 376.871 53.8594 376.607 54.5977H376.502V53.5488H374.85V60ZM390.16 58.1777C389.979 58.6172 389.516 58.8633 388.842 58.8633C387.951 58.8633 387.389 58.248 387.365 57.2637V57.1758H391.801V56.666C391.801 54.627 390.676 53.4082 388.771 53.4082C386.85 53.4082 385.666 54.709 385.666 56.8066C385.666 58.8926 386.826 60.1348 388.795 60.1348C390.377 60.1348 391.496 59.3789 391.748 58.1777H390.16ZM388.777 54.6797C389.574 54.6797 390.09 55.2305 390.125 56.1152H387.371C387.43 55.248 387.986 54.6797 388.777 54.6797ZM393.201 60H394.906V56.3906C394.906 55.4824 395.545 54.9258 396.477 54.9258C396.752 54.9258 397.15 54.9727 397.285 55.0195V53.5195C397.139 53.4727 396.852 53.4434 396.617 53.4434C395.797 53.4434 395.129 53.9297 394.959 54.5742H394.854V53.5488H393.201V60ZM326.861 76V72.3379H330.605V71.4004H326.861V68.4941H330.939V67.5449H325.807V76H326.861ZM335.141 76.1113C336.939 76.1113 338.053 74.8691 338.053 72.8418C338.053 70.8086 336.939 69.5723 335.141 69.5723C333.342 69.5723 332.229 70.8086 332.229 72.8418C332.229 74.8691 333.342 76.1113 335.141 76.1113ZM335.141 75.2031C333.945 75.2031 333.271 74.3359 333.271 72.8418C333.271 71.3418 333.945 70.4805 335.141 70.4805C336.336 70.4805 337.01 71.3418 337.01 72.8418C337.01 74.3359 336.336 75.2031 335.141 75.2031ZM342.23 76.1113C344.029 76.1113 345.143 74.8691 345.143 72.8418C345.143 70.8086 344.029 69.5723 342.23 69.5723C340.432 69.5723 339.318 70.8086 339.318 72.8418C339.318 74.8691 340.432 76.1113 342.23 76.1113ZM342.23 75.2031C341.035 75.2031 340.361 74.3359 340.361 72.8418C340.361 71.3418 341.035 70.4805 342.23 70.4805C343.426 70.4805 344.1 71.3418 344.1 72.8418C344.1 74.3359 343.426 75.2031 342.23 75.2031ZM347.146 68.0488V69.6836H346.127V70.5273H347.146V74.3594C347.146 75.5664 347.668 76.0469 348.969 76.0469C349.168 76.0469 349.361 76.0234 349.561 75.9883V75.1387C349.373 75.1562 349.273 75.1621 349.092 75.1621C348.436 75.1621 348.154 74.8457 348.154 74.1016V70.5273H349.561V69.6836H348.154V68.0488H347.146ZM355.174 74.3652C354.91 74.9219 354.359 75.2207 353.545 75.2207C352.473 75.2207 351.775 74.4297 351.723 73.1816V73.1348H356.264V72.748C356.264 70.7852 355.227 69.5723 353.521 69.5723C351.787 69.5723 350.674 70.8613 350.674 72.8477C350.674 74.8457 351.77 76.1113 353.521 76.1113C354.904 76.1113 355.889 75.4434 356.182 74.3652H355.174ZM353.51 70.4629C354.512 70.4629 355.18 71.2012 355.203 72.3203H351.723C351.799 71.2012 352.502 70.4629 353.51 70.4629ZM357.846 76H358.854V72.0859C358.854 71.1953 359.551 70.5508 360.512 70.5508C360.711 70.5508 361.074 70.5859 361.156 70.6094V69.6016C361.027 69.584 360.816 69.5723 360.652 69.5723C359.814 69.5723 359.088 70.0059 358.9 70.6211H358.807V69.6836H357.846V76ZM368.398 76.1113C370.197 76.1113 371.311 74.8691 371.311 72.8418C371.311 70.8086 370.197 69.5723 368.398 69.5723C366.6 69.5723 365.486 70.8086 365.486 72.8418C365.486 74.8691 366.6 76.1113 368.398 76.1113ZM368.398 75.2031C367.203 75.2031 366.529 74.3359 366.529 72.8418C366.529 71.3418 367.203 70.4805 368.398 70.4805C369.594 70.4805 370.268 71.3418 370.268 72.8418C370.268 74.3359 369.594 75.2031 368.398 75.2031ZM377.814 69.6836H376.736L375.008 74.8867H374.914L373.186 69.6836H372.107L374.445 76H375.477L377.814 69.6836ZM383.111 74.3652C382.848 74.9219 382.297 75.2207 381.482 75.2207C380.41 75.2207 379.713 74.4297 379.66 73.1816V73.1348H384.201V72.748C384.201 70.7852 383.164 69.5723 381.459 69.5723C379.725 69.5723 378.611 70.8613 378.611 72.8477C378.611 74.8457 379.707 76.1113 381.459 76.1113C382.842 76.1113 383.826 75.4434 384.119 74.3652H383.111ZM381.447 70.4629C382.449 70.4629 383.117 71.2012 383.141 72.3203H379.66C379.736 71.2012 380.439 70.4629 381.447 70.4629ZM385.783 76H386.791V72.0859C386.791 71.1953 387.488 70.5508 388.449 70.5508C388.648 70.5508 389.012 70.5859 389.094 70.6094V69.6016C388.965 69.584 388.754 69.5723 388.59 69.5723C387.752 69.5723 387.025 70.0059 386.838 70.6211H386.744V69.6836H385.783V76ZM390.471 76H391.479V72.0859C391.479 71.1953 392.176 70.5508 393.137 70.5508C393.336 70.5508 393.699 70.5859 393.781 70.6094V69.6016C393.652 69.584 393.441 69.5723 393.277 69.5723C392.439 69.5723 391.713 70.0059 391.525 70.6211H391.432V69.6836H390.471V76ZM395.568 68.4648C395.955 68.4648 396.271 68.1484 396.271 67.7617C396.271 67.375 395.955 67.0586 395.568 67.0586C395.182 67.0586 394.865 67.375 394.865 67.7617C394.865 68.1484 395.182 68.4648 395.568 68.4648ZM395.064 76H396.072V69.6836H395.064V76ZM400.332 76.1113C401.205 76.1113 401.955 75.6953 402.354 74.9922H402.447V76H403.408V67.1758H402.4V70.6797H402.312C401.955 69.9883 401.211 69.5723 400.332 69.5723C398.727 69.5723 397.678 70.8613 397.678 72.8418C397.678 74.8281 398.715 76.1113 400.332 76.1113ZM400.566 70.4805C401.709 70.4805 402.424 71.3945 402.424 72.8418C402.424 74.3008 401.715 75.2031 400.566 75.2031C399.412 75.2031 398.721 74.3184 398.721 72.8418C398.721 71.3711 399.418 70.4805 400.566 70.4805ZM409.549 74.3652C409.285 74.9219 408.734 75.2207 407.92 75.2207C406.848 75.2207 406.15 74.4297 406.098 73.1816V73.1348H410.639V72.748C410.639 70.7852 409.602 69.5723 407.896 69.5723C406.162 69.5723 405.049 70.8613 405.049 72.8477C405.049 74.8457 406.145 76.1113 407.896 76.1113C409.279 76.1113 410.264 75.4434 410.557 74.3652H409.549ZM407.885 70.4629C408.887 70.4629 409.555 71.2012 409.578 72.3203H406.098C406.174 71.2012 406.877 70.4629 407.885 70.4629Z" fill="#3C4257"/>
<rect x="264.5" y="32.5" width="207" height="63" rx="7.5" stroke="#E3E8EE"/>
<path d="M504 40C504 35.5817 507.582 32 512 32H696C700.418 32 704 35.5817 704 40V88C704 92.4183 700.418 96 696 96H512C507.582 96 504 92.4183 504 88V40Z" fill="white"/>
<rect x="499" y="27" width="210" height="74" rx="13" stroke="white" stroke-width="10"/>
<path d="M566.072 57.6621C566.137 59.2266 567.443 60.2168 569.459 60.2168C571.58 60.2168 572.887 59.1738 572.887 57.4863C572.887 56.1797 572.154 55.4473 570.455 55.084L569.436 54.8672C568.445 54.6504 568.041 54.3398 568.041 53.8066C568.041 53.1445 568.627 52.7168 569.512 52.7168C570.367 52.7168 570.988 53.168 571.07 53.8594H572.734C572.682 52.3652 571.363 51.3281 569.5 51.3281C567.549 51.3281 566.266 52.3711 566.266 53.9473C566.266 55.2305 567.021 56.0215 568.562 56.3496L569.664 56.5898C570.701 56.8184 571.123 57.1406 571.123 57.6973C571.123 58.3535 570.473 58.8164 569.553 58.8164C568.557 58.8164 567.865 58.3652 567.783 57.6621H566.072ZM580.24 53.5488H578.535V57.2754C578.535 58.1602 578.078 58.7051 577.229 58.7051C576.443 58.7051 576.039 58.2422 576.039 57.3281V53.5488H574.334V57.75C574.334 59.25 575.201 60.1348 576.596 60.1348C577.574 60.1348 578.178 59.7129 578.482 58.9629H578.588V60H580.24V53.5488ZM585.76 60.0996C587.383 60.0996 588.379 58.8398 588.379 56.7715C588.379 54.6914 587.395 53.4434 585.76 53.4434C584.875 53.4434 584.148 53.8711 583.82 54.5801H583.715V51.082H582.01V60H583.662V58.9863H583.768C584.113 59.6895 584.846 60.0996 585.76 60.0996ZM585.168 54.8262C586.07 54.8262 586.627 55.5703 586.627 56.7715C586.627 57.9844 586.076 58.7227 585.168 58.7227C584.266 58.7227 583.703 57.9785 583.697 56.7773C583.703 55.5762 584.271 54.8262 585.168 54.8262ZM589.621 55.4297C589.621 56.4199 590.23 57.0117 591.484 57.2871L592.656 57.5508C593.225 57.6797 593.471 57.8789 593.471 58.207C593.471 58.6348 593.014 58.9277 592.352 58.9277C591.672 58.9277 591.256 58.6641 591.127 58.2188H589.463C589.58 59.4375 590.611 60.1348 592.316 60.1348C594.01 60.1348 595.164 59.3027 595.164 58.0254C595.164 57.0645 594.602 56.5371 593.348 56.2617L592.135 55.998C591.537 55.8633 591.262 55.6582 591.262 55.3301C591.262 54.9082 591.713 54.6211 592.322 54.6211C592.955 54.6211 593.348 54.8848 593.436 55.3125H595.012C594.918 54.0938 593.951 53.4082 592.311 53.4082C590.699 53.4082 589.621 54.2227 589.621 55.4297ZM602.283 55.7988C602.143 54.3574 601.117 53.4082 599.406 53.4082C597.385 53.4082 596.248 54.6328 596.248 56.7598C596.248 58.9102 597.391 60.1348 599.406 60.1348C601.088 60.1348 602.143 59.209 602.283 57.791H600.689C600.561 58.4355 600.104 58.7812 599.406 58.7812C598.492 58.7812 597.971 58.0605 597.971 56.7598C597.971 55.4766 598.486 54.7676 599.406 54.7676C600.133 54.7676 600.572 55.1777 600.689 55.7988H602.283ZM603.619 60H605.324V56.3906C605.324 55.4824 605.963 54.9258 606.895 54.9258C607.17 54.9258 607.568 54.9727 607.703 55.0195V53.5195C607.557 53.4727 607.27 53.4434 607.035 53.4434C606.215 53.4434 605.547 53.9297 605.377 54.5742H605.271V53.5488H603.619V60ZM609.713 52.5586C610.24 52.5586 610.674 52.1367 610.674 51.6094C610.674 51.0762 610.24 50.6543 609.713 50.6543C609.186 50.6543 608.746 51.0762 608.746 51.6094C608.746 52.1367 609.186 52.5586 609.713 52.5586ZM608.857 60H610.562V53.5488H608.857V60ZM616.023 53.4434C615.133 53.4434 614.4 53.8828 614.049 54.6094H613.943V53.5488H612.291V62.1387H613.996V59.0156H614.102C614.418 59.6953 615.127 60.0996 616.053 60.0996C617.67 60.0996 618.66 58.8457 618.66 56.7715C618.66 54.6914 617.658 53.4434 616.023 53.4434ZM615.443 58.7227C614.541 58.7227 613.979 57.9844 613.979 56.7773C613.979 55.5703 614.541 54.8262 615.449 54.8262C616.357 54.8262 616.908 55.5586 616.908 56.7715C616.908 57.9902 616.363 58.7227 615.443 58.7227ZM620.535 52.0078V53.6074H619.527V54.9023H620.535V58.2598C620.535 59.5137 621.156 60.0234 622.727 60.0234C623.055 60.0234 623.371 59.9883 623.582 59.9473V58.6875C623.418 58.7051 623.301 58.7168 623.078 58.7168C622.498 58.7168 622.24 58.4473 622.24 57.8672V54.9023H623.582V53.6074H622.24V52.0078H620.535ZM625.873 52.5586C626.4 52.5586 626.834 52.1367 626.834 51.6094C626.834 51.0762 626.4 50.6543 625.873 50.6543C625.346 50.6543 624.906 51.0762 624.906 51.6094C624.906 52.1367 625.346 52.5586 625.873 52.5586ZM625.018 60H626.723V53.5488H625.018V60ZM631.316 60.1348C633.303 60.1348 634.498 58.8809 634.498 56.7715C634.498 54.6797 633.285 53.4082 631.316 53.4082C629.348 53.4082 628.135 54.6855 628.135 56.7715C628.135 58.875 629.33 60.1348 631.316 60.1348ZM631.316 58.7871C630.402 58.7871 629.887 58.0488 629.887 56.7715C629.887 55.5059 630.408 54.7617 631.316 54.7617C632.219 54.7617 632.746 55.5059 632.746 56.7715C632.746 58.0488 632.225 58.7871 631.316 58.7871ZM635.893 60H637.598V56.2676C637.598 55.3945 638.084 54.832 638.875 54.832C639.684 54.832 640.064 55.3066 640.064 56.2148V60H641.77V55.8281C641.77 54.2871 640.996 53.4082 639.561 53.4082C638.605 53.4082 637.949 53.8594 637.65 54.5859H637.545V53.5488H635.893V60ZM562.861 76V72.3379H566.605V71.4004H562.861V68.4941H566.939V67.5449H561.807V76H562.861ZM571.141 76.1113C572.939 76.1113 574.053 74.8691 574.053 72.8418C574.053 70.8086 572.939 69.5723 571.141 69.5723C569.342 69.5723 568.229 70.8086 568.229 72.8418C568.229 74.8691 569.342 76.1113 571.141 76.1113ZM571.141 75.2031C569.945 75.2031 569.271 74.3359 569.271 72.8418C569.271 71.3418 569.945 70.4805 571.141 70.4805C572.336 70.4805 573.01 71.3418 573.01 72.8418C573.01 74.3359 572.336 75.2031 571.141 75.2031ZM578.23 76.1113C580.029 76.1113 581.143 74.8691 581.143 72.8418C581.143 70.8086 580.029 69.5723 578.23 69.5723C576.432 69.5723 575.318 70.8086 575.318 72.8418C575.318 74.8691 576.432 76.1113 578.23 76.1113ZM578.23 75.2031C577.035 75.2031 576.361 74.3359 576.361 72.8418C576.361 71.3418 577.035 70.4805 578.23 70.4805C579.426 70.4805 580.1 71.3418 580.1 72.8418C580.1 74.3359 579.426 75.2031 578.23 75.2031ZM583.146 68.0488V69.6836H582.127V70.5273H583.146V74.3594C583.146 75.5664 583.668 76.0469 584.969 76.0469C585.168 76.0469 585.361 76.0234 585.561 75.9883V75.1387C585.373 75.1562 585.273 75.1621 585.092 75.1621C584.436 75.1621 584.154 74.8457 584.154 74.1016V70.5273H585.561V69.6836H584.154V68.0488H583.146ZM591.174 74.3652C590.91 74.9219 590.359 75.2207 589.545 75.2207C588.473 75.2207 587.775 74.4297 587.723 73.1816V73.1348H592.264V72.748C592.264 70.7852 591.227 69.5723 589.521 69.5723C587.787 69.5723 586.674 70.8613 586.674 72.8477C586.674 74.8457 587.77 76.1113 589.521 76.1113C590.904 76.1113 591.889 75.4434 592.182 74.3652H591.174ZM589.51 70.4629C590.512 70.4629 591.18 71.2012 591.203 72.3203H587.723C587.799 71.2012 588.502 70.4629 589.51 70.4629ZM593.846 76H594.854V72.0859C594.854 71.1953 595.551 70.5508 596.512 70.5508C596.711 70.5508 597.074 70.5859 597.156 70.6094V69.6016C597.027 69.584 596.816 69.5723 596.652 69.5723C595.814 69.5723 595.088 70.0059 594.9 70.6211H594.807V69.6836H593.846V76ZM604.398 76.1113C606.197 76.1113 607.311 74.8691 607.311 72.8418C607.311 70.8086 606.197 69.5723 604.398 69.5723C602.6 69.5723 601.486 70.8086 601.486 72.8418C601.486 74.8691 602.6 76.1113 604.398 76.1113ZM604.398 75.2031C603.203 75.2031 602.529 74.3359 602.529 72.8418C602.529 71.3418 603.203 70.4805 604.398 70.4805C605.594 70.4805 606.268 71.3418 606.268 72.8418C606.268 74.3359 605.594 75.2031 604.398 75.2031ZM613.814 69.6836H612.736L611.008 74.8867H610.914L609.186 69.6836H608.107L610.445 76H611.477L613.814 69.6836ZM619.111 74.3652C618.848 74.9219 618.297 75.2207 617.482 75.2207C616.41 75.2207 615.713 74.4297 615.66 73.1816V73.1348H620.201V72.748C620.201 70.7852 619.164 69.5723 617.459 69.5723C615.725 69.5723 614.611 70.8613 614.611 72.8477C614.611 74.8457 615.707 76.1113 617.459 76.1113C618.842 76.1113 619.826 75.4434 620.119 74.3652H619.111ZM617.447 70.4629C618.449 70.4629 619.117 71.2012 619.141 72.3203H615.66C615.736 71.2012 616.439 70.4629 617.447 70.4629ZM621.783 76H622.791V72.0859C622.791 71.1953 623.488 70.5508 624.449 70.5508C624.648 70.5508 625.012 70.5859 625.094 70.6094V69.6016C624.965 69.584 624.754 69.5723 624.59 69.5723C623.752 69.5723 623.025 70.0059 622.838 70.6211H622.744V69.6836H621.783V76ZM626.471 76H627.479V72.0859C627.479 71.1953 628.176 70.5508 629.137 70.5508C629.336 70.5508 629.699 70.5859 629.781 70.6094V69.6016C629.652 69.584 629.441 69.5723 629.277 69.5723C628.439 69.5723 627.713 70.0059 627.525 70.6211H627.432V69.6836H626.471V76ZM631.568 68.4648C631.955 68.4648 632.271 68.1484 632.271 67.7617C632.271 67.375 631.955 67.0586 631.568 67.0586C631.182 67.0586 630.865 67.375 630.865 67.7617C630.865 68.1484 631.182 68.4648 631.568 68.4648ZM631.064 76H632.072V69.6836H631.064V76ZM636.332 76.1113C637.205 76.1113 637.955 75.6953 638.354 74.9922H638.447V76H639.408V67.1758H638.4V70.6797H638.312C637.955 69.9883 637.211 69.5723 636.332 69.5723C634.727 69.5723 633.678 70.8613 633.678 72.8418C633.678 74.8281 634.715 76.1113 636.332 76.1113ZM636.566 70.4805C637.709 70.4805 638.424 71.3945 638.424 72.8418C638.424 74.3008 637.715 75.2031 636.566 75.2031C635.412 75.2031 634.721 74.3184 634.721 72.8418C634.721 71.3711 635.418 70.4805 636.566 70.4805ZM645.549 74.3652C645.285 74.9219 644.734 75.2207 643.92 75.2207C642.848 75.2207 642.15 74.4297 642.098 73.1816V73.1348H646.639V72.748C646.639 70.7852 645.602 69.5723 643.896 69.5723C642.162 69.5723 641.049 70.8613 641.049 72.8477C641.049 74.8457 642.145 76.1113 643.896 76.1113C645.279 76.1113 646.264 75.4434 646.557 74.3652H645.549ZM643.885 70.4629C644.887 70.4629 645.555 71.2012 645.578 72.3203H642.098C642.174 71.2012 642.877 70.4629 643.885 70.4629Z" fill="#3C4257"/>
<rect x="504.5" y="32.5" width="199" height="63" rx="7.5" stroke="#E3E8EE"/>
<path d="M504 136C504 131.582 507.582 128 512 128H696C700.418 128 704 131.582 704 136V184C704 188.418 700.418 192 696 192H512C507.582 192 504 188.418 504 184V136Z" fill="white"/>
<rect x="499" y="123" width="210" height="74" rx="13" stroke="white" stroke-width="10"/>
<path d="M585.262 156V147.545H583.492V156H585.262ZM587.143 156H588.848V152.268C588.848 151.395 589.334 150.832 590.125 150.832C590.934 150.832 591.314 151.307 591.314 152.215V156H593.02V151.828C593.02 150.287 592.246 149.408 590.811 149.408C589.855 149.408 589.199 149.859 588.9 150.586H588.795V149.549H587.143V156ZM600.344 149.549H598.545L597.221 154.4H597.115L595.779 149.549H593.945L596.189 156H598.111L600.344 149.549ZM604.094 156.135C606.08 156.135 607.275 154.881 607.275 152.771C607.275 150.68 606.062 149.408 604.094 149.408C602.125 149.408 600.912 150.686 600.912 152.771C600.912 154.875 602.107 156.135 604.094 156.135ZM604.094 154.787C603.18 154.787 602.664 154.049 602.664 152.771C602.664 151.506 603.186 150.762 604.094 150.762C604.996 150.762 605.523 151.506 605.523 152.771C605.523 154.049 605.002 154.787 604.094 154.787ZM609.537 148.559C610.064 148.559 610.498 148.137 610.498 147.609C610.498 147.076 610.064 146.654 609.537 146.654C609.01 146.654 608.57 147.076 608.57 147.609C608.57 148.137 609.01 148.559 609.537 148.559ZM608.682 156H610.387V149.549H608.682V156ZM617.834 151.799C617.693 150.357 616.668 149.408 614.957 149.408C612.936 149.408 611.799 150.633 611.799 152.76C611.799 154.91 612.941 156.135 614.957 156.135C616.639 156.135 617.693 155.209 617.834 153.791H616.24C616.111 154.436 615.654 154.781 614.957 154.781C614.043 154.781 613.521 154.061 613.521 152.76C613.521 151.477 614.037 150.768 614.957 150.768C615.684 150.768 616.123 151.178 616.24 151.799H617.834ZM623.348 154.178C623.166 154.617 622.703 154.863 622.029 154.863C621.139 154.863 620.576 154.248 620.553 153.264V153.176H624.988V152.666C624.988 150.627 623.863 149.408 621.959 149.408C620.037 149.408 618.854 150.709 618.854 152.807C618.854 154.893 620.014 156.135 621.982 156.135C623.564 156.135 624.684 155.379 624.936 154.178H623.348ZM621.965 150.68C622.762 150.68 623.277 151.23 623.312 152.115H620.559C620.617 151.248 621.174 150.68 621.965 150.68ZM562.861 172V168.338H566.605V167.4H562.861V164.494H566.939V163.545H561.807V172H562.861ZM571.141 172.111C572.939 172.111 574.053 170.869 574.053 168.842C574.053 166.809 572.939 165.572 571.141 165.572C569.342 165.572 568.229 166.809 568.229 168.842C568.229 170.869 569.342 172.111 571.141 172.111ZM571.141 171.203C569.945 171.203 569.271 170.336 569.271 168.842C569.271 167.342 569.945 166.48 571.141 166.48C572.336 166.48 573.01 167.342 573.01 168.842C573.01 170.336 572.336 171.203 571.141 171.203ZM578.23 172.111C580.029 172.111 581.143 170.869 581.143 168.842C581.143 166.809 580.029 165.572 578.23 165.572C576.432 165.572 575.318 166.809 575.318 168.842C575.318 170.869 576.432 172.111 578.23 172.111ZM578.23 171.203C577.035 171.203 576.361 170.336 576.361 168.842C576.361 167.342 577.035 166.48 578.23 166.48C579.426 166.48 580.1 167.342 580.1 168.842C580.1 170.336 579.426 171.203 578.23 171.203ZM583.146 164.049V165.684H582.127V166.527H583.146V170.359C583.146 171.566 583.668 172.047 584.969 172.047C585.168 172.047 585.361 172.023 585.561 171.988V171.139C585.373 171.156 585.273 171.162 585.092 171.162C584.436 171.162 584.154 170.846 584.154 170.102V166.527H585.561V165.684H584.154V164.049H583.146ZM591.174 170.365C590.91 170.922 590.359 171.221 589.545 171.221C588.473 171.221 587.775 170.43 587.723 169.182V169.135H592.264V168.748C592.264 166.785 591.227 165.572 589.521 165.572C587.787 165.572 586.674 166.861 586.674 168.848C586.674 170.846 587.77 172.111 589.521 172.111C590.904 172.111 591.889 171.443 592.182 170.365H591.174ZM589.51 166.463C590.512 166.463 591.18 167.201 591.203 168.32H587.723C587.799 167.201 588.502 166.463 589.51 166.463ZM593.846 172H594.854V168.086C594.854 167.195 595.551 166.551 596.512 166.551C596.711 166.551 597.074 166.586 597.156 166.609V165.602C597.027 165.584 596.816 165.572 596.652 165.572C595.814 165.572 595.088 166.006 594.9 166.621H594.807V165.684H593.846V172ZM604.398 172.111C606.197 172.111 607.311 170.869 607.311 168.842C607.311 166.809 606.197 165.572 604.398 165.572C602.6 165.572 601.486 166.809 601.486 168.842C601.486 170.869 602.6 172.111 604.398 172.111ZM604.398 171.203C603.203 171.203 602.529 170.336 602.529 168.842C602.529 167.342 603.203 166.48 604.398 166.48C605.594 166.48 606.268 167.342 606.268 168.842C606.268 170.336 605.594 171.203 604.398 171.203ZM613.814 165.684H612.736L611.008 170.887H610.914L609.186 165.684H608.107L610.445 172H611.477L613.814 165.684ZM619.111 170.365C618.848 170.922 618.297 171.221 617.482 171.221C616.41 171.221 615.713 170.43 615.66 169.182V169.135H620.201V168.748C620.201 166.785 619.164 165.572 617.459 165.572C615.725 165.572 614.611 166.861 614.611 168.848C614.611 170.846 615.707 172.111 617.459 172.111C618.842 172.111 619.826 171.443 620.119 170.365H619.111ZM617.447 166.463C618.449 166.463 619.117 167.201 619.141 168.32H615.66C615.736 167.201 616.439 166.463 617.447 166.463ZM621.783 172H622.791V168.086C622.791 167.195 623.488 166.551 624.449 166.551C624.648 166.551 625.012 166.586 625.094 166.609V165.602C624.965 165.584 624.754 165.572 624.59 165.572C623.752 165.572 623.025 166.006 622.838 166.621H622.744V165.684H621.783V172ZM626.471 172H627.479V168.086C627.479 167.195 628.176 166.551 629.137 166.551C629.336 166.551 629.699 166.586 629.781 166.609V165.602C629.652 165.584 629.441 165.572 629.277 165.572C628.439 165.572 627.713 166.006 627.525 166.621H627.432V165.684H626.471V172ZM631.568 164.465C631.955 164.465 632.271 164.148 632.271 163.762C632.271 163.375 631.955 163.059 631.568 163.059C631.182 163.059 630.865 163.375 630.865 163.762C630.865 164.148 631.182 164.465 631.568 164.465ZM631.064 172H632.072V165.684H631.064V172ZM636.332 172.111C637.205 172.111 637.955 171.695 638.354 170.992H638.447V172H639.408V163.176H638.4V166.68H638.312C637.955 165.988 637.211 165.572 636.332 165.572C634.727 165.572 633.678 166.861 633.678 168.842C633.678 170.828 634.715 172.111 636.332 172.111ZM636.566 166.48C637.709 166.48 638.424 167.395 638.424 168.842C638.424 170.301 637.715 171.203 636.566 171.203C635.412 171.203 634.721 170.318 634.721 168.842C634.721 167.371 635.418 166.48 636.566 166.48ZM645.549 170.365C645.285 170.922 644.734 171.221 643.92 171.221C642.848 171.221 642.15 170.43 642.098 169.182V169.135H646.639V168.748C646.639 166.785 645.602 165.572 643.896 165.572C642.162 165.572 641.049 166.861 641.049 168.848C641.049 170.846 642.145 172.111 643.896 172.111C645.279 172.111 646.264 171.443 646.557 170.365H645.549ZM643.885 166.463C644.887 166.463 645.555 167.201 645.578 168.32H642.098C642.174 167.201 642.877 166.463 643.885 166.463Z" fill="#3C4257"/>
<rect x="504.5" y="128.5" width="199" height="63" rx="7.5" stroke="#E3E8EE"/>
<path d="M240.5 63.25C240.086 63.25 239.75 63.5858 239.75 64C239.75 64.4142 240.086 64.75 240.5 64.75V63.25ZM256.03 64.5303C256.323 64.2374 256.323 63.7626 256.03 63.4697L251.257 58.6967C250.964 58.4038 250.49 58.4038 250.197 58.6967C249.904 58.9896 249.904 59.4645 250.197 59.7574L254.439 64L250.197 68.2426C249.904 68.5355 249.904 69.0104 250.197 69.3033C250.49 69.5962 250.964 69.5962 251.257 69.3033L256.03 64.5303ZM240.5 64.75H255.5V63.25L240.5 63.25V64.75Z" fill="#8792A2"/>
<path d="M480.5 63.25C480.086 63.25 479.75 63.5858 479.75 64C479.75 64.4142 480.086 64.75 480.5 64.75V63.25ZM496.03 64.5303C496.323 64.2374 496.323 63.7626 496.03 63.4697L491.257 58.6967C490.964 58.4038 490.49 58.4038 490.197 58.6967C489.904 58.9896 489.904 59.4645 490.197 59.7574L494.439 64L490.197 68.2426C489.904 68.5355 489.904 69.0104 490.197 69.3033C490.49 69.5962 490.964 69.5962 491.257 69.3033L496.03 64.5303ZM480.5 64.75H495.5V63.25L480.5 63.25V64.75Z" fill="#8792A2"/>
<path d="M604.75 104.5C604.75 104.086 604.414 103.75 604 103.75C603.586 103.75 603.25 104.086 603.25 104.5L604.75 104.5ZM603.47 120.03C603.763 120.323 604.237 120.323 604.53 120.03L609.303 115.257C609.596 114.964 609.596 114.49 609.303 114.197C609.01 113.904 608.536 113.904 608.243 114.197L604 118.439L599.757 114.197C599.464 113.904 598.99 113.904 598.697 114.197C598.404 114.49 598.404 114.964 598.697 115.257L603.47 120.03ZM603.25 104.5L603.25 119.5L604.75 119.5L604.75 104.5L603.25 104.5Z" fill="#8792A2"/>
<path d="M367.25 105.5C367.25 105.086 367.586 104.75 368 104.75C368.414 104.75 368.75 105.086 368.75 105.5L367.25 105.5ZM496.03 159.47C496.323 159.763 496.323 160.237 496.03 160.53L491.257 165.303C490.964 165.596 490.49 165.596 490.197 165.303C489.904 165.01 489.904 164.536 490.197 164.243L494.439 160L490.197 155.757C489.904 155.464 489.904 154.99 490.197 154.697C490.49 154.404 490.964 154.404 491.257 154.697L496.03 159.47ZM368.75 105.5L368.75 156L367.25 156L367.25 105.5L368.75 105.5ZM372 159.25L495.5 159.25L495.5 160.75L372 160.75L372 159.25ZM368.75 156C368.75 157.795 370.205 159.25 372 159.25L372 160.75C369.377 160.75 367.25 158.623 367.25 156L368.75 156Z" fill="#8792A2"/>
<defs>
<clipPath id="clip0">
<path d="M0 0H736V224H0V0Z" fill="white"/>
</clipPath>
</defs>
</svg>
