<svg width="736" height="464" viewBox="0 0 736 464" fill="none" xmlns="http://www.w3.org/2000/svg">
<g clip-path="url(#clip0)">
<path d="M0 0H736V464H0V0Z" fill="white"/>
<path d="M0 0L736 -6.43432e-05" stroke="#E3E8EE" stroke-width="2" stroke-linecap="round" stroke-linejoin="round" stroke-dasharray="0.01 16"/>
<path d="M0 16L736 15.9999" stroke="#E3E8EE" stroke-width="2" stroke-linecap="round" stroke-linejoin="round" stroke-dasharray="0.01 16"/>
<path d="M0 32L736 31.9999" stroke="#E3E8EE" stroke-width="2" stroke-linecap="round" stroke-linejoin="round" stroke-dasharray="0.01 16"/>
<path d="M0 48L736 47.9999" stroke="#E3E8EE" stroke-width="2" stroke-linecap="round" stroke-linejoin="round" stroke-dasharray="0.01 16"/>
<path d="M0 64L736 63.9999" stroke="#E3E8EE" stroke-width="2" stroke-linecap="round" stroke-linejoin="round" stroke-dasharray="0.01 16"/>
<path d="M0 80L736 79.9999" stroke="#E3E8EE" stroke-width="2" stroke-linecap="round" stroke-linejoin="round" stroke-dasharray="0.01 16"/>
<path d="M0 96L736 95.9999" stroke="#E3E8EE" stroke-width="2" stroke-linecap="round" stroke-linejoin="round" stroke-dasharray="0.01 16"/>
<path d="M0 112L736 112" stroke="#E3E8EE" stroke-width="2" stroke-linecap="round" stroke-linejoin="round" stroke-dasharray="0.01 16"/>
<path d="M0 128L736 128" stroke="#E3E8EE" stroke-width="2" stroke-linecap="round" stroke-linejoin="round" stroke-dasharray="0.01 16"/>
<path d="M0 144L736 144" stroke="#E3E8EE" stroke-width="2" stroke-linecap="round" stroke-linejoin="round" stroke-dasharray="0.01 16"/>
<path d="M0 160L736 160" stroke="#E3E8EE" stroke-width="2" stroke-linecap="round" stroke-linejoin="round" stroke-dasharray="0.01 16"/>
<path d="M0 176L736 176" stroke="#E3E8EE" stroke-width="2" stroke-linecap="round" stroke-linejoin="round" stroke-dasharray="0.01 16"/>
<path d="M0 192L736 192" stroke="#E3E8EE" stroke-width="2" stroke-linecap="round" stroke-linejoin="round" stroke-dasharray="0.01 16"/>
<path d="M0 208L736 208" stroke="#E3E8EE" stroke-width="2" stroke-linecap="round" stroke-linejoin="round" stroke-dasharray="0.01 16"/>
<path d="M0 224L736 224" stroke="#E3E8EE" stroke-width="2" stroke-linecap="round" stroke-linejoin="round" stroke-dasharray="0.01 16"/>
<path d="M0 240L736 240" stroke="#E3E8EE" stroke-width="2" stroke-linecap="round" stroke-linejoin="round" stroke-dasharray="0.01 16"/>
<path d="M0 256L736 256" stroke="#E3E8EE" stroke-width="2" stroke-linecap="round" stroke-linejoin="round" stroke-dasharray="0.01 16"/>
<path d="M0 272L736 272" stroke="#E3E8EE" stroke-width="2" stroke-linecap="round" stroke-linejoin="round" stroke-dasharray="0.01 16"/>
<path d="M0 288L736 288" stroke="#E3E8EE" stroke-width="2" stroke-linecap="round" stroke-linejoin="round" stroke-dasharray="0.01 16"/>
<path d="M0 304L736 304" stroke="#E3E8EE" stroke-width="2" stroke-linecap="round" stroke-linejoin="round" stroke-dasharray="0.01 16"/>
<path d="M0 320L736 320" stroke="#E3E8EE" stroke-width="2" stroke-linecap="round" stroke-linejoin="round" stroke-dasharray="0.01 16"/>
<path d="M0 336L736 336" stroke="#E3E8EE" stroke-width="2" stroke-linecap="round" stroke-linejoin="round" stroke-dasharray="0.01 16"/>
<path d="M0 352L736 352" stroke="#E3E8EE" stroke-width="2" stroke-linecap="round" stroke-linejoin="round" stroke-dasharray="0.01 16"/>
<path d="M0 368L736 368" stroke="#E3E8EE" stroke-width="2" stroke-linecap="round" stroke-linejoin="round" stroke-dasharray="0.01 16"/>
<path d="M0 384L736 384" stroke="#E3E8EE" stroke-width="2" stroke-linecap="round" stroke-linejoin="round" stroke-dasharray="0.01 16"/>
<path d="M0 400L736 400" stroke="#E3E8EE" stroke-width="2" stroke-linecap="round" stroke-linejoin="round" stroke-dasharray="0.01 16"/>
<path d="M0 416L736 416" stroke="#E3E8EE" stroke-width="2" stroke-linecap="round" stroke-linejoin="round" stroke-dasharray="0.01 16"/>
<path d="M0 432L736 432" stroke="#E3E8EE" stroke-width="2" stroke-linecap="round" stroke-linejoin="round" stroke-dasharray="0.01 16"/>
<path d="M0 448L736 448" stroke="#E3E8EE" stroke-width="2" stroke-linecap="round" stroke-linejoin="round" stroke-dasharray="0.01 16"/>
<path d="M0 464L736 464" stroke="#E3E8EE" stroke-width="2" stroke-linecap="round" stroke-linejoin="round" stroke-dasharray="0.01 16"/>
<rect x="0.5" y="0.5" width="735" height="463" stroke="white"/>
</g>
<path d="M32 48C32 39.1635 39.1634 32 48 32H232C240.837 32 248 39.1634 248 48V416C248 424.837 240.837 432 232 432H48C39.1634 432 32 424.837 32 416V48Z" fill="#F7FAFC"/>
<rect x="27" y="27" width="226" height="410" rx="21" stroke="white" stroke-width="10"/>
<path d="M264 48C264 39.1635 271.163 32 280 32H456C464.837 32 472 39.1634 472 48V416C472 424.837 464.837 432 456 432H280C271.163 432 264 424.837 264 416V48Z" fill="#F7FAFC"/>
<rect x="259" y="27" width="218" height="410" rx="21" stroke="white" stroke-width="10"/>
<path d="M488 48C488 39.1635 495.163 32 504 32H688C696.837 32 704 39.1634 704 48V416C704 424.837 696.837 432 688 432H504C495.163 432 488 424.837 488 416V48Z" fill="#F7FAFC"/>
<rect x="483" y="27" width="226" height="410" rx="21" stroke="white" stroke-width="10"/>
<rect x="106" y="52" width="68" height="24" fill="#F7FAFC"/>
<path d="M111.351 69V65.1172H115.363V63.4834H111.351V60.8379H115.746V59.1357H109.286V69H111.351ZM117.455 69H119.444V64.7891C119.444 63.7295 120.189 63.0801 121.276 63.0801C121.598 63.0801 122.062 63.1348 122.22 63.1895V61.4395C122.049 61.3848 121.714 61.3506 121.44 61.3506C120.483 61.3506 119.704 61.918 119.506 62.6699H119.383V61.4736H117.455V69ZM126.718 69.1572C129.035 69.1572 130.43 67.6943 130.43 65.2334C130.43 62.793 129.015 61.3096 126.718 61.3096C124.421 61.3096 123.006 62.7998 123.006 65.2334C123.006 67.6875 124.4 69.1572 126.718 69.1572ZM126.718 67.585C125.651 67.585 125.05 66.7236 125.05 65.2334C125.05 63.7568 125.658 62.8887 126.718 62.8887C127.771 62.8887 128.386 63.7568 128.386 65.2334C128.386 66.7236 127.777 67.585 126.718 67.585ZM132.057 69H134.046V64.6455C134.046 63.627 134.613 62.9707 135.536 62.9707C136.479 62.9707 136.924 63.5244 136.924 64.584V69H138.913V64.1328C138.913 62.335 138.011 61.3096 136.336 61.3096C135.222 61.3096 134.456 61.8359 134.107 62.6836H133.984V61.4736H132.057V69ZM141.415 59.6758V61.542H140.239V63.0527H141.415V66.9697C141.415 68.4326 142.14 69.0273 143.972 69.0273C144.354 69.0273 144.724 68.9863 144.97 68.9385V67.4688C144.778 67.4893 144.642 67.5029 144.382 67.5029C143.705 67.5029 143.404 67.1885 143.404 66.5117V63.0527H144.97V61.542H143.404V59.6758H141.415ZM151.45 66.874C151.238 67.3867 150.698 67.6738 149.912 67.6738C148.873 67.6738 148.217 66.9561 148.189 65.8076V65.7051H153.364V65.1104C153.364 62.7314 152.052 61.3096 149.83 61.3096C147.588 61.3096 146.207 62.8271 146.207 65.2744C146.207 67.708 147.561 69.1572 149.857 69.1572C151.703 69.1572 153.009 68.2754 153.303 66.874H151.45ZM149.837 62.793C150.767 62.793 151.368 63.4355 151.409 64.4678H148.196C148.265 63.4561 148.914 62.793 149.837 62.793ZM154.998 69H156.987V64.6455C156.987 63.627 157.555 62.9707 158.478 62.9707C159.421 62.9707 159.865 63.5244 159.865 64.584V69H161.854V64.1328C161.854 62.335 160.952 61.3096 159.277 61.3096C158.163 61.3096 157.397 61.8359 157.049 62.6836H156.926V61.4736H154.998V69ZM166.489 69.1162C167.535 69.1162 168.39 68.6309 168.793 67.8174H168.916V69H170.844V58.5957H168.854V62.6768H168.738C168.349 61.8428 167.508 61.3506 166.489 61.3506C164.596 61.3506 163.42 62.834 163.42 65.2266C163.42 67.626 164.589 69.1162 166.489 69.1162ZM167.166 62.9639C168.226 62.9639 168.875 63.832 168.875 65.2402C168.875 66.6484 168.232 67.5098 167.166 67.5098C166.1 67.5098 165.464 66.6553 165.464 65.2334C165.464 63.8184 166.106 62.9639 167.166 62.9639Z" fill="#2A2F45"/>
<rect x="106" y="52" width="68" height="24" stroke="#F7FAFC" stroke-width="4"/>
<rect x="335" y="52" width="65" height="24" fill="#F7FAFC"/>
<path d="M342.877 69C344.982 69 346.288 67.9131 346.288 66.1768C346.288 64.9053 345.338 63.9277 344.032 63.8252V63.7021C345.044 63.5518 345.816 62.6426 345.816 61.5967C345.816 60.0723 344.675 59.1357 342.761 59.1357H338.447V69H342.877ZM340.512 60.667H342.234C343.219 60.667 343.786 61.1455 343.786 61.9521C343.786 62.7725 343.178 63.2373 342.063 63.2373H340.512V60.667ZM340.512 67.4619V64.5977H342.303C343.52 64.5977 344.183 65.0898 344.183 66.0127C344.183 66.9561 343.54 67.4619 342.351 67.4619H340.512ZM350.021 69.1162C350.998 69.1162 351.818 68.6992 352.208 68.002H352.331V69H354.259V63.8594C354.259 62.2529 353.131 61.3096 351.135 61.3096C349.241 61.3096 347.963 62.1777 347.833 63.5586H349.665C349.829 63.0869 350.308 62.834 351.025 62.834C351.846 62.834 352.297 63.21 352.297 63.8594V64.4814L350.472 64.5908C348.599 64.7002 347.553 65.4932 347.553 66.8535C347.553 68.2275 348.571 69.1162 350.021 69.1162ZM350.677 67.6602C349.986 67.6602 349.501 67.3115 349.501 66.7305C349.501 66.1768 349.918 65.8555 350.772 65.8008L352.297 65.6982V66.2588C352.297 67.0518 351.6 67.6602 350.677 67.6602ZM362.886 64.0986C362.722 62.417 361.525 61.3096 359.529 61.3096C357.171 61.3096 355.845 62.7383 355.845 65.2197C355.845 67.7285 357.178 69.1572 359.529 69.1572C361.491 69.1572 362.722 68.0771 362.886 66.4229H361.026C360.876 67.1748 360.343 67.5781 359.529 67.5781C358.463 67.5781 357.854 66.7373 357.854 65.2197C357.854 63.7227 358.456 62.8955 359.529 62.8955C360.377 62.8955 360.89 63.374 361.026 64.0986H362.886ZM366.625 64.4473H366.502V58.5957H364.513V69H366.502V66.4707L367.049 65.9033L369.25 69H371.608L368.539 64.7002L371.41 61.4736H369.147L366.625 64.4473ZM377.289 66.874C377.077 67.3867 376.537 67.6738 375.751 67.6738C374.712 67.6738 374.056 66.9561 374.028 65.8076V65.7051H379.203V65.1104C379.203 62.7314 377.891 61.3096 375.669 61.3096C373.427 61.3096 372.046 62.8271 372.046 65.2744C372.046 67.708 373.399 69.1572 375.696 69.1572C377.542 69.1572 378.848 68.2754 379.142 66.874H377.289ZM375.676 62.793C376.605 62.793 377.207 63.4355 377.248 64.4678H374.035C374.104 63.4561 374.753 62.793 375.676 62.793ZM380.837 69H382.826V64.6455C382.826 63.627 383.394 62.9707 384.316 62.9707C385.26 62.9707 385.704 63.5244 385.704 64.584V69H387.693V64.1328C387.693 62.335 386.791 61.3096 385.116 61.3096C384.002 61.3096 383.236 61.8359 382.888 62.6836H382.765V61.4736H380.837V69ZM392.328 69.1162C393.374 69.1162 394.229 68.6309 394.632 67.8174H394.755V69H396.683V58.5957H394.693V62.6768H394.577C394.188 61.8428 393.347 61.3506 392.328 61.3506C390.435 61.3506 389.259 62.834 389.259 65.2266C389.259 67.626 390.428 69.1162 392.328 69.1162ZM393.005 62.9639C394.064 62.9639 394.714 63.832 394.714 65.2402C394.714 66.6484 394.071 67.5098 393.005 67.5098C391.938 67.5098 391.303 66.6553 391.303 65.2334C391.303 63.8184 391.945 62.9639 393.005 62.9639Z" fill="#2A2F45"/>
<rect x="335" y="52" width="65" height="24" stroke="#F7FAFC" stroke-width="4"/>
<rect x="558" y="52" width="75" height="24" fill="#F7FAFC"/>
<path d="M560.958 66.2725C561.033 68.0977 562.558 69.2529 564.909 69.2529C567.384 69.2529 568.908 68.0361 568.908 66.0674C568.908 64.543 568.054 63.6885 566.071 63.2646L564.882 63.0117C563.727 62.7588 563.255 62.3965 563.255 61.7744C563.255 61.002 563.938 60.5029 564.971 60.5029C565.969 60.5029 566.693 61.0293 566.789 61.8359H568.73C568.669 60.0928 567.131 58.8828 564.957 58.8828C562.681 58.8828 561.184 60.0996 561.184 61.9385C561.184 63.4355 562.065 64.3584 563.863 64.7412L565.148 65.0215C566.358 65.2881 566.851 65.6641 566.851 66.3135C566.851 67.0791 566.092 67.6191 565.019 67.6191C563.856 67.6191 563.05 67.0928 562.954 66.2725H560.958ZM571.232 59.6758V61.542H570.057V63.0527H571.232V66.9697C571.232 68.4326 571.957 69.0273 573.789 69.0273C574.172 69.0273 574.541 68.9863 574.787 68.9385V67.4688C574.596 67.4893 574.459 67.5029 574.199 67.5029C573.522 67.5029 573.222 67.1885 573.222 66.5117V63.0527H574.787V61.542H573.222V59.6758H571.232ZM576.448 69H578.438V64.7891C578.438 63.7295 579.183 63.0801 580.27 63.0801C580.591 63.0801 581.056 63.1348 581.213 63.1895V61.4395C581.042 61.3848 580.707 61.3506 580.434 61.3506C579.477 61.3506 578.697 61.918 578.499 62.6699H578.376V61.4736H576.448V69ZM583.558 60.3184C584.173 60.3184 584.679 59.8262 584.679 59.2109C584.679 58.5889 584.173 58.0967 583.558 58.0967C582.942 58.0967 582.43 58.5889 582.43 59.2109C582.43 59.8262 582.942 60.3184 583.558 60.3184ZM582.56 69H584.549V61.4736H582.56V69ZM590.92 61.3506C589.881 61.3506 589.026 61.8633 588.616 62.7109H588.493V61.4736H586.565V71.4951H588.555V67.8516H588.678C589.047 68.6445 589.874 69.1162 590.954 69.1162C592.841 69.1162 593.996 67.6533 593.996 65.2334C593.996 62.8066 592.827 61.3506 590.92 61.3506ZM590.243 67.5098C589.19 67.5098 588.534 66.6484 588.534 65.2402C588.534 63.832 589.19 62.9639 590.25 62.9639C591.31 62.9639 591.952 63.8184 591.952 65.2334C591.952 66.6553 591.316 67.5098 590.243 67.5098ZM600.49 66.874C600.278 67.3867 599.738 67.6738 598.952 67.6738C597.913 67.6738 597.257 66.9561 597.229 65.8076V65.7051H602.404V65.1104C602.404 62.7314 601.092 61.3096 598.87 61.3096C596.628 61.3096 595.247 62.8271 595.247 65.2744C595.247 67.708 596.601 69.1572 598.897 69.1572C600.743 69.1572 602.049 68.2754 602.343 66.874H600.49ZM598.877 62.793C599.807 62.793 600.408 63.4355 600.449 64.4678H597.236C597.305 63.4561 597.954 62.793 598.877 62.793ZM614.183 69H616.418L612.993 59.1357H610.566L607.142 69H609.213L609.972 66.6074H613.438L614.183 69ZM611.653 61.1387H611.776L613 65.0625H610.416L611.653 61.1387ZM618.1 59.1357V69H620.164V65.8896H622.112C624.19 65.8896 625.633 64.5361 625.633 62.5264C625.633 60.4893 624.245 59.1357 622.215 59.1357H618.1ZM620.164 60.7764H621.668C622.857 60.7764 623.534 61.3848 623.534 62.5332C623.534 63.6543 622.844 64.2695 621.661 64.2695H620.164V60.7764ZM629.598 69V59.1357H627.533V69H629.598Z" fill="#2A2F45"/>
<rect x="558" y="52" width="75" height="24" stroke="#F7FAFC" stroke-width="4"/>
<path d="M504 104C504 99.5817 507.582 96 512 96H680C684.418 96 688 99.5817 688 104V136C688 140.418 684.418 144 680 144H512C507.582 144 504 140.418 504 136V104Z" fill="#D6ECFF"/>
<path d="M535.42 115.545V124H536.475V120.982H538.602C540.189 120.982 541.32 119.863 541.32 118.281C541.32 116.67 540.213 115.545 538.613 115.545H535.42ZM536.475 116.482H538.338C539.562 116.482 540.236 117.121 540.236 118.281C540.236 119.4 539.539 120.045 538.338 120.045H536.475V116.482ZM544.443 124.111C545.287 124.111 545.979 123.742 546.389 123.068H546.482V124H547.443V119.676C547.443 118.363 546.582 117.572 545.041 117.572C543.693 117.572 542.697 118.24 542.562 119.254H543.582C543.723 118.756 544.25 118.469 545.006 118.469C545.949 118.469 546.436 118.896 546.436 119.676V120.25L544.613 120.361C543.143 120.449 542.311 121.1 542.311 122.23C542.311 123.385 543.219 124.111 544.443 124.111ZM544.631 123.227C543.898 123.227 543.354 122.852 543.354 122.207C543.354 121.574 543.775 121.24 544.736 121.176L546.436 121.064V121.645C546.436 122.547 545.668 123.227 544.631 123.227ZM549.611 126.285C550.73 126.285 551.234 125.852 551.773 124.387L554.24 117.684H553.168L551.439 122.881H551.346L549.611 117.684H548.521L550.859 124.006L550.742 124.381C550.479 125.143 550.162 125.418 549.582 125.418C549.441 125.418 549.283 125.412 549.16 125.389V126.25C549.301 126.273 549.477 126.285 549.611 126.285ZM555.588 124H556.596V120.086C556.596 119.195 557.234 118.48 558.061 118.48C558.857 118.48 559.379 118.961 559.379 119.711V124H560.387V119.939C560.387 119.137 560.973 118.48 561.852 118.48C562.742 118.48 563.182 118.938 563.182 119.869V124H564.189V119.635C564.189 118.311 563.469 117.572 562.18 117.572C561.307 117.572 560.586 118.012 560.246 118.68H560.152C559.859 118.023 559.262 117.572 558.406 117.572C557.562 117.572 556.93 117.977 556.643 118.68H556.549V117.684H555.588V124ZM570.213 122.365C569.949 122.922 569.398 123.221 568.584 123.221C567.512 123.221 566.814 122.43 566.762 121.182V121.135H571.303V120.748C571.303 118.785 570.266 117.572 568.561 117.572C566.826 117.572 565.713 118.861 565.713 120.848C565.713 122.846 566.809 124.111 568.561 124.111C569.943 124.111 570.928 123.443 571.221 122.365H570.213ZM568.549 118.463C569.551 118.463 570.219 119.201 570.242 120.32H566.762C566.838 119.201 567.541 118.463 568.549 118.463ZM572.885 124H573.893V120.262C573.893 119.154 574.543 118.48 575.551 118.48C576.559 118.48 577.039 119.02 577.039 120.156V124H578.047V119.91C578.047 118.41 577.256 117.572 575.838 117.572C574.871 117.572 574.256 117.982 573.939 118.68H573.846V117.684H572.885V124ZM580.314 116.049V117.684H579.295V118.527H580.314V122.359C580.314 123.566 580.836 124.047 582.137 124.047C582.336 124.047 582.529 124.023 582.729 123.988V123.139C582.541 123.156 582.441 123.162 582.26 123.162C581.604 123.162 581.322 122.846 581.322 122.102V118.527H582.729V117.684H581.322V116.049H580.314ZM588.166 116.465C588.553 116.465 588.869 116.148 588.869 115.762C588.869 115.375 588.553 115.059 588.166 115.059C587.779 115.059 587.463 115.375 587.463 115.762C587.463 116.148 587.779 116.465 588.166 116.465ZM587.662 124H588.67V117.684H587.662V124ZM590.445 119.412C590.445 120.326 590.984 120.836 592.168 121.123L593.252 121.387C593.926 121.551 594.254 121.844 594.254 122.277C594.254 122.857 593.645 123.262 592.795 123.262C591.986 123.262 591.482 122.922 591.312 122.389H590.275C590.387 123.438 591.354 124.111 592.76 124.111C594.195 124.111 595.291 123.332 595.291 122.201C595.291 121.293 594.717 120.777 593.527 120.49L592.555 120.256C591.811 120.074 591.459 119.805 591.459 119.371C591.459 118.809 592.045 118.428 592.795 118.428C593.557 118.428 594.049 118.762 594.184 119.266H595.18C595.045 118.229 594.125 117.572 592.801 117.572C591.459 117.572 590.445 118.363 590.445 119.412ZM602.018 124.111C602.861 124.111 603.553 123.742 603.963 123.068H604.057V124H605.018V119.676C605.018 118.363 604.156 117.572 602.615 117.572C601.268 117.572 600.271 118.24 600.137 119.254H601.156C601.297 118.756 601.824 118.469 602.58 118.469C603.523 118.469 604.01 118.896 604.01 119.676V120.25L602.188 120.361C600.717 120.449 599.885 121.1 599.885 122.23C599.885 123.385 600.793 124.111 602.018 124.111ZM602.205 123.227C601.473 123.227 600.928 122.852 600.928 122.207C600.928 121.574 601.35 121.24 602.311 121.176L604.01 121.064V121.645C604.01 122.547 603.242 123.227 602.205 123.227ZM607.303 116.049V117.684H606.283V118.527H607.303V122.359C607.303 123.566 607.824 124.047 609.125 124.047C609.324 124.047 609.518 124.023 609.717 123.988V123.139C609.529 123.156 609.43 123.162 609.248 123.162C608.592 123.162 608.311 122.846 608.311 122.102V118.527H609.717V117.684H608.311V116.049H607.303ZM611.662 116.049V117.684H610.643V118.527H611.662V122.359C611.662 123.566 612.184 124.047 613.484 124.047C613.684 124.047 613.877 124.023 614.076 123.988V123.139C613.889 123.156 613.789 123.162 613.607 123.162C612.951 123.162 612.67 122.846 612.67 122.102V118.527H614.076V117.684H612.67V116.049H611.662ZM619.689 122.365C619.426 122.922 618.875 123.221 618.061 123.221C616.988 123.221 616.291 122.43 616.238 121.182V121.135H620.779V120.748C620.779 118.785 619.742 117.572 618.037 117.572C616.303 117.572 615.189 118.861 615.189 120.848C615.189 122.846 616.285 124.111 618.037 124.111C619.42 124.111 620.404 123.443 620.697 122.365H619.689ZM618.025 118.463C619.027 118.463 619.695 119.201 619.719 120.32H616.238C616.314 119.201 617.018 118.463 618.025 118.463ZM622.361 124H623.369V120.086C623.369 119.195 624.008 118.48 624.834 118.48C625.631 118.48 626.152 118.961 626.152 119.711V124H627.16V119.939C627.16 119.137 627.746 118.48 628.625 118.48C629.516 118.48 629.955 118.938 629.955 119.869V124H630.963V119.635C630.963 118.311 630.242 117.572 628.953 117.572C628.08 117.572 627.359 118.012 627.02 118.68H626.926C626.633 118.023 626.035 117.572 625.18 117.572C624.336 117.572 623.703 117.977 623.416 118.68H623.322V117.684H622.361V124ZM635.879 117.572C635.018 117.572 634.262 118.012 633.857 118.738H633.764V117.684H632.803V126.109H633.811V123.051H633.904C634.25 123.719 634.977 124.111 635.879 124.111C637.484 124.111 638.533 122.816 638.533 120.842C638.533 118.855 637.49 117.572 635.879 117.572ZM635.639 123.203C634.502 123.203 633.781 122.289 633.781 120.842C633.781 119.389 634.502 118.48 635.645 118.48C636.799 118.48 637.49 119.365 637.49 120.842C637.49 122.318 636.799 123.203 635.639 123.203ZM640.537 116.049V117.684H639.518V118.527H640.537V122.359C640.537 123.566 641.059 124.047 642.359 124.047C642.559 124.047 642.752 124.023 642.951 123.988V123.139C642.764 123.156 642.664 123.162 642.482 123.162C641.826 123.162 641.545 122.846 641.545 122.102V118.527H642.951V117.684H641.545V116.049H640.537ZM648.564 122.365C648.301 122.922 647.75 123.221 646.936 123.221C645.863 123.221 645.166 122.43 645.113 121.182V121.135H649.654V120.748C649.654 118.785 648.617 117.572 646.912 117.572C645.178 117.572 644.064 118.861 644.064 120.848C644.064 122.846 645.16 124.111 646.912 124.111C648.295 124.111 649.279 123.443 649.572 122.365H648.564ZM646.9 118.463C647.902 118.463 648.57 119.201 648.594 120.32H645.113C645.189 119.201 645.893 118.463 646.9 118.463ZM653.574 124.111C654.447 124.111 655.197 123.695 655.596 122.992H655.689V124H656.65V115.176H655.643V118.68H655.555C655.197 117.988 654.453 117.572 653.574 117.572C651.969 117.572 650.92 118.861 650.92 120.842C650.92 122.828 651.957 124.111 653.574 124.111ZM653.809 118.48C654.951 118.48 655.666 119.395 655.666 120.842C655.666 122.301 654.957 123.203 653.809 123.203C652.654 123.203 651.963 122.318 651.963 120.842C651.963 119.371 652.66 118.48 653.809 118.48Z" fill="#2A2F45"/>
<path d="M504 264C504 259.582 507.582 256 512 256H680C684.418 256 688 259.582 688 264V320C688 324.418 684.418 328 680 328H512C507.582 328 504 324.418 504 320V264Z" fill="#D6ECFF"/>
<path d="M526.209 280V271.545H525.154V280H526.209ZM528.236 280H529.244V276.262C529.244 275.154 529.895 274.48 530.902 274.48C531.91 274.48 532.391 275.02 532.391 276.156V280H533.398V275.91C533.398 274.41 532.607 273.572 531.189 273.572C530.223 273.572 529.607 273.982 529.291 274.68H529.197V273.684H528.236V280ZM540.166 273.684H539.088L537.359 278.887H537.266L535.537 273.684H534.459L536.797 280H537.828L540.166 273.684ZM543.875 280.111C545.674 280.111 546.787 278.869 546.787 276.842C546.787 274.809 545.674 273.572 543.875 273.572C542.076 273.572 540.963 274.809 540.963 276.842C540.963 278.869 542.076 280.111 543.875 280.111ZM543.875 279.203C542.68 279.203 542.006 278.336 542.006 276.842C542.006 275.342 542.68 274.48 543.875 274.48C545.07 274.48 545.744 275.342 545.744 276.842C545.744 278.336 545.07 279.203 543.875 279.203ZM548.896 272.465C549.283 272.465 549.6 272.148 549.6 271.762C549.6 271.375 549.283 271.059 548.896 271.059C548.51 271.059 548.193 271.375 548.193 271.762C548.193 272.148 548.51 272.465 548.896 272.465ZM548.393 280H549.4V273.684H548.393V280ZM556.549 275.617C556.373 274.492 555.436 273.572 553.9 273.572C552.131 273.572 551.006 274.85 551.006 276.818C551.006 278.828 552.137 280.111 553.906 280.111C555.424 280.111 556.367 279.256 556.549 278.096H555.529C555.342 278.811 554.75 279.203 553.9 279.203C552.775 279.203 552.049 278.277 552.049 276.818C552.049 275.389 552.764 274.48 553.9 274.48C554.809 274.48 555.365 274.99 555.529 275.617H556.549ZM562.221 278.365C561.957 278.922 561.406 279.221 560.592 279.221C559.52 279.221 558.822 278.43 558.77 277.182V277.135H563.311V276.748C563.311 274.785 562.273 273.572 560.568 273.572C558.834 273.572 557.721 274.861 557.721 276.848C557.721 278.846 558.816 280.111 560.568 280.111C561.951 280.111 562.936 279.443 563.229 278.365H562.221ZM560.557 274.463C561.559 274.463 562.227 275.201 562.25 276.32H558.77C558.846 275.201 559.549 274.463 560.557 274.463ZM568.279 280H569.287V276.086C569.287 275.195 569.984 274.551 570.945 274.551C571.145 274.551 571.508 274.586 571.59 274.609V273.602C571.461 273.584 571.25 273.572 571.086 273.572C570.248 273.572 569.521 274.006 569.334 274.621H569.24V273.684H568.279V280ZM576.857 278.365C576.594 278.922 576.043 279.221 575.229 279.221C574.156 279.221 573.459 278.43 573.406 277.182V277.135H577.947V276.748C577.947 274.785 576.91 273.572 575.205 273.572C573.471 273.572 572.357 274.861 572.357 276.848C572.357 278.846 573.453 280.111 575.205 280.111C576.588 280.111 577.572 279.443 577.865 278.365H576.857ZM575.193 274.463C576.195 274.463 576.863 275.201 576.887 276.32H573.406C573.482 275.201 574.186 274.463 575.193 274.463ZM579.529 280H580.537V276.086C580.537 275.195 581.176 274.48 582.002 274.48C582.799 274.48 583.32 274.961 583.32 275.711V280H584.328V275.939C584.328 275.137 584.914 274.48 585.793 274.48C586.684 274.48 587.123 274.938 587.123 275.869V280H588.131V275.635C588.131 274.311 587.41 273.572 586.121 273.572C585.248 273.572 584.527 274.012 584.188 274.68H584.094C583.801 274.023 583.203 273.572 582.348 273.572C581.504 273.572 580.871 273.977 580.584 274.68H580.49V273.684H579.529V280ZM591.729 280.111C592.572 280.111 593.264 279.742 593.674 279.068H593.768V280H594.729V275.676C594.729 274.363 593.867 273.572 592.326 273.572C590.979 273.572 589.982 274.24 589.848 275.254H590.867C591.008 274.756 591.535 274.469 592.291 274.469C593.234 274.469 593.721 274.896 593.721 275.676V276.25L591.898 276.361C590.428 276.449 589.596 277.1 589.596 278.23C589.596 279.385 590.504 280.111 591.729 280.111ZM591.916 279.227C591.184 279.227 590.639 278.852 590.639 278.207C590.639 277.574 591.061 277.24 592.021 277.176L593.721 277.064V277.645C593.721 278.547 592.953 279.227 591.916 279.227ZM597.119 272.465C597.506 272.465 597.822 272.148 597.822 271.762C597.822 271.375 597.506 271.059 597.119 271.059C596.732 271.059 596.416 271.375 596.416 271.762C596.416 272.148 596.732 272.465 597.119 272.465ZM596.615 280H597.623V273.684H596.615V280ZM599.545 280H600.553V276.262C600.553 275.154 601.203 274.48 602.211 274.48C603.219 274.48 603.699 275.02 603.699 276.156V280H604.707V275.91C604.707 274.41 603.916 273.572 602.498 273.572C601.531 273.572 600.916 273.982 600.6 274.68H600.506V273.684H599.545V280ZM606.406 275.412C606.406 276.326 606.945 276.836 608.129 277.123L609.213 277.387C609.887 277.551 610.215 277.844 610.215 278.277C610.215 278.857 609.605 279.262 608.756 279.262C607.947 279.262 607.443 278.922 607.273 278.389H606.236C606.348 279.438 607.314 280.111 608.721 280.111C610.156 280.111 611.252 279.332 611.252 278.201C611.252 277.293 610.678 276.777 609.488 276.49L608.516 276.256C607.771 276.074 607.42 275.805 607.42 275.371C607.42 274.809 608.006 274.428 608.756 274.428C609.518 274.428 610.01 274.762 610.145 275.266H611.141C611.006 274.229 610.086 273.572 608.762 273.572C607.42 273.572 606.406 274.363 606.406 275.412ZM618.816 280.111C620.615 280.111 621.729 278.869 621.729 276.842C621.729 274.809 620.615 273.572 618.816 273.572C617.018 273.572 615.904 274.809 615.904 276.842C615.904 278.869 617.018 280.111 618.816 280.111ZM618.816 279.203C617.621 279.203 616.947 278.336 616.947 276.842C616.947 275.342 617.621 274.48 618.816 274.48C620.012 274.48 620.686 275.342 620.686 276.842C620.686 278.336 620.012 279.203 618.816 279.203ZM626.387 273.572C625.525 273.572 624.77 274.012 624.365 274.738H624.271V273.684H623.311V282.109H624.318V279.051H624.412C624.758 279.719 625.484 280.111 626.387 280.111C627.992 280.111 629.041 278.816 629.041 276.842C629.041 274.855 627.998 273.572 626.387 273.572ZM626.146 279.203C625.01 279.203 624.289 278.289 624.289 276.842C624.289 275.389 625.01 274.48 626.152 274.48C627.307 274.48 627.998 275.365 627.998 276.842C627.998 278.318 627.307 279.203 626.146 279.203ZM634.807 278.365C634.543 278.922 633.992 279.221 633.178 279.221C632.105 279.221 631.408 278.43 631.355 277.182V277.135H635.896V276.748C635.896 274.785 634.859 273.572 633.154 273.572C631.42 273.572 630.307 274.861 630.307 276.848C630.307 278.846 631.402 280.111 633.154 280.111C634.537 280.111 635.521 279.443 635.814 278.365H634.807ZM633.143 274.463C634.145 274.463 634.812 275.201 634.836 276.32H631.355C631.432 275.201 632.135 274.463 633.143 274.463ZM637.479 280H638.486V276.262C638.486 275.154 639.137 274.48 640.145 274.48C641.152 274.48 641.633 275.02 641.633 276.156V280H642.641V275.91C642.641 274.41 641.85 273.572 640.432 273.572C639.465 273.572 638.85 273.982 638.533 274.68H638.439V273.684H637.479V280ZM649.631 280.111C650.475 280.111 651.166 279.742 651.576 279.068H651.67V280H652.631V275.676C652.631 274.363 651.77 273.572 650.229 273.572C648.881 273.572 647.885 274.24 647.75 275.254H648.77C648.91 274.756 649.438 274.469 650.193 274.469C651.137 274.469 651.623 274.896 651.623 275.676V276.25L649.801 276.361C648.33 276.449 647.498 277.1 647.498 278.23C647.498 279.385 648.406 280.111 649.631 280.111ZM649.818 279.227C649.086 279.227 648.541 278.852 648.541 278.207C648.541 277.574 648.963 277.24 649.924 277.176L651.623 277.064V277.645C651.623 278.547 650.855 279.227 649.818 279.227ZM654.494 280H655.502V276.262C655.502 275.154 656.152 274.48 657.16 274.48C658.168 274.48 658.648 275.02 658.648 276.156V280H659.656V275.91C659.656 274.41 658.865 273.572 657.447 273.572C656.48 273.572 655.865 273.982 655.549 274.68H655.455V273.684H654.494V280ZM663.84 280.111C664.713 280.111 665.463 279.695 665.861 278.992H665.955V280H666.916V271.176H665.908V274.68H665.82C665.463 273.988 664.719 273.572 663.84 273.572C662.234 273.572 661.186 274.861 661.186 276.842C661.186 278.828 662.223 280.111 663.84 280.111ZM664.074 274.48C665.217 274.48 665.932 275.395 665.932 276.842C665.932 278.301 665.223 279.203 664.074 279.203C662.92 279.203 662.229 278.318 662.229 276.842C662.229 275.371 662.926 274.48 664.074 274.48ZM534.354 291.412C534.354 292.326 534.893 292.836 536.076 293.123L537.16 293.387C537.834 293.551 538.162 293.844 538.162 294.277C538.162 294.857 537.553 295.262 536.703 295.262C535.895 295.262 535.391 294.922 535.221 294.389H534.184C534.295 295.438 535.262 296.111 536.668 296.111C538.104 296.111 539.199 295.332 539.199 294.201C539.199 293.293 538.625 292.777 537.436 292.49L536.463 292.256C535.719 292.074 535.367 291.805 535.367 291.371C535.367 290.809 535.953 290.428 536.703 290.428C537.465 290.428 537.957 290.762 538.092 291.266H539.088C538.953 290.229 538.033 289.572 536.709 289.572C535.367 289.572 534.354 290.363 534.354 291.412ZM545.891 289.684H544.883V293.422C544.883 294.529 544.273 295.191 543.16 295.191C542.152 295.191 541.73 294.664 541.73 293.527V289.684H540.723V293.773C540.723 295.268 541.461 296.111 542.879 296.111C543.846 296.111 544.52 295.713 544.836 295.01H544.93V296H545.891V289.684ZM550.93 296.111C552.529 296.111 553.578 294.816 553.578 292.842C553.578 290.855 552.535 289.572 550.93 289.572C550.062 289.572 549.295 290 548.949 290.68H548.855V287.176H547.848V296H548.809V294.992H548.902C549.301 295.695 550.051 296.111 550.93 296.111ZM550.695 290.48C551.85 290.48 552.535 291.365 552.535 292.842C552.535 294.318 551.85 295.203 550.695 295.203C549.547 295.203 548.832 294.301 548.832 292.842C548.832 291.383 549.547 290.48 550.695 290.48ZM555.014 291.412C555.014 292.326 555.553 292.836 556.736 293.123L557.82 293.387C558.494 293.551 558.822 293.844 558.822 294.277C558.822 294.857 558.213 295.262 557.363 295.262C556.555 295.262 556.051 294.922 555.881 294.389H554.844C554.955 295.438 555.922 296.111 557.328 296.111C558.764 296.111 559.859 295.332 559.859 294.201C559.859 293.293 559.285 292.777 558.096 292.49L557.123 292.256C556.379 292.074 556.027 291.805 556.027 291.371C556.027 290.809 556.613 290.428 557.363 290.428C558.125 290.428 558.617 290.762 558.752 291.266H559.748C559.613 290.229 558.693 289.572 557.369 289.572C556.027 289.572 555.014 290.363 555.014 291.412ZM566.668 291.617C566.492 290.492 565.555 289.572 564.02 289.572C562.25 289.572 561.125 290.85 561.125 292.818C561.125 294.828 562.256 296.111 564.025 296.111C565.543 296.111 566.486 295.256 566.668 294.096H565.648C565.461 294.811 564.869 295.203 564.02 295.203C562.895 295.203 562.168 294.277 562.168 292.818C562.168 291.389 562.883 290.48 564.02 290.48C564.928 290.48 565.484 290.99 565.648 291.617H566.668ZM568.156 296H569.164V292.086C569.164 291.195 569.861 290.551 570.822 290.551C571.021 290.551 571.385 290.586 571.467 290.609V289.602C571.338 289.584 571.127 289.572 570.963 289.572C570.125 289.572 569.398 290.006 569.211 290.621H569.117V289.684H568.156V296ZM573.254 288.465C573.641 288.465 573.957 288.148 573.957 287.762C573.957 287.375 573.641 287.059 573.254 287.059C572.867 287.059 572.551 287.375 572.551 287.762C572.551 288.148 572.867 288.465 573.254 288.465ZM572.75 296H573.758V289.684H572.75V296ZM578.756 289.572C577.895 289.572 577.139 290.012 576.734 290.738H576.641V289.684H575.68V298.109H576.688V295.051H576.781C577.127 295.719 577.854 296.111 578.756 296.111C580.361 296.111 581.41 294.816 581.41 292.842C581.41 290.855 580.367 289.572 578.756 289.572ZM578.516 295.203C577.379 295.203 576.658 294.289 576.658 292.842C576.658 291.389 577.379 290.48 578.521 290.48C579.676 290.48 580.367 291.365 580.367 292.842C580.367 294.318 579.676 295.203 578.516 295.203ZM583.414 288.049V289.684H582.395V290.527H583.414V294.359C583.414 295.566 583.936 296.047 585.236 296.047C585.436 296.047 585.629 296.023 585.828 295.988V295.139C585.641 295.156 585.541 295.162 585.359 295.162C584.703 295.162 584.422 294.846 584.422 294.102V290.527H585.828V289.684H584.422V288.049H583.414ZM587.879 288.465C588.266 288.465 588.582 288.148 588.582 287.762C588.582 287.375 588.266 287.059 587.879 287.059C587.492 287.059 587.176 287.375 587.176 287.762C587.176 288.148 587.492 288.465 587.879 288.465ZM587.375 296H588.383V289.684H587.375V296ZM592.9 296.111C594.699 296.111 595.812 294.869 595.812 292.842C595.812 290.809 594.699 289.572 592.9 289.572C591.102 289.572 589.988 290.809 589.988 292.842C589.988 294.869 591.102 296.111 592.9 296.111ZM592.9 295.203C591.705 295.203 591.031 294.336 591.031 292.842C591.031 291.342 591.705 290.48 592.9 290.48C594.096 290.48 594.77 291.342 594.77 292.842C594.77 294.336 594.096 295.203 592.9 295.203ZM597.395 296H598.402V292.262C598.402 291.154 599.053 290.48 600.061 290.48C601.068 290.48 601.549 291.02 601.549 292.156V296H602.557V291.91C602.557 290.41 601.766 289.572 600.348 289.572C599.381 289.572 598.766 289.982 598.449 290.68H598.355V289.684H597.395V296ZM610.93 296.111C612.529 296.111 613.578 294.816 613.578 292.842C613.578 290.855 612.535 289.572 610.93 289.572C610.062 289.572 609.295 290 608.949 290.68H608.855V287.176H607.848V296H608.809V294.992H608.902C609.301 295.695 610.051 296.111 610.93 296.111ZM610.695 290.48C611.85 290.48 612.535 291.365 612.535 292.842C612.535 294.318 611.85 295.203 610.695 295.203C609.547 295.203 608.832 294.301 608.832 292.842C608.832 291.383 609.547 290.48 610.695 290.48ZM619.344 294.365C619.08 294.922 618.529 295.221 617.715 295.221C616.643 295.221 615.945 294.43 615.893 293.182V293.135H620.434V292.748C620.434 290.785 619.396 289.572 617.691 289.572C615.957 289.572 614.844 290.861 614.844 292.848C614.844 294.846 615.939 296.111 617.691 296.111C619.074 296.111 620.059 295.443 620.352 294.365H619.344ZM617.68 290.463C618.682 290.463 619.35 291.201 619.373 292.32H615.893C615.969 291.201 616.672 290.463 617.68 290.463ZM627.242 291.617C627.066 290.492 626.129 289.572 624.594 289.572C622.824 289.572 621.699 290.85 621.699 292.818C621.699 294.828 622.83 296.111 624.6 296.111C626.117 296.111 627.061 295.256 627.242 294.096H626.223C626.035 294.811 625.443 295.203 624.594 295.203C623.469 295.203 622.742 294.277 622.742 292.818C622.742 291.389 623.457 290.48 624.594 290.48C625.502 290.48 626.059 290.99 626.223 291.617H627.242ZM631.326 296.111C633.125 296.111 634.238 294.869 634.238 292.842C634.238 290.809 633.125 289.572 631.326 289.572C629.527 289.572 628.414 290.809 628.414 292.842C628.414 294.869 629.527 296.111 631.326 296.111ZM631.326 295.203C630.131 295.203 629.457 294.336 629.457 292.842C629.457 291.342 630.131 290.48 631.326 290.48C632.521 290.48 633.195 291.342 633.195 292.842C633.195 294.336 632.521 295.203 631.326 295.203ZM635.82 296H636.828V292.086C636.828 291.195 637.467 290.48 638.293 290.48C639.09 290.48 639.611 290.961 639.611 291.711V296H640.619V291.939C640.619 291.137 641.205 290.48 642.084 290.48C642.975 290.48 643.414 290.938 643.414 291.869V296H644.422V291.635C644.422 290.311 643.701 289.572 642.412 289.572C641.539 289.572 640.818 290.012 640.479 290.68H640.385C640.092 290.023 639.494 289.572 638.639 289.572C637.795 289.572 637.162 289.977 636.875 290.68H636.781V289.684H635.82V296ZM650.445 294.365C650.182 294.922 649.631 295.221 648.816 295.221C647.744 295.221 647.047 294.43 646.994 293.182V293.135H651.535V292.748C651.535 290.785 650.498 289.572 648.793 289.572C647.059 289.572 645.945 290.861 645.945 292.848C645.945 294.846 647.041 296.111 648.793 296.111C650.176 296.111 651.16 295.443 651.453 294.365H650.445ZM648.781 290.463C649.783 290.463 650.451 291.201 650.475 292.32H646.994C647.07 291.201 647.773 290.463 648.781 290.463ZM652.971 291.412C652.971 292.326 653.51 292.836 654.693 293.123L655.777 293.387C656.451 293.551 656.779 293.844 656.779 294.277C656.779 294.857 656.17 295.262 655.32 295.262C654.512 295.262 654.008 294.922 653.838 294.389H652.801C652.912 295.438 653.879 296.111 655.285 296.111C656.721 296.111 657.816 295.332 657.816 294.201C657.816 293.293 657.242 292.777 656.053 292.49L655.08 292.256C654.336 292.074 653.984 291.805 653.984 291.371C653.984 290.809 654.57 290.428 655.32 290.428C656.082 290.428 656.574 290.762 656.709 291.266H657.705C657.57 290.229 656.65 289.572 655.326 289.572C653.984 289.572 652.971 290.363 652.971 291.412ZM566.217 304.465C566.604 304.465 566.92 304.148 566.92 303.762C566.92 303.375 566.604 303.059 566.217 303.059C565.83 303.059 565.514 303.375 565.514 303.762C565.514 304.148 565.83 304.465 566.217 304.465ZM565.713 312H566.721V305.684H565.713V312ZM568.643 312H569.65V308.262C569.65 307.154 570.301 306.48 571.309 306.48C572.316 306.48 572.797 307.02 572.797 308.156V312H573.805V307.91C573.805 306.41 573.014 305.572 571.596 305.572C570.629 305.572 570.014 305.982 569.697 306.68H569.604V305.684H568.643V312ZM580.877 307.617C580.701 306.492 579.764 305.572 578.229 305.572C576.459 305.572 575.334 306.85 575.334 308.818C575.334 310.828 576.465 312.111 578.234 312.111C579.752 312.111 580.695 311.256 580.877 310.096H579.857C579.67 310.811 579.078 311.203 578.229 311.203C577.104 311.203 576.377 310.277 576.377 308.818C576.377 307.389 577.092 306.48 578.229 306.48C579.137 306.48 579.693 306.99 579.857 307.617H580.877ZM584.961 312.111C586.76 312.111 587.873 310.869 587.873 308.842C587.873 306.809 586.76 305.572 584.961 305.572C583.162 305.572 582.049 306.809 582.049 308.842C582.049 310.869 583.162 312.111 584.961 312.111ZM584.961 311.203C583.766 311.203 583.092 310.336 583.092 308.842C583.092 307.342 583.766 306.48 584.961 306.48C586.156 306.48 586.83 307.342 586.83 308.842C586.83 310.336 586.156 311.203 584.961 311.203ZM589.455 312H590.463V308.086C590.463 307.195 591.102 306.48 591.928 306.48C592.725 306.48 593.246 306.961 593.246 307.711V312H594.254V307.939C594.254 307.137 594.84 306.48 595.719 306.48C596.609 306.48 597.049 306.938 597.049 307.869V312H598.057V307.635C598.057 306.311 597.336 305.572 596.047 305.572C595.174 305.572 594.453 306.012 594.113 306.68H594.02C593.727 306.023 593.129 305.572 592.273 305.572C591.43 305.572 590.797 305.977 590.51 306.68H590.416V305.684H589.455V312ZM602.973 305.572C602.111 305.572 601.355 306.012 600.951 306.738H600.857V305.684H599.896V314.109H600.904V311.051H600.998C601.344 311.719 602.07 312.111 602.973 312.111C604.578 312.111 605.627 310.816 605.627 308.842C605.627 306.855 604.584 305.572 602.973 305.572ZM602.732 311.203C601.596 311.203 600.875 310.289 600.875 308.842C600.875 307.389 601.596 306.48 602.738 306.48C603.893 306.48 604.584 307.365 604.584 308.842C604.584 310.318 603.893 311.203 602.732 311.203ZM607.268 312H608.275V303.176H607.268V312ZM614.416 310.365C614.152 310.922 613.602 311.221 612.787 311.221C611.715 311.221 611.018 310.43 610.965 309.182V309.135H615.506V308.748C615.506 306.785 614.469 305.572 612.764 305.572C611.029 305.572 609.916 306.861 609.916 308.848C609.916 310.846 611.012 312.111 612.764 312.111C614.146 312.111 615.131 311.443 615.424 310.365H614.416ZM612.752 306.463C613.754 306.463 614.422 307.201 614.445 308.32H610.965C611.041 307.201 611.744 306.463 612.752 306.463ZM617.51 304.049V305.684H616.49V306.527H617.51V310.359C617.51 311.566 618.031 312.047 619.332 312.047C619.531 312.047 619.725 312.023 619.924 311.988V311.139C619.736 311.156 619.637 311.162 619.455 311.162C618.799 311.162 618.518 310.846 618.518 310.102V306.527H619.924V305.684H618.518V304.049H617.51ZM625.537 310.365C625.273 310.922 624.723 311.221 623.908 311.221C622.836 311.221 622.139 310.43 622.086 309.182V309.135H626.627V308.748C626.627 306.785 625.59 305.572 623.885 305.572C622.15 305.572 621.037 306.861 621.037 308.848C621.037 310.846 622.133 312.111 623.885 312.111C625.268 312.111 626.252 311.443 626.545 310.365H625.537ZM623.873 306.463C624.875 306.463 625.543 307.201 625.566 308.32H622.086C622.162 307.201 622.865 306.463 623.873 306.463Z" fill="#2A2F45"/>
<path d="M48 264C48 259.582 51.5817 256 56 256H224C228.418 256 232 259.582 232 264V312C232 316.418 228.418 320 224 320H56C51.5817 320 48 316.418 48 312V264Z" fill="white"/>
<path d="M74.0176 284V277.443H74.1113L78.6992 284H79.7246V275.545H78.6816V282.125H78.5879L74 275.545H72.9746V284H74.0176ZM84.3477 284.111C86.1465 284.111 87.2598 282.869 87.2598 280.842C87.2598 278.809 86.1465 277.572 84.3477 277.572C82.5488 277.572 81.4355 278.809 81.4355 280.842C81.4355 282.869 82.5488 284.111 84.3477 284.111ZM84.3477 283.203C83.1523 283.203 82.4785 282.336 82.4785 280.842C82.4785 279.342 83.1523 278.48 84.3477 278.48C85.543 278.48 86.2168 279.342 86.2168 280.842C86.2168 282.336 85.543 283.203 84.3477 283.203ZM89.2637 276.049V277.684H88.2441V278.527H89.2637V282.359C89.2637 283.566 89.7852 284.047 91.0859 284.047C91.2852 284.047 91.4785 284.023 91.6777 283.988V283.139C91.4902 283.156 91.3906 283.162 91.209 283.162C90.5527 283.162 90.2715 282.846 90.2715 282.102V278.527H91.6777V277.684H90.2715V276.049H89.2637ZM93.7285 276.465C94.1152 276.465 94.4316 276.148 94.4316 275.762C94.4316 275.375 94.1152 275.059 93.7285 275.059C93.3418 275.059 93.0254 275.375 93.0254 275.762C93.0254 276.148 93.3418 276.465 93.7285 276.465ZM93.2246 284H94.2324V277.684H93.2246V284ZM96.5762 284H97.584V278.527H99.0312V277.684H97.584V277.01C97.584 276.318 97.8887 275.967 98.6152 275.967C98.7969 275.967 98.9668 275.973 99.0898 275.996V275.176C98.8789 275.135 98.6562 275.117 98.4102 275.117C97.209 275.117 96.5762 275.721 96.5762 276.98V277.684H95.5273V278.527H96.5762V284ZM101.041 286.285C102.16 286.285 102.664 285.852 103.203 284.387L105.67 277.684H104.598L102.869 282.881H102.775L101.041 277.684H99.9512L102.289 284.006L102.172 284.381C101.908 285.143 101.592 285.418 101.012 285.418C100.871 285.418 100.713 285.412 100.59 285.389V286.25C100.73 286.273 100.906 286.285 101.041 286.285ZM115.631 279.617C115.455 278.492 114.518 277.572 112.982 277.572C111.213 277.572 110.088 278.85 110.088 280.818C110.088 282.828 111.219 284.111 112.988 284.111C114.506 284.111 115.449 283.256 115.631 282.096H114.611C114.424 282.811 113.832 283.203 112.982 283.203C111.857 283.203 111.131 282.277 111.131 280.818C111.131 279.389 111.846 278.48 112.982 278.48C113.891 278.48 114.447 278.99 114.611 279.617H115.631ZM122.229 277.684H121.221V281.422C121.221 282.529 120.611 283.191 119.498 283.191C118.49 283.191 118.068 282.664 118.068 281.527V277.684H117.061V281.773C117.061 283.268 117.799 284.111 119.217 284.111C120.184 284.111 120.857 283.713 121.174 283.01H121.268V284H122.229V277.684ZM123.98 279.412C123.98 280.326 124.52 280.836 125.703 281.123L126.787 281.387C127.461 281.551 127.789 281.844 127.789 282.277C127.789 282.857 127.18 283.262 126.33 283.262C125.521 283.262 125.018 282.922 124.848 282.389H123.811C123.922 283.438 124.889 284.111 126.295 284.111C127.73 284.111 128.826 283.332 128.826 282.201C128.826 281.293 128.252 280.777 127.062 280.49L126.09 280.256C125.346 280.074 124.994 279.805 124.994 279.371C124.994 278.809 125.58 278.428 126.33 278.428C127.092 278.428 127.584 278.762 127.719 279.266H128.715C128.58 278.229 127.66 277.572 126.336 277.572C124.994 277.572 123.98 278.363 123.98 279.412ZM130.771 276.049V277.684H129.752V278.527H130.771V282.359C130.771 283.566 131.293 284.047 132.594 284.047C132.793 284.047 132.986 284.023 133.186 283.988V283.139C132.998 283.156 132.898 283.162 132.717 283.162C132.061 283.162 131.779 282.846 131.779 282.102V278.527H133.186V277.684H131.779V276.049H130.771ZM137.211 284.111C139.01 284.111 140.123 282.869 140.123 280.842C140.123 278.809 139.01 277.572 137.211 277.572C135.412 277.572 134.299 278.809 134.299 280.842C134.299 282.869 135.412 284.111 137.211 284.111ZM137.211 283.203C136.016 283.203 135.342 282.336 135.342 280.842C135.342 279.342 136.016 278.48 137.211 278.48C138.406 278.48 139.08 279.342 139.08 280.842C139.08 282.336 138.406 283.203 137.211 283.203ZM141.705 284H142.713V280.086C142.713 279.195 143.352 278.48 144.178 278.48C144.975 278.48 145.496 278.961 145.496 279.711V284H146.504V279.939C146.504 279.137 147.09 278.48 147.969 278.48C148.859 278.48 149.299 278.938 149.299 279.869V284H150.307V279.635C150.307 278.311 149.586 277.572 148.297 277.572C147.424 277.572 146.703 278.012 146.363 278.68H146.27C145.977 278.023 145.379 277.572 144.523 277.572C143.68 277.572 143.047 277.977 142.76 278.68H142.666V277.684H141.705V284ZM156.33 282.365C156.066 282.922 155.516 283.221 154.701 283.221C153.629 283.221 152.932 282.43 152.879 281.182V281.135H157.42V280.748C157.42 278.785 156.383 277.572 154.678 277.572C152.943 277.572 151.83 278.861 151.83 280.848C151.83 282.846 152.926 284.111 154.678 284.111C156.061 284.111 157.045 283.443 157.338 282.365H156.33ZM154.666 278.463C155.668 278.463 156.336 279.201 156.359 280.32H152.879C152.955 279.201 153.658 278.463 154.666 278.463ZM159.002 284H160.01V280.086C160.01 279.195 160.707 278.551 161.668 278.551C161.867 278.551 162.23 278.586 162.312 278.609V277.602C162.184 277.584 161.973 277.572 161.809 277.572C160.971 277.572 160.244 278.006 160.057 278.621H159.963V277.684H159.002V284ZM167.381 276.049V277.684H166.361V278.527H167.381V282.359C167.381 283.566 167.902 284.047 169.203 284.047C169.402 284.047 169.596 284.023 169.795 283.988V283.139C169.607 283.156 169.508 283.162 169.326 283.162C168.67 283.162 168.389 282.846 168.389 282.102V278.527H169.795V277.684H168.389V276.049H167.381ZM171.377 284H172.385V280.262C172.385 279.195 173.006 278.48 174.137 278.48C175.092 278.48 175.596 279.037 175.596 280.156V284H176.604V279.91C176.604 278.428 175.76 277.572 174.424 277.572C173.457 277.572 172.795 277.982 172.479 278.68H172.385V275.176H171.377V284ZM180.201 284.111C181.045 284.111 181.736 283.742 182.146 283.068H182.24V284H183.201V279.676C183.201 278.363 182.34 277.572 180.799 277.572C179.451 277.572 178.455 278.24 178.32 279.254H179.34C179.48 278.756 180.008 278.469 180.764 278.469C181.707 278.469 182.193 278.896 182.193 279.676V280.25L180.371 280.361C178.9 280.449 178.068 281.1 178.068 282.23C178.068 283.385 178.977 284.111 180.201 284.111ZM180.389 283.227C179.656 283.227 179.111 282.852 179.111 282.207C179.111 281.574 179.533 281.24 180.494 281.176L182.193 281.064V281.645C182.193 282.547 181.426 283.227 180.389 283.227ZM185.486 276.049V277.684H184.467V278.527H185.486V282.359C185.486 283.566 186.008 284.047 187.309 284.047C187.508 284.047 187.701 284.023 187.9 283.988V283.139C187.713 283.156 187.613 283.162 187.432 283.162C186.775 283.162 186.494 282.846 186.494 282.102V278.527H187.9V277.684H186.494V276.049H185.486ZM194.58 280.104H195.629C196.818 280.104 197.551 280.713 197.551 281.691C197.551 282.641 196.76 283.279 195.646 283.279C194.557 283.279 193.795 282.711 193.701 281.82H192.682C192.758 283.256 193.941 284.199 195.658 284.199C197.34 284.199 198.635 283.139 198.635 281.721C198.635 280.543 197.908 279.799 196.812 279.623V279.529C197.68 279.277 198.312 278.604 198.318 277.584C198.324 276.4 197.363 275.346 195.693 275.346C193.982 275.346 192.934 276.359 192.828 277.736H193.854C193.941 276.787 194.604 276.266 195.623 276.266C196.643 276.266 197.246 276.91 197.246 277.701C197.246 278.58 196.555 279.201 195.582 279.201H194.58V280.104ZM200.463 275.545V284H203.363C205.877 284 207.354 282.436 207.354 279.77C207.354 277.109 205.871 275.545 203.363 275.545H200.463ZM201.518 276.494H203.293C205.168 276.494 206.275 277.713 206.275 279.781C206.275 281.844 205.18 283.051 203.293 283.051H201.518V276.494ZM89.3574 297.791C89.4688 299.25 90.7051 300.199 92.498 300.199C94.4316 300.199 95.6562 299.209 95.6562 297.656C95.6562 296.414 94.9531 295.734 93.2012 295.295L92.3164 295.061C91.1504 294.762 90.6875 294.381 90.6875 293.719C90.6875 292.863 91.4316 292.301 92.5566 292.301C93.6113 292.301 94.3262 292.816 94.4727 293.684H95.5332C95.4453 292.318 94.2266 291.346 92.5918 291.346C90.8047 291.346 89.6035 292.318 89.6035 293.754C89.6035 294.955 90.2656 295.646 91.7949 296.033L92.8789 296.314C94.0449 296.607 94.5723 297.064 94.5723 297.785C94.5723 298.623 93.7344 299.238 92.5977 299.238C91.3965 299.238 90.5527 298.676 90.4238 297.791H89.3574ZM101.469 298.365C101.205 298.922 100.654 299.221 99.8398 299.221C98.7676 299.221 98.0703 298.43 98.0176 297.182V297.135H102.559V296.748C102.559 294.785 101.521 293.572 99.8164 293.572C98.082 293.572 96.9688 294.861 96.9688 296.848C96.9688 298.846 98.0645 300.111 99.8164 300.111C101.199 300.111 102.184 299.443 102.477 298.365H101.469ZM99.8047 294.463C100.807 294.463 101.475 295.201 101.498 296.32H98.0176C98.0938 295.201 98.7969 294.463 99.8047 294.463ZM109.367 295.617C109.191 294.492 108.254 293.572 106.719 293.572C104.949 293.572 103.824 294.85 103.824 296.818C103.824 298.828 104.955 300.111 106.725 300.111C108.242 300.111 109.186 299.256 109.367 298.096H108.348C108.16 298.811 107.568 299.203 106.719 299.203C105.594 299.203 104.867 298.277 104.867 296.818C104.867 295.389 105.582 294.48 106.719 294.48C107.627 294.48 108.184 294.99 108.348 295.617H109.367ZM115.965 293.684H114.957V297.422C114.957 298.529 114.348 299.191 113.234 299.191C112.227 299.191 111.805 298.664 111.805 297.527V293.684H110.797V297.773C110.797 299.268 111.535 300.111 112.953 300.111C113.92 300.111 114.594 299.713 114.91 299.01H115.004V300H115.965V293.684ZM117.863 300H118.871V296.086C118.871 295.195 119.568 294.551 120.529 294.551C120.729 294.551 121.092 294.586 121.174 294.609V293.602C121.045 293.584 120.834 293.572 120.67 293.572C119.832 293.572 119.105 294.006 118.918 294.621H118.824V293.684H117.863V300ZM126.441 298.365C126.178 298.922 125.627 299.221 124.812 299.221C123.74 299.221 123.043 298.43 122.99 297.182V297.135H127.531V296.748C127.531 294.785 126.494 293.572 124.789 293.572C123.055 293.572 121.941 294.861 121.941 296.848C121.941 298.846 123.037 300.111 124.789 300.111C126.172 300.111 127.156 299.443 127.449 298.365H126.441ZM124.777 294.463C125.779 294.463 126.447 295.201 126.471 296.32H122.99C123.066 295.201 123.77 294.463 124.777 294.463ZM133.027 292.465C133.414 292.465 133.73 292.148 133.73 291.762C133.73 291.375 133.414 291.059 133.027 291.059C132.641 291.059 132.324 291.375 132.324 291.762C132.324 292.148 132.641 292.465 133.027 292.465ZM132.523 300H133.531V293.684H132.523V300ZM135.307 295.412C135.307 296.326 135.846 296.836 137.029 297.123L138.113 297.387C138.787 297.551 139.115 297.844 139.115 298.277C139.115 298.857 138.506 299.262 137.656 299.262C136.848 299.262 136.344 298.922 136.174 298.389H135.137C135.248 299.438 136.215 300.111 137.621 300.111C139.057 300.111 140.152 299.332 140.152 298.201C140.152 297.293 139.578 296.777 138.389 296.49L137.416 296.256C136.672 296.074 136.32 295.805 136.32 295.371C136.32 294.809 136.906 294.428 137.656 294.428C138.418 294.428 138.91 294.762 139.045 295.266H140.041C139.906 294.229 138.986 293.572 137.662 293.572C136.32 293.572 135.307 294.363 135.307 295.412ZM145.121 300H146.129V296.086C146.129 295.195 146.826 294.551 147.787 294.551C147.986 294.551 148.35 294.586 148.432 294.609V293.602C148.303 293.584 148.092 293.572 147.928 293.572C147.09 293.572 146.363 294.006 146.176 294.621H146.082V293.684H145.121V300ZM153.699 298.365C153.436 298.922 152.885 299.221 152.07 299.221C150.998 299.221 150.301 298.43 150.248 297.182V297.135H154.789V296.748C154.789 294.785 153.752 293.572 152.047 293.572C150.312 293.572 149.199 294.861 149.199 296.848C149.199 298.846 150.295 300.111 152.047 300.111C153.43 300.111 154.414 299.443 154.707 298.365H153.699ZM152.035 294.463C153.037 294.463 153.705 295.201 153.729 296.32H150.248C150.324 295.201 151.027 294.463 152.035 294.463ZM158.697 293.572C157.098 293.572 156.055 294.861 156.055 296.842C156.055 298.834 157.086 300.111 158.697 300.111C159.588 300.111 160.268 299.742 160.672 299.051H160.766V302.109H161.785V293.684H160.812V294.738H160.719C160.344 294.029 159.559 293.572 158.697 293.572ZM158.926 299.203C157.777 299.203 157.098 298.324 157.098 296.842C157.098 295.365 157.783 294.48 158.932 294.48C160.074 294.48 160.795 295.395 160.795 296.842C160.795 298.295 160.08 299.203 158.926 299.203ZM168.793 293.684H167.785V297.422C167.785 298.529 167.176 299.191 166.062 299.191C165.055 299.191 164.633 298.664 164.633 297.527V293.684H163.625V297.773C163.625 299.268 164.363 300.111 165.781 300.111C166.748 300.111 167.422 299.713 167.738 299.01H167.832V300H168.793V293.684ZM171.219 292.465C171.605 292.465 171.922 292.148 171.922 291.762C171.922 291.375 171.605 291.059 171.219 291.059C170.832 291.059 170.516 291.375 170.516 291.762C170.516 292.148 170.832 292.465 171.219 292.465ZM170.715 300H171.723V293.684H170.715V300ZM173.645 300H174.652V296.086C174.652 295.195 175.35 294.551 176.311 294.551C176.51 294.551 176.873 294.586 176.955 294.609V293.602C176.826 293.584 176.615 293.572 176.451 293.572C175.613 293.572 174.887 294.006 174.699 294.621H174.605V293.684H173.645V300ZM182.223 298.365C181.959 298.922 181.408 299.221 180.594 299.221C179.521 299.221 178.824 298.43 178.771 297.182V297.135H183.312V296.748C183.312 294.785 182.275 293.572 180.57 293.572C178.836 293.572 177.723 294.861 177.723 296.848C177.723 298.846 178.818 300.111 180.57 300.111C181.953 300.111 182.938 299.443 183.23 298.365H182.223ZM180.559 294.463C181.561 294.463 182.229 295.201 182.252 296.32H178.771C178.848 295.201 179.551 294.463 180.559 294.463ZM187.232 300.111C188.105 300.111 188.855 299.695 189.254 298.992H189.348V300H190.309V291.176H189.301V294.68H189.213C188.855 293.988 188.111 293.572 187.232 293.572C185.627 293.572 184.578 294.861 184.578 296.842C184.578 298.828 185.615 300.111 187.232 300.111ZM187.467 294.48C188.609 294.48 189.324 295.395 189.324 296.842C189.324 298.301 188.615 299.203 187.467 299.203C186.312 299.203 185.621 298.318 185.621 296.842C185.621 295.371 186.318 294.48 187.467 294.48Z" fill="#2A2F45"/>
<rect x="48.5" y="256.5" width="183" height="63" rx="7.5" stroke="#E3E8EE"/>
<path d="M48 360C48 355.582 51.5817 352 56 352H224C228.418 352 232 355.582 232 360V408C232 412.418 228.418 416 224 416H56C51.5817 416 48 412.418 48 408V360Z" fill="white"/>
<path d="M122.902 380.199C124.701 380.199 126.037 379.197 126.318 377.645H125.246C124.977 378.623 124.08 379.227 122.902 379.227C121.273 379.227 120.254 377.896 120.254 375.775C120.254 373.654 121.273 372.318 122.896 372.318C124.062 372.318 124.965 373.004 125.246 374.094H126.318C126.066 372.465 124.678 371.346 122.896 371.346C120.6 371.346 119.17 373.045 119.17 375.775C119.17 378.5 120.605 380.199 122.902 380.199ZM130.555 380.111C132.354 380.111 133.467 378.869 133.467 376.842C133.467 374.809 132.354 373.572 130.555 373.572C128.756 373.572 127.643 374.809 127.643 376.842C127.643 378.869 128.756 380.111 130.555 380.111ZM130.555 379.203C129.359 379.203 128.686 378.336 128.686 376.842C128.686 375.342 129.359 374.48 130.555 374.48C131.75 374.48 132.424 375.342 132.424 376.842C132.424 378.336 131.75 379.203 130.555 379.203ZM135.107 380H136.115V371.176H135.107V380ZM138.131 380H139.139V371.176H138.131V380ZM145.279 378.365C145.016 378.922 144.465 379.221 143.65 379.221C142.578 379.221 141.881 378.43 141.828 377.182V377.135H146.369V376.748C146.369 374.785 145.332 373.572 143.627 373.572C141.893 373.572 140.779 374.861 140.779 376.848C140.779 378.846 141.875 380.111 143.627 380.111C145.01 380.111 145.994 379.443 146.287 378.365H145.279ZM143.615 374.463C144.617 374.463 145.285 375.201 145.309 376.32H141.828C141.904 375.201 142.607 374.463 143.615 374.463ZM153.178 375.617C153.002 374.492 152.064 373.572 150.529 373.572C148.76 373.572 147.635 374.85 147.635 376.818C147.635 378.828 148.766 380.111 150.535 380.111C152.053 380.111 152.996 379.256 153.178 378.096H152.158C151.971 378.811 151.379 379.203 150.529 379.203C149.404 379.203 148.678 378.277 148.678 376.818C148.678 375.389 149.393 374.48 150.529 374.48C151.438 374.48 151.994 374.99 152.158 375.617H153.178ZM155.205 372.049V373.684H154.186V374.527H155.205V378.359C155.205 379.566 155.727 380.047 157.027 380.047C157.227 380.047 157.42 380.023 157.619 379.988V379.139C157.432 379.156 157.332 379.162 157.15 379.162C156.494 379.162 156.213 378.846 156.213 378.102V374.527H157.619V373.684H156.213V372.049H155.205ZM70.9531 392.104H72.002C73.1914 392.104 73.9238 392.713 73.9238 393.691C73.9238 394.641 73.1328 395.279 72.0195 395.279C70.9297 395.279 70.168 394.711 70.0742 393.82H69.0547C69.1309 395.256 70.3145 396.199 72.0312 396.199C73.7129 396.199 75.0078 395.139 75.0078 393.721C75.0078 392.543 74.2812 391.799 73.1855 391.623V391.529C74.0527 391.277 74.6855 390.604 74.6914 389.584C74.6973 388.4 73.7363 387.346 72.0664 387.346C70.3555 387.346 69.3066 388.359 69.2012 389.736H70.2266C70.3145 388.787 70.9766 388.266 71.9961 388.266C73.0156 388.266 73.6191 388.91 73.6191 389.701C73.6191 390.58 72.9277 391.201 71.9551 391.201H70.9531V392.104ZM76.8359 387.545V396H79.7363C82.25 396 83.7266 394.436 83.7266 391.77C83.7266 389.109 82.2441 387.545 79.7363 387.545H76.8359ZM77.8906 388.494H79.666C81.541 388.494 82.6484 389.713 82.6484 391.781C82.6484 393.844 81.5527 395.051 79.666 395.051H77.8906V388.494ZM88.5371 393.791C88.6484 395.25 89.8848 396.199 91.6777 396.199C93.6113 396.199 94.8359 395.209 94.8359 393.656C94.8359 392.414 94.1328 391.734 92.3809 391.295L91.4961 391.061C90.3301 390.762 89.8672 390.381 89.8672 389.719C89.8672 388.863 90.6113 388.301 91.7363 388.301C92.791 388.301 93.5059 388.816 93.6523 389.684H94.7129C94.625 388.318 93.4062 387.346 91.7715 387.346C89.9844 387.346 88.7832 388.318 88.7832 389.754C88.7832 390.955 89.4453 391.646 90.9746 392.033L92.0586 392.314C93.2246 392.607 93.752 393.064 93.752 393.785C93.752 394.623 92.9141 395.238 91.7773 395.238C90.5762 395.238 89.7324 394.676 89.6035 393.791H88.5371ZM100.648 394.365C100.385 394.922 99.834 395.221 99.0195 395.221C97.9473 395.221 97.25 394.43 97.1973 393.182V393.135H101.738V392.748C101.738 390.785 100.701 389.572 98.9961 389.572C97.2617 389.572 96.1484 390.861 96.1484 392.848C96.1484 394.846 97.2441 396.111 98.9961 396.111C100.379 396.111 101.363 395.443 101.656 394.365H100.648ZM98.9844 390.463C99.9863 390.463 100.654 391.201 100.678 392.32H97.1973C97.2734 391.201 97.9766 390.463 98.9844 390.463ZM108.547 391.617C108.371 390.492 107.434 389.572 105.898 389.572C104.129 389.572 103.004 390.85 103.004 392.818C103.004 394.828 104.135 396.111 105.904 396.111C107.422 396.111 108.365 395.256 108.547 394.096H107.527C107.34 394.811 106.748 395.203 105.898 395.203C104.773 395.203 104.047 394.277 104.047 392.818C104.047 391.389 104.762 390.48 105.898 390.48C106.807 390.48 107.363 390.99 107.527 391.617H108.547ZM115.145 389.684H114.137V393.422C114.137 394.529 113.527 395.191 112.414 395.191C111.406 395.191 110.984 394.664 110.984 393.527V389.684H109.977V393.773C109.977 395.268 110.715 396.111 112.133 396.111C113.1 396.111 113.773 395.713 114.09 395.01H114.184V396H115.145V389.684ZM117.043 396H118.051V392.086C118.051 391.195 118.748 390.551 119.709 390.551C119.908 390.551 120.271 390.586 120.354 390.609V389.602C120.225 389.584 120.014 389.572 119.85 389.572C119.012 389.572 118.285 390.006 118.098 390.621H118.004V389.684H117.043V396ZM125.621 394.365C125.357 394.922 124.807 395.221 123.992 395.221C122.92 395.221 122.223 394.43 122.17 393.182V393.135H126.711V392.748C126.711 390.785 125.674 389.572 123.969 389.572C122.234 389.572 121.121 390.861 121.121 392.848C121.121 394.846 122.217 396.111 123.969 396.111C125.352 396.111 126.336 395.443 126.629 394.365H125.621ZM123.957 390.463C124.959 390.463 125.627 391.201 125.65 392.32H122.17C122.246 391.201 122.949 390.463 123.957 390.463ZM133.438 396.111C134.281 396.111 134.973 395.742 135.383 395.068H135.477V396H136.438V391.676C136.438 390.363 135.576 389.572 134.035 389.572C132.688 389.572 131.691 390.24 131.557 391.254H132.576C132.717 390.756 133.244 390.469 134 390.469C134.943 390.469 135.43 390.896 135.43 391.676V392.25L133.607 392.361C132.137 392.449 131.305 393.1 131.305 394.23C131.305 395.385 132.213 396.111 133.438 396.111ZM133.625 395.227C132.893 395.227 132.348 394.852 132.348 394.207C132.348 393.574 132.77 393.24 133.73 393.176L135.43 393.064V393.645C135.43 394.547 134.662 395.227 133.625 395.227ZM143.41 389.684H142.402V393.422C142.402 394.529 141.793 395.191 140.68 395.191C139.672 395.191 139.25 394.664 139.25 393.527V389.684H138.242V393.773C138.242 395.268 138.98 396.111 140.398 396.111C141.365 396.111 142.039 395.713 142.355 395.01H142.449V396H143.41V389.684ZM145.73 388.049V389.684H144.711V390.527H145.73V394.359C145.73 395.566 146.252 396.047 147.553 396.047C147.752 396.047 147.945 396.023 148.145 395.988V395.139C147.957 395.156 147.857 395.162 147.676 395.162C147.02 395.162 146.738 394.846 146.738 394.102V390.527H148.145V389.684H146.738V388.049H145.73ZM149.727 396H150.734V392.262C150.734 391.195 151.355 390.48 152.486 390.48C153.441 390.48 153.945 391.037 153.945 392.156V396H154.953V391.91C154.953 390.428 154.109 389.572 152.773 389.572C151.807 389.572 151.145 389.982 150.828 390.68H150.734V387.176H149.727V396ZM160.977 394.365C160.713 394.922 160.162 395.221 159.348 395.221C158.275 395.221 157.578 394.43 157.525 393.182V393.135H162.066V392.748C162.066 390.785 161.029 389.572 159.324 389.572C157.59 389.572 156.477 390.861 156.477 392.848C156.477 394.846 157.572 396.111 159.324 396.111C160.707 396.111 161.691 395.443 161.984 394.365H160.977ZM159.312 390.463C160.314 390.463 160.982 391.201 161.006 392.32H157.525C157.602 391.201 158.305 390.463 159.312 390.463ZM163.648 396H164.656V392.262C164.656 391.154 165.307 390.48 166.314 390.48C167.322 390.48 167.803 391.02 167.803 392.156V396H168.811V391.91C168.811 390.41 168.02 389.572 166.602 389.572C165.635 389.572 165.02 389.982 164.703 390.68H164.609V389.684H163.648V396ZM171.078 388.049V389.684H170.059V390.527H171.078V394.359C171.078 395.566 171.6 396.047 172.9 396.047C173.1 396.047 173.293 396.023 173.492 395.988V395.139C173.305 395.156 173.205 395.162 173.023 395.162C172.367 395.162 172.086 394.846 172.086 394.102V390.527H173.492V389.684H172.086V388.049H171.078ZM175.543 388.465C175.93 388.465 176.246 388.148 176.246 387.762C176.246 387.375 175.93 387.059 175.543 387.059C175.156 387.059 174.84 387.375 174.84 387.762C174.84 388.148 175.156 388.465 175.543 388.465ZM175.039 396H176.047V389.684H175.039V396ZM183.195 391.617C183.02 390.492 182.082 389.572 180.547 389.572C178.777 389.572 177.652 390.85 177.652 392.818C177.652 394.828 178.783 396.111 180.553 396.111C182.07 396.111 183.014 395.256 183.195 394.096H182.176C181.988 394.811 181.396 395.203 180.547 395.203C179.422 395.203 178.695 394.277 178.695 392.818C178.695 391.389 179.41 390.48 180.547 390.48C181.455 390.48 182.012 390.99 182.176 391.617H183.195ZM186.441 396.111C187.285 396.111 187.977 395.742 188.387 395.068H188.48V396H189.441V391.676C189.441 390.363 188.58 389.572 187.039 389.572C185.691 389.572 184.695 390.24 184.561 391.254H185.58C185.721 390.756 186.248 390.469 187.004 390.469C187.947 390.469 188.434 390.896 188.434 391.676V392.25L186.611 392.361C185.141 392.449 184.309 393.1 184.309 394.23C184.309 395.385 185.217 396.111 186.441 396.111ZM186.629 395.227C185.896 395.227 185.352 394.852 185.352 394.207C185.352 393.574 185.773 393.24 186.734 393.176L188.434 393.064V393.645C188.434 394.547 187.666 395.227 186.629 395.227ZM191.727 388.049V389.684H190.707V390.527H191.727V394.359C191.727 395.566 192.248 396.047 193.549 396.047C193.748 396.047 193.941 396.023 194.141 395.988V395.139C193.953 395.156 193.854 395.162 193.672 395.162C193.016 395.162 192.734 394.846 192.734 394.102V390.527H194.141V389.684H192.734V388.049H191.727ZM196.191 388.465C196.578 388.465 196.895 388.148 196.895 387.762C196.895 387.375 196.578 387.059 196.191 387.059C195.805 387.059 195.488 387.375 195.488 387.762C195.488 388.148 195.805 388.465 196.191 388.465ZM195.688 396H196.695V389.684H195.688V396ZM201.213 396.111C203.012 396.111 204.125 394.869 204.125 392.842C204.125 390.809 203.012 389.572 201.213 389.572C199.414 389.572 198.301 390.809 198.301 392.842C198.301 394.869 199.414 396.111 201.213 396.111ZM201.213 395.203C200.018 395.203 199.344 394.336 199.344 392.842C199.344 391.342 200.018 390.48 201.213 390.48C202.408 390.48 203.082 391.342 203.082 392.842C203.082 394.336 202.408 395.203 201.213 395.203ZM205.707 396H206.715V392.262C206.715 391.154 207.365 390.48 208.373 390.48C209.381 390.48 209.861 391.02 209.861 392.156V396H210.869V391.91C210.869 390.41 210.078 389.572 208.66 389.572C207.693 389.572 207.078 389.982 206.762 390.68H206.668V389.684H205.707V396Z" fill="#2A2F45"/>
<rect x="48.5" y="352.5" width="183" height="63" rx="7.5" stroke="#E3E8EE"/>
<path d="M504 184C504 179.582 507.582 176 512 176H680C684.418 176 688 179.582 688 184V216C688 220.418 684.418 224 680 224H512C507.582 224 504 220.418 504 216V184Z" fill="#F8E5B9"/>
<path d="M528.752 195.545V204H529.807V200.982H531.934C533.521 200.982 534.652 199.863 534.652 198.281C534.652 196.67 533.545 195.545 531.945 195.545H528.752ZM529.807 196.482H531.67C532.895 196.482 533.568 197.121 533.568 198.281C533.568 199.4 532.871 200.045 531.67 200.045H529.807V196.482ZM537.775 204.111C538.619 204.111 539.311 203.742 539.721 203.068H539.814V204H540.775V199.676C540.775 198.363 539.914 197.572 538.373 197.572C537.025 197.572 536.029 198.24 535.895 199.254H536.914C537.055 198.756 537.582 198.469 538.338 198.469C539.281 198.469 539.768 198.896 539.768 199.676V200.25L537.945 200.361C536.475 200.449 535.643 201.1 535.643 202.23C535.643 203.385 536.551 204.111 537.775 204.111ZM537.963 203.227C537.23 203.227 536.686 202.852 536.686 202.207C536.686 201.574 537.107 201.24 538.068 201.176L539.768 201.064V201.645C539.768 202.547 539 203.227 537.963 203.227ZM542.943 206.285C544.062 206.285 544.566 205.852 545.105 204.387L547.572 197.684H546.5L544.771 202.881H544.678L542.943 197.684H541.854L544.191 204.006L544.074 204.381C543.811 205.143 543.494 205.418 542.914 205.418C542.773 205.418 542.615 205.412 542.492 205.389V206.25C542.633 206.273 542.809 206.285 542.943 206.285ZM548.92 204H549.928V200.086C549.928 199.195 550.566 198.48 551.393 198.48C552.189 198.48 552.711 198.961 552.711 199.711V204H553.719V199.939C553.719 199.137 554.305 198.48 555.184 198.48C556.074 198.48 556.514 198.938 556.514 199.869V204H557.521V199.635C557.521 198.311 556.801 197.572 555.512 197.572C554.639 197.572 553.918 198.012 553.578 198.68H553.484C553.191 198.023 552.594 197.572 551.738 197.572C550.895 197.572 550.262 197.977 549.975 198.68H549.881V197.684H548.92V204ZM563.545 202.365C563.281 202.922 562.73 203.221 561.916 203.221C560.844 203.221 560.146 202.43 560.094 201.182V201.135H564.635V200.748C564.635 198.785 563.598 197.572 561.893 197.572C560.158 197.572 559.045 198.861 559.045 200.848C559.045 202.846 560.141 204.111 561.893 204.111C563.275 204.111 564.26 203.443 564.553 202.365H563.545ZM561.881 198.463C562.883 198.463 563.551 199.201 563.574 200.32H560.094C560.17 199.201 560.873 198.463 561.881 198.463ZM566.217 204H567.225V200.262C567.225 199.154 567.875 198.48 568.883 198.48C569.891 198.48 570.371 199.02 570.371 200.156V204H571.379V199.91C571.379 198.41 570.588 197.572 569.17 197.572C568.203 197.572 567.588 197.982 567.271 198.68H567.178V197.684H566.217V204ZM573.646 196.049V197.684H572.627V198.527H573.646V202.359C573.646 203.566 574.168 204.047 575.469 204.047C575.668 204.047 575.861 204.023 576.061 203.988V203.139C575.873 203.156 575.773 203.162 575.592 203.162C574.936 203.162 574.654 202.846 574.654 202.102V198.527H576.061V197.684H574.654V196.049H573.646ZM580.971 204H581.979V200.086C581.979 199.195 582.676 198.551 583.637 198.551C583.836 198.551 584.199 198.586 584.281 198.609V197.602C584.152 197.584 583.941 197.572 583.777 197.572C582.939 197.572 582.213 198.006 582.025 198.621H581.932V197.684H580.971V204ZM589.549 202.365C589.285 202.922 588.734 203.221 587.92 203.221C586.848 203.221 586.15 202.43 586.098 201.182V201.135H590.639V200.748C590.639 198.785 589.602 197.572 587.896 197.572C586.162 197.572 585.049 198.861 585.049 200.848C585.049 202.846 586.145 204.111 587.896 204.111C589.279 204.111 590.264 203.443 590.557 202.365H589.549ZM587.885 198.463C588.887 198.463 589.555 199.201 589.578 200.32H586.098C586.174 199.201 586.877 198.463 587.885 198.463ZM594.547 197.572C592.947 197.572 591.904 198.861 591.904 200.842C591.904 202.834 592.936 204.111 594.547 204.111C595.438 204.111 596.117 203.742 596.521 203.051H596.615V206.109H597.635V197.684H596.662V198.738H596.568C596.193 198.029 595.408 197.572 594.547 197.572ZM594.775 203.203C593.627 203.203 592.947 202.324 592.947 200.842C592.947 199.365 593.633 198.48 594.781 198.48C595.924 198.48 596.645 199.395 596.645 200.842C596.645 202.295 595.93 203.203 594.775 203.203ZM604.643 197.684H603.635V201.422C603.635 202.529 603.025 203.191 601.912 203.191C600.904 203.191 600.482 202.664 600.482 201.527V197.684H599.475V201.773C599.475 203.268 600.213 204.111 601.631 204.111C602.598 204.111 603.271 203.713 603.588 203.01H603.682V204H604.643V197.684ZM607.068 196.465C607.455 196.465 607.771 196.148 607.771 195.762C607.771 195.375 607.455 195.059 607.068 195.059C606.682 195.059 606.365 195.375 606.365 195.762C606.365 196.148 606.682 196.465 607.068 196.465ZM606.564 204H607.572V197.684H606.564V204ZM609.494 204H610.502V200.086C610.502 199.195 611.199 198.551 612.16 198.551C612.359 198.551 612.723 198.586 612.805 198.609V197.602C612.676 197.584 612.465 197.572 612.301 197.572C611.463 197.572 610.736 198.006 610.549 198.621H610.455V197.684H609.494V204ZM618.072 202.365C617.809 202.922 617.258 203.221 616.443 203.221C615.371 203.221 614.674 202.43 614.621 201.182V201.135H619.162V200.748C619.162 198.785 618.125 197.572 616.42 197.572C614.686 197.572 613.572 198.861 613.572 200.848C613.572 202.846 614.668 204.111 616.42 204.111C617.803 204.111 618.787 203.443 619.08 202.365H618.072ZM616.408 198.463C617.41 198.463 618.078 199.201 618.102 200.32H614.621C614.697 199.201 615.4 198.463 616.408 198.463ZM620.598 199.412C620.598 200.326 621.137 200.836 622.32 201.123L623.404 201.387C624.078 201.551 624.406 201.844 624.406 202.277C624.406 202.857 623.797 203.262 622.947 203.262C622.139 203.262 621.635 202.922 621.465 202.389H620.428C620.539 203.438 621.506 204.111 622.912 204.111C624.348 204.111 625.443 203.332 625.443 202.201C625.443 201.293 624.869 200.777 623.68 200.49L622.707 200.256C621.963 200.074 621.611 199.805 621.611 199.371C621.611 198.809 622.197 198.428 622.947 198.428C623.709 198.428 624.201 198.762 624.336 199.266H625.332C625.197 198.229 624.277 197.572 622.953 197.572C621.611 197.572 620.598 198.363 620.598 199.412ZM632.17 204.111C633.014 204.111 633.705 203.742 634.115 203.068H634.209V204H635.17V199.676C635.17 198.363 634.309 197.572 632.768 197.572C631.42 197.572 630.424 198.24 630.289 199.254H631.309C631.449 198.756 631.977 198.469 632.732 198.469C633.676 198.469 634.162 198.896 634.162 199.676V200.25L632.34 200.361C630.869 200.449 630.037 201.1 630.037 202.23C630.037 203.385 630.945 204.111 632.17 204.111ZM632.357 203.227C631.625 203.227 631.08 202.852 631.08 202.207C631.08 201.574 631.502 201.24 632.463 201.176L634.162 201.064V201.645C634.162 202.547 633.395 203.227 632.357 203.227ZM642.26 199.617C642.084 198.492 641.146 197.572 639.611 197.572C637.842 197.572 636.717 198.85 636.717 200.818C636.717 202.828 637.848 204.111 639.617 204.111C641.135 204.111 642.078 203.256 642.26 202.096H641.24C641.053 202.811 640.461 203.203 639.611 203.203C638.486 203.203 637.76 202.277 637.76 200.818C637.76 199.389 638.475 198.48 639.611 198.48C640.52 198.48 641.076 198.99 641.24 199.617H642.26ZM644.287 196.049V197.684H643.268V198.527H644.287V202.359C644.287 203.566 644.809 204.047 646.109 204.047C646.309 204.047 646.502 204.023 646.701 203.988V203.139C646.514 203.156 646.414 203.162 646.232 203.162C645.576 203.162 645.295 202.846 645.295 202.102V198.527H646.701V197.684H645.295V196.049H644.287ZM648.752 196.465C649.139 196.465 649.455 196.148 649.455 195.762C649.455 195.375 649.139 195.059 648.752 195.059C648.365 195.059 648.049 195.375 648.049 195.762C648.049 196.148 648.365 196.465 648.752 196.465ZM648.248 204H649.256V197.684H648.248V204ZM653.773 204.111C655.572 204.111 656.686 202.869 656.686 200.842C656.686 198.809 655.572 197.572 653.773 197.572C651.975 197.572 650.861 198.809 650.861 200.842C650.861 202.869 651.975 204.111 653.773 204.111ZM653.773 203.203C652.578 203.203 651.904 202.336 651.904 200.842C651.904 199.342 652.578 198.48 653.773 198.48C654.969 198.48 655.643 199.342 655.643 200.842C655.643 202.336 654.969 203.203 653.773 203.203ZM658.268 204H659.275V200.262C659.275 199.154 659.926 198.48 660.934 198.48C661.941 198.48 662.422 199.02 662.422 200.156V204H663.43V199.91C663.43 198.41 662.639 197.572 661.221 197.572C660.254 197.572 659.639 197.982 659.322 198.68H659.229V197.684H658.268V204Z" fill="#2A2F45"/>
<path d="M596.75 232.5C596.75 232.086 596.414 231.75 596 231.75C595.586 231.75 595.25 232.086 595.25 232.5L596.75 232.5ZM595.47 248.03C595.763 248.323 596.237 248.323 596.53 248.03L601.303 243.257C601.596 242.964 601.596 242.49 601.303 242.197C601.01 241.904 600.536 241.904 600.243 242.197L596 246.439L591.757 242.197C591.464 241.904 590.99 241.904 590.697 242.197C590.404 242.49 590.404 242.964 590.697 243.257L595.47 248.03ZM595.25 232.5L595.25 247.5L596.75 247.5L596.75 232.5L595.25 232.5Z" fill="#8792A2"/>
<path d="M140.75 328.5C140.75 328.086 140.414 327.75 140 327.75C139.586 327.75 139.25 328.086 139.25 328.5L140.75 328.5ZM139.47 344.03C139.763 344.323 140.237 344.323 140.53 344.03L145.303 339.257C145.596 338.964 145.596 338.49 145.303 338.197C145.01 337.904 144.536 337.904 144.243 338.197L140 342.439L135.757 338.197C135.464 337.904 134.99 337.904 134.697 338.197C134.404 338.49 134.404 338.964 134.697 339.257L139.47 344.03ZM139.25 328.5L139.25 343.5L140.75 343.5L140.75 328.5L139.25 328.5Z" fill="#8792A2"/>
<path d="M495.5 288.75C495.914 288.75 496.25 288.414 496.25 288C496.25 287.586 495.914 287.25 495.5 287.25L495.5 288.75ZM239.97 287.47C239.677 287.763 239.677 288.237 239.97 288.53L244.743 293.303C245.036 293.596 245.51 293.596 245.803 293.303C246.096 293.01 246.096 292.536 245.803 292.243L241.561 288L245.803 283.757C246.096 283.464 246.096 282.99 245.803 282.697C245.51 282.404 245.036 282.404 244.743 282.697L239.97 287.47ZM495.5 287.25L240.5 287.25L240.5 288.75L495.5 288.75L495.5 287.25Z" fill="#8792A2"/>
<path d="M596.75 152.5C596.75 152.086 596.414 151.75 596 151.75C595.586 151.75 595.25 152.086 595.25 152.5L596.75 152.5ZM595.47 168.03C595.763 168.323 596.237 168.323 596.53 168.03L601.303 163.257C601.596 162.964 601.596 162.49 601.303 162.197C601.01 161.904 600.536 161.904 600.243 162.197L596 166.439L591.757 162.197C591.464 161.904 590.99 161.904 590.697 162.197C590.404 162.49 590.404 162.964 590.697 163.257L595.47 168.03ZM595.25 152.5L595.25 167.5L596.75 167.5L596.75 152.5L595.25 152.5Z" fill="#8792A2"/>
<defs>
<clipPath id="clip0">
<path d="M0 0H736V464H0V0Z" fill="white"/>
</clipPath>
</defs>
</svg>
