<svg xmlns="http://www.w3.org/2000/svg" xmlns:xlink="http://www.w3.org/1999/xlink" width="90" height="20" viewBox="0 0 90 20">
  <defs>
    <path id="complete-a" d="M3.97308155,9.90981266 L0.219669914,6.19095308 C-0.0732233047,5.89561148 -0.0732233047,5.41676812 0.219669914,5.12142651 C0.512563133,4.8260849 0.987436867,4.8260849 1.28033009,5.12142651 L4.50050854,8.29009934 L10.7166538,2.09650621 C11.009547,1.8011646 11.4844207,1.8011646 11.777314,2.09650621 C12.0702072,2.39184781 12.0702072,2.87069117 11.777314,3.16603278 L5.02455644,9.90634609 C4.7336832,10.1965302 4.26583035,10.1980727 3.97308155,9.90981266 Z"/>
  </defs>
  <g fill="none" fill-rule="evenodd">
    <rect width="90" height="20" fill="#D6ECFF" rx="10"/>
    <path fill="#556CD6" fill-rule="nonzero" d="M12.5292969,14.2050781 C10.1796875,14.2050781 8.71484375,12.5117188 8.71484375,9.77539062 C8.71484375,7.03320312 10.1738281,5.33984375 12.5234375,5.33984375 C14.3867188,5.33984375 15.828125,6.546875 16.0390625,8.26953125 L14.7324219,8.26953125 C14.4863281,7.23242188 13.6367188,6.56445312 12.5234375,6.56445312 C11.0058594,6.56445312 10.0566406,7.80078125 10.0566406,9.77539062 C10.0566406,11.7441406 11.0058594,12.9804688 12.5292969,12.9804688 C13.6484375,12.9804688 14.4980469,12.3769531 14.7324219,11.421875 L16.0390625,11.421875 C15.8046875,13.0917969 14.4160156,14.2050781 12.5292969,14.2050781 Z M20.3105469,14.1230469 C18.4414062,14.1230469 17.2988281,12.875 17.2988281,10.8066406 C17.2988281,8.75 18.4472656,7.49609375 20.3105469,7.49609375 C22.1679688,7.49609375 23.3164062,8.75 23.3164062,10.8066406 C23.3164062,12.875 22.1738281,14.1230469 20.3105469,14.1230469 Z M20.3105469,13.0039062 C21.4003906,13.0039062 22.0214844,12.1953125 22.0214844,10.8066406 C22.0214844,9.42382812 21.4003906,8.61523438 20.3105469,8.61523438 C19.2148438,8.61523438 18.5996094,9.42382812 18.5996094,10.8066406 C18.5996094,12.2011719 19.2148438,13.0039062 20.3105469,13.0039062 Z M24.828125,14 L24.828125,7.61914062 L26.0410156,7.61914062 L26.0410156,8.64453125 L26.1347656,8.64453125 C26.4160156,7.92382812 27.0605469,7.49609375 27.9101562,7.49609375 C28.7832031,7.49609375 29.3867188,7.94726562 29.6679688,8.64453125 L29.7675781,8.64453125 C30.0898438,7.94726562 30.8222656,7.49609375 31.7070312,7.49609375 C32.9960938,7.49609375 33.7460938,8.27539062 33.7460938,9.60546875 L33.7460938,14 L32.4863281,14 L32.4863281,9.93359375 C32.4863281,9.07226562 32.0761719,8.65039062 31.25,8.65039062 C30.4355469,8.65039062 29.9023438,9.23632812 29.9023438,9.98632812 L29.9023438,14 L28.6660156,14 L28.6660156,9.81054688 C28.6660156,9.08984375 28.1855469,8.65039062 27.4355469,8.65039062 C26.6679688,8.65039062 26.0878906,9.27734375 26.0878906,10.0976562 L26.0878906,14 L24.828125,14 Z M38.8261719,7.51367188 C40.4492188,7.51367188 41.4746094,8.77929688 41.4746094,10.8066406 C41.4746094,12.8339844 40.4492188,14.1054688 38.8378906,14.1054688 C37.9296875,14.1054688 37.2089844,13.7070312 36.875,13.0332031 L36.7753906,13.0332031 L36.7753906,16.1210938 L35.515625,16.1210938 L35.515625,7.61914062 L36.7285156,7.61914062 L36.7285156,8.67382812 L36.8222656,8.67382812 C37.2089844,7.94726562 37.9589844,7.51367188 38.8261719,7.51367188 Z M38.46875,12.9746094 C39.5410156,12.9746094 40.1796875,12.1601562 40.1796875,10.8066406 C40.1796875,9.45898438 39.5410156,8.64453125 38.4746094,8.64453125 C37.4140625,8.64453125 36.7519531,9.4765625 36.7519531,10.8125 C36.7519531,12.1425781 37.4140625,12.9746094 38.46875,12.9746094 Z M43.0449219,14 L43.0449219,5.12890625 L44.3046875,5.12890625 L44.3046875,14 L43.0449219,14 Z M48.8105469,8.56835938 C47.8789062,8.56835938 47.2285156,9.22460938 47.1582031,10.2207031 L50.3808594,10.2207031 C50.3515625,9.21875 49.7421875,8.56835938 48.8105469,8.56835938 Z M50.375,12.2773438 L51.5878906,12.2773438 C51.3007812,13.4199219 50.28125,14.1230469 48.8222656,14.1230469 C46.9941406,14.1230469 45.875,12.8691406 45.875,10.8300781 C45.875,8.79101562 47.0175781,7.49609375 48.8164062,7.49609375 C50.5917969,7.49609375 51.6640625,8.70898438 51.6640625,10.7128906 L51.6640625,11.1523438 L47.1582031,11.1523438 L47.1582031,11.2226562 C47.1992188,12.3417969 47.8496094,13.0507812 48.8574219,13.0507812 C49.6191406,13.0507812 50.140625,12.7753906 50.375,12.2773438 Z M53.6210938,6.03125 L54.8808594,6.03125 L54.8808594,7.6484375 L56.2636719,7.6484375 L56.2636719,8.70898438 L54.8808594,8.70898438 L54.8808594,11.9902344 C54.8808594,12.6582031 55.15625,12.9511719 55.7832031,12.9511719 C55.9765625,12.9511719 56.0878906,12.9394531 56.2636719,12.921875 L56.2636719,13.9707031 C56.0585938,14.0058594 55.8242188,14.0351562 55.578125,14.0351562 C54.1777344,14.0351562 53.6210938,13.5429688 53.6210938,12.3125 L53.6210938,8.70898438 L52.6074219,8.70898438 L52.6074219,7.6484375 L53.6210938,7.6484375 L53.6210938,6.03125 Z M60.3652344,8.56835938 C59.4335938,8.56835938 58.7832031,9.22460938 58.7128906,10.2207031 L61.9355469,10.2207031 C61.90625,9.21875 61.296875,8.56835938 60.3652344,8.56835938 Z M61.9296875,12.2773438 L63.1425781,12.2773438 C62.8554688,13.4199219 61.8359375,14.1230469 60.3769531,14.1230469 C58.5488281,14.1230469 57.4296875,12.8691406 57.4296875,10.8300781 C57.4296875,8.79101562 58.5722656,7.49609375 60.3710938,7.49609375 C62.1464844,7.49609375 63.21875,8.70898438 63.21875,10.7128906 L63.21875,11.1523438 L58.7128906,11.1523438 L58.7128906,11.2226562 C58.7539062,12.3417969 59.4042969,13.0507812 60.4121094,13.0507812 C61.1738281,13.0507812 61.6953125,12.7753906 61.9296875,12.2773438 Z"/>
    <g transform="translate(70 4)">
      <mask id="complete-b" fill="#fff">
        <use xlink:href="#complete-a"/>
      </mask>
      <use fill="#000" xlink:href="#complete-a"/>
      <g fill="#6F8EEF" mask="url(#complete-b)">
        <rect width="12" height="12"/>
      </g>
    </g>
  </g>
</svg>
