<svg xmlns="http://www.w3.org/2000/svg" xmlns:xlink="http://www.w3.org/1999/xlink" width="81" height="20" viewBox="0 0 81 20">
  <defs>
    <path id="enabled-a" d="M3.97308155,9.90981266 L0.219669914,6.19095308 C-0.0732233047,5.89561148 -0.0732233047,5.41676812 0.219669914,5.12142651 C0.512563133,4.8260849 0.987436867,4.8260849 1.28033009,5.12142651 L4.50050854,8.29009934 L10.7166538,2.09650621 C11.009547,1.8011646 11.4844207,1.8011646 11.777314,2.09650621 C12.0702072,2.39184781 12.0702072,2.87069117 11.777314,3.16603278 L5.02455644,9.90634609 C4.7336832,10.1965302 4.26583035,10.1980727 3.97308155,9.90981266 Z"/>
  </defs>
  <g fill="none" fill-rule="evenodd">
    <rect width="81" height="20" fill="#D6ECFF" rx="10"/>
    <path fill="#556CD6" fill-rule="nonzero" d="M14.4277344,12.8046875 L14.4277344,14 L9.06054688,14 L9.06054688,5.54492188 L14.4277344,5.54492188 L14.4277344,6.74023438 L10.3730469,6.74023438 L10.3730469,9.13085938 L14.2109375,9.13085938 L14.2109375,10.2675781 L10.3730469,10.2675781 L10.3730469,12.8046875 L14.4277344,12.8046875 Z M16.1738281,14 L16.1738281,7.61914062 L17.3867188,7.61914062 L17.3867188,8.6328125 L17.4804688,8.6328125 C17.7910156,7.92382812 18.4238281,7.49609375 19.3847656,7.49609375 C20.8085938,7.49609375 21.59375,8.3515625 21.59375,9.86914062 L21.59375,14 L20.3339844,14 L20.3339844,10.1855469 C20.3339844,9.16015625 19.8886719,8.65039062 18.9570312,8.65039062 C18.0253906,8.65039062 17.4335938,9.27148438 17.4335938,10.2675781 L17.4335938,14 L16.1738281,14 Z M25.4492188,13.0449219 C26.3984375,13.0449219 27.1015625,12.4414062 27.1015625,11.6503906 L27.1015625,11.1171875 L25.5429688,11.2167969 C24.6640625,11.2753906 24.265625,11.5742188 24.265625,12.1367188 C24.265625,12.7109375 24.7636719,13.0449219 25.4492188,13.0449219 Z M25.1269531,14.1054688 C23.8964844,14.1054688 23,13.3613281 23,12.1953125 C23,11.046875 23.8554688,10.3847656 25.3730469,10.2910156 L27.1015625,10.1914062 L27.1015625,9.640625 C27.1015625,8.96679688 26.65625,8.5859375 25.7949219,8.5859375 C25.0917969,8.5859375 24.6054688,8.84375 24.4648438,9.29492188 L23.2460938,9.29492188 C23.375,8.19921875 24.40625,7.49609375 25.8535156,7.49609375 C27.453125,7.49609375 28.3554688,8.29296875 28.3554688,9.640625 L28.3554688,14 L27.1425781,14 L27.1425781,13.1035156 L27.0429688,13.1035156 C26.6621094,13.7421875 25.9648438,14.1054688 25.1269531,14.1054688 Z M33.5292969,14.1054688 C32.6386719,14.1054688 31.8945312,13.6953125 31.5136719,12.9921875 L31.4199219,12.9921875 L31.4199219,14 L30.2070312,14 L30.2070312,5.12890625 L31.4667969,5.12890625 L31.4667969,8.6328125 L31.5664062,8.6328125 C31.90625,7.93554688 32.65625,7.51367188 33.5292969,7.51367188 C35.1464844,7.51367188 36.1660156,8.77929688 36.1660156,10.8066406 C36.1660156,12.828125 35.140625,14.1054688 33.5292969,14.1054688 Z M33.1660156,8.64453125 C32.1113281,8.64453125 31.4492188,9.4765625 31.4433594,10.8125 C31.4492188,12.1484375 32.1054688,12.9746094 33.1660156,12.9746094 C34.2324219,12.9746094 34.8710938,12.1601562 34.8710938,10.8066406 C34.8710938,9.46484375 34.2324219,8.64453125 33.1660156,8.64453125 Z M37.7363281,14 L37.7363281,5.12890625 L38.9960938,5.12890625 L38.9960938,14 L37.7363281,14 Z M43.5019531,8.56835938 C42.5703125,8.56835938 41.9199219,9.22460938 41.8496094,10.2207031 L45.0722656,10.2207031 C45.0429688,9.21875 44.4335938,8.56835938 43.5019531,8.56835938 Z M45.0664062,12.2773438 L46.2792969,12.2773438 C45.9921875,13.4199219 44.9726562,14.1230469 43.5136719,14.1230469 C41.6855469,14.1230469 40.5664062,12.8691406 40.5664062,10.8300781 C40.5664062,8.79101562 41.7089844,7.49609375 43.5078125,7.49609375 C45.2832031,7.49609375 46.3554688,8.70898438 46.3554688,10.7128906 L46.3554688,11.1523438 L41.8496094,11.1523438 L41.8496094,11.2226562 C41.890625,12.3417969 42.5410156,13.0507812 43.5488281,13.0507812 C44.3105469,13.0507812 44.8320312,12.7753906 45.0664062,12.2773438 Z M50.1992188,14.1054688 C48.5761719,14.1054688 47.5507812,12.828125 47.5507812,10.8066406 C47.5507812,8.79101562 48.5878906,7.51367188 50.1992188,7.51367188 C51.0722656,7.51367188 51.8105469,7.9296875 52.15625,8.6328125 L52.25,8.6328125 L52.25,5.12890625 L53.5097656,5.12890625 L53.5097656,14 L52.3027344,14 L52.3027344,12.9921875 L52.203125,12.9921875 C51.8222656,13.6894531 51.078125,14.1054688 50.1992188,14.1054688 Z M50.5566406,8.64453125 C49.4960938,8.64453125 48.8515625,9.46484375 48.8515625,10.8066406 C48.8515625,12.1601562 49.4902344,12.9746094 50.5566406,12.9746094 C51.6171875,12.9746094 52.2734375,12.1484375 52.2734375,10.8125 C52.2734375,9.48242188 51.6113281,8.64453125 50.5566406,8.64453125 Z"/>
    <g transform="translate(61 4)">
      <mask id="enabled-b" fill="#fff">
        <use xlink:href="#enabled-a"/>
      </mask>
      <use fill="#000" xlink:href="#enabled-a"/>
      <g fill="#6F8EEF" mask="url(#enabled-b)">
        <rect width="12" height="12"/>
      </g>
    </g>
  </g>
</svg>
