<svg xmlns="http://www.w3.org/2000/svg" xmlns:xlink="http://www.w3.org/1999/xlink" width="82" height="20" viewBox="0 0 82 20">
  <defs>
    <path id="pendingdisabled-a" d="M6,12 C2.6862915,12 0,9.3137085 0,6 C0,2.6862915 2.6862915,0 6,0 C9.3137085,0 12,2.6862915 12,6 C12,9.3137085 9.3137085,12 6,12 Z M3.39259923,9.66806094 C4.12821338,10.1919068 5.02812718,10.5 6,10.5 C8.48528137,10.5 10.5,8.48528137 10.5,6 C10.5,5.02812718 10.1919068,4.12821338 9.66806094,3.39259923 L3.39259923,9.66806094 Z M2.33193906,8.60740077 L8.60740077,2.33193906 C7.87178662,1.80809322 6.97187282,1.5 6,1.5 C3.51471863,1.5 1.5,3.51471863 1.5,6 C1.5,6.97187282 1.80809322,7.87178662 2.33193906,8.60740077 Z"/>
  </defs>
  <g fill="none" fill-rule="evenodd">
    <rect width="82" height="20" fill="#E4E9EF" rx="10"/>
    <path fill="#4F566B" fill-rule="nonzero" d="M9.06054688,5.54492188 L12.3710938,5.54492188 C14.0234375,5.54492188 15.1601562,6.6875 15.1601562,8.36328125 C15.1601562,10.015625 13.9882812,11.1523438 12.3300781,11.1523438 L10.3730469,11.1523438 L10.3730469,14 L9.06054688,14 L9.06054688,5.54492188 Z M10.3730469,6.70507812 L10.3730469,9.99804688 L12.0253906,9.99804688 C13.15625,9.99804688 13.8183594,9.41210938 13.8183594,8.36328125 C13.8183594,7.29101562 13.1796875,6.70507812 12.0253906,6.70507812 L10.3730469,6.70507812 Z M19.3203125,8.56835938 C18.3886719,8.56835938 17.7382812,9.22460938 17.6679688,10.2207031 L20.890625,10.2207031 C20.8613281,9.21875 20.2519531,8.56835938 19.3203125,8.56835938 Z M20.8847656,12.2773438 L22.0976562,12.2773438 C21.8105469,13.4199219 20.7910156,14.1230469 19.3320312,14.1230469 C17.5039062,14.1230469 16.3847656,12.8691406 16.3847656,10.8300781 C16.3847656,8.79101562 17.5273438,7.49609375 19.3261719,7.49609375 C21.1015625,7.49609375 22.1738281,8.70898438 22.1738281,10.7128906 L22.1738281,11.1523438 L17.6679688,11.1523438 L17.6679688,11.2226562 C17.7089844,12.3417969 18.359375,13.0507812 19.3671875,13.0507812 C20.1289062,13.0507812 20.6503906,12.7753906 20.8847656,12.2773438 Z M23.6855469,14 L23.6855469,7.61914062 L24.8984375,7.61914062 L24.8984375,8.6328125 L24.9921875,8.6328125 C25.3027344,7.92382812 25.9355469,7.49609375 26.8964844,7.49609375 C28.3203125,7.49609375 29.1054688,8.3515625 29.1054688,9.86914062 L29.1054688,14 L27.8457031,14 L27.8457031,10.1855469 C27.8457031,9.16015625 27.4003906,8.65039062 26.46875,8.65039062 C25.5371094,8.65039062 24.9453125,9.27148438 24.9453125,10.2675781 L24.9453125,14 L23.6855469,14 Z M33.2070312,14.1054688 C31.5839844,14.1054688 30.5585938,12.828125 30.5585938,10.8066406 C30.5585938,8.79101562 31.5957031,7.51367188 33.2070312,7.51367188 C34.0800781,7.51367188 34.8183594,7.9296875 35.1640625,8.6328125 L35.2578125,8.6328125 L35.2578125,5.12890625 L36.5175781,5.12890625 L36.5175781,14 L35.3105469,14 L35.3105469,12.9921875 L35.2109375,12.9921875 C34.8300781,13.6894531 34.0859375,14.1054688 33.2070312,14.1054688 Z M33.5644531,8.64453125 C32.5039062,8.64453125 31.859375,9.46484375 31.859375,10.8066406 C31.859375,12.1601562 32.4980469,12.9746094 33.5644531,12.9746094 C34.625,12.9746094 35.28125,12.1484375 35.28125,10.8125 C35.28125,9.48242188 34.6191406,8.64453125 33.5644531,8.64453125 Z M38.4277344,14 L38.4277344,7.61914062 L39.6816406,7.61914062 L39.6816406,14 L38.4277344,14 Z M39.0546875,6.5 C38.5859375,6.5 38.2402344,6.16601562 38.2402344,5.73242188 C38.2402344,5.29296875 38.5859375,4.95898438 39.0546875,4.95898438 C39.5234375,4.95898438 39.8691406,5.29296875 39.8691406,5.73242188 C39.8691406,6.16601562 39.5234375,6.5 39.0546875,6.5 Z M41.5332031,14 L41.5332031,7.61914062 L42.7460938,7.61914062 L42.7460938,8.6328125 L42.8398438,8.6328125 C43.1503906,7.92382812 43.7832031,7.49609375 44.7441406,7.49609375 C46.1679688,7.49609375 46.953125,8.3515625 46.953125,9.86914062 L46.953125,14 L45.6933594,14 L45.6933594,10.1855469 C45.6933594,9.16015625 45.2480469,8.65039062 44.3164062,8.65039062 C43.3847656,8.65039062 42.7929688,9.27148438 42.7929688,10.2675781 L42.7929688,14 L41.5332031,14 Z M51.3945312,12.8164062 C52.4726562,12.8164062 53.1230469,12.0078125 53.1230469,10.7304688 C53.1230469,9.45898438 52.4667969,8.64453125 51.3945312,8.64453125 C50.3105469,8.64453125 49.7011719,9.45898438 49.7011719,10.7304688 C49.7011719,12.0019531 50.3105469,12.8164062 51.3945312,12.8164062 Z M51.4121094,16.4375 C49.8183594,16.4375 48.7871094,15.7226562 48.6523438,14.6386719 L49.9414062,14.6386719 C50.046875,15.1015625 50.5800781,15.4003906 51.4296875,15.4003906 C52.4785156,15.4003906 53.0996094,14.9023438 53.0996094,14.0585938 L53.0996094,12.8339844 L53.0058594,12.8339844 C52.6191406,13.5253906 51.9160156,13.90625 51.0371094,13.90625 C49.4082031,13.90625 48.4003906,12.6464844 48.4003906,10.7363281 C48.4003906,8.79101562 49.4199219,7.51367188 51.0488281,7.51367188 C51.9277344,7.51367188 52.6953125,7.94726562 53.0527344,8.63867188 L53.1523438,8.63867188 L53.1523438,7.61914062 L54.359375,7.61914062 L54.359375,14.0527344 C54.359375,15.5117188 53.2167969,16.4375 51.4121094,16.4375 Z"/>
    <g transform="translate(62 4)">
      <mask id="pendingdisabled-b" fill="#fff">
        <use xlink:href="#pendingdisabled-a"/>
      </mask>
      <use fill="#000" fill-rule="nonzero" xlink:href="#pendingdisabled-a"/>
      <g fill="#697386" mask="url(#pendingdisabled-b)">
        <rect width="12" height="12"/>
      </g>
    </g>
  </g>
</svg>
