<svg xmlns="http://www.w3.org/2000/svg" xmlns:xlink="http://www.w3.org/1999/xlink" width="86" height="20" viewBox="0 0 86 20">
  <defs>
    <path id="rejected-a" d="M6,12 C2.6862915,12 0,9.3137085 0,6 C0,2.6862915 2.6862915,0 6,0 C9.3137085,0 12,2.6862915 12,6 C12,9.3137085 9.3137085,12 6,12 Z M3.39259923,9.66806094 C4.12821338,10.1919068 5.02812718,10.5 6,10.5 C8.48528137,10.5 10.5,8.48528137 10.5,6 C10.5,5.02812718 10.1919068,4.12821338 9.66806094,3.39259923 L3.39259923,9.66806094 Z M2.33193906,8.60740077 L8.60740077,2.33193906 C7.87178662,1.80809322 6.97187282,1.5 6,1.5 C3.51471863,1.5 1.5,3.51471863 1.5,6 C1.5,6.97187282 1.80809322,7.87178662 2.33193906,8.60740077 Z"/>
  </defs>
  <g fill="none" fill-rule="evenodd">
    <rect width="86" height="20" fill="#E4E9EF" rx="10"/>
    <path fill="#4F566B" fill-rule="nonzero" d="M10.3730469,6.69921875 L10.3730469,9.65820312 L12.2597656,9.65820312 C13.2734375,9.65820312 13.859375,9.11914062 13.859375,8.17578125 C13.859375,7.25585938 13.2382812,6.69921875 12.2246094,6.69921875 L10.3730469,6.69921875 Z M10.3730469,10.7773438 L10.3730469,14 L9.06054688,14 L9.06054688,5.54492188 L12.40625,5.54492188 C14.1113281,5.54492188 15.2070312,6.55859375 15.2070312,8.14648438 C15.2070312,9.28320312 14.5976562,10.2089844 13.5664062,10.5605469 L15.4648438,14 L13.9472656,14 L12.2246094,10.7773438 L10.3730469,10.7773438 Z M19.5488281,8.56835938 C18.6171875,8.56835938 17.9667969,9.22460938 17.8964844,10.2207031 L21.1191406,10.2207031 C21.0898438,9.21875 20.4804688,8.56835938 19.5488281,8.56835938 Z M21.1132812,12.2773438 L22.3261719,12.2773438 C22.0390625,13.4199219 21.0195312,14.1230469 19.5605469,14.1230469 C17.7324219,14.1230469 16.6132812,12.8691406 16.6132812,10.8300781 C16.6132812,8.79101562 17.7558594,7.49609375 19.5546875,7.49609375 C21.3300781,7.49609375 22.4023438,8.70898438 22.4023438,10.7128906 L22.4023438,11.1523438 L17.8964844,11.1523438 L17.8964844,11.2226562 C17.9375,12.3417969 18.5878906,13.0507812 19.5957031,13.0507812 C20.3574219,13.0507812 20.8789062,12.7753906 21.1132812,12.2773438 Z M25.1914062,7.61914062 L25.1914062,14.2636719 C25.1914062,15.5703125 24.5175781,16.1796875 23.1347656,16.1796875 C23.0878906,16.1796875 22.8828125,16.1796875 22.8535156,16.1738281 L22.8535156,15.1191406 L23.0292969,15.1191406 C23.703125,15.1191406 23.9375,14.8671875 23.9375,14.2519531 L23.9375,7.61914062 L25.1914062,7.61914062 Z M24.5644531,6.5 C24.0957031,6.5 23.75,6.16601562 23.75,5.73242188 C23.75,5.29296875 24.0957031,4.95898438 24.5644531,4.95898438 C25.0332031,4.95898438 25.3789062,5.29296875 25.3789062,5.73242188 C25.3789062,6.16601562 25.0332031,6.5 24.5644531,6.5 Z M29.6621094,8.56835938 C28.7304688,8.56835938 28.0800781,9.22460938 28.0097656,10.2207031 L31.2324219,10.2207031 C31.203125,9.21875 30.59375,8.56835938 29.6621094,8.56835938 Z M31.2265625,12.2773438 L32.4394531,12.2773438 C32.1523438,13.4199219 31.1328125,14.1230469 29.6738281,14.1230469 C27.8457031,14.1230469 26.7265625,12.8691406 26.7265625,10.8300781 C26.7265625,8.79101562 27.8691406,7.49609375 29.6679688,7.49609375 C31.4433594,7.49609375 32.515625,8.70898438 32.515625,10.7128906 L32.515625,11.1523438 L28.0097656,11.1523438 L28.0097656,11.2226562 C28.0507812,12.3417969 28.7011719,13.0507812 29.7089844,13.0507812 C30.4707031,13.0507812 30.9921875,12.7753906 31.2265625,12.2773438 Z M39.4296875,9.70507812 L38.2050781,9.70507812 C38.0585938,9.08398438 37.5429688,8.62109375 36.6992188,8.62109375 C35.6445312,8.62109375 35,9.4296875 35,10.7890625 C35,12.171875 35.6503906,12.9980469 36.6992188,12.9980469 C37.4960938,12.9980469 38.0410156,12.6347656 38.2050781,11.9492188 L39.4296875,11.9492188 C39.265625,13.2324219 38.28125,14.1230469 36.7050781,14.1230469 C34.8476562,14.1230469 33.7109375,12.8691406 33.7109375,10.7890625 C33.7109375,8.74414062 34.8417969,7.49609375 36.6992188,7.49609375 C38.2988281,7.49609375 39.265625,8.42773438 39.4296875,9.70507812 Z M41.3105469,6.03125 L42.5703125,6.03125 L42.5703125,7.6484375 L43.953125,7.6484375 L43.953125,8.70898438 L42.5703125,8.70898438 L42.5703125,11.9902344 C42.5703125,12.6582031 42.8457031,12.9511719 43.4726562,12.9511719 C43.6660156,12.9511719 43.7773438,12.9394531 43.953125,12.921875 L43.953125,13.9707031 C43.7480469,14.0058594 43.5136719,14.0351562 43.2675781,14.0351562 C41.8671875,14.0351562 41.3105469,13.5429688 41.3105469,12.3125 L41.3105469,8.70898438 L40.296875,8.70898438 L40.296875,7.6484375 L41.3105469,7.6484375 L41.3105469,6.03125 Z M48.0546875,8.56835938 C47.1230469,8.56835938 46.4726562,9.22460938 46.4023438,10.2207031 L49.625,10.2207031 C49.5957031,9.21875 48.9863281,8.56835938 48.0546875,8.56835938 Z M49.6191406,12.2773438 L50.8320312,12.2773438 C50.5449219,13.4199219 49.5253906,14.1230469 48.0664062,14.1230469 C46.2382812,14.1230469 45.1191406,12.8691406 45.1191406,10.8300781 C45.1191406,8.79101562 46.2617188,7.49609375 48.0605469,7.49609375 C49.8359375,7.49609375 50.9082031,8.70898438 50.9082031,10.7128906 L50.9082031,11.1523438 L46.4023438,11.1523438 L46.4023438,11.2226562 C46.4433594,12.3417969 47.09375,13.0507812 48.1015625,13.0507812 C48.8632812,13.0507812 49.3847656,12.7753906 49.6191406,12.2773438 Z M54.7519531,14.1054688 C53.1289062,14.1054688 52.1035156,12.828125 52.1035156,10.8066406 C52.1035156,8.79101562 53.140625,7.51367188 54.7519531,7.51367188 C55.625,7.51367188 56.3632812,7.9296875 56.7089844,8.6328125 L56.8027344,8.6328125 L56.8027344,5.12890625 L58.0625,5.12890625 L58.0625,14 L56.8554688,14 L56.8554688,12.9921875 L56.7558594,12.9921875 C56.375,13.6894531 55.6308594,14.1054688 54.7519531,14.1054688 Z M55.109375,8.64453125 C54.0488281,8.64453125 53.4042969,9.46484375 53.4042969,10.8066406 C53.4042969,12.1601562 54.0429688,12.9746094 55.109375,12.9746094 C56.1699219,12.9746094 56.8261719,12.1484375 56.8261719,10.8125 C56.8261719,9.48242188 56.1640625,8.64453125 55.109375,8.64453125 Z"/>
    <g transform="translate(66 4)">
      <mask id="rejected-b" fill="#fff">
        <use xlink:href="#rejected-a"/>
      </mask>
      <use fill="#000" fill-rule="nonzero" xlink:href="#rejected-a"/>
      <g fill="#697386" mask="url(#rejected-b)">
        <rect width="12" height="12"/>
      </g>
    </g>
  </g>
</svg>
