<?xml version="1.0" encoding="UTF-8"?>
<svg width="10px" height="10px" viewBox="0 0 10 10" version="1.1" xmlns="http://www.w3.org/2000/svg" xmlns:xlink="http://www.w3.org/1999/xlink">
    <!-- Generator: Sketch 58 (84663) - https://sketch.com -->
    <title>Icon/cancel</title>
    <desc>Created with Sketch.</desc>
    <defs>
        <path d="M6.00049097,4.93884913 L9.44446688,1.49487322 C9.73763118,1.20170892 10.2129444,1.20170892 10.5061087,1.49487322 C10.799273,1.78803752 10.799273,2.26335076 10.5061087,2.55651506 L7.06262378,6 L10.5061087,9.44348521 C10.799273,9.73664951 10.799273,10.2119628 10.5061087,10.5051271 C10.2129444,10.7982914 9.73763118,10.7982914 9.44446688,10.5051271 L6.00049097,7.06115114 L2.55651506,10.5051271 C2.26335076,10.7982914 1.78803752,10.7982914 1.49487322,10.5051271 C1.20170892,10.2119628 1.20170892,9.73664951 1.49487322,9.44348521 L4.93835816,6 L1.49487322,2.55651506 C1.20170892,2.26335076 1.20170892,1.78803752 1.49487322,1.49487322 C1.78803752,1.20170892 2.26335076,1.20170892 2.55651506,1.49487322 L6.00049097,4.93884913 Z" id="path-1"></path>
    </defs>
    <g id="Page-1" stroke="none" stroke-width="1" fill="none" fill-rule="evenodd">
        <g id="Demo-CLI" transform="translate(-701.000000, -24.000000)">
            <g id="Icon/cancel" transform="translate(700.000000, 23.000000)">
                <mask id="mask-2" fill="white">
                    <use xlink:href="#path-1"></use>
                </mask>
                <use id="Mask" fill="#000000" fill-rule="evenodd" xlink:href="#path-1"></use>
                <g id="_Elements/Icon/Color/default" mask="url(#mask-2)" fill="#4E566D" fill-rule="evenodd">
                    <rect id="Color" x="0" y="0" width="12" height="12"></rect>
                </g>
            </g>
        </g>
    </g>
</svg>