<?xml version="1.0" encoding="UTF-8"?>
<svg width="10px" height="8px" viewBox="0 0 10 8" version="1.1" xmlns="http://www.w3.org/2000/svg" xmlns:xlink="http://www.w3.org/1999/xlink">
    <!-- Generator: Sketch 58 (84663) - https://sketch.com -->
    <title>Icon/card</title>
    <desc>Created with Sketch.</desc>
    <defs>
        <path d="M10,2.5 L0,2.5 L0,2.03125 C0,1.59977754 0.279822031,1.25 0.625,1.25 L9.375,1.25 C9.72017797,1.25 10,1.59977754 10,2.03125 L10,2.5 Z M10,4.0625 L10,8.125 C10,8.47017797 9.72017797,8.75 9.375,8.75 L0.625,8.75 C0.279822031,8.75 0,8.47017797 0,8.125 L0,4.0625 L10,4.0625 Z M2.5,6.25 C2.15482203,6.25 1.875,6.52982203 1.875,6.875 C1.875,7.22017797 2.15482203,7.5 2.5,7.5 L3.125,7.5 C3.47017797,7.5 3.75,7.22017797 3.75,6.875 C3.75,6.52982203 3.47017797,6.25 3.125,6.25 L2.5,6.25 Z" id="path-1"></path>
    </defs>
    <g id="Page-1" stroke="none" stroke-width="1" fill="none" fill-rule="evenodd">
        <g id="Demo" transform="translate(-308.000000, -180.000000)">
            <g id="Group-10">
                <g id="Group-9" transform="translate(293.000000, 171.000000)">
                    <g id="Icon/card" transform="translate(15.000000, 8.000000)">
                        <mask id="mask-2" fill="white">
                            <use xlink:href="#path-1"></use>
                        </mask>
                        <use id="Mask" fill="#000000" fill-rule="evenodd" xlink:href="#path-1"></use>
                        <g id="_Elements/Icon/Color/default" mask="url(#mask-2)" fill="#4E566D" fill-rule="evenodd">
                            <rect id="Color" x="0" y="0" width="10" height="10"></rect>
                        </g>
                    </g>
                </g>
            </g>
        </g>
    </g>
</svg>