<?xml version="1.0" encoding="UTF-8"?>
<svg width="10px" height="11px" viewBox="0 0 10 11" version="1.1" xmlns="http://www.w3.org/2000/svg" xmlns:xlink="http://www.w3.org/1999/xlink">
    <!-- Generator: Sketch 58 (84663) - https://sketch.com -->
    <title>expand</title>
    <desc>Created with Sketch.</desc>
    <g id="Page-1" stroke="none" stroke-width="1" fill="none" fill-rule="evenodd">
        <g id="Demo" transform="translate(-701.000000, -24.000000)" fill="#697386" fill-rule="nonzero">
            <g id="Group-10">
                <path d="M701.855469,28.9423828 C702.207031,28.9423828 702.46582,28.6933594 702.46582,28.3417969 L702.46582,28.0390625 L702.358398,26.671875 L703.364258,27.7314453 L704.682617,29.0595703 C704.794922,29.1767578 704.951172,29.2353516 705.112305,29.2353516 C705.488281,29.2353516 705.751953,28.9765625 705.751953,28.6005859 C705.751953,28.4345703 705.683594,28.2880859 705.566406,28.1708984 L704.243164,26.8476562 L703.178711,25.8466797 L704.56543,25.9492188 L704.921875,25.9492188 C705.268555,25.9492188 705.522461,25.6953125 705.522461,25.34375 C705.522461,24.9921875 705.268555,24.7333984 704.921875,24.7333984 L702.211914,24.7333984 C701.601562,24.7333984 701.245117,25.0849609 701.245117,25.7001953 L701.245117,28.3417969 C701.245117,28.6884766 701.508789,28.9423828 701.855469,28.9423828 Z M707.055664,34.2255859 C706.708984,34.2255859 706.455078,33.9667969 706.455078,33.6152344 C706.455078,33.2636719 706.708984,33.0097656 707.055664,33.0097656 L707.412109,33.0097656 L708.793945,33.1123047 L707.734375,32.1113281 L706.411133,30.7880859 C706.293945,30.6708984 706.225586,30.5244141 706.225586,30.3583984 C706.225586,29.9824219 706.489258,29.7236328 706.865234,29.7236328 C707.026367,29.7236328 707.177734,29.7822266 707.294922,29.8994141 L708.613281,31.2275391 L709.619141,32.2871094 L709.511719,30.9199219 L709.511719,30.6171875 C709.511719,30.265625 709.770508,30.0166016 710.12207,30.0166016 C710.46875,30.0166016 710.732422,30.2705078 710.732422,30.6171875 L710.732422,33.2587891 C710.732422,33.8740234 710.375977,34.2255859 709.765625,34.2255859 L707.055664,34.2255859 Z" id="expand"></path>
            </g>
        </g>
    </g>
</svg>