<svg height="200" viewBox="0 0 779 200" width="779" xmlns="http://www.w3.org/2000/svg" xmlns:xlink="http://www.w3.org/1999/xlink"><defs><path id="a" d="m7.47871628 19.8018627v-4.1879954c0-.829164.67157287-1.5013342 1.5-1.5013342.82842712 0 1.50000002.6721702 1.50000002 1.5013342v6.8847984c0 .384225-.1464466.7684499-.4393399 1.0616037-.29289317.2931537-.67677665.4397306-1.06066012.4397306h-6.87867966c-.82842712 0-1.5-.6721703-1.5-1.5013343s.67157288-1.5013343 1.5-1.5013343h1.93629226c-2.51369872-2.2323124-4.03632888-5.4717753-4.03632888-8.9866572 0-5.35991993 3.52195494-10.02214589 8.57440017-11.5184613.79438147-.23526138 1.62890243.21856783 1.86395473 1.01365592.2350523.79508808-.2183736 1.63035136-1.01275507 1.86561274-3.78482647 1.12090165-6.42559983 4.61665396-6.42559983 8.63919264 0 3.2578163 1.74304399 6.1993215 4.47871628 7.7911885zm9.04296012-15.60372544v4.1879954c0 .82916402-.6715729 1.50133428-1.5 1.50133428-.8284272 0-1.5-.67217026-1.5-1.50133428v-6.88479838c0-.38422495.1464466-.7684499.4393398-1.06160365s.6767767-.43973063 1.0606602-.43973063h6.8786796c.8284271 0 1.5.67217025 1.5 1.50133428s-.6715729 1.50133428-1.5 1.50133428h-1.9362922c2.5136987 2.23231241 4.0363288 5.47177537 4.0363288 8.98665724 0 5.3599199-3.5219549 10.0221459-8.5744001 11.5184613-.7943815.2352614-1.6289024-.2185678-1.8639547-1.0136559s.2183735-1.6303514 1.012755-1.8656128c3.7848265-1.1209016 6.4255998-4.6166539 6.4255998-8.6391926 0-3.25781632-1.7430439-6.19932149-4.4787162-7.79118854z"/><mask id="b" fill="#fff"><use fill="#fff" fill-rule="evenodd" xlink:href="#a"/></mask></defs><g fill="none" fill-rule="evenodd"><rect fill="#e3e8ee" height="200" rx="6" width="308"/><g transform="translate(53 66)"><rect fill="#fff" height="28" opacity=".8" rx="4" width="202"/><rect fill="#4f566b" height="28" rx="4" width="202" y="40"/><g fill-rule="nonzero"><path d="m49.6220703 59-.9023437-2.6660156h-3.7597657l-.9091797 2.6660156h-1.5722656l3.5615235-9.8642578h1.6474609l3.5615234 9.8642578zm-2.8369141-8.1210938-1.4355468 4.2246094h2.9804687l-1.4287109-4.2246094zm8.039336 8.2441407c-1.8935547 0-3.0898438-1.4902344-3.0898438-3.8417969 0-2.3378906 1.209961-3.8349609 3.0898438-3.8349609 1.0185547 0 1.8798828.4921875 2.2832031 1.305664h.109375v-4.0878906h1.4697266v10.3359375h-1.4082032v-1.1757812h-.1162109c-.4443359.8134765-1.3125 1.2988281-2.3378906 1.2988281zm.4169922-6.4189453c-1.2373047 0-1.9892578.977539-1.9892578 2.5839843 0 1.6132813.7451171 2.5771485 1.9892578 2.5771485 1.2373047 0 2.0029297-.9775391 2.0029297-2.5771485 0-1.5859375-.772461-2.5839843-2.0029297-2.5839843zm8.0871875 6.4189453c-1.8935547 0-3.0898438-1.4902344-3.0898438-3.8417969 0-2.3378906 1.209961-3.8349609 3.0898438-3.8349609 1.0185547 0 1.8798828.4921875 2.2832031 1.305664h.109375v-4.0878906h1.4697266v10.3359375h-1.4082032v-1.1757812h-.1162109c-.4443359.8134765-1.3125 1.2988281-2.3378906 1.2988281zm.4169922-6.4189453c-1.2373047 0-1.9892579.977539-1.9892579 2.5839843 0 1.6132813.7451172 2.5771485 1.9892579 2.5771485 1.2373046 0 2.0029296-.9775391 2.0029296-2.5771485 0-1.5859375-.7724609-2.5839843-2.0029296-2.5839843zm15.2173437 1.2578125h-1.4287109c-.1708985-.7246094-.772461-1.2783203-1.756836-1.2783203-1.2304687 0-1.9824218.9707031-1.9824218 2.5771484 0 1.640625.758789 2.6318359 1.9824218 2.6318359.9296875 0 1.5654297-.4375 1.756836-1.2441406h1.4287109c-.1914062 1.4628906-1.3398437 2.4951172-3.1787109 2.4951172-2.1669922 0-3.4931641-1.4765625-3.4931641-3.8828125 0-2.3583984 1.3193359-3.828125 3.4863281-3.828125 1.866211 0 2.9941407 1.086914 3.1855469 2.5292969zm3.4524219 5.1611328c-1.4355469 0-2.4814453-.8613281-2.4814453-2.2148438 0-1.3330078.9980468-2.1054687 2.7685547-2.2148437l2.0166015-.1230469v-.6494141c0-.8134765-.5195312-1.2714843-1.524414-1.2714843-.8203125 0-1.3876954.3076171-1.5517579.8476562h-1.421875c.1503907-1.2509765 1.3535157-2.0644531 3.0419922-2.0644531 1.866211 0 2.9189453.9296875 2.9189453 2.4882812v5.0791016h-1.415039v-1.0527344h-.116211c-.4443359.7519532-1.2578125 1.1757813-2.2353515 1.1757813zm.3759765-1.1826172c1.1074219 0 1.9277344-.7246094 1.9277344-1.6816406v-.6425782l-1.8183594.1230469c-1.0253906.0683594-1.4902343.4306641-1.4902343 1.1074219 0 .6904297.5810547 1.09375 1.3808593 1.09375zm5.2024219 1.0595703v-7.4238281h1.4150391v1.1279297h.109375c.211914-.7314454 1.0390625-1.2578125 2.0097656-1.2578125.21875 0 .4990234.0205078.65625.0546875v1.3808593c-.1230469-.0341797-.5605469-.0820312-.8203125-.0820312-1.1142578 0-1.9003906.7177734-1.9003906 1.7636719v4.4365234zm7.8547656.1230469c-1.8935546 0-3.0898437-1.4902344-3.0898437-3.8417969 0-2.3378906 1.2099609-3.8349609 3.0898437-3.8349609 1.0185547 0 1.8798829.4921875 2.2832032 1.305664h.109375v-4.0878906h1.4697265v10.3359375h-1.4082031v-1.1757812h-.1162109c-.444336.8134765-1.3125 1.2988281-2.3378907 1.2988281zm.4169922-6.4189453c-1.2373047 0-1.9892578.977539-1.9892578 2.5839843 0 1.6132813.7451172 2.5771485 1.9892578 2.5771485 1.2373047 0 2.0029297-.9775391 2.0029297-2.5771485 0-1.5859375-.7724609-2.5839843-2.0029297-2.5839843zm9.4341411-3.0009766h1.469726v1.8935547h1.613281v1.1757812h-1.613281v3.9169922c0 .7998047.321289 1.1484375 1.052734 1.1484375.225586 0 .355469-.0136718.560547-.0341797v1.1689453c-.239257.0410157-.512695.0751954-.799804.0751954-1.633789 0-2.283203-.5742188-2.283203-2.0029297v-4.272461h-1.182618v-1.1757812h1.182618zm7.595 9.4404297c-2.180664 0-3.513672-1.4560547-3.513672-3.8554688 0-2.3925781 1.339843-3.8554687 3.513672-3.8554687 2.166992 0 3.506836 1.4560547 3.506836 3.8554687 0 2.3994141-1.333008 3.8554688-3.506836 3.8554688zm0-1.2509766c1.271484 0 1.996093-.9570312 1.996093-2.6044922 0-1.6542968-.724609-2.6113281-1.996093-2.6113281-1.278321 0-1.996094.9570313-1.996094 2.6113281 0 1.6542969.717773 2.6044922 1.996094 2.6044922zm18.231992-6.3164062-2.043946 7.4238281h-1.524414l-1.538086-5.5371094h-.116211l-1.53125 5.5371094h-1.510742l-2.050781-7.4238281h1.490234l1.333008 5.7285156h.109375l1.53125-5.7285156h1.408203l1.53125 5.7285156h.116211l1.326172-5.7285156zm3.090117 7.546875c-1.435547 0-2.481445-.8613281-2.481445-2.2148438 0-1.3330078.998047-2.1054687 2.768554-2.2148437l2.016602-.1230469v-.6494141c0-.8134765-.519531-1.2714843-1.524414-1.2714843-.820313 0-1.387695.3076171-1.551758.8476562h-1.421875c.150391-1.2509765 1.353516-2.0644531 3.041992-2.0644531 1.866211 0 2.918946.9296875 2.918946 2.4882812v5.0791016h-1.41504v-1.0527344h-.11621c-.444336.7519532-1.257813 1.1757813-2.235352 1.1757813zm.375977-1.1826172c1.107421 0 1.927734-.7246094 1.927734-1.6816406v-.6425782l-1.818359.1230469c-1.025391.0683594-1.490235.4306641-1.490235 1.1074219 0 .6904297.581055 1.09375 1.38086 1.09375zm5.270781 1.0595703v-10.3359375h1.469726v10.3359375zm3.459258 0v-10.3359375h1.469726v10.3359375zm8.271757-1.9892578h1.415039c-.321289 1.3125-1.524414 2.1328125-3.226562 2.1328125-2.132813 0-3.438477-1.4697266-3.438477-3.8417969 0-2.3583984 1.333008-3.8691406 3.431641-3.8691406 2.071289 0 3.322266 1.415039 3.322266 3.7392578v.5058594h-5.256836v.0683594c.047851 1.3466796.80664 2.1943359 1.982422 2.1943359.888671 0 1.49707-.328125 1.770507-.9296875zm-1.825195-4.381836c-1.086914 0-1.845703.7929688-1.927734 1.9892579h3.759765c-.034179-1.203125-.745117-1.9892579-1.832031-1.9892579zm5.332305-2.9257812h1.469726v1.8935547h1.613282v1.1757812h-1.613282v3.9169922c0 .7998047.321289 1.1484375 1.052735 1.1484375.225586 0 .355468-.0136718.560547-.0341797v1.1689453c-.239258.0410157-.512696.0751954-.799805.0751954-1.633789 0-2.283203-.5742188-2.283203-2.0029297v-4.272461h-1.182617v-1.1757812h1.182617z" fill="#f7fafc"/><path d="m13.8222656 19v-1.6230469h-4.13085935v-1.2363281c1.09570315-1.9042969 2.29687495-3.8496094 3.44531255-5.5957031h2.1386718v5.5839843h1.1367188v1.2480469h-1.1367188v1.6230469zm-2.7246094-2.9238281v.0878906h2.7539063v-4.4121094h-.0878906c-.8671875 1.3242188-1.8457031 2.8886719-2.6660157 4.3242188zm7.078125-3.0292969c0-1.5996094 1.2421876-2.7128906 3.0058594-2.7128906 1.6816406 0 2.8242188 1.0253906 2.8242188 2.4316406 0 .984375-.4335938 1.6699219-1.8808594 3.09375l-1.8164062 1.7871094v.0996094h3.8203124v1.2539062h-5.8710937v-1.0195312l2.9296875-2.9472657c1.0664062-1.078125 1.3183594-1.4824219 1.3183594-2.1269531 0-.7675781-.5214844-1.359375-1.4121094-1.359375-.9140625 0-1.5.609375-1.5 1.5zm11.8535157 5.953125v-1.6230469h-4.1308594v-1.2363281c1.0957031-1.9042969 2.296875-3.8496094 3.4453125-5.5957031h2.1386719v5.5839843h1.1367187v1.2480469h-1.1367187v1.6230469zm-2.7246094-2.9238281v.0878906h2.7539063v-4.4121094h-.0878907c-.8671875 1.3242188-1.8457031 2.8886719-2.6660156 4.3242188zm7.078125-3.0292969c0-1.5996094 1.2421875-2.7128906 3.0058594-2.7128906 1.6816406 0 2.8242187 1.0253906 2.8242187 2.4316406 0 .984375-.4335937 1.6699219-1.8808594 3.09375l-1.8164062 1.7871094v.0996094h3.8203125v1.2539062h-5.8710937v-1.0195312l2.9296874-2.9472657c1.0664063-1.078125 1.3183594-1.4824219 1.3183594-2.1269531 0-.7675781-.5214844-1.359375-1.4121094-1.359375-.9140624 0-1.5.609375-1.5 1.5zm15.0527344 5.953125v-1.6230469h-4.1308594v-1.2363281c1.0957031-1.9042969 2.296875-3.8496094 3.4453125-5.5957031h2.1386719v5.5839843h1.1367187v1.2480469h-1.1367187v1.6230469zm-2.7246094-2.9238281v.0878906h2.7539063v-4.4121094h-.0878907c-.8671875 1.3242188-1.8457031 2.8886719-2.6660156 4.3242188zm7.078125-3.0292969c0-1.5996094 1.2421875-2.7128906 3.0058594-2.7128906 1.6816406 0 2.8242187 1.0253906 2.8242187 2.4316406 0 .984375-.4335937 1.6699219-1.8808594 3.09375l-1.8164062 1.7871094v.0996094h3.8203125v1.2539062h-5.8710937v-1.0195312l2.9296874-2.9472657c1.0664063-1.078125 1.3183594-1.4824219 1.3183594-2.1269531 0-.7675781-.5214844-1.359375-1.4121094-1.359375-.9140624 0-1.5.609375-1.5 1.5zm11.8535156 5.953125v-1.6230469h-4.1308593v-1.2363281c1.0957031-1.9042969 2.296875-3.8496094 3.4453124-5.5957031h2.1386719v5.5839843h1.1367188v1.2480469h-1.1367188v1.6230469zm-2.7246093-2.9238281v.0878906h2.7539062v-4.4121094h-.0878906c-.8671875 1.3242188-1.8457032 2.8886719-2.6660156 4.3242188zm7.078125-3.0292969c0-1.5996094 1.2421874-2.7128906 3.0058593-2.7128906 1.6816407 0 2.8242188 1.0253906 2.8242188 2.4316406 0 .984375-.4335938 1.6699219-1.8808594 3.09375l-1.8164063 1.7871094v.0996094h3.8203126v1.2539062h-5.8710938v-1.0195312l2.9296875-2.9472657c1.0664063-1.078125 1.3183594-1.4824219 1.3183594-2.1269531 0-.7675781-.5214844-1.359375-1.4121094-1.359375-.9140625 0-1.5.609375-1.5 1.5zm15.0527343 5.953125v-1.6230469h-4.1308593v-1.2363281c1.0957031-1.9042969 2.296875-3.8496094 3.4453124-5.5957031h2.1386719v5.5839843h1.1367188v1.2480469h-1.1367188v1.6230469zm-2.7246093-2.9238281v.0878906h2.7539062v-4.4121094h-.0878906c-.8671875 1.3242188-1.8457032 2.8886719-2.6660156 4.3242188zm7.078125-3.0292969c0-1.5996094 1.2421874-2.7128906 3.0058593-2.7128906 1.6816407 0 2.8242188 1.0253906 2.8242188 2.4316406 0 .984375-.4335938 1.6699219-1.8808594 3.09375l-1.8164063 1.7871094v.0996094h3.8203126v1.2539062h-5.8710938v-1.0195312l2.9296875-2.9472657c1.0664063-1.078125 1.3183594-1.4824219 1.3183594-2.1269531 0-.7675781-.5214844-1.359375-1.4121094-1.359375-.9140625 0-1.5.609375-1.5 1.5zm11.8535152 5.953125v-1.6230469h-4.130859v-1.2363281c1.0957031-1.9042969 2.296875-3.8496094 3.445312-5.5957031h2.138672v5.5839843h1.136719v1.2480469h-1.136719v1.6230469zm-2.724609-2.9238281v.0878906h2.753906v-4.4121094h-.08789c-.867188 1.3242188-1.8457035 2.8886719-2.666016 4.3242188zm7.078125-3.0292969c0-1.5996094 1.242187-2.7128906 3.005859-2.7128906 1.681641 0 2.824219 1.0253906 2.824219 2.4316406 0 .984375-.433594 1.6699219-1.880859 3.09375l-1.816406 1.7871094v.0996094h3.820312v1.2539062h-5.871094v-1.0195312l2.929688-2.9472657c1.066406-1.078125 1.318359-1.4824219 1.318359-2.1269531 0-.7675781-.521484-1.359375-1.412109-1.359375-.914063 0-1.5.609375-1.5 1.5zm15.052734 5.953125v-1.6230469h-4.130859v-1.2363281c1.095703-1.9042969 2.296875-3.8496094 3.445312-5.5957031h2.138672v5.5839843h1.136719v1.2480469h-1.136719v1.6230469zm-2.724609-2.9238281v.0878906h2.753906v-4.4121094h-.08789c-.867188 1.3242188-1.845704 2.8886719-2.666016 4.3242188zm7.078125-3.0292969c0-1.5996094 1.242187-2.7128906 3.005859-2.7128906 1.681641 0 2.824219 1.0253906 2.824219 2.4316406 0 .984375-.433594 1.6699219-1.880859 3.09375l-1.816406 1.7871094v.0996094h3.820312v1.2539062h-5.871094v-1.0195312l2.929688-2.9472657c1.066406-1.078125 1.318359-1.4824219 1.318359-2.1269531 0-.7675781-.521484-1.359375-1.412109-1.359375-.914063 0-1.5.609375-1.5 1.5zm11.853516 5.953125v-1.6230469h-4.13086v-1.2363281c1.095703-1.9042969 2.296875-3.8496094 3.445313-5.5957031h2.138672v5.5839843h1.136718v1.2480469h-1.136718v1.6230469zm-2.72461-2.9238281v.0878906h2.753907v-4.4121094h-.087891c-.867188 1.3242188-1.845703 2.8886719-2.666016 4.3242188zm7.078125-3.0292969c0-1.5996094 1.242188-2.7128906 3.00586-2.7128906 1.68164 0 2.824218 1.0253906 2.824218 2.4316406 0 .984375-.433593 1.6699219-1.880859 3.09375l-1.816406 1.7871094v.0996094h3.820312v1.2539062h-5.871093v-1.0195312l2.929687-2.9472657c1.066406-1.078125 1.318359-1.4824219 1.318359-2.1269531 0-.7675781-.521484-1.359375-1.412109-1.359375-.914063 0-1.5.609375-1.5 1.5z" fill="#1a1f36" opacity=".67"/><g opacity=".5" transform="translate(171 6)"><rect height="15.5" rx="2" stroke="#4f566b" stroke-width=".5" width="23.5" x=".25" y=".25"/><path d="m3.28773262 5.91443732c-.52314173-.28693137-1.12019372-.51769955-1.78773262-.6778442l.0280005-.12471102h2.73697872c.37098332.01300346.67201191.12462375.76996714.51882925l.59482061 2.83587917.18221641.85413565 1.66598301-4.20884407h1.79882257l-2.67390785 6.1656463h-1.79891559zm7.31224258 5.36963648h-1.70114643l1.06401886-6.1721917h1.70105337zm6.1668069-6.02129922-.2313529 1.3328108-.1538632-.06554092c-.3078194-.12479829-.7141522-.2495093-1.2671852-.2363313-.6716398 0-.9728545.26905813-.9798314.53174543 0 .28895604.3643786.47938251.9593659.76179318.9801104.43993579 1.4347231.97831385 1.4279323 1.68093694-.0137677 1.28044789-1.1758348 2.10786929-2.9607967 2.10786929-.7631763-.0066327-1.4982591-.1579615-1.8972429-.3284901l.2380507-1.38552277.224004.09861682c.5530331.23004776.9169465.32831555 1.5961213.32831555.4897761 0 1.0149017-.19060107 1.0215995-.60409358 0-.26923267-.2237249-.46637906-.8818761-.76842582-.6439184-.29558867-1.5048639-.78797464-1.4909101-1.67447884.0072559-1.20155443 1.1902536-2.04197926 2.8701904-2.04197926.6580581 0 1.1902536.13788902 1.5257944.26277458zm2.2609703 3.83471102h1.4139786c-.0699548-.30859213-.3921-1.78601186-.3921-1.78601186l-.1188858-.5318327c-.0840015.22978594-.2308878.60409353-.2238179.59091553 0 0-.5390794 1.3723448-.6791749 1.72692903zm2.0998512-3.9856035 1.3723964 6.1721044h-1.5750977s-.1541422-.7091684-.2029803-.9258637h-2.1841317c-.0631639.1640705-.3570296.9258637-.3570296.9258637h-1.7849619l2.5268355-5.65999506c.1750729-.40057632.4833574-.51210934.889132-.51210934z" fill="#3c4257"/></g></g></g><rect fill="#e3e8ee" height="200" rx="6" width="400" x="379"/><g transform="translate(408 109)"><rect fill="#fff" height="62" opacity=".8" rx="4" width="136"/><path d="m3.97308155 8.90981266-3.75341164-3.71885958c-.29289321-.2953416-.29289321-.77418496 0-1.06952657.29289322-.29534161.76776696-.29534161 1.06066018 0l3.22017845 3.16867283 6.21614526-6.19359313c.2928932-.29534161.7677669-.29534161 1.0606602 0 .2928932.2953416.2928932.77418496 0 1.06952657l-6.75275756 6.74031331c-.29087324.29018414-.75872609.29172659-1.05147489.00346657z" fill="#09825d" fill-opacity=".838095" transform="translate(10 11)"/><g fill-rule="nonzero" transform="translate(32 10)"><path d="m32.9746094 9.70898438c-.5507813 0-.9375-.39257813-.9375-.90820313 0-.52148437.3867187-.90820313.9375-.90820313.5566406 0 .9375.38671876.9375.90820313 0 .515625-.3808594.90820313-.9375.90820313zm3.9492187 0c-.5507812 0-.9375-.39257813-.9375-.90820313 0-.52148437.3867188-.90820313.9375-.90820313.5566407 0 .9375.38671876.9375.90820313 0 .515625-.3808593.90820313-.9375.90820313zm3.9492188 0c-.5507813 0-.9375-.39257813-.9375-.90820313 0-.52148437.3867187-.90820313.9375-.90820313.5566406 0 .9375.38671876.9375.90820313 0 .515625-.3808594.90820313-.9375.90820313zm3.9492187 0c-.5507812 0-.9375-.39257813-.9375-.90820313 0-.52148437.3867188-.90820313.9375-.90820313.5566406 0 .9375.38671876.9375.90820313 0 .515625-.3808594.90820313-.9375.90820313zm9.9960938 2.29101562v-1.6230469h-4.1308594v-1.2363281c1.0957031-1.90429688 2.296875-3.84960938 3.4453125-5.59570312h2.1386719v5.58398437h1.1367187v1.24804685h-1.1367187v1.6230469zm-2.7246094-2.92382812v.08789062h2.7539062v-4.41210938h-.0878906c-.8671875 1.32421876-1.8457031 2.88867188-2.6660156 4.32421876zm7.078125-3.02929688c0-1.59960938 1.2421875-2.71289062 3.0058594-2.71289062 1.6816406 0 2.8242187 1.02539062 2.8242187 2.43164062 0 .984375-.4335937 1.66992188-1.8808593 3.09375l-1.8164063 1.7871094v.0996094h3.8203125v1.2539062h-5.8710938v-1.0195312l2.9296876-2.94726568c1.0664062-1.078125 1.3183593-1.48242187 1.3183593-2.12695312 0-.76757812-.5214843-1.359375-1.4121093-1.359375-.9140626 0-1.5.609375-1.5 1.5zm11.8535156 5.953125v-1.6230469h-4.1308594v-1.2363281c1.0957032-1.90429688 2.296875-3.84960938 3.4453126-5.59570312h2.1386718v5.58398437h1.1367188v1.24804685h-1.1367188v1.6230469zm-2.7246094-2.92382812v.08789062h2.7539063v-4.41210938h-.0878906c-.8671875 1.32421876-1.8457031 2.88867188-2.6660157 4.32421876zm7.078125-3.02929688c0-1.59960938 1.2421876-2.71289062 3.0058594-2.71289062 1.6816406 0 2.8242188 1.02539062 2.8242188 2.43164062 0 .984375-.4335938 1.66992188-1.8808594 3.09375l-1.8164062 1.7871094v.0996094h3.8203124v1.2539062h-5.8710937v-1.0195312l2.9296875-2.94726568c1.0664062-1.078125 1.3183594-1.48242187 1.3183594-2.12695312 0-.76757812-.5214844-1.359375-1.4121094-1.359375-.9140625 0-1.5.609375-1.5 1.5z" fill="#1a1f36" opacity=".67"/><g opacity=".8"><rect height="15.5" rx="2" stroke="#3c6e62" stroke-width=".5" width="23.5" x=".25" y=".25"/><path d="m3.28773262 5.91443732c-.52314173-.28693137-1.12019372-.51769955-1.78773262-.6778442l.0280005-.12471102h2.73697872c.37098332.01300346.67201191.12462375.76996714.51882925l.59482061 2.83587917.18221641.85413565 1.66598301-4.20884407h1.79882257l-2.67390785 6.1656463h-1.79891559zm7.31224258 5.36963648h-1.70114643l1.06401886-6.1721917h1.70105337zm6.1668069-6.02129922-.2313529 1.3328108-.1538632-.06554092c-.3078194-.12479829-.7141522-.2495093-1.2671852-.2363313-.6716398 0-.9728545.26905813-.9798314.53174543 0 .28895604.3643786.47938251.9593659.76179318.9801104.43993579 1.4347231.97831385 1.4279323 1.68093694-.0137677 1.28044789-1.1758348 2.10786929-2.9607967 2.10786929-.7631763-.0066327-1.4982591-.1579615-1.8972429-.3284901l.2380507-1.38552277.224004.09861682c.5530331.23004776.9169465.32831555 1.5961213.32831555.4897761 0 1.0149017-.19060107 1.0215995-.60409358 0-.26923267-.2237249-.46637906-.8818761-.76842582-.6439184-.29558867-1.5048639-.78797464-1.4909101-1.67447884.0072559-1.20155443 1.1902536-2.04197926 2.8701904-2.04197926.6580581 0 1.1902536.13788902 1.5257944.26277458zm2.2609703 3.83471102h1.4139786c-.0699548-.30859213-.3921-1.78601186-.3921-1.78601186l-.1188858-.5318327c-.0840015.22978594-.2308878.60409353-.2238179.59091553 0 0-.5390794 1.3723448-.6791749 1.72692903zm2.0998512-3.9856035 1.3723964 6.1721044h-1.5750977s-.1541422-.7091684-.2029803-.9258637h-2.1841317c-.0631639.1640705-.3570296.9258637-.3570296.9258637h-1.7849619l2.5268355-5.65999506c.1750729-.40057632.4833574-.51210934.889132-.51210934z" fill="#0d4b3b"/></g></g><g transform="translate(32 36)"><path d="m32.9746094 10.7089844c-.5507813 0-.9375-.3925782-.9375-.90820315 0-.52148437.3867187-.90820313.9375-.90820313.5566406 0 .9375.38671876.9375.90820313 0 .51562495-.3808594.90820315-.9375.90820315zm3.9492187 0c-.5507812 0-.9375-.3925782-.9375-.90820315 0-.52148437.3867188-.90820313.9375-.90820313.5566407 0 .9375.38671876.9375.90820313 0 .51562495-.3808593.90820315-.9375.90820315zm3.9492188 0c-.5507813 0-.9375-.3925782-.9375-.90820315 0-.52148437.3867187-.90820313.9375-.90820313.5566406 0 .9375.38671876.9375.90820313 0 .51562495-.3808594.90820315-.9375.90820315zm3.9492187 0c-.5507812 0-.9375-.3925782-.9375-.90820315 0-.52148437.3867188-.90820313.9375-.90820313.5566406 0 .9375.38671876.9375.90820313 0 .51562495-.3808594.90820315-.9375.90820315zm9.1640625 2.2910156v-6.96679688h-.1054687l-2.1035156 1.48828126v-1.42382813l2.2089843-1.55273437h1.5058594v8.45507812zm8.1679688.1992188c-2.0742188 0-3.3867188-1.7226563-3.3867188-4.45312505 0-2.71289063 1.3242188-4.41210937 3.3867188-4.41210937s3.3867187 1.69335937 3.3867187 4.41796874c0 2.73046878-1.3183594 4.44726568-3.3867187 4.44726568zm0-1.2246094c1.1191406 0 1.8574219-1.21875 1.8574219-3.22851565 0-1.98632813-.7441407-3.18164063-1.8574219-3.18164063-1.1132813 0-1.8632813 1.1953125-1.8632813 3.17578126 0 2.01562502.7441406 3.23437502 1.8632813 3.23437502zm8.1035156 1.2246094c-2.0742187 0-3.3867187-1.7226563-3.3867187-4.45312505 0-2.71289063 1.3242187-4.41210937 3.3867187-4.41210937s3.3867187 1.69335937 3.3867187 4.41796874c0 2.73046878-1.3183593 4.44726568-3.3867187 4.44726568zm0-1.2246094c1.1191406 0 1.8574219-1.21875 1.8574219-3.22851565 0-1.98632813-.7441406-3.18164063-1.8574219-3.18164063s-1.8632813 1.1953125-1.8632813 3.17578126c0 2.01562502.7441407 3.23437502 1.8632813 3.23437502zm8.0390625 1.0253906v-6.96679688h-.1054688l-2.1035156 1.48828126v-1.42382813l2.2089844-1.55273437h1.5058594v8.45507812z" fill="#1a1f36" fill-rule="nonzero" opacity=".67"/><g opacity=".8"><rect fill="#0d4b3b" fill-rule="nonzero" height="16" rx="2" width="24"/><path d="m13.7640663 13.3938564v-5.70139231l10.1475359.00910497v1.57489503l-1.1728619 1.25339231 1.1728619 1.2648839v1.6083094h-1.8726188l-.9951823-1.0981657-.9881105 1.1023204z" fill="#fffffe"/><path d="m14.4418122 12.7687956v-4.448884h3.7722872v1.02488398h-2.550895v.69569062h2.4900774v1.0078232h-2.4900774v.6833149h2.550895v1.0371713z" fill="#0d4b3b" fill-rule="nonzero"/><path d="m18.1952707 12.7687956 2.087337-2.2270055-2.0874254-2.2217901h1.6156464l1.2754917 1.41003315 1.2791161-1.41003315h1.5461657v.03500552l-2.0428729 2.18678458 2.0428729 2.1638895v.063116h-1.5617237l-1.2981216-1.4241768-1.2847735 1.4241768z" fill="#0d4b3b" fill-rule="nonzero"/><path d="m14.2373481 2.6319558h2.4460552l.8591381 1.95085083v-1.95085083h3.0198453l.5207514 1.46156906.5225194-1.46156906h2.3059447v5.70139227h-12.1865193z" fill="#fffffe"/><g fill="#0d4b3b" fill-rule="nonzero"><path d="m14.7004641 3.25135912-1.9740111 4.44517127h1.3539006l.3724199-.89016575h2.0179447l.3721547.89016575h1.3875801l-1.96579-4.44517127zm.1696353 2.55743646.592-1.41507182.5915581 1.41507182z"/><path d="m18.2119779 7.69573481v-4.44508288l1.903116.00654144.9792707 2.73272928.9856354-2.73927072h1.8316022v4.44508288l-1.1786077.01043094v-3.05334807l-1.1125746 3.04291713h-1.0758011l-1.1356464-3.05334807v3.05334807z"/></g></g></g><path d="m158.906738 27.222168c-2.54541 0-4.132324-1.8408203-4.132324-4.7988282 0-2.9643554 1.580566-4.8051757 4.125977-4.8051757 2.018554 0 3.580078 1.2885742 3.808593 3.1230468h-1.415527c-.266602-1.1362304-1.187012-1.8598632-2.393066-1.8598632-1.644043 0-2.672364 1.3647461-2.672364 3.5419921 0 2.1772461 1.028321 3.5356446 2.678711 3.5356446 1.212403 0 2.132813-.6538086 2.386719-1.6948242h1.415527c-.253906 1.7836914-1.7583 2.9580078-3.802246 2.9580078zm5.430242-.222168v-9.5976562h1.352051v3.802246h.10791c.336426-.7680664 1.066407-1.2250976 2.107422-1.2250976 1.472657 0 2.380371.9331055 2.380371 2.5644531v4.4560547h-1.364746v-4.1323242c0-1.1362305-.51416-1.7011719-1.479004-1.7011719-1.117187 0-1.739257.7172852-1.739257 1.7963867v4.0371094zm9.632391.1142578c-1.333008 0-2.304199-.7998047-2.304199-2.0566406 0-1.237793.926758-1.9550781 2.570801-2.0566406l1.872558-.1142578v-.6030274c0-.7553711-.482422-1.1806641-1.415527-1.1806641-.761719 0-1.288574.2856446-1.440918.7871094h-1.320313c.139649-1.1616211 1.256836-1.9169922 2.824707-1.9169922 1.732911 0 2.71045.8632813 2.71045 2.3105469v4.7163086h-1.313965v-.9775391h-.10791c-.412598.6982422-1.167969 1.0917969-2.075684 1.0917969zm.349121-1.0981445c1.02832 0 1.790039-.6728516 1.790039-1.5615235v-.5966796l-1.688476.1142578c-.952149.0634765-1.383789.3999023-1.383789 1.0283203 0 .6411133.53955 1.015625 1.282226 1.015625zm4.94782.9838867v-6.8935547h1.313965v1.0473633h.101563c.196777-.6791992.964844-1.1679688 1.866211-1.1679688.203125 0 .463379.019043.609375.0507813v1.2822266c-.114258-.0317383-.520508-.0761719-.761719-.0761719-1.034668 0-1.764648.6665039-1.764648 1.6376953v4.1196289zm7.797918 2.6342773c-1.726562 0-2.84375-.7680664-2.989746-1.9296875h1.396485c.114258.5205079.691894.850586 1.612304.850586 1.136231 0 1.809082-.5585938 1.809082-1.4916992v-1.3266602h-.101562c-.418945.7490234-1.180664 1.1616211-2.132813 1.1616211-1.764648 0-2.856445-1.3647461-2.856445-3.434082 0-2.0883789 1.104492-3.4785157 2.869141-3.4785157.952148 0 1.783691.4697266 2.170898 1.21875h.10791v-1.0981445h1.307618v6.9633789c0 1.5678711-1.237793 2.5644531-3.192872 2.5644531zm-.019043-3.8657226c1.167969 0 1.872559-.8950195 1.872559-2.3041992s-.710937-2.3105469-1.872559-2.3105469c-1.174316 0-1.834472.9013672-1.834472 2.3105469s.660156 2.3041992 1.834472 2.3041992zm9.58161-.6157227h1.313965c-.29834 1.21875-1.415528 1.9804688-2.996094 1.9804688-1.980469 0-3.192871-1.3647461-3.192871-3.5673828 0-2.1899414 1.237793-3.5927735 3.186523-3.5927735 1.92334 0 3.084961 1.3139649 3.084961 3.472168v.4697266h-4.881347v.0634765c.044433 1.2504883.749023 2.0375977 1.84082 2.0375977.825195 0 1.390137-.3046875 1.644043-.8632813zm-1.694824-4.0688476c-1.009278 0-1.713868.7363281-1.790039 1.8471679h3.491211c-.031739-1.1171875-.691895-1.8471679-1.701172-1.8471679zm13.85023 1.2377929h-1.32666c-.158691-.6728515-.717285-1.1870117-1.631348-1.1870117-1.142578 0-1.84082.9013672-1.84082 2.3930664 0 1.5234375.70459 2.4438477 1.84082 2.4438477.863282 0 1.453614-.40625 1.631348-1.1552735h1.32666c-.177734 1.3583985-1.244141 2.3168946-2.95166 2.3168946-2.012207 0-3.243652-1.3710938-3.243652-3.6054688 0-2.1899414 1.225097-3.5546875 3.237304-3.5546875 1.73291 0 2.780274 1.0092774 2.958008 2.3486328zm3.32282 4.7924805c-1.333007 0-2.304199-.7998047-2.304199-2.0566406 0-1.237793.926758-1.9550781 2.570801-2.0566406l1.872559-.1142578v-.6030274c0-.7553711-.482422-1.1806641-1.415528-1.1806641-.761719 0-1.288574.2856446-1.440918.7871094h-1.320312c.139648-1.1616211 1.256836-1.9169922 2.824707-1.9169922 1.73291 0 2.710449.8632813 2.710449 2.3105469v4.7163086h-1.313965v-.9775391h-.10791c-.412598.6982422-1.167969 1.0917969-2.075684 1.0917969zm.349122-1.0981445c1.02832 0 1.790039-.6728516 1.790039-1.5615235v-.5966796l-1.688477.1142578c-.952148.0634765-1.383789.3999023-1.383789 1.0283203 0 .6411133.539551 1.015625 1.282227 1.015625zm4.94782.9838867v-6.8935547h1.313965v1.0473633h.101562c.196778-.6791992.964844-1.1679688 1.866211-1.1679688.203125 0 .463379.019043.609375.0507813v1.2822266c-.114258-.0317383-.520508-.0761719-.761719-.0761719-1.034668 0-1.764648.6665039-1.764648 1.6376953v4.1196289zm7.410711.1142578c-1.758301 0-2.869141-1.383789-2.869141-3.5673828 0-2.1708984 1.123535-3.5610352 2.869141-3.5610352.945801 0 1.745605.4570313 2.120117 1.2124024h.101562v-3.7958984h1.364747v9.5976562h-1.307618v-1.0917969h-.10791c-.412597.7553711-1.21875 1.2060547-2.170898 1.2060547zm.387207-5.9604492c-1.148926 0-1.847168.9077148-1.847168 2.3994141 0 1.4980468.691894 2.3930664 1.847168 2.3930664 1.148926 0 1.859863-.9077149 1.859863-2.3930664 0-1.4726563-.717285-2.3994141-1.859863-2.3994141zm11.431773 5.9794922c-2.024902 0-3.262695-1.3520508-3.262695-3.5800781 0-2.2216797 1.244141-3.5800782 3.262695-3.5800782 2.012207 0 3.256348 1.3520508 3.256348 3.5800782 0 2.2280273-1.237793 3.5800781-3.256348 3.5800781zm0-1.1616211c1.180664 0 1.853516-.8886719 1.853516-2.418457 0-1.5361329-.672852-2.4248047-1.853516-2.4248047-1.187011 0-1.853515.8886718-1.853515 2.4248047 0 1.5361328.666504 2.418457 1.853515 2.418457zm4.751043 1.0283203v-6.8935547h1.313965v1.0917969h.101563c.336425-.7617188 1.021972-1.2250977 2.062988-1.2250977 1.54248 0 2.393066.9204102 2.393066 2.5644532v4.4624023h-1.364746v-4.1386719c0-1.1425781-.482422-1.7011719-1.491699-1.7011719s-1.650391.6855469-1.650391 1.7963868v4.043457zm11.835028-3.0595703h-4.164063v-1.2631836h4.164063zm1.69782-1.9042969c0-1.199707 1.123535-2.0629883 2.685058-2.0629883 1.555176 0 2.570801.7236328 2.704102 1.9169922h-1.307617c-.126953-.5141601-.62207-.8505859-1.396485-.8505859-.761718 0-1.339355.3745117-1.339355.9331054 0 .425293.349121.6918946 1.098145.869629l1.148925.2666015c1.313965.3046875 1.929688.8696289 1.929688 1.8725586 0 1.2822266-1.212403 2.1518555-2.862793 2.1518555-1.644043 0-2.716797-.7426758-2.837403-1.9423828h1.364747c.171386.5395508.679199.8759765 1.504394.8759765.850586 0 1.453613-.3935547 1.453613-.9584961 0-.4316406-.32373-.7109375-1.015625-.8759765l-1.206054-.2856446c-1.313965-.3046875-1.92334-.8886718-1.92334-1.9106445zm11.55573 3.1166992h1.313965c-.29834 1.21875-1.415527 1.9804688-2.996094 1.9804688-1.980468 0-3.192871-1.3647461-3.192871-3.5673828 0-2.1899414 1.237793-3.5927735 3.186524-3.5927735 1.92334 0 3.084961 1.3139649 3.084961 3.472168v.4697266h-4.881348v.0634765c.044434 1.2504883.749023 2.0375977 1.84082 2.0375977.825196 0 1.390137-.3046875 1.644043-.8632813zm-1.694824-4.0688476c-1.009277 0-1.713867.7363281-1.790039 1.8471679h3.491211c-.031738-1.1171875-.691895-1.8471679-1.701172-1.8471679zm4.427313.9521484c0-1.199707 1.123535-2.0629883 2.685058-2.0629883 1.555176 0 2.570801.7236328 2.704102 1.9169922h-1.307617c-.126954-.5141601-.622071-.8505859-1.396485-.8505859-.761719 0-1.339355.3745117-1.339355.9331054 0 .425293.349121.6918946 1.098144.869629l1.148926.2666015c1.313965.3046875 1.929688.8696289 1.929688 1.8725586 0 1.2822266-1.212403 2.1518555-2.862793 2.1518555-1.644043 0-2.716797-.7426758-2.837403-1.9423828h1.364746c.171387.5395508.6792.8759765 1.504395.8759765.850586 0 1.453613-.3935547 1.453613-.9584961 0-.4316406-.32373-.7109375-1.015625-.8759765l-1.206055-.2856446c-1.313964-.3046875-1.923339-.8886718-1.923339-1.9106445zm6.737859 0c0-1.199707 1.123535-2.0629883 2.685059-2.0629883 1.555175 0 2.5708.7236328 2.704101 1.9169922h-1.307617c-.126953-.5141601-.62207-.8505859-1.396484-.8505859-.761719 0-1.339356.3745117-1.339356.9331054 0 .425293.349121.6918946 1.098145.869629l1.148925.2666015c1.313965.3046875 1.929688.8696289 1.929688 1.8725586 0 1.2822266-1.212402 2.1518555-2.862793 2.1518555-1.644043 0-2.716797-.7426758-2.837402-1.9423828h1.364746c.171386.5395508.679199.8759765 1.504394.8759765.850586 0 1.453614-.3935547 1.453614-.9584961 0-.4316406-.323731-.7109375-1.015625-.8759765l-1.206055-.2856446c-1.313965-.3046875-1.92334-.8886718-1.92334-1.9106445zm7.728094-3.1611328c-.476074 0-.863281-.387207-.863281-.8569336 0-.4760742.387207-.8632812.863281-.8632812s.863281.387207.863281.8632812c0 .4697266-.387207.8569336-.863281.8569336zm-.679199 8.125v-6.8935547h1.358398v6.8935547zm6.141179.1333008c-2.024902 0-3.262695-1.3520508-3.262695-3.5800781 0-2.2216797 1.244141-3.5800782 3.262695-3.5800782 2.012207 0 3.256348 1.3520508 3.256348 3.5800782 0 2.2280273-1.237793 3.5800781-3.256348 3.5800781zm0-1.1616211c1.180664 0 1.853516-.8886719 1.853516-2.418457 0-1.5361329-.672852-2.4248047-1.853516-2.4248047-1.187012 0-1.853515.8886718-1.853515 2.4248047 0 1.5361328.666503 2.418457 1.853515 2.418457zm4.751043 1.0283203v-6.8935547h1.313965v1.0917969h.101563c.336425-.7617188 1.021972-1.2250977 2.062988-1.2250977 1.54248 0 2.393066.9204102 2.393066 2.5644532v4.4624023h-1.364746v-4.1386719c0-1.1425781-.482422-1.7011719-1.491699-1.7011719s-1.650391.6855469-1.650391 1.7963868v4.043457zm-135.559988 18.2158203c-2.075684 0-3.173828-1.2568359-3.192871-2.84375-.006348-.2666015.02539-.5458984.082519-.8251953l1.19336-5.706543h1.167968l-1.180664 5.6303711c-.063476.2983399-.088867.5839844-.082519.8442383.044433 1.1235352.755371 1.847168 2.215332 1.847168 1.358398 0 2.418457-.850586 2.723144-2.2788086l1.288575-6.0429688h1.167968l-1.333007 6.2651368c-.418946 1.9550781-1.758301 3.1103515-4.049805 3.1103515zm6.299871-5.1352539c0-1.21875 1.098145-2.0439453 2.564453-2.0439453 1.453613 0 2.386719.7490234 2.570801 1.8725586h-1.085449c-.139649-.590332-.70459-.9458008-1.504395-.9458008-.83789 0-1.447265.425293-1.447265 1.015625 0 .4189453.336425.7236328.958496.9267578l.926757.2983399c1.148926.368164 1.631348.9267578 1.631348 1.8471679 0 1.1997071-1.167969 2.069336-2.754883 2.069336-1.504394 0-2.577148-.7934571-2.678711-1.9550782h1.123535c.171387.6030274.749024 1.034668 1.605958 1.034668.926757 0 1.580566-.4443359 1.580566-1.0664062 0-.3999024-.222168-.7236329-.856934-.9267579l-1.047363-.3364257c-1.060059-.3427735-1.586914-.8823243-1.586914-1.7900391zm8.870672 5.0400391c-1.529785 0-2.780274-1.015625-2.780274-2.862793 0-2.5263672 1.472657-4.2211914 3.561036-4.2211914 1.409179 0 2.596191.9902344 2.602539 2.7675781 0 .2666016-.038086.7680664-.08252 1.0283203h-4.932129c-.006347.1142578-.012695.2285157-.012695.3427735 0 1.4091797.888672 1.9487304 1.713867 1.9487304.901367 0 1.43457-.3427734 1.720215-.8696289h1.161621c-.279297 1.053711-1.358398 1.866211-2.95166 1.866211zm-1.485352-4.1704102h3.713379c.006348-.0380859.012696-.1777344.012696-.2856445 0-.9013672-.533204-1.663086-1.561524-1.663086-1.053711 0-1.847168.7807618-2.164551 1.9487305zm5.614325 4.0498047 1.453613-6.8427734h1.053711l-.184082.8696289h.101562c.450684-.6791993 1.034668-.9902344 1.834473-.9902344.29834 0 .666504.0444336.799805.0952148l-.234864 1.0473633c-.196777-.0444336-.634765-.0825195-.863281-.0825195-1.098145 0-1.726562.5839844-1.999512 1.8598633l-.856933 4.043457zm12.434703-6.9633789c1.656738 0 2.786621 1.1425781 2.786621 2.8183594 0 2.4628906-1.529785 4.265625-3.618164 4.265625-1.656739 0-2.799317-1.1552735-2.799317-2.8310547 0-2.4882813 1.504395-4.2529297 3.63086-4.2529297zm-.691895 6.1000977c1.275879 0 2.310547-1.3583985 2.310547-3.0214844 0-1.3012696-.647461-2.0947266-1.720215-2.0947266-1.40918 0-2.367676 1.2631836-2.367676 3.1357422 0 1.1870117.710938 1.9804688 1.777344 1.9804688zm4.262274.8632812 1.453613-6.8427734h1.060058l-.21582 1.0219726h.101563c.425293-.609375 1.053711-1.1425781 2.075683-1.1425781 1.313965 0 2.107422.9711914 2.107422 2.0566406 0 .241211-.031738.5078125-.088867.7871094l-.875977 4.1196289h-1.11084l.837891-3.9291992c.050781-.2475586.08252-.4697266.08252-.6665039 0-.8251953-.501465-1.3837891-1.415528-1.3837891-1.053711 0-1.790039.7680664-2.012207 1.8027344l-.888672 4.1767578zm11.355601 2.4882812c-.32373 0-.666504-.0698242-.787109-.1015624l.190429-.9077149c.126954.0380859.374512.0825195.660157.0825195.457031 0 .831543-.2729492 1.301269-1.1489257l.247559-.4633789-1.11084-6.7919922h1.085449l.8125 5.4399414h.101563l2.996093-5.4399414h1.199707l-4.354492 7.5917968c-.799804 1.3964844-1.409179 1.7392578-2.342285 1.7392578zm10.463934-9.4516601c1.656738 0 2.786621 1.1425781 2.786621 2.8183594 0 2.4628906-1.529785 4.265625-3.618164 4.265625-1.656739 0-2.799317-1.1552735-2.799317-2.8310547 0-2.4882813 1.504395-4.2529297 3.63086-4.2529297zm-.691895 6.1000977c1.275879 0 2.310547-1.3583985 2.310547-3.0214844 0-1.3012696-.647461-2.0947266-1.720215-2.0947266-1.409179 0-2.367676 1.2631836-2.367676 3.1357422 0 1.1870117.710938 1.9804688 1.777344 1.9804688zm11.282781-5.9794922-1.453613 6.8427734h-1.053711l.209473-.9267578h-.101563c-.380859.590332-1.091797 1.0473633-2.120117 1.0473633-1.24414 0-2.043945-.8569336-2.043945-1.9868164 0-.203125.038086-.609375.095215-.8886719l.856933-4.0878906h1.11084l-.831543 3.9291992c-.050781.2475586-.088867.609375-.088867.7680664 0 .8759766.431641 1.2822266 1.32666 1.2822266 1.098145 0 1.885254-.7807618 2.11377-1.866211l.875976-4.1132812zm.371161 6.8427734 1.453613-6.8427734h1.053711l-.184082.8696289h.101562c.450684-.6791993 1.034668-.9902344 1.834473-.9902344.29834 0 .666504.0444336.799805.0952148l-.234864 1.0473633c-.196777-.0444336-.634765-.0825195-.863281-.0825195-1.098144 0-1.726562.5839844-1.999512 1.8598633l-.856933 4.043457zm9.260875-4.9194336c0-1.21875 1.098144-2.0439453 2.564453-2.0439453 1.453613 0 2.386718.7490234 2.5708 1.8725586h-1.085449c-.139648-.590332-.70459-.9458008-1.504394-.9458008-.837891 0-1.447266.425293-1.447266 1.015625 0 .4189453.336426.7236328.958496.9267578l.926758.2983399c1.148926.368164 1.631348.9267578 1.631348 1.8471679 0 1.1997071-1.167969 2.069336-2.754883 2.069336-1.504395 0-2.577149-.7934571-2.678711-1.9550782h1.123535c.171387.6030274.749024 1.034668 1.605957 1.034668.926758 0 1.580567-.4443359 1.580567-1.0664062 0-.3999024-.222168-.7236329-.856934-.9267579l-1.047363-.3364257c-1.060059-.3427735-1.586914-.8823243-1.586914-1.7900391zm8.223211-3.2436523c-.418946 0-.761719-.3427735-.761719-.7617188s.342773-.7617187.761719-.7617187c.418945 0 .761718.3427734.761718.7617187s-.342773.7617188-.761718.7617188zm-2.418458 8.1630859 1.453614-6.8427734h1.091797l-1.453614 6.8427734zm5.493719.0507812c-.952148 0-1.637695-.4570312-1.637695-1.383789 0-.1777344.025391-.3745117.069824-.590332l.856934-4.0053711h-1.148926l.19043-.9140625h1.155273l.361816-1.7709961h1.11084l-.374511 1.7709961h1.555175l-.203125.9140625h-1.54248l-.780762 3.6689453c-.050781.2412109-.076172.4443359-.076172.6157226 0 .5205078.317383.7363282.863282.7363282.196777 0 .330078-.0063477.476074-.0253907l-.196778.9267578c-.190429.0444336-.437988.0571289-.679199.0571289zm5.22077.0698243c-1.529785 0-2.780274-1.015625-2.780274-2.862793 0-2.5263672 1.472657-4.2211914 3.561035-4.2211914 1.40918 0 2.596192.9902344 2.60254 2.7675781 0 .2666016-.038086.7680664-.08252 1.0283203h-4.932129c-.006348.1142578-.012695.2285157-.012695.3427735 0 1.4091797.888672 1.9487304 1.713867 1.9487304.901367 0 1.43457-.3427734 1.720215-.8696289h1.161621c-.279297 1.053711-1.358399 1.866211-2.95166 1.866211zm-1.485352-4.1704102h3.713379c.006348-.0380859.012695-.1777344.012695-.2856445 0-.9013672-.533203-1.663086-1.561523-1.663086-1.053711 0-1.847168.7807618-2.164551 1.9487305zm13.171031-2.9135742c1.656739 0 2.786622 1.1425781 2.786622 2.8183594 0 2.4628906-1.529786 4.265625-3.618165 4.265625-1.656738 0-2.799316-1.1552735-2.799316-2.8310547 0-2.4882813 1.504395-4.2529297 3.630859-4.2529297zm-.691894 6.1000977c1.275879 0 2.310547-1.3583985 2.310547-3.0214844 0-1.3012696-.647461-2.0947266-1.720215-2.0947266-1.40918 0-2.367676 1.2631836-2.367676 3.1357422 0 1.1870117.710938 1.9804688 1.777344 1.9804688zm4.211492.8632812 1.453613-6.8427734h1.053711l-.184082.8696289h.101563c.450683-.6791993 1.034668-.9902344 1.834472-.9902344.29834 0 .666504.0444336.799805.0952148l-.234863 1.0473633c-.196777-.0444336-.634766-.0825195-.863281-.0825195-1.098145 0-1.726563.5839844-1.999512 1.8598633l-.856934 4.043457zm10.587535.1206055c-1.193359 0-2.094726-.8251953-2.094726-1.8916016 0-1.3457031 1.053711-2.1582031 2.95166-2.2407227l1.942383-.0888671.101562-.4633789c.025391-.1396485.038086-.222168.038086-.3237305 0-.6918945-.545898-1.0981445-1.466308-1.0981445-.768067 0-1.30127.3046875-1.51709.8569336h-1.155274c.304688-1.1298829 1.371094-1.8344727 2.761231-1.8344727 1.504394 0 2.488281.7553711 2.488281 1.9169922 0 .184082-.019043.368164-.057129.5585937l-.952148 4.487793h-1.060059l.19043-.8950195h-.101563c-.476074.6284179-1.237793 1.015625-2.069336 1.015625zm.342774-.9458008c1.02832 0 1.897949-.6791992 2.101074-1.605957l.171387-.7871094-1.821778.0888672c-1.117187.0571289-1.764648.5205078-1.764648 1.2377929 0 .6220704.539551 1.0664063 1.313965 1.0664063zm5.169988 3.1103515h-1.098145l1.942383-9.1279296h1.053711l-.196777.9331054h.101562c.495118-.6474609 1.313965-1.0537109 2.183594-1.0537109 1.377442 0 2.4375 1.1171875 2.4375 2.6469727 0 2.5009765-1.529785 4.4370117-3.503906 4.4370117-.990235 0-1.809082-.5649414-2.050293-1.3837891h-.101563zm2.837402-3.1484374c1.396485 0 2.443848-1.4091797 2.443848-3.288086 0-1.1552734-.609375-1.828125-1.644043-1.828125-1.415527 0-2.52002 1.4155274-2.52002 3.2246094 0 1.1616211.660157 1.8916016 1.720215 1.8916016zm4.979559 3.1484374h-1.098145l1.942383-9.1279296h1.053711l-.196777.9331054h.101562c.495118-.6474609 1.313965-1.0537109 2.183594-1.0537109 1.377441 0 2.4375 1.1171875 2.4375 2.6469727 0 2.5009765-1.529785 4.4370117-3.503906 4.4370117-.990235 0-1.809082-.5649414-2.050293-1.3837891h-.101563zm2.837402-3.1484374c1.396485 0 2.443848-1.4091797 2.443848-3.288086 0-1.1552734-.609375-1.828125-1.644043-1.828125-1.415527 0-2.52002 1.4155274-2.52002 3.2246094 0 1.1616211.660157 1.8916016 1.720215 1.8916016z" fill="#697386" fill-rule="nonzero"/></g><g transform="translate(408 29)"><path d="m158.906738 27.222168c-2.54541 0-4.132324-1.8408203-4.132324-4.7988282 0-2.9643554 1.580566-4.8051757 4.125977-4.8051757 2.018554 0 3.580078 1.2885742 3.808593 3.1230468h-1.415527c-.266602-1.1362304-1.187012-1.8598632-2.393066-1.8598632-1.644043 0-2.672364 1.3647461-2.672364 3.5419921 0 2.1772461 1.028321 3.5356446 2.678711 3.5356446 1.212403 0 2.132813-.6538086 2.386719-1.6948242h1.415527c-.253906 1.7836914-1.7583 2.9580078-3.802246 2.9580078zm5.430242-.222168v-9.5976562h1.352051v3.802246h.10791c.336426-.7680664 1.066407-1.2250976 2.107422-1.2250976 1.472657 0 2.380371.9331055 2.380371 2.5644531v4.4560547h-1.364746v-4.1323242c0-1.1362305-.51416-1.7011719-1.479004-1.7011719-1.117187 0-1.739257.7172852-1.739257 1.7963867v4.0371094zm9.632391.1142578c-1.333008 0-2.304199-.7998047-2.304199-2.0566406 0-1.237793.926758-1.9550781 2.570801-2.0566406l1.872558-.1142578v-.6030274c0-.7553711-.482422-1.1806641-1.415527-1.1806641-.761719 0-1.288574.2856446-1.440918.7871094h-1.320313c.139649-1.1616211 1.256836-1.9169922 2.824707-1.9169922 1.732911 0 2.71045.8632813 2.71045 2.3105469v4.7163086h-1.313965v-.9775391h-.10791c-.412598.6982422-1.167969 1.0917969-2.075684 1.0917969zm.349121-1.0981445c1.02832 0 1.790039-.6728516 1.790039-1.5615235v-.5966796l-1.688476.1142578c-.952149.0634765-1.383789.3999023-1.383789 1.0283203 0 .6411133.53955 1.015625 1.282226 1.015625zm4.94782.9838867v-6.8935547h1.313965v1.0473633h.101563c.196777-.6791992.964844-1.1679688 1.866211-1.1679688.203125 0 .463379.019043.609375.0507813v1.2822266c-.114258-.0317383-.520508-.0761719-.761719-.0761719-1.034668 0-1.764648.6665039-1.764648 1.6376953v4.1196289zm7.797918 2.6342773c-1.726562 0-2.84375-.7680664-2.989746-1.9296875h1.396485c.114258.5205079.691894.850586 1.612304.850586 1.136231 0 1.809082-.5585938 1.809082-1.4916992v-1.3266602h-.101562c-.418945.7490234-1.180664 1.1616211-2.132813 1.1616211-1.764648 0-2.856445-1.3647461-2.856445-3.434082 0-2.0883789 1.104492-3.4785157 2.869141-3.4785157.952148 0 1.783691.4697266 2.170898 1.21875h.10791v-1.0981445h1.307618v6.9633789c0 1.5678711-1.237793 2.5644531-3.192872 2.5644531zm-.019043-3.8657226c1.167969 0 1.872559-.8950195 1.872559-2.3041992s-.710937-2.3105469-1.872559-2.3105469c-1.174316 0-1.834472.9013672-1.834472 2.3105469s.660156 2.3041992 1.834472 2.3041992zm9.58161-.6157227h1.313965c-.29834 1.21875-1.415528 1.9804688-2.996094 1.9804688-1.980469 0-3.192871-1.3647461-3.192871-3.5673828 0-2.1899414 1.237793-3.5927735 3.186523-3.5927735 1.92334 0 3.084961 1.3139649 3.084961 3.472168v.4697266h-4.881347v.0634765c.044433 1.2504883.749023 2.0375977 1.84082 2.0375977.825195 0 1.390137-.3046875 1.644043-.8632813zm-1.694824-4.0688476c-1.009278 0-1.713868.7363281-1.790039 1.8471679h3.491211c-.031739-1.1171875-.691895-1.8471679-1.701172-1.8471679zm13.85023 1.2377929h-1.32666c-.158691-.6728515-.717285-1.1870117-1.631348-1.1870117-1.142578 0-1.84082.9013672-1.84082 2.3930664 0 1.5234375.70459 2.4438477 1.84082 2.4438477.863282 0 1.453614-.40625 1.631348-1.1552735h1.32666c-.177734 1.3583985-1.244141 2.3168946-2.95166 2.3168946-2.012207 0-3.243652-1.3710938-3.243652-3.6054688 0-2.1899414 1.225097-3.5546875 3.237304-3.5546875 1.73291 0 2.780274 1.0092774 2.958008 2.3486328zm3.32282 4.7924805c-1.333007 0-2.304199-.7998047-2.304199-2.0566406 0-1.237793.926758-1.9550781 2.570801-2.0566406l1.872559-.1142578v-.6030274c0-.7553711-.482422-1.1806641-1.415528-1.1806641-.761719 0-1.288574.2856446-1.440918.7871094h-1.320312c.139648-1.1616211 1.256836-1.9169922 2.824707-1.9169922 1.73291 0 2.710449.8632813 2.710449 2.3105469v4.7163086h-1.313965v-.9775391h-.10791c-.412598.6982422-1.167969 1.0917969-2.075684 1.0917969zm.349122-1.0981445c1.02832 0 1.790039-.6728516 1.790039-1.5615235v-.5966796l-1.688477.1142578c-.952148.0634765-1.383789.3999023-1.383789 1.0283203 0 .6411133.539551 1.015625 1.282227 1.015625zm4.94782.9838867v-6.8935547h1.313965v1.0473633h.101562c.196778-.6791992.964844-1.1679688 1.866211-1.1679688.203125 0 .463379.019043.609375.0507813v1.2822266c-.114258-.0317383-.520508-.0761719-.761719-.0761719-1.034668 0-1.764648.6665039-1.764648 1.6376953v4.1196289zm7.410711.1142578c-1.758301 0-2.869141-1.383789-2.869141-3.5673828 0-2.1708984 1.123535-3.5610352 2.869141-3.5610352.945801 0 1.745605.4570313 2.120117 1.2124024h.101562v-3.7958984h1.364747v9.5976562h-1.307618v-1.0917969h-.10791c-.412597.7553711-1.21875 1.2060547-2.170898 1.2060547zm.387207-5.9604492c-1.148926 0-1.847168.9077148-1.847168 2.3994141 0 1.4980468.691894 2.3930664 1.847168 2.3930664 1.148926 0 1.859863-.9077149 1.859863-2.3930664 0-1.4726563-.717285-2.3994141-1.859863-2.3994141zm11.431773 5.9794922c-2.024902 0-3.262695-1.3520508-3.262695-3.5800781 0-2.2216797 1.244141-3.5800782 3.262695-3.5800782 2.012207 0 3.256348 1.3520508 3.256348 3.5800782 0 2.2280273-1.237793 3.5800781-3.256348 3.5800781zm0-1.1616211c1.180664 0 1.853516-.8886719 1.853516-2.418457 0-1.5361329-.672852-2.4248047-1.853516-2.4248047-1.187011 0-1.853515.8886718-1.853515 2.4248047 0 1.5361328.666504 2.418457 1.853515 2.418457zm5.239813 1.0283203v-5.7827148h-1.136231v-1.0917969h1.136231v-.7426758c0-1.3710937.698242-2.0439453 2.132812-2.0439453.311035 0 .577637.0253906.8125.0634766v1.0283203c-.126953-.019043-.311035-.0317383-.526855-.0317383-.761719 0-1.072754.3491211-1.072754 1.0473633v.6791992h1.54248v1.0917969h-1.523437v5.7827148zm4.801824 0v-5.7827148h-1.136231v-1.0917969h1.136231v-.7426758c0-1.3710937.698242-2.0439453 2.132812-2.0439453.311036 0 .577637.0253906.8125.0634766v1.0283203c-.126953-.019043-.311035-.0317383-.526855-.0317383-.761719 0-1.072754.3491211-1.072754 1.0473633v.6791992h1.542481v1.0917969h-1.523438v5.7827148zm8.216863-3.0595703h-4.164062v-1.2631836h4.164062zm1.697821-1.9042969c0-1.199707 1.123535-2.0629883 2.685058-2.0629883 1.555176 0 2.570801.7236328 2.704102 1.9169922h-1.307617c-.126954-.5141601-.622071-.8505859-1.396485-.8505859-.761719 0-1.339355.3745117-1.339355.9331054 0 .425293.349121.6918946 1.098144.869629l1.148926.2666015c1.313965.3046875 1.929687.8696289 1.929687 1.8725586 0 1.2822266-1.212402 2.1518555-2.862792 2.1518555-1.644043 0-2.716797-.7426758-2.837403-1.9423828h1.364746c.171387.5395508.679199.8759765 1.504395.8759765.850586 0 1.453613-.3935547 1.453613-.9584961 0-.4316406-.32373-.7109375-1.015625-.8759765l-1.206055-.2856446c-1.313964-.3046875-1.923339-.8886718-1.923339-1.9106445zm11.55573 3.1166992h1.313965c-.29834 1.21875-1.415527 1.9804688-2.996094 1.9804688-1.980469 0-3.192871-1.3647461-3.192871-3.5673828 0-2.1899414 1.237793-3.5927735 3.186523-3.5927735 1.92334 0 3.084961 1.3139649 3.084961 3.472168v.4697266h-4.881347v.0634765c.044433 1.2504883.749023 2.0375977 1.84082 2.0375977.825195 0 1.390137-.3046875 1.644043-.8632813zm-1.694824-4.0688476c-1.009278 0-1.713867.7363281-1.790039 1.8471679h3.491211c-.031739-1.1171875-.691895-1.8471679-1.701172-1.8471679zm4.427312.9521484c0-1.199707 1.123535-2.0629883 2.685059-2.0629883 1.555176 0 2.570801.7236328 2.704101 1.9169922h-1.307617c-.126953-.5141601-.62207-.8505859-1.396484-.8505859-.761719 0-1.339356.3745117-1.339356.9331054 0 .425293.349122.6918946 1.098145.869629l1.148926.2666015c1.313965.3046875 1.929687.8696289 1.929687 1.8725586 0 1.2822266-1.212402 2.1518555-2.862793 2.1518555-1.644043 0-2.716797-.7426758-2.837402-1.9423828h1.364746c.171387.5395508.679199.8759765 1.504395.8759765.850585 0 1.453613-.3935547 1.453613-.9584961 0-.4316406-.323731-.7109375-1.015625-.8759765l-1.206055-.2856446c-1.313965-.3046875-1.92334-.8886718-1.92334-1.9106445zm6.73786 0c0-1.199707 1.123535-2.0629883 2.685058-2.0629883 1.555176 0 2.570801.7236328 2.704102 1.9169922h-1.307617c-.126953-.5141601-.622071-.8505859-1.396485-.8505859-.761718 0-1.339355.3745117-1.339355.9331054 0 .425293.349121.6918946 1.098144.869629l1.148926.2666015c1.313965.3046875 1.929688.8696289 1.929688 1.8725586 0 1.2822266-1.212403 2.1518555-2.862793 2.1518555-1.644043 0-2.716797-.7426758-2.837403-1.9423828h1.364746c.171387.5395508.6792.8759765 1.504395.8759765.850586 0 1.453613-.3935547 1.453613-.9584961 0-.4316406-.32373-.7109375-1.015625-.8759765l-1.206054-.2856446c-1.313965-.3046875-1.92334-.8886718-1.92334-1.9106445zm7.728093-3.1611328c-.476074 0-.863281-.387207-.863281-.8569336 0-.4760742.387207-.8632812.863281-.8632812.476075 0 .863282.387207.863282.8632812 0 .4697266-.387207.8569336-.863282.8569336zm-.679199 8.125v-6.8935547h1.358399v6.8935547zm6.14118.1333008c-2.024902 0-3.262695-1.3520508-3.262695-3.5800781 0-2.2216797 1.24414-3.5800782 3.262695-3.5800782 2.012207 0 3.256348 1.3520508 3.256348 3.5800782 0 2.2280273-1.237793 3.5800781-3.256348 3.5800781zm0-1.1616211c1.180664 0 1.853516-.8886719 1.853516-2.418457 0-1.5361329-.672852-2.4248047-1.853516-2.4248047-1.187012 0-1.853516.8886718-1.853516 2.4248047 0 1.5361328.666504 2.418457 1.853516 2.418457zm4.751043 1.0283203v-6.8935547h1.313965v1.0917969h.101562c.336426-.7617188 1.021973-1.2250977 2.062988-1.2250977 1.542481 0 2.393067.9204102 2.393067 2.5644532v4.4624023h-1.364746v-4.1386719c0-1.1425781-.482422-1.7011719-1.491699-1.7011719-1.009278 0-1.650391.6855469-1.650391 1.7963868v4.043457zm-137.232418 18.2158203c-2.075684 0-3.173828-1.2568359-3.192871-2.84375-.006348-.2666015.02539-.5458984.082519-.8251953l1.19336-5.706543h1.167968l-1.180664 5.6303711c-.063476.2983399-.088867.5839844-.082519.8442383.044433 1.1235352.755371 1.847168 2.215332 1.847168 1.358398 0 2.418457-.850586 2.723144-2.2788086l1.288575-6.0429688h1.167968l-1.333007 6.2651368c-.418946 1.9550781-1.758301 3.1103515-4.049805 3.1103515zm6.299871-5.1352539c0-1.21875 1.098145-2.0439453 2.564453-2.0439453 1.453613 0 2.386719.7490234 2.570801 1.8725586h-1.085449c-.139649-.590332-.70459-.9458008-1.504395-.9458008-.83789 0-1.447265.425293-1.447265 1.015625 0 .4189453.336425.7236328.958496.9267578l.926757.2983399c1.148926.368164 1.631348.9267578 1.631348 1.8471679 0 1.1997071-1.167969 2.069336-2.754883 2.069336-1.504394 0-2.577148-.7934571-2.678711-1.9550782h1.123535c.171387.6030274.749024 1.034668 1.605958 1.034668.926757 0 1.580566-.4443359 1.580566-1.0664062 0-.3999024-.222168-.7236329-.856934-.9267579l-1.047363-.3364257c-1.060059-.3427735-1.586914-.8823243-1.586914-1.7900391zm8.870672 5.0400391c-1.529785 0-2.780274-1.015625-2.780274-2.862793 0-2.5263672 1.472657-4.2211914 3.561036-4.2211914 1.409179 0 2.596191.9902344 2.602539 2.7675781 0 .2666016-.038086.7680664-.08252 1.0283203h-4.932129c-.006347.1142578-.012695.2285157-.012695.3427735 0 1.4091797.888672 1.9487304 1.713867 1.9487304.901367 0 1.43457-.3427734 1.720215-.8696289h1.161621c-.279297 1.053711-1.358398 1.866211-2.95166 1.866211zm-1.485352-4.1704102h3.713379c.006348-.0380859.012696-.1777344.012696-.2856445 0-.9013672-.533204-1.663086-1.561524-1.663086-1.053711 0-1.847168.7807618-2.164551 1.9487305zm5.614325 4.0498047 1.453613-6.8427734h1.053711l-.184082.8696289h.101562c.450684-.6791993 1.034668-.9902344 1.834473-.9902344.29834 0 .666504.0444336.799805.0952148l-.234864 1.0473633c-.196777-.0444336-.634765-.0825195-.863281-.0825195-1.098145 0-1.726562.5839844-1.999512 1.8598633l-.856933 4.043457zm8.454722 0 1.453613-6.8427734h1.060059l-.21582 1.0219726h.101562c.425293-.609375 1.053711-1.1425781 2.075684-1.1425781 1.313965 0 2.107422.9711914 2.107422 2.0566406 0 .241211-.031739.5078125-.088867.7871094l-.875977 4.1196289h-1.11084l.837891-3.9291992c.050781-.2475586.082519-.4697266.082519-.6665039 0-.8251953-.501465-1.3837891-1.415527-1.3837891-1.053711 0-1.790039.7680664-2.012207 1.8027344l-.888672 4.1767578zm11.441473-6.9633789c1.656738 0 2.786621 1.1425781 2.786621 2.8183594 0 2.4628906-1.529785 4.265625-3.618164 4.265625-1.656738 0-2.799317-1.1552735-2.799317-2.8310547 0-2.4882813 1.504395-4.2529297 3.63086-4.2529297zm-.691895 6.1000977c1.275879 0 2.310547-1.3583985 2.310547-3.0214844 0-1.3012696-.647461-2.0947266-1.720215-2.0947266-1.409179 0-2.367675 1.2631836-2.367675 3.1357422 0 1.1870117.710937 1.9804688 1.777343 1.9804688zm6.699774.9140624c-.952149 0-1.637696-.4570312-1.637696-1.383789 0-.1777344.025391-.3745117.069825-.590332l.856933-4.0053711h-1.148926l.19043-.9140625h1.155274l.361816-1.7709961h1.11084l-.374512 1.7709961h1.555176l-.203125.9140625h-1.542481l-.780761 3.6689453c-.050782.2412109-.076172.4443359-.076172.6157226 0 .5205078.317383.7363282.863281.7363282.196777 0 .330078-.0063477.476074-.0253907l-.196777.9267578c-.19043.0444336-.437988.0571289-.679199.0571289zm9.648082-7.0141601c1.656738 0 2.786621 1.1425781 2.786621 2.8183594 0 2.4628906-1.529785 4.265625-3.618164 4.265625-1.656738 0-2.799317-1.1552735-2.799317-2.8310547 0-2.4882813 1.504395-4.2529297 3.63086-4.2529297zm-.691895 6.1000977c1.275879 0 2.310547-1.3583985 2.310547-3.0214844 0-1.3012696-.647461-2.0947266-1.720215-2.0947266-1.409179 0-2.367676 1.2631836-2.367676 3.1357422 0 1.1870117.710938 1.9804688 1.777344 1.9804688zm4.262274.8632812 1.453613-6.8427734h1.060059l-.215821 1.0219726h.101563c.425293-.609375 1.053711-1.1425781 2.075683-1.1425781 1.313965 0 2.107422.9711914 2.107422 2.0566406 0 .241211-.031738.5078125-.088867.7871094l-.875977 4.1196289h-1.110839l.83789-3.9291992c.050781-.2475586.08252-.4697266.08252-.6665039 0-.8251953-.501465-1.3837891-1.415528-1.3837891-1.053711 0-1.790039.7680664-2.012207 1.8027344l-.888671 4.1767578zm11.355601 2.4882812c-.32373 0-.666504-.0698242-.787109-.1015624l.19043-.9077149c.126953.0380859.374511.0825195.660156.0825195.457031 0 .831543-.2729492 1.301269-1.1489257l.247559-.4633789-1.11084-6.7919922h1.085449l.8125 5.4399414h.101563l2.996094-5.4399414h1.199707l-4.354493 7.5917968c-.799804 1.3964844-1.409179 1.7392578-2.342285 1.7392578zm10.463934-9.4516601c1.656738 0 2.786621 1.1425781 2.786621 2.8183594 0 2.4628906-1.529785 4.265625-3.618164 4.265625-1.656738 0-2.799317-1.1552735-2.799317-2.8310547 0-2.4882813 1.504395-4.2529297 3.63086-4.2529297zm-.691895 6.1000977c1.275879 0 2.310547-1.3583985 2.310547-3.0214844 0-1.3012696-.647461-2.0947266-1.720215-2.0947266-1.409179 0-2.367675 1.2631836-2.367675 3.1357422 0 1.1870117.710937 1.9804688 1.777343 1.9804688zm11.282782-5.9794922-1.453614 6.8427734h-1.053711l.209473-.9267578h-.101563c-.380859.590332-1.091796 1.0473633-2.120117 1.0473633-1.24414 0-2.043945-.8569336-2.043945-1.9868164 0-.203125.038086-.609375.095215-.8886719l.856933-4.0878906h1.11084l-.831543 3.9291992c-.050781.2475586-.088867.609375-.088867.7680664 0 .8759766.431641 1.2822266 1.32666 1.2822266 1.098145 0 1.885254-.7807618 2.11377-1.866211l.875976-4.1132812zm.37116 6.8427734 1.453613-6.8427734h1.053711l-.184082.8696289h.101562c.450684-.6791993 1.034668-.9902344 1.834473-.9902344.29834 0 .666504.0444336.799805.0952148l-.234864 1.0473633c-.196777-.0444336-.634765-.0825195-.863281-.0825195-1.098144 0-1.726562.5839844-1.999512 1.8598633l-.856933 4.043457zm9.260875-4.9194336c0-1.21875 1.098144-2.0439453 2.564453-2.0439453 1.453613 0 2.386719.7490234 2.570801 1.8725586h-1.08545c-.139648-.590332-.704589-.9458008-1.504394-.9458008-.837891 0-1.447266.425293-1.447266 1.015625 0 .4189453.336426.7236328.958496.9267578l.926758.2983399c1.148926.368164 1.631348.9267578 1.631348 1.8471679 0 1.1997071-1.167969 2.069336-2.754883 2.069336-1.504395 0-2.577148-.7934571-2.678711-1.9550782h1.123535c.171387.6030274.749024 1.034668 1.605957 1.034668.926758 0 1.580567-.4443359 1.580567-1.0664062 0-.3999024-.222168-.7236329-.856934-.9267579l-1.047363-.3364257c-1.060059-.3427735-1.586914-.8823243-1.586914-1.7900391zm8.223211-3.2436523c-.418946 0-.761719-.3427735-.761719-.7617188s.342773-.7617187.761719-.7617187c.418945 0 .761718.3427734.761718.7617187s-.342773.7617188-.761718.7617188zm-2.418457 8.1630859 1.453613-6.8427734h1.091797l-1.453614 6.8427734zm5.493718.0507812c-.952148 0-1.637695-.4570312-1.637695-1.383789 0-.1777344.025391-.3745117.069824-.590332l.856934-4.0053711h-1.148926l.19043-.9140625h1.155273l.361817-1.7709961h1.110839l-.374511 1.7709961h1.555176l-.203125.9140625h-1.542481l-.780762 3.6689453c-.050781.2412109-.076172.4443359-.076172.6157226 0 .5205078.317383.7363282.863282.7363282.196777 0 .330078-.0063477.476074-.0253907l-.196777.9267578c-.19043.0444336-.437989.0571289-.6792.0571289zm5.22077.0698243c-1.529785 0-2.780274-1.015625-2.780274-2.862793 0-2.5263672 1.472657-4.2211914 3.561036-4.2211914 1.409179 0 2.596191.9902344 2.602539 2.7675781 0 .2666016-.038086.7680664-.08252 1.0283203h-4.932129c-.006347.1142578-.012695.2285157-.012695.3427735 0 1.4091797.888672 1.9487304 1.713867 1.9487304.901367 0 1.43457-.3427734 1.720215-.8696289h1.161621c-.279297 1.053711-1.358398 1.866211-2.95166 1.866211zm-1.485352-4.1704102h3.713379c.006348-.0380859.012696-.1777344.012696-.2856445 0-.9013672-.533204-1.663086-1.561524-1.663086-1.053711 0-1.847168.7807618-2.164551 1.9487305zm13.171032-2.9135742c1.656738 0 2.786621 1.1425781 2.786621 2.8183594 0 2.4628906-1.529785 4.265625-3.618164 4.265625-1.656739 0-2.799317-1.1552735-2.799317-2.8310547 0-2.4882813 1.504395-4.2529297 3.63086-4.2529297zm-.691895 6.1000977c1.275879 0 2.310547-1.3583985 2.310547-3.0214844 0-1.3012696-.647461-2.0947266-1.720215-2.0947266-1.40918 0-2.367676 1.2631836-2.367676 3.1357422 0 1.1870117.710938 1.9804688 1.777344 1.9804688zm4.211492.8632812 1.453614-6.8427734h1.05371l-.184082.8696289h.101563c.450684-.6791993 1.034668-.9902344 1.834473-.9902344.298339 0 .666504.0444336.799804.0952148l-.234863 1.0473633c-.196777-.0444336-.634766-.0825195-.863281-.0825195-1.098145 0-1.726563.5839844-1.999512 1.8598633l-.856934 4.043457zm10.587535.1206055c-1.193359 0-2.094726-.8251953-2.094726-1.8916016 0-1.3457031 1.053711-2.1582031 2.95166-2.2407227l1.942383-.0888671.101562-.4633789c.025391-.1396485.038086-.222168.038086-.3237305 0-.6918945-.545898-1.0981445-1.466308-1.0981445-.768067 0-1.30127.3046875-1.51709.8569336h-1.155274c.304688-1.1298829 1.371094-1.8344727 2.761231-1.8344727 1.504394 0 2.488281.7553711 2.488281 1.9169922 0 .184082-.019043.368164-.057129.5585937l-.952148 4.487793h-1.060059l.19043-.8950195h-.101563c-.476074.6284179-1.237793 1.015625-2.069336 1.015625zm.342774-.9458008c1.02832 0 1.897949-.6791992 2.101074-1.605957l.171387-.7871094-1.821778.0888672c-1.117187.0571289-1.764648.5205078-1.764648 1.2377929 0 .6220704.539551 1.0664063 1.313965 1.0664063zm5.169988 3.1103515h-1.098144l1.942382-9.1279296h1.053711l-.196777.9331054h.101562c.495118-.6474609 1.313965-1.0537109 2.183594-1.0537109 1.377442 0 2.4375 1.1171875 2.4375 2.6469727 0 2.5009765-1.529785 4.4370117-3.503906 4.4370117-.990234 0-1.809082-.5649414-2.050293-1.3837891h-.101562zm2.837402-3.1484374c1.396485 0 2.443848-1.4091797 2.443848-3.288086 0-1.1552734-.609375-1.828125-1.644043-1.828125-1.415527 0-2.520019 1.4155274-2.520019 3.2246094 0 1.1616211.660156 1.8916016 1.720214 1.8916016zm4.979559 3.1484374h-1.098144l1.942382-9.1279296h1.053711l-.196777.9331054h.101562c.495118-.6474609 1.313965-1.0537109 2.183594-1.0537109 1.377442 0 2.4375 1.1171875 2.4375 2.6469727 0 2.5009765-1.529785 4.4370117-3.503906 4.4370117-.990234 0-1.809082-.5649414-2.050293-1.3837891h-.101563zm2.837402-3.1484374c1.396485 0 2.443848-1.4091797 2.443848-3.288086 0-1.1552734-.609375-1.828125-1.644043-1.828125-1.415527 0-2.520019 1.4155274-2.520019 3.2246094 0 1.1616211.660156 1.8916016 1.720214 1.8916016z" fill="#697386" fill-rule="nonzero"/><rect fill="#3c4257" height="62" rx="4" width="136"/><g opacity=".5" transform="translate(21 13)"><path d="m2 0h11c1.1045695 0 2 .8954305 2 2s-.8954305 2-2 2h-11c-1.1045695 0-2-.8954305-2-2s.8954305-2 2-2z" fill="#a4cdfe"/><path d="m22 0h22c1.1045695 0 2 .8954305 2 2s-.8954305 2-2 2h-22c-1.1045695 0-2-.8954305-2-2s.8954305-2 2-2z" fill="#efc078"/><path d="m14 9h60c1.1045695 0 2 .8954305 2 2s-.8954305 2-2 2h-60c-1.1045695 0-2-.8954305-2-2s.8954305-2 2-2z" fill="#8792a2"/><path d="m30 17h34c1.1045695 0 2 .8954305 2 2s-.8954305 2-2 2h-34c-1.1045695 0-2-.8954305-2-2s.8954305-2 2-2z" fill="#8792a2"/><path d="m14 17h10c1.1045695 0 2 .8954305 2 2s-.8954305 2-2 2h-10c-1.1045695 0-2-.8954305-2-2s.8954305-2 2-2z" fill="#85d996"/><path d="m14 25h26c1.1045695 0 2 .8954305 2 2s-.8954305 2-2 2h-26c-1.1045695 0-2-.8954305-2-2s.8954305-2 2-2z" fill="#8792a2"/><path d="m4 33h4c1.1045695 0 2 .8954305 2 2s-.8954305 2-2 2h-4c-1.1045695 0-2-.8954305-2-2s.8954305-2 2-2z" fill="#a3acb9"/></g><g opacity=".8" transform="translate(56 19)"><use fill="#000" fill-rule="nonzero" xlink:href="#a"/><g fill="#fff" fill-rule="evenodd" mask="url(#b)"><path d="m0 0h24v24h-24z"/></g></g></g><g fill-rule="nonzero" transform="translate(317 86)"><path d="m52.1938477 15.309082c0 .222168-.0952149.4506836-.2539063.6030274l-4.1577148 4.1577148c-.1777344.1650391-.3745118.2539063-.5712891.2539063-.4760742 0-.8061523-.3364258-.8061523-.7807617 0-.2348633.1015625-.4316407.2539062-.5776368l1.4345703-1.4472656 1.6123047-1.4726562-1.4282226.0761718h-47.43945317c-.49511719 0-.83789063-.3300781-.83789063-.8125 0-.4824218.34277344-.8125.83789063-.8125h47.43945317l1.421875.0825196-1.6059571-1.4790039-1.4345703-1.4472657c-.1523437-.1459961-.2539062-.3427734-.2539062-.5776367 0-.4443359.3300781-.7744141.8061523-.7744141.1967773 0 .3999023.0825196.5776367.260254l4.1513672 4.1450195c.1586914.1586914.2539063.3808594.2539063.6030273z" fill="#c1c9d2"/><path d="m15.9174805 7.88378906v1.11621094h-4.1484375v-6.34130859h1.3271484v5.22509765zm5.578832 1.11621094-.4790039-1.53808594h-2.2280273l-.487793 1.53808594h-1.331543l2.2016602-6.34130859h1.5600586l2.2016601 6.34130859zm-1.6259766-5.05371094-.7954101 2.52246094h1.6611328l-.7866211-2.52246094zm6.629125 5.05371094h-1.3271484v-5.24707031h-1.902832v-1.09423828h5.1328125v1.09423828h-1.9028321zm7.5783438-1.09423828v1.09423828h-4.2011719v-6.34130859h4.2011719v1.09423828h-2.8740235v1.52929687h2.7114258v1.01953125h-2.7114258v1.60400391zm3.0256094-1.22607422v2.3203125h-1.3271485v-6.34130859h2.663086c1.3930664 0 2.25.76904297 2.25 2.02148437 0 .81298828-.421875 1.51611328-1.1513672 1.80175781l1.3359375 2.51806641h-1.5029297l-1.1821289-2.3203125zm0-2.98388672v1.99511719h1.1645507c.6679688 0 1.0590821-.36474609 1.0590821-.99316406 0-.61523438-.413086-1.00195313-1.0722656-1.00195313z" fill="#a3acb9"/></g></g></svg>