<svg width="736" height="416" viewBox="0 0 736 416" fill="none" xmlns="http://www.w3.org/2000/svg">
<g clip-path="url(#clip0)">
<path d="M0 0H736V416H0V0Z" fill="white"/>
<path d="M0 0L736 -6.43432e-05" stroke="#E3E8EE" stroke-width="2" stroke-linecap="round" stroke-linejoin="round" stroke-dasharray="0.01 16"/>
<path d="M0 16L736 15.9999" stroke="#E3E8EE" stroke-width="2" stroke-linecap="round" stroke-linejoin="round" stroke-dasharray="0.01 16"/>
<path d="M0 32L736 31.9999" stroke="#E3E8EE" stroke-width="2" stroke-linecap="round" stroke-linejoin="round" stroke-dasharray="0.01 16"/>
<path d="M0 48L736 47.9999" stroke="#E3E8EE" stroke-width="2" stroke-linecap="round" stroke-linejoin="round" stroke-dasharray="0.01 16"/>
<path d="M0 64L736 63.9999" stroke="#E3E8EE" stroke-width="2" stroke-linecap="round" stroke-linejoin="round" stroke-dasharray="0.01 16"/>
<path d="M0 80L736 79.9999" stroke="#E3E8EE" stroke-width="2" stroke-linecap="round" stroke-linejoin="round" stroke-dasharray="0.01 16"/>
<path d="M0 96L736 95.9999" stroke="#E3E8EE" stroke-width="2" stroke-linecap="round" stroke-linejoin="round" stroke-dasharray="0.01 16"/>
<path d="M0 112L736 112" stroke="#E3E8EE" stroke-width="2" stroke-linecap="round" stroke-linejoin="round" stroke-dasharray="0.01 16"/>
<path d="M0 128L736 128" stroke="#E3E8EE" stroke-width="2" stroke-linecap="round" stroke-linejoin="round" stroke-dasharray="0.01 16"/>
<path d="M0 144L736 144" stroke="#E3E8EE" stroke-width="2" stroke-linecap="round" stroke-linejoin="round" stroke-dasharray="0.01 16"/>
<path d="M0 160L736 160" stroke="#E3E8EE" stroke-width="2" stroke-linecap="round" stroke-linejoin="round" stroke-dasharray="0.01 16"/>
<path d="M0 176L736 176" stroke="#E3E8EE" stroke-width="2" stroke-linecap="round" stroke-linejoin="round" stroke-dasharray="0.01 16"/>
<path d="M0 192L736 192" stroke="#E3E8EE" stroke-width="2" stroke-linecap="round" stroke-linejoin="round" stroke-dasharray="0.01 16"/>
<path d="M0 208L736 208" stroke="#E3E8EE" stroke-width="2" stroke-linecap="round" stroke-linejoin="round" stroke-dasharray="0.01 16"/>
<path d="M0 224L736 224" stroke="#E3E8EE" stroke-width="2" stroke-linecap="round" stroke-linejoin="round" stroke-dasharray="0.01 16"/>
<path d="M0 240L736 240" stroke="#E3E8EE" stroke-width="2" stroke-linecap="round" stroke-linejoin="round" stroke-dasharray="0.01 16"/>
<path d="M0 256L736 256" stroke="#E3E8EE" stroke-width="2" stroke-linecap="round" stroke-linejoin="round" stroke-dasharray="0.01 16"/>
<path d="M0 272L736 272" stroke="#E3E8EE" stroke-width="2" stroke-linecap="round" stroke-linejoin="round" stroke-dasharray="0.01 16"/>
<path d="M0 288L736 288" stroke="#E3E8EE" stroke-width="2" stroke-linecap="round" stroke-linejoin="round" stroke-dasharray="0.01 16"/>
<path d="M0 304L736 304" stroke="#E3E8EE" stroke-width="2" stroke-linecap="round" stroke-linejoin="round" stroke-dasharray="0.01 16"/>
<path d="M0 320L736 320" stroke="#E3E8EE" stroke-width="2" stroke-linecap="round" stroke-linejoin="round" stroke-dasharray="0.01 16"/>
<path d="M0 336L736 336" stroke="#E3E8EE" stroke-width="2" stroke-linecap="round" stroke-linejoin="round" stroke-dasharray="0.01 16"/>
<path d="M0 352L736 352" stroke="#E3E8EE" stroke-width="2" stroke-linecap="round" stroke-linejoin="round" stroke-dasharray="0.01 16"/>
<path d="M0 368L736 368" stroke="#E3E8EE" stroke-width="2" stroke-linecap="round" stroke-linejoin="round" stroke-dasharray="0.01 16"/>
<path d="M0 384L736 384" stroke="#E3E8EE" stroke-width="2" stroke-linecap="round" stroke-linejoin="round" stroke-dasharray="0.01 16"/>
<path d="M0 400L736 400" stroke="#E3E8EE" stroke-width="2" stroke-linecap="round" stroke-linejoin="round" stroke-dasharray="0.01 16"/>
<path d="M0 416L736 416" stroke="#E3E8EE" stroke-width="2" stroke-linecap="round" stroke-linejoin="round" stroke-dasharray="0.01 16"/>
<rect x="0.5" y="0.5" width="735" height="415" stroke="white"/>
</g>
<path d="M32 48C32 39.1634 39.1634 32 48 32H232C240.837 32 248 39.1634 248 48V368C248 376.837 240.837 384 232 384H48C39.1634 384 32 376.837 32 368V48Z" fill="#F7FAFC"/>
<rect x="27" y="27" width="226" height="362" rx="21" stroke="white" stroke-width="10"/>
<path d="M264 48C264 39.1634 271.163 32 280 32H456C464.837 32 472 39.1634 472 48V368C472 376.837 464.837 384 456 384H280C271.163 384 264 376.837 264 368V48Z" fill="#F7FAFC"/>
<rect x="259" y="27" width="218" height="362" rx="21" stroke="white" stroke-width="10"/>
<path d="M488 48C488 39.1634 495.163 32 504 32H688C696.837 32 704 39.1634 704 48V368C704 376.837 696.837 384 688 384H504C495.163 384 488 376.837 488 368V48Z" fill="#F7FAFC"/>
<rect x="483" y="27" width="226" height="362" rx="21" stroke="white" stroke-width="10"/>
<rect x="106" y="52" width="68" height="24" fill="#F7FAFC"/>
<path d="M111.351 69V65.1172H115.363V63.4834H111.351V60.8379H115.746V59.1357H109.286V69H111.351ZM117.455 69H119.444V64.7891C119.444 63.7295 120.189 63.0801 121.276 63.0801C121.598 63.0801 122.062 63.1348 122.22 63.1895V61.4395C122.049 61.3848 121.714 61.3506 121.44 61.3506C120.483 61.3506 119.704 61.918 119.506 62.6699H119.383V61.4736H117.455V69ZM126.718 69.1572C129.035 69.1572 130.43 67.6943 130.43 65.2334C130.43 62.793 129.015 61.3096 126.718 61.3096C124.421 61.3096 123.006 62.7998 123.006 65.2334C123.006 67.6875 124.4 69.1572 126.718 69.1572ZM126.718 67.585C125.651 67.585 125.05 66.7236 125.05 65.2334C125.05 63.7568 125.658 62.8887 126.718 62.8887C127.771 62.8887 128.386 63.7568 128.386 65.2334C128.386 66.7236 127.777 67.585 126.718 67.585ZM132.057 69H134.046V64.6455C134.046 63.627 134.613 62.9707 135.536 62.9707C136.479 62.9707 136.924 63.5244 136.924 64.584V69H138.913V64.1328C138.913 62.335 138.011 61.3096 136.336 61.3096C135.222 61.3096 134.456 61.8359 134.107 62.6836H133.984V61.4736H132.057V69ZM141.415 59.6758V61.542H140.239V63.0527H141.415V66.9697C141.415 68.4326 142.14 69.0273 143.972 69.0273C144.354 69.0273 144.724 68.9863 144.97 68.9385V67.4688C144.778 67.4893 144.642 67.5029 144.382 67.5029C143.705 67.5029 143.404 67.1885 143.404 66.5117V63.0527H144.97V61.542H143.404V59.6758H141.415ZM151.45 66.874C151.238 67.3867 150.698 67.6738 149.912 67.6738C148.873 67.6738 148.217 66.9561 148.189 65.8076V65.7051H153.364V65.1104C153.364 62.7314 152.052 61.3096 149.83 61.3096C147.588 61.3096 146.207 62.8271 146.207 65.2744C146.207 67.708 147.561 69.1572 149.857 69.1572C151.703 69.1572 153.009 68.2754 153.303 66.874H151.45ZM149.837 62.793C150.767 62.793 151.368 63.4355 151.409 64.4678H148.196C148.265 63.4561 148.914 62.793 149.837 62.793ZM154.998 69H156.987V64.6455C156.987 63.627 157.555 62.9707 158.478 62.9707C159.421 62.9707 159.865 63.5244 159.865 64.584V69H161.854V64.1328C161.854 62.335 160.952 61.3096 159.277 61.3096C158.163 61.3096 157.397 61.8359 157.049 62.6836H156.926V61.4736H154.998V69ZM166.489 69.1162C167.535 69.1162 168.39 68.6309 168.793 67.8174H168.916V69H170.844V58.5957H168.854V62.6768H168.738C168.349 61.8428 167.508 61.3506 166.489 61.3506C164.596 61.3506 163.42 62.834 163.42 65.2266C163.42 67.626 164.589 69.1162 166.489 69.1162ZM167.166 62.9639C168.226 62.9639 168.875 63.832 168.875 65.2402C168.875 66.6484 168.232 67.5098 167.166 67.5098C166.1 67.5098 165.464 66.6553 165.464 65.2334C165.464 63.8184 166.106 62.9639 167.166 62.9639Z" fill="#2A2F45"/>
<rect x="106" y="52" width="68" height="24" stroke="#F7FAFC" stroke-width="4"/>
<rect x="335" y="52" width="65" height="24" fill="#F7FAFC"/>
<path d="M342.877 69C344.982 69 346.288 67.9131 346.288 66.1768C346.288 64.9053 345.338 63.9277 344.032 63.8252V63.7021C345.044 63.5518 345.816 62.6426 345.816 61.5967C345.816 60.0723 344.675 59.1357 342.761 59.1357H338.447V69H342.877ZM340.512 60.667H342.234C343.219 60.667 343.786 61.1455 343.786 61.9521C343.786 62.7725 343.178 63.2373 342.063 63.2373H340.512V60.667ZM340.512 67.4619V64.5977H342.303C343.52 64.5977 344.183 65.0898 344.183 66.0127C344.183 66.9561 343.54 67.4619 342.351 67.4619H340.512ZM350.021 69.1162C350.998 69.1162 351.818 68.6992 352.208 68.002H352.331V69H354.259V63.8594C354.259 62.2529 353.131 61.3096 351.135 61.3096C349.241 61.3096 347.963 62.1777 347.833 63.5586H349.665C349.829 63.0869 350.308 62.834 351.025 62.834C351.846 62.834 352.297 63.21 352.297 63.8594V64.4814L350.472 64.5908C348.599 64.7002 347.553 65.4932 347.553 66.8535C347.553 68.2275 348.571 69.1162 350.021 69.1162ZM350.677 67.6602C349.986 67.6602 349.501 67.3115 349.501 66.7305C349.501 66.1768 349.918 65.8555 350.772 65.8008L352.297 65.6982V66.2588C352.297 67.0518 351.6 67.6602 350.677 67.6602ZM362.886 64.0986C362.722 62.417 361.525 61.3096 359.529 61.3096C357.171 61.3096 355.845 62.7383 355.845 65.2197C355.845 67.7285 357.178 69.1572 359.529 69.1572C361.491 69.1572 362.722 68.0771 362.886 66.4229H361.026C360.876 67.1748 360.343 67.5781 359.529 67.5781C358.463 67.5781 357.854 66.7373 357.854 65.2197C357.854 63.7227 358.456 62.8955 359.529 62.8955C360.377 62.8955 360.89 63.374 361.026 64.0986H362.886ZM366.625 64.4473H366.502V58.5957H364.513V69H366.502V66.4707L367.049 65.9033L369.25 69H371.608L368.539 64.7002L371.41 61.4736H369.147L366.625 64.4473ZM377.289 66.874C377.077 67.3867 376.537 67.6738 375.751 67.6738C374.712 67.6738 374.056 66.9561 374.028 65.8076V65.7051H379.203V65.1104C379.203 62.7314 377.891 61.3096 375.669 61.3096C373.427 61.3096 372.046 62.8271 372.046 65.2744C372.046 67.708 373.399 69.1572 375.696 69.1572C377.542 69.1572 378.848 68.2754 379.142 66.874H377.289ZM375.676 62.793C376.605 62.793 377.207 63.4355 377.248 64.4678H374.035C374.104 63.4561 374.753 62.793 375.676 62.793ZM380.837 69H382.826V64.6455C382.826 63.627 383.394 62.9707 384.316 62.9707C385.26 62.9707 385.704 63.5244 385.704 64.584V69H387.693V64.1328C387.693 62.335 386.791 61.3096 385.116 61.3096C384.002 61.3096 383.236 61.8359 382.888 62.6836H382.765V61.4736H380.837V69ZM392.328 69.1162C393.374 69.1162 394.229 68.6309 394.632 67.8174H394.755V69H396.683V58.5957H394.693V62.6768H394.577C394.188 61.8428 393.347 61.3506 392.328 61.3506C390.435 61.3506 389.259 62.834 389.259 65.2266C389.259 67.626 390.428 69.1162 392.328 69.1162ZM393.005 62.9639C394.064 62.9639 394.714 63.832 394.714 65.2402C394.714 66.6484 394.071 67.5098 393.005 67.5098C391.938 67.5098 391.303 66.6553 391.303 65.2334C391.303 63.8184 391.945 62.9639 393.005 62.9639Z" fill="#2A2F45"/>
<rect x="335" y="52" width="65" height="24" stroke="#F7FAFC" stroke-width="4"/>
<rect x="558" y="52" width="75" height="24" fill="#F7FAFC"/>
<path d="M560.958 66.2725C561.033 68.0977 562.558 69.2529 564.909 69.2529C567.384 69.2529 568.908 68.0361 568.908 66.0674C568.908 64.543 568.054 63.6885 566.071 63.2646L564.882 63.0117C563.727 62.7588 563.255 62.3965 563.255 61.7744C563.255 61.002 563.938 60.5029 564.971 60.5029C565.969 60.5029 566.693 61.0293 566.789 61.8359H568.73C568.669 60.0928 567.131 58.8828 564.957 58.8828C562.681 58.8828 561.184 60.0996 561.184 61.9385C561.184 63.4355 562.065 64.3584 563.863 64.7412L565.148 65.0215C566.358 65.2881 566.851 65.6641 566.851 66.3135C566.851 67.0791 566.092 67.6191 565.019 67.6191C563.856 67.6191 563.05 67.0928 562.954 66.2725H560.958ZM571.232 59.6758V61.542H570.057V63.0527H571.232V66.9697C571.232 68.4326 571.957 69.0273 573.789 69.0273C574.172 69.0273 574.541 68.9863 574.787 68.9385V67.4688C574.596 67.4893 574.459 67.5029 574.199 67.5029C573.522 67.5029 573.222 67.1885 573.222 66.5117V63.0527H574.787V61.542H573.222V59.6758H571.232ZM576.448 69H578.438V64.7891C578.438 63.7295 579.183 63.0801 580.27 63.0801C580.591 63.0801 581.056 63.1348 581.213 63.1895V61.4395C581.042 61.3848 580.707 61.3506 580.434 61.3506C579.477 61.3506 578.697 61.918 578.499 62.6699H578.376V61.4736H576.448V69ZM583.558 60.3184C584.173 60.3184 584.679 59.8262 584.679 59.2109C584.679 58.5889 584.173 58.0967 583.558 58.0967C582.942 58.0967 582.43 58.5889 582.43 59.2109C582.43 59.8262 582.942 60.3184 583.558 60.3184ZM582.56 69H584.549V61.4736H582.56V69ZM590.92 61.3506C589.881 61.3506 589.026 61.8633 588.616 62.7109H588.493V61.4736H586.565V71.4951H588.555V67.8516H588.678C589.047 68.6445 589.874 69.1162 590.954 69.1162C592.841 69.1162 593.996 67.6533 593.996 65.2334C593.996 62.8066 592.827 61.3506 590.92 61.3506ZM590.243 67.5098C589.19 67.5098 588.534 66.6484 588.534 65.2402C588.534 63.832 589.19 62.9639 590.25 62.9639C591.31 62.9639 591.952 63.8184 591.952 65.2334C591.952 66.6553 591.316 67.5098 590.243 67.5098ZM600.49 66.874C600.278 67.3867 599.738 67.6738 598.952 67.6738C597.913 67.6738 597.257 66.9561 597.229 65.8076V65.7051H602.404V65.1104C602.404 62.7314 601.092 61.3096 598.87 61.3096C596.628 61.3096 595.247 62.8271 595.247 65.2744C595.247 67.708 596.601 69.1572 598.897 69.1572C600.743 69.1572 602.049 68.2754 602.343 66.874H600.49ZM598.877 62.793C599.807 62.793 600.408 63.4355 600.449 64.4678H597.236C597.305 63.4561 597.954 62.793 598.877 62.793ZM614.183 69H616.418L612.993 59.1357H610.566L607.142 69H609.213L609.972 66.6074H613.438L614.183 69ZM611.653 61.1387H611.776L613 65.0625H610.416L611.653 61.1387ZM618.1 59.1357V69H620.164V65.8896H622.112C624.19 65.8896 625.633 64.5361 625.633 62.5264C625.633 60.4893 624.245 59.1357 622.215 59.1357H618.1ZM620.164 60.7764H621.668C622.857 60.7764 623.534 61.3848 623.534 62.5332C623.534 63.6543 622.844 64.2695 621.661 64.2695H620.164V60.7764ZM629.598 69V59.1357H627.533V69H629.598Z" fill="#2A2F45"/>
<rect x="558" y="52" width="75" height="24" stroke="#F7FAFC" stroke-width="4"/>
<path d="M504 280C504 275.582 507.582 272 512 272H680C684.418 272 688 275.582 688 280V312C688 316.418 684.418 320 680 320H512C507.582 320 504 316.418 504 312V280Z" fill="#D6ECFF"/>
<path d="M535.42 291.545V300H536.475V296.982H538.602C540.189 296.982 541.32 295.863 541.32 294.281C541.32 292.67 540.213 291.545 538.613 291.545H535.42ZM536.475 292.482H538.338C539.562 292.482 540.236 293.121 540.236 294.281C540.236 295.4 539.539 296.045 538.338 296.045H536.475V292.482ZM544.443 300.111C545.287 300.111 545.979 299.742 546.389 299.068H546.482V300H547.443V295.676C547.443 294.363 546.582 293.572 545.041 293.572C543.693 293.572 542.697 294.24 542.562 295.254H543.582C543.723 294.756 544.25 294.469 545.006 294.469C545.949 294.469 546.436 294.896 546.436 295.676V296.25L544.613 296.361C543.143 296.449 542.311 297.1 542.311 298.23C542.311 299.385 543.219 300.111 544.443 300.111ZM544.631 299.227C543.898 299.227 543.354 298.852 543.354 298.207C543.354 297.574 543.775 297.24 544.736 297.176L546.436 297.064V297.645C546.436 298.547 545.668 299.227 544.631 299.227ZM549.611 302.285C550.73 302.285 551.234 301.852 551.773 300.387L554.24 293.684H553.168L551.439 298.881H551.346L549.611 293.684H548.521L550.859 300.006L550.742 300.381C550.479 301.143 550.162 301.418 549.582 301.418C549.441 301.418 549.283 301.412 549.16 301.389V302.25C549.301 302.273 549.477 302.285 549.611 302.285ZM555.588 300H556.596V296.086C556.596 295.195 557.234 294.48 558.061 294.48C558.857 294.48 559.379 294.961 559.379 295.711V300H560.387V295.939C560.387 295.137 560.973 294.48 561.852 294.48C562.742 294.48 563.182 294.938 563.182 295.869V300H564.189V295.635C564.189 294.311 563.469 293.572 562.18 293.572C561.307 293.572 560.586 294.012 560.246 294.68H560.152C559.859 294.023 559.262 293.572 558.406 293.572C557.562 293.572 556.93 293.977 556.643 294.68H556.549V293.684H555.588V300ZM570.213 298.365C569.949 298.922 569.398 299.221 568.584 299.221C567.512 299.221 566.814 298.43 566.762 297.182V297.135H571.303V296.748C571.303 294.785 570.266 293.572 568.561 293.572C566.826 293.572 565.713 294.861 565.713 296.848C565.713 298.846 566.809 300.111 568.561 300.111C569.943 300.111 570.928 299.443 571.221 298.365H570.213ZM568.549 294.463C569.551 294.463 570.219 295.201 570.242 296.32H566.762C566.838 295.201 567.541 294.463 568.549 294.463ZM572.885 300H573.893V296.262C573.893 295.154 574.543 294.48 575.551 294.48C576.559 294.48 577.039 295.02 577.039 296.156V300H578.047V295.91C578.047 294.41 577.256 293.572 575.838 293.572C574.871 293.572 574.256 293.982 573.939 294.68H573.846V293.684H572.885V300ZM580.314 292.049V293.684H579.295V294.527H580.314V298.359C580.314 299.566 580.836 300.047 582.137 300.047C582.336 300.047 582.529 300.023 582.729 299.988V299.139C582.541 299.156 582.441 299.162 582.26 299.162C581.604 299.162 581.322 298.846 581.322 298.102V294.527H582.729V293.684H581.322V292.049H580.314ZM588.166 292.465C588.553 292.465 588.869 292.148 588.869 291.762C588.869 291.375 588.553 291.059 588.166 291.059C587.779 291.059 587.463 291.375 587.463 291.762C587.463 292.148 587.779 292.465 588.166 292.465ZM587.662 300H588.67V293.684H587.662V300ZM590.445 295.412C590.445 296.326 590.984 296.836 592.168 297.123L593.252 297.387C593.926 297.551 594.254 297.844 594.254 298.277C594.254 298.857 593.645 299.262 592.795 299.262C591.986 299.262 591.482 298.922 591.312 298.389H590.275C590.387 299.438 591.354 300.111 592.76 300.111C594.195 300.111 595.291 299.332 595.291 298.201C595.291 297.293 594.717 296.777 593.527 296.49L592.555 296.256C591.811 296.074 591.459 295.805 591.459 295.371C591.459 294.809 592.045 294.428 592.795 294.428C593.557 294.428 594.049 294.762 594.184 295.266H595.18C595.045 294.229 594.125 293.572 592.801 293.572C591.459 293.572 590.445 294.363 590.445 295.412ZM602.018 300.111C602.861 300.111 603.553 299.742 603.963 299.068H604.057V300H605.018V295.676C605.018 294.363 604.156 293.572 602.615 293.572C601.268 293.572 600.271 294.24 600.137 295.254H601.156C601.297 294.756 601.824 294.469 602.58 294.469C603.523 294.469 604.01 294.896 604.01 295.676V296.25L602.188 296.361C600.717 296.449 599.885 297.1 599.885 298.23C599.885 299.385 600.793 300.111 602.018 300.111ZM602.205 299.227C601.473 299.227 600.928 298.852 600.928 298.207C600.928 297.574 601.35 297.24 602.311 297.176L604.01 297.064V297.645C604.01 298.547 603.242 299.227 602.205 299.227ZM607.303 292.049V293.684H606.283V294.527H607.303V298.359C607.303 299.566 607.824 300.047 609.125 300.047C609.324 300.047 609.518 300.023 609.717 299.988V299.139C609.529 299.156 609.43 299.162 609.248 299.162C608.592 299.162 608.311 298.846 608.311 298.102V294.527H609.717V293.684H608.311V292.049H607.303ZM611.662 292.049V293.684H610.643V294.527H611.662V298.359C611.662 299.566 612.184 300.047 613.484 300.047C613.684 300.047 613.877 300.023 614.076 299.988V299.139C613.889 299.156 613.789 299.162 613.607 299.162C612.951 299.162 612.67 298.846 612.67 298.102V294.527H614.076V293.684H612.67V292.049H611.662ZM619.689 298.365C619.426 298.922 618.875 299.221 618.061 299.221C616.988 299.221 616.291 298.43 616.238 297.182V297.135H620.779V296.748C620.779 294.785 619.742 293.572 618.037 293.572C616.303 293.572 615.189 294.861 615.189 296.848C615.189 298.846 616.285 300.111 618.037 300.111C619.42 300.111 620.404 299.443 620.697 298.365H619.689ZM618.025 294.463C619.027 294.463 619.695 295.201 619.719 296.32H616.238C616.314 295.201 617.018 294.463 618.025 294.463ZM622.361 300H623.369V296.086C623.369 295.195 624.008 294.48 624.834 294.48C625.631 294.48 626.152 294.961 626.152 295.711V300H627.16V295.939C627.16 295.137 627.746 294.48 628.625 294.48C629.516 294.48 629.955 294.938 629.955 295.869V300H630.963V295.635C630.963 294.311 630.242 293.572 628.953 293.572C628.08 293.572 627.359 294.012 627.02 294.68H626.926C626.633 294.023 626.035 293.572 625.18 293.572C624.336 293.572 623.703 293.977 623.416 294.68H623.322V293.684H622.361V300ZM635.879 293.572C635.018 293.572 634.262 294.012 633.857 294.738H633.764V293.684H632.803V302.109H633.811V299.051H633.904C634.25 299.719 634.977 300.111 635.879 300.111C637.484 300.111 638.533 298.816 638.533 296.842C638.533 294.855 637.49 293.572 635.879 293.572ZM635.639 299.203C634.502 299.203 633.781 298.289 633.781 296.842C633.781 295.389 634.502 294.48 635.645 294.48C636.799 294.48 637.49 295.365 637.49 296.842C637.49 298.318 636.799 299.203 635.639 299.203ZM640.537 292.049V293.684H639.518V294.527H640.537V298.359C640.537 299.566 641.059 300.047 642.359 300.047C642.559 300.047 642.752 300.023 642.951 299.988V299.139C642.764 299.156 642.664 299.162 642.482 299.162C641.826 299.162 641.545 298.846 641.545 298.102V294.527H642.951V293.684H641.545V292.049H640.537ZM648.564 298.365C648.301 298.922 647.75 299.221 646.936 299.221C645.863 299.221 645.166 298.43 645.113 297.182V297.135H649.654V296.748C649.654 294.785 648.617 293.572 646.912 293.572C645.178 293.572 644.064 294.861 644.064 296.848C644.064 298.846 645.16 300.111 646.912 300.111C648.295 300.111 649.279 299.443 649.572 298.365H648.564ZM646.9 294.463C647.902 294.463 648.57 295.201 648.594 296.32H645.113C645.189 295.201 645.893 294.463 646.9 294.463ZM653.574 300.111C654.447 300.111 655.197 299.695 655.596 298.992H655.689V300H656.65V291.176H655.643V294.68H655.555C655.197 293.988 654.453 293.572 653.574 293.572C651.969 293.572 650.92 294.861 650.92 296.842C650.92 298.828 651.957 300.111 653.574 300.111ZM653.809 294.48C654.951 294.48 655.666 295.395 655.666 296.842C655.666 298.301 654.957 299.203 653.809 299.203C652.654 299.203 651.963 298.318 651.963 296.842C651.963 295.371 652.66 294.48 653.809 294.48Z" fill="#2A2F45"/>
<path d="M48 104C48 99.5817 51.5817 96 56 96H224C228.418 96 232 99.5817 232 104V152C232 156.418 228.418 160 224 160H56C51.5817 160 48 156.418 48 152V104Z" fill="white"/>
<path d="M84.125 124.199C85.9238 124.199 87.2598 123.197 87.541 121.645H86.4688C86.1992 122.623 85.3027 123.227 84.125 123.227C82.4961 123.227 81.4766 121.896 81.4766 119.775C81.4766 117.654 82.4961 116.318 84.1191 116.318C85.2852 116.318 86.1875 117.004 86.4688 118.094H87.541C87.2891 116.465 85.9004 115.346 84.1191 115.346C81.8223 115.346 80.3926 117.045 80.3926 119.775C80.3926 122.5 81.8281 124.199 84.125 124.199ZM91.7773 124.111C93.5762 124.111 94.6895 122.869 94.6895 120.842C94.6895 118.809 93.5762 117.572 91.7773 117.572C89.9785 117.572 88.8652 118.809 88.8652 120.842C88.8652 122.869 89.9785 124.111 91.7773 124.111ZM91.7773 123.203C90.582 123.203 89.9082 122.336 89.9082 120.842C89.9082 119.342 90.582 118.48 91.7773 118.48C92.9727 118.48 93.6465 119.342 93.6465 120.842C93.6465 122.336 92.9727 123.203 91.7773 123.203ZM96.3301 124H97.3379V115.176H96.3301V124ZM99.3535 124H100.361V115.176H99.3535V124ZM106.502 122.365C106.238 122.922 105.688 123.221 104.873 123.221C103.801 123.221 103.104 122.43 103.051 121.182V121.135H107.592V120.748C107.592 118.785 106.555 117.572 104.85 117.572C103.115 117.572 102.002 118.861 102.002 120.848C102.002 122.846 103.098 124.111 104.85 124.111C106.232 124.111 107.217 123.443 107.51 122.365H106.502ZM104.838 118.463C105.84 118.463 106.508 119.201 106.531 120.32H103.051C103.127 119.201 103.83 118.463 104.838 118.463ZM114.4 119.617C114.225 118.492 113.287 117.572 111.752 117.572C109.982 117.572 108.857 118.85 108.857 120.818C108.857 122.828 109.988 124.111 111.758 124.111C113.275 124.111 114.219 123.256 114.4 122.096H113.381C113.193 122.811 112.602 123.203 111.752 123.203C110.627 123.203 109.9 122.277 109.9 120.818C109.9 119.389 110.615 118.48 111.752 118.48C112.66 118.48 113.217 118.99 113.381 119.617H114.4ZM116.428 116.049V117.684H115.408V118.527H116.428V122.359C116.428 123.566 116.949 124.047 118.25 124.047C118.449 124.047 118.643 124.023 118.842 123.988V123.139C118.654 123.156 118.555 123.162 118.373 123.162C117.717 123.162 117.436 122.846 117.436 122.102V118.527H118.842V117.684H117.436V116.049H116.428ZM128.979 119.617C128.803 118.492 127.865 117.572 126.33 117.572C124.561 117.572 123.436 118.85 123.436 120.818C123.436 122.828 124.566 124.111 126.336 124.111C127.854 124.111 128.797 123.256 128.979 122.096H127.959C127.771 122.811 127.18 123.203 126.33 123.203C125.205 123.203 124.479 122.277 124.479 120.818C124.479 119.389 125.193 118.48 126.33 118.48C127.238 118.48 127.795 118.99 127.959 119.617H128.979ZM135.576 117.684H134.568V121.422C134.568 122.529 133.959 123.191 132.846 123.191C131.838 123.191 131.416 122.664 131.416 121.527V117.684H130.408V121.773C130.408 123.268 131.146 124.111 132.564 124.111C133.531 124.111 134.205 123.713 134.521 123.01H134.615V124H135.576V117.684ZM137.328 119.412C137.328 120.326 137.867 120.836 139.051 121.123L140.135 121.387C140.809 121.551 141.137 121.844 141.137 122.277C141.137 122.857 140.527 123.262 139.678 123.262C138.869 123.262 138.365 122.922 138.195 122.389H137.158C137.27 123.438 138.236 124.111 139.643 124.111C141.078 124.111 142.174 123.332 142.174 122.201C142.174 121.293 141.6 120.777 140.41 120.49L139.438 120.256C138.693 120.074 138.342 119.805 138.342 119.371C138.342 118.809 138.928 118.428 139.678 118.428C140.439 118.428 140.932 118.762 141.066 119.266H142.062C141.928 118.229 141.008 117.572 139.684 117.572C138.342 117.572 137.328 118.363 137.328 119.412ZM144.119 116.049V117.684H143.1V118.527H144.119V122.359C144.119 123.566 144.641 124.047 145.941 124.047C146.141 124.047 146.334 124.023 146.533 123.988V123.139C146.346 123.156 146.246 123.162 146.064 123.162C145.408 123.162 145.127 122.846 145.127 122.102V118.527H146.533V117.684H145.127V116.049H144.119ZM150.559 124.111C152.357 124.111 153.471 122.869 153.471 120.842C153.471 118.809 152.357 117.572 150.559 117.572C148.76 117.572 147.646 118.809 147.646 120.842C147.646 122.869 148.76 124.111 150.559 124.111ZM150.559 123.203C149.363 123.203 148.689 122.336 148.689 120.842C148.689 119.342 149.363 118.48 150.559 118.48C151.754 118.48 152.428 119.342 152.428 120.842C152.428 122.336 151.754 123.203 150.559 123.203ZM155.053 124H156.061V120.086C156.061 119.195 156.699 118.48 157.525 118.48C158.322 118.48 158.844 118.961 158.844 119.711V124H159.852V119.939C159.852 119.137 160.438 118.48 161.316 118.48C162.207 118.48 162.646 118.938 162.646 119.869V124H163.654V119.635C163.654 118.311 162.934 117.572 161.645 117.572C160.771 117.572 160.051 118.012 159.711 118.68H159.617C159.324 118.023 158.727 117.572 157.871 117.572C157.027 117.572 156.395 117.977 156.107 118.68H156.014V117.684H155.053V124ZM169.678 122.365C169.414 122.922 168.863 123.221 168.049 123.221C166.977 123.221 166.279 122.43 166.227 121.182V121.135H170.768V120.748C170.768 118.785 169.73 117.572 168.025 117.572C166.291 117.572 165.178 118.861 165.178 120.848C165.178 122.846 166.273 124.111 168.025 124.111C169.408 124.111 170.393 123.443 170.686 122.365H169.678ZM168.014 118.463C169.016 118.463 169.684 119.201 169.707 120.32H166.227C166.303 119.201 167.006 118.463 168.014 118.463ZM172.35 124H173.357V120.086C173.357 119.195 174.055 118.551 175.016 118.551C175.215 118.551 175.578 118.586 175.66 118.609V117.602C175.531 117.584 175.32 117.572 175.156 117.572C174.318 117.572 173.592 118.006 173.404 118.621H173.311V117.684H172.35V124ZM182.064 124.111C182.908 124.111 183.6 123.742 184.01 123.068H184.104V124H185.064V119.676C185.064 118.363 184.203 117.572 182.662 117.572C181.314 117.572 180.318 118.24 180.184 119.254H181.203C181.344 118.756 181.871 118.469 182.627 118.469C183.57 118.469 184.057 118.896 184.057 119.676V120.25L182.234 120.361C180.764 120.449 179.932 121.1 179.932 122.23C179.932 123.385 180.84 124.111 182.064 124.111ZM182.252 123.227C181.52 123.227 180.975 122.852 180.975 122.207C180.975 121.574 181.396 121.24 182.357 121.176L184.057 121.064V121.645C184.057 122.547 183.289 123.227 182.252 123.227ZM186.928 124H187.936V120.262C187.936 119.154 188.586 118.48 189.594 118.48C190.602 118.48 191.082 119.02 191.082 120.156V124H192.09V119.91C192.09 118.41 191.299 117.572 189.881 117.572C188.914 117.572 188.299 117.982 187.982 118.68H187.889V117.684H186.928V124ZM196.273 124.111C197.146 124.111 197.896 123.695 198.295 122.992H198.389V124H199.35V115.176H198.342V118.68H198.254C197.896 117.988 197.152 117.572 196.273 117.572C194.668 117.572 193.619 118.861 193.619 120.842C193.619 122.828 194.656 124.111 196.273 124.111ZM196.508 118.48C197.65 118.48 198.365 119.395 198.365 120.842C198.365 122.301 197.656 123.203 196.508 123.203C195.354 123.203 194.662 122.318 194.662 120.842C194.662 119.371 195.359 118.48 196.508 118.48ZM72.0137 135.412C72.0137 136.326 72.5527 136.836 73.7363 137.123L74.8203 137.387C75.4941 137.551 75.8223 137.844 75.8223 138.277C75.8223 138.857 75.2129 139.262 74.3633 139.262C73.5547 139.262 73.0508 138.922 72.8809 138.389H71.8438C71.9551 139.438 72.9219 140.111 74.3281 140.111C75.7637 140.111 76.8594 139.332 76.8594 138.201C76.8594 137.293 76.2852 136.777 75.0957 136.49L74.123 136.256C73.3789 136.074 73.0273 135.805 73.0273 135.371C73.0273 134.809 73.6133 134.428 74.3633 134.428C75.125 134.428 75.6172 134.762 75.752 135.266H76.748C76.6133 134.229 75.6934 133.572 74.3691 133.572C73.0273 133.572 72.0137 134.363 72.0137 135.412ZM83.5508 133.684H82.543V137.422C82.543 138.529 81.9336 139.191 80.8203 139.191C79.8125 139.191 79.3906 138.664 79.3906 137.527V133.684H78.3828V137.773C78.3828 139.268 79.1211 140.111 80.5391 140.111C81.5059 140.111 82.1797 139.713 82.4961 139.01H82.5898V140H83.5508V133.684ZM88.5898 140.111C90.1895 140.111 91.2383 138.816 91.2383 136.842C91.2383 134.855 90.1953 133.572 88.5898 133.572C87.7227 133.572 86.9551 134 86.6094 134.68H86.5156V131.176H85.5078V140H86.4688V138.992H86.5625C86.9609 139.695 87.7109 140.111 88.5898 140.111ZM88.3555 134.48C89.5098 134.48 90.1953 135.365 90.1953 136.842C90.1953 138.318 89.5098 139.203 88.3555 139.203C87.207 139.203 86.4922 138.301 86.4922 136.842C86.4922 135.383 87.207 134.48 88.3555 134.48ZM92.6738 135.412C92.6738 136.326 93.2129 136.836 94.3965 137.123L95.4805 137.387C96.1543 137.551 96.4824 137.844 96.4824 138.277C96.4824 138.857 95.873 139.262 95.0234 139.262C94.2148 139.262 93.7109 138.922 93.541 138.389H92.5039C92.6152 139.438 93.582 140.111 94.9883 140.111C96.4238 140.111 97.5195 139.332 97.5195 138.201C97.5195 137.293 96.9453 136.777 95.7559 136.49L94.7832 136.256C94.0391 136.074 93.6875 135.805 93.6875 135.371C93.6875 134.809 94.2734 134.428 95.0234 134.428C95.7852 134.428 96.2773 134.762 96.4121 135.266H97.4082C97.2734 134.229 96.3535 133.572 95.0293 133.572C93.6875 133.572 92.6738 134.363 92.6738 135.412ZM104.328 135.617C104.152 134.492 103.215 133.572 101.68 133.572C99.9102 133.572 98.7852 134.85 98.7852 136.818C98.7852 138.828 99.916 140.111 101.686 140.111C103.203 140.111 104.146 139.256 104.328 138.096H103.309C103.121 138.811 102.529 139.203 101.68 139.203C100.555 139.203 99.8281 138.277 99.8281 136.818C99.8281 135.389 100.543 134.48 101.68 134.48C102.588 134.48 103.145 134.99 103.309 135.617H104.328ZM105.816 140H106.824V136.086C106.824 135.195 107.521 134.551 108.482 134.551C108.682 134.551 109.045 134.586 109.127 134.609V133.602C108.998 133.584 108.787 133.572 108.623 133.572C107.785 133.572 107.059 134.006 106.871 134.621H106.777V133.684H105.816V140ZM110.914 132.465C111.301 132.465 111.617 132.148 111.617 131.762C111.617 131.375 111.301 131.059 110.914 131.059C110.527 131.059 110.211 131.375 110.211 131.762C110.211 132.148 110.527 132.465 110.914 132.465ZM110.41 140H111.418V133.684H110.41V140ZM116.416 133.572C115.555 133.572 114.799 134.012 114.395 134.738H114.301V133.684H113.34V142.109H114.348V139.051H114.441C114.787 139.719 115.514 140.111 116.416 140.111C118.021 140.111 119.07 138.816 119.07 136.842C119.07 134.855 118.027 133.572 116.416 133.572ZM116.176 139.203C115.039 139.203 114.318 138.289 114.318 136.842C114.318 135.389 115.039 134.48 116.182 134.48C117.336 134.48 118.027 135.365 118.027 136.842C118.027 138.318 117.336 139.203 116.176 139.203ZM121.074 132.049V133.684H120.055V134.527H121.074V138.359C121.074 139.566 121.596 140.047 122.896 140.047C123.096 140.047 123.289 140.023 123.488 139.988V139.139C123.301 139.156 123.201 139.162 123.02 139.162C122.363 139.162 122.082 138.846 122.082 138.102V134.527H123.488V133.684H122.082V132.049H121.074ZM125.539 132.465C125.926 132.465 126.242 132.148 126.242 131.762C126.242 131.375 125.926 131.059 125.539 131.059C125.152 131.059 124.836 131.375 124.836 131.762C124.836 132.148 125.152 132.465 125.539 132.465ZM125.035 140H126.043V133.684H125.035V140ZM130.561 140.111C132.359 140.111 133.473 138.869 133.473 136.842C133.473 134.809 132.359 133.572 130.561 133.572C128.762 133.572 127.648 134.809 127.648 136.842C127.648 138.869 128.762 140.111 130.561 140.111ZM130.561 139.203C129.365 139.203 128.691 138.336 128.691 136.842C128.691 135.342 129.365 134.48 130.561 134.48C131.756 134.48 132.43 135.342 132.43 136.842C132.43 138.336 131.756 139.203 130.561 139.203ZM135.055 140H136.062V136.262C136.062 135.154 136.713 134.48 137.721 134.48C138.729 134.48 139.209 135.02 139.209 136.156V140H140.217V135.91C140.217 134.41 139.426 133.572 138.008 133.572C137.041 133.572 136.426 133.982 136.109 134.68H136.016V133.684H135.055V140ZM145.977 132.465C146.363 132.465 146.68 132.148 146.68 131.762C146.68 131.375 146.363 131.059 145.977 131.059C145.59 131.059 145.273 131.375 145.273 131.762C145.273 132.148 145.59 132.465 145.977 132.465ZM145.473 140H146.48V133.684H145.473V140ZM148.402 140H149.41V136.262C149.41 135.154 150.061 134.48 151.068 134.48C152.076 134.48 152.557 135.02 152.557 136.156V140H153.564V135.91C153.564 134.41 152.773 133.572 151.355 133.572C150.389 133.572 149.773 133.982 149.457 134.68H149.363V133.684H148.402V140ZM155.832 140H156.84V134.527H158.287V133.684H156.84V133.01C156.84 132.318 157.145 131.967 157.871 131.967C158.053 131.967 158.223 131.973 158.346 131.996V131.176C158.135 131.135 157.912 131.117 157.666 131.117C156.465 131.117 155.832 131.721 155.832 132.98V133.684H154.783V134.527H155.832V140ZM162.084 140.111C163.883 140.111 164.996 138.869 164.996 136.842C164.996 134.809 163.883 133.572 162.084 133.572C160.285 133.572 159.172 134.809 159.172 136.842C159.172 138.869 160.285 140.111 162.084 140.111ZM162.084 139.203C160.889 139.203 160.215 138.336 160.215 136.842C160.215 135.342 160.889 134.48 162.084 134.48C163.279 134.48 163.953 135.342 163.953 136.842C163.953 138.336 163.279 139.203 162.084 139.203ZM166.578 140H167.586V136.086C167.586 135.195 168.283 134.551 169.244 134.551C169.443 134.551 169.807 134.586 169.889 134.609V133.602C169.76 133.584 169.549 133.572 169.385 133.572C168.547 133.572 167.82 134.006 167.633 134.621H167.539V133.684H166.578V140ZM171.266 140H172.273V136.086C172.273 135.195 172.912 134.48 173.738 134.48C174.535 134.48 175.057 134.961 175.057 135.711V140H176.064V135.939C176.064 135.137 176.65 134.48 177.529 134.48C178.42 134.48 178.859 134.938 178.859 135.869V140H179.867V135.635C179.867 134.311 179.146 133.572 177.857 133.572C176.984 133.572 176.264 134.012 175.924 134.68H175.83C175.537 134.023 174.939 133.572 174.084 133.572C173.24 133.572 172.607 133.977 172.32 134.68H172.227V133.684H171.266V140ZM183.465 140.111C184.309 140.111 185 139.742 185.41 139.068H185.504V140H186.465V135.676C186.465 134.363 185.604 133.572 184.062 133.572C182.715 133.572 181.719 134.24 181.584 135.254H182.604C182.744 134.756 183.271 134.469 184.027 134.469C184.971 134.469 185.457 134.896 185.457 135.676V136.25L183.635 136.361C182.164 136.449 181.332 137.1 181.332 138.23C181.332 139.385 182.24 140.111 183.465 140.111ZM183.652 139.227C182.92 139.227 182.375 138.852 182.375 138.207C182.375 137.574 182.797 137.24 183.758 137.176L185.457 137.064V137.645C185.457 138.547 184.689 139.227 183.652 139.227ZM188.75 132.049V133.684H187.73V134.527H188.75V138.359C188.75 139.566 189.271 140.047 190.572 140.047C190.771 140.047 190.965 140.023 191.164 139.988V139.139C190.977 139.156 190.877 139.162 190.695 139.162C190.039 139.162 189.758 138.846 189.758 138.102V134.527H191.164V133.684H189.758V132.049H188.75ZM193.215 132.465C193.602 132.465 193.918 132.148 193.918 131.762C193.918 131.375 193.602 131.059 193.215 131.059C192.828 131.059 192.512 131.375 192.512 131.762C192.512 132.148 192.828 132.465 193.215 132.465ZM192.711 140H193.719V133.684H192.711V140ZM198.236 140.111C200.035 140.111 201.148 138.869 201.148 136.842C201.148 134.809 200.035 133.572 198.236 133.572C196.438 133.572 195.324 134.809 195.324 136.842C195.324 138.869 196.438 140.111 198.236 140.111ZM198.236 139.203C197.041 139.203 196.367 138.336 196.367 136.842C196.367 135.342 197.041 134.48 198.236 134.48C199.432 134.48 200.105 135.342 200.105 136.842C200.105 138.336 199.432 139.203 198.236 139.203ZM202.73 140H203.738V136.262C203.738 135.154 204.389 134.48 205.396 134.48C206.404 134.48 206.885 135.02 206.885 136.156V140H207.893V135.91C207.893 134.41 207.102 133.572 205.684 133.572C204.717 133.572 204.102 133.982 203.785 134.68H203.691V133.684H202.73V140Z" fill="#2A2F45"/>
<rect x="48.5" y="96.5" width="183" height="63" rx="7.5" stroke="#E3E8EE"/>
<path d="M48 200C48 195.582 51.5817 192 56 192H224C228.418 192 232 195.582 232 200V256C232 260.418 228.418 264 224 264H56C51.5817 264 48 260.418 48 256V200Z" fill="white"/>
<path d="M82.2266 216V208.494H84.9512V207.545H78.4473V208.494H81.1719V216H82.2266ZM87.875 216.111C89.6738 216.111 90.7871 214.869 90.7871 212.842C90.7871 210.809 89.6738 209.572 87.875 209.572C86.0762 209.572 84.9629 210.809 84.9629 212.842C84.9629 214.869 86.0762 216.111 87.875 216.111ZM87.875 215.203C86.6797 215.203 86.0059 214.336 86.0059 212.842C86.0059 211.342 86.6797 210.48 87.875 210.48C89.0703 210.48 89.7441 211.342 89.7441 212.842C89.7441 214.336 89.0703 215.203 87.875 215.203ZM93.5293 212.443H93.4355V207.176H92.4277V216H93.4355V213.604L94.0391 213.041L96.4062 216H97.6895L94.7891 212.391L97.5078 209.684H96.2715L93.5293 212.443ZM102.775 214.365C102.512 214.922 101.961 215.221 101.146 215.221C100.074 215.221 99.377 214.43 99.3242 213.182V213.135H103.865V212.748C103.865 210.785 102.828 209.572 101.123 209.572C99.3887 209.572 98.2754 210.861 98.2754 212.848C98.2754 214.846 99.3711 216.111 101.123 216.111C102.506 216.111 103.49 215.443 103.783 214.365H102.775ZM101.111 210.463C102.113 210.463 102.781 211.201 102.805 212.32H99.3242C99.4004 211.201 100.104 210.463 101.111 210.463ZM105.447 216H106.455V212.262C106.455 211.154 107.105 210.48 108.113 210.48C109.121 210.48 109.602 211.02 109.602 212.156V216H110.609V211.91C110.609 210.41 109.818 209.572 108.4 209.572C107.434 209.572 106.818 209.982 106.502 210.68H106.408V209.684H105.447V216ZM112.982 208.465C113.369 208.465 113.686 208.148 113.686 207.762C113.686 207.375 113.369 207.059 112.982 207.059C112.596 207.059 112.279 207.375 112.279 207.762C112.279 208.148 112.596 208.465 112.982 208.465ZM112.479 216H113.486V209.684H112.479V216ZM115.262 216H120.125V215.156H116.48V215.062L120.107 210.439V209.684H115.268V210.527H118.906V210.621L115.262 215.262V216ZM125.885 214.365C125.621 214.922 125.07 215.221 124.256 215.221C123.184 215.221 122.486 214.43 122.434 213.182V213.135H126.975V212.748C126.975 210.785 125.938 209.572 124.232 209.572C122.498 209.572 121.385 210.861 121.385 212.848C121.385 214.846 122.48 216.111 124.232 216.111C125.615 216.111 126.6 215.443 126.893 214.365H125.885ZM124.221 210.463C125.223 210.463 125.891 211.201 125.914 212.32H122.434C122.51 211.201 123.213 210.463 124.221 210.463ZM131.943 216H132.951V212.262C132.951 211.154 133.602 210.48 134.609 210.48C135.617 210.48 136.098 211.02 136.098 212.156V216H137.105V211.91C137.105 210.41 136.314 209.572 134.896 209.572C133.93 209.572 133.314 209.982 132.998 210.68H132.904V209.684H131.943V216ZM143.135 214.365C142.871 214.922 142.32 215.221 141.506 215.221C140.434 215.221 139.736 214.43 139.684 213.182V213.135H144.225V212.748C144.225 210.785 143.188 209.572 141.482 209.572C139.748 209.572 138.635 210.861 138.635 212.848C138.635 214.846 139.73 216.111 141.482 216.111C142.865 216.111 143.85 215.443 144.143 214.365H143.135ZM141.471 210.463C142.473 210.463 143.141 211.201 143.164 212.32H139.684C139.76 211.201 140.463 210.463 141.471 210.463ZM153.752 209.684H152.738L151.496 214.734H151.402L149.99 209.684H149.023L147.611 214.734H147.518L146.275 209.684H145.256L147.025 216H148.045L149.451 211.113H149.545L150.957 216H151.982L153.752 209.684ZM163.713 211.617C163.537 210.492 162.6 209.572 161.064 209.572C159.295 209.572 158.17 210.85 158.17 212.818C158.17 214.828 159.301 216.111 161.07 216.111C162.588 216.111 163.531 215.256 163.713 214.096H162.693C162.506 214.811 161.914 215.203 161.064 215.203C159.939 215.203 159.213 214.277 159.213 212.818C159.213 211.389 159.928 210.48 161.064 210.48C161.973 210.48 162.529 210.99 162.693 211.617H163.713ZM166.959 216.111C167.803 216.111 168.494 215.742 168.904 215.068H168.998V216H169.959V211.676C169.959 210.363 169.098 209.572 167.557 209.572C166.209 209.572 165.213 210.24 165.078 211.254H166.098C166.238 210.756 166.766 210.469 167.521 210.469C168.465 210.469 168.951 210.896 168.951 211.676V212.25L167.129 212.361C165.658 212.449 164.826 213.1 164.826 214.23C164.826 215.385 165.734 216.111 166.959 216.111ZM167.146 215.227C166.414 215.227 165.869 214.852 165.869 214.207C165.869 213.574 166.291 213.24 167.252 213.176L168.951 213.064V213.645C168.951 214.547 168.184 215.227 167.146 215.227ZM171.822 216H172.83V212.086C172.83 211.195 173.527 210.551 174.488 210.551C174.688 210.551 175.051 210.586 175.133 210.609V209.602C175.004 209.584 174.793 209.572 174.629 209.572C173.791 209.572 173.064 210.006 172.877 210.621H172.783V209.684H171.822V216ZM178.555 216.111C179.428 216.111 180.178 215.695 180.576 214.992H180.67V216H181.631V207.176H180.623V210.68H180.535C180.178 209.988 179.434 209.572 178.555 209.572C176.949 209.572 175.9 210.861 175.9 212.842C175.9 214.828 176.938 216.111 178.555 216.111ZM178.789 210.48C179.932 210.48 180.646 211.395 180.646 212.842C180.646 214.301 179.938 215.203 178.789 215.203C177.635 215.203 176.943 214.318 176.943 212.842C176.943 211.371 177.641 210.48 178.789 210.48ZM192.131 209.684H191.053L189.324 214.887H189.23L187.502 209.684H186.424L188.762 216H189.793L192.131 209.684ZM194.006 208.465C194.393 208.465 194.709 208.148 194.709 207.762C194.709 207.375 194.393 207.059 194.006 207.059C193.619 207.059 193.303 207.375 193.303 207.762C193.303 208.148 193.619 208.465 194.006 208.465ZM193.502 216H194.51V209.684H193.502V216ZM198.189 216.111C199.033 216.111 199.725 215.742 200.135 215.068H200.229V216H201.189V211.676C201.189 210.363 200.328 209.572 198.787 209.572C197.439 209.572 196.443 210.24 196.309 211.254H197.328C197.469 210.756 197.996 210.469 198.752 210.469C199.695 210.469 200.182 210.896 200.182 211.676V212.25L198.359 212.361C196.889 212.449 196.057 213.1 196.057 214.23C196.057 215.385 196.965 216.111 198.189 216.111ZM198.377 215.227C197.645 215.227 197.1 214.852 197.1 214.207C197.1 213.574 197.521 213.24 198.482 213.176L200.182 213.064V213.645C200.182 214.547 199.414 215.227 198.377 215.227ZM89.6738 231.051H85.4902V228.145H89.457V227.207H85.4902V224.494H89.6738V223.545H84.4355V232H89.6738V231.051ZM91.5137 232H92.5215V223.176H91.5137V232ZM98.6621 230.365C98.3984 230.922 97.8477 231.221 97.0332 231.221C95.9609 231.221 95.2637 230.43 95.2109 229.182V229.135H99.752V228.748C99.752 226.785 98.7148 225.572 97.0098 225.572C95.2754 225.572 94.1621 226.861 94.1621 228.848C94.1621 230.846 95.2578 232.111 97.0098 232.111C98.3926 232.111 99.377 231.443 99.6699 230.365H98.6621ZM96.998 226.463C98 226.463 98.668 227.201 98.6914 228.32H95.2109C95.2871 227.201 95.9902 226.463 96.998 226.463ZM101.334 232H102.342V228.086C102.342 227.195 102.98 226.48 103.807 226.48C104.604 226.48 105.125 226.961 105.125 227.711V232H106.133V227.939C106.133 227.137 106.719 226.48 107.598 226.48C108.488 226.48 108.928 226.938 108.928 227.869V232H109.936V227.635C109.936 226.311 109.215 225.572 107.926 225.572C107.053 225.572 106.332 226.012 105.992 226.68H105.898C105.605 226.023 105.008 225.572 104.152 225.572C103.309 225.572 102.676 225.977 102.389 226.68H102.295V225.684H101.334V232ZM115.959 230.365C115.695 230.922 115.145 231.221 114.33 231.221C113.258 231.221 112.561 230.43 112.508 229.182V229.135H117.049V228.748C117.049 226.785 116.012 225.572 114.307 225.572C112.572 225.572 111.459 226.861 111.459 228.848C111.459 230.846 112.555 232.111 114.307 232.111C115.689 232.111 116.674 231.443 116.967 230.365H115.959ZM114.295 226.463C115.297 226.463 115.965 227.201 115.988 228.32H112.508C112.584 227.201 113.287 226.463 114.295 226.463ZM118.631 232H119.639V228.262C119.639 227.154 120.289 226.48 121.297 226.48C122.305 226.48 122.785 227.02 122.785 228.156V232H123.793V227.91C123.793 226.41 123.002 225.572 121.584 225.572C120.617 225.572 120.002 225.982 119.686 226.68H119.592V225.684H118.631V232ZM126.061 224.049V225.684H125.041V226.527H126.061V230.359C126.061 231.566 126.582 232.047 127.883 232.047C128.082 232.047 128.275 232.023 128.475 231.988V231.139C128.287 231.156 128.188 231.162 128.006 231.162C127.35 231.162 127.068 230.846 127.068 230.102V226.527H128.475V225.684H127.068V224.049H126.061ZM129.734 227.412C129.734 228.326 130.273 228.836 131.457 229.123L132.541 229.387C133.215 229.551 133.543 229.844 133.543 230.277C133.543 230.857 132.934 231.262 132.084 231.262C131.275 231.262 130.771 230.922 130.602 230.389H129.564C129.676 231.438 130.643 232.111 132.049 232.111C133.484 232.111 134.58 231.332 134.58 230.201C134.58 229.293 134.006 228.777 132.816 228.49L131.844 228.256C131.1 228.074 130.748 227.805 130.748 227.371C130.748 226.809 131.334 226.428 132.084 226.428C132.846 226.428 133.338 226.762 133.473 227.266H134.469C134.334 226.229 133.414 225.572 132.09 225.572C130.748 225.572 129.734 226.363 129.734 227.412ZM136.801 234.15L137.721 230.816H136.602L136.045 234.15H136.801ZM143.639 224.465C144.025 224.465 144.342 224.148 144.342 223.762C144.342 223.375 144.025 223.059 143.639 223.059C143.252 223.059 142.936 223.375 142.936 223.762C142.936 224.148 143.252 224.465 143.639 224.465ZM143.135 232H144.143V225.684H143.135V232ZM149.744 223.346C147.354 223.346 145.865 225.051 145.865 227.77C145.865 230.477 147.318 232.199 149.744 232.199C152.158 232.199 153.623 230.471 153.623 227.77C153.623 225.057 152.146 223.346 149.744 223.346ZM149.744 224.318C151.473 224.318 152.539 225.654 152.539 227.77C152.539 229.867 151.479 231.227 149.744 231.227C147.986 231.227 146.949 229.867 146.949 227.77C146.949 225.654 148.021 224.318 149.744 224.318ZM155.047 229.791C155.158 231.25 156.395 232.199 158.188 232.199C160.121 232.199 161.346 231.209 161.346 229.656C161.346 228.414 160.643 227.734 158.891 227.295L158.006 227.061C156.84 226.762 156.377 226.381 156.377 225.719C156.377 224.863 157.121 224.301 158.246 224.301C159.301 224.301 160.016 224.816 160.162 225.684H161.223C161.135 224.318 159.916 223.346 158.281 223.346C156.494 223.346 155.293 224.318 155.293 225.754C155.293 226.955 155.955 227.646 157.484 228.033L158.568 228.314C159.734 228.607 160.262 229.064 160.262 229.785C160.262 230.623 159.424 231.238 158.287 231.238C157.086 231.238 156.242 230.676 156.113 229.791H155.047ZM166.086 229.791C166.197 231.25 167.434 232.199 169.227 232.199C171.16 232.199 172.385 231.209 172.385 229.656C172.385 228.414 171.682 227.734 169.93 227.295L169.045 227.061C167.879 226.762 167.416 226.381 167.416 225.719C167.416 224.863 168.16 224.301 169.285 224.301C170.34 224.301 171.055 224.816 171.201 225.684H172.262C172.174 224.318 170.955 223.346 169.32 223.346C167.533 223.346 166.332 224.318 166.332 225.754C166.332 226.955 166.994 227.646 168.523 228.033L169.607 228.314C170.773 228.607 171.301 229.064 171.301 229.785C171.301 230.623 170.463 231.238 169.326 231.238C168.125 231.238 167.281 230.676 167.152 229.791H166.086ZM174.143 223.545V232H177.043C179.557 232 181.033 230.436 181.033 227.77C181.033 225.109 179.551 223.545 177.043 223.545H174.143ZM175.197 224.494H176.973C178.848 224.494 179.955 225.713 179.955 227.781C179.955 229.844 178.859 231.051 176.973 231.051H175.197V224.494ZM183.916 232V229.047L184.93 227.928L187.982 232H189.348L185.656 227.195L189.037 223.545H187.713L184.01 227.652H183.916V223.545H182.861V232H183.916ZM191.281 234.15L192.201 230.816H191.082L190.525 234.15H191.281ZM100.051 248.111C101.85 248.111 102.963 246.869 102.963 244.842C102.963 242.809 101.85 241.572 100.051 241.572C98.252 241.572 97.1387 242.809 97.1387 244.842C97.1387 246.869 98.252 248.111 100.051 248.111ZM100.051 247.203C98.8555 247.203 98.1816 246.336 98.1816 244.842C98.1816 243.342 98.8555 242.48 100.051 242.48C101.246 242.48 101.92 243.342 101.92 244.842C101.92 246.336 101.246 247.203 100.051 247.203ZM104.545 248H105.553V244.086C105.553 243.195 106.25 242.551 107.211 242.551C107.41 242.551 107.773 242.586 107.855 242.609V241.602C107.727 241.584 107.516 241.572 107.352 241.572C106.514 241.572 105.787 242.006 105.6 242.621H105.506V241.684H104.545V248ZM118.127 248H119.234L116.117 239.545H115.074L111.957 248H113.064L113.914 245.58H117.277L118.127 248ZM115.549 240.91H115.643L116.967 244.684H114.225L115.549 240.91ZM120.588 248H121.596V244.262C121.596 243.154 122.246 242.48 123.254 242.48C124.262 242.48 124.742 243.02 124.742 244.156V248H125.75V243.91C125.75 242.41 124.959 241.572 123.541 241.572C122.574 241.572 121.959 241.982 121.643 242.68H121.549V241.684H120.588V248ZM129.934 248.111C130.807 248.111 131.557 247.695 131.955 246.992H132.049V248H133.01V239.176H132.002V242.68H131.914C131.557 241.988 130.812 241.572 129.934 241.572C128.328 241.572 127.279 242.861 127.279 244.842C127.279 246.828 128.316 248.111 129.934 248.111ZM130.168 242.48C131.311 242.48 132.025 243.395 132.025 244.842C132.025 246.301 131.316 247.203 130.168 247.203C129.014 247.203 128.322 246.318 128.322 244.842C128.322 243.371 129.02 242.48 130.168 242.48ZM134.967 248H135.975V244.086C135.975 243.195 136.672 242.551 137.633 242.551C137.832 242.551 138.195 242.586 138.277 242.609V241.602C138.148 241.584 137.938 241.572 137.773 241.572C136.936 241.572 136.209 242.006 136.021 242.621H135.928V241.684H134.967V248ZM141.957 248.111C143.756 248.111 144.869 246.869 144.869 244.842C144.869 242.809 143.756 241.572 141.957 241.572C140.158 241.572 139.045 242.809 139.045 244.842C139.045 246.869 140.158 248.111 141.957 248.111ZM141.957 247.203C140.762 247.203 140.088 246.336 140.088 244.842C140.088 243.342 140.762 242.48 141.957 242.48C143.152 242.48 143.826 243.342 143.826 244.842C143.826 246.336 143.152 247.203 141.957 247.203ZM146.979 240.465C147.365 240.465 147.682 240.148 147.682 239.762C147.682 239.375 147.365 239.059 146.979 239.059C146.592 239.059 146.275 239.375 146.275 239.762C146.275 240.148 146.592 240.465 146.979 240.465ZM146.475 248H147.482V241.684H146.475V248ZM151.742 248.111C152.615 248.111 153.365 247.695 153.764 246.992H153.857V248H154.818V239.176H153.811V242.68H153.723C153.365 241.988 152.621 241.572 151.742 241.572C150.137 241.572 149.088 242.861 149.088 244.842C149.088 246.828 150.125 248.111 151.742 248.111ZM151.977 242.48C153.119 242.48 153.834 243.395 153.834 244.842C153.834 246.301 153.125 247.203 151.977 247.203C150.822 247.203 150.131 246.318 150.131 244.842C150.131 243.371 150.828 242.48 151.977 242.48ZM159.887 245.791C159.998 247.25 161.234 248.199 163.027 248.199C164.961 248.199 166.186 247.209 166.186 245.656C166.186 244.414 165.482 243.734 163.73 243.295L162.846 243.061C161.68 242.762 161.217 242.381 161.217 241.719C161.217 240.863 161.961 240.301 163.086 240.301C164.141 240.301 164.855 240.816 165.002 241.684H166.062C165.975 240.318 164.756 239.346 163.121 239.346C161.334 239.346 160.133 240.318 160.133 241.754C160.133 242.955 160.795 243.646 162.324 244.033L163.408 244.314C164.574 244.607 165.102 245.064 165.102 245.785C165.102 246.623 164.264 247.238 163.127 247.238C161.926 247.238 161.082 246.676 160.953 245.791H159.887ZM167.943 239.545V248H170.844C173.357 248 174.834 246.436 174.834 243.77C174.834 241.109 173.352 239.545 170.844 239.545H167.943ZM168.998 240.494H170.773C172.648 240.494 173.756 241.713 173.756 243.781C173.756 245.844 172.66 247.051 170.773 247.051H168.998V240.494ZM177.717 248V245.047L178.73 243.928L181.783 248H183.148L179.457 243.195L182.838 239.545H181.514L177.811 243.652H177.717V239.545H176.662V248H177.717Z" fill="#2A2F45"/>
<rect x="48.5" y="192.5" width="183" height="71" rx="7.5" stroke="#E3E8EE"/>
<path d="M280 200C280 195.582 283.582 192 288 192H448C452.418 192 456 195.582 456 200V232C456 236.418 452.418 240 448 240H288C283.582 240 280 236.418 280 232V200Z" fill="white"/>
<path d="M325.414 220.199C327.213 220.199 328.549 219.197 328.83 217.645H327.758C327.488 218.623 326.592 219.227 325.414 219.227C323.785 219.227 322.766 217.896 322.766 215.775C322.766 213.654 323.785 212.318 325.408 212.318C326.574 212.318 327.477 213.004 327.758 214.094H328.83C328.578 212.465 327.189 211.346 325.408 211.346C323.111 211.346 321.682 213.045 321.682 215.775C321.682 218.5 323.117 220.199 325.414 220.199ZM330.471 220H331.479V216.086C331.479 215.195 332.176 214.551 333.137 214.551C333.336 214.551 333.699 214.586 333.781 214.609V213.602C333.652 213.584 333.441 213.572 333.277 213.572C332.439 213.572 331.713 214.006 331.525 214.621H331.432V213.684H330.471V220ZM339.049 218.365C338.785 218.922 338.234 219.221 337.42 219.221C336.348 219.221 335.65 218.43 335.598 217.182V217.135H340.139V216.748C340.139 214.785 339.102 213.572 337.396 213.572C335.662 213.572 334.549 214.861 334.549 216.848C334.549 218.846 335.645 220.111 337.396 220.111C338.779 220.111 339.764 219.443 340.057 218.365H339.049ZM337.385 214.463C338.387 214.463 339.055 215.201 339.078 216.32H335.598C335.674 215.201 336.377 214.463 337.385 214.463ZM343.479 220.111C344.322 220.111 345.014 219.742 345.424 219.068H345.518V220H346.479V215.676C346.479 214.363 345.617 213.572 344.076 213.572C342.729 213.572 341.732 214.24 341.598 215.254H342.617C342.758 214.756 343.285 214.469 344.041 214.469C344.984 214.469 345.471 214.896 345.471 215.676V216.25L343.648 216.361C342.178 216.449 341.346 217.1 341.346 218.23C341.346 219.385 342.254 220.111 343.479 220.111ZM343.666 219.227C342.934 219.227 342.389 218.852 342.389 218.207C342.389 217.574 342.811 217.24 343.771 217.176L345.471 217.064V217.645C345.471 218.547 344.703 219.227 343.666 219.227ZM348.764 212.049V213.684H347.744V214.527H348.764V218.359C348.764 219.566 349.285 220.047 350.586 220.047C350.785 220.047 350.979 220.023 351.178 219.988V219.139C350.99 219.156 350.891 219.162 350.709 219.162C350.053 219.162 349.771 218.846 349.771 218.102V214.527H351.178V213.684H349.771V212.049H348.764ZM356.791 218.365C356.527 218.922 355.977 219.221 355.162 219.221C354.09 219.221 353.393 218.43 353.34 217.182V217.135H357.881V216.748C357.881 214.785 356.844 213.572 355.139 213.572C353.404 213.572 352.291 214.861 352.291 216.848C352.291 218.846 353.387 220.111 355.139 220.111C356.521 220.111 357.506 219.443 357.799 218.365H356.791ZM355.127 214.463C356.129 214.463 356.797 215.201 356.82 216.32H353.34C353.416 215.201 354.119 214.463 355.127 214.463ZM368.076 215.617C367.9 214.492 366.963 213.572 365.428 213.572C363.658 213.572 362.533 214.85 362.533 216.818C362.533 218.828 363.664 220.111 365.434 220.111C366.951 220.111 367.895 219.256 368.076 218.096H367.057C366.869 218.811 366.277 219.203 365.428 219.203C364.303 219.203 363.576 218.277 363.576 216.818C363.576 215.389 364.291 214.48 365.428 214.48C366.336 214.48 366.893 214.99 367.057 215.617H368.076ZM374.674 213.684H373.666V217.422C373.666 218.529 373.057 219.191 371.943 219.191C370.936 219.191 370.514 218.664 370.514 217.527V213.684H369.506V217.773C369.506 219.268 370.244 220.111 371.662 220.111C372.629 220.111 373.303 219.713 373.619 219.01H373.713V220H374.674V213.684ZM376.426 215.412C376.426 216.326 376.965 216.836 378.148 217.123L379.232 217.387C379.906 217.551 380.234 217.844 380.234 218.277C380.234 218.857 379.625 219.262 378.775 219.262C377.967 219.262 377.463 218.922 377.293 218.389H376.256C376.367 219.438 377.334 220.111 378.74 220.111C380.176 220.111 381.271 219.332 381.271 218.201C381.271 217.293 380.697 216.777 379.508 216.49L378.535 216.256C377.791 216.074 377.439 215.805 377.439 215.371C377.439 214.809 378.025 214.428 378.775 214.428C379.537 214.428 380.029 214.762 380.164 215.266H381.16C381.025 214.229 380.105 213.572 378.781 213.572C377.439 213.572 376.426 214.363 376.426 215.412ZM383.217 212.049V213.684H382.197V214.527H383.217V218.359C383.217 219.566 383.738 220.047 385.039 220.047C385.238 220.047 385.432 220.023 385.631 219.988V219.139C385.443 219.156 385.344 219.162 385.162 219.162C384.506 219.162 384.225 218.846 384.225 218.102V214.527H385.631V213.684H384.225V212.049H383.217ZM389.656 220.111C391.455 220.111 392.568 218.869 392.568 216.842C392.568 214.809 391.455 213.572 389.656 213.572C387.857 213.572 386.744 214.809 386.744 216.842C386.744 218.869 387.857 220.111 389.656 220.111ZM389.656 219.203C388.461 219.203 387.787 218.336 387.787 216.842C387.787 215.342 388.461 214.48 389.656 214.48C390.852 214.48 391.525 215.342 391.525 216.842C391.525 218.336 390.852 219.203 389.656 219.203ZM394.15 220H395.158V216.086C395.158 215.195 395.797 214.48 396.623 214.48C397.42 214.48 397.941 214.961 397.941 215.711V220H398.949V215.939C398.949 215.137 399.535 214.48 400.414 214.48C401.305 214.48 401.744 214.938 401.744 215.869V220H402.752V215.635C402.752 214.311 402.031 213.572 400.742 213.572C399.869 213.572 399.148 214.012 398.809 214.68H398.715C398.422 214.023 397.824 213.572 396.969 213.572C396.125 213.572 395.492 213.977 395.205 214.68H395.111V213.684H394.15V220ZM408.775 218.365C408.512 218.922 407.961 219.221 407.146 219.221C406.074 219.221 405.377 218.43 405.324 217.182V217.135H409.865V216.748C409.865 214.785 408.828 213.572 407.123 213.572C405.389 213.572 404.275 214.861 404.275 216.848C404.275 218.846 405.371 220.111 407.123 220.111C408.506 220.111 409.49 219.443 409.783 218.365H408.775ZM407.111 214.463C408.113 214.463 408.781 215.201 408.805 216.32H405.324C405.4 215.201 406.104 214.463 407.111 214.463ZM411.447 220H412.455V216.086C412.455 215.195 413.152 214.551 414.113 214.551C414.312 214.551 414.676 214.586 414.758 214.609V213.602C414.629 213.584 414.418 213.572 414.254 213.572C413.416 213.572 412.689 214.006 412.502 214.621H412.408V213.684H411.447V220Z" fill="#2A2F45"/>
<rect x="280.5" y="192.5" width="175" height="47" rx="7.5" stroke="#E3E8EE"/>
<path d="M280 280C280 275.582 283.582 272 288 272H448C452.418 272 456 275.582 456 280V312C456 316.418 452.418 320 448 320H288C283.582 320 280 316.418 280 312V280Z" fill="white"/>
<path d="M317.047 300.199C318.846 300.199 320.182 299.197 320.463 297.645H319.391C319.121 298.623 318.225 299.227 317.047 299.227C315.418 299.227 314.398 297.896 314.398 295.775C314.398 293.654 315.418 292.318 317.041 292.318C318.207 292.318 319.109 293.004 319.391 294.094H320.463C320.211 292.465 318.822 291.346 317.041 291.346C314.744 291.346 313.314 293.045 313.314 295.775C313.314 298.5 314.75 300.199 317.047 300.199ZM322.104 300H323.111V296.086C323.111 295.195 323.809 294.551 324.77 294.551C324.969 294.551 325.332 294.586 325.414 294.609V293.602C325.285 293.584 325.074 293.572 324.91 293.572C324.072 293.572 323.346 294.006 323.158 294.621H323.064V293.684H322.104V300ZM330.682 298.365C330.418 298.922 329.867 299.221 329.053 299.221C327.98 299.221 327.283 298.43 327.23 297.182V297.135H331.771V296.748C331.771 294.785 330.734 293.572 329.029 293.572C327.295 293.572 326.182 294.861 326.182 296.848C326.182 298.846 327.277 300.111 329.029 300.111C330.412 300.111 331.396 299.443 331.689 298.365H330.682ZM329.018 294.463C330.02 294.463 330.688 295.201 330.711 296.32H327.23C327.307 295.201 328.01 294.463 329.018 294.463ZM335.111 300.111C335.955 300.111 336.646 299.742 337.057 299.068H337.15V300H338.111V295.676C338.111 294.363 337.25 293.572 335.709 293.572C334.361 293.572 333.365 294.24 333.23 295.254H334.25C334.391 294.756 334.918 294.469 335.674 294.469C336.617 294.469 337.104 294.896 337.104 295.676V296.25L335.281 296.361C333.811 296.449 332.979 297.1 332.979 298.23C332.979 299.385 333.887 300.111 335.111 300.111ZM335.299 299.227C334.566 299.227 334.021 298.852 334.021 298.207C334.021 297.574 334.443 297.24 335.404 297.176L337.104 297.064V297.645C337.104 298.547 336.336 299.227 335.299 299.227ZM340.396 292.049V293.684H339.377V294.527H340.396V298.359C340.396 299.566 340.918 300.047 342.219 300.047C342.418 300.047 342.611 300.023 342.811 299.988V299.139C342.623 299.156 342.523 299.162 342.342 299.162C341.686 299.162 341.404 298.846 341.404 298.102V294.527H342.811V293.684H341.404V292.049H340.396ZM348.424 298.365C348.16 298.922 347.609 299.221 346.795 299.221C345.723 299.221 345.025 298.43 344.973 297.182V297.135H349.514V296.748C349.514 294.785 348.477 293.572 346.771 293.572C345.037 293.572 343.924 294.861 343.924 296.848C343.924 298.846 345.02 300.111 346.771 300.111C348.154 300.111 349.139 299.443 349.432 298.365H348.424ZM346.76 294.463C347.762 294.463 348.43 295.201 348.453 296.32H344.973C345.049 295.201 345.752 294.463 346.76 294.463ZM354.336 295.412C354.336 296.326 354.875 296.836 356.059 297.123L357.143 297.387C357.816 297.551 358.145 297.844 358.145 298.277C358.145 298.857 357.535 299.262 356.686 299.262C355.877 299.262 355.373 298.922 355.203 298.389H354.166C354.277 299.438 355.244 300.111 356.65 300.111C358.086 300.111 359.182 299.332 359.182 298.201C359.182 297.293 358.607 296.777 357.418 296.49L356.445 296.256C355.701 296.074 355.35 295.805 355.35 295.371C355.35 294.809 355.936 294.428 356.686 294.428C357.447 294.428 357.939 294.762 358.074 295.266H359.07C358.936 294.229 358.016 293.572 356.691 293.572C355.35 293.572 354.336 294.363 354.336 295.412ZM365.873 293.684H364.865V297.422C364.865 298.529 364.256 299.191 363.143 299.191C362.135 299.191 361.713 298.664 361.713 297.527V293.684H360.705V297.773C360.705 299.268 361.443 300.111 362.861 300.111C363.828 300.111 364.502 299.713 364.818 299.01H364.912V300H365.873V293.684ZM370.912 300.111C372.512 300.111 373.561 298.816 373.561 296.842C373.561 294.855 372.518 293.572 370.912 293.572C370.045 293.572 369.277 294 368.932 294.68H368.838V291.176H367.83V300H368.791V298.992H368.885C369.283 299.695 370.033 300.111 370.912 300.111ZM370.678 294.48C371.832 294.48 372.518 295.365 372.518 296.842C372.518 298.318 371.832 299.203 370.678 299.203C369.529 299.203 368.814 298.301 368.814 296.842C368.814 295.383 369.529 294.48 370.678 294.48ZM374.996 295.412C374.996 296.326 375.535 296.836 376.719 297.123L377.803 297.387C378.477 297.551 378.805 297.844 378.805 298.277C378.805 298.857 378.195 299.262 377.346 299.262C376.537 299.262 376.033 298.922 375.863 298.389H374.826C374.938 299.438 375.904 300.111 377.311 300.111C378.746 300.111 379.842 299.332 379.842 298.201C379.842 297.293 379.268 296.777 378.078 296.49L377.105 296.256C376.361 296.074 376.01 295.805 376.01 295.371C376.01 294.809 376.596 294.428 377.346 294.428C378.107 294.428 378.6 294.762 378.734 295.266H379.73C379.596 294.229 378.676 293.572 377.352 293.572C376.01 293.572 374.996 294.363 374.996 295.412ZM386.65 295.617C386.475 294.492 385.537 293.572 384.002 293.572C382.232 293.572 381.107 294.85 381.107 296.818C381.107 298.828 382.238 300.111 384.008 300.111C385.525 300.111 386.469 299.256 386.65 298.096H385.631C385.443 298.811 384.852 299.203 384.002 299.203C382.877 299.203 382.15 298.277 382.15 296.818C382.15 295.389 382.865 294.48 384.002 294.48C384.91 294.48 385.467 294.99 385.631 295.617H386.65ZM388.139 300H389.146V296.086C389.146 295.195 389.844 294.551 390.805 294.551C391.004 294.551 391.367 294.586 391.449 294.609V293.602C391.32 293.584 391.109 293.572 390.945 293.572C390.107 293.572 389.381 294.006 389.193 294.621H389.1V293.684H388.139V300ZM393.236 292.465C393.623 292.465 393.939 292.148 393.939 291.762C393.939 291.375 393.623 291.059 393.236 291.059C392.85 291.059 392.533 291.375 392.533 291.762C392.533 292.148 392.85 292.465 393.236 292.465ZM392.732 300H393.74V293.684H392.732V300ZM398.738 293.572C397.877 293.572 397.121 294.012 396.717 294.738H396.623V293.684H395.662V302.109H396.67V299.051H396.764C397.109 299.719 397.836 300.111 398.738 300.111C400.344 300.111 401.393 298.816 401.393 296.842C401.393 294.855 400.35 293.572 398.738 293.572ZM398.498 299.203C397.361 299.203 396.641 298.289 396.641 296.842C396.641 295.389 397.361 294.48 398.504 294.48C399.658 294.48 400.35 295.365 400.35 296.842C400.35 298.318 399.658 299.203 398.498 299.203ZM403.396 292.049V293.684H402.377V294.527H403.396V298.359C403.396 299.566 403.918 300.047 405.219 300.047C405.418 300.047 405.611 300.023 405.811 299.988V299.139C405.623 299.156 405.523 299.162 405.342 299.162C404.686 299.162 404.404 298.846 404.404 298.102V294.527H405.811V293.684H404.404V292.049H403.396ZM407.861 292.465C408.248 292.465 408.564 292.148 408.564 291.762C408.564 291.375 408.248 291.059 407.861 291.059C407.475 291.059 407.158 291.375 407.158 291.762C407.158 292.148 407.475 292.465 407.861 292.465ZM407.357 300H408.365V293.684H407.357V300ZM412.883 300.111C414.682 300.111 415.795 298.869 415.795 296.842C415.795 294.809 414.682 293.572 412.883 293.572C411.084 293.572 409.971 294.809 409.971 296.842C409.971 298.869 411.084 300.111 412.883 300.111ZM412.883 299.203C411.688 299.203 411.014 298.336 411.014 296.842C411.014 295.342 411.688 294.48 412.883 294.48C414.078 294.48 414.752 295.342 414.752 296.842C414.752 298.336 414.078 299.203 412.883 299.203ZM417.377 300H418.385V296.262C418.385 295.154 419.035 294.48 420.043 294.48C421.051 294.48 421.531 295.02 421.531 296.156V300H422.539V295.91C422.539 294.41 421.748 293.572 420.33 293.572C419.363 293.572 418.748 293.982 418.432 294.68H418.338V293.684H417.377V300Z" fill="#2A2F45"/>
<rect x="280.5" y="272.5" width="175" height="47" rx="7.5" stroke="#E3E8EE"/>
<path d="M140.75 168.5C140.75 168.086 140.414 167.75 140 167.75C139.586 167.75 139.25 168.086 139.25 168.5L140.75 168.5ZM139.47 184.03C139.763 184.323 140.237 184.323 140.53 184.03L145.303 179.257C145.596 178.964 145.596 178.49 145.303 178.197C145.01 177.904 144.536 177.904 144.243 178.197L140 182.439L135.757 178.197C135.464 177.904 134.99 177.904 134.697 178.197C134.404 178.49 134.404 178.964 134.697 179.257L139.47 184.03ZM139.25 168.5L139.25 183.5L140.75 183.5L140.75 168.5L139.25 168.5Z" fill="#8792A2"/>
<path d="M240.5 215.25C240.086 215.25 239.75 215.586 239.75 216C239.75 216.414 240.086 216.75 240.5 216.75V215.25ZM272.03 216.53C272.323 216.237 272.323 215.763 272.03 215.47L267.257 210.697C266.964 210.404 266.49 210.404 266.197 210.697C265.904 210.99 265.904 211.464 266.197 211.757L270.439 216L266.197 220.243C265.904 220.536 265.904 221.01 266.197 221.303C266.49 221.596 266.964 221.596 267.257 221.303L272.03 216.53ZM240.5 216.75H271.5V215.25H240.5V216.75Z" fill="#8792A2"/>
<path d="M464.5 295.25C464.086 295.25 463.75 295.586 463.75 296C463.75 296.414 464.086 296.75 464.5 296.75V295.25ZM496.03 296.53C496.323 296.237 496.323 295.763 496.03 295.47L491.257 290.697C490.964 290.404 490.49 290.404 490.197 290.697C489.904 290.99 489.904 291.464 490.197 291.757L494.439 296L490.197 300.243C489.904 300.536 489.904 301.01 490.197 301.303C490.49 301.596 490.964 301.596 491.257 301.303L496.03 296.53ZM464.5 296.75H495.5V295.25H464.5V296.75Z" fill="#8792A2"/>
<path d="M368.75 248.5C368.75 248.086 368.414 247.75 368 247.75C367.586 247.75 367.25 248.086 367.25 248.5L368.75 248.5ZM367.47 264.03C367.763 264.323 368.237 264.323 368.53 264.03L373.303 259.257C373.596 258.964 373.596 258.49 373.303 258.197C373.01 257.904 372.536 257.904 372.243 258.197L368 262.439L363.757 258.197C363.464 257.904 362.99 257.904 362.697 258.197C362.404 258.49 362.404 258.964 362.697 259.257L367.47 264.03ZM367.25 248.5L367.25 263.5L368.75 263.5L368.75 248.5L367.25 248.5Z" fill="#8792A2"/>
<path d="M519.677 348V344.968L522.177 340.954H521.176L519.276 344.084H519.198L517.299 340.954H516.298L518.798 344.968V348H519.677ZM524.643 348.093C526.142 348.093 527.069 347.058 527.069 345.368C527.069 343.674 526.142 342.644 524.643 342.644C523.144 342.644 522.216 343.674 522.216 345.368C522.216 347.058 523.144 348.093 524.643 348.093ZM524.643 347.336C523.646 347.336 523.085 346.613 523.085 345.368C523.085 344.118 523.646 343.4 524.643 343.4C525.639 343.4 526.2 344.118 526.2 345.368C526.2 346.613 525.639 347.336 524.643 347.336ZM532.646 342.736H531.806V345.852C531.806 346.774 531.298 347.326 530.37 347.326C529.53 347.326 529.179 346.887 529.179 345.939V342.736H528.339V346.145C528.339 347.39 528.954 348.093 530.136 348.093C530.941 348.093 531.503 347.761 531.767 347.175H531.845V348H532.646V342.736ZM534.75 343.586L535.634 340.954H534.682L534.14 343.586H534.75ZM537.177 348H538.017V340.646H537.177V348ZM539.696 348H540.536V340.646H539.696V348ZM544.989 348H545.829V344.885C545.829 343.962 546.371 343.4 547.211 343.4C548.051 343.4 548.451 343.85 548.451 344.797V348H549.291V344.592C549.291 343.342 548.632 342.644 547.45 342.644C546.645 342.644 546.132 342.985 545.868 343.566H545.79V342.736H544.989V348ZM554.315 346.638C554.096 347.102 553.637 347.351 552.958 347.351C552.064 347.351 551.483 346.691 551.439 345.651V345.612H555.224V345.29C555.224 343.654 554.359 342.644 552.938 342.644C551.493 342.644 550.565 343.718 550.565 345.373C550.565 347.038 551.479 348.093 552.938 348.093C554.091 348.093 554.911 347.536 555.155 346.638H554.315ZM552.929 343.386C553.764 343.386 554.32 344.001 554.34 344.934H551.439C551.503 344.001 552.089 343.386 552.929 343.386ZM560.028 346.638C559.809 347.102 559.35 347.351 558.671 347.351C557.777 347.351 557.196 346.691 557.152 345.651V345.612H560.937V345.29C560.937 343.654 560.072 342.644 558.651 342.644C557.206 342.644 556.278 343.718 556.278 345.373C556.278 347.038 557.191 348.093 558.651 348.093C559.804 348.093 560.624 347.536 560.868 346.638H560.028ZM558.642 343.386C559.477 343.386 560.033 344.001 560.053 344.934H557.152C557.216 344.001 557.802 343.386 558.642 343.386ZM564.203 348.093C564.931 348.093 565.556 347.746 565.888 347.16H565.966V348H566.767V340.646H565.927V343.566H565.854C565.556 342.99 564.936 342.644 564.203 342.644C562.865 342.644 561.991 343.718 561.991 345.368C561.991 347.023 562.855 348.093 564.203 348.093ZM564.398 343.4C565.351 343.4 565.946 344.162 565.946 345.368C565.946 346.584 565.355 347.336 564.398 347.336C563.437 347.336 562.86 346.599 562.86 345.368C562.86 344.143 563.441 343.4 564.398 343.4ZM571.571 341.374V342.736H570.722V343.439H571.571V346.633C571.571 347.639 572.006 348.039 573.09 348.039C573.256 348.039 573.417 348.02 573.583 347.99V347.282C573.427 347.297 573.344 347.302 573.192 347.302C572.646 347.302 572.411 347.038 572.411 346.418V343.439H573.583V342.736H572.411V341.374H571.571ZM576.938 348.093C578.437 348.093 579.364 347.058 579.364 345.368C579.364 343.674 578.437 342.644 576.938 342.644C575.438 342.644 574.511 343.674 574.511 345.368C574.511 347.058 575.438 348.093 576.938 348.093ZM576.938 347.336C575.941 347.336 575.38 346.613 575.38 345.368C575.38 344.118 575.941 343.4 576.938 343.4C577.934 343.4 578.495 344.118 578.495 345.368C578.495 346.613 577.934 347.336 576.938 347.336ZM583.554 348H584.394V344.885C584.394 343.996 584.911 343.4 585.854 343.4C586.649 343.4 587.069 343.864 587.069 344.797V348H587.909V344.592C587.909 343.356 587.206 342.644 586.093 342.644C585.287 342.644 584.735 342.985 584.472 343.566H584.394V340.646H583.554V348ZM590.907 348.093C591.61 348.093 592.187 347.785 592.528 347.224H592.606V348H593.407V344.396C593.407 343.303 592.689 342.644 591.405 342.644C590.282 342.644 589.452 343.2 589.34 344.045H590.189C590.307 343.63 590.746 343.391 591.376 343.391C592.162 343.391 592.567 343.747 592.567 344.396V344.875L591.049 344.968C589.823 345.041 589.13 345.583 589.13 346.525C589.13 347.487 589.887 348.093 590.907 348.093ZM591.063 347.355C590.453 347.355 589.999 347.043 589.999 346.506C589.999 345.979 590.351 345.7 591.151 345.646L592.567 345.554V346.037C592.567 346.789 591.928 347.355 591.063 347.355ZM594.96 348H595.8V344.885C595.8 343.962 596.342 343.4 597.182 343.4C598.021 343.4 598.422 343.85 598.422 344.797V348H599.262V344.592C599.262 343.342 598.603 342.644 597.421 342.644C596.615 342.644 596.103 342.985 595.839 343.566H595.761V342.736H594.96V348ZM602.748 348.093C603.476 348.093 604.101 347.746 604.433 347.16H604.511V348H605.312V340.646H604.472V343.566H604.398C604.101 342.99 603.48 342.644 602.748 342.644C601.41 342.644 600.536 343.718 600.536 345.368C600.536 347.023 601.4 348.093 602.748 348.093ZM602.943 343.4C603.896 343.4 604.491 344.162 604.491 345.368C604.491 346.584 603.9 347.336 602.943 347.336C601.981 347.336 601.405 346.599 601.405 345.368C601.405 344.143 601.986 343.4 602.943 343.4ZM606.991 348H607.831V340.646H606.991V348ZM612.948 346.638C612.729 347.102 612.27 347.351 611.591 347.351C610.697 347.351 610.116 346.691 610.072 345.651V345.612H613.856V345.29C613.856 343.654 612.992 342.644 611.571 342.644C610.126 342.644 609.198 343.718 609.198 345.373C609.198 347.038 610.111 348.093 611.571 348.093C612.724 348.093 613.544 347.536 613.788 346.638H612.948ZM611.562 343.386C612.396 343.386 612.953 344.001 612.973 344.934H610.072C610.136 344.001 610.722 343.386 611.562 343.386ZM618.349 341.374V342.736H617.499V343.439H618.349V346.633C618.349 347.639 618.783 348.039 619.867 348.039C620.033 348.039 620.194 348.02 620.36 347.99V347.282C620.204 347.297 620.121 347.302 619.97 347.302C619.423 347.302 619.188 347.038 619.188 346.418V343.439H620.36V342.736H619.188V341.374H618.349ZM621.679 348H622.519V344.885C622.519 343.996 623.036 343.4 623.979 343.4C624.774 343.4 625.194 343.864 625.194 344.797V348H626.034V344.592C626.034 343.356 625.331 342.644 624.218 342.644C623.412 342.644 622.86 342.985 622.597 343.566H622.519V340.646H621.679V348ZM631.054 346.638C630.834 347.102 630.375 347.351 629.696 347.351C628.803 347.351 628.222 346.691 628.178 345.651V345.612H631.962V345.29C631.962 343.654 631.098 342.644 629.677 342.644C628.231 342.644 627.304 343.718 627.304 345.373C627.304 347.038 628.217 348.093 629.677 348.093C630.829 348.093 631.649 347.536 631.894 346.638H631.054ZM629.667 343.386C630.502 343.386 631.059 344.001 631.078 344.934H628.178C628.241 344.001 628.827 343.386 629.667 343.386ZM638.666 342.644C637.948 342.644 637.318 343.01 636.981 343.615H636.903V342.736H636.103V349.758H636.942V347.209H637.021C637.309 347.766 637.914 348.093 638.666 348.093C640.004 348.093 640.878 347.014 640.878 345.368C640.878 343.713 640.009 342.644 638.666 342.644ZM638.466 347.336C637.519 347.336 636.918 346.574 636.918 345.368C636.918 344.157 637.519 343.4 638.471 343.4C639.433 343.4 640.009 344.138 640.009 345.368C640.009 346.599 639.433 347.336 638.466 347.336ZM643.661 348.093C644.364 348.093 644.94 347.785 645.282 347.224H645.36V348H646.161V344.396C646.161 343.303 645.443 342.644 644.159 342.644C643.036 342.644 642.206 343.2 642.094 344.045H642.943C643.061 343.63 643.5 343.391 644.13 343.391C644.916 343.391 645.321 343.747 645.321 344.396V344.875L643.803 344.968C642.577 345.041 641.884 345.583 641.884 346.525C641.884 347.487 642.641 348.093 643.661 348.093ZM643.817 347.355C643.207 347.355 642.753 347.043 642.753 346.506C642.753 345.979 643.104 345.7 643.905 345.646L645.321 345.554V346.037C645.321 346.789 644.682 347.355 643.817 347.355ZM647.968 349.904C648.9 349.904 649.32 349.543 649.77 348.322L651.825 342.736H650.932L649.491 347.067H649.413L647.968 342.736H647.06L649.008 348.005L648.91 348.317C648.69 348.952 648.427 349.182 647.943 349.182C647.826 349.182 647.694 349.177 647.592 349.157V349.875C647.709 349.895 647.855 349.904 647.968 349.904ZM652.948 348H653.788V344.738C653.788 343.996 654.32 343.4 655.009 343.4C655.673 343.4 656.107 343.801 656.107 344.426V348H656.947V344.616C656.947 343.947 657.436 343.4 658.168 343.4C658.91 343.4 659.276 343.781 659.276 344.558V348H660.116V344.362C660.116 343.259 659.516 342.644 658.441 342.644C657.714 342.644 657.113 343.01 656.83 343.566H656.752C656.508 343.02 656.01 342.644 655.297 342.644C654.594 342.644 654.066 342.98 653.827 343.566H653.749V342.736H652.948V348ZM665.136 346.638C664.916 347.102 664.457 347.351 663.778 347.351C662.885 347.351 662.304 346.691 662.26 345.651V345.612H666.044V345.29C666.044 343.654 665.18 342.644 663.759 342.644C662.313 342.644 661.386 343.718 661.386 345.373C661.386 347.038 662.299 348.093 663.759 348.093C664.911 348.093 665.731 347.536 665.976 346.638H665.136ZM663.749 343.386C664.584 343.386 665.141 344.001 665.16 344.934H662.26C662.323 344.001 662.909 343.386 663.749 343.386ZM667.362 348H668.202V344.885C668.202 343.962 668.744 343.4 669.584 343.4C670.424 343.4 670.824 343.85 670.824 344.797V348H671.664V344.592C671.664 343.342 671.005 342.644 669.823 342.644C669.018 342.644 668.505 342.985 668.241 343.566H668.163V342.736H667.362V348ZM673.554 341.374V342.736H672.704V343.439H673.554V346.633C673.554 347.639 673.988 348.039 675.072 348.039C675.238 348.039 675.399 348.02 675.565 347.99V347.282C675.409 347.297 675.326 347.302 675.175 347.302C674.628 347.302 674.394 347.038 674.394 346.418V343.439H675.565V342.736H674.394V341.374H673.554ZM550.102 364.093C551.601 364.093 552.528 363.058 552.528 361.368C552.528 359.674 551.601 358.644 550.102 358.644C548.603 358.644 547.675 359.674 547.675 361.368C547.675 363.058 548.603 364.093 550.102 364.093ZM550.102 363.336C549.105 363.336 548.544 362.613 548.544 361.368C548.544 360.118 549.105 359.4 550.102 359.4C551.098 359.4 551.659 360.118 551.659 361.368C551.659 362.613 551.098 363.336 550.102 363.336ZM558.104 358.736H557.265V361.852C557.265 362.774 556.757 363.326 555.829 363.326C554.989 363.326 554.638 362.887 554.638 361.939V358.736H553.798V362.145C553.798 363.39 554.413 364.093 555.595 364.093C556.4 364.093 556.962 363.761 557.226 363.175H557.304V364H558.104V358.736ZM560.038 357.374V358.736H559.188V359.439H560.038V362.633C560.038 363.639 560.473 364.039 561.557 364.039C561.723 364.039 561.884 364.02 562.05 363.99V363.282C561.894 363.297 561.811 363.302 561.659 363.302C561.112 363.302 560.878 363.038 560.878 362.418V359.439H562.05V358.736H560.878V357.374H560.038ZM567.597 360.348C567.45 359.41 566.669 358.644 565.39 358.644C563.915 358.644 562.978 359.708 562.978 361.349C562.978 363.023 563.92 364.093 565.395 364.093C566.659 364.093 567.445 363.38 567.597 362.413H566.747C566.591 363.009 566.098 363.336 565.39 363.336C564.452 363.336 563.847 362.564 563.847 361.349C563.847 360.157 564.442 359.4 565.39 359.4C566.146 359.4 566.61 359.825 566.747 360.348H567.597ZM571 364.093C572.499 364.093 573.427 363.058 573.427 361.368C573.427 359.674 572.499 358.644 571 358.644C569.501 358.644 568.573 359.674 568.573 361.368C568.573 363.058 569.501 364.093 571 364.093ZM571 363.336C570.004 363.336 569.442 362.613 569.442 361.368C569.442 360.118 570.004 359.4 571 359.4C571.996 359.4 572.558 360.118 572.558 361.368C572.558 362.613 571.996 363.336 571 363.336ZM574.745 364H575.585V360.738C575.585 359.996 576.117 359.4 576.806 359.4C577.47 359.4 577.904 359.801 577.904 360.426V364H578.744V360.616C578.744 359.947 579.232 359.4 579.965 359.4C580.707 359.4 581.073 359.781 581.073 360.558V364H581.913V360.362C581.913 359.259 581.312 358.644 580.238 358.644C579.511 358.644 578.91 359.01 578.627 359.566H578.549C578.305 359.02 577.807 358.644 577.094 358.644C576.391 358.644 575.863 358.98 575.624 359.566H575.546V358.736H574.745V364ZM586.933 362.638C586.713 363.102 586.254 363.351 585.575 363.351C584.682 363.351 584.101 362.691 584.057 361.651V361.612H587.841V361.29C587.841 359.654 586.977 358.644 585.556 358.644C584.11 358.644 583.183 359.718 583.183 361.373C583.183 363.038 584.096 364.093 585.556 364.093C586.708 364.093 587.528 363.536 587.772 362.638H586.933ZM585.546 359.386C586.381 359.386 586.938 360.001 586.957 360.934H584.057C584.12 360.001 584.706 359.386 585.546 359.386ZM589.853 364.049C590.204 364.049 590.487 363.761 590.487 363.414C590.487 363.062 590.204 362.779 589.853 362.779C589.506 362.779 589.218 363.062 589.218 363.414C589.218 363.761 589.506 364.049 589.853 364.049ZM594.721 362.159C594.813 363.375 595.844 364.166 597.338 364.166C598.949 364.166 599.97 363.341 599.97 362.047C599.97 361.012 599.384 360.445 597.924 360.079L597.187 359.884C596.215 359.635 595.829 359.317 595.829 358.766C595.829 358.053 596.449 357.584 597.387 357.584C598.266 357.584 598.861 358.014 598.983 358.736H599.867C599.794 357.599 598.778 356.788 597.416 356.788C595.927 356.788 594.926 357.599 594.926 358.795C594.926 359.796 595.478 360.372 596.752 360.694L597.655 360.929C598.627 361.173 599.066 361.554 599.066 362.154C599.066 362.853 598.368 363.365 597.421 363.365C596.42 363.365 595.717 362.896 595.609 362.159H594.721ZM604.813 362.638C604.594 363.102 604.135 363.351 603.456 363.351C602.562 363.351 601.981 362.691 601.938 361.651V361.612H605.722V361.29C605.722 359.654 604.857 358.644 603.437 358.644C601.991 358.644 601.063 359.718 601.063 361.373C601.063 363.038 601.977 364.093 603.437 364.093C604.589 364.093 605.409 363.536 605.653 362.638H604.813ZM603.427 359.386C604.262 359.386 604.818 360.001 604.838 360.934H601.938C602.001 360.001 602.587 359.386 603.427 359.386ZM610.526 362.638C610.307 363.102 609.848 363.351 609.169 363.351C608.275 363.351 607.694 362.691 607.65 361.651V361.612H611.435V361.29C611.435 359.654 610.57 358.644 609.149 358.644C607.704 358.644 606.776 359.718 606.776 361.373C606.776 363.038 607.689 364.093 609.149 364.093C610.302 364.093 611.122 363.536 611.366 362.638H610.526ZM609.14 359.386C609.975 359.386 610.531 360.001 610.551 360.934H607.65C607.714 360.001 608.3 359.386 609.14 359.386ZM618.192 364.093C619.525 364.093 620.399 363.014 620.399 361.368C620.399 359.713 619.53 358.644 618.192 358.644C617.47 358.644 616.83 359 616.542 359.566H616.464V356.646H615.624V364H616.425V363.16H616.503C616.835 363.746 617.46 364.093 618.192 364.093ZM617.997 359.4C618.959 359.4 619.53 360.138 619.53 361.368C619.53 362.599 618.959 363.336 617.997 363.336C617.04 363.336 616.444 362.584 616.444 361.368C616.444 360.152 617.04 359.4 617.997 359.4ZM625.204 362.638C624.984 363.102 624.525 363.351 623.847 363.351C622.953 363.351 622.372 362.691 622.328 361.651V361.612H626.112V361.29C626.112 359.654 625.248 358.644 623.827 358.644C622.382 358.644 621.454 359.718 621.454 361.373C621.454 363.038 622.367 364.093 623.827 364.093C624.979 364.093 625.8 363.536 626.044 362.638H625.204ZM623.817 359.386C624.652 359.386 625.209 360.001 625.229 360.934H622.328C622.392 360.001 622.978 359.386 623.817 359.386ZM627.479 364H628.319V356.646H627.479V364ZM632.113 364.093C633.612 364.093 634.54 363.058 634.54 361.368C634.54 359.674 633.612 358.644 632.113 358.644C630.614 358.644 629.687 359.674 629.687 361.368C629.687 363.058 630.614 364.093 632.113 364.093ZM632.113 363.336C631.117 363.336 630.556 362.613 630.556 361.368C630.556 360.118 631.117 359.4 632.113 359.4C633.109 359.4 633.671 360.118 633.671 361.368C633.671 362.613 633.109 363.336 632.113 363.336ZM642.284 358.736H641.439L640.404 362.945H640.326L639.149 358.736H638.344L637.167 362.945H637.089L636.054 358.736H635.204L636.679 364H637.528L638.7 359.928H638.778L639.955 364H640.81L642.284 358.736ZM643.368 364.049C643.72 364.049 644.003 363.761 644.003 363.414C644.003 363.062 643.72 362.779 643.368 362.779C643.021 362.779 642.733 363.062 642.733 363.414C642.733 363.761 643.021 364.049 643.368 364.049Z" fill="#2A2F45"/>
<defs>
<clipPath id="clip0">
<path d="M0 0H736V416H0V0Z" fill="white"/>
</clipPath>
</defs>
</svg>
