<svg width="736" height="368" viewBox="0 0 736 368" fill="none" xmlns="http://www.w3.org/2000/svg">
<g clip-path="url(#clip0)">
<path d="M0 0H736V368H0V0Z" fill="white"/>
<path d="M0 0L736 -6.43432e-05" stroke="#E3E8EE" stroke-width="2" stroke-linecap="round" stroke-linejoin="round" stroke-dasharray="0.01 16"/>
<path d="M0 16L736 15.9999" stroke="#E3E8EE" stroke-width="2" stroke-linecap="round" stroke-linejoin="round" stroke-dasharray="0.01 16"/>
<path d="M0 32L736 31.9999" stroke="#E3E8EE" stroke-width="2" stroke-linecap="round" stroke-linejoin="round" stroke-dasharray="0.01 16"/>
<path d="M0 48L736 47.9999" stroke="#E3E8EE" stroke-width="2" stroke-linecap="round" stroke-linejoin="round" stroke-dasharray="0.01 16"/>
<path d="M0 64L736 63.9999" stroke="#E3E8EE" stroke-width="2" stroke-linecap="round" stroke-linejoin="round" stroke-dasharray="0.01 16"/>
<path d="M0 80L736 79.9999" stroke="#E3E8EE" stroke-width="2" stroke-linecap="round" stroke-linejoin="round" stroke-dasharray="0.01 16"/>
<path d="M0 96L736 95.9999" stroke="#E3E8EE" stroke-width="2" stroke-linecap="round" stroke-linejoin="round" stroke-dasharray="0.01 16"/>
<path d="M0 112L736 112" stroke="#E3E8EE" stroke-width="2" stroke-linecap="round" stroke-linejoin="round" stroke-dasharray="0.01 16"/>
<path d="M0 128L736 128" stroke="#E3E8EE" stroke-width="2" stroke-linecap="round" stroke-linejoin="round" stroke-dasharray="0.01 16"/>
<path d="M0 144L736 144" stroke="#E3E8EE" stroke-width="2" stroke-linecap="round" stroke-linejoin="round" stroke-dasharray="0.01 16"/>
<path d="M0 160L736 160" stroke="#E3E8EE" stroke-width="2" stroke-linecap="round" stroke-linejoin="round" stroke-dasharray="0.01 16"/>
<path d="M0 176L736 176" stroke="#E3E8EE" stroke-width="2" stroke-linecap="round" stroke-linejoin="round" stroke-dasharray="0.01 16"/>
<path d="M0 192L736 192" stroke="#E3E8EE" stroke-width="2" stroke-linecap="round" stroke-linejoin="round" stroke-dasharray="0.01 16"/>
<path d="M0 208L736 208" stroke="#E3E8EE" stroke-width="2" stroke-linecap="round" stroke-linejoin="round" stroke-dasharray="0.01 16"/>
<path d="M0 224L736 224" stroke="#E3E8EE" stroke-width="2" stroke-linecap="round" stroke-linejoin="round" stroke-dasharray="0.01 16"/>
<path d="M0 240L736 240" stroke="#E3E8EE" stroke-width="2" stroke-linecap="round" stroke-linejoin="round" stroke-dasharray="0.01 16"/>
<path d="M0 256L736 256" stroke="#E3E8EE" stroke-width="2" stroke-linecap="round" stroke-linejoin="round" stroke-dasharray="0.01 16"/>
<path d="M0 272L736 272" stroke="#E3E8EE" stroke-width="2" stroke-linecap="round" stroke-linejoin="round" stroke-dasharray="0.01 16"/>
<path d="M0 288L736 288" stroke="#E3E8EE" stroke-width="2" stroke-linecap="round" stroke-linejoin="round" stroke-dasharray="0.01 16"/>
<path d="M0 304L736 304" stroke="#E3E8EE" stroke-width="2" stroke-linecap="round" stroke-linejoin="round" stroke-dasharray="0.01 16"/>
<path d="M0 320L736 320" stroke="#E3E8EE" stroke-width="2" stroke-linecap="round" stroke-linejoin="round" stroke-dasharray="0.01 16"/>
<path d="M0 336L736 336" stroke="#E3E8EE" stroke-width="2" stroke-linecap="round" stroke-linejoin="round" stroke-dasharray="0.01 16"/>
<path d="M0 352L736 352" stroke="#E3E8EE" stroke-width="2" stroke-linecap="round" stroke-linejoin="round" stroke-dasharray="0.01 16"/>
<path d="M0 368L736 368" stroke="#E3E8EE" stroke-width="2" stroke-linecap="round" stroke-linejoin="round" stroke-dasharray="0.01 16"/>
<rect x="0.5" y="0.5" width="735" height="367" stroke="white"/>
</g>
<path d="M32 48C32 39.1634 39.1634 32 48 32H304C312.837 32 320 39.1634 320 48V208C320 216.837 312.837 224 304 224H48C39.1635 224 32 216.837 32 208V48Z" fill="#F7FAFC"/>
<rect x="27" y="27" width="298" height="202" rx="21" stroke="white" stroke-width="10"/>
<path d="M528 56C528 51.5817 531.582 48 536 48H696C700.418 48 704 51.5817 704 56V112C704 116.418 700.418 120 696 120H536C531.582 120 528 116.418 528 112V56Z" fill="white"/>
<rect x="523" y="43" width="186" height="82" rx="13" stroke="white" stroke-width="10"/>
<path d="M591.045 76.2168C593.084 76.2168 594.572 74.9805 594.719 73.1758H592.996C592.826 74.1074 592.064 74.7051 591.051 74.7051C589.715 74.7051 588.889 73.5801 588.889 71.7695C588.889 69.959 589.715 68.834 591.045 68.834C592.053 68.834 592.82 69.4785 592.99 70.457H594.713C594.584 68.6406 593.049 67.3281 591.045 67.3281C588.59 67.3281 587.078 69.0215 587.078 71.7695C587.078 74.5176 588.596 76.2168 591.045 76.2168ZM602.025 69.5488H600.32V73.2754C600.32 74.1602 599.863 74.7051 599.014 74.7051C598.229 74.7051 597.824 74.2422 597.824 73.3281V69.5488H596.119V73.75C596.119 75.25 596.986 76.1348 598.381 76.1348C599.359 76.1348 599.963 75.7129 600.268 74.9629H600.373V76H602.025V69.5488ZM603.59 71.4297C603.59 72.4199 604.199 73.0117 605.453 73.2871L606.625 73.5508C607.193 73.6797 607.439 73.8789 607.439 74.207C607.439 74.6348 606.982 74.9277 606.32 74.9277C605.641 74.9277 605.225 74.6641 605.096 74.2188H603.432C603.549 75.4375 604.58 76.1348 606.285 76.1348C607.979 76.1348 609.133 75.3027 609.133 74.0254C609.133 73.0645 608.57 72.5371 607.316 72.2617L606.104 71.998C605.506 71.8633 605.23 71.6582 605.23 71.3301C605.23 70.9082 605.682 70.6211 606.291 70.6211C606.924 70.6211 607.316 70.8848 607.404 71.3125H608.98C608.887 70.0938 607.92 69.4082 606.279 69.4082C604.668 69.4082 603.59 70.2227 603.59 71.4297ZM610.984 68.0078V69.6074H609.977V70.9023H610.984V74.2598C610.984 75.5137 611.605 76.0234 613.176 76.0234C613.504 76.0234 613.82 75.9883 614.031 75.9473V74.6875C613.867 74.7051 613.75 74.7168 613.527 74.7168C612.947 74.7168 612.689 74.4473 612.689 73.8672V70.9023H614.031V69.6074H612.689V68.0078H610.984ZM618.273 76.1348C620.26 76.1348 621.455 74.8809 621.455 72.7715C621.455 70.6797 620.242 69.4082 618.273 69.4082C616.305 69.4082 615.092 70.6855 615.092 72.7715C615.092 74.875 616.287 76.1348 618.273 76.1348ZM618.273 74.7871C617.359 74.7871 616.844 74.0488 616.844 72.7715C616.844 71.5059 617.365 70.7617 618.273 70.7617C619.176 70.7617 619.703 71.5059 619.703 72.7715C619.703 74.0488 619.182 74.7871 618.273 74.7871ZM622.85 76H624.555V72.1094C624.555 71.3711 625.029 70.832 625.697 70.832C626.365 70.832 626.764 71.2305 626.764 71.9219V76H628.404V72.0332C628.404 71.3359 628.85 70.832 629.541 70.832C630.262 70.832 630.619 71.2188 630.619 71.998V76H632.324V71.5703C632.324 70.2402 631.521 69.4082 630.232 69.4082C629.33 69.4082 628.586 69.8828 628.287 70.5977H628.182C627.924 69.8594 627.303 69.4082 626.395 69.4082C625.545 69.4082 624.871 69.8594 624.607 70.5977H624.502V69.5488H622.85V76ZM638.16 74.1777C637.979 74.6172 637.516 74.8633 636.842 74.8633C635.951 74.8633 635.389 74.248 635.365 73.2637V73.1758H639.801V72.666C639.801 70.627 638.676 69.4082 636.771 69.4082C634.85 69.4082 633.666 70.709 633.666 72.8066C633.666 74.8926 634.826 76.1348 636.795 76.1348C638.377 76.1348 639.496 75.3789 639.748 74.1777H638.16ZM636.777 70.6797C637.574 70.6797 638.09 71.2305 638.125 72.1152H635.371C635.43 71.248 635.986 70.6797 636.777 70.6797ZM641.201 76H642.906V72.3906C642.906 71.4824 643.545 70.9258 644.477 70.9258C644.752 70.9258 645.15 70.9727 645.285 71.0195V69.5195C645.139 69.4727 644.852 69.4434 644.617 69.4434C643.797 69.4434 643.129 69.9297 642.959 70.5742H642.854V69.5488H641.201V76Z" fill="#3C4257"/>
<rect x="528.5" y="48.5" width="175" height="71" rx="7.5" stroke="#E3E8EE"/>
<path d="M375 176C375 171.582 378.582 168 383 168H488C492.418 168 496 171.582 496 176V224C496 228.418 492.418 232 488 232H383C378.582 232 375 228.418 375 224V176Z" fill="white"/>
<rect x="370" y="163" width="131" height="74" rx="13" stroke="white" stroke-width="10"/>
<path d="M416.762 196V187.545H414.992V196H416.762ZM418.643 196H420.348V192.268C420.348 191.395 420.834 190.832 421.625 190.832C422.434 190.832 422.814 191.307 422.814 192.215V196H424.52V191.828C424.52 190.287 423.746 189.408 422.311 189.408C421.355 189.408 420.699 189.859 420.4 190.586H420.295V189.549H418.643V196ZM431.844 189.549H430.045L428.721 194.4H428.615L427.279 189.549H425.445L427.689 196H429.611L431.844 189.549ZM435.594 196.135C437.58 196.135 438.775 194.881 438.775 192.771C438.775 190.68 437.562 189.408 435.594 189.408C433.625 189.408 432.412 190.686 432.412 192.771C432.412 194.875 433.607 196.135 435.594 196.135ZM435.594 194.787C434.68 194.787 434.164 194.049 434.164 192.771C434.164 191.506 434.686 190.762 435.594 190.762C436.496 190.762 437.023 191.506 437.023 192.771C437.023 194.049 436.502 194.787 435.594 194.787ZM441.037 188.559C441.564 188.559 441.998 188.137 441.998 187.609C441.998 187.076 441.564 186.654 441.037 186.654C440.51 186.654 440.07 187.076 440.07 187.609C440.07 188.137 440.51 188.559 441.037 188.559ZM440.182 196H441.887V189.549H440.182V196ZM449.334 191.799C449.193 190.357 448.168 189.408 446.457 189.408C444.436 189.408 443.299 190.633 443.299 192.76C443.299 194.91 444.441 196.135 446.457 196.135C448.139 196.135 449.193 195.209 449.334 193.791H447.74C447.611 194.436 447.154 194.781 446.457 194.781C445.543 194.781 445.021 194.061 445.021 192.76C445.021 191.477 445.537 190.768 446.457 190.768C447.184 190.768 447.623 191.178 447.74 191.799H449.334ZM454.848 194.178C454.666 194.617 454.203 194.863 453.529 194.863C452.639 194.863 452.076 194.248 452.053 193.264V193.176H456.488V192.666C456.488 190.627 455.363 189.408 453.459 189.408C451.537 189.408 450.354 190.709 450.354 192.807C450.354 194.893 451.514 196.135 453.482 196.135C455.064 196.135 456.184 195.379 456.436 194.178H454.848ZM453.465 190.68C454.262 190.68 454.777 191.23 454.812 192.115H452.059C452.117 191.248 452.674 190.68 453.465 190.68ZM413.375 212H414.482L411.365 203.545H410.322L407.205 212H408.312L409.162 209.58H412.525L413.375 212ZM410.797 204.91H410.891L412.215 208.684H409.473L410.797 204.91ZM418.912 205.572C418.051 205.572 417.295 206.012 416.891 206.738H416.797V205.684H415.836V214.109H416.844V211.051H416.938C417.283 211.719 418.01 212.111 418.912 212.111C420.518 212.111 421.566 210.816 421.566 208.842C421.566 206.855 420.523 205.572 418.912 205.572ZM418.672 211.203C417.535 211.203 416.814 210.289 416.814 208.842C416.814 207.389 417.535 206.48 418.678 206.48C419.832 206.48 420.523 207.365 420.523 208.842C420.523 210.318 419.832 211.203 418.672 211.203ZM423.148 212H424.156V208.086C424.156 207.195 424.854 206.551 425.814 206.551C426.014 206.551 426.377 206.586 426.459 206.609V205.602C426.33 205.584 426.119 205.572 425.955 205.572C425.117 205.572 424.391 206.006 424.203 206.621H424.109V205.684H423.148V212ZM428.246 204.465C428.633 204.465 428.949 204.148 428.949 203.762C428.949 203.375 428.633 203.059 428.246 203.059C427.859 203.059 427.543 203.375 427.543 203.762C427.543 204.148 427.859 204.465 428.246 204.465ZM427.742 212H428.75V205.684H427.742V212ZM430.73 212H431.738V203.176H430.73V212ZM437.023 205.93H438.043C438.043 204.928 438.717 204.266 439.73 204.266C440.727 204.266 441.33 204.934 441.33 205.83C441.33 206.574 441.014 207.014 439.936 208.18L437.076 211.273V212H442.549V211.051H438.541V210.957L440.463 208.971C441.986 207.395 442.408 206.691 442.408 205.719C442.408 204.348 441.277 203.346 439.801 203.346C438.184 203.346 437.023 204.424 437.023 205.93ZM447.172 212.199C449.07 212.199 450.16 210.594 450.16 207.787C450.16 204.986 449.053 203.346 447.172 203.346C445.279 203.346 444.172 204.98 444.172 207.77C444.172 210.582 445.268 212.199 447.172 212.199ZM447.172 211.279C445.924 211.279 445.232 210.031 445.232 207.77C445.232 205.537 445.936 204.271 447.172 204.271C448.408 204.271 449.1 205.525 449.1 207.77C449.1 210.037 448.42 211.279 447.172 211.279ZM453.91 212H454.965V203.545H453.916L451.666 205.162V206.275L453.816 204.717H453.91V212ZM460.191 212.193C462.26 212.193 463.443 210.529 463.443 207.623C463.443 204.746 462.084 203.346 460.262 203.346C458.527 203.346 457.297 204.559 457.297 206.258C457.297 207.898 458.463 209.088 460.074 209.088C461.082 209.088 461.908 208.607 462.324 207.787H462.418C462.359 210.037 461.58 211.256 460.203 211.256C459.371 211.256 458.727 210.793 458.504 210.031H457.42C457.684 211.361 458.756 212.193 460.191 212.193ZM460.262 208.174C459.143 208.174 458.363 207.377 458.363 206.223C458.363 205.115 459.189 204.271 460.273 204.271C461.357 204.271 462.184 205.127 462.184 206.258C462.184 207.377 461.381 208.174 460.262 208.174Z" fill="#3C4257"/>
<rect x="375.5" y="168.5" width="120" height="63" rx="13.5" stroke="#E3E8EE"/>
<path d="M372 172C372 167.582 375.582 164 380 164H485C489.418 164 493 167.582 493 172V220C493 224.418 489.418 228 485 228H380C375.582 228 372 224.418 372 220V172Z" fill="white"/>
<path d="M413.762 192V183.545H411.992V192H413.762ZM415.643 192H417.348V188.268C417.348 187.395 417.834 186.832 418.625 186.832C419.434 186.832 419.814 187.307 419.814 188.215V192H421.52V187.828C421.52 186.287 420.746 185.408 419.311 185.408C418.355 185.408 417.699 185.859 417.4 186.586H417.295V185.549H415.643V192ZM428.844 185.549H427.045L425.721 190.4H425.615L424.279 185.549H422.445L424.689 192H426.611L428.844 185.549ZM432.594 192.135C434.58 192.135 435.775 190.881 435.775 188.771C435.775 186.68 434.562 185.408 432.594 185.408C430.625 185.408 429.412 186.686 429.412 188.771C429.412 190.875 430.607 192.135 432.594 192.135ZM432.594 190.787C431.68 190.787 431.164 190.049 431.164 188.771C431.164 187.506 431.686 186.762 432.594 186.762C433.496 186.762 434.023 187.506 434.023 188.771C434.023 190.049 433.502 190.787 432.594 190.787ZM438.037 184.559C438.564 184.559 438.998 184.137 438.998 183.609C438.998 183.076 438.564 182.654 438.037 182.654C437.51 182.654 437.07 183.076 437.07 183.609C437.07 184.137 437.51 184.559 438.037 184.559ZM437.182 192H438.887V185.549H437.182V192ZM446.334 187.799C446.193 186.357 445.168 185.408 443.457 185.408C441.436 185.408 440.299 186.633 440.299 188.76C440.299 190.91 441.441 192.135 443.457 192.135C445.139 192.135 446.193 191.209 446.334 189.791H444.74C444.611 190.436 444.154 190.781 443.457 190.781C442.543 190.781 442.021 190.061 442.021 188.76C442.021 187.477 442.537 186.768 443.457 186.768C444.184 186.768 444.623 187.178 444.74 187.799H446.334ZM451.848 190.178C451.666 190.617 451.203 190.863 450.529 190.863C449.639 190.863 449.076 190.248 449.053 189.264V189.176H453.488V188.666C453.488 186.627 452.363 185.408 450.459 185.408C448.537 185.408 447.354 186.709 447.354 188.807C447.354 190.893 448.514 192.135 450.482 192.135C452.064 192.135 453.184 191.379 453.436 190.178H451.848ZM450.465 186.68C451.262 186.68 451.777 187.23 451.812 188.115H449.059C449.117 187.248 449.674 186.68 450.465 186.68ZM410.375 208H411.482L408.365 199.545H407.322L404.205 208H405.312L406.162 205.58H409.525L410.375 208ZM407.797 200.91H407.891L409.215 204.684H406.473L407.797 200.91ZM415.912 201.572C415.051 201.572 414.295 202.012 413.891 202.738H413.797V201.684H412.836V210.109H413.844V207.051H413.938C414.283 207.719 415.01 208.111 415.912 208.111C417.518 208.111 418.566 206.816 418.566 204.842C418.566 202.855 417.523 201.572 415.912 201.572ZM415.672 207.203C414.535 207.203 413.814 206.289 413.814 204.842C413.814 203.389 414.535 202.48 415.678 202.48C416.832 202.48 417.523 203.365 417.523 204.842C417.523 206.318 416.832 207.203 415.672 207.203ZM420.148 208H421.156V204.086C421.156 203.195 421.854 202.551 422.814 202.551C423.014 202.551 423.377 202.586 423.459 202.609V201.602C423.33 201.584 423.119 201.572 422.955 201.572C422.117 201.572 421.391 202.006 421.203 202.621H421.109V201.684H420.148V208ZM425.246 200.465C425.633 200.465 425.949 200.148 425.949 199.762C425.949 199.375 425.633 199.059 425.246 199.059C424.859 199.059 424.543 199.375 424.543 199.762C424.543 200.148 424.859 200.465 425.246 200.465ZM424.742 208H425.75V201.684H424.742V208ZM427.73 208H428.738V199.176H427.73V208ZM434.023 201.93H435.043C435.043 200.928 435.717 200.266 436.73 200.266C437.727 200.266 438.33 200.934 438.33 201.83C438.33 202.574 438.014 203.014 436.936 204.18L434.076 207.273V208H439.549V207.051H435.541V206.957L437.463 204.971C438.986 203.395 439.408 202.691 439.408 201.719C439.408 200.348 438.277 199.346 436.801 199.346C435.184 199.346 434.023 200.424 434.023 201.93ZM444.172 208.199C446.07 208.199 447.16 206.594 447.16 203.787C447.16 200.986 446.053 199.346 444.172 199.346C442.279 199.346 441.172 200.98 441.172 203.77C441.172 206.582 442.268 208.199 444.172 208.199ZM444.172 207.279C442.924 207.279 442.232 206.031 442.232 203.77C442.232 201.537 442.936 200.271 444.172 200.271C445.408 200.271 446.1 201.525 446.1 203.77C446.1 206.037 445.42 207.279 444.172 207.279ZM450.91 208H451.965V199.545H450.916L448.666 201.162V202.275L450.816 200.717H450.91V208ZM457.191 208.193C459.26 208.193 460.443 206.529 460.443 203.623C460.443 200.746 459.084 199.346 457.262 199.346C455.527 199.346 454.297 200.559 454.297 202.258C454.297 203.898 455.463 205.088 457.074 205.088C458.082 205.088 458.908 204.607 459.324 203.787H459.418C459.359 206.037 458.58 207.256 457.203 207.256C456.371 207.256 455.727 206.793 455.504 206.031H454.42C454.684 207.361 455.756 208.193 457.191 208.193ZM457.262 204.174C456.143 204.174 455.363 203.377 455.363 202.223C455.363 201.115 456.189 200.271 457.273 200.271C458.357 200.271 459.184 201.127 459.184 202.258C459.184 203.377 458.381 204.174 457.262 204.174Z" fill="#3C4257"/>
<rect x="372.5" y="164.5" width="120" height="63" rx="11.5" stroke="#E3E8EE"/>
<path d="M369 168C369 163.582 372.582 160 377 160H482C486.418 160 490 163.582 490 168V216C490 220.418 486.418 224 482 224H377C372.582 224 369 220.418 369 216V168Z" fill="white"/>
<path d="M410.762 196V187.545H408.992V196H410.762ZM412.643 196H414.348V192.268C414.348 191.395 414.834 190.832 415.625 190.832C416.434 190.832 416.814 191.307 416.814 192.215V196H418.52V191.828C418.52 190.287 417.746 189.408 416.311 189.408C415.355 189.408 414.699 189.859 414.4 190.586H414.295V189.549H412.643V196ZM425.844 189.549H424.045L422.721 194.4H422.615L421.279 189.549H419.445L421.689 196H423.611L425.844 189.549ZM429.594 196.135C431.58 196.135 432.775 194.881 432.775 192.771C432.775 190.68 431.562 189.408 429.594 189.408C427.625 189.408 426.412 190.686 426.412 192.771C426.412 194.875 427.607 196.135 429.594 196.135ZM429.594 194.787C428.68 194.787 428.164 194.049 428.164 192.771C428.164 191.506 428.686 190.762 429.594 190.762C430.496 190.762 431.023 191.506 431.023 192.771C431.023 194.049 430.502 194.787 429.594 194.787ZM435.037 188.559C435.564 188.559 435.998 188.137 435.998 187.609C435.998 187.076 435.564 186.654 435.037 186.654C434.51 186.654 434.07 187.076 434.07 187.609C434.07 188.137 434.51 188.559 435.037 188.559ZM434.182 196H435.887V189.549H434.182V196ZM443.334 191.799C443.193 190.357 442.168 189.408 440.457 189.408C438.436 189.408 437.299 190.633 437.299 192.76C437.299 194.91 438.441 196.135 440.457 196.135C442.139 196.135 443.193 195.209 443.334 193.791H441.74C441.611 194.436 441.154 194.781 440.457 194.781C439.543 194.781 439.021 194.061 439.021 192.76C439.021 191.477 439.537 190.768 440.457 190.768C441.184 190.768 441.623 191.178 441.74 191.799H443.334ZM448.848 194.178C448.666 194.617 448.203 194.863 447.529 194.863C446.639 194.863 446.076 194.248 446.053 193.264V193.176H450.488V192.666C450.488 190.627 449.363 189.408 447.459 189.408C445.537 189.408 444.354 190.709 444.354 192.807C444.354 194.893 445.514 196.135 447.482 196.135C449.064 196.135 450.184 195.379 450.436 194.178H448.848ZM447.465 190.68C448.262 190.68 448.777 191.23 448.812 192.115H446.059C446.117 191.248 446.674 190.68 447.465 190.68Z" fill="#3C4257"/>
<rect x="369.5" y="160.5" width="120" height="63" rx="7.5" stroke="#E3E8EE"/>
<path d="M375 64C375 59.5817 378.582 56 383 56H488C492.418 56 496 59.5817 496 64V112C496 116.418 492.418 120 488 120H383C378.582 120 375 116.418 375 112V64Z" fill="white"/>
<rect x="370" y="51" width="131" height="74" rx="13" stroke="white" stroke-width="10"/>
<path d="M416.762 84V75.5449H414.992V84H416.762ZM418.643 84H420.348V80.2676C420.348 79.3945 420.834 78.832 421.625 78.832C422.434 78.832 422.814 79.3066 422.814 80.2148V84H424.52V79.8281C424.52 78.2871 423.746 77.4082 422.311 77.4082C421.355 77.4082 420.699 77.8594 420.4 78.5859H420.295V77.5488H418.643V84ZM431.844 77.5488H430.045L428.721 82.4004H428.615L427.279 77.5488H425.445L427.689 84H429.611L431.844 77.5488ZM435.594 84.1348C437.58 84.1348 438.775 82.8809 438.775 80.7715C438.775 78.6797 437.562 77.4082 435.594 77.4082C433.625 77.4082 432.412 78.6855 432.412 80.7715C432.412 82.875 433.607 84.1348 435.594 84.1348ZM435.594 82.7871C434.68 82.7871 434.164 82.0488 434.164 80.7715C434.164 79.5059 434.686 78.7617 435.594 78.7617C436.496 78.7617 437.023 79.5059 437.023 80.7715C437.023 82.0488 436.502 82.7871 435.594 82.7871ZM441.037 76.5586C441.564 76.5586 441.998 76.1367 441.998 75.6094C441.998 75.0762 441.564 74.6543 441.037 74.6543C440.51 74.6543 440.07 75.0762 440.07 75.6094C440.07 76.1367 440.51 76.5586 441.037 76.5586ZM440.182 84H441.887V77.5488H440.182V84ZM449.334 79.7988C449.193 78.3574 448.168 77.4082 446.457 77.4082C444.436 77.4082 443.299 78.6328 443.299 80.7598C443.299 82.9102 444.441 84.1348 446.457 84.1348C448.139 84.1348 449.193 83.209 449.334 81.791H447.74C447.611 82.4355 447.154 82.7812 446.457 82.7812C445.543 82.7812 445.021 82.0605 445.021 80.7598C445.021 79.4766 445.537 78.7676 446.457 78.7676C447.184 78.7676 447.623 79.1777 447.74 79.7988H449.334ZM454.848 82.1777C454.666 82.6172 454.203 82.8633 453.529 82.8633C452.639 82.8633 452.076 82.248 452.053 81.2637V81.1758H456.488V80.666C456.488 78.627 455.363 77.4082 453.459 77.4082C451.537 77.4082 450.354 78.709 450.354 80.8066C450.354 82.8926 451.514 84.1348 453.482 84.1348C455.064 84.1348 456.184 83.3789 456.436 82.1777H454.848ZM453.465 78.6797C454.262 78.6797 454.777 79.2305 454.812 80.1152H452.059C452.117 79.248 452.674 78.6797 453.465 78.6797ZM413.375 100H414.482L411.365 91.5449H410.322L407.205 100H408.312L409.162 97.5801H412.525L413.375 100ZM410.797 92.9102H410.891L412.215 96.6836H409.473L410.797 92.9102ZM418.912 93.5723C418.051 93.5723 417.295 94.0117 416.891 94.7383H416.797V93.6836H415.836V102.109H416.844V99.0508H416.938C417.283 99.7188 418.01 100.111 418.912 100.111C420.518 100.111 421.566 98.8164 421.566 96.8418C421.566 94.8555 420.523 93.5723 418.912 93.5723ZM418.672 99.2031C417.535 99.2031 416.814 98.2891 416.814 96.8418C416.814 95.3887 417.535 94.4805 418.678 94.4805C419.832 94.4805 420.523 95.3652 420.523 96.8418C420.523 98.3184 419.832 99.2031 418.672 99.2031ZM423.148 100H424.156V96.0859C424.156 95.1953 424.854 94.5508 425.814 94.5508C426.014 94.5508 426.377 94.5859 426.459 94.6094V93.6016C426.33 93.584 426.119 93.5723 425.955 93.5723C425.117 93.5723 424.391 94.0059 424.203 94.6211H424.109V93.6836H423.148V100ZM428.246 92.4648C428.633 92.4648 428.949 92.1484 428.949 91.7617C428.949 91.375 428.633 91.0586 428.246 91.0586C427.859 91.0586 427.543 91.375 427.543 91.7617C427.543 92.1484 427.859 92.4648 428.246 92.4648ZM427.742 100H428.75V93.6836H427.742V100ZM430.73 100H431.738V91.1758H430.73V100ZM437.023 93.9297H438.043C438.043 92.9277 438.717 92.2656 439.73 92.2656C440.727 92.2656 441.33 92.9336 441.33 93.8301C441.33 94.5742 441.014 95.0137 439.936 96.1797L437.076 99.2734V100H442.549V99.0508H438.541V98.957L440.463 96.9707C441.986 95.3945 442.408 94.6914 442.408 93.7188C442.408 92.3477 441.277 91.3457 439.801 91.3457C438.184 91.3457 437.023 92.4238 437.023 93.9297ZM447.172 100.199C449.07 100.199 450.16 98.5938 450.16 95.7871C450.16 92.9863 449.053 91.3457 447.172 91.3457C445.279 91.3457 444.172 92.9805 444.172 95.7695C444.172 98.582 445.268 100.199 447.172 100.199ZM447.172 99.2793C445.924 99.2793 445.232 98.0312 445.232 95.7695C445.232 93.5371 445.936 92.2715 447.172 92.2715C448.408 92.2715 449.1 93.5254 449.1 95.7695C449.1 98.0371 448.42 99.2793 447.172 99.2793ZM453.91 100H454.965V91.5449H453.916L451.666 93.1621V94.2754L453.816 92.7168H453.91V100ZM460.191 100.193C462.26 100.193 463.443 98.5293 463.443 95.623C463.443 92.7461 462.084 91.3457 460.262 91.3457C458.527 91.3457 457.297 92.5586 457.297 94.2578C457.297 95.8984 458.463 97.0879 460.074 97.0879C461.082 97.0879 461.908 96.6074 462.324 95.7871H462.418C462.359 98.0371 461.58 99.2559 460.203 99.2559C459.371 99.2559 458.727 98.793 458.504 98.0312H457.42C457.684 99.3613 458.756 100.193 460.191 100.193ZM460.262 96.1738C459.143 96.1738 458.363 95.377 458.363 94.2227C458.363 93.1152 459.189 92.2715 460.273 92.2715C461.357 92.2715 462.184 93.127 462.184 94.2578C462.184 95.377 461.381 96.1738 460.262 96.1738Z" fill="#3C4257"/>
<rect x="375.5" y="56.5" width="120" height="63" rx="13.5" stroke="#E3E8EE"/>
<path d="M372 60C372 55.5817 375.582 52 380 52H485C489.418 52 493 55.5817 493 60V108C493 112.418 489.418 116 485 116H380C375.582 116 372 112.418 372 108V60Z" fill="white"/>
<path d="M413.762 80V71.5449H411.992V80H413.762ZM415.643 80H417.348V76.2676C417.348 75.3945 417.834 74.832 418.625 74.832C419.434 74.832 419.814 75.3066 419.814 76.2148V80H421.52V75.8281C421.52 74.2871 420.746 73.4082 419.311 73.4082C418.355 73.4082 417.699 73.8594 417.4 74.5859H417.295V73.5488H415.643V80ZM428.844 73.5488H427.045L425.721 78.4004H425.615L424.279 73.5488H422.445L424.689 80H426.611L428.844 73.5488ZM432.594 80.1348C434.58 80.1348 435.775 78.8809 435.775 76.7715C435.775 74.6797 434.562 73.4082 432.594 73.4082C430.625 73.4082 429.412 74.6855 429.412 76.7715C429.412 78.875 430.607 80.1348 432.594 80.1348ZM432.594 78.7871C431.68 78.7871 431.164 78.0488 431.164 76.7715C431.164 75.5059 431.686 74.7617 432.594 74.7617C433.496 74.7617 434.023 75.5059 434.023 76.7715C434.023 78.0488 433.502 78.7871 432.594 78.7871ZM438.037 72.5586C438.564 72.5586 438.998 72.1367 438.998 71.6094C438.998 71.0762 438.564 70.6543 438.037 70.6543C437.51 70.6543 437.07 71.0762 437.07 71.6094C437.07 72.1367 437.51 72.5586 438.037 72.5586ZM437.182 80H438.887V73.5488H437.182V80ZM446.334 75.7988C446.193 74.3574 445.168 73.4082 443.457 73.4082C441.436 73.4082 440.299 74.6328 440.299 76.7598C440.299 78.9102 441.441 80.1348 443.457 80.1348C445.139 80.1348 446.193 79.209 446.334 77.791H444.74C444.611 78.4355 444.154 78.7812 443.457 78.7812C442.543 78.7812 442.021 78.0605 442.021 76.7598C442.021 75.4766 442.537 74.7676 443.457 74.7676C444.184 74.7676 444.623 75.1777 444.74 75.7988H446.334ZM451.848 78.1777C451.666 78.6172 451.203 78.8633 450.529 78.8633C449.639 78.8633 449.076 78.248 449.053 77.2637V77.1758H453.488V76.666C453.488 74.627 452.363 73.4082 450.459 73.4082C448.537 73.4082 447.354 74.709 447.354 76.8066C447.354 78.8926 448.514 80.1348 450.482 80.1348C452.064 80.1348 453.184 79.3789 453.436 78.1777H451.848ZM450.465 74.6797C451.262 74.6797 451.777 75.2305 451.812 76.1152H449.059C449.117 75.248 449.674 74.6797 450.465 74.6797ZM410.375 96H411.482L408.365 87.5449H407.322L404.205 96H405.312L406.162 93.5801H409.525L410.375 96ZM407.797 88.9102H407.891L409.215 92.6836H406.473L407.797 88.9102ZM415.912 89.5723C415.051 89.5723 414.295 90.0117 413.891 90.7383H413.797V89.6836H412.836V98.1094H413.844V95.0508H413.938C414.283 95.7188 415.01 96.1113 415.912 96.1113C417.518 96.1113 418.566 94.8164 418.566 92.8418C418.566 90.8555 417.523 89.5723 415.912 89.5723ZM415.672 95.2031C414.535 95.2031 413.814 94.2891 413.814 92.8418C413.814 91.3887 414.535 90.4805 415.678 90.4805C416.832 90.4805 417.523 91.3652 417.523 92.8418C417.523 94.3184 416.832 95.2031 415.672 95.2031ZM420.148 96H421.156V92.0859C421.156 91.1953 421.854 90.5508 422.814 90.5508C423.014 90.5508 423.377 90.5859 423.459 90.6094V89.6016C423.33 89.584 423.119 89.5723 422.955 89.5723C422.117 89.5723 421.391 90.0059 421.203 90.6211H421.109V89.6836H420.148V96ZM425.246 88.4648C425.633 88.4648 425.949 88.1484 425.949 87.7617C425.949 87.375 425.633 87.0586 425.246 87.0586C424.859 87.0586 424.543 87.375 424.543 87.7617C424.543 88.1484 424.859 88.4648 425.246 88.4648ZM424.742 96H425.75V89.6836H424.742V96ZM427.73 96H428.738V87.1758H427.73V96ZM434.023 89.9297H435.043C435.043 88.9277 435.717 88.2656 436.73 88.2656C437.727 88.2656 438.33 88.9336 438.33 89.8301C438.33 90.5742 438.014 91.0137 436.936 92.1797L434.076 95.2734V96H439.549V95.0508H435.541V94.957L437.463 92.9707C438.986 91.3945 439.408 90.6914 439.408 89.7188C439.408 88.3477 438.277 87.3457 436.801 87.3457C435.184 87.3457 434.023 88.4238 434.023 89.9297ZM444.172 96.1992C446.07 96.1992 447.16 94.5938 447.16 91.7871C447.16 88.9863 446.053 87.3457 444.172 87.3457C442.279 87.3457 441.172 88.9805 441.172 91.7695C441.172 94.582 442.268 96.1992 444.172 96.1992ZM444.172 95.2793C442.924 95.2793 442.232 94.0312 442.232 91.7695C442.232 89.5371 442.936 88.2715 444.172 88.2715C445.408 88.2715 446.1 89.5254 446.1 91.7695C446.1 94.0371 445.42 95.2793 444.172 95.2793ZM450.91 96H451.965V87.5449H450.916L448.666 89.1621V90.2754L450.816 88.7168H450.91V96ZM457.191 96.1934C459.26 96.1934 460.443 94.5293 460.443 91.623C460.443 88.7461 459.084 87.3457 457.262 87.3457C455.527 87.3457 454.297 88.5586 454.297 90.2578C454.297 91.8984 455.463 93.0879 457.074 93.0879C458.082 93.0879 458.908 92.6074 459.324 91.7871H459.418C459.359 94.0371 458.58 95.2559 457.203 95.2559C456.371 95.2559 455.727 94.793 455.504 94.0312H454.42C454.684 95.3613 455.756 96.1934 457.191 96.1934ZM457.262 92.1738C456.143 92.1738 455.363 91.377 455.363 90.2227C455.363 89.1152 456.189 88.2715 457.273 88.2715C458.357 88.2715 459.184 89.127 459.184 90.2578C459.184 91.377 458.381 92.1738 457.262 92.1738Z" fill="#3C4257"/>
<rect x="372.5" y="52.5" width="120" height="63" rx="11.5" stroke="#E3E8EE"/>
<path d="M368 56C368 51.5817 371.582 48 376 48H482C486.418 48 490 51.5817 490 56V104C490 108.418 486.418 112 482 112H376C371.582 112 368 108.418 368 104V56Z" fill="white"/>
<path d="M391.072 81.6621C391.137 83.2266 392.443 84.2168 394.459 84.2168C396.58 84.2168 397.887 83.1738 397.887 81.4863C397.887 80.1797 397.154 79.4473 395.455 79.084L394.436 78.8672C393.445 78.6504 393.041 78.3398 393.041 77.8066C393.041 77.1445 393.627 76.7168 394.512 76.7168C395.367 76.7168 395.988 77.168 396.07 77.8594H397.734C397.682 76.3652 396.363 75.3281 394.5 75.3281C392.549 75.3281 391.266 76.3711 391.266 77.9473C391.266 79.2305 392.021 80.0215 393.562 80.3496L394.664 80.5898C395.701 80.8184 396.123 81.1406 396.123 81.6973C396.123 82.3535 395.473 82.8164 394.553 82.8164C393.557 82.8164 392.865 82.3652 392.783 81.6621H391.072ZM405.24 77.5488H403.535V81.2754C403.535 82.1602 403.078 82.7051 402.229 82.7051C401.443 82.7051 401.039 82.2422 401.039 81.3281V77.5488H399.334V81.75C399.334 83.25 400.201 84.1348 401.596 84.1348C402.574 84.1348 403.178 83.7129 403.482 82.9629H403.588V84H405.24V77.5488ZM410.76 84.0996C412.383 84.0996 413.379 82.8398 413.379 80.7715C413.379 78.6914 412.395 77.4434 410.76 77.4434C409.875 77.4434 409.148 77.8711 408.82 78.5801H408.715V75.082H407.01V84H408.662V82.9863H408.768C409.113 83.6895 409.846 84.0996 410.76 84.0996ZM410.168 78.8262C411.07 78.8262 411.627 79.5703 411.627 80.7715C411.627 81.9844 411.076 82.7227 410.168 82.7227C409.266 82.7227 408.703 81.9785 408.697 80.7773C408.703 79.5762 409.271 78.8262 410.168 78.8262ZM414.621 79.4297C414.621 80.4199 415.23 81.0117 416.484 81.2871L417.656 81.5508C418.225 81.6797 418.471 81.8789 418.471 82.207C418.471 82.6348 418.014 82.9277 417.352 82.9277C416.672 82.9277 416.256 82.6641 416.127 82.2188H414.463C414.58 83.4375 415.611 84.1348 417.316 84.1348C419.01 84.1348 420.164 83.3027 420.164 82.0254C420.164 81.0645 419.602 80.5371 418.348 80.2617L417.135 79.998C416.537 79.8633 416.262 79.6582 416.262 79.3301C416.262 78.9082 416.713 78.6211 417.322 78.6211C417.955 78.6211 418.348 78.8848 418.436 79.3125H420.012C419.918 78.0938 418.951 77.4082 417.311 77.4082C415.699 77.4082 414.621 78.2227 414.621 79.4297ZM427.283 79.7988C427.143 78.3574 426.117 77.4082 424.406 77.4082C422.385 77.4082 421.248 78.6328 421.248 80.7598C421.248 82.9102 422.391 84.1348 424.406 84.1348C426.088 84.1348 427.143 83.209 427.283 81.791H425.689C425.561 82.4355 425.104 82.7812 424.406 82.7812C423.492 82.7812 422.971 82.0605 422.971 80.7598C422.971 79.4766 423.486 78.7676 424.406 78.7676C425.133 78.7676 425.572 79.1777 425.689 79.7988H427.283ZM428.619 84H430.324V80.3906C430.324 79.4824 430.963 78.9258 431.895 78.9258C432.17 78.9258 432.568 78.9727 432.703 79.0195V77.5195C432.557 77.4727 432.27 77.4434 432.035 77.4434C431.215 77.4434 430.547 77.9297 430.377 78.5742H430.271V77.5488H428.619V84ZM434.713 76.5586C435.24 76.5586 435.674 76.1367 435.674 75.6094C435.674 75.0762 435.24 74.6543 434.713 74.6543C434.186 74.6543 433.746 75.0762 433.746 75.6094C433.746 76.1367 434.186 76.5586 434.713 76.5586ZM433.857 84H435.562V77.5488H433.857V84ZM441.023 77.4434C440.133 77.4434 439.4 77.8828 439.049 78.6094H438.943V77.5488H437.291V86.1387H438.996V83.0156H439.102C439.418 83.6953 440.127 84.0996 441.053 84.0996C442.67 84.0996 443.66 82.8457 443.66 80.7715C443.66 78.6914 442.658 77.4434 441.023 77.4434ZM440.443 82.7227C439.541 82.7227 438.979 81.9844 438.979 80.7773C438.979 79.5703 439.541 78.8262 440.449 78.8262C441.357 78.8262 441.908 79.5586 441.908 80.7715C441.908 81.9902 441.363 82.7227 440.443 82.7227ZM445.535 76.0078V77.6074H444.527V78.9023H445.535V82.2598C445.535 83.5137 446.156 84.0234 447.727 84.0234C448.055 84.0234 448.371 83.9883 448.582 83.9473V82.6875C448.418 82.7051 448.301 82.7168 448.078 82.7168C447.498 82.7168 447.24 82.4473 447.24 81.8672V78.9023H448.582V77.6074H447.24V76.0078H445.535ZM450.873 76.5586C451.4 76.5586 451.834 76.1367 451.834 75.6094C451.834 75.0762 451.4 74.6543 450.873 74.6543C450.346 74.6543 449.906 75.0762 449.906 75.6094C449.906 76.1367 450.346 76.5586 450.873 76.5586ZM450.018 84H451.723V77.5488H450.018V84ZM456.316 84.1348C458.303 84.1348 459.498 82.8809 459.498 80.7715C459.498 78.6797 458.285 77.4082 456.316 77.4082C454.348 77.4082 453.135 78.6855 453.135 80.7715C453.135 82.875 454.33 84.1348 456.316 84.1348ZM456.316 82.7871C455.402 82.7871 454.887 82.0488 454.887 80.7715C454.887 79.5059 455.408 78.7617 456.316 78.7617C457.219 78.7617 457.746 79.5059 457.746 80.7715C457.746 82.0488 457.225 82.7871 456.316 82.7871ZM460.893 84H462.598V80.2676C462.598 79.3945 463.084 78.832 463.875 78.832C464.684 78.832 465.064 79.3066 465.064 80.2148V84H466.77V79.8281C466.77 78.2871 465.996 77.4082 464.561 77.4082C463.605 77.4082 462.949 77.8594 462.65 78.5859H462.545V77.5488H460.893V84Z" fill="#3C4257"/>
<rect x="368.5" y="48.5" width="121" height="63" rx="7.5" stroke="#E3E8EE"/>
<path d="M369 280C369 275.582 372.582 272 377 272H488C492.418 272 496 275.582 496 280V328C496 332.418 492.418 336 488 336H377C372.582 336 369 332.418 369 328V280Z" fill="white"/>
<rect x="364" y="267" width="137" height="74" rx="13" stroke="white" stroke-width="10"/>
<path d="M389.152 299.545V308H390.922V305.334H392.592C394.373 305.334 395.609 304.174 395.609 302.451C395.609 300.705 394.42 299.545 392.68 299.545H389.152ZM390.922 300.951H392.211C393.23 300.951 393.811 301.473 393.811 302.457C393.811 303.418 393.219 303.945 392.205 303.945H390.922V300.951ZM398.604 308.1C399.441 308.1 400.145 307.742 400.479 307.145H400.584V308H402.236V303.594C402.236 302.217 401.27 301.408 399.559 301.408C397.936 301.408 396.84 302.152 396.729 303.336H398.299C398.439 302.932 398.85 302.715 399.465 302.715C400.168 302.715 400.555 303.037 400.555 303.594V304.127L398.99 304.221C397.385 304.314 396.488 304.994 396.488 306.16C396.488 307.338 397.361 308.1 398.604 308.1ZM399.166 306.852C398.574 306.852 398.158 306.553 398.158 306.055C398.158 305.58 398.516 305.305 399.248 305.258L400.555 305.17V305.65C400.555 306.33 399.957 306.852 399.166 306.852ZM404.539 310.344C406.15 310.344 406.941 309.77 407.492 308.123L409.719 301.549H407.914L406.555 306.471H406.449L405.09 301.549H403.209L405.477 308.035L405.418 308.281C405.277 308.803 404.914 309.014 404.275 309.014C404.205 309.014 403.947 309.008 403.889 308.996V310.326C403.959 310.338 404.475 310.344 404.539 310.344ZM410.908 308H412.613V304.109C412.613 303.371 413.088 302.832 413.756 302.832C414.424 302.832 414.822 303.23 414.822 303.922V308H416.463V304.033C416.463 303.336 416.908 302.832 417.6 302.832C418.32 302.832 418.678 303.219 418.678 303.998V308H420.383V303.57C420.383 302.24 419.58 301.408 418.291 301.408C417.389 301.408 416.645 301.883 416.346 302.598H416.24C415.982 301.859 415.361 301.408 414.453 301.408C413.604 301.408 412.93 301.859 412.666 302.598H412.561V301.549H410.908V308ZM426.219 306.178C426.037 306.617 425.574 306.863 424.9 306.863C424.01 306.863 423.447 306.248 423.424 305.264V305.176H427.859V304.666C427.859 302.627 426.734 301.408 424.83 301.408C422.908 301.408 421.725 302.709 421.725 304.807C421.725 306.893 422.885 308.135 424.854 308.135C426.436 308.135 427.555 307.379 427.807 306.178H426.219ZM424.836 302.68C425.633 302.68 426.148 303.23 426.184 304.115H423.43C423.488 303.248 424.045 302.68 424.836 302.68ZM429.26 308H430.965V304.268C430.965 303.395 431.451 302.832 432.242 302.832C433.051 302.832 433.432 303.307 433.432 304.215V308H435.137V303.828C435.137 302.287 434.363 301.408 432.928 301.408C431.973 301.408 431.316 301.859 431.018 302.586H430.912V301.549H429.26V308ZM437.281 300.008V301.607H436.273V302.902H437.281V306.26C437.281 307.514 437.902 308.023 439.473 308.023C439.801 308.023 440.117 307.988 440.328 307.947V306.688C440.164 306.705 440.047 306.717 439.824 306.717C439.244 306.717 438.986 306.447 438.986 305.867V302.902H440.328V301.607H438.986V300.008H437.281ZM443.691 308V299.545H441.922V308H443.691ZM445.572 308H447.277V304.268C447.277 303.395 447.764 302.832 448.555 302.832C449.363 302.832 449.744 303.307 449.744 304.215V308H451.449V303.828C451.449 302.287 450.676 301.408 449.24 301.408C448.285 301.408 447.629 301.859 447.33 302.586H447.225V301.549H445.572V308ZM453.594 300.008V301.607H452.586V302.902H453.594V306.26C453.594 307.514 454.215 308.023 455.785 308.023C456.113 308.023 456.43 307.988 456.641 307.947V306.688C456.477 306.705 456.359 306.717 456.137 306.717C455.557 306.717 455.299 306.447 455.299 305.867V302.902H456.641V301.607H455.299V300.008H453.594ZM462.195 306.178C462.014 306.617 461.551 306.863 460.877 306.863C459.986 306.863 459.424 306.248 459.4 305.264V305.176H463.836V304.666C463.836 302.627 462.711 301.408 460.807 301.408C458.885 301.408 457.701 302.709 457.701 304.807C457.701 306.893 458.861 308.135 460.83 308.135C462.412 308.135 463.531 307.379 463.783 306.178H462.195ZM460.812 302.68C461.609 302.68 462.125 303.23 462.16 304.115H459.406C459.465 303.248 460.021 302.68 460.812 302.68ZM465.236 308H466.941V304.268C466.941 303.395 467.428 302.832 468.219 302.832C469.027 302.832 469.408 303.307 469.408 304.215V308H471.113V303.828C471.113 302.287 470.34 301.408 468.904 301.408C467.949 301.408 467.293 301.859 466.994 302.586H466.889V301.549H465.236V308ZM473.258 300.008V301.607H472.25V302.902H473.258V306.26C473.258 307.514 473.879 308.023 475.449 308.023C475.777 308.023 476.094 307.988 476.305 307.947V306.688C476.141 306.705 476.023 306.717 475.801 306.717C475.221 306.717 474.963 306.447 474.963 305.867V302.902H476.305V301.607H474.963V300.008H473.258Z" fill="#3C4257"/>
<rect x="369.5" y="272.5" width="126" height="63" rx="7.5" stroke="#E3E8EE"/>
<path d="M48 56C48 51.5817 51.5817 48 56 48H184C188.418 48 192 51.5817 192 56V112C192 116.418 188.418 120 184 120H56C51.5817 120 48 116.418 48 112V56Z" fill="white"/>
<path d="M97.002 63.5449V72H98.7715V69.334H100.441C102.223 69.334 103.459 68.1738 103.459 66.4512C103.459 64.7051 102.27 63.5449 100.529 63.5449H97.002ZM98.7715 64.9512H100.061C101.08 64.9512 101.66 65.4727 101.66 66.457C101.66 67.418 101.068 67.9453 100.055 67.9453H98.7715V64.9512ZM104.918 72H106.623V68.3906C106.623 67.4824 107.262 66.9258 108.193 66.9258C108.469 66.9258 108.867 66.9727 109.002 67.0195V65.5195C108.855 65.4727 108.568 65.4434 108.334 65.4434C107.514 65.4434 106.846 65.9297 106.676 66.5742H106.57V65.5488H104.918V72ZM112.857 72.1348C114.844 72.1348 116.039 70.8809 116.039 68.7715C116.039 66.6797 114.826 65.4082 112.857 65.4082C110.889 65.4082 109.676 66.6855 109.676 68.7715C109.676 70.875 110.871 72.1348 112.857 72.1348ZM112.857 70.7871C111.943 70.7871 111.428 70.0488 111.428 68.7715C111.428 67.5059 111.949 66.7617 112.857 66.7617C113.76 66.7617 114.287 67.5059 114.287 68.7715C114.287 70.0488 113.766 70.7871 112.857 70.7871ZM119.748 72.0996C120.645 72.0996 121.377 71.6836 121.723 70.9863H121.828V72H123.48V63.082H121.775V66.5801H121.676C121.342 65.8652 120.621 65.4434 119.748 65.4434C118.125 65.4434 117.117 66.7148 117.117 68.7656C117.117 70.8223 118.119 72.0996 119.748 72.0996ZM120.328 66.8262C121.236 66.8262 121.793 67.5703 121.793 68.7773C121.793 69.9844 121.242 70.7227 120.328 70.7227C119.414 70.7227 118.869 69.9902 118.869 68.7715C118.869 67.5586 119.42 66.8262 120.328 66.8262ZM131.098 65.5488H129.393V69.2754C129.393 70.1602 128.936 70.7051 128.086 70.7051C127.301 70.7051 126.896 70.2422 126.896 69.3281V65.5488H125.191V69.75C125.191 71.25 126.059 72.1348 127.453 72.1348C128.432 72.1348 129.035 71.7129 129.34 70.9629H129.445V72H131.098V65.5488ZM138.527 67.7988C138.387 66.3574 137.361 65.4082 135.65 65.4082C133.629 65.4082 132.492 66.6328 132.492 68.7598C132.492 70.9102 133.635 72.1348 135.65 72.1348C137.332 72.1348 138.387 71.209 138.527 69.791H136.934C136.805 70.4355 136.348 70.7812 135.65 70.7812C134.736 70.7812 134.215 70.0605 134.215 68.7598C134.215 67.4766 134.73 66.7676 135.65 66.7676C136.377 66.7676 136.816 67.1777 136.934 67.7988H138.527ZM140.408 64.0078V65.6074H139.4V66.9023H140.408V70.2598C140.408 71.5137 141.029 72.0234 142.6 72.0234C142.928 72.0234 143.244 71.9883 143.455 71.9473V70.6875C143.291 70.7051 143.174 70.7168 142.951 70.7168C142.371 70.7168 142.113 70.4473 142.113 69.8672V66.9023H143.455V65.6074H142.113V64.0078H140.408ZM86.3789 88C88.1777 88 89.2441 87.1152 89.2441 85.627C89.2441 84.5078 88.5117 83.7168 87.3574 83.5703V83.4766C88.1719 83.3301 88.8164 82.5332 88.8164 81.6543C88.8164 80.3594 87.8672 79.5449 86.3145 79.5449H83.0801V88H86.3789ZM84.1348 80.4766H86.0918C87.1406 80.4766 87.75 80.9746 87.75 81.8359C87.75 82.7324 87.0996 83.1895 85.8223 83.1895H84.1348V80.4766ZM84.1348 87.0684V84.0977H86.1211C87.4688 84.0977 88.1602 84.5957 88.1602 85.5742C88.1602 86.5527 87.4922 87.0684 86.2207 87.0684H84.1348ZM91.3652 80.4648C91.752 80.4648 92.0684 80.1484 92.0684 79.7617C92.0684 79.375 91.752 79.0586 91.3652 79.0586C90.9785 79.0586 90.6621 79.375 90.6621 79.7617C90.6621 80.1484 90.9785 80.4648 91.3652 80.4648ZM90.8613 88H91.8691V81.6836H90.8613V88ZM93.8496 88H94.8574V79.1758H93.8496V88ZM96.873 88H97.8809V79.1758H96.873V88ZM100.365 80.4648C100.752 80.4648 101.068 80.1484 101.068 79.7617C101.068 79.375 100.752 79.0586 100.365 79.0586C99.9785 79.0586 99.6621 79.375 99.6621 79.7617C99.6621 80.1484 99.9785 80.4648 100.365 80.4648ZM99.8613 88H100.869V81.6836H99.8613V88ZM102.791 88H103.799V84.2617C103.799 83.1543 104.449 82.4805 105.457 82.4805C106.465 82.4805 106.945 83.0195 106.945 84.1562V88H107.953V83.9102C107.953 82.4102 107.162 81.5723 105.744 81.5723C104.777 81.5723 104.162 81.9824 103.846 82.6797H103.752V81.6836H102.791V88ZM112.4 90.4258C114.123 90.4258 115.213 89.5234 115.213 88.1113V81.6836H114.252V82.6855H114.158C113.795 82.0059 113.016 81.5723 112.131 81.5723C110.508 81.5723 109.482 82.8555 109.482 84.748C109.482 86.6406 110.496 87.9062 112.131 87.9062C112.998 87.9062 113.713 87.5137 114.111 86.8164H114.205V88.0586C114.205 88.9902 113.531 89.5469 112.4 89.5469C111.492 89.5469 110.93 89.2129 110.818 88.6973H109.752C109.904 89.7402 110.877 90.4258 112.4 90.4258ZM112.354 87.0156C111.182 87.0156 110.525 86.125 110.525 84.748C110.525 83.3711 111.182 82.4805 112.354 82.4805C113.52 82.4805 114.229 83.3711 114.229 84.748C114.229 86.125 113.525 87.0156 112.354 87.0156ZM123.1 90.4258C124.822 90.4258 125.912 89.5234 125.912 88.1113V81.6836H124.951V82.6855H124.857C124.494 82.0059 123.715 81.5723 122.83 81.5723C121.207 81.5723 120.182 82.8555 120.182 84.748C120.182 86.6406 121.195 87.9062 122.83 87.9062C123.697 87.9062 124.412 87.5137 124.811 86.8164H124.904V88.0586C124.904 88.9902 124.23 89.5469 123.1 89.5469C122.191 89.5469 121.629 89.2129 121.518 88.6973H120.451C120.604 89.7402 121.576 90.4258 123.1 90.4258ZM123.053 87.0156C121.881 87.0156 121.225 86.125 121.225 84.748C121.225 83.3711 121.881 82.4805 123.053 82.4805C124.219 82.4805 124.928 83.3711 124.928 84.748C124.928 86.125 124.225 87.0156 123.053 87.0156ZM132.92 81.6836H131.912V85.4219C131.912 86.5293 131.303 87.1914 130.189 87.1914C129.182 87.1914 128.76 86.6641 128.76 85.5273V81.6836H127.752V85.7734C127.752 87.2676 128.49 88.1113 129.908 88.1113C130.875 88.1113 131.549 87.7129 131.865 87.0098H131.959V88H132.92V81.6836ZM135.346 80.4648C135.732 80.4648 136.049 80.1484 136.049 79.7617C136.049 79.375 135.732 79.0586 135.346 79.0586C134.959 79.0586 134.643 79.375 134.643 79.7617C134.643 80.1484 134.959 80.4648 135.346 80.4648ZM134.842 88H135.85V81.6836H134.842V88ZM140.109 88.1113C140.982 88.1113 141.732 87.6953 142.131 86.9922H142.225V88H143.186V79.1758H142.178V82.6797H142.09C141.732 81.9883 140.988 81.5723 140.109 81.5723C138.504 81.5723 137.455 82.8613 137.455 84.8418C137.455 86.8281 138.492 88.1113 140.109 88.1113ZM140.344 82.4805C141.486 82.4805 142.201 83.3945 142.201 84.8418C142.201 86.3008 141.492 87.2031 140.344 87.2031C139.189 87.2031 138.498 86.3184 138.498 84.8418C138.498 83.3711 139.195 82.4805 140.344 82.4805ZM149.326 86.3652C149.062 86.9219 148.512 87.2207 147.697 87.2207C146.625 87.2207 145.928 86.4297 145.875 85.1816V85.1348H150.416V84.748C150.416 82.7852 149.379 81.5723 147.674 81.5723C145.939 81.5723 144.826 82.8613 144.826 84.8477C144.826 86.8457 145.922 88.1113 147.674 88.1113C149.057 88.1113 150.041 87.4434 150.334 86.3652H149.326ZM147.662 82.4629C148.664 82.4629 149.332 83.2012 149.355 84.3203H145.875C145.951 83.2012 146.654 82.4629 147.662 82.4629ZM152.83 83.5234C153.252 83.5234 153.592 83.1777 153.592 82.7617C153.592 82.3398 153.252 82 152.83 82C152.414 82 152.068 82.3398 152.068 82.7617C152.068 83.1777 152.414 83.5234 152.83 83.5234ZM152.83 88.0586C153.252 88.0586 153.592 87.7129 153.592 87.2969C153.592 86.875 153.252 86.5352 152.83 86.5352C152.414 86.5352 152.068 86.875 152.068 87.2969C152.068 87.7129 152.414 88.0586 152.83 88.0586ZM73.4707 95.5449V104H74.5254V100.982H76.6523C78.2402 100.982 79.3711 99.8633 79.3711 98.2812C79.3711 96.6699 78.2637 95.5449 76.6641 95.5449H73.4707ZM74.5254 96.4824H76.3887C77.6133 96.4824 78.2871 97.1211 78.2871 98.2812C78.2871 99.4004 77.5898 100.045 76.3887 100.045H74.5254V96.4824ZM80.9707 104H81.9785V100.086C81.9785 99.1953 82.6758 98.5508 83.6367 98.5508C83.8359 98.5508 84.1992 98.5859 84.2812 98.6094V97.6016C84.1523 97.584 83.9414 97.5723 83.7773 97.5723C82.9395 97.5723 82.2129 98.0059 82.0254 98.6211H81.9316V97.6836H80.9707V104ZM89.5488 102.365C89.2852 102.922 88.7344 103.221 87.9199 103.221C86.8477 103.221 86.1504 102.43 86.0977 101.182V101.135H90.6387V100.748C90.6387 98.7852 89.6016 97.5723 87.8965 97.5723C86.1621 97.5723 85.0488 98.8613 85.0488 100.848C85.0488 102.846 86.1445 104.111 87.8965 104.111C89.2793 104.111 90.2637 103.443 90.5566 102.365H89.5488ZM87.8848 98.4629C88.8867 98.4629 89.5547 99.2012 89.5781 100.32H86.0977C86.1738 99.2012 86.877 98.4629 87.8848 98.4629ZM92.2207 104H93.2285V100.086C93.2285 99.1953 93.8672 98.4805 94.6934 98.4805C95.4902 98.4805 96.0117 98.9609 96.0117 99.7109V104H97.0195V99.9395C97.0195 99.1367 97.6055 98.4805 98.4844 98.4805C99.375 98.4805 99.8145 98.9375 99.8145 99.8691V104H100.822V99.6348C100.822 98.3105 100.102 97.5723 98.8125 97.5723C97.9395 97.5723 97.2188 98.0117 96.8789 98.6797H96.7852C96.4922 98.0234 95.8945 97.5723 95.0391 97.5723C94.1953 97.5723 93.5625 97.9766 93.2754 98.6797H93.1816V97.6836H92.2207V104ZM103.189 96.4648C103.576 96.4648 103.893 96.1484 103.893 95.7617C103.893 95.375 103.576 95.0586 103.189 95.0586C102.803 95.0586 102.486 95.375 102.486 95.7617C102.486 96.1484 102.803 96.4648 103.189 96.4648ZM102.686 104H103.693V97.6836H102.686V104ZM110.725 97.6836H109.717V101.422C109.717 102.529 109.107 103.191 107.994 103.191C106.986 103.191 106.564 102.664 106.564 101.527V97.6836H105.557V101.773C105.557 103.268 106.295 104.111 107.713 104.111C108.68 104.111 109.354 103.713 109.67 103.01H109.764V104H110.725V97.6836ZM112.623 104H113.631V100.086C113.631 99.1953 114.27 98.4805 115.096 98.4805C115.893 98.4805 116.414 98.9609 116.414 99.7109V104H117.422V99.9395C117.422 99.1367 118.008 98.4805 118.887 98.4805C119.777 98.4805 120.217 98.9375 120.217 99.8691V104H121.225V99.6348C121.225 98.3105 120.504 97.5723 119.215 97.5723C118.342 97.5723 117.621 98.0117 117.281 98.6797H117.188C116.895 98.0234 116.297 97.5723 115.441 97.5723C114.598 97.5723 113.965 97.9766 113.678 98.6797H113.584V97.6836H112.623V104ZM126.176 101.791C126.287 103.25 127.523 104.199 129.316 104.199C131.25 104.199 132.475 103.209 132.475 101.656C132.475 100.414 131.771 99.7344 130.02 99.2949L129.135 99.0605C127.969 98.7617 127.506 98.3809 127.506 97.7188C127.506 96.8633 128.25 96.3008 129.375 96.3008C130.43 96.3008 131.145 96.8164 131.291 97.6836H132.352C132.264 96.3184 131.045 95.3457 129.41 95.3457C127.623 95.3457 126.422 96.3184 126.422 97.7539C126.422 98.9551 127.084 99.6465 128.613 100.033L129.697 100.314C130.863 100.607 131.391 101.064 131.391 101.785C131.391 102.623 130.553 103.238 129.416 103.238C128.215 103.238 127.371 102.676 127.242 101.791H126.176ZM138.287 102.365C138.023 102.922 137.473 103.221 136.658 103.221C135.586 103.221 134.889 102.43 134.836 101.182V101.135H139.377V100.748C139.377 98.7852 138.34 97.5723 136.635 97.5723C134.9 97.5723 133.787 98.8613 133.787 100.848C133.787 102.846 134.883 104.111 136.635 104.111C138.018 104.111 139.002 103.443 139.295 102.365H138.287ZM136.623 98.4629C137.625 98.4629 138.293 99.2012 138.316 100.32H134.836C134.912 99.2012 135.615 98.4629 136.623 98.4629ZM140.959 104H141.967V100.086C141.967 99.1953 142.664 98.5508 143.625 98.5508C143.824 98.5508 144.188 98.5859 144.27 98.6094V97.6016C144.141 97.584 143.93 97.5723 143.766 97.5723C142.928 97.5723 142.201 98.0059 142.014 98.6211H141.92V97.6836H140.959V104ZM150.686 97.6836H149.607L147.879 102.887H147.785L146.057 97.6836H144.979L147.316 104H148.348L150.686 97.6836ZM152.561 96.4648C152.947 96.4648 153.264 96.1484 153.264 95.7617C153.264 95.375 152.947 95.0586 152.561 95.0586C152.174 95.0586 151.857 95.375 151.857 95.7617C151.857 96.1484 152.174 96.4648 152.561 96.4648ZM152.057 104H153.064V97.6836H152.057V104ZM160.213 99.6172C160.037 98.4922 159.1 97.5723 157.564 97.5723C155.795 97.5723 154.67 98.8496 154.67 100.818C154.67 102.828 155.801 104.111 157.57 104.111C159.088 104.111 160.031 103.256 160.213 102.096H159.193C159.006 102.811 158.414 103.203 157.564 103.203C156.439 103.203 155.713 102.277 155.713 100.818C155.713 99.3887 156.428 98.4805 157.564 98.4805C158.473 98.4805 159.029 98.9902 159.193 99.6172H160.213ZM165.885 102.365C165.621 102.922 165.07 103.221 164.256 103.221C163.184 103.221 162.486 102.43 162.434 101.182V101.135H166.975V100.748C166.975 98.7852 165.938 97.5723 164.232 97.5723C162.498 97.5723 161.385 98.8613 161.385 100.848C161.385 102.846 162.48 104.111 164.232 104.111C165.615 104.111 166.6 103.443 166.893 102.365H165.885ZM164.221 98.4629C165.223 98.4629 165.891 99.2012 165.914 100.32H162.434C162.51 99.2012 163.213 98.4629 164.221 98.4629Z" fill="#3C4257"/>
<rect x="48.5" y="48.5" width="143" height="71" rx="7.5" stroke="#E3E8EE"/>
<path d="M48 144C48 139.582 51.5817 136 56 136H184C188.418 136 192 139.582 192 144V200C192 204.418 188.418 208 184 208H56C51.5817 208 48 204.418 48 200V144Z" fill="white"/>
<path d="M97.002 151.545V160H98.7715V157.334H100.441C102.223 157.334 103.459 156.174 103.459 154.451C103.459 152.705 102.27 151.545 100.529 151.545H97.002ZM98.7715 152.951H100.061C101.08 152.951 101.66 153.473 101.66 154.457C101.66 155.418 101.068 155.945 100.055 155.945H98.7715V152.951ZM104.918 160H106.623V156.391C106.623 155.482 107.262 154.926 108.193 154.926C108.469 154.926 108.867 154.973 109.002 155.02V153.52C108.855 153.473 108.568 153.443 108.334 153.443C107.514 153.443 106.846 153.93 106.676 154.574H106.57V153.549H104.918V160ZM112.857 160.135C114.844 160.135 116.039 158.881 116.039 156.771C116.039 154.68 114.826 153.408 112.857 153.408C110.889 153.408 109.676 154.686 109.676 156.771C109.676 158.875 110.871 160.135 112.857 160.135ZM112.857 158.787C111.943 158.787 111.428 158.049 111.428 156.771C111.428 155.506 111.949 154.762 112.857 154.762C113.76 154.762 114.287 155.506 114.287 156.771C114.287 158.049 113.766 158.787 112.857 158.787ZM119.748 160.1C120.645 160.1 121.377 159.684 121.723 158.986H121.828V160H123.48V151.082H121.775V154.58H121.676C121.342 153.865 120.621 153.443 119.748 153.443C118.125 153.443 117.117 154.715 117.117 156.766C117.117 158.822 118.119 160.1 119.748 160.1ZM120.328 154.826C121.236 154.826 121.793 155.57 121.793 156.777C121.793 157.984 121.242 158.723 120.328 158.723C119.414 158.723 118.869 157.99 118.869 156.771C118.869 155.559 119.42 154.826 120.328 154.826ZM131.098 153.549H129.393V157.275C129.393 158.16 128.936 158.705 128.086 158.705C127.301 158.705 126.896 158.242 126.896 157.328V153.549H125.191V157.75C125.191 159.25 126.059 160.135 127.453 160.135C128.432 160.135 129.035 159.713 129.34 158.963H129.445V160H131.098V153.549ZM138.527 155.799C138.387 154.357 137.361 153.408 135.65 153.408C133.629 153.408 132.492 154.633 132.492 156.76C132.492 158.91 133.635 160.135 135.65 160.135C137.332 160.135 138.387 159.209 138.527 157.791H136.934C136.805 158.436 136.348 158.781 135.65 158.781C134.736 158.781 134.215 158.061 134.215 156.76C134.215 155.477 134.73 154.768 135.65 154.768C136.377 154.768 136.816 155.178 136.934 155.799H138.527ZM140.408 152.008V153.607H139.4V154.902H140.408V158.26C140.408 159.514 141.029 160.023 142.6 160.023C142.928 160.023 143.244 159.988 143.455 159.947V158.688C143.291 158.705 143.174 158.717 142.951 158.717C142.371 158.717 142.113 158.447 142.113 157.867V154.902H143.455V153.607H142.113V152.008H140.408ZM86.3789 176C88.1777 176 89.2441 175.115 89.2441 173.627C89.2441 172.508 88.5117 171.717 87.3574 171.57V171.477C88.1719 171.33 88.8164 170.533 88.8164 169.654C88.8164 168.359 87.8672 167.545 86.3145 167.545H83.0801V176H86.3789ZM84.1348 168.477H86.0918C87.1406 168.477 87.75 168.975 87.75 169.836C87.75 170.732 87.0996 171.189 85.8223 171.189H84.1348V168.477ZM84.1348 175.068V172.098H86.1211C87.4688 172.098 88.1602 172.596 88.1602 173.574C88.1602 174.553 87.4922 175.068 86.2207 175.068H84.1348ZM91.3652 168.465C91.752 168.465 92.0684 168.148 92.0684 167.762C92.0684 167.375 91.752 167.059 91.3652 167.059C90.9785 167.059 90.6621 167.375 90.6621 167.762C90.6621 168.148 90.9785 168.465 91.3652 168.465ZM90.8613 176H91.8691V169.684H90.8613V176ZM93.8496 176H94.8574V167.176H93.8496V176ZM96.873 176H97.8809V167.176H96.873V176ZM100.365 168.465C100.752 168.465 101.068 168.148 101.068 167.762C101.068 167.375 100.752 167.059 100.365 167.059C99.9785 167.059 99.6621 167.375 99.6621 167.762C99.6621 168.148 99.9785 168.465 100.365 168.465ZM99.8613 176H100.869V169.684H99.8613V176ZM102.791 176H103.799V172.262C103.799 171.154 104.449 170.48 105.457 170.48C106.465 170.48 106.945 171.02 106.945 172.156V176H107.953V171.91C107.953 170.41 107.162 169.572 105.744 169.572C104.777 169.572 104.162 169.982 103.846 170.68H103.752V169.684H102.791V176ZM112.4 178.426C114.123 178.426 115.213 177.523 115.213 176.111V169.684H114.252V170.686H114.158C113.795 170.006 113.016 169.572 112.131 169.572C110.508 169.572 109.482 170.855 109.482 172.748C109.482 174.641 110.496 175.906 112.131 175.906C112.998 175.906 113.713 175.514 114.111 174.816H114.205V176.059C114.205 176.99 113.531 177.547 112.4 177.547C111.492 177.547 110.93 177.213 110.818 176.697H109.752C109.904 177.74 110.877 178.426 112.4 178.426ZM112.354 175.016C111.182 175.016 110.525 174.125 110.525 172.748C110.525 171.371 111.182 170.48 112.354 170.48C113.52 170.48 114.229 171.371 114.229 172.748C114.229 174.125 113.525 175.016 112.354 175.016ZM123.1 178.426C124.822 178.426 125.912 177.523 125.912 176.111V169.684H124.951V170.686H124.857C124.494 170.006 123.715 169.572 122.83 169.572C121.207 169.572 120.182 170.855 120.182 172.748C120.182 174.641 121.195 175.906 122.83 175.906C123.697 175.906 124.412 175.514 124.811 174.816H124.904V176.059C124.904 176.99 124.23 177.547 123.1 177.547C122.191 177.547 121.629 177.213 121.518 176.697H120.451C120.604 177.74 121.576 178.426 123.1 178.426ZM123.053 175.016C121.881 175.016 121.225 174.125 121.225 172.748C121.225 171.371 121.881 170.48 123.053 170.48C124.219 170.48 124.928 171.371 124.928 172.748C124.928 174.125 124.225 175.016 123.053 175.016ZM132.92 169.684H131.912V173.422C131.912 174.529 131.303 175.191 130.189 175.191C129.182 175.191 128.76 174.664 128.76 173.527V169.684H127.752V173.773C127.752 175.268 128.49 176.111 129.908 176.111C130.875 176.111 131.549 175.713 131.865 175.01H131.959V176H132.92V169.684ZM135.346 168.465C135.732 168.465 136.049 168.148 136.049 167.762C136.049 167.375 135.732 167.059 135.346 167.059C134.959 167.059 134.643 167.375 134.643 167.762C134.643 168.148 134.959 168.465 135.346 168.465ZM134.842 176H135.85V169.684H134.842V176ZM140.109 176.111C140.982 176.111 141.732 175.695 142.131 174.992H142.225V176H143.186V167.176H142.178V170.68H142.09C141.732 169.988 140.988 169.572 140.109 169.572C138.504 169.572 137.455 170.861 137.455 172.842C137.455 174.828 138.492 176.111 140.109 176.111ZM140.344 170.48C141.486 170.48 142.201 171.395 142.201 172.842C142.201 174.301 141.492 175.203 140.344 175.203C139.189 175.203 138.498 174.318 138.498 172.842C138.498 171.371 139.195 170.48 140.344 170.48ZM149.326 174.365C149.062 174.922 148.512 175.221 147.697 175.221C146.625 175.221 145.928 174.43 145.875 173.182V173.135H150.416V172.748C150.416 170.785 149.379 169.572 147.674 169.572C145.939 169.572 144.826 170.861 144.826 172.848C144.826 174.846 145.922 176.111 147.674 176.111C149.057 176.111 150.041 175.443 150.334 174.365H149.326ZM147.662 170.463C148.664 170.463 149.332 171.201 149.355 172.32H145.875C145.951 171.201 146.654 170.463 147.662 170.463ZM152.83 171.523C153.252 171.523 153.592 171.178 153.592 170.762C153.592 170.34 153.252 170 152.83 170C152.414 170 152.068 170.34 152.068 170.762C152.068 171.178 152.414 171.523 152.83 171.523ZM152.83 176.059C153.252 176.059 153.592 175.713 153.592 175.297C153.592 174.875 153.252 174.535 152.83 174.535C152.414 174.535 152.068 174.875 152.068 175.297C152.068 175.713 152.414 176.059 152.83 176.059ZM86.4023 192C88.2012 192 89.2676 191.115 89.2676 189.627C89.2676 188.508 88.5352 187.717 87.3809 187.57V187.477C88.1953 187.33 88.8398 186.533 88.8398 185.654C88.8398 184.359 87.8906 183.545 86.3379 183.545H83.1035V192H86.4023ZM84.1582 184.477H86.1152C87.1641 184.477 87.7734 184.975 87.7734 185.836C87.7734 186.732 87.123 187.189 85.8457 187.189H84.1582V184.477ZM84.1582 191.068V188.098H86.1445C87.4922 188.098 88.1836 188.596 88.1836 189.574C88.1836 190.553 87.5156 191.068 86.2441 191.068H84.1582ZM92.6191 192.111C93.4629 192.111 94.1543 191.742 94.5645 191.068H94.6582V192H95.6191V187.676C95.6191 186.363 94.7578 185.572 93.2168 185.572C91.8691 185.572 90.873 186.24 90.7383 187.254H91.7578C91.8984 186.756 92.4258 186.469 93.1816 186.469C94.125 186.469 94.6113 186.896 94.6113 187.676V188.25L92.7891 188.361C91.3184 188.449 90.4863 189.1 90.4863 190.23C90.4863 191.385 91.3945 192.111 92.6191 192.111ZM92.8066 191.227C92.0742 191.227 91.5293 190.852 91.5293 190.207C91.5293 189.574 91.9512 189.24 92.9121 189.176L94.6113 189.064V189.645C94.6113 190.547 93.8438 191.227 92.8066 191.227ZM97.3359 187.412C97.3359 188.326 97.875 188.836 99.0586 189.123L100.143 189.387C100.816 189.551 101.145 189.844 101.145 190.277C101.145 190.857 100.535 191.262 99.6855 191.262C98.877 191.262 98.373 190.922 98.2031 190.389H97.166C97.2773 191.438 98.2441 192.111 99.6504 192.111C101.086 192.111 102.182 191.332 102.182 190.201C102.182 189.293 101.607 188.777 100.418 188.49L99.4453 188.256C98.7012 188.074 98.3496 187.805 98.3496 187.371C98.3496 186.809 98.9355 186.428 99.6855 186.428C100.447 186.428 100.939 186.762 101.074 187.266H102.07C101.936 186.229 101.016 185.572 99.6914 185.572C98.3496 185.572 97.3359 186.363 97.3359 187.412ZM104.291 184.465C104.678 184.465 104.994 184.148 104.994 183.762C104.994 183.375 104.678 183.059 104.291 183.059C103.904 183.059 103.588 183.375 103.588 183.762C103.588 184.148 103.904 184.465 104.291 184.465ZM103.787 192H104.795V185.684H103.787V192ZM111.943 187.617C111.768 186.492 110.83 185.572 109.295 185.572C107.525 185.572 106.4 186.85 106.4 188.818C106.4 190.828 107.531 192.111 109.301 192.111C110.818 192.111 111.762 191.256 111.943 190.096H110.924C110.736 190.811 110.145 191.203 109.295 191.203C108.17 191.203 107.443 190.277 107.443 188.818C107.443 187.389 108.158 186.48 109.295 186.48C110.203 186.48 110.76 186.99 110.924 187.617H111.943ZM116.543 189.791C116.654 191.25 117.891 192.199 119.684 192.199C121.617 192.199 122.842 191.209 122.842 189.656C122.842 188.414 122.139 187.734 120.387 187.295L119.502 187.061C118.336 186.762 117.873 186.381 117.873 185.719C117.873 184.863 118.617 184.301 119.742 184.301C120.797 184.301 121.512 184.816 121.658 185.684H122.719C122.631 184.318 121.412 183.346 119.777 183.346C117.99 183.346 116.789 184.318 116.789 185.754C116.789 186.955 117.451 187.646 118.98 188.033L120.064 188.314C121.23 188.607 121.758 189.064 121.758 189.785C121.758 190.623 120.92 191.238 119.783 191.238C118.582 191.238 117.738 190.676 117.609 189.791H116.543ZM128.654 190.365C128.391 190.922 127.84 191.221 127.025 191.221C125.953 191.221 125.256 190.43 125.203 189.182V189.135H129.744V188.748C129.744 186.785 128.707 185.572 127.002 185.572C125.268 185.572 124.154 186.861 124.154 188.848C124.154 190.846 125.25 192.111 127.002 192.111C128.385 192.111 129.369 191.443 129.662 190.365H128.654ZM126.99 186.463C127.992 186.463 128.66 187.201 128.684 188.32H125.203C125.279 187.201 125.982 186.463 126.99 186.463ZM131.326 192H132.334V188.086C132.334 187.195 133.031 186.551 133.992 186.551C134.191 186.551 134.555 186.586 134.637 186.609V185.602C134.508 185.584 134.297 185.572 134.133 185.572C133.295 185.572 132.568 186.006 132.381 186.621H132.287V185.684H131.326V192ZM141.053 185.684H139.975L138.246 190.887H138.152L136.424 185.684H135.346L137.684 192H138.715L141.053 185.684ZM142.928 184.465C143.314 184.465 143.631 184.148 143.631 183.762C143.631 183.375 143.314 183.059 142.928 183.059C142.541 183.059 142.225 183.375 142.225 183.762C142.225 184.148 142.541 184.465 142.928 184.465ZM142.424 192H143.432V185.684H142.424V192ZM150.58 187.617C150.404 186.492 149.467 185.572 147.932 185.572C146.162 185.572 145.037 186.85 145.037 188.818C145.037 190.828 146.168 192.111 147.938 192.111C149.455 192.111 150.398 191.256 150.58 190.096H149.561C149.373 190.811 148.781 191.203 147.932 191.203C146.807 191.203 146.08 190.277 146.08 188.818C146.08 187.389 146.795 186.48 147.932 186.48C148.84 186.48 149.396 186.99 149.561 187.617H150.58ZM156.252 190.365C155.988 190.922 155.438 191.221 154.623 191.221C153.551 191.221 152.854 190.43 152.801 189.182V189.135H157.342V188.748C157.342 186.785 156.305 185.572 154.6 185.572C152.865 185.572 151.752 186.861 151.752 188.848C151.752 190.846 152.848 192.111 154.6 192.111C155.982 192.111 156.967 191.443 157.26 190.365H156.252ZM154.588 186.463C155.59 186.463 156.258 187.201 156.281 188.32H152.801C152.877 187.201 153.58 186.463 154.588 186.463Z" fill="#3C4257"/>
<rect x="48.5" y="136.5" width="143" height="71" rx="7.5" stroke="#E3E8EE"/>
<path d="M224 56C224 51.5817 227.582 48 232 48H296C300.418 48 304 51.5817 304 56V112C304 116.418 300.418 120 296 120H232C227.582 120 224 116.418 224 112V56Z" fill="white"/>
<path d="M249.51 79.5449V88H251.279V85.334H252.949C254.73 85.334 255.967 84.1738 255.967 82.4512C255.967 80.7051 254.777 79.5449 253.037 79.5449H249.51ZM251.279 80.9512H252.568C253.588 80.9512 254.168 81.4727 254.168 82.457C254.168 83.418 253.576 83.9453 252.562 83.9453H251.279V80.9512ZM257.426 88H259.131V84.3906C259.131 83.4824 259.77 82.9258 260.701 82.9258C260.977 82.9258 261.375 82.9727 261.51 83.0195V81.5195C261.363 81.4727 261.076 81.4434 260.842 81.4434C260.021 81.4434 259.354 81.9297 259.184 82.5742H259.078V81.5488H257.426V88ZM263.52 80.5586C264.047 80.5586 264.48 80.1367 264.48 79.6094C264.48 79.0762 264.047 78.6543 263.52 78.6543C262.992 78.6543 262.553 79.0762 262.553 79.6094C262.553 80.1367 262.992 80.5586 263.52 80.5586ZM262.664 88H264.369V81.5488H262.664V88ZM271.816 83.7988C271.676 82.3574 270.65 81.4082 268.939 81.4082C266.918 81.4082 265.781 82.6328 265.781 84.7598C265.781 86.9102 266.924 88.1348 268.939 88.1348C270.621 88.1348 271.676 87.209 271.816 85.791H270.223C270.094 86.4355 269.637 86.7812 268.939 86.7812C268.025 86.7812 267.504 86.0605 267.504 84.7598C267.504 83.4766 268.02 82.7676 268.939 82.7676C269.666 82.7676 270.105 83.1777 270.223 83.7988H271.816ZM277.33 86.1777C277.148 86.6172 276.686 86.8633 276.012 86.8633C275.121 86.8633 274.559 86.248 274.535 85.2637V85.1758H278.971V84.666C278.971 82.627 277.846 81.4082 275.941 81.4082C274.02 81.4082 272.836 82.709 272.836 84.8066C272.836 86.8926 273.996 88.1348 275.965 88.1348C277.547 88.1348 278.666 87.3789 278.918 86.1777H277.33ZM275.947 82.6797C276.744 82.6797 277.26 83.2305 277.295 84.1152H274.541C274.6 83.248 275.156 82.6797 275.947 82.6797Z" fill="#3C4257"/>
<rect x="224.5" y="48.5" width="79" height="71" rx="7.5" stroke="#E3E8EE"/>
<path d="M224 144C224 139.582 227.582 136 232 136H296C300.418 136 304 139.582 304 144V200C304 204.418 300.418 208 296 208H232C227.582 208 224 204.418 224 200V144Z" fill="white"/>
<path d="M249.51 167.545V176H251.279V173.334H252.949C254.73 173.334 255.967 172.174 255.967 170.451C255.967 168.705 254.777 167.545 253.037 167.545H249.51ZM251.279 168.951H252.568C253.588 168.951 254.168 169.473 254.168 170.457C254.168 171.418 253.576 171.945 252.562 171.945H251.279V168.951ZM257.426 176H259.131V172.391C259.131 171.482 259.77 170.926 260.701 170.926C260.977 170.926 261.375 170.973 261.51 171.02V169.52C261.363 169.473 261.076 169.443 260.842 169.443C260.021 169.443 259.354 169.93 259.184 170.574H259.078V169.549H257.426V176ZM263.52 168.559C264.047 168.559 264.48 168.137 264.48 167.609C264.48 167.076 264.047 166.654 263.52 166.654C262.992 166.654 262.553 167.076 262.553 167.609C262.553 168.137 262.992 168.559 263.52 168.559ZM262.664 176H264.369V169.549H262.664V176ZM271.816 171.799C271.676 170.357 270.65 169.408 268.939 169.408C266.918 169.408 265.781 170.633 265.781 172.76C265.781 174.91 266.924 176.135 268.939 176.135C270.621 176.135 271.676 175.209 271.816 173.791H270.223C270.094 174.436 269.637 174.781 268.939 174.781C268.025 174.781 267.504 174.061 267.504 172.76C267.504 171.477 268.02 170.768 268.939 170.768C269.666 170.768 270.105 171.178 270.223 171.799H271.816ZM277.33 174.178C277.148 174.617 276.686 174.863 276.012 174.863C275.121 174.863 274.559 174.248 274.535 173.264V173.176H278.971V172.666C278.971 170.627 277.846 169.408 275.941 169.408C274.02 169.408 272.836 170.709 272.836 172.807C272.836 174.893 273.996 176.135 275.965 176.135C277.547 176.135 278.666 175.379 278.918 174.178H277.33ZM275.947 170.68C276.744 170.68 277.26 171.23 277.295 172.115H274.541C274.6 171.248 275.156 170.68 275.947 170.68Z" fill="#3C4257"/>
<rect x="224.5" y="136.5" width="79" height="71" rx="7.5" stroke="#E3E8EE"/>
<path d="M328.5 172.75C328.086 172.75 327.75 172.414 327.75 172C327.75 171.586 328.086 171.25 328.5 171.25V172.75ZM360.03 79.4697C360.323 79.7626 360.323 80.2374 360.03 80.5303L355.257 85.3033C354.964 85.5962 354.49 85.5962 354.197 85.3033C353.904 85.0104 353.904 84.5355 354.197 84.2426L358.439 80L354.197 75.7574C353.904 75.4645 353.904 74.9896 354.197 74.6967C354.49 74.4038 354.964 74.4038 355.257 74.6967L360.03 79.4697ZM348 79.25L359.5 79.25V80.75L348 80.75V79.25ZM328.5 171.25H340V172.75H328.5V171.25ZM343.25 168V84H344.75V168H343.25ZM340 171.25C341.795 171.25 343.25 169.795 343.25 168H344.75C344.75 170.623 342.623 172.75 340 172.75V171.25ZM348 80.75C346.205 80.75 344.75 82.2051 344.75 84H343.25C343.25 81.3766 345.377 79.25 348 79.25V80.75Z" fill="#8792A2"/>
<path d="M200.5 83.25C200.086 83.25 199.75 83.5858 199.75 84C199.75 84.4142 200.086 84.75 200.5 84.75V83.25ZM216.03 84.5303C216.323 84.2374 216.323 83.7626 216.03 83.4697L211.257 78.6967C210.964 78.4038 210.49 78.4038 210.197 78.6967C209.904 78.9896 209.904 79.4645 210.197 79.7574L214.439 84L210.197 88.2426C209.904 88.5355 209.904 89.0104 210.197 89.3033C210.49 89.5962 210.964 89.5962 211.257 89.3033L216.03 84.5303ZM200.5 84.75H215.5V83.25H200.5V84.75Z" fill="#8792A2"/>
<path d="M328.5 79.25C328.086 79.25 327.75 79.5858 327.75 80C327.75 80.4142 328.086 80.75 328.5 80.75V79.25ZM360.03 80.5303C360.323 80.2374 360.323 79.7626 360.03 79.4697L355.257 74.6967C354.964 74.4038 354.49 74.4038 354.197 74.6967C353.904 74.9896 353.904 75.4645 354.197 75.7574L358.439 80L354.197 84.2426C353.904 84.5355 353.904 85.0104 354.197 85.3033C354.49 85.5962 354.964 85.5962 355.257 85.3033L360.03 80.5303ZM328.5 80.75L359.5 80.75V79.25L328.5 79.25V80.75Z" fill="#8792A2"/>
<path d="M200.5 171.25C200.086 171.25 199.75 171.586 199.75 172C199.75 172.414 200.086 172.75 200.5 172.75V171.25ZM216.03 172.53C216.323 172.237 216.323 171.763 216.03 171.47L211.257 166.697C210.964 166.404 210.49 166.404 210.197 166.697C209.904 166.99 209.904 167.464 210.197 167.757L214.439 172L210.197 176.243C209.904 176.536 209.904 177.01 210.197 177.303C210.49 177.596 210.964 177.596 211.257 177.303L216.03 172.53ZM200.5 172.75H215.5V171.25H200.5V172.75Z" fill="#8792A2"/>
<path d="M505.5 79.25C505.086 79.25 504.75 79.5858 504.75 80C504.75 80.4142 505.086 80.75 505.5 80.75V79.25ZM521.03 80.5303C521.323 80.2374 521.323 79.7626 521.03 79.4697L516.257 74.6967C515.964 74.4038 515.49 74.4038 515.197 74.6967C514.904 74.9896 514.904 75.4645 515.197 75.7574L519.439 80L515.197 84.2426C514.904 84.5355 514.904 85.0104 515.197 85.3033C515.49 85.5962 515.964 85.5962 516.257 85.3033L521.03 80.5303ZM505.5 80.75H520.5V79.25H505.5V80.75Z" fill="#8792A2"/>
<path d="M432.75 128.5C432.75 128.086 432.414 127.75 432 127.75C431.586 127.75 431.25 128.086 431.25 128.5L432.75 128.5ZM431.47 152.03C431.763 152.323 432.237 152.323 432.53 152.03L437.303 147.257C437.596 146.964 437.596 146.49 437.303 146.197C437.01 145.904 436.536 145.904 436.243 146.197L432 150.439L427.757 146.197C427.464 145.904 426.99 145.904 426.697 146.197C426.404 146.49 426.404 146.964 426.697 147.257L431.47 152.03ZM431.25 128.5L431.25 151.5L432.75 151.5L432.75 128.5L431.25 128.5Z" fill="#8792A2"/>
<path d="M432.75 240.5C432.75 240.086 432.414 239.75 432 239.75C431.586 239.75 431.25 240.086 431.25 240.5L432.75 240.5ZM431.47 264.03C431.763 264.323 432.237 264.323 432.53 264.03L437.303 259.257C437.596 258.964 437.596 258.49 437.303 258.197C437.01 257.904 436.536 257.904 436.243 258.197L432 262.439L427.757 258.197C427.464 257.904 426.99 257.904 426.697 258.197C426.404 258.49 426.404 258.964 426.697 259.257L431.47 264.03ZM431.25 240.5L431.25 263.5L432.75 263.5L432.75 240.5L431.25 240.5Z" fill="#8792A2"/>
<rect x="540" y="84" width="152" height="24" rx="2" fill="#A3ACB9"/>
<path d="M575.158 91.9541V99H576.633V96.7783H578.024C579.509 96.7783 580.539 95.8115 580.539 94.376C580.539 92.9209 579.548 91.9541 578.098 91.9541H575.158ZM576.633 93.126H577.707C578.557 93.126 579.04 93.5605 579.04 94.3809C579.04 95.1816 578.547 95.6211 577.702 95.6211H576.633V93.126ZM583.034 99.083C583.732 99.083 584.318 98.7852 584.597 98.2871H584.685V99H586.062V95.3281C586.062 94.1807 585.256 93.5068 583.83 93.5068C582.478 93.5068 581.564 94.127 581.472 95.1133H582.78C582.897 94.7764 583.239 94.5957 583.752 94.5957C584.338 94.5957 584.66 94.8643 584.66 95.3281V95.7725L583.356 95.8506C582.019 95.9287 581.271 96.4951 581.271 97.4668C581.271 98.4482 581.999 99.083 583.034 99.083ZM583.503 98.043C583.01 98.043 582.663 97.7939 582.663 97.3789C582.663 96.9834 582.961 96.7539 583.571 96.7148L584.66 96.6416V97.042C584.66 97.6084 584.162 98.043 583.503 98.043ZM587.98 100.953C589.323 100.953 589.982 100.475 590.441 99.1025L592.297 93.624H590.793L589.66 97.7256H589.572L588.439 93.624H586.872L588.762 99.0293L588.713 99.2344C588.596 99.6689 588.293 99.8447 587.761 99.8447C587.702 99.8447 587.487 99.8398 587.438 99.8301V100.938C587.497 100.948 587.927 100.953 587.98 100.953ZM593.288 99H594.709V95.7578C594.709 95.1426 595.104 94.6934 595.661 94.6934C596.218 94.6934 596.55 95.0254 596.55 95.6016V99H597.917V95.6943C597.917 95.1133 598.288 94.6934 598.864 94.6934C599.465 94.6934 599.763 95.0156 599.763 95.665V99H601.184V95.3086C601.184 94.2002 600.515 93.5068 599.44 93.5068C598.688 93.5068 598.068 93.9023 597.819 94.498H597.731C597.517 93.8828 596.999 93.5068 596.242 93.5068C595.534 93.5068 594.973 93.8828 594.753 94.498H594.665V93.624H593.288V99ZM606.047 97.4814C605.896 97.8477 605.51 98.0527 604.948 98.0527C604.206 98.0527 603.737 97.54 603.718 96.7197V96.6465H607.414V96.2217C607.414 94.5225 606.477 93.5068 604.89 93.5068C603.288 93.5068 602.302 94.5908 602.302 96.3389C602.302 98.0771 603.269 99.1123 604.909 99.1123C606.228 99.1123 607.16 98.4824 607.37 97.4814H606.047ZM604.895 94.5664C605.559 94.5664 605.988 95.0254 606.018 95.7627H603.723C603.771 95.04 604.235 94.5664 604.895 94.5664ZM608.581 99H610.002V95.8896C610.002 95.1621 610.407 94.6934 611.066 94.6934C611.74 94.6934 612.058 95.0889 612.058 95.8457V99H613.479V95.5234C613.479 94.2393 612.834 93.5068 611.638 93.5068C610.842 93.5068 610.295 93.8828 610.046 94.4883H609.958V93.624H608.581V99ZM615.266 92.3398V93.6729H614.426V94.752H615.266V97.5498C615.266 98.5947 615.783 99.0195 617.092 99.0195C617.365 99.0195 617.629 98.9902 617.805 98.9561V97.9062C617.668 97.9209 617.57 97.9307 617.385 97.9307C616.901 97.9307 616.687 97.7061 616.687 97.2227V94.752H617.805V93.6729H616.687V92.3398H615.266ZM626.594 99V91.9541H624.86L622.907 96.8125H622.819L620.871 91.9541H619.133V99H620.5V94.2295H620.578L622.375 98.6533H623.356L625.148 94.2295H625.227V99H626.594ZM631.643 97.4814C631.491 97.8477 631.105 98.0527 630.544 98.0527C629.802 98.0527 629.333 97.54 629.313 96.7197V96.6465H633.01V96.2217C633.01 94.5225 632.072 93.5068 630.485 93.5068C628.884 93.5068 627.897 94.5908 627.897 96.3389C627.897 98.0771 628.864 99.1123 630.505 99.1123C631.823 99.1123 632.756 98.4824 632.966 97.4814H631.643ZM630.49 94.5664C631.154 94.5664 631.584 95.0254 631.613 95.7627H629.318C629.367 95.04 629.831 94.5664 630.49 94.5664ZM634.582 92.3398V93.6729H633.742V94.752H634.582V97.5498C634.582 98.5947 635.1 99.0195 636.408 99.0195C636.682 99.0195 636.945 98.9902 637.121 98.9561V97.9062C636.984 97.9209 636.887 97.9307 636.701 97.9307C636.218 97.9307 636.003 97.7061 636.003 97.2227V94.752H637.121V93.6729H636.003V92.3398H634.582ZM638.356 99H639.777V95.9043C639.777 95.1914 640.188 94.708 640.9 94.708C641.545 94.708 641.892 95.0986 641.892 95.8604V99H643.312V95.5381C643.312 94.249 642.624 93.5215 641.467 93.5215C640.676 93.5215 640.09 93.8926 639.841 94.5029H639.753V91.5684H638.356V99ZM647.082 99.1123C648.737 99.1123 649.733 98.0674 649.733 96.3096C649.733 94.5664 648.723 93.5068 647.082 93.5068C645.441 93.5068 644.431 94.5713 644.431 96.3096C644.431 98.0625 645.427 99.1123 647.082 99.1123ZM647.082 97.9893C646.32 97.9893 645.891 97.374 645.891 96.3096C645.891 95.2549 646.325 94.6348 647.082 94.6348C647.834 94.6348 648.273 95.2549 648.273 96.3096C648.273 97.374 647.839 97.9893 647.082 97.9893ZM652.824 99.083C653.571 99.083 654.182 98.7363 654.47 98.1553H654.558V99H655.935V91.5684H654.514V94.4834H654.431C654.152 93.8877 653.552 93.5361 652.824 93.5361C651.472 93.5361 650.632 94.5957 650.632 96.3047C650.632 98.0186 651.467 99.083 652.824 99.083ZM653.308 94.6885C654.064 94.6885 654.528 95.3086 654.528 96.3145C654.528 97.3203 654.069 97.9355 653.308 97.9355C652.546 97.9355 652.092 97.3252 652.092 96.3096C652.092 95.2988 652.551 94.6885 653.308 94.6885Z" fill="white"/>
<defs>
<clipPath id="clip0">
<path d="M0 0H736V368H0V0Z" fill="white"/>
</clipPath>
</defs>
</svg>
