<svg width="736" height="128" viewBox="0 0 736 128" fill="none" xmlns="http://www.w3.org/2000/svg">
<g clip-path="url(#clip0)">
<path d="M0 0H736V128H0V0Z" fill="white"/>
<path d="M0 0L736 -6.43432e-05" stroke="#E3E8EE" stroke-width="2" stroke-linecap="round" stroke-linejoin="round" stroke-dasharray="0.01 16"/>
<path d="M0 16L736 15.9999" stroke="#E3E8EE" stroke-width="2" stroke-linecap="round" stroke-linejoin="round" stroke-dasharray="0.01 16"/>
<path d="M0 32L736 31.9999" stroke="#E3E8EE" stroke-width="2" stroke-linecap="round" stroke-linejoin="round" stroke-dasharray="0.01 16"/>
<path d="M0 48L736 47.9999" stroke="#E3E8EE" stroke-width="2" stroke-linecap="round" stroke-linejoin="round" stroke-dasharray="0.01 16"/>
<path d="M0 64L736 63.9999" stroke="#E3E8EE" stroke-width="2" stroke-linecap="round" stroke-linejoin="round" stroke-dasharray="0.01 16"/>
<path d="M0 80L736 79.9999" stroke="#E3E8EE" stroke-width="2" stroke-linecap="round" stroke-linejoin="round" stroke-dasharray="0.01 16"/>
<path d="M0 96L736 95.9999" stroke="#E3E8EE" stroke-width="2" stroke-linecap="round" stroke-linejoin="round" stroke-dasharray="0.01 16"/>
<path d="M0 112L736 112" stroke="#E3E8EE" stroke-width="2" stroke-linecap="round" stroke-linejoin="round" stroke-dasharray="0.01 16"/>
<path d="M0 128L736 128" stroke="#E3E8EE" stroke-width="2" stroke-linecap="round" stroke-linejoin="round" stroke-dasharray="0.01 16"/>
<rect x="0.5" y="0.5" width="735" height="127" stroke="white"/>
</g>
<path d="M32 40C32 35.5817 35.5817 32 40 32H224C228.418 32 232 35.5817 232 40V88C232 92.4183 228.418 96 224 96H40C35.5817 96 32 92.4183 32 88V40Z" fill="white"/>
<rect x="27" y="27" width="210" height="74" rx="13" stroke="white" stroke-width="10"/>
<path d="M91.7344 60C93.5391 60 94.6582 59.0684 94.6582 57.5801C94.6582 56.4902 93.8438 55.6523 92.7246 55.5645V55.459C93.5918 55.3301 94.2539 54.5508 94.2539 53.6543C94.2539 52.3477 93.2754 51.5449 91.6348 51.5449H87.9375V60H91.7344ZM89.707 52.8574H91.1836C92.0273 52.8574 92.5137 53.2676 92.5137 53.959C92.5137 54.6621 91.9922 55.0605 91.0371 55.0605H89.707V52.8574ZM89.707 58.6816V56.2266H91.2422C92.2852 56.2266 92.8535 56.6484 92.8535 57.4395C92.8535 58.248 92.3027 58.6816 91.2832 58.6816H89.707ZM96.9551 52.5586C97.4824 52.5586 97.916 52.1367 97.916 51.6094C97.916 51.0762 97.4824 50.6543 96.9551 50.6543C96.4277 50.6543 95.9883 51.0762 95.9883 51.6094C95.9883 52.1367 96.4277 52.5586 96.9551 52.5586ZM96.0996 60H97.8047V53.5488H96.0996V60ZM99.5918 60H101.297V51.082H99.5918V60ZM103.131 60H104.836V51.082H103.131V60ZM107.479 52.5586C108.006 52.5586 108.439 52.1367 108.439 51.6094C108.439 51.0762 108.006 50.6543 107.479 50.6543C106.951 50.6543 106.512 51.0762 106.512 51.6094C106.512 52.1367 106.951 52.5586 107.479 52.5586ZM106.623 60H108.328V53.5488H106.623V60ZM110.057 60H111.762V56.2676C111.762 55.3945 112.248 54.832 113.039 54.832C113.848 54.832 114.229 55.3066 114.229 56.2148V60H115.934V55.8281C115.934 54.2871 115.16 53.4082 113.725 53.4082C112.77 53.4082 112.113 53.8594 111.814 54.5859H111.709V53.5488H110.057V60ZM120.439 62.4434C122.391 62.4434 123.627 61.4941 123.627 59.9883V53.5488H121.975V54.5801H121.869C121.523 53.877 120.779 53.4434 119.906 53.4434C118.266 53.4434 117.258 54.7207 117.258 56.7188C117.258 58.6523 118.26 59.9062 119.871 59.9062C120.779 59.9062 121.459 59.5371 121.816 58.8574H121.922V60.0586C121.922 60.8027 121.389 61.2363 120.475 61.2363C119.736 61.2363 119.256 60.9785 119.168 60.5684H117.48C117.586 61.6992 118.723 62.4434 120.439 62.4434ZM120.463 58.5996C119.537 58.5996 119.01 57.873 119.01 56.7129C119.01 55.5527 119.543 54.8262 120.463 54.8262C121.383 54.8262 121.939 55.5527 121.939 56.7129C121.939 57.873 121.389 58.5996 120.463 58.5996ZM128.285 55.4297C128.285 56.4199 128.895 57.0117 130.148 57.2871L131.32 57.5508C131.889 57.6797 132.135 57.8789 132.135 58.207C132.135 58.6348 131.678 58.9277 131.016 58.9277C130.336 58.9277 129.92 58.6641 129.791 58.2188H128.127C128.244 59.4375 129.275 60.1348 130.98 60.1348C132.674 60.1348 133.828 59.3027 133.828 58.0254C133.828 57.0645 133.266 56.5371 132.012 56.2617L130.799 55.998C130.201 55.8633 129.926 55.6582 129.926 55.3301C129.926 54.9082 130.377 54.6211 130.986 54.6211C131.619 54.6211 132.012 54.8848 132.1 55.3125H133.676C133.582 54.0938 132.615 53.4082 130.975 53.4082C129.363 53.4082 128.285 54.2227 128.285 55.4297ZM139.406 58.1777C139.225 58.6172 138.762 58.8633 138.088 58.8633C137.197 58.8633 136.635 58.248 136.611 57.2637V57.1758H141.047V56.666C141.047 54.627 139.922 53.4082 138.018 53.4082C136.096 53.4082 134.912 54.709 134.912 56.8066C134.912 58.8926 136.072 60.1348 138.041 60.1348C139.623 60.1348 140.742 59.3789 140.994 58.1777H139.406ZM138.023 54.6797C138.82 54.6797 139.336 55.2305 139.371 56.1152H136.617C136.676 55.248 137.232 54.6797 138.023 54.6797ZM142.934 52.0078V53.6074H141.926V54.9023H142.934V58.2598C142.934 59.5137 143.555 60.0234 145.125 60.0234C145.453 60.0234 145.77 59.9883 145.98 59.9473V58.6875C145.816 58.7051 145.699 58.7168 145.477 58.7168C144.896 58.7168 144.639 58.4473 144.639 57.8672V54.9023H145.98V53.6074H144.639V52.0078H142.934ZM147.949 52.0078V53.6074H146.941V54.9023H147.949V58.2598C147.949 59.5137 148.57 60.0234 150.141 60.0234C150.469 60.0234 150.785 59.9883 150.996 59.9473V58.6875C150.832 58.7051 150.715 58.7168 150.492 58.7168C149.912 58.7168 149.654 58.4473 149.654 57.8672V54.9023H150.996V53.6074H149.654V52.0078H147.949ZM153.287 52.5586C153.814 52.5586 154.248 52.1367 154.248 51.6094C154.248 51.0762 153.814 50.6543 153.287 50.6543C152.76 50.6543 152.32 51.0762 152.32 51.6094C152.32 52.1367 152.76 52.5586 153.287 52.5586ZM152.432 60H154.137V53.5488H152.432V60ZM155.865 60H157.57V56.2676C157.57 55.3945 158.057 54.832 158.848 54.832C159.656 54.832 160.037 55.3066 160.037 56.2148V60H161.742V55.8281C161.742 54.2871 160.969 53.4082 159.533 53.4082C158.578 53.4082 157.922 53.8594 157.623 54.5859H157.518V53.5488H155.865V60ZM166.248 62.4434C168.199 62.4434 169.436 61.4941 169.436 59.9883V53.5488H167.783V54.5801H167.678C167.332 53.877 166.588 53.4434 165.715 53.4434C164.074 53.4434 163.066 54.7207 163.066 56.7188C163.066 58.6523 164.068 59.9062 165.68 59.9062C166.588 59.9062 167.268 59.5371 167.625 58.8574H167.73V60.0586C167.73 60.8027 167.197 61.2363 166.283 61.2363C165.545 61.2363 165.064 60.9785 164.977 60.5684H163.289C163.395 61.6992 164.531 62.4434 166.248 62.4434ZM166.271 58.5996C165.346 58.5996 164.818 57.873 164.818 56.7129C164.818 55.5527 165.352 54.8262 166.271 54.8262C167.191 54.8262 167.748 55.5527 167.748 56.7129C167.748 57.873 167.197 58.5996 166.271 58.5996ZM171 55.4297C171 56.4199 171.609 57.0117 172.863 57.2871L174.035 57.5508C174.604 57.6797 174.85 57.8789 174.85 58.207C174.85 58.6348 174.393 58.9277 173.73 58.9277C173.051 58.9277 172.635 58.6641 172.506 58.2188H170.842C170.959 59.4375 171.99 60.1348 173.695 60.1348C175.389 60.1348 176.543 59.3027 176.543 58.0254C176.543 57.0645 175.98 56.5371 174.727 56.2617L173.514 55.998C172.916 55.8633 172.641 55.6582 172.641 55.3301C172.641 54.9082 173.092 54.6211 173.701 54.6211C174.334 54.6211 174.727 54.8848 174.814 55.3125H176.391C176.297 54.0938 175.33 53.4082 173.689 53.4082C172.078 53.4082 171 54.2227 171 55.4297ZM93.5918 67.5449V76H96.4922C99.0059 76 100.482 74.4355 100.482 71.7695C100.482 69.1094 99 67.5449 96.4922 67.5449H93.5918ZM94.6465 68.4941H96.4219C98.2969 68.4941 99.4043 69.7129 99.4043 71.7812C99.4043 73.8438 98.3086 75.0508 96.4219 75.0508H94.6465V68.4941ZM106.365 74.3652C106.102 74.9219 105.551 75.2207 104.736 75.2207C103.664 75.2207 102.967 74.4297 102.914 73.1816V73.1348H107.455V72.748C107.455 70.7852 106.418 69.5723 104.713 69.5723C102.979 69.5723 101.865 70.8613 101.865 72.8477C101.865 74.8457 102.961 76.1113 104.713 76.1113C106.096 76.1113 107.08 75.4434 107.373 74.3652H106.365ZM104.701 70.4629C105.703 70.4629 106.371 71.2012 106.395 72.3203H102.914C102.99 71.2012 103.693 70.4629 104.701 70.4629ZM109.459 76H110.467V70.5273H111.914V69.6836H110.467V69.0098C110.467 68.3184 110.771 67.9668 111.498 67.9668C111.68 67.9668 111.85 67.9727 111.973 67.9961V67.1758C111.762 67.1348 111.539 67.1172 111.293 67.1172C110.092 67.1172 109.459 67.7207 109.459 68.9805V69.6836H108.41V70.5273H109.459V76ZM114.967 76.1113C115.811 76.1113 116.502 75.7422 116.912 75.0684H117.006V76H117.967V71.6758C117.967 70.3633 117.105 69.5723 115.564 69.5723C114.217 69.5723 113.221 70.2402 113.086 71.2539H114.105C114.246 70.7559 114.773 70.4688 115.529 70.4688C116.473 70.4688 116.959 70.8965 116.959 71.6758V72.25L115.137 72.3613C113.666 72.4492 112.834 73.0996 112.834 74.2305C112.834 75.3848 113.742 76.1113 114.967 76.1113ZM115.154 75.2266C114.422 75.2266 113.877 74.8516 113.877 74.207C113.877 73.5742 114.299 73.2402 115.26 73.1758L116.959 73.0645V73.6445C116.959 74.5469 116.191 75.2266 115.154 75.2266ZM124.939 69.6836H123.932V73.4219C123.932 74.5293 123.322 75.1914 122.209 75.1914C121.201 75.1914 120.779 74.6641 120.779 73.5273V69.6836H119.771V73.7734C119.771 75.2676 120.51 76.1113 121.928 76.1113C122.895 76.1113 123.568 75.7129 123.885 75.0098H123.979V76H124.939V69.6836ZM126.896 76H127.904V67.1758H126.896V76ZM130.283 68.0488V69.6836H129.264V70.5273H130.283V74.3594C130.283 75.5664 130.805 76.0469 132.105 76.0469C132.305 76.0469 132.498 76.0234 132.697 75.9883V75.1387C132.51 75.1562 132.41 75.1621 132.229 75.1621C131.572 75.1621 131.291 74.8457 131.291 74.1016V70.5273H132.697V69.6836H131.291V68.0488H130.283ZM137.607 76H138.615V72.0859C138.615 71.1953 139.254 70.4805 140.08 70.4805C140.877 70.4805 141.398 70.9609 141.398 71.7109V76H142.406V71.9395C142.406 71.1367 142.992 70.4805 143.871 70.4805C144.762 70.4805 145.201 70.9375 145.201 71.8691V76H146.209V71.6348C146.209 70.3105 145.488 69.5723 144.199 69.5723C143.326 69.5723 142.605 70.0117 142.266 70.6797H142.172C141.879 70.0234 141.281 69.5723 140.426 69.5723C139.582 69.5723 138.949 69.9766 138.662 70.6797H138.568V69.6836H137.607V76ZM152.232 74.3652C151.969 74.9219 151.418 75.2207 150.604 75.2207C149.531 75.2207 148.834 74.4297 148.781 73.1816V73.1348H153.322V72.748C153.322 70.7852 152.285 69.5723 150.58 69.5723C148.846 69.5723 147.732 70.8613 147.732 72.8477C147.732 74.8457 148.828 76.1113 150.58 76.1113C151.963 76.1113 152.947 75.4434 153.24 74.3652H152.232ZM150.568 70.4629C151.57 70.4629 152.238 71.2012 152.262 72.3203H148.781C148.857 71.2012 149.561 70.4629 150.568 70.4629ZM154.904 76H155.912V72.0859C155.912 71.1953 156.551 70.4805 157.377 70.4805C158.174 70.4805 158.695 70.9609 158.695 71.7109V76H159.703V71.9395C159.703 71.1367 160.289 70.4805 161.168 70.4805C162.059 70.4805 162.498 70.9375 162.498 71.8691V76H163.506V71.6348C163.506 70.3105 162.785 69.5723 161.496 69.5723C160.623 69.5723 159.902 70.0117 159.562 70.6797H159.469C159.176 70.0234 158.578 69.5723 157.723 69.5723C156.879 69.5723 156.246 69.9766 155.959 70.6797H155.865V69.6836H154.904V76ZM167.941 76.1113C169.74 76.1113 170.854 74.8691 170.854 72.8418C170.854 70.8086 169.74 69.5723 167.941 69.5723C166.143 69.5723 165.029 70.8086 165.029 72.8418C165.029 74.8691 166.143 76.1113 167.941 76.1113ZM167.941 75.2031C166.746 75.2031 166.072 74.3359 166.072 72.8418C166.072 71.3418 166.746 70.4805 167.941 70.4805C169.137 70.4805 169.811 71.3418 169.811 72.8418C169.811 74.3359 169.137 75.2031 167.941 75.2031Z" fill="#3C4257"/>
<rect x="32.5" y="32.5" width="199" height="63" rx="7.5" stroke="#E3E8EE"/>
<path d="M264 40C264 35.5817 267.582 32 272 32H464C468.418 32 472 35.5817 472 40V88C472 92.4183 468.418 96 464 96H272C267.582 96 264 92.4183 264 88V40Z" fill="white"/>
<rect x="259" y="27" width="218" height="74" rx="13" stroke="white" stroke-width="10"/>
<path d="M330.072 57.6621C330.137 59.2266 331.443 60.2168 333.459 60.2168C335.58 60.2168 336.887 59.1738 336.887 57.4863C336.887 56.1797 336.154 55.4473 334.455 55.084L333.436 54.8672C332.445 54.6504 332.041 54.3398 332.041 53.8066C332.041 53.1445 332.627 52.7168 333.512 52.7168C334.367 52.7168 334.988 53.168 335.07 53.8594H336.734C336.682 52.3652 335.363 51.3281 333.5 51.3281C331.549 51.3281 330.266 52.3711 330.266 53.9473C330.266 55.2305 331.021 56.0215 332.562 56.3496L333.664 56.5898C334.701 56.8184 335.123 57.1406 335.123 57.6973C335.123 58.3535 334.473 58.8164 333.553 58.8164C332.557 58.8164 331.865 58.3652 331.783 57.6621H330.072ZM344.24 53.5488H342.535V57.2754C342.535 58.1602 342.078 58.7051 341.229 58.7051C340.443 58.7051 340.039 58.2422 340.039 57.3281V53.5488H338.334V57.75C338.334 59.25 339.201 60.1348 340.596 60.1348C341.574 60.1348 342.178 59.7129 342.482 58.9629H342.588V60H344.24V53.5488ZM349.76 60.0996C351.383 60.0996 352.379 58.8398 352.379 56.7715C352.379 54.6914 351.395 53.4434 349.76 53.4434C348.875 53.4434 348.148 53.8711 347.82 54.5801H347.715V51.082H346.01V60H347.662V58.9863H347.768C348.113 59.6895 348.846 60.0996 349.76 60.0996ZM349.168 54.8262C350.07 54.8262 350.627 55.5703 350.627 56.7715C350.627 57.9844 350.076 58.7227 349.168 58.7227C348.266 58.7227 347.703 57.9785 347.697 56.7773C347.703 55.5762 348.271 54.8262 349.168 54.8262ZM353.621 55.4297C353.621 56.4199 354.23 57.0117 355.484 57.2871L356.656 57.5508C357.225 57.6797 357.471 57.8789 357.471 58.207C357.471 58.6348 357.014 58.9277 356.352 58.9277C355.672 58.9277 355.256 58.6641 355.127 58.2188H353.463C353.58 59.4375 354.611 60.1348 356.316 60.1348C358.01 60.1348 359.164 59.3027 359.164 58.0254C359.164 57.0645 358.602 56.5371 357.348 56.2617L356.135 55.998C355.537 55.8633 355.262 55.6582 355.262 55.3301C355.262 54.9082 355.713 54.6211 356.322 54.6211C356.955 54.6211 357.348 54.8848 357.436 55.3125H359.012C358.918 54.0938 357.951 53.4082 356.311 53.4082C354.699 53.4082 353.621 54.2227 353.621 55.4297ZM366.283 55.7988C366.143 54.3574 365.117 53.4082 363.406 53.4082C361.385 53.4082 360.248 54.6328 360.248 56.7598C360.248 58.9102 361.391 60.1348 363.406 60.1348C365.088 60.1348 366.143 59.209 366.283 57.791H364.689C364.561 58.4355 364.104 58.7812 363.406 58.7812C362.492 58.7812 361.971 58.0605 361.971 56.7598C361.971 55.4766 362.486 54.7676 363.406 54.7676C364.133 54.7676 364.572 55.1777 364.689 55.7988H366.283ZM367.619 60H369.324V56.3906C369.324 55.4824 369.963 54.9258 370.895 54.9258C371.17 54.9258 371.568 54.9727 371.703 55.0195V53.5195C371.557 53.4727 371.27 53.4434 371.035 53.4434C370.215 53.4434 369.547 53.9297 369.377 54.5742H369.271V53.5488H367.619V60ZM373.713 52.5586C374.24 52.5586 374.674 52.1367 374.674 51.6094C374.674 51.0762 374.24 50.6543 373.713 50.6543C373.186 50.6543 372.746 51.0762 372.746 51.6094C372.746 52.1367 373.186 52.5586 373.713 52.5586ZM372.857 60H374.562V53.5488H372.857V60ZM380.023 53.4434C379.133 53.4434 378.4 53.8828 378.049 54.6094H377.943V53.5488H376.291V62.1387H377.996V59.0156H378.102C378.418 59.6953 379.127 60.0996 380.053 60.0996C381.67 60.0996 382.66 58.8457 382.66 56.7715C382.66 54.6914 381.658 53.4434 380.023 53.4434ZM379.443 58.7227C378.541 58.7227 377.979 57.9844 377.979 56.7773C377.979 55.5703 378.541 54.8262 379.449 54.8262C380.357 54.8262 380.908 55.5586 380.908 56.7715C380.908 57.9902 380.363 58.7227 379.443 58.7227ZM384.535 52.0078V53.6074H383.527V54.9023H384.535V58.2598C384.535 59.5137 385.156 60.0234 386.727 60.0234C387.055 60.0234 387.371 59.9883 387.582 59.9473V58.6875C387.418 58.7051 387.301 58.7168 387.078 58.7168C386.498 58.7168 386.24 58.4473 386.24 57.8672V54.9023H387.582V53.6074H386.24V52.0078H384.535ZM389.873 52.5586C390.4 52.5586 390.834 52.1367 390.834 51.6094C390.834 51.0762 390.4 50.6543 389.873 50.6543C389.346 50.6543 388.906 51.0762 388.906 51.6094C388.906 52.1367 389.346 52.5586 389.873 52.5586ZM389.018 60H390.723V53.5488H389.018V60ZM395.316 60.1348C397.303 60.1348 398.498 58.8809 398.498 56.7715C398.498 54.6797 397.285 53.4082 395.316 53.4082C393.348 53.4082 392.135 54.6855 392.135 56.7715C392.135 58.875 393.33 60.1348 395.316 60.1348ZM395.316 58.7871C394.402 58.7871 393.887 58.0488 393.887 56.7715C393.887 55.5059 394.408 54.7617 395.316 54.7617C396.219 54.7617 396.746 55.5059 396.746 56.7715C396.746 58.0488 396.225 58.7871 395.316 58.7871ZM399.893 60H401.598V56.2676C401.598 55.3945 402.084 54.832 402.875 54.832C403.684 54.832 404.064 55.3066 404.064 56.2148V60H405.77V55.8281C405.77 54.2871 404.996 53.4082 403.561 53.4082C402.605 53.4082 401.949 53.8594 401.65 54.5859H401.545V53.5488H399.893V60ZM335.07 76V67.5449H333.846L330.951 74.5996H330.857L327.963 67.5449H326.738V76H327.723V69.543H327.793L330.459 76H331.35L334.016 69.543H334.086V76H335.07ZM341.281 74.3652C341.018 74.9219 340.467 75.2207 339.652 75.2207C338.58 75.2207 337.883 74.4297 337.83 73.1816V73.1348H342.371V72.748C342.371 70.7852 341.334 69.5723 339.629 69.5723C337.895 69.5723 336.781 70.8613 336.781 72.8477C336.781 74.8457 337.877 76.1113 339.629 76.1113C341.012 76.1113 341.996 75.4434 342.289 74.3652H341.281ZM339.617 70.4629C340.619 70.4629 341.287 71.2012 341.311 72.3203H337.83C337.906 71.2012 338.609 70.4629 339.617 70.4629ZM343.953 76H344.961V72.0859C344.961 71.1953 345.6 70.4805 346.426 70.4805C347.223 70.4805 347.744 70.9609 347.744 71.7109V76H348.752V71.9395C348.752 71.1367 349.338 70.4805 350.217 70.4805C351.107 70.4805 351.547 70.9375 351.547 71.8691V76H352.555V71.6348C352.555 70.3105 351.834 69.5723 350.545 69.5723C349.672 69.5723 348.951 70.0117 348.611 70.6797H348.518C348.225 70.0234 347.627 69.5723 346.771 69.5723C345.928 69.5723 345.295 69.9766 345.008 70.6797H344.914V69.6836H343.953V76ZM356.99 76.1113C358.789 76.1113 359.902 74.8691 359.902 72.8418C359.902 70.8086 358.789 69.5723 356.99 69.5723C355.191 69.5723 354.078 70.8086 354.078 72.8418C354.078 74.8691 355.191 76.1113 356.99 76.1113ZM356.99 75.2031C355.795 75.2031 355.121 74.3359 355.121 72.8418C355.121 71.3418 355.795 70.4805 356.99 70.4805C358.186 70.4805 358.859 71.3418 358.859 72.8418C358.859 74.3359 358.186 75.2031 356.99 75.2031ZM367.467 76.1113C369.266 76.1113 370.379 74.8691 370.379 72.8418C370.379 70.8086 369.266 69.5723 367.467 69.5723C365.668 69.5723 364.555 70.8086 364.555 72.8418C364.555 74.8691 365.668 76.1113 367.467 76.1113ZM367.467 75.2031C366.271 75.2031 365.598 74.3359 365.598 72.8418C365.598 71.3418 366.271 70.4805 367.467 70.4805C368.662 70.4805 369.336 71.3418 369.336 72.8418C369.336 74.3359 368.662 75.2031 367.467 75.2031ZM376.883 69.6836H375.805L374.076 74.8867H373.982L372.254 69.6836H371.176L373.514 76H374.545L376.883 69.6836ZM382.18 74.3652C381.916 74.9219 381.365 75.2207 380.551 75.2207C379.479 75.2207 378.781 74.4297 378.729 73.1816V73.1348H383.27V72.748C383.27 70.7852 382.232 69.5723 380.527 69.5723C378.793 69.5723 377.68 70.8613 377.68 72.8477C377.68 74.8457 378.775 76.1113 380.527 76.1113C381.91 76.1113 382.895 75.4434 383.188 74.3652H382.18ZM380.516 70.4629C381.518 70.4629 382.186 71.2012 382.209 72.3203H378.729C378.805 71.2012 379.508 70.4629 380.516 70.4629ZM384.852 76H385.859V72.0859C385.859 71.1953 386.557 70.5508 387.518 70.5508C387.717 70.5508 388.08 70.5859 388.162 70.6094V69.6016C388.033 69.584 387.822 69.5723 387.658 69.5723C386.82 69.5723 386.094 70.0059 385.906 70.6211H385.812V69.6836H384.852V76ZM389.539 76H390.547V72.0859C390.547 71.1953 391.244 70.5508 392.205 70.5508C392.404 70.5508 392.768 70.5859 392.85 70.6094V69.6016C392.721 69.584 392.51 69.5723 392.346 69.5723C391.508 69.5723 390.781 70.0059 390.594 70.6211H390.5V69.6836H389.539V76ZM394.637 68.4648C395.023 68.4648 395.34 68.1484 395.34 67.7617C395.34 67.375 395.023 67.0586 394.637 67.0586C394.25 67.0586 393.934 67.375 393.934 67.7617C393.934 68.1484 394.25 68.4648 394.637 68.4648ZM394.133 76H395.141V69.6836H394.133V76ZM399.4 76.1113C400.273 76.1113 401.023 75.6953 401.422 74.9922H401.516V76H402.477V67.1758H401.469V70.6797H401.381C401.023 69.9883 400.279 69.5723 399.4 69.5723C397.795 69.5723 396.746 70.8613 396.746 72.8418C396.746 74.8281 397.783 76.1113 399.4 76.1113ZM399.635 70.4805C400.777 70.4805 401.492 71.3945 401.492 72.8418C401.492 74.3008 400.783 75.2031 399.635 75.2031C398.48 75.2031 397.789 74.3184 397.789 72.8418C397.789 71.3711 398.486 70.4805 399.635 70.4805ZM408.617 74.3652C408.354 74.9219 407.803 75.2207 406.988 75.2207C405.916 75.2207 405.219 74.4297 405.166 73.1816V73.1348H409.707V72.748C409.707 70.7852 408.67 69.5723 406.965 69.5723C405.23 69.5723 404.117 70.8613 404.117 72.8477C404.117 74.8457 405.213 76.1113 406.965 76.1113C408.348 76.1113 409.332 75.4434 409.625 74.3652H408.617ZM406.953 70.4629C407.955 70.4629 408.623 71.2012 408.646 72.3203H405.166C405.242 71.2012 405.945 70.4629 406.953 70.4629Z" fill="#3C4257"/>
<rect x="264.5" y="32.5" width="207" height="63" rx="7.5" stroke="#E3E8EE"/>
<path d="M504 40C504 35.5817 507.582 32 512 32H696C700.418 32 704 35.5817 704 40V88C704 92.4183 700.418 96 696 96H512C507.582 96 504 92.4183 504 88V40Z" fill="white"/>
<rect x="499" y="27" width="210" height="74" rx="13" stroke="white" stroke-width="10"/>
<path d="M585.262 60V51.5449H583.492V60H585.262ZM587.143 60H588.848V56.2676C588.848 55.3945 589.334 54.832 590.125 54.832C590.934 54.832 591.314 55.3066 591.314 56.2148V60H593.02V55.8281C593.02 54.2871 592.246 53.4082 590.811 53.4082C589.855 53.4082 589.199 53.8594 588.9 54.5859H588.795V53.5488H587.143V60ZM600.344 53.5488H598.545L597.221 58.4004H597.115L595.779 53.5488H593.945L596.189 60H598.111L600.344 53.5488ZM604.094 60.1348C606.08 60.1348 607.275 58.8809 607.275 56.7715C607.275 54.6797 606.062 53.4082 604.094 53.4082C602.125 53.4082 600.912 54.6855 600.912 56.7715C600.912 58.875 602.107 60.1348 604.094 60.1348ZM604.094 58.7871C603.18 58.7871 602.664 58.0488 602.664 56.7715C602.664 55.5059 603.186 54.7617 604.094 54.7617C604.996 54.7617 605.523 55.5059 605.523 56.7715C605.523 58.0488 605.002 58.7871 604.094 58.7871ZM609.537 52.5586C610.064 52.5586 610.498 52.1367 610.498 51.6094C610.498 51.0762 610.064 50.6543 609.537 50.6543C609.01 50.6543 608.57 51.0762 608.57 51.6094C608.57 52.1367 609.01 52.5586 609.537 52.5586ZM608.682 60H610.387V53.5488H608.682V60ZM617.834 55.7988C617.693 54.3574 616.668 53.4082 614.957 53.4082C612.936 53.4082 611.799 54.6328 611.799 56.7598C611.799 58.9102 612.941 60.1348 614.957 60.1348C616.639 60.1348 617.693 59.209 617.834 57.791H616.24C616.111 58.4355 615.654 58.7812 614.957 58.7812C614.043 58.7812 613.521 58.0605 613.521 56.7598C613.521 55.4766 614.037 54.7676 614.957 54.7676C615.684 54.7676 616.123 55.1777 616.24 55.7988H617.834ZM623.348 58.1777C623.166 58.6172 622.703 58.8633 622.029 58.8633C621.139 58.8633 620.576 58.248 620.553 57.2637V57.1758H624.988V56.666C624.988 54.627 623.863 53.4082 621.959 53.4082C620.037 53.4082 618.854 54.709 618.854 56.8066C618.854 58.8926 620.014 60.1348 621.982 60.1348C623.564 60.1348 624.684 59.3789 624.936 58.1777H623.348ZM621.965 54.6797C622.762 54.6797 623.277 55.2305 623.312 56.1152H620.559C620.617 55.248 621.174 54.6797 621.965 54.6797ZM571.07 76V67.5449H569.846L566.951 74.5996H566.857L563.963 67.5449H562.738V76H563.723V69.543H563.793L566.459 76H567.35L570.016 69.543H570.086V76H571.07ZM577.281 74.3652C577.018 74.9219 576.467 75.2207 575.652 75.2207C574.58 75.2207 573.883 74.4297 573.83 73.1816V73.1348H578.371V72.748C578.371 70.7852 577.334 69.5723 575.629 69.5723C573.895 69.5723 572.781 70.8613 572.781 72.8477C572.781 74.8457 573.877 76.1113 575.629 76.1113C577.012 76.1113 577.996 75.4434 578.289 74.3652H577.281ZM575.617 70.4629C576.619 70.4629 577.287 71.2012 577.311 72.3203H573.83C573.906 71.2012 574.609 70.4629 575.617 70.4629ZM579.953 76H580.961V72.0859C580.961 71.1953 581.6 70.4805 582.426 70.4805C583.223 70.4805 583.744 70.9609 583.744 71.7109V76H584.752V71.9395C584.752 71.1367 585.338 70.4805 586.217 70.4805C587.107 70.4805 587.547 70.9375 587.547 71.8691V76H588.555V71.6348C588.555 70.3105 587.834 69.5723 586.545 69.5723C585.672 69.5723 584.951 70.0117 584.611 70.6797H584.518C584.225 70.0234 583.627 69.5723 582.771 69.5723C581.928 69.5723 581.295 69.9766 581.008 70.6797H580.914V69.6836H579.953V76ZM592.99 76.1113C594.789 76.1113 595.902 74.8691 595.902 72.8418C595.902 70.8086 594.789 69.5723 592.99 69.5723C591.191 69.5723 590.078 70.8086 590.078 72.8418C590.078 74.8691 591.191 76.1113 592.99 76.1113ZM592.99 75.2031C591.795 75.2031 591.121 74.3359 591.121 72.8418C591.121 71.3418 591.795 70.4805 592.99 70.4805C594.186 70.4805 594.859 71.3418 594.859 72.8418C594.859 74.3359 594.186 75.2031 592.99 75.2031ZM603.467 76.1113C605.266 76.1113 606.379 74.8691 606.379 72.8418C606.379 70.8086 605.266 69.5723 603.467 69.5723C601.668 69.5723 600.555 70.8086 600.555 72.8418C600.555 74.8691 601.668 76.1113 603.467 76.1113ZM603.467 75.2031C602.271 75.2031 601.598 74.3359 601.598 72.8418C601.598 71.3418 602.271 70.4805 603.467 70.4805C604.662 70.4805 605.336 71.3418 605.336 72.8418C605.336 74.3359 604.662 75.2031 603.467 75.2031ZM612.883 69.6836H611.805L610.076 74.8867H609.982L608.254 69.6836H607.176L609.514 76H610.545L612.883 69.6836ZM618.18 74.3652C617.916 74.9219 617.365 75.2207 616.551 75.2207C615.479 75.2207 614.781 74.4297 614.729 73.1816V73.1348H619.27V72.748C619.27 70.7852 618.232 69.5723 616.527 69.5723C614.793 69.5723 613.68 70.8613 613.68 72.8477C613.68 74.8457 614.775 76.1113 616.527 76.1113C617.91 76.1113 618.895 75.4434 619.188 74.3652H618.18ZM616.516 70.4629C617.518 70.4629 618.186 71.2012 618.209 72.3203H614.729C614.805 71.2012 615.508 70.4629 616.516 70.4629ZM620.852 76H621.859V72.0859C621.859 71.1953 622.557 70.5508 623.518 70.5508C623.717 70.5508 624.08 70.5859 624.162 70.6094V69.6016C624.033 69.584 623.822 69.5723 623.658 69.5723C622.82 69.5723 622.094 70.0059 621.906 70.6211H621.812V69.6836H620.852V76ZM625.539 76H626.547V72.0859C626.547 71.1953 627.244 70.5508 628.205 70.5508C628.404 70.5508 628.768 70.5859 628.85 70.6094V69.6016C628.721 69.584 628.51 69.5723 628.346 69.5723C627.508 69.5723 626.781 70.0059 626.594 70.6211H626.5V69.6836H625.539V76ZM630.637 68.4648C631.023 68.4648 631.34 68.1484 631.34 67.7617C631.34 67.375 631.023 67.0586 630.637 67.0586C630.25 67.0586 629.934 67.375 629.934 67.7617C629.934 68.1484 630.25 68.4648 630.637 68.4648ZM630.133 76H631.141V69.6836H630.133V76ZM635.4 76.1113C636.273 76.1113 637.023 75.6953 637.422 74.9922H637.516V76H638.477V67.1758H637.469V70.6797H637.381C637.023 69.9883 636.279 69.5723 635.4 69.5723C633.795 69.5723 632.746 70.8613 632.746 72.8418C632.746 74.8281 633.783 76.1113 635.4 76.1113ZM635.635 70.4805C636.777 70.4805 637.492 71.3945 637.492 72.8418C637.492 74.3008 636.783 75.2031 635.635 75.2031C634.48 75.2031 633.789 74.3184 633.789 72.8418C633.789 71.3711 634.486 70.4805 635.635 70.4805ZM644.617 74.3652C644.354 74.9219 643.803 75.2207 642.988 75.2207C641.916 75.2207 641.219 74.4297 641.166 73.1816V73.1348H645.707V72.748C645.707 70.7852 644.67 69.5723 642.965 69.5723C641.23 69.5723 640.117 70.8613 640.117 72.8477C640.117 74.8457 641.213 76.1113 642.965 76.1113C644.348 76.1113 645.332 75.4434 645.625 74.3652H644.617ZM642.953 70.4629C643.955 70.4629 644.623 71.2012 644.646 72.3203H641.166C641.242 71.2012 641.945 70.4629 642.953 70.4629Z" fill="#3C4257"/>
<rect x="504.5" y="32.5" width="199" height="63" rx="7.5" stroke="#E3E8EE"/>
<path d="M240.5 63.25C240.086 63.25 239.75 63.5858 239.75 64C239.75 64.4142 240.086 64.75 240.5 64.75V63.25ZM256.03 64.5303C256.323 64.2374 256.323 63.7626 256.03 63.4697L251.257 58.6967C250.964 58.4038 250.49 58.4038 250.197 58.6967C249.904 58.9896 249.904 59.4645 250.197 59.7574L254.439 64L250.197 68.2426C249.904 68.5355 249.904 69.0104 250.197 69.3033C250.49 69.5962 250.964 69.5962 251.257 69.3033L256.03 64.5303ZM240.5 64.75H255.5V63.25L240.5 63.25V64.75Z" fill="#8792A2"/>
<path d="M480.5 63.25C480.086 63.25 479.75 63.5858 479.75 64C479.75 64.4142 480.086 64.75 480.5 64.75V63.25ZM496.03 64.5303C496.323 64.2374 496.323 63.7626 496.03 63.4697L491.257 58.6967C490.964 58.4038 490.49 58.4038 490.197 58.6967C489.904 58.9896 489.904 59.4645 490.197 59.7574L494.439 64L490.197 68.2426C489.904 68.5355 489.904 69.0104 490.197 69.3033C490.49 69.5962 490.964 69.5962 491.257 69.3033L496.03 64.5303ZM480.5 64.75H495.5V63.25L480.5 63.25V64.75Z" fill="#8792A2"/>
<defs>
<clipPath id="clip0">
<path d="M0 0H736V128H0V0Z" fill="white"/>
</clipPath>
</defs>
</svg>
