<svg height="700pt" preserveAspectRatio="xMidYMid meet" viewBox="0 0 700 700" width="700pt" xmlns="http://www.w3.org/2000/svg"><g transform="matrix(.1 0 0 -.1 0 700)"><path d="m2880 6974c-191-41-393-165-530-327-29-34-172-241-317-460l-263-398v-680-679h670 670l-2-887-3-888-182-3-183-2v720 720h-485-486l3-522c3-484 4-526 22-566 47-107 161-133 375-86 35 8 66 13 68 10 15-14 93-240 86-247-5-5-54-21-109-36-86-23-119-26-254-27-145-1-160 1-234 27-165 58-247 150-299 335-20 73-21 103-25 595l-3 517h-409-409l-233-325c-128-179-250-357-270-397-78-152-100-347-58-514 57-229 230-457 460-608 894-588 1374-919 2510-1731 322-230 612-431 645-446 112-53 214-72 350-66 318 13 564 183 810 558 422 643 818 1222 1282 1874l150 210-399 3-398 2v760 760h-307l-308-1-220-255c-121-140-220-260-219-267 1-6 150-222 331-478 182-257 339-478 348-493l17-26h-220-221l-321 445c-177 245-326 448-331 451s-9-182-9-445v-451h-175-175l-2 403c-5 667-4 1190 0 1605l5 392h173 174v-675c0-371 3-675 8-675 4 1 144 165 312 365l305 365h602 603v-720-720h338l337 1 190 266c295 412 320 466 320 698 0 135-2 144-36 243-53 150-115 247-239 373-58 58-134 126-170 150s-195 129-355 234c-558 367-1164 788-2187 1517-340 243-619 435-655 451-144 64-315 83-463 51zm141-1959c39-25 79-94 79-136 0-99-78-179-176-179-128 0-212 136-155 248 24 47 50 70 98 88 48 17 107 9 154-21zm2692-2c88-56 101-180 29-256-39-41-74-57-128-57-129 0-212 135-152 249 51 98 157 125 251 64z"/><path d="m1348 5178c-23-35-149-215-280-401s-238-340-238-343c0-2 128-4 285-4h285v405c0 223-2 405-5 405-2 0-23-28-47-62z"/></g></svg>