<svg xmlns="http://www.w3.org/2000/svg" width="32" height="32" viewBox="0 0 32 32">
  <g fill="none" fill-rule="evenodd">
    <circle cx="16" cy="16" r="16" fill="#ED5F74"/>
    <path fill="#FFF" d="M16.0006546,14.5851322 L20.5926225,9.99316429 C20.9835082,9.60227855 21.6172592,9.60227855 22.008145,9.99316429 C22.3990307,10.38405 22.3990307,11.017801 22.008145,11.4086867 L17.4168317,16 L22.008145,20.5913136 C22.3990307,20.9821993 22.3990307,21.6159503 22.008145,22.0068361 C21.6172592,22.3977218 20.9835082,22.3977218 20.5926225,22.0068361 L16.0006546,17.4148682 L11.4086867,22.0068361 C11.017801,22.3977218 10.38405,22.3977218 9.99316429,22.0068361 C9.60227855,21.6159503 9.60227855,20.9821993 9.99316429,20.5913136 L14.5844775,16 L9.99316429,11.4086867 C9.60227855,11.017801 9.60227855,10.38405 9.99316429,9.99316429 C10.38405,9.60227855 11.017801,9.60227855 11.4086867,9.99316429 L16.0006546,14.5851322 Z"/>
  </g>
</svg>
