<svg width="448" height="288" viewBox="0 0 448 288" fill="none" xmlns="http://www.w3.org/2000/svg">
<g clip-path="url(#clip0)">
<path d="M0 0H448V288H0V0Z" fill="white"/>
<path d="M0 0L448 -3.91654e-05" stroke="#E3E8EE" stroke-width="2" stroke-linecap="round" stroke-linejoin="round" stroke-dasharray="0.01 16"/>
<path d="M0 16L448 16" stroke="#E3E8EE" stroke-width="2" stroke-linecap="round" stroke-linejoin="round" stroke-dasharray="0.01 16"/>
<path d="M0 32L448 32" stroke="#E3E8EE" stroke-width="2" stroke-linecap="round" stroke-linejoin="round" stroke-dasharray="0.01 16"/>
<path d="M0 48L448 48" stroke="#E3E8EE" stroke-width="2" stroke-linecap="round" stroke-linejoin="round" stroke-dasharray="0.01 16"/>
<path d="M0 64L448 64" stroke="#E3E8EE" stroke-width="2" stroke-linecap="round" stroke-linejoin="round" stroke-dasharray="0.01 16"/>
<path d="M0 80L448 80" stroke="#E3E8EE" stroke-width="2" stroke-linecap="round" stroke-linejoin="round" stroke-dasharray="0.01 16"/>
<path d="M0 96L448 96" stroke="#E3E8EE" stroke-width="2" stroke-linecap="round" stroke-linejoin="round" stroke-dasharray="0.01 16"/>
<path d="M0 112L448 112" stroke="#E3E8EE" stroke-width="2" stroke-linecap="round" stroke-linejoin="round" stroke-dasharray="0.01 16"/>
<path d="M0 128L448 128" stroke="#E3E8EE" stroke-width="2" stroke-linecap="round" stroke-linejoin="round" stroke-dasharray="0.01 16"/>
<path d="M0 144L448 144" stroke="#E3E8EE" stroke-width="2" stroke-linecap="round" stroke-linejoin="round" stroke-dasharray="0.01 16"/>
<path d="M0 160L448 160" stroke="#E3E8EE" stroke-width="2" stroke-linecap="round" stroke-linejoin="round" stroke-dasharray="0.01 16"/>
<path d="M0 176L448 176" stroke="#E3E8EE" stroke-width="2" stroke-linecap="round" stroke-linejoin="round" stroke-dasharray="0.01 16"/>
<path d="M0 192L448 192" stroke="#E3E8EE" stroke-width="2" stroke-linecap="round" stroke-linejoin="round" stroke-dasharray="0.01 16"/>
<path d="M0 208L448 208" stroke="#E3E8EE" stroke-width="2" stroke-linecap="round" stroke-linejoin="round" stroke-dasharray="0.01 16"/>
<path d="M0 224L448 224" stroke="#E3E8EE" stroke-width="2" stroke-linecap="round" stroke-linejoin="round" stroke-dasharray="0.01 16"/>
<path d="M0 240L448 240" stroke="#E3E8EE" stroke-width="2" stroke-linecap="round" stroke-linejoin="round" stroke-dasharray="0.01 16"/>
<path d="M0 256L448 256" stroke="#E3E8EE" stroke-width="2" stroke-linecap="round" stroke-linejoin="round" stroke-dasharray="0.01 16"/>
<path d="M0 272L448 272" stroke="#E3E8EE" stroke-width="2" stroke-linecap="round" stroke-linejoin="round" stroke-dasharray="0.01 16"/>
<path d="M0 288L448 288" stroke="#E3E8EE" stroke-width="2" stroke-linecap="round" stroke-linejoin="round" stroke-dasharray="0.01 16"/>
<rect x="0.5" y="0.5" width="447" height="287" stroke="white"/>
</g>
<path d="M32 212C32 209.791 33.7909 208 36 208H412C414.209 208 416 209.791 416 212V252C416 254.209 414.209 256 412 256H36C33.7909 256 32 254.209 32 252V212Z" fill="#8792A2"/>
<rect x="30" y="206" width="388" height="52" rx="6" fill="#C1C9D2" stroke="white" stroke-width="4"/>
<path d="M154.273 238.289C156.992 238.289 158.977 236.641 159.172 234.234H156.875C156.648 235.477 155.633 236.273 154.281 236.273C152.5 236.273 151.398 234.773 151.398 232.359C151.398 229.945 152.5 228.445 154.273 228.445C155.617 228.445 156.641 229.305 156.867 230.609H159.164C158.992 228.188 156.945 226.438 154.273 226.438C151 226.438 148.984 228.695 148.984 232.359C148.984 236.023 151.008 238.289 154.273 238.289ZM164.938 238.18C167.586 238.18 169.18 236.508 169.18 233.695C169.18 230.906 167.562 229.211 164.938 229.211C162.312 229.211 160.695 230.914 160.695 233.695C160.695 236.5 162.289 238.18 164.938 238.18ZM164.938 236.383C163.719 236.383 163.031 235.398 163.031 233.695C163.031 232.008 163.727 231.016 164.938 231.016C166.141 231.016 166.844 232.008 166.844 233.695C166.844 235.398 166.148 236.383 164.938 236.383ZM171.039 238H173.312V233.023C173.312 231.859 173.961 231.109 175.016 231.109C176.094 231.109 176.602 231.742 176.602 232.953V238H178.875V232.438C178.875 230.383 177.844 229.211 175.93 229.211C174.656 229.211 173.781 229.812 173.383 230.781H173.242V229.398H171.039V238ZM181.734 227.344V229.477H180.391V231.203H181.734V235.68C181.734 237.352 182.562 238.031 184.656 238.031C185.094 238.031 185.516 237.984 185.797 237.93V236.25C185.578 236.273 185.422 236.289 185.125 236.289C184.352 236.289 184.008 235.93 184.008 235.156V231.203H185.797V229.477H184.008V227.344H181.734ZM188.852 228.078C189.555 228.078 190.133 227.516 190.133 226.812C190.133 226.102 189.555 225.539 188.852 225.539C188.148 225.539 187.562 226.102 187.562 226.812C187.562 227.516 188.148 228.078 188.852 228.078ZM187.711 238H189.984V229.398H187.711V238ZM192.289 238H194.562V233.023C194.562 231.859 195.211 231.109 196.266 231.109C197.344 231.109 197.852 231.742 197.852 232.953V238H200.125V232.438C200.125 230.383 199.094 229.211 197.18 229.211C195.906 229.211 195.031 229.812 194.633 230.781H194.492V229.398H192.289V238ZM210.133 229.398H207.859V234.367C207.859 235.547 207.25 236.273 206.117 236.273C205.07 236.273 204.531 235.656 204.531 234.438V229.398H202.258V235C202.258 237 203.414 238.18 205.273 238.18C206.578 238.18 207.383 237.617 207.789 236.617H207.93V238H210.133V229.398ZM217.984 235.57C217.742 236.156 217.125 236.484 216.227 236.484C215.039 236.484 214.289 235.664 214.258 234.352V234.234H220.172V233.555C220.172 230.836 218.672 229.211 216.133 229.211C213.57 229.211 211.992 230.945 211.992 233.742C211.992 236.523 213.539 238.18 216.164 238.18C218.273 238.18 219.766 237.172 220.102 235.57H217.984ZM216.141 230.906C217.203 230.906 217.891 231.641 217.938 232.82H214.266C214.344 231.664 215.086 230.906 216.141 230.906ZM225.969 231.906C225.969 233.227 226.781 234.016 228.453 234.383L230.016 234.734C230.773 234.906 231.102 235.172 231.102 235.609C231.102 236.18 230.492 236.57 229.609 236.57C228.703 236.57 228.148 236.219 227.977 235.625H225.758C225.914 237.25 227.289 238.18 229.562 238.18C231.82 238.18 233.359 237.07 233.359 235.367C233.359 234.086 232.609 233.383 230.938 233.016L229.32 232.664C228.523 232.484 228.156 232.211 228.156 231.773C228.156 231.211 228.758 230.828 229.57 230.828C230.414 230.828 230.938 231.18 231.055 231.75H233.156C233.031 230.125 231.742 229.211 229.555 229.211C227.406 229.211 225.969 230.297 225.969 231.906ZM235.305 238H237.578V233.047C237.578 231.906 238.234 231.133 239.375 231.133C240.406 231.133 240.961 231.758 240.961 232.977V238H243.234V232.461C243.234 230.398 242.133 229.234 240.281 229.234C239.016 229.234 238.078 229.828 237.68 230.805H237.539V226.109H235.305V238ZM249.266 238.18C251.914 238.18 253.508 236.508 253.508 233.695C253.508 230.906 251.891 229.211 249.266 229.211C246.641 229.211 245.023 230.914 245.023 233.695C245.023 236.5 246.617 238.18 249.266 238.18ZM249.266 236.383C248.047 236.383 247.359 235.398 247.359 233.695C247.359 232.008 248.055 231.016 249.266 231.016C250.469 231.016 251.172 232.008 251.172 233.695C251.172 235.398 250.477 236.383 249.266 236.383ZM260.344 229.258C259.156 229.258 258.18 229.844 257.711 230.812H257.57V229.398H255.367V240.852H257.641V236.688H257.781C258.203 237.594 259.148 238.133 260.383 238.133C262.539 238.133 263.859 236.461 263.859 233.695C263.859 230.922 262.523 229.258 260.344 229.258ZM259.57 236.297C258.367 236.297 257.617 235.312 257.617 233.703C257.617 232.094 258.367 231.102 259.578 231.102C260.789 231.102 261.523 232.078 261.523 233.695C261.523 235.32 260.797 236.297 259.57 236.297ZM270.688 229.258C269.5 229.258 268.523 229.844 268.055 230.812H267.914V229.398H265.711V240.852H267.984V236.688H268.125C268.547 237.594 269.492 238.133 270.727 238.133C272.883 238.133 274.203 236.461 274.203 233.695C274.203 230.922 272.867 229.258 270.688 229.258ZM269.914 236.297C268.711 236.297 267.961 235.312 267.961 233.703C267.961 232.094 268.711 231.102 269.922 231.102C271.133 231.102 271.867 232.078 271.867 233.695C271.867 235.32 271.141 236.297 269.914 236.297ZM277.211 228.078C277.914 228.078 278.492 227.516 278.492 226.812C278.492 226.102 277.914 225.539 277.211 225.539C276.508 225.539 275.922 226.102 275.922 226.812C275.922 227.516 276.508 228.078 277.211 228.078ZM276.07 238H278.344V229.398H276.07V238ZM280.648 238H282.922V233.023C282.922 231.859 283.57 231.109 284.625 231.109C285.703 231.109 286.211 231.742 286.211 232.953V238H288.484V232.438C288.484 230.383 287.453 229.211 285.539 229.211C284.266 229.211 283.391 229.812 282.992 230.781H282.852V229.398H280.648V238ZM294.492 241.258C297.094 241.258 298.742 239.992 298.742 237.984V229.398H296.539V230.773H296.398C295.938 229.836 294.945 229.258 293.781 229.258C291.594 229.258 290.25 230.961 290.25 233.625C290.25 236.203 291.586 237.875 293.734 237.875C294.945 237.875 295.852 237.383 296.328 236.477H296.469V238.078C296.469 239.07 295.758 239.648 294.539 239.648C293.555 239.648 292.914 239.305 292.797 238.758H290.547C290.688 240.266 292.203 241.258 294.492 241.258ZM294.523 236.133C293.289 236.133 292.586 235.164 292.586 233.617C292.586 232.07 293.297 231.102 294.523 231.102C295.75 231.102 296.492 232.07 296.492 233.617C296.492 235.164 295.758 236.133 294.523 236.133Z" fill="white"/>
<rect x="30" y="134" width="388" height="52" fill="white"/>
<path d="M37.9531 154V149.148L41.9531 142.727H40.3516L37.3125 147.734H37.1875L34.1484 142.727H32.5469L36.5469 149.148V154H37.9531ZM45.8984 154.148C48.2969 154.148 49.7812 152.492 49.7812 149.789C49.7812 147.078 48.2969 145.43 45.8984 145.43C43.5 145.43 42.0156 147.078 42.0156 149.789C42.0156 152.492 43.5 154.148 45.8984 154.148ZM45.8984 152.938C44.3047 152.938 43.4062 151.781 43.4062 149.789C43.4062 147.789 44.3047 146.641 45.8984 146.641C47.4922 146.641 48.3906 147.789 48.3906 149.789C48.3906 151.781 47.4922 152.938 45.8984 152.938ZM58.7031 145.578H57.3594V150.562C57.3594 152.039 56.5469 152.922 55.0625 152.922C53.7188 152.922 53.1562 152.219 53.1562 150.703V145.578H51.8125V151.031C51.8125 153.023 52.7969 154.148 54.6875 154.148C55.9766 154.148 56.875 153.617 57.2969 152.68H57.4219V154H58.7031V145.578ZM61.2344 154H62.5781V148.781C62.5781 147.594 63.5078 146.734 64.7891 146.734C65.0547 146.734 65.5391 146.781 65.6484 146.812V145.469C65.4766 145.445 65.1953 145.43 64.9766 145.43C63.8594 145.43 62.8906 146.008 62.6406 146.828H62.5156V145.578H61.2344V154ZM71.6484 147.883C71.6484 149.102 72.3672 149.781 73.9453 150.164L75.3906 150.516C76.2891 150.734 76.7266 151.125 76.7266 151.703C76.7266 152.477 75.9141 153.016 74.7812 153.016C73.7031 153.016 73.0312 152.562 72.8047 151.852H71.4219C71.5703 153.25 72.8594 154.148 74.7344 154.148C76.6484 154.148 78.1094 153.109 78.1094 151.602C78.1094 150.391 77.3438 149.703 75.7578 149.32L74.4609 149.008C73.4688 148.766 73 148.406 73 147.828C73 147.078 73.7812 146.57 74.7812 146.57C75.7969 146.57 76.4531 147.016 76.6328 147.688H77.9609C77.7812 146.305 76.5547 145.43 74.7891 145.43C73 145.43 71.6484 146.484 71.6484 147.883ZM85.7969 151.82C85.4453 152.562 84.7109 152.961 83.625 152.961C82.1953 152.961 81.2656 151.906 81.1953 150.242V150.18H87.25V149.664C87.25 147.047 85.8672 145.43 83.5938 145.43C81.2812 145.43 79.7969 147.148 79.7969 149.797C79.7969 152.461 81.2578 154.148 83.5938 154.148C85.4375 154.148 86.75 153.258 87.1406 151.82H85.7969ZM83.5781 146.617C84.9141 146.617 85.8047 147.602 85.8359 149.094H81.1953C81.2969 147.602 82.2344 146.617 83.5781 146.617ZM89.9219 143.398V145.578H88.5625V146.703H89.9219V151.812C89.9219 153.422 90.6172 154.062 92.3516 154.062C92.6172 154.062 92.875 154.031 93.1406 153.984V152.852C92.8906 152.875 92.7578 152.883 92.5156 152.883C91.6406 152.883 91.2656 152.461 91.2656 151.469V146.703H93.1406V145.578H91.2656V143.398H89.9219ZM101.984 145.578H100.641V150.562C100.641 152.039 99.8281 152.922 98.3438 152.922C97 152.922 96.4375 152.219 96.4375 150.703V145.578H95.0938V151.031C95.0938 153.023 96.0781 154.148 97.9688 154.148C99.2578 154.148 100.156 153.617 100.578 152.68H100.703V154H101.984V145.578ZM108.617 145.43C107.469 145.43 106.461 146.016 105.922 146.984H105.797V145.578H104.516V156.812H105.859V152.734H105.984C106.445 153.625 107.414 154.148 108.617 154.148C110.758 154.148 112.156 152.422 112.156 149.789C112.156 147.141 110.766 145.43 108.617 145.43ZM108.297 152.938C106.781 152.938 105.82 151.719 105.82 149.789C105.82 147.852 106.781 146.641 108.305 146.641C109.844 146.641 110.766 147.82 110.766 149.789C110.766 151.758 109.844 152.938 108.297 152.938ZM118.859 154H120.203V149.016C120.203 147.594 121.031 146.641 122.539 146.641C123.812 146.641 124.484 147.383 124.484 148.875V154H125.828V148.547C125.828 146.57 124.703 145.43 122.922 145.43C121.633 145.43 120.75 145.977 120.328 146.906H120.203V142.234H118.859V154ZM130.625 154.148C131.75 154.148 132.672 153.656 133.219 152.758H133.344V154H134.625V148.234C134.625 146.484 133.477 145.43 131.422 145.43C129.625 145.43 128.297 146.32 128.117 147.672H129.477C129.664 147.008 130.367 146.625 131.375 146.625C132.633 146.625 133.281 147.195 133.281 148.234V149L130.852 149.148C128.891 149.266 127.781 150.133 127.781 151.641C127.781 153.18 128.992 154.148 130.625 154.148ZM130.875 152.969C129.898 152.969 129.172 152.469 129.172 151.609C129.172 150.766 129.734 150.32 131.016 150.234L133.281 150.086V150.859C133.281 152.062 132.258 152.969 130.875 152.969ZM136.914 147.883C136.914 149.102 137.633 149.781 139.211 150.164L140.656 150.516C141.555 150.734 141.992 151.125 141.992 151.703C141.992 152.477 141.18 153.016 140.047 153.016C138.969 153.016 138.297 152.562 138.07 151.852H136.688C136.836 153.25 138.125 154.148 140 154.148C141.914 154.148 143.375 153.109 143.375 151.602C143.375 150.391 142.609 149.703 141.023 149.32L139.727 149.008C138.734 148.766 138.266 148.406 138.266 147.828C138.266 147.078 139.047 146.57 140.047 146.57C141.062 146.57 141.719 147.016 141.898 147.688H143.227C143.047 146.305 141.82 145.43 140.055 145.43C138.266 145.43 136.914 146.484 136.914 147.883ZM154.188 154.148C156.32 154.148 157.719 152.422 157.719 149.789C157.719 147.141 156.328 145.43 154.188 145.43C153.031 145.43 152.008 146 151.547 146.906H151.422V142.234H150.078V154H151.359V152.656H151.484C152.016 153.594 153.016 154.148 154.188 154.148ZM153.875 146.641C155.414 146.641 156.328 147.82 156.328 149.789C156.328 151.758 155.414 152.938 153.875 152.938C152.344 152.938 151.391 151.734 151.391 149.789C151.391 147.844 152.344 146.641 153.875 146.641ZM165.406 151.82C165.055 152.562 164.32 152.961 163.234 152.961C161.805 152.961 160.875 151.906 160.805 150.242V150.18H166.859V149.664C166.859 147.047 165.477 145.43 163.203 145.43C160.891 145.43 159.406 147.148 159.406 149.797C159.406 152.461 160.867 154.148 163.203 154.148C165.047 154.148 166.359 153.258 166.75 151.82H165.406ZM163.188 146.617C164.523 146.617 165.414 147.602 165.445 149.094H160.805C160.906 147.602 161.844 146.617 163.188 146.617ZM174.547 151.82C174.195 152.562 173.461 152.961 172.375 152.961C170.945 152.961 170.016 151.906 169.945 150.242V150.18H176V149.664C176 147.047 174.617 145.43 172.344 145.43C170.031 145.43 168.547 147.148 168.547 149.797C168.547 152.461 170.008 154.148 172.344 154.148C174.188 154.148 175.5 153.258 175.891 151.82H174.547ZM172.328 146.617C173.664 146.617 174.555 147.602 174.586 149.094H169.945C170.047 147.602 170.984 146.617 172.328 146.617ZM178.109 154H179.453V149.016C179.453 147.539 180.32 146.641 181.664 146.641C183.008 146.641 183.648 147.359 183.648 148.875V154H184.992V148.547C184.992 146.547 183.938 145.43 182.047 145.43C180.758 145.43 179.938 145.977 179.516 146.906H179.391V145.578H178.109V154ZM198.938 148.156C198.703 146.656 197.453 145.43 195.406 145.43C193.047 145.43 191.547 147.133 191.547 149.758C191.547 152.438 193.055 154.148 195.414 154.148C197.438 154.148 198.695 153.008 198.938 151.461H197.578C197.328 152.414 196.539 152.938 195.406 152.938C193.906 152.938 192.938 151.703 192.938 149.758C192.938 147.852 193.891 146.641 195.406 146.641C196.617 146.641 197.359 147.32 197.578 148.156H198.938ZM203.266 154.148C204.391 154.148 205.312 153.656 205.859 152.758H205.984V154H207.266V148.234C207.266 146.484 206.117 145.43 204.062 145.43C202.266 145.43 200.938 146.32 200.758 147.672H202.117C202.305 147.008 203.008 146.625 204.016 146.625C205.273 146.625 205.922 147.195 205.922 148.234V149L203.492 149.148C201.531 149.266 200.422 150.133 200.422 151.641C200.422 153.18 201.633 154.148 203.266 154.148ZM203.516 152.969C202.539 152.969 201.812 152.469 201.812 151.609C201.812 150.766 202.375 150.32 203.656 150.234L205.922 150.086V150.859C205.922 152.062 204.898 152.969 203.516 152.969ZM209.75 154H211.094V149.016C211.094 147.539 211.961 146.641 213.305 146.641C214.648 146.641 215.289 147.359 215.289 148.875V154H216.633V148.547C216.633 146.547 215.578 145.43 213.688 145.43C212.398 145.43 211.578 145.977 211.156 146.906H211.031V145.578H209.75V154ZM226.062 148.156C225.828 146.656 224.578 145.43 222.531 145.43C220.172 145.43 218.672 147.133 218.672 149.758C218.672 152.438 220.18 154.148 222.539 154.148C224.562 154.148 225.82 153.008 226.062 151.461H224.703C224.453 152.414 223.664 152.938 222.531 152.938C221.031 152.938 220.062 151.703 220.062 149.758C220.062 147.852 221.016 146.641 222.531 146.641C223.742 146.641 224.484 147.32 224.703 148.156H226.062ZM233.625 151.82C233.273 152.562 232.539 152.961 231.453 152.961C230.023 152.961 229.094 151.906 229.023 150.242V150.18H235.078V149.664C235.078 147.047 233.695 145.43 231.422 145.43C229.109 145.43 227.625 147.148 227.625 149.797C227.625 152.461 229.086 154.148 231.422 154.148C233.266 154.148 234.578 153.258 234.969 151.82H233.625ZM231.406 146.617C232.742 146.617 233.633 147.602 233.664 149.094H229.023C229.125 147.602 230.062 146.617 231.406 146.617ZM237.266 154H238.609V142.234H237.266V154ZM246.797 151.82C246.445 152.562 245.711 152.961 244.625 152.961C243.195 152.961 242.266 151.906 242.195 150.242V150.18H248.25V149.664C248.25 147.047 246.867 145.43 244.594 145.43C242.281 145.43 240.797 147.148 240.797 149.797C240.797 152.461 242.258 154.148 244.594 154.148C246.438 154.148 247.75 153.258 248.141 151.82H246.797ZM244.578 146.617C245.914 146.617 246.805 147.602 246.836 149.094H242.195C242.297 147.602 243.234 146.617 244.578 146.617ZM253.477 154.148C254.641 154.148 255.641 153.594 256.172 152.656H256.297V154H257.578V142.234H256.234V146.906H256.117C255.641 145.984 254.648 145.43 253.477 145.43C251.336 145.43 249.938 147.148 249.938 149.789C249.938 152.438 251.32 154.148 253.477 154.148ZM253.789 146.641C255.312 146.641 256.266 147.859 256.266 149.789C256.266 151.734 255.32 152.938 253.789 152.938C252.25 152.938 251.328 151.758 251.328 149.789C251.328 147.828 252.258 146.641 253.789 146.641ZM261.297 154.078C261.859 154.078 262.312 153.617 262.312 153.062C262.312 152.5 261.859 152.047 261.297 152.047C260.742 152.047 260.281 152.5 260.281 153.062C260.281 153.617 260.742 154.078 261.297 154.078ZM275.883 145.102H275.977L278.57 154H279.898L282.969 142.727H281.5L279.258 151.891H279.164L276.641 142.727H275.219L272.695 151.891H272.602L270.359 142.727H268.891L271.961 154H273.289L275.883 145.102ZM289.734 151.82C289.383 152.562 288.648 152.961 287.562 152.961C286.133 152.961 285.203 151.906 285.133 150.242V150.18H291.188V149.664C291.188 147.047 289.805 145.43 287.531 145.43C285.219 145.43 283.734 147.148 283.734 149.797C283.734 152.461 285.195 154.148 287.531 154.148C289.375 154.148 290.688 153.258 291.078 151.82H289.734ZM287.516 146.617C288.852 146.617 289.742 147.602 289.773 149.094H285.133C285.234 147.602 286.172 146.617 287.516 146.617ZM308.406 145.578H307.055L305.398 152.312H305.273L303.391 145.578H302.102L300.219 152.312H300.094L298.438 145.578H297.078L299.438 154H300.797L302.672 147.484H302.797L304.68 154H306.047L308.406 145.578ZM310.906 143.953C311.422 143.953 311.844 143.531 311.844 143.016C311.844 142.5 311.422 142.078 310.906 142.078C310.391 142.078 309.969 142.5 309.969 143.016C309.969 143.531 310.391 143.953 310.906 143.953ZM310.234 154H311.578V145.578H310.234V154ZM314.219 154H315.562V142.234H314.219V154ZM318.25 154H319.594V142.234H318.25V154ZM326.523 147.883C326.523 149.102 327.242 149.781 328.82 150.164L330.266 150.516C331.164 150.734 331.602 151.125 331.602 151.703C331.602 152.477 330.789 153.016 329.656 153.016C328.578 153.016 327.906 152.562 327.68 151.852H326.297C326.445 153.25 327.734 154.148 329.609 154.148C331.523 154.148 332.984 153.109 332.984 151.602C332.984 150.391 332.219 149.703 330.633 149.32L329.336 149.008C328.344 148.766 327.875 148.406 327.875 147.828C327.875 147.078 328.656 146.57 329.656 146.57C330.672 146.57 331.328 147.016 331.508 147.688H332.836C332.656 146.305 331.43 145.43 329.664 145.43C327.875 145.43 326.523 146.484 326.523 147.883ZM340.672 151.82C340.32 152.562 339.586 152.961 338.5 152.961C337.07 152.961 336.141 151.906 336.07 150.242V150.18H342.125V149.664C342.125 147.047 340.742 145.43 338.469 145.43C336.156 145.43 334.672 147.148 334.672 149.797C334.672 152.461 336.133 154.148 338.469 154.148C340.312 154.148 341.625 153.258 342.016 151.82H340.672ZM338.453 146.617C339.789 146.617 340.68 147.602 340.711 149.094H336.07C336.172 147.602 337.109 146.617 338.453 146.617ZM344.234 154H345.578V149.016C345.578 147.539 346.445 146.641 347.789 146.641C349.133 146.641 349.773 147.359 349.773 148.875V154H351.117V148.547C351.117 146.547 350.062 145.43 348.172 145.43C346.883 145.43 346.062 145.977 345.641 146.906H345.516V145.578H344.234V154ZM356.695 154.148C357.859 154.148 358.859 153.594 359.391 152.656H359.516V154H360.797V142.234H359.453V146.906H359.336C358.859 145.984 357.867 145.43 356.695 145.43C354.555 145.43 353.156 147.148 353.156 149.789C353.156 152.438 354.539 154.148 356.695 154.148ZM357.008 146.641C358.531 146.641 359.484 147.859 359.484 149.789C359.484 151.734 358.539 152.938 357.008 152.938C355.469 152.938 354.547 151.758 354.547 149.789C354.547 147.828 355.477 146.641 357.008 146.641ZM368.641 157.047C370.133 157.047 370.805 156.469 371.523 154.516L374.812 145.578H373.383L371.078 152.508H370.953L368.641 145.578H367.188L370.305 154.008L370.148 154.508C369.797 155.523 369.375 155.891 368.602 155.891C368.414 155.891 368.203 155.883 368.039 155.852V157C368.227 157.031 368.461 157.047 368.641 157.047ZM379.758 154.148C382.156 154.148 383.641 152.492 383.641 149.789C383.641 147.078 382.156 145.43 379.758 145.43C377.359 145.43 375.875 147.078 375.875 149.789C375.875 152.492 377.359 154.148 379.758 154.148ZM379.758 152.938C378.164 152.938 377.266 151.781 377.266 149.789C377.266 147.789 378.164 146.641 379.758 146.641C381.352 146.641 382.25 147.789 382.25 149.789C382.25 151.781 381.352 152.938 379.758 152.938ZM392.562 145.578H391.219V150.562C391.219 152.039 390.406 152.922 388.922 152.922C387.578 152.922 387.016 152.219 387.016 150.703V145.578H385.672V151.031C385.672 153.023 386.656 154.148 388.547 154.148C389.836 154.148 390.734 153.617 391.156 152.68H391.281V154H392.562V145.578ZM35.6094 178.148C36.7344 178.148 37.6562 177.656 38.2031 176.758H38.3281V178H39.6094V172.234C39.6094 170.484 38.4609 169.43 36.4062 169.43C34.6094 169.43 33.2812 170.32 33.1016 171.672H34.4609C34.6484 171.008 35.3516 170.625 36.3594 170.625C37.6172 170.625 38.2656 171.195 38.2656 172.234V173L35.8359 173.148C33.875 173.266 32.7656 174.133 32.7656 175.641C32.7656 177.18 33.9766 178.148 35.6094 178.148ZM35.8594 176.969C34.8828 176.969 34.1562 176.469 34.1562 175.609C34.1562 174.766 34.7188 174.32 36 174.234L38.2656 174.086V174.859C38.2656 176.062 37.2422 176.969 35.8594 176.969ZM42.0938 178H43.4375V173.016C43.4375 171.539 44.3047 170.641 45.6484 170.641C46.9922 170.641 47.6328 171.359 47.6328 172.875V178H48.9766V172.547C48.9766 170.547 47.9219 169.43 46.0312 169.43C44.7422 169.43 43.9219 169.977 43.5 170.906H43.375V169.578H42.0938V178ZM61.5312 175.82C61.1797 176.562 60.4453 176.961 59.3594 176.961C57.9297 176.961 57 175.906 56.9297 174.242V174.18H62.9844V173.664C62.9844 171.047 61.6016 169.43 59.3281 169.43C57.0156 169.43 55.5312 171.148 55.5312 173.797C55.5312 176.461 56.9922 178.148 59.3281 178.148C61.1719 178.148 62.4844 177.258 62.875 175.82H61.5312ZM59.3125 170.617C60.6484 170.617 61.5391 171.602 61.5703 173.094H56.9297C57.0312 171.602 57.9688 170.617 59.3125 170.617ZM65.0938 178H66.4375V172.781C66.4375 171.594 67.2891 170.641 68.3906 170.641C69.4531 170.641 70.1484 171.281 70.1484 172.281V178H71.4922V172.586C71.4922 171.516 72.2734 170.641 73.4453 170.641C74.6328 170.641 75.2188 171.25 75.2188 172.492V178H76.5625V172.18C76.5625 170.414 75.6016 169.43 73.8828 169.43C72.7188 169.43 71.7578 170.016 71.3047 170.906H71.1797C70.7891 170.031 69.9922 169.43 68.8516 169.43C67.7266 169.43 66.8828 169.969 66.5 170.906H66.375V169.578H65.0938V178ZM81.3594 178.148C82.4844 178.148 83.4062 177.656 83.9531 176.758H84.0781V178H85.3594V172.234C85.3594 170.484 84.2109 169.43 82.1562 169.43C80.3594 169.43 79.0312 170.32 78.8516 171.672H80.2109C80.3984 171.008 81.1016 170.625 82.1094 170.625C83.3672 170.625 84.0156 171.195 84.0156 172.234V173L81.5859 173.148C79.625 173.266 78.5156 174.133 78.5156 175.641C78.5156 177.18 79.7266 178.148 81.3594 178.148ZM81.6094 176.969C80.6328 176.969 79.9062 176.469 79.9062 175.609C79.9062 174.766 80.4688 174.32 81.75 174.234L84.0156 174.086V174.859C84.0156 176.062 82.9922 176.969 81.6094 176.969ZM88.5469 167.953C89.0625 167.953 89.4844 167.531 89.4844 167.016C89.4844 166.5 89.0625 166.078 88.5469 166.078C88.0312 166.078 87.6094 166.5 87.6094 167.016C87.6094 167.531 88.0312 167.953 88.5469 167.953ZM87.875 178H89.2188V169.578H87.875V178ZM91.8594 178H93.2031V166.234H91.8594V178ZM110.922 169.578H109.57L107.914 176.312H107.789L105.906 169.578H104.617L102.734 176.312H102.609L100.953 169.578H99.5938L101.953 178H103.312L105.188 171.484H105.312L107.195 178H108.562L110.922 169.578ZM113.422 167.953C113.938 167.953 114.359 167.531 114.359 167.016C114.359 166.5 113.938 166.078 113.422 166.078C112.906 166.078 112.484 166.5 112.484 167.016C112.484 167.531 112.906 167.953 113.422 167.953ZM112.75 178H114.094V169.578H112.75V178ZM117.219 167.398V169.578H115.859V170.703H117.219V175.812C117.219 177.422 117.914 178.062 119.648 178.062C119.914 178.062 120.172 178.031 120.438 177.984V176.852C120.188 176.875 120.055 176.883 119.812 176.883C118.938 176.883 118.562 176.461 118.562 175.469V170.703H120.438V169.578H118.562V167.398H117.219ZM122.547 178H123.891V173.016C123.891 171.594 124.719 170.641 126.227 170.641C127.5 170.641 128.172 171.383 128.172 172.875V178H129.516V172.547C129.516 170.57 128.391 169.43 126.609 169.43C125.32 169.43 124.438 169.977 124.016 170.906H123.891V166.234H122.547V178ZM137.047 167.398V169.578H135.688V170.703H137.047V175.812C137.047 177.422 137.742 178.062 139.477 178.062C139.742 178.062 140 178.031 140.266 177.984V176.852C140.016 176.875 139.883 176.883 139.641 176.883C138.766 176.883 138.391 176.461 138.391 175.469V170.703H140.266V169.578H138.391V167.398H137.047ZM142.375 178H143.719V173.016C143.719 171.594 144.547 170.641 146.055 170.641C147.328 170.641 148 171.383 148 172.875V178H149.344V172.547C149.344 170.57 148.219 169.43 146.438 169.43C145.148 169.43 144.266 169.977 143.844 170.906H143.719V166.234H142.375V178ZM157.375 175.82C157.023 176.562 156.289 176.961 155.203 176.961C153.773 176.961 152.844 175.906 152.773 174.242V174.18H158.828V173.664C158.828 171.047 157.445 169.43 155.172 169.43C152.859 169.43 151.375 171.148 151.375 173.797C151.375 176.461 152.836 178.148 155.172 178.148C157.016 178.148 158.328 177.258 158.719 175.82H157.375ZM155.156 170.617C156.492 170.617 157.383 171.602 157.414 173.094H152.773C152.875 171.602 153.812 170.617 155.156 170.617ZM168.57 178.148C169.734 178.148 170.734 177.594 171.266 176.656H171.391V178H172.672V166.234H171.328V170.906H171.211C170.734 169.984 169.742 169.43 168.57 169.43C166.43 169.43 165.031 171.148 165.031 173.789C165.031 176.438 166.414 178.148 168.57 178.148ZM168.883 170.641C170.406 170.641 171.359 171.859 171.359 173.789C171.359 175.734 170.414 176.938 168.883 176.938C167.344 176.938 166.422 175.758 166.422 173.789C166.422 171.828 167.352 170.641 168.883 170.641ZM180.859 175.82C180.508 176.562 179.773 176.961 178.688 176.961C177.258 176.961 176.328 175.906 176.258 174.242V174.18H182.312V173.664C182.312 171.047 180.93 169.43 178.656 169.43C176.344 169.43 174.859 171.148 174.859 173.797C174.859 176.461 176.32 178.148 178.656 178.148C180.5 178.148 181.812 177.258 182.203 175.82H180.859ZM178.641 170.617C179.977 170.617 180.867 171.602 180.898 173.094H176.258C176.359 171.602 177.297 170.617 178.641 170.617ZM184.984 167.398V169.578H183.625V170.703H184.984V175.812C184.984 177.422 185.68 178.062 187.414 178.062C187.68 178.062 187.938 178.031 188.203 177.984V176.852C187.953 176.875 187.82 176.883 187.578 176.883C186.703 176.883 186.328 176.461 186.328 175.469V170.703H188.203V169.578H186.328V167.398H184.984ZM192.578 178.148C193.703 178.148 194.625 177.656 195.172 176.758H195.297V178H196.578V172.234C196.578 170.484 195.43 169.43 193.375 169.43C191.578 169.43 190.25 170.32 190.07 171.672H191.43C191.617 171.008 192.32 170.625 193.328 170.625C194.586 170.625 195.234 171.195 195.234 172.234V173L192.805 173.148C190.844 173.266 189.734 174.133 189.734 175.641C189.734 177.18 190.945 178.148 192.578 178.148ZM192.828 176.969C191.852 176.969 191.125 176.469 191.125 175.609C191.125 174.766 191.688 174.32 192.969 174.234L195.234 174.086V174.859C195.234 176.062 194.211 176.969 192.828 176.969ZM199.766 167.953C200.281 167.953 200.703 167.531 200.703 167.016C200.703 166.5 200.281 166.078 199.766 166.078C199.25 166.078 198.828 166.5 198.828 167.016C198.828 167.531 199.25 167.953 199.766 167.953ZM199.094 178H200.438V169.578H199.094V178ZM203.078 178H204.422V166.234H203.078V178ZM206.836 171.883C206.836 173.102 207.555 173.781 209.133 174.164L210.578 174.516C211.477 174.734 211.914 175.125 211.914 175.703C211.914 176.477 211.102 177.016 209.969 177.016C208.891 177.016 208.219 176.562 207.992 175.852H206.609C206.758 177.25 208.047 178.148 209.922 178.148C211.836 178.148 213.297 177.109 213.297 175.602C213.297 174.391 212.531 173.703 210.945 173.32L209.648 173.008C208.656 172.766 208.188 172.406 208.188 171.828C208.188 171.078 208.969 170.57 209.969 170.57C210.984 170.57 211.641 171.016 211.82 171.688H213.148C212.969 170.305 211.742 169.43 209.977 169.43C208.188 169.43 206.836 170.484 206.836 171.883ZM216.516 178.078C217.078 178.078 217.531 177.617 217.531 177.062C217.531 176.5 217.078 176.047 216.516 176.047C215.961 176.047 215.5 176.5 215.5 177.062C215.5 177.617 215.961 178.078 216.516 178.078Z" fill="#4F566B"/>
<rect x="30" y="134" width="388" height="52" stroke="white" stroke-width="4"/>
<path d="M28 28H52V52H28V28Z" fill="white"/>
<path fill-rule="evenodd" clip-rule="evenodd" d="M40 52C33.3726 52 28 46.6274 28 40C28 33.3726 33.3726 28 40 28C46.6274 28 52 33.3726 52 40C52 46.6274 46.6274 52 40 52ZM40 48.25C41.2426 48.25 42.25 47.2426 42.25 46C42.25 44.7574 41.2426 43.75 40 43.75C38.7574 43.75 37.75 44.7574 37.75 46C37.75 47.2426 38.7574 48.25 40 48.25ZM40 31C39.1716 31 38.5 31.6716 38.5 32.5V40C38.5 40.8284 39.1716 41.5 40 41.5C40.8284 41.5 41.5 40.8284 41.5 40V32.5C41.5 31.6716 40.8284 31 40 31Z" fill="#EFC078"/>
<rect x="30" y="90" width="204" height="28" fill="white"/>
<path d="M38.8516 110V105.789L42.7734 98.7266H40.2188L37.7422 103.469H37.6016L35.1172 98.7266H32.5625L36.4922 105.789V110H38.8516ZM46.7734 110.18C49.4219 110.18 51.0156 108.508 51.0156 105.695C51.0156 102.906 49.3984 101.211 46.7734 101.211C44.1484 101.211 42.5312 102.914 42.5312 105.695C42.5312 108.5 44.125 110.18 46.7734 110.18ZM46.7734 108.383C45.5547 108.383 44.8672 107.398 44.8672 105.695C44.8672 104.008 45.5625 103.016 46.7734 103.016C47.9766 103.016 48.6797 104.008 48.6797 105.695C48.6797 107.398 47.9844 108.383 46.7734 108.383ZM60.6719 101.398H58.3984V106.367C58.3984 107.547 57.7891 108.273 56.6562 108.273C55.6094 108.273 55.0703 107.656 55.0703 106.438V101.398H52.7969V107C52.7969 109 53.9531 110.18 55.8125 110.18C57.1172 110.18 57.9219 109.617 58.3281 108.617H58.4688V110H60.6719V101.398ZM62.9531 110H65.2266V105.188C65.2266 103.977 66.0781 103.234 67.3203 103.234C67.6875 103.234 68.2188 103.297 68.3984 103.359V101.359C68.2031 101.297 67.8203 101.258 67.5078 101.258C66.4141 101.258 65.5234 101.906 65.2969 102.766H65.1562V101.398H62.9531V110ZM73.8516 103.906C73.8516 105.227 74.6641 106.016 76.3359 106.383L77.8984 106.734C78.6562 106.906 78.9844 107.172 78.9844 107.609C78.9844 108.18 78.375 108.57 77.4922 108.57C76.5859 108.57 76.0312 108.219 75.8594 107.625H73.6406C73.7969 109.25 75.1719 110.18 77.4453 110.18C79.7031 110.18 81.2422 109.07 81.2422 107.367C81.2422 106.086 80.4922 105.383 78.8203 105.016L77.2031 104.664C76.4062 104.484 76.0391 104.211 76.0391 103.773C76.0391 103.211 76.6406 102.828 77.4531 102.828C78.2969 102.828 78.8203 103.18 78.9375 103.75H81.0391C80.9141 102.125 79.625 101.211 77.4375 101.211C75.2891 101.211 73.8516 102.297 73.8516 103.906ZM88.6797 107.57C88.4375 108.156 87.8203 108.484 86.9219 108.484C85.7344 108.484 84.9844 107.664 84.9531 106.352V106.234H90.8672V105.555C90.8672 102.836 89.3672 101.211 86.8281 101.211C84.2656 101.211 82.6875 102.945 82.6875 105.742C82.6875 108.523 84.2344 110.18 86.8594 110.18C88.9688 110.18 90.4609 109.172 90.7969 107.57H88.6797ZM86.8359 102.906C87.8984 102.906 88.5859 103.641 88.6328 104.82H84.9609C85.0391 103.664 85.7812 102.906 86.8359 102.906ZM93.3828 99.3438V101.477H92.0391V103.203H93.3828V107.68C93.3828 109.352 94.2109 110.031 96.3047 110.031C96.7422 110.031 97.1641 109.984 97.4453 109.93V108.25C97.2266 108.273 97.0703 108.289 96.7734 108.289C96 108.289 95.6562 107.93 95.6562 107.156V103.203H97.4453V101.477H95.6562V99.3438H93.3828ZM107.141 101.398H104.867V106.367C104.867 107.547 104.258 108.273 103.125 108.273C102.078 108.273 101.539 107.656 101.539 106.438V101.398H99.2656V107C99.2656 109 100.422 110.18 102.281 110.18C103.586 110.18 104.391 109.617 104.797 108.617H104.938V110H107.141V101.398ZM114.398 101.258C113.211 101.258 112.234 101.844 111.766 102.812H111.625V101.398H109.422V112.852H111.695V108.688H111.836C112.258 109.594 113.203 110.133 114.438 110.133C116.594 110.133 117.914 108.461 117.914 105.695C117.914 102.922 116.578 101.258 114.398 101.258ZM113.625 108.297C112.422 108.297 111.672 107.312 111.672 105.703C111.672 104.094 112.422 103.102 113.633 103.102C114.844 103.102 115.578 104.078 115.578 105.695C115.578 107.32 114.852 108.297 113.625 108.297ZM135.828 101.398H133.57L132.289 107.625H132.148L130.633 101.398H128.461L126.953 107.625H126.812L125.531 101.398H123.227L125.523 110H127.914L129.438 104H129.578L131.117 110H133.539L135.828 101.398ZM139.578 110.133C140.695 110.133 141.633 109.656 142.078 108.859H142.219V110H144.422V104.125C144.422 102.289 143.133 101.211 140.852 101.211C138.688 101.211 137.227 102.203 137.078 103.781H139.172C139.359 103.242 139.906 102.953 140.727 102.953C141.664 102.953 142.18 103.383 142.18 104.125V104.836L140.094 104.961C137.953 105.086 136.758 105.992 136.758 107.547C136.758 109.117 137.922 110.133 139.578 110.133ZM140.328 108.469C139.539 108.469 138.984 108.07 138.984 107.406C138.984 106.773 139.461 106.406 140.438 106.344L142.18 106.227V106.867C142.18 107.773 141.383 108.469 140.328 108.469ZM146.461 103.906C146.461 105.227 147.273 106.016 148.945 106.383L150.508 106.734C151.266 106.906 151.594 107.172 151.594 107.609C151.594 108.18 150.984 108.57 150.102 108.57C149.195 108.57 148.641 108.219 148.469 107.625H146.25C146.406 109.25 147.781 110.18 150.055 110.18C152.312 110.18 153.852 109.07 153.852 107.367C153.852 106.086 153.102 105.383 151.43 105.016L149.812 104.664C149.016 104.484 148.648 104.211 148.648 103.773C148.648 103.211 149.25 102.828 150.062 102.828C150.906 102.828 151.43 103.18 151.547 103.75H153.648C153.523 102.125 152.234 101.211 150.047 101.211C147.898 101.211 146.461 102.297 146.461 103.906ZM167.469 104.398C167.281 102.477 165.914 101.211 163.633 101.211C160.938 101.211 159.422 102.844 159.422 105.68C159.422 108.547 160.945 110.18 163.633 110.18C165.875 110.18 167.281 108.945 167.469 107.055H165.344C165.172 107.914 164.562 108.375 163.633 108.375C162.414 108.375 161.719 107.414 161.719 105.68C161.719 103.969 162.406 103.023 163.633 103.023C164.602 103.023 165.188 103.57 165.344 104.398H167.469ZM171.609 110.133C172.727 110.133 173.664 109.656 174.109 108.859H174.25V110H176.453V104.125C176.453 102.289 175.164 101.211 172.883 101.211C170.719 101.211 169.258 102.203 169.109 103.781H171.203C171.391 103.242 171.938 102.953 172.758 102.953C173.695 102.953 174.211 103.383 174.211 104.125V104.836L172.125 104.961C169.984 105.086 168.789 105.992 168.789 107.547C168.789 109.117 169.953 110.133 171.609 110.133ZM172.359 108.469C171.57 108.469 171.016 108.07 171.016 107.406C171.016 106.773 171.492 106.406 172.469 106.344L174.211 106.227V106.867C174.211 107.773 173.414 108.469 172.359 108.469ZM178.688 110H180.961V105.023C180.961 103.859 181.609 103.109 182.664 103.109C183.742 103.109 184.25 103.742 184.25 104.953V110H186.523V104.438C186.523 102.383 185.492 101.211 183.578 101.211C182.305 101.211 181.43 101.812 181.031 102.781H180.891V101.398H178.688V110ZM196.359 104.398C196.172 102.477 194.805 101.211 192.523 101.211C189.828 101.211 188.312 102.844 188.312 105.68C188.312 108.547 189.836 110.18 192.523 110.18C194.766 110.18 196.172 108.945 196.359 107.055H194.234C194.062 107.914 193.453 108.375 192.523 108.375C191.305 108.375 190.609 107.414 190.609 105.68C190.609 103.969 191.297 103.023 192.523 103.023C193.492 103.023 194.078 103.57 194.234 104.398H196.359ZM203.711 107.57C203.469 108.156 202.852 108.484 201.953 108.484C200.766 108.484 200.016 107.664 199.984 106.352V106.234H205.898V105.555C205.898 102.836 204.398 101.211 201.859 101.211C199.297 101.211 197.719 102.945 197.719 105.742C197.719 108.523 199.266 110.18 201.891 110.18C204 110.18 205.492 109.172 205.828 107.57H203.711ZM201.867 102.906C202.93 102.906 203.617 103.641 203.664 104.82H199.992C200.07 103.664 200.812 102.906 201.867 102.906ZM207.844 110H210.117V98.1094H207.844V110ZM218.055 107.57C217.812 108.156 217.195 108.484 216.297 108.484C215.109 108.484 214.359 107.664 214.328 106.352V106.234H220.242V105.555C220.242 102.836 218.742 101.211 216.203 101.211C213.641 101.211 212.062 102.945 212.062 105.742C212.062 108.523 213.609 110.18 216.234 110.18C218.344 110.18 219.836 109.172 220.172 107.57H218.055ZM216.211 102.906C217.273 102.906 217.961 103.641 218.008 104.82H214.336C214.414 103.664 215.156 102.906 216.211 102.906ZM225.195 110.133C226.391 110.133 227.367 109.578 227.828 108.648H227.969V110H230.172V98.1094H227.898V102.773H227.766C227.32 101.82 226.359 101.258 225.195 101.258C223.031 101.258 221.688 102.953 221.688 105.688C221.688 108.43 223.023 110.133 225.195 110.133ZM225.969 103.102C227.18 103.102 227.922 104.094 227.922 105.703C227.922 107.312 227.188 108.297 225.969 108.297C224.75 108.297 224.023 107.32 224.023 105.695C224.023 104.078 224.758 103.102 225.969 103.102Z" fill="#3C4257"/>
<rect x="30" y="90" width="204" height="28" stroke="white" stroke-width="4"/>
<rect x="0.5" y="0.5" width="447" height="287" rx="7.5" stroke="#E3E8EE"/>
<defs>
<clipPath id="clip0">
<path d="M0 0H448V288H0V0Z" fill="white"/>
</clipPath>
</defs>
</svg>
