<svg width="448" height="240" viewBox="0 0 448 240" fill="none" xmlns="http://www.w3.org/2000/svg">
<g clip-path="url(#clip0)">
<path d="M0 0H448V240H0V0Z" fill="white"/>
<path d="M0 0L448 -3.91654e-05" stroke="#E3E8EE" stroke-width="2" stroke-linecap="round" stroke-linejoin="round" stroke-dasharray="0.01 16"/>
<path d="M0 16L448 16" stroke="#E3E8EE" stroke-width="2" stroke-linecap="round" stroke-linejoin="round" stroke-dasharray="0.01 16"/>
<path d="M0 32L448 32" stroke="#E3E8EE" stroke-width="2" stroke-linecap="round" stroke-linejoin="round" stroke-dasharray="0.01 16"/>
<path d="M0 48L448 48" stroke="#E3E8EE" stroke-width="2" stroke-linecap="round" stroke-linejoin="round" stroke-dasharray="0.01 16"/>
<path d="M0 64L448 64" stroke="#E3E8EE" stroke-width="2" stroke-linecap="round" stroke-linejoin="round" stroke-dasharray="0.01 16"/>
<path d="M0 80L448 80" stroke="#E3E8EE" stroke-width="2" stroke-linecap="round" stroke-linejoin="round" stroke-dasharray="0.01 16"/>
<path d="M0 96L448 96" stroke="#E3E8EE" stroke-width="2" stroke-linecap="round" stroke-linejoin="round" stroke-dasharray="0.01 16"/>
<path d="M0 112L448 112" stroke="#E3E8EE" stroke-width="2" stroke-linecap="round" stroke-linejoin="round" stroke-dasharray="0.01 16"/>
<path d="M0 128L448 128" stroke="#E3E8EE" stroke-width="2" stroke-linecap="round" stroke-linejoin="round" stroke-dasharray="0.01 16"/>
<path d="M0 144L448 144" stroke="#E3E8EE" stroke-width="2" stroke-linecap="round" stroke-linejoin="round" stroke-dasharray="0.01 16"/>
<path d="M0 160L448 160" stroke="#E3E8EE" stroke-width="2" stroke-linecap="round" stroke-linejoin="round" stroke-dasharray="0.01 16"/>
<path d="M0 176L448 176" stroke="#E3E8EE" stroke-width="2" stroke-linecap="round" stroke-linejoin="round" stroke-dasharray="0.01 16"/>
<path d="M0 192L448 192" stroke="#E3E8EE" stroke-width="2" stroke-linecap="round" stroke-linejoin="round" stroke-dasharray="0.01 16"/>
<path d="M0 208L448 208" stroke="#E3E8EE" stroke-width="2" stroke-linecap="round" stroke-linejoin="round" stroke-dasharray="0.01 16"/>
<path d="M0 224L448 224" stroke="#E3E8EE" stroke-width="2" stroke-linecap="round" stroke-linejoin="round" stroke-dasharray="0.01 16"/>
<path d="M0 240L448 240" stroke="#E3E8EE" stroke-width="2" stroke-linecap="round" stroke-linejoin="round" stroke-dasharray="0.01 16"/>
<rect x="0.5" y="0.5" width="447" height="239" stroke="white"/>
</g>
<rect x="30" y="142" width="388" height="76" fill="white"/>
<path d="M39.6953 153.102H39.7891L42.3828 162H43.7109L46.7812 150.727H45.3125L43.0703 159.891H42.9766L40.4531 150.727H39.0312L36.5078 159.891H36.4141L34.1719 150.727H32.7031L35.7734 162H37.1016L39.6953 153.102ZM53.5469 159.82C53.1953 160.562 52.4609 160.961 51.375 160.961C49.9453 160.961 49.0156 159.906 48.9453 158.242V158.18H55V157.664C55 155.047 53.6172 153.43 51.3438 153.43C49.0312 153.43 47.5469 155.148 47.5469 157.797C47.5469 160.461 49.0078 162.148 51.3438 162.148C53.1875 162.148 54.5 161.258 54.8906 159.82H53.5469ZM51.3281 154.617C52.6641 154.617 53.5547 155.602 53.5859 157.094H48.9453C49.0469 155.602 49.9844 154.617 51.3281 154.617ZM63.9688 162.148C65.0938 162.148 66.0156 161.656 66.5625 160.758H66.6875V162H67.9688V156.234C67.9688 154.484 66.8203 153.43 64.7656 153.43C62.9688 153.43 61.6406 154.32 61.4609 155.672H62.8203C63.0078 155.008 63.7109 154.625 64.7188 154.625C65.9766 154.625 66.625 155.195 66.625 156.234V157L64.1953 157.148C62.2344 157.266 61.125 158.133 61.125 159.641C61.125 161.18 62.3359 162.148 63.9688 162.148ZM64.2188 160.969C63.2422 160.969 62.5156 160.469 62.5156 159.609C62.5156 158.766 63.0781 158.32 64.3594 158.234L66.625 158.086V158.859C66.625 160.062 65.6016 160.969 64.2188 160.969ZM70.4531 162H71.7969V156.781C71.7969 155.594 72.7266 154.734 74.0078 154.734C74.2734 154.734 74.7578 154.781 74.8672 154.812V153.469C74.6953 153.445 74.4141 153.43 74.1953 153.43C73.0781 153.43 72.1094 154.008 71.8594 154.828H71.7344V153.578H70.4531V162ZM81.8906 159.82C81.5391 160.562 80.8047 160.961 79.7188 160.961C78.2891 160.961 77.3594 159.906 77.2891 158.242V158.18H83.3438V157.664C83.3438 155.047 81.9609 153.43 79.6875 153.43C77.375 153.43 75.8906 155.148 75.8906 157.797C75.8906 160.461 77.3516 162.148 79.6875 162.148C81.5312 162.148 82.8438 161.258 83.2344 159.82H81.8906ZM79.6719 154.617C81.0078 154.617 81.8984 155.602 81.9297 157.094H77.2891C77.3906 155.602 78.3281 154.617 79.6719 154.617ZM89.7734 155.883C89.7734 157.102 90.4922 157.781 92.0703 158.164L93.5156 158.516C94.4141 158.734 94.8516 159.125 94.8516 159.703C94.8516 160.477 94.0391 161.016 92.9062 161.016C91.8281 161.016 91.1562 160.562 90.9297 159.852H89.5469C89.6953 161.25 90.9844 162.148 92.8594 162.148C94.7734 162.148 96.2344 161.109 96.2344 159.602C96.2344 158.391 95.4688 157.703 93.8828 157.32L92.5859 157.008C91.5938 156.766 91.125 156.406 91.125 155.828C91.125 155.078 91.9062 154.57 92.9062 154.57C93.9219 154.57 94.5781 155.016 94.7578 155.688H96.0859C95.9062 154.305 94.6797 153.43 92.9141 153.43C91.125 153.43 89.7734 154.484 89.7734 155.883ZM101.805 162.148C104.203 162.148 105.688 160.492 105.688 157.789C105.688 155.078 104.203 153.43 101.805 153.43C99.4062 153.43 97.9219 155.078 97.9219 157.789C97.9219 160.492 99.4062 162.148 101.805 162.148ZM101.805 160.938C100.211 160.938 99.3125 159.781 99.3125 157.789C99.3125 155.789 100.211 154.641 101.805 154.641C103.398 154.641 104.297 155.789 104.297 157.789C104.297 159.781 103.398 160.938 101.805 160.938ZM107.797 162H109.141V156.781C109.141 155.594 110.07 154.734 111.352 154.734C111.617 154.734 112.102 154.781 112.211 154.812V153.469C112.039 153.445 111.758 153.43 111.539 153.43C110.422 153.43 109.453 154.008 109.203 154.828H109.078V153.578H107.797V162ZM114.047 162H115.391V156.781C115.391 155.594 116.32 154.734 117.602 154.734C117.867 154.734 118.352 154.781 118.461 154.812V153.469C118.289 153.445 118.008 153.43 117.789 153.43C116.672 153.43 115.703 154.008 115.453 154.828H115.328V153.578H114.047V162ZM120.859 165.047C122.352 165.047 123.023 164.469 123.742 162.516L127.031 153.578H125.602L123.297 160.508H123.172L120.859 153.578H119.406L122.523 162.008L122.367 162.508C122.016 163.523 121.594 163.891 120.82 163.891C120.633 163.891 120.422 163.883 120.258 163.852V165C120.445 165.031 120.68 165.047 120.859 165.047ZM128.508 164.867L129.734 160.422H128.242L127.5 164.867H128.508ZM137.484 151.398V153.578H136.125V154.703H137.484V159.812C137.484 161.422 138.18 162.062 139.914 162.062C140.18 162.062 140.438 162.031 140.703 161.984V160.852C140.453 160.875 140.32 160.883 140.078 160.883C139.203 160.883 138.828 160.461 138.828 159.469V154.703H140.703V153.578H138.828V151.398H137.484ZM142.812 162H144.156V157.016C144.156 155.594 144.984 154.641 146.492 154.641C147.766 154.641 148.438 155.383 148.438 156.875V162H149.781V156.547C149.781 154.57 148.656 153.43 146.875 153.43C145.586 153.43 144.703 153.977 144.281 154.906H144.156V150.234H142.812V162ZM157.812 159.82C157.461 160.562 156.727 160.961 155.641 160.961C154.211 160.961 153.281 159.906 153.211 158.242V158.18H159.266V157.664C159.266 155.047 157.883 153.43 155.609 153.43C153.297 153.43 151.812 155.148 151.812 157.797C151.812 160.461 153.273 162.148 155.609 162.148C157.453 162.148 158.766 161.258 159.156 159.82H157.812ZM155.594 154.617C156.93 154.617 157.82 155.602 157.852 157.094H153.211C153.312 155.602 154.25 154.617 155.594 154.617ZM161.375 162H162.719V156.781C162.719 155.594 163.648 154.734 164.93 154.734C165.195 154.734 165.68 154.781 165.789 154.812V153.469C165.617 153.445 165.336 153.43 165.117 153.43C164 153.43 163.031 154.008 162.781 154.828H162.656V153.578H161.375V162ZM172.812 159.82C172.461 160.562 171.727 160.961 170.641 160.961C169.211 160.961 168.281 159.906 168.211 158.242V158.18H174.266V157.664C174.266 155.047 172.883 153.43 170.609 153.43C168.297 153.43 166.812 155.148 166.812 157.797C166.812 160.461 168.273 162.148 170.609 162.148C172.453 162.148 173.766 161.258 174.156 159.82H172.812ZM170.594 154.617C171.93 154.617 172.82 155.602 172.852 157.094H168.211C168.312 155.602 169.25 154.617 170.594 154.617ZM191.484 153.578H190.133L188.477 160.312H188.352L186.469 153.578H185.18L183.297 160.312H183.172L181.516 153.578H180.156L182.516 162H183.875L185.75 155.484H185.875L187.758 162H189.125L191.484 153.578ZM195.391 162.148C196.516 162.148 197.438 161.656 197.984 160.758H198.109V162H199.391V156.234C199.391 154.484 198.242 153.43 196.188 153.43C194.391 153.43 193.062 154.32 192.883 155.672H194.242C194.43 155.008 195.133 154.625 196.141 154.625C197.398 154.625 198.047 155.195 198.047 156.234V157L195.617 157.148C193.656 157.266 192.547 158.133 192.547 159.641C192.547 161.18 193.758 162.148 195.391 162.148ZM195.641 160.969C194.664 160.969 193.938 160.469 193.938 159.609C193.938 158.766 194.5 158.32 195.781 158.234L198.047 158.086V158.859C198.047 160.062 197.023 160.969 195.641 160.969ZM201.68 155.883C201.68 157.102 202.398 157.781 203.977 158.164L205.422 158.516C206.32 158.734 206.758 159.125 206.758 159.703C206.758 160.477 205.945 161.016 204.812 161.016C203.734 161.016 203.062 160.562 202.836 159.852H201.453C201.602 161.25 202.891 162.148 204.766 162.148C206.68 162.148 208.141 161.109 208.141 159.602C208.141 158.391 207.375 157.703 205.789 157.32L204.492 157.008C203.5 156.766 203.031 156.406 203.031 155.828C203.031 155.078 203.812 154.57 204.812 154.57C205.828 154.57 206.484 155.016 206.664 155.688H207.992C207.812 154.305 206.586 153.43 204.82 153.43C203.031 153.43 201.68 154.484 201.68 155.883ZM217.109 162.148C218.234 162.148 219.156 161.656 219.703 160.758H219.828V162H221.109V156.234C221.109 154.484 219.961 153.43 217.906 153.43C216.109 153.43 214.781 154.32 214.602 155.672H215.961C216.148 155.008 216.852 154.625 217.859 154.625C219.117 154.625 219.766 155.195 219.766 156.234V157L217.336 157.148C215.375 157.266 214.266 158.133 214.266 159.641C214.266 161.18 215.477 162.148 217.109 162.148ZM217.359 160.969C216.383 160.969 215.656 160.469 215.656 159.609C215.656 158.766 216.219 158.32 217.5 158.234L219.766 158.086V158.859C219.766 160.062 218.742 160.969 217.359 160.969ZM223.594 162H224.938V157.016C224.938 155.539 225.805 154.641 227.148 154.641C228.492 154.641 229.133 155.359 229.133 156.875V162H230.477V156.547C230.477 154.547 229.422 153.43 227.531 153.43C226.242 153.43 225.422 153.977 225 154.906H224.875V153.578H223.594V162ZM243.031 159.82C242.68 160.562 241.945 160.961 240.859 160.961C239.43 160.961 238.5 159.906 238.43 158.242V158.18H244.484V157.664C244.484 155.047 243.102 153.43 240.828 153.43C238.516 153.43 237.031 155.148 237.031 157.797C237.031 160.461 238.492 162.148 240.828 162.148C242.672 162.148 243.984 161.258 244.375 159.82H243.031ZM240.812 154.617C242.148 154.617 243.039 155.602 243.07 157.094H238.43C238.531 155.602 239.469 154.617 240.812 154.617ZM246.594 162H247.938V156.781C247.938 155.594 248.867 154.734 250.148 154.734C250.414 154.734 250.898 154.781 251.008 154.812V153.469C250.836 153.445 250.555 153.43 250.336 153.43C249.219 153.43 248.25 154.008 248 154.828H247.875V153.578H246.594V162ZM252.844 162H254.188V156.781C254.188 155.594 255.117 154.734 256.398 154.734C256.664 154.734 257.148 154.781 257.258 154.812V153.469C257.086 153.445 256.805 153.43 256.586 153.43C255.469 153.43 254.5 154.008 254.25 154.828H254.125V153.578H252.844V162ZM262.164 162.148C264.562 162.148 266.047 160.492 266.047 157.789C266.047 155.078 264.562 153.43 262.164 153.43C259.766 153.43 258.281 155.078 258.281 157.789C258.281 160.492 259.766 162.148 262.164 162.148ZM262.164 160.938C260.57 160.938 259.672 159.781 259.672 157.789C259.672 155.789 260.57 154.641 262.164 154.641C263.758 154.641 264.656 155.789 264.656 157.789C264.656 159.781 263.758 160.938 262.164 160.938ZM268.156 162H269.5V156.781C269.5 155.594 270.43 154.734 271.711 154.734C271.977 154.734 272.461 154.781 272.57 154.812V153.469C272.398 153.445 272.117 153.43 271.898 153.43C270.781 153.43 269.812 154.008 269.562 154.828H269.438V153.578H268.156V162ZM278.57 155.883C278.57 157.102 279.289 157.781 280.867 158.164L282.312 158.516C283.211 158.734 283.648 159.125 283.648 159.703C283.648 160.477 282.836 161.016 281.703 161.016C280.625 161.016 279.953 160.562 279.727 159.852H278.344C278.492 161.25 279.781 162.148 281.656 162.148C283.57 162.148 285.031 161.109 285.031 159.602C285.031 158.391 284.266 157.703 282.68 157.32L281.383 157.008C280.391 156.766 279.922 156.406 279.922 155.828C279.922 155.078 280.703 154.57 281.703 154.57C282.719 154.57 283.375 155.016 283.555 155.688H284.883C284.703 154.305 283.477 153.43 281.711 153.43C279.922 153.43 278.57 154.484 278.57 155.883ZM292.719 159.82C292.367 160.562 291.633 160.961 290.547 160.961C289.117 160.961 288.188 159.906 288.117 158.242V158.18H294.172V157.664C294.172 155.047 292.789 153.43 290.516 153.43C288.203 153.43 286.719 155.148 286.719 157.797C286.719 160.461 288.18 162.148 290.516 162.148C292.359 162.148 293.672 161.258 294.062 159.82H292.719ZM290.5 154.617C291.836 154.617 292.727 155.602 292.758 157.094H288.117C288.219 155.602 289.156 154.617 290.5 154.617ZM296.844 151.398V153.578H295.484V154.703H296.844V159.812C296.844 161.422 297.539 162.062 299.273 162.062C299.539 162.062 299.797 162.031 300.062 161.984V160.852C299.812 160.875 299.68 160.883 299.438 160.883C298.562 160.883 298.188 160.461 298.188 159.469V154.703H300.062V153.578H298.188V151.398H296.844ZM302.656 151.398V153.578H301.297V154.703H302.656V159.812C302.656 161.422 303.352 162.062 305.086 162.062C305.352 162.062 305.609 162.031 305.875 161.984V160.852C305.625 160.875 305.492 160.883 305.25 160.883C304.375 160.883 304 160.461 304 159.469V154.703H305.875V153.578H304V151.398H302.656ZM308.609 151.953C309.125 151.953 309.547 151.531 309.547 151.016C309.547 150.5 309.125 150.078 308.609 150.078C308.094 150.078 307.672 150.5 307.672 151.016C307.672 151.531 308.094 151.953 308.609 151.953ZM307.938 162H309.281V153.578H307.938V162ZM311.844 162H313.188V157.016C313.188 155.539 314.055 154.641 315.398 154.641C316.742 154.641 317.383 155.359 317.383 156.875V162H318.727V156.547C318.727 154.547 317.672 153.43 315.781 153.43C314.492 153.43 313.672 153.977 313.25 154.906H313.125V153.578H311.844V162ZM324.656 165.234C326.953 165.234 328.406 164.031 328.406 162.148V153.578H327.125V154.914H327C326.516 154.008 325.477 153.43 324.297 153.43C322.133 153.43 320.766 155.141 320.766 157.664C320.766 160.188 322.117 161.875 324.297 161.875C325.453 161.875 326.406 161.352 326.938 160.422H327.062V162.078C327.062 163.32 326.164 164.062 324.656 164.062C323.445 164.062 322.695 163.617 322.547 162.93H321.125C321.328 164.32 322.625 165.234 324.656 165.234ZM324.594 160.688C323.031 160.688 322.156 159.5 322.156 157.664C322.156 155.828 323.031 154.641 324.594 154.641C326.148 154.641 327.094 155.828 327.094 157.664C327.094 159.5 326.156 160.688 324.594 160.688ZM342.266 153.578H340.922V158.562C340.922 160.039 340.109 160.922 338.625 160.922C337.281 160.922 336.719 160.219 336.719 158.703V153.578H335.375V159.031C335.375 161.023 336.359 162.148 338.25 162.148C339.539 162.148 340.438 161.617 340.859 160.68H340.984V162H342.266V153.578ZM348.898 153.43C347.75 153.43 346.742 154.016 346.203 154.984H346.078V153.578H344.797V164.812H346.141V160.734H346.266C346.727 161.625 347.695 162.148 348.898 162.148C351.039 162.148 352.438 160.422 352.438 157.789C352.438 155.141 351.047 153.43 348.898 153.43ZM348.578 160.938C347.062 160.938 346.102 159.719 346.102 157.789C346.102 155.852 347.062 154.641 348.586 154.641C350.125 154.641 351.047 155.82 351.047 157.789C351.047 159.758 350.125 160.938 348.578 160.938ZM359.781 165.047C361.273 165.047 361.945 164.469 362.664 162.516L365.953 153.578H364.523L362.219 160.508H362.094L359.781 153.578H358.328L361.445 162.008L361.289 162.508C360.938 163.523 360.516 163.891 359.742 163.891C359.555 163.891 359.344 163.883 359.18 163.852V165C359.367 165.031 359.602 165.047 359.781 165.047ZM370.898 162.148C373.297 162.148 374.781 160.492 374.781 157.789C374.781 155.078 373.297 153.43 370.898 153.43C368.5 153.43 367.016 155.078 367.016 157.789C367.016 160.492 368.5 162.148 370.898 162.148ZM370.898 160.938C369.305 160.938 368.406 159.781 368.406 157.789C368.406 155.789 369.305 154.641 370.898 154.641C372.492 154.641 373.391 155.789 373.391 157.789C373.391 159.781 372.492 160.938 370.898 160.938ZM383.703 153.578H382.359V158.562C382.359 160.039 381.547 160.922 380.062 160.922C378.719 160.922 378.156 160.219 378.156 158.703V153.578H376.812V159.031C376.812 161.023 377.797 162.148 379.688 162.148C380.977 162.148 381.875 161.617 382.297 160.68H382.422V162H383.703V153.578ZM386.234 162H387.578V156.781C387.578 155.594 388.508 154.734 389.789 154.734C390.055 154.734 390.539 154.781 390.648 154.812V153.469C390.477 153.445 390.195 153.43 389.977 153.43C388.859 153.43 387.891 154.008 387.641 154.828H387.516V153.578H386.234V162ZM37.3672 177.43C36.2188 177.43 35.2109 178.016 34.6719 178.984H34.5469V177.578H33.2656V188.812H34.6094V184.734H34.7344C35.1953 185.625 36.1641 186.148 37.3672 186.148C39.5078 186.148 40.9062 184.422 40.9062 181.789C40.9062 179.141 39.5156 177.43 37.3672 177.43ZM37.0469 184.938C35.5312 184.938 34.5703 183.719 34.5703 181.789C34.5703 179.852 35.5312 178.641 37.0547 178.641C38.5938 178.641 39.5156 179.82 39.5156 181.789C39.5156 183.758 38.5938 184.938 37.0469 184.938ZM45.3594 186.148C46.4844 186.148 47.4062 185.656 47.9531 184.758H48.0781V186H49.3594V180.234C49.3594 178.484 48.2109 177.43 46.1562 177.43C44.3594 177.43 43.0312 178.32 42.8516 179.672H44.2109C44.3984 179.008 45.1016 178.625 46.1094 178.625C47.3672 178.625 48.0156 179.195 48.0156 180.234V181L45.5859 181.148C43.625 181.266 42.5156 182.133 42.5156 183.641C42.5156 185.18 43.7266 186.148 45.3594 186.148ZM45.6094 184.969C44.6328 184.969 43.9062 184.469 43.9062 183.609C43.9062 182.766 44.4688 182.32 45.75 182.234L48.0156 182.086V182.859C48.0156 184.062 46.9922 184.969 45.6094 184.969ZM52.25 189.047C53.7422 189.047 54.4141 188.469 55.1328 186.516L58.4219 177.578H56.9922L54.6875 184.508H54.5625L52.25 177.578H50.7969L53.9141 186.008L53.7578 186.508C53.4062 187.523 52.9844 187.891 52.2109 187.891C52.0234 187.891 51.8125 187.883 51.6484 187.852V189C51.8359 189.031 52.0703 189.047 52.25 189.047ZM60.2188 186H61.5625V180.781C61.5625 179.594 62.4141 178.641 63.5156 178.641C64.5781 178.641 65.2734 179.281 65.2734 180.281V186H66.6172V180.586C66.6172 179.516 67.3984 178.641 68.5703 178.641C69.7578 178.641 70.3438 179.25 70.3438 180.492V186H71.6875V180.18C71.6875 178.414 70.7266 177.43 69.0078 177.43C67.8438 177.43 66.8828 178.016 66.4297 178.906H66.3047C65.9141 178.031 65.1172 177.43 63.9766 177.43C62.8516 177.43 62.0078 177.969 61.625 178.906H61.5V177.578H60.2188V186ZM79.7188 183.82C79.3672 184.562 78.6328 184.961 77.5469 184.961C76.1172 184.961 75.1875 183.906 75.1172 182.242V182.18H81.1719V181.664C81.1719 179.047 79.7891 177.43 77.5156 177.43C75.2031 177.43 73.7188 179.148 73.7188 181.797C73.7188 184.461 75.1797 186.148 77.5156 186.148C79.3594 186.148 80.6719 185.258 81.0625 183.82H79.7188ZM77.5 178.617C78.8359 178.617 79.7266 179.602 79.7578 181.094H75.1172C75.2188 179.602 76.1562 178.617 77.5 178.617ZM83.2812 186H84.625V181.016C84.625 179.539 85.4922 178.641 86.8359 178.641C88.1797 178.641 88.8203 179.359 88.8203 180.875V186H90.1641V180.547C90.1641 178.547 89.1094 177.43 87.2188 177.43C85.9297 177.43 85.1094 177.977 84.6875 178.906H84.5625V177.578H83.2812V186ZM93.1875 175.398V177.578H91.8281V178.703H93.1875V183.812C93.1875 185.422 93.8828 186.062 95.6172 186.062C95.8828 186.062 96.1406 186.031 96.4062 185.984V184.852C96.1562 184.875 96.0234 184.883 95.7812 184.883C94.9062 184.883 94.5312 184.461 94.5312 183.469V178.703H96.4062V177.578H94.5312V175.398H93.1875ZM102.953 186H104.297V180.781C104.297 179.594 105.148 178.641 106.25 178.641C107.312 178.641 108.008 179.281 108.008 180.281V186H109.352V180.586C109.352 179.516 110.133 178.641 111.305 178.641C112.492 178.641 113.078 179.25 113.078 180.492V186H114.422V180.18C114.422 178.414 113.461 177.43 111.742 177.43C110.578 177.43 109.617 178.016 109.164 178.906H109.039C108.648 178.031 107.852 177.43 106.711 177.43C105.586 177.43 104.742 177.969 104.359 178.906H104.234V177.578H102.953V186ZM122.453 183.82C122.102 184.562 121.367 184.961 120.281 184.961C118.852 184.961 117.922 183.906 117.852 182.242V182.18H123.906V181.664C123.906 179.047 122.523 177.43 120.25 177.43C117.938 177.43 116.453 179.148 116.453 181.797C116.453 184.461 117.914 186.148 120.25 186.148C122.094 186.148 123.406 185.258 123.797 183.82H122.453ZM120.234 178.617C121.57 178.617 122.461 179.602 122.492 181.094H117.852C117.953 179.602 118.891 178.617 120.234 178.617ZM126.578 175.398V177.578H125.219V178.703H126.578V183.812C126.578 185.422 127.273 186.062 129.008 186.062C129.273 186.062 129.531 186.031 129.797 185.984V184.852C129.547 184.875 129.414 184.883 129.172 184.883C128.297 184.883 127.922 184.461 127.922 183.469V178.703H129.797V177.578H127.922V175.398H126.578ZM131.906 186H133.25V181.016C133.25 179.594 134.078 178.641 135.586 178.641C136.859 178.641 137.531 179.383 137.531 180.875V186H138.875V180.547C138.875 178.57 137.75 177.43 135.969 177.43C134.68 177.43 133.797 177.977 133.375 178.906H133.25V174.234H131.906V186ZM144.789 186.148C147.188 186.148 148.672 184.492 148.672 181.789C148.672 179.078 147.188 177.43 144.789 177.43C142.391 177.43 140.906 179.078 140.906 181.789C140.906 184.492 142.391 186.148 144.789 186.148ZM144.789 184.938C143.195 184.938 142.297 183.781 142.297 181.789C142.297 179.789 143.195 178.641 144.789 178.641C146.383 178.641 147.281 179.789 147.281 181.789C147.281 183.781 146.383 184.938 144.789 184.938ZM153.898 186.148C155.062 186.148 156.062 185.594 156.594 184.656H156.719V186H158V174.234H156.656V178.906H156.539C156.062 177.984 155.07 177.43 153.898 177.43C151.758 177.43 150.359 179.148 150.359 181.789C150.359 184.438 151.742 186.148 153.898 186.148ZM154.211 178.641C155.734 178.641 156.688 179.859 156.688 181.789C156.688 183.734 155.742 184.938 154.211 184.938C152.672 184.938 151.75 183.758 151.75 181.789C151.75 179.828 152.68 178.641 154.211 178.641ZM161.719 186.078C162.281 186.078 162.734 185.617 162.734 185.062C162.734 184.5 162.281 184.047 161.719 184.047C161.164 184.047 160.703 184.5 160.703 185.062C160.703 185.617 161.164 186.078 161.719 186.078ZM170.047 174.727V186H171.453V181.977H174.289C176.406 181.977 177.914 180.484 177.914 178.375C177.914 176.227 176.438 174.727 174.305 174.727H170.047ZM171.453 175.977H173.938C175.57 175.977 176.469 176.828 176.469 178.375C176.469 179.867 175.539 180.727 173.938 180.727H171.453V175.977ZM180.125 186H181.469V174.234H180.125V186ZM189.656 183.82C189.305 184.562 188.57 184.961 187.484 184.961C186.055 184.961 185.125 183.906 185.055 182.242V182.18H191.109V181.664C191.109 179.047 189.727 177.43 187.453 177.43C185.141 177.43 183.656 179.148 183.656 181.797C183.656 184.461 185.117 186.148 187.453 186.148C189.297 186.148 190.609 185.258 191 183.82H189.656ZM187.438 178.617C188.773 178.617 189.664 179.602 189.695 181.094H185.055C185.156 179.602 186.094 178.617 187.438 178.617ZM195.562 186.148C196.688 186.148 197.609 185.656 198.156 184.758H198.281V186H199.562V180.234C199.562 178.484 198.414 177.43 196.359 177.43C194.562 177.43 193.234 178.32 193.055 179.672H194.414C194.602 179.008 195.305 178.625 196.312 178.625C197.57 178.625 198.219 179.195 198.219 180.234V181L195.789 181.148C193.828 181.266 192.719 182.133 192.719 183.641C192.719 185.18 193.93 186.148 195.562 186.148ZM195.812 184.969C194.836 184.969 194.109 184.469 194.109 183.609C194.109 182.766 194.672 182.32 195.953 182.234L198.219 182.086V182.859C198.219 184.062 197.195 184.969 195.812 184.969ZM201.852 179.883C201.852 181.102 202.57 181.781 204.148 182.164L205.594 182.516C206.492 182.734 206.93 183.125 206.93 183.703C206.93 184.477 206.117 185.016 204.984 185.016C203.906 185.016 203.234 184.562 203.008 183.852H201.625C201.773 185.25 203.062 186.148 204.938 186.148C206.852 186.148 208.312 185.109 208.312 183.602C208.312 182.391 207.547 181.703 205.961 181.32L204.664 181.008C203.672 180.766 203.203 180.406 203.203 179.828C203.203 179.078 203.984 178.57 204.984 178.57C206 178.57 206.656 179.016 206.836 179.688H208.164C207.984 178.305 206.758 177.43 204.992 177.43C203.203 177.43 201.852 178.484 201.852 179.883ZM216 183.82C215.648 184.562 214.914 184.961 213.828 184.961C212.398 184.961 211.469 183.906 211.398 182.242V182.18H217.453V181.664C217.453 179.047 216.07 177.43 213.797 177.43C211.484 177.43 210 179.148 210 181.797C210 184.461 211.461 186.148 213.797 186.148C215.641 186.148 216.953 185.258 217.344 183.82H216ZM213.781 178.617C215.117 178.617 216.008 179.602 216.039 181.094H211.398C211.5 179.602 212.438 178.617 213.781 178.617ZM224.641 175.398V177.578H223.281V178.703H224.641V183.812C224.641 185.422 225.336 186.062 227.07 186.062C227.336 186.062 227.594 186.031 227.859 185.984V184.852C227.609 184.875 227.477 184.883 227.234 184.883C226.359 184.883 225.984 184.461 225.984 183.469V178.703H227.859V177.578H225.984V175.398H224.641ZM229.891 186H231.234V180.781C231.234 179.594 232.164 178.734 233.445 178.734C233.711 178.734 234.195 178.781 234.305 178.812V177.469C234.133 177.445 233.852 177.43 233.633 177.43C232.516 177.43 231.547 178.008 231.297 178.828H231.172V177.578H229.891V186ZM236.703 189.047C238.195 189.047 238.867 188.469 239.586 186.516L242.875 177.578H241.445L239.141 184.508H239.016L236.703 177.578H235.25L238.367 186.008L238.211 186.508C237.859 187.523 237.438 187.891 236.664 187.891C236.477 187.891 236.266 187.883 236.102 187.852V189C236.289 189.031 236.523 189.047 236.703 189.047ZM251.531 186.148C252.656 186.148 253.578 185.656 254.125 184.758H254.25V186H255.531V180.234C255.531 178.484 254.383 177.43 252.328 177.43C250.531 177.43 249.203 178.32 249.023 179.672H250.383C250.57 179.008 251.273 178.625 252.281 178.625C253.539 178.625 254.188 179.195 254.188 180.234V181L251.758 181.148C249.797 181.266 248.688 182.133 248.688 183.641C248.688 185.18 249.898 186.148 251.531 186.148ZM251.781 184.969C250.805 184.969 250.078 184.469 250.078 183.609C250.078 182.766 250.641 182.32 251.922 182.234L254.188 182.086V182.859C254.188 184.062 253.164 184.969 251.781 184.969ZM261.484 189.234C263.781 189.234 265.234 188.031 265.234 186.148V177.578H263.953V178.914H263.828C263.344 178.008 262.305 177.43 261.125 177.43C258.961 177.43 257.594 179.141 257.594 181.664C257.594 184.188 258.945 185.875 261.125 185.875C262.281 185.875 263.234 185.352 263.766 184.422H263.891V186.078C263.891 187.32 262.992 188.062 261.484 188.062C260.273 188.062 259.523 187.617 259.375 186.93H257.953C258.156 188.32 259.453 189.234 261.484 189.234ZM261.422 184.688C259.859 184.688 258.984 183.5 258.984 181.664C258.984 179.828 259.859 178.641 261.422 178.641C262.977 178.641 263.922 179.828 263.922 181.664C263.922 183.5 262.984 184.688 261.422 184.688ZM270.109 186.148C271.234 186.148 272.156 185.656 272.703 184.758H272.828V186H274.109V180.234C274.109 178.484 272.961 177.43 270.906 177.43C269.109 177.43 267.781 178.32 267.602 179.672H268.961C269.148 179.008 269.852 178.625 270.859 178.625C272.117 178.625 272.766 179.195 272.766 180.234V181L270.336 181.148C268.375 181.266 267.266 182.133 267.266 183.641C267.266 185.18 268.477 186.148 270.109 186.148ZM270.359 184.969C269.383 184.969 268.656 184.469 268.656 183.609C268.656 182.766 269.219 182.32 270.5 182.234L272.766 182.086V182.859C272.766 184.062 271.742 184.969 270.359 184.969ZM277.297 175.953C277.812 175.953 278.234 175.531 278.234 175.016C278.234 174.5 277.812 174.078 277.297 174.078C276.781 174.078 276.359 174.5 276.359 175.016C276.359 175.531 276.781 175.953 277.297 175.953ZM276.625 186H277.969V177.578H276.625V186ZM280.531 186H281.875V181.016C281.875 179.539 282.742 178.641 284.086 178.641C285.43 178.641 286.07 179.359 286.07 180.875V186H287.414V180.547C287.414 178.547 286.359 177.43 284.469 177.43C283.18 177.43 282.359 177.977 281.938 178.906H281.812V177.578H280.531V186ZM304.984 177.578H303.633L301.977 184.312H301.852L299.969 177.578H298.68L296.797 184.312H296.672L295.016 177.578H293.656L296.016 186H297.375L299.25 179.484H299.375L301.258 186H302.625L304.984 177.578ZM307.484 175.953C308 175.953 308.422 175.531 308.422 175.016C308.422 174.5 308 174.078 307.484 174.078C306.969 174.078 306.547 174.5 306.547 175.016C306.547 175.531 306.969 175.953 307.484 175.953ZM306.812 186H308.156V177.578H306.812V186ZM311.281 175.398V177.578H309.922V178.703H311.281V183.812C311.281 185.422 311.977 186.062 313.711 186.062C313.977 186.062 314.234 186.031 314.5 185.984V184.852C314.25 184.875 314.117 184.883 313.875 184.883C313 184.883 312.625 184.461 312.625 183.469V178.703H314.5V177.578H312.625V175.398H311.281ZM316.609 186H317.953V181.016C317.953 179.594 318.781 178.641 320.289 178.641C321.562 178.641 322.234 179.383 322.234 180.875V186H323.578V180.547C323.578 178.57 322.453 177.43 320.672 177.43C319.383 177.43 318.5 177.977 318.078 178.906H317.953V174.234H316.609V186ZM332.891 186.148C334.016 186.148 334.938 185.656 335.484 184.758H335.609V186H336.891V180.234C336.891 178.484 335.742 177.43 333.688 177.43C331.891 177.43 330.562 178.32 330.383 179.672H331.742C331.93 179.008 332.633 178.625 333.641 178.625C334.898 178.625 335.547 179.195 335.547 180.234V181L333.117 181.148C331.156 181.266 330.047 182.133 330.047 183.641C330.047 185.18 331.258 186.148 332.891 186.148ZM333.141 184.969C332.164 184.969 331.438 184.469 331.438 183.609C331.438 182.766 332 182.32 333.281 182.234L335.547 182.086V182.859C335.547 184.062 334.523 184.969 333.141 184.969ZM36.3828 210.148C37.5469 210.148 38.5469 209.594 39.0781 208.656H39.2031V210H40.4844V198.234H39.1406V202.906H39.0234C38.5469 201.984 37.5547 201.43 36.3828 201.43C34.2422 201.43 32.8438 203.148 32.8438 205.789C32.8438 208.438 34.2266 210.148 36.3828 210.148ZM36.6953 202.641C38.2188 202.641 39.1719 203.859 39.1719 205.789C39.1719 207.734 38.2266 208.938 36.6953 208.938C35.1562 208.938 34.2344 207.758 34.2344 205.789C34.2344 203.828 35.1641 202.641 36.6953 202.641ZM43.7969 199.953C44.3125 199.953 44.7344 199.531 44.7344 199.016C44.7344 198.5 44.3125 198.078 43.7969 198.078C43.2812 198.078 42.8594 198.5 42.8594 199.016C42.8594 199.531 43.2812 199.953 43.7969 199.953ZM43.125 210H44.4688V201.578H43.125V210ZM47.5938 210H48.9375V202.703H50.8672V201.578H48.9375V200.68C48.9375 199.758 49.3438 199.289 50.3125 199.289C50.5547 199.289 50.7812 199.297 50.9453 199.328V198.234C50.6641 198.18 50.3672 198.156 50.0391 198.156C48.4375 198.156 47.5938 198.961 47.5938 200.641V201.578H46.1953V202.703H47.5938V210ZM53.3906 210H54.7344V202.703H56.6641V201.578H54.7344V200.68C54.7344 199.758 55.1406 199.289 56.1094 199.289C56.3516 199.289 56.5781 199.297 56.7422 199.328V198.234C56.4609 198.18 56.1641 198.156 55.8359 198.156C54.2344 198.156 53.3906 198.961 53.3906 200.641V201.578H51.9922V202.703H53.3906V210ZM63.8438 207.82C63.4922 208.562 62.7578 208.961 61.6719 208.961C60.2422 208.961 59.3125 207.906 59.2422 206.242V206.18H65.2969V205.664C65.2969 203.047 63.9141 201.43 61.6406 201.43C59.3281 201.43 57.8438 203.148 57.8438 205.797C57.8438 208.461 59.3047 210.148 61.6406 210.148C63.4844 210.148 64.7969 209.258 65.1875 207.82H63.8438ZM61.625 202.617C62.9609 202.617 63.8516 203.602 63.8828 205.094H59.2422C59.3438 203.602 60.2812 202.617 61.625 202.617ZM67.4062 210H68.75V204.781C68.75 203.594 69.6797 202.734 70.9609 202.734C71.2266 202.734 71.7109 202.781 71.8203 202.812V201.469C71.6484 201.445 71.3672 201.43 71.1484 201.43C70.0312 201.43 69.0625 202.008 68.8125 202.828H68.6875V201.578H67.4062V210ZM78.8438 207.82C78.4922 208.562 77.7578 208.961 76.6719 208.961C75.2422 208.961 74.3125 207.906 74.2422 206.242V206.18H80.2969V205.664C80.2969 203.047 78.9141 201.43 76.6406 201.43C74.3281 201.43 72.8438 203.148 72.8438 205.797C72.8438 208.461 74.3047 210.148 76.6406 210.148C78.4844 210.148 79.7969 209.258 80.1875 207.82H78.8438ZM76.625 202.617C77.9609 202.617 78.8516 203.602 78.8828 205.094H74.2422C74.3438 203.602 75.2812 202.617 76.625 202.617ZM82.4062 210H83.75V205.016C83.75 203.539 84.6172 202.641 85.9609 202.641C87.3047 202.641 87.9453 203.359 87.9453 204.875V210H89.2891V204.547C89.2891 202.547 88.2344 201.43 86.3438 201.43C85.0547 201.43 84.2344 201.977 83.8125 202.906H83.6875V201.578H82.4062V210ZM92.3125 199.398V201.578H90.9531V202.703H92.3125V207.812C92.3125 209.422 93.0078 210.062 94.7422 210.062C95.0078 210.062 95.2656 210.031 95.5312 209.984V208.852C95.2812 208.875 95.1484 208.883 94.9062 208.883C94.0312 208.883 93.6562 208.461 93.6562 207.469V202.703H95.5312V201.578H93.6562V199.398H92.3125ZM106.18 201.43C105.031 201.43 104.023 202.016 103.484 202.984H103.359V201.578H102.078V212.812H103.422V208.734H103.547C104.008 209.625 104.977 210.148 106.18 210.148C108.32 210.148 109.719 208.422 109.719 205.789C109.719 203.141 108.328 201.43 106.18 201.43ZM105.859 208.938C104.344 208.938 103.383 207.719 103.383 205.789C103.383 203.852 104.344 202.641 105.867 202.641C107.406 202.641 108.328 203.82 108.328 205.789C108.328 207.758 107.406 208.938 105.859 208.938ZM114.172 210.148C115.297 210.148 116.219 209.656 116.766 208.758H116.891V210H118.172V204.234C118.172 202.484 117.023 201.43 114.969 201.43C113.172 201.43 111.844 202.32 111.664 203.672H113.023C113.211 203.008 113.914 202.625 114.922 202.625C116.18 202.625 116.828 203.195 116.828 204.234V205L114.398 205.148C112.438 205.266 111.328 206.133 111.328 207.641C111.328 209.18 112.539 210.148 114.172 210.148ZM114.422 208.969C113.445 208.969 112.719 208.469 112.719 207.609C112.719 206.766 113.281 206.32 114.562 206.234L116.828 206.086V206.859C116.828 208.062 115.805 208.969 114.422 208.969ZM121.062 213.047C122.555 213.047 123.227 212.469 123.945 210.516L127.234 201.578H125.805L123.5 208.508H123.375L121.062 201.578H119.609L122.727 210.008L122.57 210.508C122.219 211.523 121.797 211.891 121.023 211.891C120.836 211.891 120.625 211.883 120.461 211.852V213C120.648 213.031 120.883 213.047 121.062 213.047ZM129.031 210H130.375V204.781C130.375 203.594 131.227 202.641 132.328 202.641C133.391 202.641 134.086 203.281 134.086 204.281V210H135.43V204.586C135.43 203.516 136.211 202.641 137.383 202.641C138.57 202.641 139.156 203.25 139.156 204.492V210H140.5V204.18C140.5 202.414 139.539 201.43 137.82 201.43C136.656 201.43 135.695 202.016 135.242 202.906H135.117C134.727 202.031 133.93 201.43 132.789 201.43C131.664 201.43 130.82 201.969 130.438 202.906H130.312V201.578H129.031V210ZM148.531 207.82C148.18 208.562 147.445 208.961 146.359 208.961C144.93 208.961 144 207.906 143.93 206.242V206.18H149.984V205.664C149.984 203.047 148.602 201.43 146.328 201.43C144.016 201.43 142.531 203.148 142.531 205.797C142.531 208.461 143.992 210.148 146.328 210.148C148.172 210.148 149.484 209.258 149.875 207.82H148.531ZM146.312 202.617C147.648 202.617 148.539 203.602 148.57 205.094H143.93C144.031 203.602 144.969 202.617 146.312 202.617ZM152.094 210H153.438V205.016C153.438 203.539 154.305 202.641 155.648 202.641C156.992 202.641 157.633 203.359 157.633 204.875V210H158.977V204.547C158.977 202.547 157.922 201.43 156.031 201.43C154.742 201.43 153.922 201.977 153.5 202.906H153.375V201.578H152.094V210ZM162 199.398V201.578H160.641V202.703H162V207.812C162 209.422 162.695 210.062 164.43 210.062C164.695 210.062 164.953 210.031 165.219 209.984V208.852C164.969 208.875 164.836 208.883 164.594 208.883C163.719 208.883 163.344 208.461 163.344 207.469V202.703H165.219V201.578H163.344V199.398H162ZM171.766 210H173.109V204.781C173.109 203.594 173.961 202.641 175.062 202.641C176.125 202.641 176.82 203.281 176.82 204.281V210H178.164V204.586C178.164 203.516 178.945 202.641 180.117 202.641C181.305 202.641 181.891 203.25 181.891 204.492V210H183.234V204.18C183.234 202.414 182.273 201.43 180.555 201.43C179.391 201.43 178.43 202.016 177.977 202.906H177.852C177.461 202.031 176.664 201.43 175.523 201.43C174.398 201.43 173.555 201.969 173.172 202.906H173.047V201.578H171.766V210ZM191.266 207.82C190.914 208.562 190.18 208.961 189.094 208.961C187.664 208.961 186.734 207.906 186.664 206.242V206.18H192.719V205.664C192.719 203.047 191.336 201.43 189.062 201.43C186.75 201.43 185.266 203.148 185.266 205.797C185.266 208.461 186.727 210.148 189.062 210.148C190.906 210.148 192.219 209.258 192.609 207.82H191.266ZM189.047 202.617C190.383 202.617 191.273 203.602 191.305 205.094H186.664C186.766 203.602 187.703 202.617 189.047 202.617ZM195.391 199.398V201.578H194.031V202.703H195.391V207.812C195.391 209.422 196.086 210.062 197.82 210.062C198.086 210.062 198.344 210.031 198.609 209.984V208.852C198.359 208.875 198.227 208.883 197.984 208.883C197.109 208.883 196.734 208.461 196.734 207.469V202.703H198.609V201.578H196.734V199.398H195.391ZM200.719 210H202.062V205.016C202.062 203.594 202.891 202.641 204.398 202.641C205.672 202.641 206.344 203.383 206.344 204.875V210H207.688V204.547C207.688 202.57 206.562 201.43 204.781 201.43C203.492 201.43 202.609 201.977 202.188 202.906H202.062V198.234H200.719V210ZM213.602 210.148C216 210.148 217.484 208.492 217.484 205.789C217.484 203.078 216 201.43 213.602 201.43C211.203 201.43 209.719 203.078 209.719 205.789C209.719 208.492 211.203 210.148 213.602 210.148ZM213.602 208.938C212.008 208.938 211.109 207.781 211.109 205.789C211.109 203.789 212.008 202.641 213.602 202.641C215.195 202.641 216.094 203.789 216.094 205.789C216.094 207.781 215.195 208.938 213.602 208.938ZM222.711 210.148C223.875 210.148 224.875 209.594 225.406 208.656H225.531V210H226.812V198.234H225.469V202.906H225.352C224.875 201.984 223.883 201.43 222.711 201.43C220.57 201.43 219.172 203.148 219.172 205.789C219.172 208.438 220.555 210.148 222.711 210.148ZM223.023 202.641C224.547 202.641 225.5 203.859 225.5 205.789C225.5 207.734 224.555 208.938 223.023 208.938C221.484 208.938 220.562 207.758 220.562 205.789C220.562 203.828 221.492 202.641 223.023 202.641ZM230.531 210.078C231.094 210.078 231.547 209.617 231.547 209.062C231.547 208.5 231.094 208.047 230.531 208.047C229.977 208.047 229.516 208.5 229.516 209.062C229.516 209.617 229.977 210.078 230.531 210.078Z" fill="#4F566B"/>
<rect x="30" y="142" width="388" height="76" stroke="white" stroke-width="4"/>
<path d="M28 28H52V52H28V28Z" fill="white"/>
<path fill-rule="evenodd" clip-rule="evenodd" d="M40 52C33.3726 52 28 46.6274 28 40C28 33.3726 33.3726 28 40 28C46.6274 28 52 33.3726 52 40C52 46.6274 46.6274 52 40 52ZM42.1213 40L45.5607 43.4393C46.1464 44.0251 46.1464 44.9749 45.5607 45.5607C44.9749 46.1464 44.0251 46.1464 43.4393 45.5607L40 42.1213L36.5607 45.5607C35.9749 46.1464 35.0251 46.1464 34.4393 45.5607C33.8536 44.9749 33.8536 44.0251 34.4393 43.4393L37.8787 40L34.4393 36.5607C33.8536 35.9749 33.8536 35.0251 34.4393 34.4393C35.0251 33.8536 35.9749 33.8536 36.5607 34.4393L40 37.8787L43.4393 34.4393C44.0251 33.8536 44.9749 33.8536 45.5607 34.4393C46.1464 35.0251 46.1464 35.9749 45.5607 36.5607L42.1213 40Z" fill="#ED5F74"/>
<rect x="30" y="90" width="101" height="28" fill="white"/>
<path d="M32.8594 106.883C32.9453 108.969 34.6875 110.289 37.375 110.289C40.2031 110.289 41.9453 108.898 41.9453 106.648C41.9453 104.906 40.9688 103.93 38.7031 103.445L37.3438 103.156C36.0234 102.867 35.4844 102.453 35.4844 101.742C35.4844 100.859 36.2656 100.289 37.4453 100.289C38.5859 100.289 39.4141 100.891 39.5234 101.812H41.7422C41.6719 99.8203 39.9141 98.4375 37.4297 98.4375C34.8281 98.4375 33.1172 99.8281 33.1172 101.93C33.1172 103.641 34.125 104.695 36.1797 105.133L37.6484 105.453C39.0312 105.758 39.5938 106.188 39.5938 106.93C39.5938 107.805 38.7266 108.422 37.5 108.422C36.1719 108.422 35.25 107.82 35.1406 106.883H32.8594ZM49.5234 107.57C49.2812 108.156 48.6641 108.484 47.7656 108.484C46.5781 108.484 45.8281 107.664 45.7969 106.352V106.234H51.7109V105.555C51.7109 102.836 50.2109 101.211 47.6719 101.211C45.1094 101.211 43.5312 102.945 43.5312 105.742C43.5312 108.523 45.0781 110.18 47.7031 110.18C49.8125 110.18 51.3047 109.172 51.6406 107.57H49.5234ZM47.6797 102.906C48.7422 102.906 49.4297 103.641 49.4766 104.82H45.8047C45.8828 103.664 46.625 102.906 47.6797 102.906ZM54.2266 99.3438V101.477H52.8828V103.203H54.2266V107.68C54.2266 109.352 55.0547 110.031 57.1484 110.031C57.5859 110.031 58.0078 109.984 58.2891 109.93V108.25C58.0703 108.273 57.9141 108.289 57.6172 108.289C56.8438 108.289 56.5 107.93 56.5 107.156V103.203H58.2891V101.477H56.5V99.3438H54.2266ZM67.9844 101.398H65.7109V106.367C65.7109 107.547 65.1016 108.273 63.9688 108.273C62.9219 108.273 62.3828 107.656 62.3828 106.438V101.398H60.1094V107C60.1094 109 61.2656 110.18 63.125 110.18C64.4297 110.18 65.2344 109.617 65.6406 108.617H65.7812V110H67.9844V101.398ZM75.2422 101.258C74.0547 101.258 73.0781 101.844 72.6094 102.812H72.4688V101.398H70.2656V112.852H72.5391V108.688H72.6797C73.1016 109.594 74.0469 110.133 75.2812 110.133C77.4375 110.133 78.7578 108.461 78.7578 105.695C78.7578 102.922 77.4219 101.258 75.2422 101.258ZM74.4688 108.297C73.2656 108.297 72.5156 107.312 72.5156 105.703C72.5156 104.094 73.2656 103.102 74.4766 103.102C75.6875 103.102 76.4219 104.078 76.4219 105.695C76.4219 107.32 75.6953 108.297 74.4688 108.297ZM85.3984 110H87.6719V103.203H89.4531V101.477H87.625V100.75C87.625 100 87.9531 99.6328 88.8438 99.6328C89.1406 99.6328 89.375 99.6562 89.5234 99.6797V98.1094C89.1953 98.0625 88.8125 98.0234 88.3516 98.0234C86.2734 98.0234 85.3984 98.8828 85.3984 100.594V101.477H84.0078V103.203H85.3984V110ZM93.3438 110.133C94.4609 110.133 95.3984 109.656 95.8438 108.859H95.9844V110H98.1875V104.125C98.1875 102.289 96.8984 101.211 94.6172 101.211C92.4531 101.211 90.9922 102.203 90.8438 103.781H92.9375C93.125 103.242 93.6719 102.953 94.4922 102.953C95.4297 102.953 95.9453 103.383 95.9453 104.125V104.836L93.8594 104.961C91.7188 105.086 90.5234 105.992 90.5234 107.547C90.5234 109.117 91.6875 110.133 93.3438 110.133ZM94.0938 108.469C93.3047 108.469 92.75 108.07 92.75 107.406C92.75 106.773 93.2266 106.406 94.2031 106.344L95.9453 106.227V106.867C95.9453 107.773 95.1484 108.469 94.0938 108.469ZM101.578 100.078C102.281 100.078 102.859 99.5156 102.859 98.8125C102.859 98.1016 102.281 97.5391 101.578 97.5391C100.875 97.5391 100.289 98.1016 100.289 98.8125C100.289 99.5156 100.875 100.078 101.578 100.078ZM100.438 110H102.711V101.398H100.438V110ZM105.094 110H107.367V98.1094H105.094V110ZM115.305 107.57C115.062 108.156 114.445 108.484 113.547 108.484C112.359 108.484 111.609 107.664 111.578 106.352V106.234H117.492V105.555C117.492 102.836 115.992 101.211 113.453 101.211C110.891 101.211 109.312 102.945 109.312 105.742C109.312 108.523 110.859 110.18 113.484 110.18C115.594 110.18 117.086 109.172 117.422 107.57H115.305ZM113.461 102.906C114.523 102.906 115.211 103.641 115.258 104.82H111.586C111.664 103.664 112.406 102.906 113.461 102.906ZM122.445 110.133C123.641 110.133 124.617 109.578 125.078 108.648H125.219V110H127.422V98.1094H125.148V102.773H125.016C124.57 101.82 123.609 101.258 122.445 101.258C120.281 101.258 118.938 102.953 118.938 105.688C118.938 108.43 120.273 110.133 122.445 110.133ZM123.219 103.102C124.43 103.102 125.172 104.094 125.172 105.703C125.172 107.312 124.438 108.297 123.219 108.297C122 108.297 121.273 107.32 121.273 105.695C121.273 104.078 122.008 103.102 123.219 103.102Z" fill="#3C4257"/>
<rect x="30" y="90" width="101" height="28" stroke="white" stroke-width="4"/>
<rect x="0.5" y="0.5" width="447" height="239" rx="7.5" stroke="#E3E8EE"/>
<defs>
<clipPath id="clip0">
<path d="M0 0H448V240H0V0Z" fill="white"/>
</clipPath>
</defs>
</svg>
