<?xml version="1.0" standalone="no"?>
<!DOCTYPE svg PUBLIC "-//W3C//DTD SVG 20010904//EN"
 "http://www.w3.org/TR/2001/REC-SVG-20010904/DTD/svg10.dtd">
<svg version="1.0" xmlns="http://www.w3.org/2000/svg"
 width="512.000000pt" height="512.000000pt" viewBox="0 0 512.000000 512.000000"
 preserveAspectRatio="xMidYMid meet">
<metadata>
Created by potrace 1.11, written by Peter Selinger 2001-2013
</metadata>
<g transform="translate(0.000000,512.000000) scale(0.100000,-0.100000)"
fill="#000000" stroke="none">
<path d="M800 4896 c0 -143 4 -227 10 -231 7 -4 11 -97 11 -258 1 -543 12
-1203 19 -1212 5 -6 9 -184 10 -395 0 -234 4 -388 10 -394 15 -15 13 -216 -2
-216 -9 0 -9 -3 0 -12 9 -9 12 -104 12 -364 0 -235 3 -355 10 -359 8 -5 7 -11
-1 -21 -9 -11 -9 -18 -1 -26 13 -13 -1 -41 -42 -80 -15 -16 -24 -28 -20 -28 5
0 -18 -26 -50 -59 -37 -38 -54 -61 -47 -66 9 -5 9 -10 0 -21 -9 -11 -9 -18 -1
-26 7 -7 12 -27 12 -45 0 -18 5 -33 11 -33 6 0 9 -9 6 -20 -3 -11 -1 -23 4
-26 5 -3 9 -16 9 -30 0 -13 3 -24 8 -24 7 0 38 -63 41 -85 1 -5 12 -20 23 -32
18 -20 32 -23 93 -23 63 0 74 -3 95 -25 22 -23 23 -29 18 -136 -3 -61 -11
-116 -17 -122 -6 -6 -11 -23 -11 -38 0 -15 -5 -31 -10 -34 -6 -3 -10 -17 -10
-31 0 -13 -4 -24 -10 -24 -5 0 -10 -7 -10 -15 0 -13 53 -15 418 -15 230 0 422
-3 425 -7 4 -4 95 -7 201 -7 155 -1 192 2 184 12 -8 9 -3 18 18 35 16 12 32
21 36 20 5 -2 8 2 8 7 0 6 9 10 20 10 11 0 20 3 20 8 0 7 67 40 84 40 5 0 12
4 15 9 8 12 124 68 134 65 4 -1 7 3 7 8 0 6 11 10 24 10 14 0 28 5 31 10 8 13
95 13 95 0 0 -5 7 -10 15 -10 8 0 15 5 15 10 0 6 14 10 31 10 22 0 41 9 63 33
43 43 69 57 110 57 19 0 37 4 40 9 3 5 51 12 106 16 55 4 103 11 106 16 3 5
27 9 55 9 27 0 49 5 49 10 0 15 29 12 46 -4 8 -8 14 -21 14 -29 0 -8 7 -28 16
-46 19 -38 6 -61 -32 -61 -13 0 -24 -4 -24 -10 0 -5 -20 -10 -44 -10 -25 0
-47 -4 -50 -9 -4 -5 -49 -12 -101 -16 -52 -4 -98 -11 -101 -16 -3 -5 -23 -9
-44 -9 -21 0 -42 -4 -45 -10 -3 -5 -24 -10 -45 -10 -21 0 -42 -5 -46 -11 -3
-6 -17 -9 -30 -6 -14 2 -27 0 -30 -4 -3 -5 -20 -9 -39 -9 -18 0 -35 -4 -37 -8
-3 -8 -110 -62 -123 -62 -4 0 -15 -8 -24 -18 -16 -19 -50 -36 -63 -34 -5 1 -8
-2 -8 -7 0 -15 75 1 90 19 6 7 82 44 92 45 3 0 10 3 14 7 4 5 18 8 31 8 13 0
23 5 23 10 0 6 11 10 25 10 14 0 25 5 25 10 0 6 15 10 34 10 19 0 38 5 42 11
3 6 19 9 35 7 16 -3 29 -1 29 4 0 4 20 8 45 8 25 0 45 5 45 10 0 6 22 10 49
10 28 0 53 5 56 10 3 6 28 10 55 10 27 0 51 4 54 9 4 5 25 9 49 9 23 0 50 3
59 7 27 11 52 2 63 -23 5 -12 13 -22 17 -22 5 0 8 -10 8 -23 0 -13 5 -28 10
-33 21 -21 -24 -43 -98 -50 -40 -4 -72 -11 -72 -15 0 -5 -20 -9 -45 -9 -25 0
-45 -4 -45 -10 0 -5 -22 -10 -49 -10 -28 0 -52 -4 -55 -9 -3 -5 -40 -12 -81
-16 -55 -5 -75 -11 -75 -21 0 -17 95 -20 105 -4 3 5 19 10 35 10 16 0 31 4 34
8 3 5 21 8 41 7 19 -1 38 2 41 6 3 5 27 9 54 9 27 0 52 5 55 10 3 5 28 10 56
10 27 0 49 5 49 10 0 15 60 12 76 -4 8 -8 14 -28 14 -45 0 -17 5 -31 10 -31
15 0 12 -29 -4 -46 -8 -8 -24 -14 -35 -14 -12 0 -21 -4 -21 -10 0 -5 -20 -10
-44 -10 -25 0 -47 -4 -50 -9 -3 -5 -42 -12 -86 -16 -44 -4 -83 -11 -86 -16 -3
-5 -18 -9 -34 -9 -16 0 -32 -4 -35 -10 -3 -5 -24 -10 -46 -10 -33 0 -39 -3
-39 -21 0 -18 4 -20 33 -14 17 4 36 11 41 16 6 5 27 9 47 9 21 0 41 5 44 10 3
6 21 10 40 10 18 0 35 4 37 10 2 5 64 13 141 17 123 5 137 4 137 -10 0 -10 5
-17 10 -17 6 0 10 -22 10 -49 l0 -50 -57 -6 c-32 -3 -66 -10 -75 -15 -10 -6
-38 -10 -62 -10 -25 0 -48 -4 -51 -10 -3 -5 -19 -10 -34 -10 -15 0 -31 -4 -37
-9 -5 -5 -25 -11 -44 -14 -19 -2 2 -5 48 -5 49 -1 82 2 82 8 0 6 18 10 39 10
22 0 43 4 46 10 3 5 41 10 83 10 66 0 79 -3 90 -20 12 -20 22 -20 535 -18 287
1 497 3 467 5 -58 4 -90 24 -90 54 0 10 -4 21 -10 24 -5 3 -10 16 -10 29 0 12
-3 26 -7 30 -7 7 -10 17 -20 69 -3 15 -9 27 -14 27 -5 0 -9 11 -9 24 0 14 -4
28 -10 31 -5 3 -10 17 -10 30 0 13 -4 26 -9 30 -6 3 -13 26 -17 50 -3 25 -10
48 -15 51 -5 3 -9 16 -9 30 0 13 -4 24 -9 24 -8 0 -22 30 -27 60 -5 32 -17 60
-25 60 -5 0 -9 11 -9 25 0 14 -4 25 -10 25 -5 0 -10 11 -10 24 0 14 -4 27 -9
30 -14 9 -21 88 -8 100 8 7 91 12 236 14 298 5 300 4 301 -150 0 -53 4 -100
10 -103 6 -4 10 -110 10 -285 0 -153 3 -285 6 -294 5 -13 26 -16 125 -16 l119
0 0 38 c0 21 -4 42 -10 48 -6 6 -11 141 -12 351 l-1 341 24 24 c13 13 39 30
57 37 42 18 41 31 -3 31 -19 0 -35 5 -35 10 0 6 -11 10 -24 10 -14 0 -28 4
-31 10 -9 14 -81 12 -105 -3 -17 -10 -22 -9 -29 2 -6 9 -11 10 -15 2 -4 -6
-20 -11 -35 -11 -15 0 -33 -6 -39 -12 -10 -10 -17 -10 -32 0 -11 6 -31 12 -44
12 -14 0 -28 5 -31 10 -8 13 -135 13 -135 0 0 -5 -15 -10 -34 -10 -19 0 -36
-5 -38 -11 -5 -14 -141 -23 -212 -15 -46 6 -56 11 -56 27 0 10 -4 19 -10 19
-5 0 -10 11 -10 24 0 14 -4 27 -9 30 -5 3 -12 26 -15 51 -4 24 -11 47 -17 50
-5 4 -9 17 -9 31 0 13 -3 24 -8 24 -10 0 -42 75 -42 100 0 11 -4 20 -10 20 -5
0 -10 9 -10 20 0 11 -4 20 -10 20 -5 0 -10 11 -10 24 0 14 -4 27 -9 31 -5 3
-12 19 -16 35 -4 17 -11 30 -16 30 -5 0 -9 6 -9 13 0 8 -11 24 -25 37 -14 13
-25 28 -25 35 0 13 -112 125 -126 125 -13 0 -120 110 -127 132 -5 15 -41 40
-79 54 -10 3 -18 10 -18 15 0 5 -9 9 -20 9 -11 0 -20 5 -20 10 0 6 -4 10 -10
10 -17 0 -90 34 -90 42 0 5 -9 8 -20 8 -11 0 -20 4 -20 9 0 5 -8 12 -17 15
-24 8 -59 29 -80 48 -10 8 -54 32 -98 54 -44 21 -83 42 -86 47 -3 5 -10 8 -15
8 -5 -1 -16 5 -24 12 -13 11 -85 49 -100 52 -20 5 -47 21 -60 35 -16 17 -81
50 -98 50 -12 0 -23 28 -19 50 2 8 10 30 20 49 9 19 17 44 17 57 0 13 5 26 10
29 6 3 10 16 10 29 0 12 3 26 7 30 4 4 8 17 10 29 8 75 42 157 80 194 18 17
23 33 23 73 0 27 4 50 9 50 8 0 14 13 27 60 3 8 7 32 11 53 3 21 10 40 14 43
5 3 9 16 9 29 0 13 6 26 13 28 9 4 9 6 0 6 -15 1 -18 41 -3 41 6 0 10 9 10 19
0 10 7 21 15 25 15 5 22 66 9 79 -9 9 -11 98 -2 103 4 3 8 23 8 45 0 34 4 41
28 51 15 6 29 12 32 12 21 4 30 19 20 31 -8 9 -8 15 0 20 16 10 13 45 -4 39
-14 -5 -29 30 -17 41 3 4 7 77 7 163 1 106 5 157 13 160 6 2 11 14 11 27 0 13
5 27 10 30 6 3 10 49 10 104 0 84 -3 104 -26 149 -14 29 -27 58 -28 64 -1 7
-9 28 -19 47 -9 19 -17 42 -17 51 0 20 -27 77 -41 85 -5 4 -9 17 -9 31 0 13
-4 24 -10 24 -5 0 -10 9 -10 20 0 11 5 20 10 20 6 0 -1 12 -15 27 -14 15 -25
32 -25 36 0 11 -26 37 -38 37 -5 0 -15 7 -22 15 -7 8 -20 15 -29 15 -9 0 -22
9 -29 20 -7 11 -23 20 -37 20 -14 0 -25 5 -25 11 0 6 -8 8 -19 4 -11 -3 -22
-1 -26 5 -3 5 -22 10 -41 10 -19 0 -34 5 -34 10 0 6 -16 10 -35 10 -19 0 -35
5 -35 10 0 6 -15 10 -34 10 -19 0 -38 5 -41 10 -3 6 -17 7 -30 4 -12 -3 -26
-1 -29 5 -4 6 -18 11 -32 11 -13 0 -24 5 -24 10 0 6 -13 10 -30 10 -16 0 -30
4 -30 9 0 13 34 23 54 15 9 -3 16 -1 16 5 0 7 -89 10 -282 10 -156 0 -449 2
-653 6 l-370 6 3 -110 3 -111 34 0 c19 0 37 5 40 10 3 6 28 10 55 10 27 0 52
5 55 10 3 6 28 10 56 10 27 0 49 4 49 9 0 5 59 12 130 16 72 4 130 11 130 16
0 5 27 9 59 9 33 0 63 5 66 10 8 13 55 13 55 0 0 -6 8 -5 20 2 17 11 22 10 30
-2 9 -15 -6 -44 -19 -35 -4 2 -14 -5 -21 -16 -8 -10 -21 -19 -29 -19 -23 0
-177 -79 -196 -101 -10 -10 -22 -19 -27 -19 -5 0 -23 -13 -41 -30 -18 -16 -35
-30 -39 -30 -4 0 -18 -11 -32 -25 -14 -14 -30 -25 -36 -25 -5 0 -10 -6 -10
-12 0 -7 -16 -26 -35 -43 -19 -16 -35 -38 -35 -47 0 -10 -4 -18 -8 -18 -5 0
-14 -16 -22 -35 -8 -19 -24 -45 -37 -57 -13 -12 -23 -32 -23 -45 0 -13 -4 -23
-10 -23 -5 0 -10 -15 -10 -33 0 -18 -7 -42 -15 -53 -16 -21 -20 -109 -6 -118
5 -3 12 -71 16 -151 4 -80 11 -145 16 -145 5 0 9 -20 9 -45 0 -25 5 -45 10
-45 6 0 10 -18 10 -39 0 -33 5 -43 33 -63 39 -27 66 -58 67 -75 0 -7 5 -13 10
-13 13 0 13 -67 0 -75 -16 -10 -12 -22 10 -28 18 -5 20 -14 20 -80 0 -42 5
-79 10 -82 6 -3 10 -35 10 -70 0 -43 5 -68 15 -79 8 -8 15 -23 15 -33 0 -11 6
-25 12 -31 10 -10 10 -17 0 -32 -7 -12 -8 -20 -2 -20 5 0 10 -4 10 -10 0 -5
-20 -10 -45 -10 -32 0 -45 -4 -45 -14 0 -8 6 -17 13 -20 10 -5 10 -7 0 -12 -7
-3 -13 -14 -13 -25 0 -10 -5 -19 -12 -19 -6 0 -1 -8 10 -19 18 -15 22 -30 23
-87 0 -38 3 -63 6 -56 8 20 25 13 18 -8 -4 -13 -1 -22 9 -26 12 -5 16 -21 16
-64 0 -33 5 -62 10 -65 6 -3 10 -21 10 -39 0 -17 5 -37 12 -44 9 -9 6 -17 -12
-37 -13 -14 -29 -25 -35 -25 -14 0 -85 -72 -85 -86 0 -6 -9 -19 -20 -29 -11
-10 -20 -24 -20 -32 0 -7 -4 -13 -10 -13 -5 0 -10 -10 -10 -22 0 -13 -7 -36
-15 -52 -8 -15 -15 -37 -15 -47 0 -11 -4 -19 -10 -19 -5 0 -10 -11 -10 -25 0
-14 -4 -25 -9 -25 -5 0 -12 -29 -16 -64 -4 -44 -12 -70 -26 -82 -10 -9 -19
-22 -19 -28 0 -14 -84 -98 -91 -92 -3 3 -56 -46 -118 -109 -96 -97 -119 -115
-144 -115 -24 0 -28 3 -19 12 16 16 16 78 0 78 -9 0 -9 3 0 12 15 15 16 54 2
63 -7 4 -10 148 -10 417 1 226 -2 413 -5 416 -3 3 -5 225 -5 494 0 319 -3 488
-10 488 -6 0 -10 135 -10 385 0 250 -4 385 -10 385 -7 0 -10 141 -10 404 0
259 -4 407 -10 411 -5 3 -10 35 -10 71 0 36 -4 64 -10 64 -6 0 -10 -81 -10
-224z m1562 -95 c-1 -14 3 -28 10 -32 8 -5 4 -11 -14 -18 -15 -5 -31 -18 -37
-28 -7 -11 -14 -14 -18 -8 -5 6 -17 15 -27 21 -46 25 -47 74 -2 74 14 0 27 4
30 8 2 4 17 8 33 7 24 0 28 -4 25 -24z m-162 -21 c0 -5 7 -10 15 -10 8 0 15
-4 15 -10 0 -11 -83 -14 -94 -3 -4 4 -15 8 -23 8 -9 0 -18 6 -20 13 -3 9 11
12 51 12 31 0 56 -4 56 -10z m-178 -948 c-3 -20 1 -22 43 -22 25 0 54 5 65 12
15 10 24 9 45 -2 22 -12 28 -12 35 0 7 11 15 7 38 -18 23 -25 38 -32 66 -32
20 0 36 5 36 10 0 6 26 10 59 10 33 0 63 5 66 10 3 6 17 10 31 10 13 0 24 -4
24 -10 0 -5 7 -10 15 -10 8 0 15 5 15 10 0 6 9 10 20 10 11 0 20 -4 20 -10 0
-5 7 -10 15 -10 8 0 15 5 15 10 0 6 9 10 20 10 11 0 20 -4 20 -10 0 -6 40 -10
100 -10 79 0 100 -3 100 -14 0 -8 7 -16 15 -20 8 -3 15 -18 15 -34 0 -17 10
-38 25 -52 23 -22 25 -30 25 -114 0 -50 -4 -106 -10 -125 -8 -29 -7 -34 10
-38 19 -5 20 -15 20 -159 0 -96 -4 -154 -10 -154 -5 0 -10 -16 -10 -35 0 -19
-3 -35 -8 -35 -4 0 -6 -18 -4 -40 3 -25 0 -40 -7 -40 -6 0 -11 -15 -11 -33 0
-18 -4 -37 -9 -42 -5 -6 -11 -23 -13 -40 -2 -16 -8 -29 -15 -28 -8 2 -10 -8
-6 -30 3 -23 0 -37 -11 -46 -9 -7 -16 -24 -16 -37 0 -25 -15 -40 -25 -24 -12
19 -22 10 -17 -15 3 -20 0 -25 -16 -25 -11 0 -22 8 -25 20 -3 11 -13 23 -23
27 -30 11 -82 67 -89 95 -4 14 -15 28 -26 31 -12 3 -19 14 -19 30 0 14 -4 28
-9 31 -5 3 -12 21 -15 39 -3 19 -17 44 -31 57 -24 23 -25 23 -25 3 0 -11 9
-28 20 -38 37 -33 21 -98 -26 -107 -11 -2 -20 -13 -22 -26 -2 -13 -10 -22 -20
-22 -10 0 -22 -10 -27 -22 -8 -19 -18 -23 -58 -24 -28 0 -52 5 -58 13 -14 16
-36 17 -42 1 -3 -10 -9 -10 -25 -1 -16 10 -23 9 -32 -2 -7 -8 -19 -15 -26 -15
-8 0 -14 -7 -14 -16 0 -20 -20 -39 -48 -48 -12 -4 -22 -12 -22 -17 0 -5 -16
-9 -35 -9 -19 0 -35 -4 -35 -10 0 -5 -7 -10 -15 -10 -21 0 -55 -36 -55 -58 0
-18 18 -42 31 -42 4 0 9 9 12 20 3 14 14 20 31 20 14 0 26 4 26 9 0 5 11 12
25 15 14 4 25 11 25 16 0 6 16 10 35 10 19 0 35 5 35 10 0 6 9 10 20 10 11 0
20 -5 20 -12 0 -9 3 -9 12 0 7 7 29 12 49 12 21 0 39 6 42 13 4 10 7 10 18 0
7 -8 39 -13 74 -13 49 0 66 -4 79 -19 10 -11 31 -23 47 -26 36 -8 39 -35 4
-35 -14 0 -25 -5 -25 -11 0 -6 -6 -9 -12 -6 -7 2 -13 9 -13 15 0 5 -3 14 -7
18 -5 4 -8 1 -8 -6 0 -9 -10 -11 -34 -7 -24 4 -39 1 -47 -9 -9 -11 -40 -14
-134 -14 -67 0 -137 -3 -154 -6 l-32 -7 26 -27 c23 -24 31 -26 80 -22 36 3 60
0 70 -8 9 -7 36 -12 60 -12 34 2 45 -1 45 -13 0 -19 24 -19 40 0 16 19 30 19
30 0 0 -8 5 -15 12 -15 6 0 23 -10 36 -22 17 -16 26 -19 29 -10 3 6 13 12 24
12 10 0 19 5 19 10 0 6 6 10 14 10 7 0 19 7 26 15 7 8 21 15 31 15 31 0 24
-58 -11 -97 -29 -32 -60 -44 -60 -23 0 6 -16 10 -35 10 -19 0 -35 5 -35 10 0
6 -39 10 -97 10 -86 0 -99 -3 -120 -22 -25 -23 -30 -54 -11 -60 6 -2 8 -10 4
-17 -6 -9 -11 -9 -21 -1 -10 8 -19 8 -34 -2 -16 -10 -23 -10 -32 -1 -10 10 -7
15 12 22 21 9 19 10 -18 10 -23 1 -45 -3 -48 -9 -3 -5 -29 -10 -56 -10 -44 0
-51 3 -59 25 -5 14 -12 25 -15 25 -17 0 -45 -22 -45 -35 0 -8 -4 -15 -10 -15
-5 0 -10 15 -10 34 0 30 -3 35 -27 38 -17 2 -27 8 -25 16 2 9 -4 11 -18 7 -17
-5 -20 -2 -20 23 0 17 6 32 13 35 10 4 10 7 0 18 -7 7 -13 29 -13 50 0 33 -2
36 -24 32 -23 -5 -24 -2 -23 46 1 39 -4 56 -21 74 -12 13 -22 29 -22 35 0 7
-15 12 -35 12 -28 0 -35 4 -35 20 0 11 6 20 13 20 10 0 13 14 9 58 -3 31 -7
59 -11 62 -14 12 -29 49 -36 90 -4 25 -10 47 -14 50 -13 11 -31 51 -31 70 0
11 -4 20 -10 20 -6 0 -10 41 -10 104 0 59 4 108 10 111 6 3 10 28 10 56 0 27
5 49 10 49 6 0 10 31 10 74 0 41 5 78 10 81 6 3 10 17 10 29 0 13 7 29 15 36
10 8 15 30 15 61 0 27 5 49 10 49 6 0 10 9 10 20 0 11 5 20 10 20 6 0 10 11
10 25 0 18 5 25 20 25 15 0 20 -7 20 -25 0 -16 6 -25 15 -25 9 0 15 9 15 25 0
14 5 25 10 25 6 0 10 -22 10 -50 0 -38 4 -50 15 -50 8 0 15 7 15 15 0 8 5 15
10 15 6 0 10 6 10 14 0 17 89 106 106 106 8 0 14 5 14 11 0 6 6 9 13 6 6 -2
11 -14 9 -25z m948 -422 c0 -5 -4 -10 -10 -10 -5 0 -10 5 -10 10 0 6 5 10 10
10 6 0 10 -4 10 -10z m-1370 -670 c0 -11 5 -20 10 -20 6 0 10 -6 10 -13 0 -8
9 -22 20 -32 11 -10 20 -29 20 -43 0 -24 46 -132 61 -142 4 -3 10 -19 14 -35
7 -31 26 -76 36 -85 11 -10 39 -79 39 -95 0 -10 8 -25 18 -34 19 -18 34 -41
59 -91 22 -44 30 -52 76 -74 43 -20 55 -39 37 -61 -8 -10 -9 -15 -2 -15 6 0
14 5 17 10 3 6 15 10 26 10 10 0 19 -4 19 -10 0 -5 -5 -10 -11 -10 -5 0 -8 -4
-4 -10 3 -5 12 -7 19 -4 8 3 17 1 21 -5 3 -6 22 -11 41 -11 19 0 34 -4 34 -10
0 -5 9 -10 20 -10 11 0 20 -4 20 -9 0 -7 11 -12 48 -21 4 -1 12 -6 19 -11 7
-7 14 -6 18 2 4 6 10 7 14 3 16 -22 56 -34 116 -34 37 0 65 -4 65 -10 0 -5 16
-10 35 -10 34 0 35 -1 35 -37 l0 -38 59 60 c32 33 57 63 55 66 -2 4 5 14 16
24 14 13 20 31 20 62 0 31 4 43 13 41 15 -6 23 -178 7 -178 -5 0 -10 -20 -10
-45 0 -25 -4 -45 -10 -45 -6 0 -10 -38 -10 -94 0 -53 -4 -98 -10 -101 -5 -3
-10 -19 -10 -34 0 -15 -6 -33 -12 -40 -10 -11 -10 -14 0 -18 6 -3 12 -13 12
-23 0 -10 6 -20 13 -23 10 -4 10 -7 0 -18 -17 -18 -18 -108 -1 -91 19 19 49
14 55 -8 3 -11 9 -20 14 -20 5 0 9 -7 9 -15 0 -9 9 -15 25 -15 18 0 25 -5 25
-19 0 -10 7 -24 15 -31 13 -11 15 -6 15 34 0 42 2 46 23 43 18 -2 23 4 25 29
3 29 1 31 -22 27 -16 -3 -26 -1 -26 6 0 6 6 11 13 12 6 0 3 4 -8 8 -11 4 -23
19 -26 32 -7 23 -7 23 -8 -3 -1 -26 -21 -41 -21 -16 0 6 -13 0 -28 -15 -32
-31 -42 -34 -42 -12 0 8 -4 15 -10 15 -6 0 -10 30 -10 69 0 39 -5 73 -10 76
-8 5 -7 11 1 21 18 21 36 17 43 -11 4 -16 13 -25 25 -25 10 0 21 -7 25 -15 3
-8 12 -15 21 -15 23 0 65 -52 59 -72 -3 -10 -1 -18 5 -18 6 0 13 11 17 25 3
14 12 25 20 25 11 0 14 -20 14 -90 0 -83 -2 -90 -20 -90 -14 0 -21 -9 -25 -37
-3 -21 -8 -46 -10 -56 -2 -14 1 -16 16 -12 17 6 19 1 19 -39 0 -25 -4 -47 -9
-51 -5 -3 -12 -19 -16 -35 -4 -17 -11 -30 -16 -30 -5 0 -9 -11 -9 -23 0 -13
-10 -32 -21 -43 -12 -10 -25 -29 -30 -42 -5 -13 -17 -22 -29 -22 -23 0 -90 61
-90 82 0 9 -3 9 -10 -2 -9 -13 -11 -13 -20 0 -8 13 -10 13 -10 -1 0 -9 -9 -19
-20 -22 -14 -3 -20 -14 -20 -31 0 -25 -19 -38 -21 -13 0 6 -5 1 -10 -13 l-10
-25 -21 25 c-14 16 -22 21 -25 13 -3 -7 -14 -13 -26 -13 -11 0 -29 -8 -39 -17
-13 -12 -21 -14 -26 -6 -4 6 -19 10 -34 8 -18 -2 -34 6 -54 26 -15 16 -34 29
-41 29 -7 0 -20 11 -29 25 -9 14 -25 25 -35 25 -11 0 -19 4 -19 9 0 5 -8 12
-17 15 -30 11 -63 32 -92 60 -15 14 -32 26 -37 26 -20 0 -47 39 -41 60 4 17 2
19 -19 14 -15 -4 -24 -2 -24 5 0 6 5 11 11 11 8 0 8 5 -1 15 -7 8 -19 15 -26
15 -8 0 -14 5 -14 12 0 15 -40 58 -55 58 -6 0 -17 16 -25 35 -8 19 -17 35 -22
35 -4 0 -8 11 -8 24 0 13 -6 28 -13 34 -7 6 -19 27 -27 47 -7 19 -17 35 -22
35 -4 0 -8 11 -8 24 0 14 -4 27 -9 30 -4 3 -11 24 -15 46 -3 22 -11 40 -16 40
-6 0 -10 11 -10 24 0 14 -4 28 -10 31 -5 3 -10 17 -10 31 0 13 -4 24 -9 24 -5
0 -11 9 -14 21 -3 11 -15 23 -26 26 -12 3 -21 11 -21 17 0 7 -11 23 -25 36
-14 13 -25 34 -25 47 0 13 -4 23 -10 23 -6 0 -10 33 -10 79 0 44 5 83 10 86 6
3 10 28 10 56 0 32 4 49 13 49 9 0 11 39 9 167 -2 93 -7 172 -12 177 -6 6 -10
53 -10 106 0 58 -4 100 -11 107 -7 7 -9 19 -6 27 9 23 37 20 37 -4z m1020 -30
c0 -5 -4 -10 -10 -10 -5 0 -10 5 -10 10 0 6 5 10 10 10 6 0 10 -4 10 -10z m31
-23 c-13 -13 -26 -3 -16 12 3 6 11 8 17 5 6 -4 6 -10 -1 -17z m4 -166 c3 -5 1
-13 -5 -16 -15 -9 -43 3 -35 15 8 13 32 13 40 1z m-805 -69 c0 -13 -12 -22
-22 -16 -10 6 -1 24 13 24 5 0 9 -4 9 -8z m490 -244 c0 -12 7 -29 15 -38 22
-25 9 -49 -26 -48 -25 1 -29 5 -29 29 0 35 16 79 30 79 5 0 10 -10 10 -22z
m-52 -25 c-2 -20 -9 -29 -25 -31 -14 -2 -20 -8 -16 -18 6 -18 -28 -19 -45 -2
-18 18 -15 28 8 28 15 0 20 7 20 25 0 21 5 25 31 25 27 0 30 -3 27 -27z m522
-648 c0 -8 -4 -15 -10 -15 -5 0 -10 7 -10 15 0 8 5 15 10 15 6 0 10 -7 10 -15z
m20 -195 c0 -5 -4 -10 -10 -10 -5 0 -10 -9 -10 -20 0 -11 -4 -20 -10 -20 -14
0 -13 33 2 48 15 15 28 16 28 2z m300 -134 c0 -13 7 -29 15 -36 33 -27 10 -70
-36 -70 -15 0 -31 -5 -34 -10 -4 -6 -11 -8 -16 -5 -12 8 -12 75 1 75 6 0 10
16 10 35 0 32 2 35 30 35 25 0 30 -4 30 -24z m65 -146 c16 -6 25 -17 24 -27
-1 -10 1 -26 6 -35 4 -10 5 -24 2 -32 -9 -24 -63 -44 -105 -39 -23 3 -43 0
-47 -6 -8 -13 -75 -15 -75 -2 0 6 4 12 9 15 5 4 12 25 16 49 10 62 38 87 96
87 26 0 60 -4 74 -10z m-1186 -122 c1 -5 -3 -9 -9 -9 -42 -5 -45 -3 -48 30
l-3 34 30 -24 c16 -13 30 -27 30 -31z m59 -34 c18 -8 35 -21 39 -27 5 -7 20
-20 35 -30 31 -19 28 -41 -5 -52 -12 -4 -24 -8 -27 -10 -3 -1 -13 -5 -22 -9
-25 -11 -49 -4 -62 19 -6 11 -13 22 -16 25 -3 3 -11 17 -19 32 -13 25 -12 30
4 48 22 24 32 25 73 4z m1204 -1 c12 -11 18 -30 18 -63 0 -40 -3 -48 -25 -58
-14 -7 -39 -12 -55 -12 -17 0 -30 -4 -30 -10 0 -5 -25 -10 -55 -10 -30 0 -55
-4 -55 -10 0 -5 -22 -10 -49 -10 -28 0 -53 -4 -56 -10 -8 -13 -62 -13 -70 1
-4 6 0 16 9 22 18 13 34 38 63 100 16 34 21 37 60 37 23 0 45 5 48 10 3 6 26
10 50 10 24 0 47 5 50 10 10 16 77 12 97 -7z m-602 -33 c0 -33 -11 -38 -30
-15 -9 11 -9 17 2 29 20 23 28 19 28 -14z m38 -1 c-2 -6 -8 -10 -13 -10 -5 0
-11 4 -13 10 -2 6 4 11 13 11 9 0 15 -5 13 -11z m-473 -89 c4 -6 10 -8 14 -5
5 2 16 -4 26 -15 10 -11 22 -20 27 -20 5 0 16 -7 24 -15 13 -12 13 -17 2 -28
-10 -10 -75 -45 -98 -53 -3 -1 -15 -5 -27 -9 -13 -4 -23 -10 -23 -14 0 -10
-59 -33 -69 -27 -5 4 -12 20 -16 36 -4 16 -11 32 -16 35 -13 9 -11 64 4 79 38
36 137 60 152 36z m198 -102 c15 -7 27 -16 27 -20 0 -5 11 -8 23 -8 13 0 27
-3 31 -7 4 -5 13 -8 19 -8 7 0 13 -10 15 -22 2 -15 -2 -23 -12 -23 -15 0 -157
-70 -166 -82 -3 -3 -18 -10 -33 -13 -15 -4 -30 -11 -33 -16 -3 -5 -16 -9 -30
-9 -13 0 -24 -3 -24 -7 0 -13 -50 -32 -65 -26 -17 6 -45 59 -45 84 0 9 -6 19
-12 22 -20 6 10 37 36 37 12 0 28 9 36 20 8 11 20 20 26 20 6 0 32 11 58 25
26 14 56 25 67 25 10 0 19 5 19 10 0 14 31 13 63 -2z"/>
<path d="M2783 3456 c-13 -6 -23 -14 -23 -18 0 -5 -20 -8 -44 -8 -25 0 -48 -5
-51 -10 -4 -6 -12 -10 -18 -9 -16 3 -48 -11 -70 -29 -9 -8 -27 -20 -40 -27
-14 -7 -21 -18 -19 -31 1 -11 -7 -29 -18 -39 -21 -19 -28 -79 -10 -90 6 -3 10
-33 10 -65 0 -32 5 -62 11 -65 5 -4 9 -19 7 -33 -3 -24 1 -27 32 -30 19 -1 42
-5 50 -8 8 -3 15 -4 16 -2 0 2 8 -3 16 -10 13 -10 18 -9 29 5 11 13 11 17 2
20 -16 6 -17 39 -3 48 6 4 8 10 5 15 -9 14 6 40 24 41 10 0 11 2 4 6 -7 2 -13
9 -13 14 0 14 28 11 33 -3 3 -10 7 -10 20 0 9 8 21 11 27 7 5 -3 10 1 10 9 0
19 31 21 47 5 9 -9 16 -8 27 4 9 9 16 20 16 25 0 20 -33 73 -60 96 -30 24 -39
46 -21 46 6 0 13 -4 16 -10 3 -5 14 -10 24 -10 9 0 32 -16 51 -35 50 -52 67
-46 61 24 -1 13 3 27 8 31 12 7 -7 60 -21 60 -5 0 -8 7 -8 16 0 22 -61 74 -85
73 -11 -1 -30 -6 -42 -13z m-27 -221 c4 -8 1 -22 -6 -30 -14 -17 -50 -20 -50
-5 0 6 5 10 10 10 6 0 10 9 10 20 0 23 28 27 36 5z"/>
<path d="M1880 3405 c-24 -25 -49 -45 -56 -45 -16 0 -24 -36 -11 -49 14 -14
67 -14 67 -1 0 6 22 10 49 10 28 0 53 5 56 10 4 6 55 10 120 10 65 0 116 -4
120 -10 11 -18 35 -11 35 10 0 11 -6 20 -13 20 -7 0 -19 9 -27 20 -8 11 -24
20 -37 20 -12 0 -24 4 -28 9 -3 5 -21 7 -39 4 -34 -5 -96 14 -96 29 0 5 -22 8
-48 8 -44 0 -52 -4 -92 -45z"/>
<path d="M2075 3300 c-3 -5 -22 -10 -41 -10 -41 0 -114 -30 -114 -47 0 -7 10
-13 21 -13 12 0 30 -10 40 -21 10 -12 25 -19 33 -16 9 4 18 2 21 -3 4 -6 22
-10 41 -10 19 0 34 -4 34 -10 0 -5 11 -10 24 -10 14 0 28 -4 31 -10 3 -5 17
-10 31 -10 13 0 24 -4 24 -10 0 -5 -4 -10 -10 -10 -5 0 -10 -7 -10 -15 0 -8 7
-15 15 -15 8 0 15 5 15 10 0 6 7 10 15 10 8 0 15 5 15 11 0 7 10 20 22 31 18
15 19 21 9 31 -11 9 -14 9 -18 0 -8 -23 -43 -15 -43 10 0 15 -9 26 -29 35 -27
12 -32 11 -50 -7 -22 -22 -68 -38 -78 -27 -3 3 1 14 10 24 10 10 17 24 17 30
0 7 5 12 10 12 6 0 10 11 10 25 0 18 -5 25 -19 25 -11 0 -23 -4 -26 -10z m-61
-60 c18 -38 0 -41 -33 -6 -17 18 -19 25 -9 29 23 9 26 8 42 -23z m46 -5 c0 -8
-4 -15 -9 -15 -13 0 -22 16 -14 24 11 11 23 6 23 -9z"/>
<path d="M2158 3278 c15 -15 52 -21 52 -9 0 10 -24 21 -48 21 -12 0 -13 -3 -4
-12z"/>
<path d="M2298 2793 c6 -2 18 -2 25 0 6 3 1 5 -13 5 -14 0 -19 -2 -12 -5z"/>
<path d="M1971 2034 c0 -11 3 -14 6 -6 3 7 2 16 -1 19 -3 4 -6 -2 -5 -13z"/>
<path d="M2303 1853 c9 -9 20 -13 24 -9 4 4 1 11 -7 16 -25 16 -35 11 -17 -7z"/>
<path d="M2810 1116 c0 -16 5 -26 15 -26 8 0 15 6 15 14 0 7 -7 19 -15 26 -13
11 -15 8 -15 -14z"/>
<path d="M2460 1055 c0 -36 20 -56 37 -39 16 16 17 36 1 52 -20 20 -38 14 -38
-13z"/>
<path d="M2555 1000 c-3 -5 3 -18 15 -30 25 -25 31 -25 27 -2 -6 36 -28 54
-42 32z"/>
<path d="M2782 940 c0 -14 2 -19 5 -12 2 6 2 18 0 25 -3 6 -5 1 -5 -13z"/>
<path d="M2532 928 c5 -15 28 -23 28 -10 0 5 -7 13 -16 16 -10 4 -14 1 -12 -6z"/>
<path d="M1150 5086 c0 -19 5 -38 11 -41 5 -4 9 -19 7 -33 l-3 -27 1170 -8
1170 -7 45 -23 c25 -12 48 -25 51 -30 3 -5 23 -7 44 -5 30 2 42 9 56 33 19 33
25 90 9 100 -5 3 -10 22 -10 41 l0 34 -1275 0 -1275 0 0 -34z"/>
<path d="M487 4973 c-4 -3 -7 -20 -7 -37 l0 -31 15 29 c8 15 15 32 15 37 0 11
-14 12 -23 2z"/>
<path d="M480 4710 c0 -13 5 -18 15 -14 8 4 15 12 15 20 0 8 -7 14 -15 14 -8
0 -15 -9 -15 -20z"/>
<path d="M492 4558 c-17 -17 -15 -48 3 -48 10 0 15 10 15 30 0 34 -1 35 -18
18z"/>
<path d="M500 4240 c0 -20 5 -30 15 -30 8 0 15 9 15 20 0 11 5 20 10 20 6 0
10 5 10 10 0 6 -11 10 -25 10 -21 0 -25 -5 -25 -30z"/>
<path d="M500 3998 l0 -31 25 23 c27 25 25 40 -6 40 -15 0 -19 -7 -19 -32z"/>
<path d="M521 3503 c-1 -35 2 -43 17 -43 23 0 42 19 42 42 0 12 -8 18 -24 18
-13 0 -27 6 -29 13 -3 6 -6 -7 -6 -30z"/>
<path d="M525 3280 c-10 -16 4 -50 21 -50 11 0 14 8 12 27 -3 28 -22 41 -33
23z"/>
<path d="M1410 3070 c0 -19 5 -30 14 -30 8 0 21 -9 29 -21 20 -28 26 -13 15
39 -8 35 -13 42 -34 42 -20 0 -24 -5 -24 -30z"/>
<path d="M545 2789 c-10 -15 -12 -79 -3 -79 8 0 38 59 38 77 0 16 -26 18 -35
2z"/>
<path d="M5068 2703 c-16 -2 -28 -9 -28 -14 0 -5 -8 -9 -18 -9 -9 0 -23 -9
-30 -20 -7 -12 -24 -25 -37 -30 -14 -5 -25 -16 -25 -24 0 -8 -16 -28 -35 -45
-19 -17 -35 -38 -35 -47 0 -9 -7 -31 -16 -50 -20 -43 -12 -55 19 -26 13 12 33
22 45 22 12 0 22 5 22 10 0 6 16 10 36 10 29 0 35 3 32 18 -3 22 18 52 37 52
7 0 18 7 25 15 7 8 23 15 36 15 23 0 24 3 24 65 0 46 -4 65 -12 64 -7 -1 -25
-4 -40 -6z"/>
<path d="M537 2553 c-11 -19 -1 -58 15 -61 23 -4 50 23 46 46 -3 18 -52 30
-61 15z"/>
<path d="M544 2368 c-7 -11 -9 -42 -5 -63 1 -7 61 61 61 69 0 11 -49 6 -56 -6z"/>
<path d="M4840 2212 c0 -15 30 -69 45 -82 8 -7 15 -19 15 -26 0 -8 4 -14 10
-14 11 0 3 24 -22 65 -10 17 -21 38 -24 48 -6 17 -24 24 -24 9z"/>
<path d="M562 2088 c-15 -15 -16 -88 -1 -88 21 0 51 45 53 80 1 19 -35 25 -52
8z"/>
<path d="M5085 2000 c-4 -6 -11 -7 -17 -4 -6 4 -9 1 -6 -7 2 -8 17 -15 31 -17
22 -3 27 1 27 17 0 22 -24 29 -35 11z"/>
<path d="M588 1843 c-22 -6 -23 -26 -3 -43 13 -10 15 -9 15 9 0 11 5 21 10 21
6 0 10 5 10 10 0 10 -3 11 -32 3z"/>
<path d="M557 1343 c-11 -11 -8 -48 5 -61 32 -32 59 13 28 48 -19 22 -23 23
-33 13z"/>
<path d="M571 1168 c-1 -45 2 -58 14 -58 11 0 15 11 15 40 0 22 -4 40 -9 40
-5 0 -12 8 -14 18 -3 9 -5 -9 -6 -40z"/>
<path d="M4673 1148 c-2 -5 21 -8 51 -8 31 0 56 3 56 8 0 4 -23 7 -51 7 -28 0
-53 -3 -56 -7z"/>
<path d="M658 1123 c-10 -2 -18 -9 -18 -14 0 -5 -6 -9 -12 -9 -16 0 -78 -54
-78 -67 0 -5 -20 -29 -44 -53 -28 -28 -44 -52 -42 -65 7 -57 57 -118 78 -97 7
7 45 12 95 12 l83 0 0 75 c0 43 -4 75 -10 75 -5 0 -10 10 -10 23 0 13 -5 28
-11 34 -6 6 -10 30 -7 52 2 23 1 40 -2 40 -3 -1 -13 -3 -22 -6z"/>
<path d="M4878 1103 c-16 -8 -28 -18 -28 -23 0 -14 60 -40 92 -40 15 0 28 -4
28 -10 0 -5 13 -10 28 -10 18 0 40 12 66 38 l39 37 -84 3 c-46 2 -88 7 -93 12
-12 12 -14 12 -48 -7z"/>
<path d="M4735 1091 c-6 -6 -32 -11 -59 -13 -27 -2 -51 -8 -53 -14 -5 -15 128
4 147 22 12 12 12 14 -6 14 -11 0 -24 -4 -29 -9z"/>
<path d="M223 623 c-3 -10 -15 -28 -25 -39 -11 -12 -19 -28 -18 -35 3 -21 -11
-59 -21 -59 -5 0 -9 -16 -9 -35 0 -19 -4 -35 -10 -35 -5 0 -10 -11 -10 -25 0
-23 3 -25 50 -25 l50 0 0 119 c0 69 4 122 10 126 13 8 13 25 0 25 -6 0 -13 -8
-17 -17z"/>
<path d="M390 534 c-6 -14 -10 -40 -10 -59 0 -19 -4 -37 -10 -40 -5 -3 -10
-19 -10 -36 l0 -29 240 0 240 0 0 49 c0 28 -5 53 -10 56 -6 4 -8 15 -5 26 5
16 1 19 -29 19 -19 0 -38 5 -41 10 -3 6 -21 10 -40 10 -19 0 -37 -4 -40 -10
-3 -5 -24 -10 -46 -10 -30 0 -46 6 -60 23 -10 12 -18 16 -19 10 0 -16 -110
-18 -110 -3 0 22 -41 9 -50 -16z"/>
<path d="M737 241 c3 -12 10 -21 15 -21 13 0 6 32 -9 37 -7 3 -9 -3 -6 -16z"/>
</g>
</svg>
