<?xml version="1.0" standalone="no"?>
<!DOCTYPE svg PUBLIC "-//W3C//DTD SVG 1.1//EN" "http://www.w3.org/Graphics/SVG/1.1/DTD/svg11.dtd" >
<svg xmlns="http://www.w3.org/2000/svg">
<metadata>
This is a custom SVG webfont generated by Font Squirrel.
Copyright   : 2008 Vic Fieger
</metadata>
<defs>
<font id="webfontf3v23jNG" horiz-adv-x="1198" >
<font-face units-per-em="2048" ascent="1638" descent="-410" />
<missing-glyph horiz-adv-x="500" />
<glyph unicode=" " />
<glyph unicode="!" d="M426 166l45 115q101 101 184 61l9 -4q135 -66 127 -254l-21 -45q-109 -70 -170 -70l-84 21q-22 59 -90 176zM426 1292v125q4 129 145 129l156 -82q80 -25 80 -69v-47q-41 -106 -64 -344l-16 -64q0 -68 -59 -199l30 -77q0 -61 -84 -123l-79 51q-31 98 -50 186l21 76 l-47 141v203z" />
<glyph unicode="&#x22;" horiz-adv-x="1200" d="M219 1133q4 29 72 84l24 47q-59 164 -59 252l2 26l49 49h12q63 -45 236 -75l12 -13v-35q-35 -86 -94 -131l-12 -47v-217h24l-43 -18l11 -27h12l37 -37v-10l-37 -37l-8 -59l-33 -54l-62 -34q-106 0 -106 215zM674 1370v96q18 111 125 111l102 -76q61 -23 62 -51v-37 q-72 -84 -72 -235l-12 -48q0 -59 16 -141l25 -59q0 -49 -105 -135l-59 36q-12 35 -37 146l14 57l-35 109v155z" />
<glyph unicode="#" horiz-adv-x="1200" d="M8 565q0 33 74 74q55 -8 170 -18q12 168 92 272q-51 12 -229 -37l-56 100l80 58q49 16 275 12l12 14v119l192 322l23 2l25 -25v-22q-80 -293 -156 -320l-12 -12v-12q16 -109 108 -105l178 33l29 133q39 2 64 178q72 29 71 64l-12 96q0 33 108 125l23 2q49 -18 49 -82 q-82 -125 -108 -317q-23 -49 -74 -119v-49l59 -9l45 11q96 6 146 -54v-36q0 -37 -146 -66l-143 4l-2 -55l-80 -219q88 12 168 -2l111 -54v-12q0 -33 -99 -82l-143 19q-72 -4 -115 -203q-104 -106 -55 -184q-23 0 -37 -181q-45 -41 -84 -41q-74 -4 -39 142v96q29 102 47 186 l41 113l27 57q-76 6 -131 -4q-90 35 -148 19l-37 -125q33 -68 -79 -310l12 -47l-37 -114l-10 -13l-62 -4q-47 18 -47 82v25q29 334 86 336l47 170l-22 -2q-199 -13 -199 71zM360 649q76 -8 320 -26l61 204v35l-36 35l-107 -4l-168 6z" />
<glyph unicode="$" horiz-adv-x="1200" d="M41 455q25 78 96 98q94 -16 107 -129q-12 -180 143 -207l2 176l12 62q-72 25 -34 155l-13 228q-252 28 -252 239q-25 0 -24 97q0 76 301 323h10q74 -29 74 -47l59 12h47v-24q-106 -57 -106 -168l10 -144l-10 -120q31 -80 72 -97l122 -8q-4 119 -4 176v37l-12 156l12 71 l-47 97v12l10 8l17 109v41l24 63h35q27 0 33 -90q-12 -39 -8 -58.5t24 -17.5l45 6q-12 -14 -14 -30q176 -80 279 -224v-22q-80 -96 -156 -96q-25 106 -96 166l-15 73l-69 -26l35 -238v-12l-9 -205q-6 -16 8.5 -26.5t48 -15.5t85.5 -5q127 -45 254 -340v-47 q-53 -236 -136 -297q-215 -86 -215 -180v-168l-49 -47h-35q-37 0 -49 239l-71 25q-84 0 -84 -74l12 -168l-47 -35h-62l-47 47l47 146q0 55 -18 98q-289 96 -328 268zM174 1114q70 -180 168 -180l37 47l-12 86v131q0 66 -50 84h-12q-92 0 -131 -168zM469 813q4 -53 4 -168 l37 -131l-12 -252q0 -84 84 -84h24l51 -10l-16 82v37l12 100l-12 131l8 170l51 39q76 -45 33 -149l33 -349l51 4q80 43 178 211q-76 309 -209 310q-33 0 -90 26z" />
<glyph unicode="%" horiz-adv-x="1200" d="M25 899v10l65 183q0 121 356 153q104 0 375 117v8l-10 57q0 23 193 58q31 0 57 -58q0 -18 -78 -86q0 -86 -47 -86v-49l-39 -104l10 -39q-12 -47 -67 -47h-68q-18 0 -39 86l70 76q-8 39 -60 39q-144 -46 -172 -87q98 -125 162 -124l39 -136l-86 -153v-37q0 -31 172 -49 l60 18h8q127 -84 184 -162q66 -14 66 -67q0 -68 -86 -78l-86 -104q0 -106 -68 -107q0 -27 -133 -39h-135q-139 0 -183 117l-18 18q-74 0 -145 -239q-98 -115 -164 -115h-37q-49 25 -49 78q49 156 153 297q168 383 242 383q55 76 55 114v11l-18 18h-29q-70 -57 -104 -57h-49 l-154 -8q-57 0 -143 190zM100 899q0 -49 125 -86l58 21l39 -11q33 0 172 107q88 25 88 47v18q0 33 -136 68q-34 68 -86 67q-106 -20 -106 -96v-18q-90 -78 -133 -78zM618 930l21 -21h18l21 21v18l-49 8h-11v-26zM668 266q18 -57 104 -57q72 0 96 211v18q-20 49 -96 49h-29 q-38 0 -75 -221z" />
<glyph unicode="&#x26;" horiz-adv-x="1200" d="M20 500l84 166l-12 51q121 127 232 194q-104 115 -95 258l-6 82l109 129q0 100 180 127q336 -43 336 -141q-37 -63 -37 -127l12 -115q-66 -47 -202 -217q-96 0 -97 -88v-12q6 -31 97 -66q35 -25 71 -229l72 -25h24q96 68 152 258q45 82 109 82q72 10 100.5 -9t15.5 -70 l-32 -76q-45 -76 -93 -121l-12 -39l-84 -100q-59 -18 -41 -140l84 -88l115 -24q49 -18 49 -37q0 -117 -158 -117h-12q-41 0 -109 98h-49q-115 -102 -168 -102l-190 14l-62 -14q-336 102 -335 358q-30 38 -48 140zM188 397q0 -25 131 -24l13 -13v-24l-13 -78q0 -127 205 -127 l109 -12q57 0 94 139v12q-256 303 -287 420h-37q-215 -195 -215 -278v-15zM393 1143q0 -119 119 -119h14q117 0 117 119q14 215 -88 223q-162 -43 -162 -209v-14z" />
<glyph unicode="'" horiz-adv-x="1200" d="M440 1470q33 106 174 107h19l117 -117v-18l-43 -60v-10q25 -33 24 -65q-49 -57 -49 -99q0 -377 -43 -377l-33 -10q-66 0 -133 107l8 88z" />
<glyph unicode="(" d="M530 686l23 160v41l-10 117l30 63l-20 94q68 168 231 391h11l73 -10v10q106 203 127 211h11q25 0 63 -137v-10q0 -35 -63 -107q0 -104 -84 -104l-84 -107v-41l41 -53v-20q0 -23 -31 -23l-84 53l-10 -10v-74l20 -126q-27 -178 -63 -222v-43q53 -37 53 -190l147 -158 l11 -43l-107 -74v-30q0 -16 150 -84q29 -27 94 -191q33 -12 33 -63q-31 -74 -97 -74q-76 0 -200 188q-49 104 -115 191q-55 190 -107 190z" />
<glyph unicode=")" d="M154 -111q86 233 180 234l31 104q117 160 116 234v125q31 40 31 73l-31 86l31 127l-41 115l10 84q-121 371 -243 488q-41 61 -41 94v10q0 57 53 86h61q18 0 74 -107q127 -72 127 -233q160 -84 160 -231q51 0 63 -306v-243l-137 -391q-156 -379 -338 -453h-22 q-66 0 -84 94v10z" />
<glyph unicode="*" d="M160 1311q20 51 76 51l67 -16h25q84 61 84 133q-59 94 -60 127v16q0 59 60 59h16q121 -98 160 -211l10 -8h41v17h8l-16 51q47 127 135 127h41q25 -6 43 -60q-8 -45 -94 -186v-16q20 -41 67 -41l92 16q127 -18 127 -49v-35q-12 -43 -108 -43l-135 10l-68 -26 q-34 12 -49 43v24l16 92q-31 25 -59 25h-16q-92 -18 -93 -90q31 -102 58 -102l84 8q154 -135 178 -209l41 -43q-8 -33 -92 -33q-70 20 -176 209l-52 8l-8 -8v-76q0 -61 -135 -141q-84 12 -84 76q0 43 84 116q0 47 35 93v24h-17v10l-84 -10h-118q-84 0 -84 68z" />
<glyph unicode="+" horiz-adv-x="1193" />
<glyph unicode="," d="M240 170q-39 131 61 195l45 22q117 35 229 -27q47 -41 56 -61l2 -8l-15 -101q43 -133 -69 -284q-68 -49 -109 -64l-55 -16q-82 -18 -96 22q-74 57 -2 80q113 35 92 99q-8 31 -103 73l-30 45z" />
<glyph unicode="-" horiz-adv-x="1200" d="M111 709q0 31 106 30q20 45 37 45h51l144 -39h8l45 31h43q106 0 106 -14q31 14 99 14h18l8 -8l8 8h115l45 8q18 -15 19 -67l24 -17h10l88 45q43 -16 45 -28v-17q0 -84 -90 -112l-663 14l-107 -6q-159 35 -159 113z" />
<glyph unicode="." d="M211 236v32q74 102 108 103l84 -19l117 19q68 0 127 -176q0 -121 -151 -187l-41 -41h-11q-209 61 -208 144l24 65z" />
<glyph unicode="/" horiz-adv-x="1196" d="M92 -141q53 37 109 256q45 23 90 127h28l29 -21q20 0 21 31l-29 49v31q47 35 78 186l10 10q0 61 98 127v11l-20 98q92 86 98 168l49 127q37 98 99 178l96 170l29 68l22 75h21v21h10l-31 78q31 129 98 129h31q88 -68 88 -140l-18 -77l10 -29l-121 -168v-10l-96 -187 q0 -109 -90 -108q-37 -111 -49 -266q-98 -63 -99 -156q-137 -104 -137 -315q-80 -117 -80 -207q-74 -123 -155 -305q-25 -98 -99 -99l-90 109v39z" />
<glyph unicode="0" d="M35 729l76 227q0 154 204 304q0 92 205 118l119 31q313 -82 313 -182q119 0 119 -248q27 -76 27 -90v-10l16 -84l-6 -133v-11l6 -104v-10l12 -45q-90 -238 -108 -248q-285 -248 -389 -248q-346 55 -346 119q-215 147 -215 518q-15 0 -33 96zM209 758l20 -125v-43 q49 -147 50 -248l49 -66v-32q109 -109 149 -109q236 -4 236 37q203 190 202 213q45 227 46 281q0 279 -199 520q-156 61 -219 61h-11q-270 -95 -270 -344q-23 0 -22 -76l-31 -59v-10z" />
<glyph unicode="1" d="M100 74q6 72 121 71l98 -32l189 32v23q0 55 -2 90v43q-2 59 49 158q35 16 35 108l-53 66l18 174q-10 139 -10 149v183q0 35 -195 65h-43q-68 0 -102 2q-88 0 -76 178l33 23l92 12q35 2 74 2l45 -2l63 -10h283q20 0 76 -119l-39 -61v-23l16 -67l-24 -109l-19 -119v-53 q55 0 10 -162q0 -29 13 -204q20 -164 20 -205v-68q0 -47 53 -55l228 10q98 -43 98 -104q0 -78 -180 -84l-156 10l-231 -27l-234 27l-119 -23q-92 1 -131 101z" />
<glyph unicode="2" d="M63 33q53 248 207 364q8 88 131 168l84 -14q215 135 314 369q20 70 -54 223l-202 100q-74 -6 -232 -113q-49 -152 -100 -153q-27 0 -86 37l-37 82l31 110q29 45 90 117q-4 33 51 31l33 2q27 4 65 -8l23 2q41 68 242 86q61 -39 190 -70l246 -195l8 -98q-12 -262 -96 -268 q-71 -172 -203 -258q2 -16 -46 -60.5t-147 -115.5q-203 -158 -221 -199q123 49 226 25l67 -21q49 43 88 45q31 -63 51.5 -93t30.5 -28l33 2q23 4 18 35l-18 84q16 53 39 60l31 2q53 6 139 -86q88 -20 90 -45l2 -13q-3 -43 -246 -172l-43 -4q-381 74 -483 66l-146 -68 q-166 12 -167 49z" />
<glyph unicode="3" horiz-adv-x="1196" d="M53 -72q20 74 174 74l54 -8q205 53 282 53q279 193 279 313q47 29 65 76q-55 231 -241 281l-156 -6q-20 51 -78 39l8 88q96 47 213 34l144 -24l10 76q115 145 16 227q-111 139 -350 104q-160 -41 -190 -143l-43 -14q-86 -12 -111 94q47 129 195 172q74 37 98 37l63 6 l115 29h23q295 -80 295 -105q0 -68 118 -106l23 -56l-10 -63l10 -109l-76 -260q0 -47 139 -172l13 -10v-12q0 -291 -76 -291q-25 -205 -172 -205q0 -92 -271 -162q-176 -57 -401 -75q-129 50 -162 118z" />
<glyph unicode="4" horiz-adv-x="1196" d="M43 242q223 420 340 669v21l-12 43l55 98l-12 64l12 131l-23 96v33q0 33 109 63l162 -96q-66 -23 -66 -86l23 -119q-76 -49 -76 -76l43 -86q-92 -139 -145 -303q0 -25 -27 -168q-70 -119 -141 -221q-3 -52 92 -24l336 4l20 20v23l-10 63l43 98l-21 86q29 178 66 185h33 q86 0 61 -109l43 -43v-20l-18 -131v-11q0 -86 12 -149q117 -23 209 -37q12 -68 -59 -133q-106 23 -136 -6q-25 -141 -16 -254q-63 -37 -160 -25l-28 31q8 84 -15 233q-72 27 -112 27q-90 0 -430 -53h-21q-131 0 -131 162z" />
<glyph unicode="5" horiz-adv-x="1196" d="M80 -147q63 27 266 77l139 80q133 45 328 215q154 283 0 410q-46 77 -203 110h-12q-82 0 -358 -118q-76 0 -121 274l121 348l-13 62q20 109 115 108h74q59 0 135 -49h37q43 0 108 64l193 47q39 -68 141 -86v-37q0 -72 -262 -96l-96 -35l-74 10q-106 0 -156 -84l-30 -125 l-35 -37v-35q25 -109 59 -108q236 43 332 -41l10 -12h13l108 22h12l156 -84q0 -131 47 -131q10 -55 19 -90q-6 -39 -46 -104l-12 -13v-10l39 -47q-141 -315 -295 -381q-160 -100 -368 -150q-231 -55 -365 -10z" />
<glyph unicode="6" d="M96 315v45l76 86v31l-33 45v43q70 399 162 400l43 53l-8 76v12q0 55 106 129q0 37 217 205q20 129 109 129q43 -16 63 -53v-43q-8 -102 -161 -238q-41 -164 -109 -164l-129 -205q-53 -53 -53 -114l57 43q88 63 223 94h31q55 0 98 -76l11 -10h12l86 10q0 -29 86 -121 q78 -113 78 -248v-96q-74 -313 -176 -354l-195 -86l-43 8l-139 -8q-139 0 -336 246q-8 81 -76 161zM279 403q84 -119 88 -249q61 -72 174 -86l151 -17q178 90 193 340v43q-41 184 -119 184q-117 43 -172 44h-53q-156 -1 -262 -259z" />
<glyph unicode="7" d="M76 944l53 240l-10 106q43 57 37 113h20l201 -4h45h166h10q102 0 168 -43h53q43 0 176 59h23q127 -66 127 -125q0 -61 -141 -323q0 -49 -86 -152q0 -94 -142 -280v-76l-86 -185l10 -96l-53 -65v-21l23 -88v-129q0 -92 -142 -106h-43q-63 37 -63 96l20 98l-20 53 q0 264 278 758l74 172l70 248q-90 63 -207 10l-121 8q-207 15 -207 -20q-12 -86 -24 -258q-41 -76 -103 -76h-10q-96 14 -96 86z" />
<glyph unicode="8" d="M49 307v12l12 60l-12 67v13q0 231 176 231l13 60q-106 164 -107 219q35 336 154 336q170 104 352 104q90 -12 176 -43h12q86 0 31 -47q66 -45 70 -121l82 -162q6 -174 -121 -225l-58 -49l19 -2q90 -57 176 -105q15 -58 117 -209v-67q0 -199 -363 -395l-250 -13 q-200 12 -325 117q-74 0 -154 219zM203 307q158 -184 258 -184l104 10l119 -10h23q102 0 188 219v104q0 98 -305 222q-195 0 -365 -244l-22 -92v-25zM260 1026q0 -41 107 -115q61 -117 280 -116q35 0 72 104l69 70v104l37 70q-53 94 -166 94h-129q-158 0 -270 -199v-12z" />
<glyph unicode="9" d="M98 944q0 90 37 195l72 12l-10 63q6 35 106 86q80 109 240 109l172 -10l53 10q135 0 313 -227v-23l13 -117l-13 -131l-14 -260q-23 -86 -127 -202q-29 -117 -149 -250q0 -57 -336 -377h-64q-98 18 -98 86q0 43 78 59l32 33l31 59q47 18 47 47l39 50v32q0 35 137 142 l101 119q-20 47 -43 53h-109q-100 0 -280 108q-63 0 -195 140v43q-52 43 -10 43v22q-23 23 -23 86zM272 967q-25 -164 119 -228q35 -74 152 -98l53 -10l125 12q84 -18 145 172l21 129v66q-2 158 -152 204q-109 76 -139 76q-270 -98 -270 -139z" />
<glyph unicode=":" d="M203 893q113 182 248 182h53q59 -27 139 -149v-56q-80 -195 -248 -194h-10q-102 0 -182 217zM242 160q-72 111 69 233q233 74 310 -47q23 -104 -72 -250q-225 -68 -285 27z" />
<glyph unicode=";" d="M221 786q-12 211 141 283l11 4q94 43 209 -67l51 -129q-78 -133 -103 -193l-96 -22q-70 0 -190 75zM240 170q-39 131 61 195l45 22q117 35 229 -27q47 -41 56 -61l2 -8l-15 -101q43 -133 -69 -284q-68 -49 -109 -64l-55 -16q-82 -18 -96 22q-74 57 -2 80q113 35 92 99 q-8 31 -103 73l-30 45z" />
<glyph unicode="&#x37e;" d="M221 786q-12 211 141 283l11 4q94 43 209 -67l51 -129q-78 -133 -103 -193l-96 -22q-70 0 -190 75zM240 170q-39 131 61 195l45 22q117 35 229 -27q47 -41 56 -61l2 -8l-15 -101q43 -133 -69 -284q-68 -49 -109 -64l-55 -16q-82 -18 -96 22q-74 57 -2 80q113 35 92 99 q-8 31 -103 73l-30 45z" />
<glyph unicode="&#x3c;" horiz-adv-x="1193" />
<glyph unicode="=" horiz-adv-x="1200" />
<glyph unicode="&#x3e;" horiz-adv-x="1193" />
<glyph unicode="?" horiz-adv-x="1200" d="M72 1249v25q0 84 217 168q55 74 190 94l168 -35l84 47h25q102 -102 217 -131v-24l106 -84q49 -63 49 -131v-50q0 -35 -49 -34v-13q0 -41 -84 -96q-57 -18 -96 -156q-252 -117 -252 -239q-80 -74 -131 -74h-37l-35 37q0 264 119 264q86 150 230 205l12 59v72 q0 94 -242 215h-59l-25 -35v-12l25 -96q-51 -160 -72 -168l-227 -47h-25q-59 -1 -108 239zM367 143q0 76 145 168h23l120 -37l84 25q16 0 72 -143v-37l-109 -60q-80 -96 -202 -96q-133 49 -133 180z" />
<glyph unicode="@" d="M16 815q104 457 197 457q0 104 371 178h32q383 -57 383 -178q37 -84 105 -168q57 -190 57 -264l-35 -121l13 -60q0 -16 -27 -96l-10 -12v-12q47 -72 47 -109q0 -63 -358 -106l-140 47l-102 -47q-244 53 -244 251v107q59 326 174 326q47 96 127 96h33l104 -84l82 22 q51 -20 58 -47q-47 -102 -58 -323l-12 -13v-12l23 -59l-45 -74v-35q12 -37 69 -37q123 0 162 252q0 231 -55 371q-98 182 -199 182q-27 59 -92 60l-117 -35l-80 22q-311 -135 -311 -370l22 -121l-47 -47l13 -121l-25 -72q92 -301 279 -385q51 -20 57 -47v-37l-45 -47h-12 q-334 150 -334 383q-31 0 -47 205l12 108zM397 588q31 -145 127 -146q152 0 152 230q57 31 57 96v47q-18 131 -57 131h-37q-47 -41 -150 -59q-92 -63 -92 -299zM524 84v10q41 61 127 62l13 -13v-12l-93 -84h-12zM711 106v25q4 39 219 96q90 72 137 72h12l45 -47v-12 q0 -88 -114 -156l-80 10q-43 0 -117 -59h-35z" />
<glyph unicode="A" horiz-adv-x="1196" d="M33 88v37q0 27 143 47q84 221 109 457q84 213 121 540q23 0 59 228q90 96 156 96q125 -12 145 -373q88 0 119 -370q0 -180 24 -181l-12 -59v-37q72 -172 72 -252q29 -29 168 -71l24 -62q0 -72 -301 -72q-143 39 -143 72v37l121 84v84q0 92 -109 133l-227 -25l-62 13 q-72 -6 -71 -37v-25l12 -106l-25 -74q121 -43 121 -59v-25q0 -63 -276 -72l-13 -12q-155 39 -155 84zM453 582q25 -72 96 -72q193 31 192 106v13q-72 119 -71 311l22 84q-18 61 -84 61q-57 -33 -106 -288q-37 0 -49 -215z" />
<glyph unicode="B" horiz-adv-x="1200" d="M14 115q16 23 133 22q84 119 84 168v74l-12 143l12 180v181l-12 106l25 121q0 232 -130 232q-5 0 -10 -1q-72 10 -71 72q0 49 162 92l133 -12l168 12q0 -33 305 -39l168 -118q74 0 96 -72l-12 -109l12 -59q-25 -139 -168 -346q115 -35 211 -121l59 -190 q-59 -373 -204 -373l-144 -84l-49 12l-491 -12h-23q-242 0 -242 121zM340 246q47 -106 72 -109h274q276 43 277 158v178q0 49 -86 129q0 16 -185 78l-280 22l-37 -84l12 -155zM362 1038q55 -219 50 -225l143 8l133 -22q68 14 127 84q36 42 37 90q0 30 -14 61l22 49 q-38 254 -142 255q-4 0 -7 -1l-72 -12h-25l-131 25h-49q-18 0 -59 -72l12 -84v-37z" />
<glyph unicode="C" d="M86 602l27 180l6 228q0 43 78 192q31 86 147 228l109 12q96 96 147 96h25q41 -45 200 -59q20 -55 47 -62l86 49h35q72 -45 70 -120l-14 -109l18 -168q-18 -131 -86 -131t-102 205q-25 2 -80 180q-174 84 -215 84q-68 0 -258 -301l-58 -76l-20 -151l-31 -134 q0 -45 12 -131v-24q37 -160 72 -279q20 0 86 -57l156 -109h180q59 0 72 37l2 35q49 45 49 76q55 92 61 164l64 61q119 0 119 -37l22 -84q-63 0 -76 -155q-242 -250 -307 -250l-94 22l-84 -22q-55 35 -191 69l-198 205q-76 166 -76 324v12z" />
<glyph unicode="D" horiz-adv-x="1200" d="M14 39q12 47 13 94h86q19 -6 35 -5q84 0 84 144q0 16 -1 33v8h-2q0 2 1 3l1 3v3q12 55 13 137l-25 125l12 112v189l-4 233l-30 160l34 74l-55 -13q-15 19 -43 19q-23 0 -53 -12q-16 14 -35 131q29 4 58 4q40 0 79 -8l146 20l168 12q0 -33 358 -47l82 -108q72 0 94 -72 l78 -121l10 -59q23 -257 24 -443q0 -324 -71 -424q-57 -86 -162 -170l-90 -67l-49 12h-274l-240 -12h-121q-121 0 -121 45zM336 455q32 -50 32 -92q0 -27 -14 -50l-14 -67q47 -106 72 -109h274q43 9 80 25q30 106 110 106q10 0 21 -2q29 37 37 53q-30 86 -30 113q0 48 95 80 q4 27 9 84q2 39 1 78q0 97 -10 205q-74 336 -288 413l-72 33h-25l-131 25h-49q-18 0 -59 -72l4 -31h-17l25 -112l-12 -162l-13 -438z" />
<glyph unicode="E" d="M20 1462l84 49l74 -41l146 37h12l168 -37l274 50l84 -37l84 12q158 -43 158 -141l22 -117v-59q0 -119 -96 -119h-10q-41 0 -96 248q-27 23 -181 34q0 18 -84 48q-348 -53 -348 -164q84 -29 84 -47l-37 -95l25 -96l-37 -92l37 -37h168q109 18 108 94l-12 131l60 47 q86 0 133 -143q-47 -59 -72 -305l47 -84q-25 -164 -72 -164h-36q-59 0 -72 248q-51 47 -121 47q-117 0 -156 -82q12 -237 37 -319l-71 -70v-25q0 -33 118 -47q39 -70 97 -69l168 22l155 -22q59 90 74 153l-12 164q61 158 96 164h22q119 -57 119 -129q-35 -80 -59 -330v-82 q0 -43 -119 -57l-276 10h-25l-59 -10l-60 10l-311 -10q-121 16 -121 45q72 186 72 236l-13 106q43 92 72 307l12 35v35q-59 74 -59 119v12l37 82q-49 72 -49 106l12 107q0 166 -145 203q-50 20 -50 69z" />
<glyph unicode="F" d="M45 106q0 20 47 39l109 -14l35 39l-17 199l33 225v61l-29 199l-2 64l21 223q-33 68 -52 200q-133 0 -133 37l-2 37q0 51 215 101l84 -13h72l301 -12l178 25q254 -37 254 -113l-33 -125l4 -162q0 -76 -131 -125l-71 76l8 125q0 63 -148 162q-420 0 -415 -113l2 -149 l12 -50l-45 -112q16 -76 193 -76q133 37 129 213l12 12h47q63 0 86 -51l-23 -110l52 -150q-51 -49 -84 -49l2 -64l59 -73v-15q2 -66 -45 -86h-25q-39 2 -135 238l-61 10h-109q-45 -25 -45 -61l31 -400l-23 -110l50 -37l108 10h25l59 -61v-13q-25 -61 -117 -61h-276 q-207 10 -207 74v36z" />
<glyph unicode="G" d="M31 651l28 119q6 551 78 547q102 133 164 160l59 -15h13q35 0 159 76l168 -6q334 -45 330 -123l78 -149l6 -97q-39 -125 -127 -153l-104 22q-39 18 -45 256q-203 101 -265 105q-31 0 -161 -113l-60 -8v10h-5q-45 0 -71 -55l60 -64l-31 -131l19 -145l-54 -129l-2 -13 l31 -108l-59 -152q-2 -32 -2 -59q0 -192 73 -195l90 -67q498 12 523 125q44 33 44 136q0 42 -7 95l-58 41l-131 -41q-35 27 -72 27q-29 0 -61 -17l-43 70q13 139 69 139q11 0 25 -6q43 -6 87 -6q101 0 204 33l25 -2l110 -25q46 -55 43 -86q-38 -103 -59 -103q-3 0 -6 3 l-17 -185l43 -73v-13l-26 -96l18 -96l-2 -25q-43 -53 -116 -53q-20 0 -44 4v99q-105 -98 -234 -99q-49 0 -102 15l-145 -29q-346 98 -340 219q-14 76 -86 219z" />
<glyph unicode="H" d="M35 1436q4 53 248 61q157 -6 239 -31l23 -45l-39 -88h-16q-171 0 -170 -58q0 -6 2 -13l-3 -37l23 -25l4 -88h-8q-39 -41 -39 -84l-2 -37l27 -30l28 -130q-8 -2 -26 -2l-2 -36q0 -25 34 -27l199 51l139 -16l201 6l25 94l-9 86l17 74q-29 61 -39 213q-119 78 -115 166 q29 23 221 39h15q78 0 115 -32.5t34 -96.5q-20 -57 -81 -58h-7l-57 13l-29 -50l55 -125l-14 -49l16 -184l-32 -184l32 -324l-16 -98q-1 -16 -1 -32q0 -177 103 -179l23 -39v-12l-39 -35l-61 2l-187 -4q-106 20 -106 51q4 33 112 57l27 50l19 147v233l2 64l18 111l-18 34 q-61 -64 -113 -63h-4l-264 6q-258 -39 -269 -209q55 -385 156 -391l10 -12l-2 -25q-3 -46 -246 -46q-30 0 -65 1q-78 4 -80 51l2 37q117 104 117 131l-27 483l23 195l-25 51l19 123l18 238q-6 32 -36 32q-12 0 -30 -6l-59 51z" />
<glyph unicode="I" d="M43 113q23 53 51 59l156 -2l145 43l47 -49h23l27 22l8 181l14 49l-29 143l11 180l28 97l-28 133l24 227q1 12 1 23q0 144 -111 147l-193 4q-109 25 -104 64l2 34q0 29 49 35l143 -14l205 18l106 -37l193 31l109 -14l120 33q27 -43 28 -77q0 -35 -30 -61l-174 -39l-2 -22 l-106 14h-13l-71 -12l-60 39h-12l-25 -23l-2 -24q115 -76 115 -98l-41 -119l31 -111q-4 -84 -29 -84l4 -143l-2 -35l-24 -229l80 -326l45 -25l135 33l80 -45l120 8q70 -25 70 -49l-2 -24q-2 -35 -111 -58q-82 20 -81 39q-70 -49 -160 -49h-10l-529 12l-106 -10 q-59 18 -88 46t-27 65z" />
<glyph unicode="J" d="M94 367q-2 98 60.5 149t187.5 53h12q14 -31 111 -84l12 -12v-10q0 -20 -119 -90l-20 -86v-13q0 -40 86 -147q0 -35 49 -35q316 6 316 427q0 12 -1 24l-26 110l33 123v37q-76 100 -76 145l47 101l-27 98l45 76v22q0 20 -229 82l-37 62l-2 10q0 52 215 104l72 3 q326 -31 325 -80l2 -50q-8 -47 -200 -126l-12 -13v-24l24 -99l-33 -100v-23q0 -43 52 -98v-12q-47 -53 -48 -100l2 -23l27 -135l-35 -76l17 -197q-49 -260 -115 -260q-72 -86 -272 -141l-97 -2h-3q-98 0 -277 213z" />
<glyph unicode="K" d="M14 1403l2 63q2 14 29 31q27 18 51 27l140 -43l139 32l207 -6l26 -26v-13q-27 -41 -69 -67q-65 -47 -161 -47h-11l-23 -29l12 -367v-24q-41 -43 -41 -86v-14q0 -6 17 2q41 31 76 63q20 61 120 131q33 96 238 266v39l-139 115v12q0 16 18 25q14 14 62 20l141 -12l192 31 h84l41 -39l-12 -6v-2l-98 -56l-94 -51q-25 -8 -35 -14q-8 -6 -8 -15v-24q29 -31 28 -64q0 -15 -6 -30v-13q0 -14 -57 -51q-47 -33 -131 -80q-125 -137 -125 -219q0 -39 137 -166q98 -276 197 -442l40 -78q45 -63 136 -63l43 -52v-12q5 -9 5 -17q0 -17 -20 -26 q-14 -16 -78 -16h-309q-72 0 -84 39v24q0 14 29 31q29 23 127 51v58l-182 241q-63 195 -189 314q-63 -61 -125 -130l-12 -126l10 -201l-12 -115q0 -41 35 -41q14 0 33 6l92 -24l6 -90l-12 -4v-5q-86 -28 -375 -30q-96 31 -96 53v37q0 6 20 18q25 18 147 70l13 57v27l-27 227 l14 137l-12 140l15 112l-27 90l29 240q0 150 -152 180zM391 1214q9 -3 17 -2q23 0 22 26q0 14 -6 34q10 2 19 2q52 0 79 -76q-39 -65 -73 -65q-23 0 -43 28z" />
<glyph unicode="L" d="M39 1405v12q0 78 72 109q36 -9 66 -9q57 0 97 31h35l25 -22v-37l-25 -37v-35h37q37 84 227 84l109 12q72 -25 72 -49v-34q0 -49 -265 -84l-12 -13v-12l-10 -354q-74 0 -74 -97q76 -26 76 -111q0 -15 -2 -32v-96l10 -72l-35 -192l13 -215l59 -25l221 25h13l96 -25h37 q59 2 71 135q20 0 37 217q35 33 72 43q72 -25 72 -96l-23 -72v-12l35 -119v-71q0 -156 -217 -156h-60l-534 10l-211 -18q-84 31 -84 84q72 121 131 121q51 -48 80 -48q18 0 24 19v35q-37 43 -36 84q37 0 36 49h13l-49 71v13l24 106l-59 467q0 88 35 180q0 188 -105 189 q-80 0 -94 47z" />
<glyph unicode="M" d="M23 1415q3 90 109 91q7 0 13 -1l113 -12l84 -2q70 -52 70 -95q0 -21 -23 -73l31 -61q20 -6 69 -168l50 -82q0 -7 -1 -14q0 -94 40 -226q39 -16 73 -41q68 289 133 418q9 190 123 344l97 18l102 -6q74 -10 70 -39v-12q-29 -63 -95 -113l-20 -63q4 1 7 0q19 0 19 -15 t-18 -44q3 -261 3 -275q0 -33 -1 -45l43 -131l-61 -172v-12l47 -103l-21 -235l-2 -49q-4 -94 107 -119l10 -12v-13q-6 -33 -111 -65l-24 6l-168 6q-141 6 -156 68q2 23 25 65l112 47l-4 182l29 164l12 150l54 117q-39 112 -40 194q0 6 1 12q0 59 16 119q-31 31 -51 31 q-28 -74 -49 -160l-15 -57l-84 -311l-12 -9q-76 -170 -123 -170h-2q-179 69 -179 186q0 14 3 29l64 70l2 12q-101 83 -101 208v14l-28 73q-37 9 -38 86q0 6 1 13h-25l-37 -35v-13q-2 -45 21 -86q-23 0 -64 -79q90 -299 86 -359l-18 -190q2 -56 2 -103q0 -79 -6 -123l137 -61 l-47 -74q-83 -19 -175 -18q-75 0 -155 12q-27 2 -27 39q0 27 15 76l67 20l9 88v135q49 23 49 47q0 18 -27 40l-14 120l12 138l21 215l-21 98l33 188q6 31 6 55q0 86 -78 89q-46 18 -69 63z" />
<glyph unicode="N" d="M33 1434q45 74 119 73h12q217 -18 217 -86q4 -68 61 -73q35 -33 39 -136q127 -186 127 -223v-24l-10 -13q0 -37 47 -37q12 -71 12 -98l19 -98q76 -100 115 -297l34 -25h37q29 0 35 62l-53 184l57 137l-18 172l18 199q-2 223 -49 229l-80 9l-47 57q20 49 72 49l143 10 q43 5 78 5q69 0 90 -19h47l19 -98q-35 -19 -78 -20q-29 0 -60 9l-8 -71v-13l16 -110l-8 -209l27 -395l-23 -88l15 -86q-37 -57 -37 -101q43 -80 43 -199q0 -118 -164 -118q-51 16 -74 59l-2 27l47 61v37h-12l-84 -12q-135 219 -154 432l-40 47q0 18 -84 125 q-53 211 -103 211h-10q-76 0 -119 -100q76 -98 76 -136l-33 -110l51 -123l-34 -88l16 -135l-35 -111q0 -51 195 -61l24 -37v-37q0 -41 -250 -49q-217 12 -217 59l-2 37l156 88l20 74q-61 83 -61 123l33 110l-27 86l10 113l-26 98q0 143 26 217h13l2 181l-4 135 q-18 47 -51 47q-13 0 -29 -8q-47 23 -82 82z" />
<glyph unicode="O" d="M59 762q25 35 45 287l-8 108q98 211 162 211h2h5q84 0 108 92q31 25 239 51l50 23l274 -117l10 -12v-10l8 -64q197 -218 197 -491q0 -74 -14 -152l18 -156q-92 -131 -104 -249q-43 -16 -152 -209q-206 -98 -274 -99h-4l-299 70q-263 269 -263 672q-1 22 0 45zM193 768 q9 -49 8 -86v-20l10 -62l31 -55l18 -133l-2 -35q78 -59 78 -88v-35l76 -55v-13l47 -39q18 -19 60 -18q74 0 229 57q121 53 126 176q98 127 103 199l8 264q-47 451 -280 514l-25 2q-12 1 -24 1q-122 0 -222 -56l-82 -84l-51 -51q-29 0 -82 -238v-12q-26 -94 -26 -133z" />
<glyph unicode="P" horiz-adv-x="1200" d="M37 1419v37l59 49l146 -12h180l215 12q299 0 516 -293v-49q0 -332 -240 -454q-55 -25 -155 -25h-289q-18 0 -37 -47l12 -270l-22 -136q0 -78 156 -98l12 -12v-49q0 -86 -469 -86h-12q-35 12 -35 73v37l47 49l121 -36h22l37 36v13l-72 209l13 366l-13 74l13 37l-13 172 v110l25 158q-29 98 -193 98zM397 918q0 -123 277 -123h47q252 55 252 233l12 49q0 246 -131 246l-180 47h-37l-72 -10l-133 37h-10q-25 0 -25 -37l47 -148q-12 -194 -47 -294z" />
<glyph unicode="Q" horiz-adv-x="1196" d="M23 614l18 131l-18 84l18 97l-10 49q78 102 86 248l131 174q68 97 209 97q12 0 24 -1l133 31l322 -76q193 -273 193 -400q0 -12 -1.5 -34t-1.5 -32q0 -40 4 -87l-2 -12l-2 -58l-2 -49q0 -4 11 -14l-35 -129l-8 2q-49 -8 -52 -57l35 -27h23l10 -131q-2 0 -7 -1t-9 -1 q-2 -45 -84 -201l-66 -43q-80 -106 -147 -111q27 -119 57 -122l31 -29q148 123 196 123h2l62 8q57 -20 53 -86v-25q-106 -98 -131 -186l-109 -18l-49 2q-154 33 -196 266l-33 37l-152 -56q-291 104 -348 222q-112 186 -155 415zM166 596q-4 -76 92 -258l12 -12h13h3 q80 0 208 145l49 10q98 -6 184 -129l18 -55l25 -92q104 131 174 170q23 137 25 180l-8 98l28 72q-2 408 -84 412q6 121 -190 237q-276 -23 -281 -71q-51 -90 -158 -121q-100 -160 -99 -283q0 -14 1 -27l-4 -71l-6 -158zM350 213l160 -102l35 -2q78 44 102 43q10 0 10 -7 q0 -3 -2 -8q-15 174 -77 174h-3q-23 18 -47 18q-43 0 -94 -57z" />
<glyph unicode="R" d="M12 47l19 59l164 29l14 105l-23 84l27 106l-10 338l16 156l-6 143l14 72q-61 219 -75 219l-119 76l2 22q3 44 115 44q14 0 30 -1l131 -26l181 28q264 -10 394 -74.5t126 -183.5q78 -72 78 -142q0 -117 -191 -310q-39 -59 -41 -132l70 -98v-10l-29 -109q12 -311 64 -319 q66 10 102 133q9 41 69 41h9h12l23 -27l-27 -94l-29 -129q-35 -59 -104 -59q-34 0 -76 14q-143 43 -139 109q-33 63 -33 444q2 59 -36 91t-116 34l-129 41l-36 2q-111 -12 -113 -141l6 -131l-14 -97l20 -98l-12 -45q-4 -66 199 -105l34 -49v-12q-2 -57 -315 -57 q-79 0 -178 4q-52 18 -68 55zM352 928l41 -60q60 -2 113 -2q370 0 373 113l45 68v22q-88 293 -262 299l-144 -29l-65 15q-33 0 -88 -43l2 -256l-2 -58z" />
<glyph unicode="S" horiz-adv-x="1196" d="M61 481q23 84 84 84q57 0 97 -180q96 -55 96 -203l240 -37q287 0 286 146q96 90 97 143q0 104 -168 252q-8 59 -97 59h-143q-176 0 -324 168q-72 150 -71 205v47q0 221 274 314l96 12l301 -49l119 24q133 0 133 -252v-108q0 -96 -96 -96q-72 0 -121 155 q-133 193 -323 193q-227 -77 -228 -252l-12 -72q88 -168 336 -168l143 25q55 0 158 -121q190 -66 190 -205l-59 -106l47 -97q0 -201 -155 -251q-109 -96 -265 -97h-143q-92 0 -289 60l-106 -25q-97 158 -97 432z" />
<glyph unicode="T" horiz-adv-x="1196" d="M35 1030v25q72 78 71 121l-24 106q37 127 143 193h13l239 -13q0 23 74 49l131 -24l143 12l109 -72h47l86 72q53 -14 53 -108v-48l25 -301q0 -86 -54 -86q-8 0 -18 2q-43 0 -61 84q-37 0 -62 50l13 96q-49 143 -160 143q-70 0 -109 -143v-25q-25 -164 -24 -217l12 -10 q-25 -74 -37 -313q25 -59 27 -72v-12q10 -41 10 -97l25 -108v-12l-13 -60v-47q0 -96 97 -96l106 12q96 -31 96 -59v-25q0 -35 -119 -59l-229 12h-262q-92 0 -109 47v25q0 45 181 59q0 63 84 131l-35 55v37l57 113v37l-20 31v34q20 88 20 138l-35 108l35 109l-22 118l22 72 v12q-72 217 -227 217h-60q-43 -373 -96 -372l-24 -25q-66 0 -119 84z" />
<glyph unicode="U" d="M20 1417v25q0 61 330 67q129 -12 160 -61q0 -65 -37 -74q-53 0 -94 -12q-59 -6 -94 -105q49 -53 49 -96l-49 -155v-25l12 -215l37 -96q0 -68 -49 -168l59 -146l-10 -96q98 -39 168 -123l168 -24q88 0 215 200l12 144l-25 168l70 143l-20 137l-7 381q-23 63 -176 111v47 q0 49 277 67q160 -43 160 -88v-45q-6 -25 -121 -24q-17 -72 -17 -139q0 -25 2 -50l-16 -49l2 -37h25l24 -239l-22 -121l-25 -109l25 -96q0 -307 -131 -405q-205 -115 -289 -115q-365 6 -457 305l-22 395l22 121l-59 121l37 84q0 332 -121 385zM365 436q13 45 34 45 q18 0 43 -32q14 2 25 2q27 0 27 -18q0 -9 -7 -23l-41 -54q-11 -2 -20 -2q-58 0 -61 82z" />
<glyph unicode="V" horiz-adv-x="1200" d="M8 1462v13q29 59 121 59l121 -47q18 59 72 59l172 -39l2 -98q-33 -39 -111 -51h-86l27 -137q0 -25 65 -244v-12l-6 -129q2 -45 59 -142l25 -59v-135l57 -213q23 -47 62 -47q86 233 86 393q29 0 47 94l61 76q0 72 23 213v12l47 207l37 59q0 70 -121 123l8 113l41 4l96 -25 l215 13q49 -18 50 -35v-37q-6 -27 -62 -47l-72 10h-12q-26 -37 -26 -73q0 -22 10 -44h12l-6 -34q-11 -176 -42 -177q-3 0 -7 2l-25 -22q-14 -74 -14 -111q0 -25 4 -143q-8 -8 -47 -8l-12 -12v-25l-15 -182q-47 -70 -71 -228l24 -120q-96 -49 -96 -144q0 -78 -180 -121 q-119 43 -119 242q-74 244 -74 371l25 59q-96 0 -97 242q-72 133 -71 311q-88 229 -172 229z" />
<glyph unicode="W" d="M14 1413q6 72 31 72h33q42 -33 92 -33h8l66 14q3 0 5 1q50 0 83 -56v-10q0 -20 -119 -98l-10 -37l22 -115l-20 -96l45 -117l-8 -104q43 -68 43 -105l-54 -84q55 -150 91 -149l43 2l-23 94q0 23 64 131l-9 22l29 164v82q47 86 141 88q88 -18 88 -45l-10 -139l80 -127v-35 q-4 -12 -8 -16q45 -190 69 -277l13 -10h55l8 37l-43 70l-2 22l23 94l-15 189q43 23 43 84q-45 72 -45 102q57 20 95 193l12 12q-27 76 -156 170v22q0 47 227 56l33 2h11q119 0 145 -68v-22q0 -68 -109 -133l-41 -130l13 -116l-54 -62v-12l45 -115q0 -35 -86 -155l-10 -47 l25 -95l-2 -12l-31 -199l12 -59l-8 -70l10 -69q-53 -111 -161 -113h-43q-43 -4 -93 254l-20 35l8 141q-4 84 -39 228l-20 51l-35 35q-22 -40 -43 -62v-199l-74 -247l12 -117q-80 -108 -141 -111h-3q-117 0 -120 254l-12 35l23 107q-66 176 -70 372l18 107l-35 117l11 116 q-49 166 -103 244v47z" />
<glyph unicode="X" d="M4 135l35 25l94 -25h37q23 0 23 35q0 70 126 158l-12 84v12q33 33 103 203q57 49 57 143l20 72q-70 186 -178 350q0 90 -213 156q0 18 -71 47v37q61 72 116 71l166 -49l129 49q35 0 72 -143q-23 -43 -82 -76q111 -248 160 -334q119 113 119 211l86 78l22 37q0 20 -129 94 l-12 62l35 47l116 -13q90 37 164 37h47q131 -37 131 -71v-25q0 -35 -258 -109q-35 -25 -55 -155q-92 -139 -92 -299q-45 -39 -45 -96q0 -98 155 -314l-10 -35l109 -204l149 -7l47 -36v-35q0 -109 -57 -109l-188 41q-102 -14 -161 -14q-83 0 -83 28l-10 50q29 33 122 63 l3 115q-170 264 -195 368l-39 -81l-51 -70l-45 -131l-10 -121q-17 -35 -17 -60q0 -62 102 -61h21l-14 -74q0 -41 -244 -47h-188q-107 64 -107 121z" />
<glyph unicode="Y" d="M-8 1397q4 29 71 84h7l3 4q3 4 7 6l70 -4h24l131 24l98 -30l146 4l33 -88q-4 0 -9.5 -2t-9.5 -4l2 -5q-164 -68 -234 -68q-6 0 -12 1l35 -100q96 -150 97 -236l124 -180q80 68 203 295l80 143l16 86q-80 35 -159 51l20 107l15 -2l2 10l45 -8l49 22l119 -12l104 21 q129 -49 129 -82v-13q0 -33 -70 -90l-12 -16h-10l-6 -8h-43h-15l-73 -144l-66 -145h12q-133 -231 -239 -438l-17 -170l39 -123l-22 -154q18 -47 35 -47h37l96 25l82 -15q64 -22 63 -40q0 -7 -8 -13l-12 -59h-15l-2 -11l-311 9l-2 -5h-8l-8 -8h-13l-71 13l-109 -25l-217 12 l-35 35v37l25 35h10l6 10l143 -12l64 4q49 34 80 147l-25 156l33 299l-125 139q-117 109 -237 518q-13 -1 -26 -1q-63 0 -122 26z" />
<glyph unicode="Z" horiz-adv-x="1196" d="M47 1102v12q61 373 133 373l47 -12l482 22q358 -18 358 -94q0 -41 -168 -242q0 -57 -143 -180q-31 -211 -193 -346q0 -55 -106 -74v-106q-47 -217 -168 -217l-13 -13v-47l35 -37l457 13q131 0 131 264l62 49q76 0 167 -109l-12 -145l12 -10v-13q0 -57 -167 -180l-193 13 q-84 0 -84 -25l-180 12h-289q-106 0 -106 180q0 72 251 420q43 0 72 109l72 47l-12 59v13l96 84q0 66 217 323l10 62v12l-35 35h-444q-63 0 -84 -47l24 -156q0 -104 -83 -158h-37q-109 17 -109 109z" />
<glyph unicode="[" horiz-adv-x="567" />
<glyph unicode="\" horiz-adv-x="567" />
<glyph unicode="]" horiz-adv-x="567" />
<glyph unicode="^" horiz-adv-x="960" />
<glyph unicode="_" horiz-adv-x="1200" d="M-39 68v4q0 33 23 90h227l45 -4h10l101 -25l186 23q102 6 102 -9q41 16 125 21l25 2l10 -8l12 8l150 4l55 10q18 -14 90 -18l35 -16h12l48 -5q16 -45 18 -51v-16v-4q0 -92 -70 -111l-858 -6l-311 8q-33 17 -35 103z" />
<glyph unicode="`" d="M358 1319l7 41l6 6q53 18 108 53l8 2l11 -12q2 2 8 5l10 5l8 2l13 -12q12 -53 71 -96l10 -23l70 -92l17 -27l2 -34q-43 -43 -70 -25q-33 -18 -53 18l-58 27q-4 6 -45 55l-4 31q-84 35 -110 64z" />
<glyph unicode="a" d="M57 256l2 31q89 215 266 215h15h12q71 0 205 33h168q-13 26 -13 85q0 12 1 25l2 10q4 82 -178 150q-25 0 -136 -123l-120 -39q-96 55 -93 125q152 158 314 158h18q178 -9 277 -99l10 -45q70 -14 102 -96q16 -72 17 -137l-27 -123v-20q13 -69 13 -110q0 -8 -1 -15l-22 -66 q20 -63 59 -68q47 12 70 52l31 -13l86 7l12 -11l-2 -12q-6 -135 -289 -178q-39 2 -137 92q-25 0 -113 -82h-20q-102 -25 -144 -45l-53 2q-182 84 -233 86q-103 145 -99 211zM233 307q-32 -35 -31 -75q0 -48 44 -105q43 -29 73 -47l43 -2q70 31 115 31h8l74 4q10 0 20 -1 q126 0 146 78v13q3 69 3 114q0 72 -7 111l-109 -18l-114 -2h-23q-240 -44 -242 -101z" />
<glyph unicode="b" horiz-adv-x="1202" d="M49 1229v22q31 129 119 129h63q96 -37 138 -39q37 -187 37 -227l-25 -133l-8 -119q-31 -39 -31 -76h31q176 129 248 129q379 -72 378 -184q53 -47 76 -129l23 -53q0 -106 -27 -287q-59 -174 -168 -225q-147 -53 -217 -72q-193 18 -309 80l-90 -72h-45q-47 25 -66 86 l21 228l-13 233l29 154q-9 60 -9 101q0 30 5 50q-20 59 -21 176v62l21 100q-35 49 -150 56zM354 231l99 -41q68 -55 245 -88q193 66 220 168l10 142l-66 252l-192 90q-260 -61 -260 -211q-43 -14 -43 -72v-18z" />
<glyph unicode="c" horiz-adv-x="1196" d="M123 551q41 176 145 260q0 59 45 78l70 -12q289 68 403 67q68 -27 68 -100h23q39 33 77 33h13q55 -28 55 -111q0 -162 -43 -223l-152 28q16 45 16 88q0 33 -9 64l-160 98h-45q-65 0 -264 -110q-69 -98 -70 -209q0 -65 24 -135l52 -119v-45q0 -33 135 -70l55 -55h23 q174 35 235 59l10 10h35l-4 66q2 55 78 74l10 12h45q27 0 35 -57q-44 -51 -44 -88q0 -30 28 -54q-106 -113 -248 -112l-90 22l-101 -45l-260 90l-32 23l-148 315v10l12 46z" />
<glyph unicode="d" horiz-adv-x="1200" d="M63 475q0 129 109 248q0 127 238 195l75 -11l86 21q35 0 119 -66l172 -88l25 127l-23 268q0 86 -256 86q-33 43 -33 76v12q0 55 43 74l130 -31h22q57 43 96 44q94 0 185 -175l-23 -311l8 -102q0 -205 -18 -316v-12l18 -158v-12l-12 -76l-35 -159q109 0 109 -31l39 -2 q2 -16 2 -31q0 -70 -49 -86h-56q-43 -5 -76 -5q-116 0 -116 66q7 16 7 30q0 31 -32 54l-33 -41q-123 -86 -245 -86q-248 6 -248 99q-184 184 -185 280q-43 43 -43 119zM260 342l21 -18l38 -60v-8q80 -127 156 -127h37q49 0 170 80q72 35 127 153q7 35 7 70q0 94 -48 184 q-129 115 -197 115q0 18 -67 21q-125 -20 -234 -224l-10 -155v-31z" />
<glyph unicode="e" d="M127 551q0 43 16 113v12q8 29 54 35q4 154 301 225l282 -12q2 0 10.5 1t12.5 1q74 -35 110 -58l39 33l35 -35q0 -33 4 -53q39 -33 39 -55l33 -64l14 -98q0 -80 -184 -117h-12l-172 -2l-177 4h-110q-117 -25 -166 -26v-13q41 -195 170 -274q63 -47 162 -80q78 23 188 31 q80 45 80 121q98 106 178 122h13l34 -36v-25q-26 -38 -25 -65q0 -18 11 -33v-10q-6 -6 -14.5 -12.5l-16.5 -12.5q-61 -71 -92 -74q-53 -37 -108 -61q-168 -66 -199 -66q-109 0 -356 127q-143 74 -144 277q-19 0 -19 66q1 44 9 114zM270 688q-1 -8 -1 -18q0 -34 18 -82 l102 10l70 -23l102 23l172 -23h127q37 0 70 19l4 6v37q0 80 -27 127l-57 51h-139l-172 -12l-113 12q-45 -16 -156 -127z" />
<glyph unicode="f" horiz-adv-x="1200" d="M143 10l17 66q0 25 97 25q58 0 149 -9l10 10v11q0 35 -76 49l22 168v43l-22 129v76l25 198q-66 24 -129 24q-35 0 -70 -7q-20 23 -20 56q0 36 24 87q92 0 180 -8v71l-10 205q98 205 303 205l43 23q301 -40 301 -129l55 -43l11 -175q-29 -55 -103 -55h-3q-49 0 -85 96 q-37 160 -139 160q-14 11 -37 11q-43 0 -115 -37q-52 -77 -52 -279q0 -29 1 -61q89 -26 167 -26q27 0 52 3q33 -38 34 -90q0 -15 -3 -31q-48 -23 -124 -23q-57 0 -130 13l8 -59l-12 -291l12 -314l135 -8l99 27q66 -6 67 -82v-23q-18 -43 -73 -43h-445q-123 0 -164 37z" />
<glyph unicode="g" horiz-adv-x="1200" d="M63 -150q0 184 152 259l21 20q-51 55 -52 121q0 72 62 156q-69 116 -69 217q0 102 71 188q86 129 172 129h151l162 -53q45 86 109 86h32q227 -55 228 -172q0 -27 -53 -49q-80 38 -124 37q-37 0 -46 -27l8 -37l10 -113q2 -254 -176 -338l-199 -10l-106 39l-60 23 q-39 -39 -39 -63q0 -37 94 -38q21 0 46 2q172 -35 299 -55q301 -2 305 -299q-106 -223 -318 -260l-204 -12l-109 12l-166 6q-121 43 -158 143q-43 45 -43 88zM178 -96q41 -139 248 -183l119 11l151 -11h11q129 43 202 156q2 13 2 26q0 144 -235 152h-260q-238 -79 -238 -151 zM340 512q51 0 98 -92l135 -43q166 12 205 223l-39 109q-83 86 -184 86q-111 0 -203 -50q-35 -58 -35 -117q0 -47 23 -93v-23z" />
<glyph unicode="h" horiz-adv-x="1206" d="M33 1303v86q23 41 102 49l162 -8l92 -33l33 -31l-39 -147l20 -64l-6 -65l-26 -158l43 -33l61 45q53 49 147 49q50 0 113 -14l146 -72l53 -24q79 0 79 -41q0 -14 -9 -33l12 -139l-12 -129l-13 -31l-4 -102q-13 -36 -12 -124q0 -62 6 -149l33 -10l86 10q43 -16 63 -53 l-12 -55l-41 -43h-293q-65 0 -65 80q0 13 2 28q0 31 82 43l12 33q-41 227 -60 227l54 70v28q0 233 -51 281l-119 51l-74 13q-101 -22 -190 -111l-29 -235q0 -37 33 -76v-10q0 -90 -23 -236v-12l10 -11h70q72 0 98 -63q0 -105 -56 -105q-2 0 -3 1q-135 24 -224 24 q-82 0 -128 -20q-73 3 -74 106q0 15 2 31q6 26 67 26q23 0 54 -4l16 275l-10 205l10 98v188v66l-4 219q0 51 -160 51z" />
<glyph unicode="i" d="M117 66q0 55 162 86q0 51 184 75l76 -20q43 12 43 53q-86 43 -86 109v43l10 118l-23 109l13 63q0 98 -326 99q-43 46 -43 86l43 43h12l140 -33l174 10l96 -30q27 68 53 73q78 -31 78 -106l-23 -99l11 -129q-31 -51 -31 -118l31 -119q-31 -55 -31 -109q0 -92 63 -141h76 q23 0 23 55l139 33q47 0 109 -141v-10q0 -86 -99 -86l-346 43l-192 -54l-109 31h-33l-129 -31q-36 13 -65 97zM416 1208v9q68 174 145 174h19q156 -68 155 -164q0 -49 -164 -191l-34 -10q-76 47 -121 182z" />
<glyph unicode="j" horiz-adv-x="1202" d="M176 0l43 43l109 -23l129 23l32 -53q-10 -51 -108 -152v-43q0 -35 131 -53h10q238 0 238 172q0 74 43 182l-23 314l23 98l-43 106l33 66v65q-71 31 -142 31h-162q-109 23 -108 109q0 53 76 108l280 -55l11 -10h12l149 10q88 -35 88 -74l-88 -88l-10 -106l10 -33h13l43 33 h20l23 -23v-20q0 -47 -109 -131v-11l10 -98q-16 -387 -30 -387l53 -119q-268 -281 -324 -280q-410 111 -409 313q-18 0 -23 76v10zM657 1296q23 74 232 105l106 -156l9 -14l-5 -10q-16 -45 -125 -142l-79 -45l-52 15q-87 25 -86 210q-1 17 0 37z" />
<glyph unicode="k" horiz-adv-x="1202" d="M-2 1227q0 86 96 86l258 10q115 0 131 -195v-32l-118 32h-13q-43 -82 -63 -194l10 -139l-10 -119q0 -41 63 -86h33l12 31l117 -11h12q37 0 129 248q127 0 152 43l96 -10l109 10q45 -14 65 -53v-33q-20 -76 -280 -76l-119 -184q-66 -25 -66 -96l152 -228q0 -133 119 -172 l129 11q55 -18 55 -64q-49 -43 -76 -43q-336 41 -336 86l43 86q0 43 -86 86l-63 141l-12 11h-66q-35 -35 -139 -43l-23 -43l13 -11v-65l-33 -109l53 -32l86 12l23 -33v-33q-18 -53 -142 -53h-172q-84 0 -108 53v23q0 18 131 96q4 57 53 119v22l-23 109l13 96l-23 129l23 152 q-18 410 -119 409q-55 1 -86 56z" />
<glyph unicode="l" d="M41 76l102 119q55 0 252 -43h56q86 0 86 86l-33 251l22 201q-8 31 -22 164q25 0 33 129l-43 86l10 66l-25 49l-205 -10q-171 46 -170 135v12q0 86 76 86h146l49 -25l90 17q22 0 22 -31q0 -12 -4 -29l11 -12h10q31 0 108 66h11q80 -63 100 -109v-20q-23 -43 -53 -43v-13 l-13 -63q43 -31 43 -76q0 -47 -32 -106l8 -162l-4 -183l41 -165l-23 -86l10 -76l-10 -119h10l127 -20h33l207 26h10l72 -78l10 -32q-23 -93 -132 -93h-19q-61 -3 -125 -2q-215 0 -457 31l-289 -37q-96 21 -96 109z" />
<glyph unicode="m" horiz-adv-x="1202" d="M41 868q15 80 43 80h33q8 0 159 -8v-2h13v-70q129 18 180 78h43l4 -4h10q43 -45 84 -61q8 -2 23 -2l65 22l64 -10l98 55q41 0 70 -10q82 -20 141 -121q8 -104 8 -176q0 -89 -12 -125v-10q0 -35 10 -86v-70l-8 -102v-23q3 -6 3 -19q0 -30 -15 -87l8 -8l80 -11v-2l12 -2 l12 -53q0 -82 -135 -82q-96 14 -149 31l-14.5 5t-12.5 3l-8 86h4q0 26 60 26q21 0 49 -4l8 162l-13 414v66q0 78 -59 90q-18 6 -39 6q-184 -68 -184 -252v-160q0 -43 -10 -168v-22q-2 -13 -2 -25q0 -81 73 -100q37 -6 39 -6v-2q2 0 6 -1.5t6 -1.5l-4 -112l-63 -23l-119 11 l-53 14l-4 2l-10 2l-70 33l6 59q70 14 82 94v148l-2 119l2 161l-21 138l-38 43h-25h-16q-148 0 -154 -109q-12 -98 -12 -184l20 -92l-20 -93q0 -10 -1 -29.5t-2 -56t-1 -69.5l10 -12l55 -29l55 -23q8 -24 9 -44q0 -34 -25 -60q-61 -16 -131 -17q-65 15 -131 16q-29 0 -57 -3 q-2 2 -2 6q-2 0 -5.5 -1t-5.5 -1q-23 29 -22 57q0 27 20 51l68 11l18 186l-12 51l-8 53l10 193q-12 227 -88 272z" />
<glyph unicode="n" horiz-adv-x="1196" d="M53 788q-4 21 -4 39q0 42 25 58l82 45l178 -25l14 -141q55 113 152 143q74 17 146 17q101 0 196 -33q106 -96 141 -121l23 -33v-32l-7 -91q20 -20 33 -235l10 -12v-11l-38 -235q51 -27 110 -27h12l25 -74q0 -53 -221 -53q-35 -3 -64 -3q-106 0 -106 44l24 55h33l21 23 l18 84v12l-6 66l10 84q23 141 23 186v23q0 131 -156 190q-56 6 -99 7q-127 0 -167 -56q-66 -37 -66 -98v-152l-20 -182l35 -107v-10l71 -47l43 -66v-10q-18 -43 -75 -43h-205l-66 -10q-117 25 -117 76q0 74 142 104l22 119q-9 79 -8 160q0 113 16 233l-40 111q-26 -6 -50 -7 q-55 0 -90 35z" />
<glyph unicode="o" horiz-adv-x="1196" d="M98 446v43q0 41 4 86l11 13v10l8 64q51 106 100 129q59 35 60 75l55 56q57 25 132.5 24.5t170.5 -24.5l96 -9l53 -34l66 10q225 -164 225 -393v-66q0 -178 -63 -244q-131 -215 -346 -215h-162q-205 51 -270 140q-87 79 -140 335zM279 440q0 -20 22 -155v-23l86 -104 q82 -51 127 -52l55 -24l97 35h12q7 0 14 -1q96 0 168 79q43 58 43 117q0 37 -16 75v10q20 37 20 71t-20 64q-57 215 -221 250q-301 -31 -365 -161z" />
<glyph unicode="p" d="M57 819v33q0 66 303 76l76 -76h23q55 66 96 66l76 -33l119 33q324 -96 323 -238q53 -152 53 -270q0 -233 -270 -400l-106 -33h-86q-61 0 -218 97h-20l-33 -31q0 -303 96 -303q98 -25 99 -53v-43q-82 -63 -182 -64l-109 21l-172 -11q-46 49 -47 69q0 3 2 5q0 68 139 98 l55 54v12l-32 96l32 258l-43 195q43 66 43 96l-22 109l33 75q0 53 -97 86zM403 485q55 -114 56 -227q70 -162 192 -162h13q248 80 247 185q0 119 33 182q-63 111 -98 237q-55 55 -139 56q-238 -61 -238 -162l-66 -88v-21z" />
<glyph unicode="q" d="M72 375v108q43 301 129 301q0 113 151 131l74 -12l109 43l237 -53h43l131 22l156 -38l45 -50q7 -28 7 -50q0 -37 -19 -58l-107 -21l4 -227l10 -119q-4 -70 -4 -98v-12q-59 -119 -59 -330v-66q0 -86 102 -112l56 -66v-20q0 -31 -87 -31q-38 0 -92 6l-174 -14l-41 -8 l-43 43q0 49 105 104q45 49 45 86v78l20 149q-6 20 -16 20q-13 0 -33 -28q-84 -78 -188 -78h-172q-121 0 -346 258q-43 96 -43 142zM258 369q37 -199 84 -199h20l68 -78q104 25 193 25q106 0 247 186l-4 414q-88 49 -151 65l-86 -51q-69 41 -146 42q-57 0 -118 -23 q-122 -112 -122 -268q0 -54 15 -113z" />
<glyph unicode="r" d="M57 819v33q0 66 303 76l76 -76h23q55 66 96 66l76 -33l119 33q324 -96 323 -238q14 -41 14 -77q0 -30 -10 -56q-47 -49 -93 -49q-44 0 -85 45q-25 41 -53 157q-55 55 -139 56q-238 -61 -238 -162l-66 -88l3 -250q12 -131 110 -131q96 -25 96 -55v-43q-82 -63 -182 -64 l-106 23l-172 -11q-46 49 -47 69q0 3 1 5q0 66 140 96l20 111l-35 121q43 66 43 96l-22 109l33 75q0 53 -97 86z" />
<glyph unicode="s" horiz-adv-x="1193" d="M162 709q106 182 182 237h43l64 2h10q74 20 110 21q117 0 248 -76l99 33q39 -41 53 -109l-10 -151v-43q0 -38 -27 -38q-13 0 -33 9q-78 0 -106 115l-17 57q-45 29 -133 29q-28 1 -53 0q-182 0 -246 -39q-29 -53 -29 -109v-12l70 -78l23 -20h32l43 10q25 -20 248 -33 q162 -43 162 -119q86 -31 86 -106l12 -66q0 -121 -260 -258l-53 10h-55l-140 -20q-195 47 -194 139q-119 37 -119 228l43 30h33q86 -45 86 -205l65 -43l64 -10v-10h10l152 10l32 -33h33q162 31 162 142q0 186 -152 215l-63 10h-12l-117 -33q-197 31 -197 56 q-124 104 -149 258z" />
<glyph unicode="t" horiz-adv-x="1196" d="M111 854q18 74 55 74l119 -10q17 -5 31 -5q50 0 57 66l-8 145l-11 86q10 43 80 107q61 0 131 -129l-10 -129q0 -152 96 -152l129 31q76 -23 76 -84q-53 -109 -194 -109l-44 11q-65 0 -98 -99l12 -106l-12 -98l45 -109l-33 -86q4 -57 130 -162h20q49 66 141 66l13 10v10 l-23 99q100 119 172 118q98 -15 98 -98q-45 -205 -131 -205q-147 -129 -225 -129h-45q-117 0 -236 109q-72 0 -108 258l43 131v10q-53 113 -53 225q0 37 -174 66q-43 53 -43 88z" />
<glyph unicode="u" d="M72 850q-1 8 -1 15q0 69 60 69l98 -2q86 -4 191 -47v-54q0 -25 -35 -217l29 -129l-15 -161l9 -109l-13 -43q14 -45 54 -66l32 -2q26 -15 63 -15q75 0 197 63q50 66 50 250v42l6 291q0 45 -78 47q-41 43 -41 86v13q0 31 156 49q154 -20 153 -78v-12q-61 -144 -61 -203 l51 -111l-12 -63v-12l28 -119l-22 -86l30 -56v-43l-22 -30q0 -23 31 -23l82 31q53 -14 53 -78q-21 -82 -150 -82h-10q-27 0 -194 41l-43 37q-163 -80 -216 -80q-199 47 -256 125q-66 111 -65 289v16l25 150q1 23 0 43q0 182 -48 182q-59 4 -88.5 23.5t-27.5 58.5z" />
<glyph unicode="v" horiz-adv-x="1196" d="M51 860v23l43 43h10q42 -55 85 -55q8 0 16 1v23l125 49l172 4l-13 -119q-10 -63 -61 -65l-86 -27l76 -182l151 -301l43 -33l23 21l67 198v11q0 78 27 120l-12 162q6 12 6 20q0 17 -31 17q-19 0 -49 -6q-43 15 -43 77q0 24 6 56q0 23 81 23q34 0 81 -5h33q20 0 20 -32h56 l43 32q205 0 204 -86q-39 -39 -149 -65l-98 -109l10 -96q0 -45 -60 -209l-69 -166l-80 -186q-34 -43 -92 -43q-129 0 -152 205q0 25 -98 129q-55 145 -76 293l-78 125q-39 4 -108 67z" />
<glyph unicode="w" horiz-adv-x="1196" d="M20 877v12q0 33 56 39l137 16l182 -67l11 -13v-43l-64 -80l10 -123l-53 -77q23 -102 53 -103l74 -45q39 74 84 230q45 63 123 63q69 -62 69 -108q0 -13 -6 -23l25 -104q18 -135 43 -136h10q96 18 96 91l4 53v11q0 36 19 81q-55 76 -55 113v22l12 45l-76 158l53 33l99 -2 q26 -7 56 -8q59 0 134 28q74 -61 74 -125q-29 -66 -103 -84l-43 -168q-25 0 -45 -80l13 -123l-66 -122l-51 -136q-12 -127 -113 -127q-66 0 -170 287l-14 60q-6 15 -43 18l-10 -12v-13l-41 -75l-33 -113q-25 -39 -86 -154h-61q-82 76 -101 220v12l-26 94q-27 104 -27 297 q-27 209 -115 209z" />
<glyph unicode="x" d="M45 63v31q0 47 195 76q25 82 182 141q34 25 86 129q0 88 -135 260q-63 119 -221 119q-39 31 -39 76l88 53l86 -43l106 43q115 -47 115 -129l-12 -47l49 -90l47 -115l108 217q-40 34 -40 71q0 20 12 40q53 29 377 53l18 -33v-10q0 -76 -164 -129l-221 -260l57 -108 q0 -70 76 -97l107 -129l67 11h49q86 0 86 -162q-39 -43 -75 -43l-328 12l-49 74l49 119q-80 195 -117 194q-49 0 -135 -217l59 -107q0 -76 -260 -75q-223 5 -223 75z" />
<glyph unicode="y" d="M53 -197q0 33 66 129q0 51 139 76q121 -49 121 -119q-109 -145 -109 -172l31 -22h23q141 0 141 131q20 0 20 86q76 78 76 117l-24 116l-62 91q-66 76 -65 116l12 99q-117 126 -129 270q-23 33 -184 63l-23 45q53 109 86 117h12q84 -33 131 -33q41 0 183 45 q129 -20 129 -151l-76 -53h-43l-33 -33v-23q0 -39 55 -145l11 -43v-82q15 -43 30 -43l74 -121q80 127 80 164l74 164l51 194q-70 31 -136 31h-12l-12 66q20 63 88 63q74 -25 113 -24l145 24h13q88 0 96 -76q2 -11 2 -20q0 -52 -49 -52q-4 0 -8 1l-66 6q-119 -94 -150 -354 q-43 -18 -43 -76v-76l-75 -139q-55 -104 -56 -142l-53 -106l-76 -121l-16 -102q-59 -66 -254 -103q-248 70 -248 195v22z" />
<glyph unicode="z" horiz-adv-x="1196" d="M178 649q23 131 55 185l-12 86l12 12h11l108 -23l215 11l195 -21l96 21h23q57 0 75 -43v-11q0 -104 -237 -323l-139 -228q-80 -106 -218 -194v-23q25 -25 152 -43q66 66 291 66l45 43v151q0 84 53 109h33q37 0 86 -172l-55 -98l22 -119l-22 -43l-162 10h-53l-281 -43 q-260 57 -260 96v13q0 88 131 237l129 172q0 23 270 281q-12 33 -65 33h-76l-129 -23l-65 23h-11q-63 0 -76 -238q-55 -66 -98 -66q-43 62 -43 162z" />
<glyph unicode="{" horiz-adv-x="681" />
<glyph unicode="|" horiz-adv-x="530" />
<glyph unicode="}" horiz-adv-x="681" />
<glyph unicode="~" horiz-adv-x="1193" />
<glyph unicode="&#xa0;" />
<glyph unicode="&#xa1;" d="M426 121v47q39 100 61 344l17 63q0 63 61 199l-30 80q0 61 83 121l78 -49q31 -96 49 -189l-20 -75l47 -142v-203l33 -94v-125q-2 -129 -143 -129l-156 82q-80 25 -80 70zM442 1434l21 43q106 70 168 69h2l82 -20q16 -39 92 -174l-47 -117q-100 -100 -182 -61l-11 4 q-135 63 -125 256z" />
<glyph unicode="&#xa2;" d="M117 549l143 203q0 102 242 204q57 0 100 138l31 114l41 88q0 109 84 109q57 0 84 -156l-92 -67l-21 -95l-37 -96v-10q0 -35 193 -84q10 -41 143 -86q49 -90 49 -156q0 -25 -59 -71l-62 12l-51 16q-129 180 -227 193l4 -53q-74 -45 -74 -144v-49l13 -59q0 -199 -109 -324 q-35 0 -47 143l59 193v168l25 131v12q0 29 -60 37q-168 -113 -167 -192l-50 -105v-88v-10q0 -182 109 -242q0 -47 168 -203h12q289 121 313 201l35 98h13q96 -43 96 -116q2 -88 -70 -129h-10l-100 -31l-265 -84l-12 -10h-24q-47 59 -203 84q-205 168 -205 286l12 109z M381 -303q8 203 72 203h24l25 -25v-22q-27 -264 -74 -265q-47 19 -47 109z" />
<glyph unicode="&#xa3;" horiz-adv-x="1138" />
<glyph unicode="&#xa5;" horiz-adv-x="1138" />
<glyph unicode="&#xa6;" horiz-adv-x="530" />
<glyph unicode="&#xa7;" horiz-adv-x="1138" />
<glyph unicode="&#xa8;" d="M197 1186q-10 127 43 180l26 14q90 49 187 -47q57 -158 -39 -211q-78 -14 -174 17zM645 1167q-57 57 27 203q135 59 211 -14l30 -31q18 -49 -6 -164l-30 -31q-154 -65 -232 37z" />
<glyph unicode="&#xa9;" horiz-adv-x="1507" />
<glyph unicode="&#xaa;" horiz-adv-x="757" />
<glyph unicode="&#xab;" horiz-adv-x="1138" />
<glyph unicode="&#xac;" horiz-adv-x="1193" />
<glyph unicode="&#xad;" horiz-adv-x="1200" d="M111 709q0 31 106 30q20 45 37 45h51l144 -39h8l45 31h43q106 0 106 -14q31 14 99 14h18l8 -8l8 8h115l45 8q18 -15 19 -67l24 -17h10l88 45q43 -16 45 -28v-17q0 -84 -90 -112l-663 14l-107 -6q-159 35 -159 113z" />
<glyph unicode="&#xae;" horiz-adv-x="1507" />
<glyph unicode="&#xb0;" horiz-adv-x="817" />
<glyph unicode="&#xb1;" horiz-adv-x="1122" />
<glyph unicode="&#xb2;" horiz-adv-x="681" />
<glyph unicode="&#xb3;" horiz-adv-x="681" />
<glyph unicode="&#xb4;" horiz-adv-x="1193" d="M504 1149l2 37l14 24l72 93l10 22q59 43 72 96l49 13h8q63 -39 109 -56l6 -6l-10 -69l-9 -13q-27 -29 -73 -39l-4 -28q-59 -41 -66 -54l-57 -24l-54 -21q-26 -18 -69 25z" />
<glyph unicode="&#xb5;" horiz-adv-x="1179" />
<glyph unicode="&#xb6;" horiz-adv-x="1099" />
<glyph unicode="&#xb7;" horiz-adv-x="567" />
<glyph unicode="&#x2219;" horiz-adv-x="567" />
<glyph unicode="&#xb8;" horiz-adv-x="1193" d="M477 -291l6 19l21 30q109 -57 131 72q-43 100 -119 125q-45 16 2 59q10 31 64 17l39 -13q18 -6 71 -47q76 -115 74 -223l-6 -53q-37 -59 -70 -88q-78 -20 -133 4l-31 16q-69 51 -49 82z" />
<glyph unicode="&#xb9;" horiz-adv-x="681" />
<glyph unicode="&#xba;" horiz-adv-x="747" />
<glyph unicode="&#xbb;" horiz-adv-x="1138" />
<glyph unicode="&#xbc;" horiz-adv-x="1200" d="M104 588q8 45 146 110h20l195 -59l92 8l92 -18l135 28l93 -10l145 10l41 -49v-20q-25 -49 -82 -49l-342 10l-453 -21q-82 15 -82 60zM168 -55q28 71 215 356q0 150 61 150h11l61 -62q0 -197 -82 -266v-51q37 -59 123 -60h41q80 0 104 150l62 41q31 0 61 -62 q-41 -63 -41 -88q0 -37 113 -51l143 61h13l30 -30q0 -86 -247 -207q-18 -14 -41 -201l-62 -28q-49 0 -61 90l20 147q-66 90 -176 90l-258 -69q-90 12 -90 90zM326 827q33 29 71 29v10l72 -10h84l33 8q-14 16 -33 45l8 156l-8 119q49 35 49 98q-12 240 -102 240l-72 -11 q-70 27 -92 70q0 16 61 49q287 0 287 -80l-8 -77l20 -109l-30 -170l71 -80q0 -25 -82 -49v-21l21 -153q-2 -12 -10 -23l41 -12l102 10q143 -12 143 -49q0 -47 -143 -59l-61 18q-272 -10 -340 -28q-82 7 -82 79z" />
<glyph unicode="&#xbd;" d="M100 602q0 39 121 80l625 -41l121 21q90 -12 90 -109q-37 -31 -72 -31l-180 41l-311 10l-142 -41h-61q-191 31 -191 70zM201 -264q0 115 151 250q0 31 273 57q63 12 131 82q47 0 90 80q-106 158 -221 157h-103q-78 0 -139 -157l-31 -21h-30q-57 0 -80 60q102 188 180 188 l172 41h70q272 -14 272 -111l49 -178q-74 -188 -250 -188l-92 -41l-100 20q-111 -49 -111 -131v-10q0 -51 221 -59q51 -59 103 -60q35 0 149 101h21q41 -16 41 -72q0 -84 -201 -150q-96 70 -223 101q-4 23 -70 31h-10q-43 0 -162 -101h-41q-59 31 -59 111zM301 821v31 q16 33 61 49l91 -8h10q70 43 69 137l-10 131l10 191v59q0 47 -49 70h-100q-51 27 -51 80t41 69l100 -20l31 10q221 0 221 -111l-10 -209l10 -49l-20 -90l20 -160v-69q8 -49 100 -49q100 -25 101 -72q0 -74 -181 -80h-10q-434 16 -434 90z" />
<glyph unicode="&#xbe;" horiz-adv-x="1705" />
<glyph unicode="&#xbf;" horiz-adv-x="1200" d="M72 336v47q0 37 49 37v10q0 41 84 96q55 18 94 156q254 117 254 242q78 72 131 71h37l35 -37q0 -264 -119 -264q-84 -147 -229 -202l-13 -62v-72q0 -94 242 -215h59l25 35v12l-25 97q51 160 72 168l227 49h25q59 0 108 -242v-22q0 -84 -217 -168q-57 -76 -190 -97 l-168 35l-84 -47h-25q-102 102 -217 131v25l-106 84q-49 63 -49 133zM389 1358v35l109 59q80 96 202 96q133 -49 134 -180q0 -76 -146 -168h-22l-121 37l-84 -25q-17 3 -72 146z" />
<glyph unicode="&#xc0;" horiz-adv-x="1196" d="M33 88v37q0 27 143 47q84 221 109 457q84 213 121 540q23 0 59 228q90 96 156 96q125 -12 145 -373q88 0 119 -370q0 -180 24 -181l-12 -59v-37q72 -172 72 -252q29 -29 168 -71l24 -62q0 -72 -301 -72q-143 39 -143 72v37l121 84v84q0 92 -109 133l-227 -25l-62 13 q-72 -6 -71 -37v-25l12 -106l-25 -74q121 -43 121 -59v-25q0 -63 -276 -72l-13 -12q-155 39 -155 84zM453 582q25 -72 96 -72q193 31 192 106v13q-72 119 -71 311l22 84q-18 61 -84 61q-57 -33 -106 -288q-37 0 -49 -215zM333 1745l7 41l6 6q53 18 108 53l8 2l11 -12 q2 2 8 5l10 5l8 2l13 -12q12 -53 71 -96l10 -23l70 -92l17 -27l2 -34q-43 -43 -70 -25q-33 -18 -53 18l-58 27q-4 6 -45 55l-4 31q-84 35 -110 64z" />
<glyph unicode="&#xc1;" horiz-adv-x="1196" d="M33 88v37q0 27 143 47q84 221 109 457q84 213 121 540q23 0 59 228q90 96 156 96q125 -12 145 -373q88 0 119 -370q0 -180 24 -181l-12 -59v-37q72 -172 72 -252q29 -29 168 -71l24 -62q0 -72 -301 -72q-143 39 -143 72v37l121 84v84q0 92 -109 133l-227 -25l-62 13 q-72 -6 -71 -37v-25l12 -106l-25 -74q121 -43 121 -59v-25q0 -63 -276 -72l-13 -12q-155 39 -155 84zM453 582q25 -72 96 -72q193 31 192 106v13q-72 119 -71 311l22 84q-18 61 -84 61q-57 -33 -106 -288q-37 0 -49 -215zM557 1567l2 37l14 24l72 93l10 22q59 43 72 96 l49 13h8q63 -39 109 -56l6 -6l-10 -69l-9 -13q-27 -29 -73 -39l-4 -28q-59 -41 -66 -54l-57 -24l-54 -21q-26 -18 -69 25z" />
<glyph unicode="&#xc2;" horiz-adv-x="1196" d="M33 88v37q0 27 143 47q84 221 109 457q84 213 121 540q23 0 59 228q90 96 156 96q125 -12 145 -373q88 0 119 -370q0 -180 24 -181l-12 -59v-37q72 -172 72 -252q29 -29 168 -71l24 -62q0 -72 -301 -72q-143 39 -143 72v37l121 84v84q0 92 -109 133l-227 -25l-62 13 q-72 -6 -71 -37v-25l12 -106l-25 -74q121 -43 121 -59v-25q0 -63 -276 -72l-13 -12q-155 39 -155 84zM453 582q25 -72 96 -72q193 31 192 106v13q-72 119 -71 311l22 84q-18 61 -84 61q-57 -33 -106 -288q-37 0 -49 -215zM365 1604q0 22 25 55l10 47q9 9 74 19l30 14 q-15 40 6 67l13 11l47 10l8 -2q2 0 6 -4t6 -4h6l93 -13q49 0 59 -12l8 -12q-8 -12 29 -66l4 -16q14 -23 47 -49l33 -19q2 -2 2 -6q0 -20 -41 -53l-53 6l-64 45l-4 23l-53 32l-37 54l-4 -4l-33 -27l-59 -70l-35 -8l8 -35l-39 -14l-51 -4q-41 8 -41 35z" />
<glyph unicode="&#xc3;" horiz-adv-x="1196" d="M33 88v37q0 27 143 47q84 221 109 457q84 213 121 540q23 0 59 228q90 96 156 96q125 -12 145 -373q88 0 119 -370q0 -180 24 -181l-12 -59v-37q72 -172 72 -252q29 -29 168 -71l24 -62q0 -72 -301 -72q-143 39 -143 72v37l121 84v84q0 92 -109 133l-227 -25l-62 13 q-72 -6 -71 -37v-25l12 -106l-25 -74q121 -43 121 -59v-25q0 -63 -276 -72l-13 -12q-155 39 -155 84zM453 582q25 -72 96 -72q193 31 192 106v13q-72 119 -71 311l22 84q-18 61 -84 61q-57 -33 -106 -288q-37 0 -49 -215zM291 1638q-14 41 23 107q45 33 94 57l51 2 q150 6 226 -113q6 -4 18 -9t16 -7q125 16 90 107l35 16l19 4q35 16 65 -41l13 -22q16 -45 -31 -95q-29 -23 -96 -55l-52 -4q-70 0 -143 27q-68 51 -74 71q-20 12 -33 17q-125 -16 -92 -105l-32 -16l-86 35z" />
<glyph unicode="&#xc4;" horiz-adv-x="1196" d="M33 88v37q0 27 143 47q84 221 109 457q84 213 121 540q23 0 59 228q90 96 156 96q125 -12 145 -373q88 0 119 -370q0 -180 24 -181l-12 -59v-37q72 -172 72 -252q29 -29 168 -71l24 -62q0 -72 -301 -72q-143 39 -143 72v37l121 84v84q0 92 -109 133l-227 -25l-62 13 q-72 -6 -71 -37v-25l12 -106l-25 -74q121 -43 121 -59v-25q0 -63 -276 -72l-13 -12q-155 39 -155 84zM453 582q25 -72 96 -72q193 31 192 106v13q-72 119 -71 311l22 84q-18 61 -84 61q-57 -33 -106 -288q-37 0 -49 -215zM246 1630q-10 127 43 180l26 14q90 49 187 -47 q57 -158 -39 -211q-78 -14 -174 17zM694 1611q-57 57 27 203q135 59 211 -14l30 -31q18 -49 -6 -164l-30 -31q-154 -65 -232 37z" />
<glyph unicode="&#xc5;" horiz-adv-x="1196" d="M33 88v37q0 27 143 47q84 221 109 457q84 213 121 540q23 0 59 228q90 96 156 96q125 -12 145 -373q88 0 119 -370q0 -180 24 -181l-12 -59v-37q72 -172 72 -252q29 -29 168 -71l24 -62q0 -72 -301 -72q-143 39 -143 72v37l121 84v84q0 92 -109 133l-227 -25l-62 13 q-72 -6 -71 -37v-25l12 -106l-25 -74q121 -43 121 -59v-25q0 -63 -276 -72l-13 -12q-155 39 -155 84zM453 582q25 -72 96 -72q193 31 192 106v13q-72 119 -71 311l22 84q-18 61 -84 61q-57 -33 -106 -288q-37 0 -49 -215zM623 1827l30 -4l19 -10l22 2q74 -55 74 -129v-23 q0 -61 -20 -81q-43 -72 -115 -72h-55q-68 18 -91 47q-29 25 -47 111v16q0 14 2 29l4 2v4l3 20q20 37 32 43q20 12 21 27l18 18q16 8 45 9q31 -1 58 -9zM514 1668q0 -6 6 -43v-7l25 -28q27 -16 37 -17l14 -6l27 10h4q29 -4 51 23q18 25 6 53v2q12 20 0 37q-16 63 -61 72 q-84 -10 -103 -47z" />
<glyph unicode="&#xc6;" horiz-adv-x="2048" />
<glyph unicode="&#xc7;" d="M86 602l27 180l6 228q0 43 78 192q31 86 147 228l109 12q96 96 147 96h25q41 -45 200 -59q20 -55 47 -62l86 49h35q72 -45 70 -120l-14 -109l18 -168q-18 -131 -86 -131t-102 205q-25 2 -80 180q-174 84 -215 84q-68 0 -258 -301l-58 -76l-20 -151l-31 -134 q0 -45 12 -131v-24q37 -160 72 -279q20 0 86 -57l156 -109h180q59 0 72 37l2 35q49 45 49 76q55 92 61 164l64 61q119 0 119 -37l22 -84q-63 0 -76 -155q-242 -250 -307 -250l-94 22l-84 -22q-55 35 -191 69l-198 205q-76 166 -76 324v12zM502 -291l6 19l21 30 q109 -57 131 72q-43 100 -119 125q-45 16 2 59q10 31 64 17l39 -13q18 -6 71 -47q76 -115 74 -223l-6 -53q-37 -59 -70 -88q-78 -20 -133 4l-31 16q-69 51 -49 82z" />
<glyph unicode="&#xc8;" d="M20 1462l84 49l74 -41l146 37h12l168 -37l274 50l84 -37l84 12q158 -43 158 -141l22 -117v-59q0 -119 -96 -119h-10q-41 0 -96 248q-27 23 -181 34q0 18 -84 48q-348 -53 -348 -164q84 -29 84 -47l-37 -95l25 -96l-37 -92l37 -37h168q109 18 108 94l-12 131l60 47 q86 0 133 -143q-47 -59 -72 -305l47 -84q-25 -164 -72 -164h-36q-59 0 -72 248q-51 47 -121 47q-117 0 -156 -82q12 -237 37 -319l-71 -70v-25q0 -33 118 -47q39 -70 97 -69l168 22l155 -22q59 90 74 153l-12 164q61 158 96 164h22q119 -57 119 -129q-35 -80 -59 -330v-82 q0 -43 -119 -57l-276 10h-25l-59 -10l-60 10l-311 -10q-121 16 -121 45q72 186 72 236l-13 106q43 92 72 307l12 35v35q-59 74 -59 119v12l37 82q-49 72 -49 106l12 107q0 166 -145 203q-50 20 -50 69zM374 1751l7 41l6 6q53 18 108 53l8 2l11 -12q2 2 8 5l10 5l8 2l13 -12 q12 -53 71 -96l10 -23l70 -92l17 -27l2 -34q-43 -43 -70 -25q-33 -18 -53 18l-58 27q-4 6 -45 55l-4 31q-84 35 -110 64z" />
<glyph unicode="&#xc9;" d="M20 1462l84 49l74 -41l146 37h12l168 -37l274 50l84 -37l84 12q158 -43 158 -141l22 -117v-59q0 -119 -96 -119h-10q-41 0 -96 248q-27 23 -181 34q0 18 -84 48q-348 -53 -348 -164q84 -29 84 -47l-37 -95l25 -96l-37 -92l37 -37h168q109 18 108 94l-12 131l60 47 q86 0 133 -143q-47 -59 -72 -305l47 -84q-25 -164 -72 -164h-36q-59 0 -72 248q-51 47 -121 47q-117 0 -156 -82q12 -237 37 -319l-71 -70v-25q0 -33 118 -47q39 -70 97 -69l168 22l155 -22q59 90 74 153l-12 164q61 158 96 164h22q119 -57 119 -129q-35 -80 -59 -330v-82 q0 -43 -119 -57l-276 10h-25l-59 -10l-60 10l-311 -10q-121 16 -121 45q72 186 72 236l-13 106q43 92 72 307l12 35v35q-59 74 -59 119v12l37 82q-49 72 -49 106l12 107q0 166 -145 203q-50 20 -50 69zM570 1571l2 37l14 24l72 93l10 22q59 43 72 96l49 13h8q63 -39 109 -56 l6 -6l-10 -69l-9 -13q-27 -29 -73 -39l-4 -28q-59 -41 -66 -54l-57 -24l-54 -21q-26 -18 -69 25z" />
<glyph unicode="&#xca;" d="M20 1462l84 49l74 -41l146 37h12l168 -37l274 50l84 -37l84 12q158 -43 158 -141l22 -117v-59q0 -119 -96 -119h-10q-41 0 -96 248q-27 23 -181 34q0 18 -84 48q-348 -53 -348 -164q84 -29 84 -47l-37 -95l25 -96l-37 -92l37 -37h168q109 18 108 94l-12 131l60 47 q86 0 133 -143q-47 -59 -72 -305l47 -84q-25 -164 -72 -164h-36q-59 0 -72 248q-51 47 -121 47q-117 0 -156 -82q12 -237 37 -319l-71 -70v-25q0 -33 118 -47q39 -70 97 -69l168 22l155 -22q59 90 74 153l-12 164q61 158 96 164h22q119 -57 119 -129q-35 -80 -59 -330v-82 q0 -43 -119 -57l-276 10h-25l-59 -10l-60 10l-311 -10q-121 16 -121 45q72 186 72 236l-13 106q43 92 72 307l12 35v35q-59 74 -59 119v12l37 82q-49 72 -49 106l12 107q0 166 -145 203q-50 20 -50 69zM377 1608q0 22 25 55l10 47q9 9 74 19l30 14q-15 40 6 67l13 11l47 10 l8 -2q2 0 6 -4t6 -4h6l93 -13q49 0 59 -12l8 -12q-8 -12 29 -66l4 -16q14 -23 47 -49l33 -19q2 -2 2 -6q0 -20 -41 -53l-53 6l-64 45l-4 23l-53 32l-37 54l-4 -4l-33 -27l-59 -70l-35 -8l8 -35l-39 -14l-51 -4q-41 8 -41 35z" />
<glyph unicode="&#xcb;" d="M20 1462l84 49l74 -41l146 37h12l168 -37l274 50l84 -37l84 12q158 -43 158 -141l22 -117v-59q0 -119 -96 -119h-10q-41 0 -96 248q-27 23 -181 34q0 18 -84 48q-348 -53 -348 -164q84 -29 84 -47l-37 -95l25 -96l-37 -92l37 -37h168q109 18 108 94l-12 131l60 47 q86 0 133 -143q-47 -59 -72 -305l47 -84q-25 -164 -72 -164h-36q-59 0 -72 248q-51 47 -121 47q-117 0 -156 -82q12 -237 37 -319l-71 -70v-25q0 -33 118 -47q39 -70 97 -69l168 22l155 -22q59 90 74 153l-12 164q61 158 96 164h22q119 -57 119 -129q-35 -80 -59 -330v-82 q0 -43 -119 -57l-276 10h-25l-59 -10l-60 10l-311 -10q-121 16 -121 45q72 186 72 236l-13 106q43 92 72 307l12 35v35q-59 74 -59 119v12l37 82q-49 72 -49 106l12 107q0 166 -145 203q-50 20 -50 69zM248 1635q-10 127 43 180l26 14q90 49 187 -47q57 -158 -39 -211 q-78 -14 -174 17zM696 1616q-57 57 27 203q135 59 211 -14l30 -31q18 -49 -6 -164l-30 -31q-154 -65 -232 37z" />
<glyph unicode="&#xcc;" d="M43 113q23 53 51 59l156 -2l145 43l47 -49h23l27 22l8 181l14 49l-29 143l11 180l28 97l-28 133l24 227q1 12 1 23q0 144 -111 147l-193 4q-109 25 -104 64l2 34q0 29 49 35l143 -14l205 18l106 -37l193 31l109 -14l120 33q27 -43 28 -77q0 -35 -30 -61l-174 -39l-2 -22 l-106 14h-13l-71 -12l-60 39h-12l-25 -23l-2 -24q115 -76 115 -98l-41 -119l31 -111q-4 -84 -29 -84l4 -143l-2 -35l-24 -229l80 -326l45 -25l135 33l80 -45l120 8q70 -25 70 -49l-2 -24q-2 -35 -111 -58q-82 20 -81 39q-70 -49 -160 -49h-10l-529 12l-106 -10 q-59 18 -88 46t-27 65zM290 1745l7 41l6 6q53 18 108 53l8 2l11 -12q2 2 8 5l10 5l8 2l13 -12q12 -53 71 -96l10 -23l70 -92l17 -27l2 -34q-43 -43 -70 -25q-33 -18 -53 18l-58 27q-4 6 -45 55l-4 31q-84 35 -110 64z" />
<glyph unicode="&#xcd;" d="M43 113q23 53 51 59l156 -2l145 43l47 -49h23l27 22l8 181l14 49l-29 143l11 180l28 97l-28 133l24 227q1 12 1 23q0 144 -111 147l-193 4q-109 25 -104 64l2 34q0 29 49 35l143 -14l205 18l106 -37l193 31l109 -14l120 33q27 -43 28 -77q0 -35 -30 -61l-174 -39l-2 -22 l-106 14h-13l-71 -12l-60 39h-12l-25 -23l-2 -24q115 -76 115 -98l-41 -119l31 -111q-4 -84 -29 -84l4 -143l-2 -35l-24 -229l80 -326l45 -25l135 33l80 -45l120 8q70 -25 70 -49l-2 -24q-2 -35 -111 -58q-82 20 -81 39q-70 -49 -160 -49h-10l-529 12l-106 -10 q-59 18 -88 46t-27 65zM471 1571l2 37l14 24l72 93l10 22q59 43 72 96l49 13h8q63 -39 109 -56l6 -6l-10 -69l-9 -13q-27 -29 -73 -39l-4 -28q-59 -41 -66 -54l-57 -24l-54 -21q-26 -18 -69 25z" />
<glyph unicode="&#xce;" d="M43 113q23 53 51 59l156 -2l145 43l47 -49h23l27 22l8 181l14 49l-29 143l11 180l28 97l-28 133l24 227q1 12 1 23q0 144 -111 147l-193 4q-109 25 -104 64l2 34q0 29 49 35l143 -14l205 18l106 -37l193 31l109 -14l120 33q27 -43 28 -77q0 -35 -30 -61l-174 -39l-2 -22 l-106 14h-13l-71 -12l-60 39h-12l-25 -23l-2 -24q115 -76 115 -98l-41 -119l31 -111q-4 -84 -29 -84l4 -143l-2 -35l-24 -229l80 -326l45 -25l135 33l80 -45l120 8q70 -25 70 -49l-2 -24q-2 -35 -111 -58q-82 20 -81 39q-70 -49 -160 -49h-10l-529 12l-106 -10 q-59 18 -88 46t-27 65zM320 1600q0 22 25 55l10 47q9 9 74 19l30 14q-15 40 6 67l13 11l47 10l8 -2q2 0 6 -4t6 -4h6l93 -13q49 0 59 -12l8 -12q-8 -12 29 -66l4 -16q14 -23 47 -49l33 -19q2 -2 2 -6q0 -20 -41 -53l-53 6l-64 45l-4 23l-53 32l-37 54l-4 -4l-33 -27l-59 -70 l-35 -8l8 -35l-39 -14l-51 -4q-41 8 -41 35z" />
<glyph unicode="&#xcf;" d="M43 113q23 53 51 59l156 -2l145 43l47 -49h23l27 22l8 181l14 49l-29 143l11 180l28 97l-28 133l24 227q1 12 1 23q0 144 -111 147l-193 4q-109 25 -104 64l2 34q0 29 49 35l143 -14l205 18l106 -37l193 31l109 -14l120 33q27 -43 28 -77q0 -35 -30 -61l-174 -39l-2 -22 l-106 14h-13l-71 -12l-60 39h-12l-25 -23l-2 -24q115 -76 115 -98l-41 -119l31 -111q-4 -84 -29 -84l4 -143l-2 -35l-24 -229l80 -326l45 -25l135 33l80 -45l120 8q70 -25 70 -49l-2 -24q-2 -35 -111 -58q-82 20 -81 39q-70 -49 -160 -49h-10l-529 12l-106 -10 q-59 18 -88 46t-27 65zM209 1639q-10 127 43 180l26 14q90 49 187 -47q57 -158 -39 -211q-78 -14 -174 17zM657 1620q-57 57 27 203q135 59 211 -14l30 -31q18 -49 -6 -164l-30 -31q-154 -65 -232 37z" />
<glyph unicode="&#xd0;" horiz-adv-x="1478" />
<glyph unicode="&#xd1;" d="M33 1434q45 74 119 73h12q217 -18 217 -86q4 -68 61 -73q35 -33 39 -136q127 -186 127 -223v-24l-10 -13q0 -37 47 -37q12 -71 12 -98l19 -98q76 -100 115 -297l34 -25h37q29 0 35 62l-53 184l57 137l-18 172l18 199q-2 223 -49 229l-80 9l-47 57q20 49 72 49l143 10 q43 5 78 5q69 0 90 -19h47l19 -98q-35 -19 -78 -20q-29 0 -60 9l-8 -71v-13l16 -110l-8 -209l27 -395l-23 -88l15 -86q-37 -57 -37 -101q43 -80 43 -199q0 -118 -164 -118q-51 16 -74 59l-2 27l47 61v37h-12l-84 -12q-135 219 -154 432l-40 47q0 18 -84 125 q-53 211 -103 211h-10q-76 0 -119 -100q76 -98 76 -136l-33 -110l51 -123l-34 -88l16 -135l-35 -111q0 -51 195 -61l24 -37v-37q0 -41 -250 -49q-217 12 -217 59l-2 37l156 88l20 74q-61 83 -61 123l33 110l-27 86l10 113l-26 98q0 143 26 217h13l2 181l-4 135 q-18 47 -51 47q-13 0 -29 -8q-47 23 -82 82zM286 1661q-14 41 23 107q45 33 94 57l51 2q150 6 226 -113q6 -4 18 -9t16 -7q125 16 90 107l35 16l19 4q35 16 65 -41l13 -22q16 -45 -31 -95q-29 -23 -96 -55l-52 -4q-70 0 -143 27q-68 51 -74 71q-20 12 -33 17 q-125 -16 -92 -105l-32 -16l-86 35z" />
<glyph unicode="&#xd2;" d="M59 762q25 35 45 287l-8 108q98 211 162 211h2h5q84 0 108 92q31 25 239 51l50 23l274 -117l10 -12v-10l8 -64q197 -218 197 -491q0 -74 -14 -152l18 -156q-92 -131 -104 -249q-43 -16 -152 -209q-206 -98 -274 -99h-4l-299 70q-263 269 -263 672q-1 22 0 45zM193 768 q9 -49 8 -86v-20l10 -62l31 -55l18 -133l-2 -35q78 -59 78 -88v-35l76 -55v-13l47 -39q18 -19 60 -18q74 0 229 57q121 53 126 176q98 127 103 199l8 264q-47 451 -280 514l-25 2q-12 1 -24 1q-122 0 -222 -56l-82 -84l-51 -51q-29 0 -82 -238v-12q-26 -94 -26 -133z M313 1745l7 41l6 6q53 18 108 53l8 2l11 -12q2 2 8 5l10 5l8 2l13 -12q12 -53 71 -96l10 -23l70 -92l17 -27l2 -34q-43 -43 -70 -25q-33 -18 -53 18l-58 27q-4 6 -45 55l-4 31q-84 35 -110 64z" />
<glyph unicode="&#xd3;" d="M59 762q25 35 45 287l-8 108q98 211 162 211h2h5q84 0 108 92q31 25 239 51l50 23l274 -117l10 -12v-10l8 -64q197 -218 197 -491q0 -74 -14 -152l18 -156q-92 -131 -104 -249q-43 -16 -152 -209q-206 -98 -274 -99h-4l-299 70q-263 269 -263 672q-1 22 0 45zM193 768 q9 -49 8 -86v-20l10 -62l31 -55l18 -133l-2 -35q78 -59 78 -88v-35l76 -55v-13l47 -39q18 -19 60 -18q74 0 229 57q121 53 126 176q98 127 103 199l8 264q-47 451 -280 514l-25 2q-12 1 -24 1q-122 0 -222 -56l-82 -84l-51 -51q-29 0 -82 -238v-12q-26 -94 -26 -133z M541 1575l2 37l14 24l72 93l10 22q59 43 72 96l49 13h8q63 -39 109 -56l6 -6l-10 -69l-9 -13q-27 -29 -73 -39l-4 -28q-59 -41 -66 -54l-57 -24l-54 -21q-26 -18 -69 25z" />
<glyph unicode="&#xd4;" d="M59 762q25 35 45 287l-8 108q98 211 162 211h2h5q84 0 108 92q31 25 239 51l50 23l274 -117l10 -12v-10l8 -64q197 -218 197 -491q0 -74 -14 -152l18 -156q-92 -131 -104 -249q-43 -16 -152 -209q-206 -98 -274 -99h-4l-299 70q-263 269 -263 672q-1 22 0 45zM193 768 q9 -49 8 -86v-20l10 -62l31 -55l18 -133l-2 -35q78 -59 78 -88v-35l76 -55v-13l47 -39q18 -19 60 -18q74 0 229 57q121 53 126 176q98 127 103 199l8 264q-47 451 -280 514l-25 2q-12 1 -24 1q-122 0 -222 -56l-82 -84l-51 -51q-29 0 -82 -238v-12q-26 -94 -26 -133z M358 1608q0 22 25 55l10 47q9 9 74 19l30 14q-15 40 6 67l13 11l47 10l8 -2q2 0 6 -4t6 -4h6l93 -13q49 0 59 -12l8 -12q-8 -12 29 -66l4 -16q14 -23 47 -49l33 -19q2 -2 2 -6q0 -20 -41 -53l-53 6l-64 45l-4 23l-53 32l-37 54l-4 -4l-33 -27l-59 -70l-35 -8l8 -35l-39 -14 l-51 -4q-41 8 -41 35z" />
<glyph unicode="&#xd5;" d="M59 762q25 35 45 287l-8 108q98 211 162 211h2h5q84 0 108 92q31 25 239 51l50 23l274 -117l10 -12v-10l8 -64q197 -218 197 -491q0 -74 -14 -152l18 -156q-92 -131 -104 -249q-43 -16 -152 -209q-206 -98 -274 -99h-4l-299 70q-263 269 -263 672q-1 22 0 45zM193 768 q9 -49 8 -86v-20l10 -62l31 -55l18 -133l-2 -35q78 -59 78 -88v-35l76 -55v-13l47 -39q18 -19 60 -18q74 0 229 57q121 53 126 176q98 127 103 199l8 264q-47 451 -280 514l-25 2q-12 1 -24 1q-122 0 -222 -56l-82 -84l-51 -51q-29 0 -82 -238v-12q-26 -94 -26 -133z M293 1638q-14 41 23 107q45 33 94 57l51 2q150 6 226 -113q6 -4 18 -9t16 -7q125 16 90 107l35 16l19 4q35 16 65 -41l13 -22q16 -45 -31 -95q-29 -23 -96 -55l-52 -4q-70 0 -143 27q-68 51 -74 71q-20 12 -33 17q-125 -16 -92 -105l-32 -16l-86 35z" />
<glyph unicode="&#xd6;" d="M59 762q25 35 45 287l-8 108q98 211 162 211h2h5q84 0 108 92q31 25 239 51l50 23l274 -117l10 -12v-10l8 -64q197 -218 197 -491q0 -74 -14 -152l18 -156q-92 -131 -104 -249q-43 -16 -152 -209q-206 -98 -274 -99h-4l-299 70q-263 269 -263 672q-1 22 0 45zM193 768 q9 -49 8 -86v-20l10 -62l31 -55l18 -133l-2 -35q78 -59 78 -88v-35l76 -55v-13l47 -39q18 -19 60 -18q74 0 229 57q121 53 126 176q98 127 103 199l8 264q-47 451 -280 514l-25 2q-12 1 -24 1q-122 0 -222 -56l-82 -84l-51 -51q-29 0 -82 -238v-12q-26 -94 -26 -133z M248 1635q-10 127 43 180l26 14q90 49 187 -47q57 -158 -39 -211q-78 -14 -174 17zM696 1616q-57 57 27 203q135 59 211 -14l30 -31q18 -49 -6 -164l-30 -31q-154 -65 -232 37z" />
<glyph unicode="&#xd7;" horiz-adv-x="1193" />
<glyph unicode="&#xd8;" horiz-adv-x="1591" />
<glyph unicode="&#xd9;" d="M20 1417v25q0 61 330 67q129 -12 160 -61q0 -65 -37 -74q-53 0 -94 -12q-59 -6 -94 -105q49 -53 49 -96l-49 -155v-25l12 -215l37 -96q0 -68 -49 -168l59 -146l-10 -96q98 -39 168 -123l168 -24q88 0 215 200l12 144l-25 168l70 143l-20 137l-7 381q-23 63 -176 111v47 q0 49 277 67q160 -43 160 -88v-45q-6 -25 -121 -24q-17 -72 -17 -139q0 -25 2 -50l-16 -49l2 -37h25l24 -239l-22 -121l-25 -109l25 -96q0 -307 -131 -405q-205 -115 -289 -115q-365 6 -457 305l-22 395l22 121l-59 121l37 84q0 332 -121 385zM365 436q13 45 34 45 q18 0 43 -32q14 2 25 2q27 0 27 -18q0 -9 -7 -23l-41 -54q-11 -2 -20 -2q-58 0 -61 82zM356 1741l7 41l6 6q53 18 108 53l8 2l11 -12q2 2 8 5l10 5l8 2l13 -12q12 -53 71 -96l10 -23l70 -92l17 -27l2 -34q-43 -43 -70 -25q-33 -18 -53 18l-58 27q-4 6 -45 55l-4 31 q-84 35 -110 64z" />
<glyph unicode="&#xda;" d="M20 1417v25q0 61 330 67q129 -12 160 -61q0 -65 -37 -74q-53 0 -94 -12q-59 -6 -94 -105q49 -53 49 -96l-49 -155v-25l12 -215l37 -96q0 -68 -49 -168l59 -146l-10 -96q98 -39 168 -123l168 -24q88 0 215 200l12 144l-25 168l70 143l-20 137l-7 381q-23 63 -176 111v47 q0 49 277 67q160 -43 160 -88v-45q-6 -25 -121 -24q-17 -72 -17 -139q0 -25 2 -50l-16 -49l2 -37h25l24 -239l-22 -121l-25 -109l25 -96q0 -307 -131 -405q-205 -115 -289 -115q-365 6 -457 305l-22 395l22 121l-59 121l37 84q0 332 -121 385zM365 436q13 45 34 45 q18 0 43 -32q14 2 25 2q27 0 27 -18q0 -9 -7 -23l-41 -54q-11 -2 -20 -2q-58 0 -61 82zM553 1567l2 37l14 24l72 93l10 22q59 43 72 96l49 13h8q63 -39 109 -56l6 -6l-10 -69l-9 -13q-27 -29 -73 -39l-4 -28q-59 -41 -66 -54l-57 -24l-54 -21q-26 -18 -69 25z" />
<glyph unicode="&#xdb;" d="M20 1417v25q0 61 330 67q129 -12 160 -61q0 -65 -37 -74q-53 0 -94 -12q-59 -6 -94 -105q49 -53 49 -96l-49 -155v-25l12 -215l37 -96q0 -68 -49 -168l59 -146l-10 -96q98 -39 168 -123l168 -24q88 0 215 200l12 144l-25 168l70 143l-20 137l-7 381q-23 63 -176 111v47 q0 49 277 67q160 -43 160 -88v-45q-6 -25 -121 -24q-17 -72 -17 -139q0 -25 2 -50l-16 -49l2 -37h25l24 -239l-22 -121l-25 -109l25 -96q0 -307 -131 -405q-205 -115 -289 -115q-365 6 -457 305l-22 395l22 121l-59 121l37 84q0 332 -121 385zM365 436q13 45 34 45 q18 0 43 -32q14 2 25 2q27 0 27 -18q0 -9 -7 -23l-41 -54q-11 -2 -20 -2q-58 0 -61 82zM367 1608q0 22 25 55l10 47q9 9 74 19l30 14q-15 40 6 67l13 11l47 10l8 -2q2 0 6 -4t6 -4h6l93 -13q49 0 59 -12l8 -12q-8 -12 29 -66l4 -16q14 -23 47 -49l33 -19q2 -2 2 -6 q0 -20 -41 -53l-53 6l-64 45l-4 23l-53 32l-37 54l-4 -4l-33 -27l-59 -70l-35 -8l8 -35l-39 -14l-51 -4q-41 8 -41 35z" />
<glyph unicode="&#xdc;" d="M20 1417v25q0 61 330 67q129 -12 160 -61q0 -65 -37 -74q-53 0 -94 -12q-59 -6 -94 -105q49 -53 49 -96l-49 -155v-25l12 -215l37 -96q0 -68 -49 -168l59 -146l-10 -96q98 -39 168 -123l168 -24q88 0 215 200l12 144l-25 168l70 143l-20 137l-7 381q-23 63 -176 111v47 q0 49 277 67q160 -43 160 -88v-45q-6 -25 -121 -24q-17 -72 -17 -139q0 -25 2 -50l-16 -49l2 -37h25l24 -239l-22 -121l-25 -109l25 -96q0 -307 -131 -405q-205 -115 -289 -115q-365 6 -457 305l-22 395l22 121l-59 121l37 84q0 332 -121 385zM365 436q13 45 34 45 q18 0 43 -32q14 2 25 2q27 0 27 -18q0 -9 -7 -23l-41 -54q-11 -2 -20 -2q-58 0 -61 82zM256 1620q-10 127 43 180l26 14q90 49 187 -47q57 -158 -39 -211q-78 -14 -174 17zM704 1601q-57 57 27 203q135 59 211 -14l30 -31q18 -49 -6 -164l-30 -31q-154 -65 -232 37z" />
<glyph unicode="&#xdd;" d="M-8 1397q4 29 71 84h7l3 4q3 4 7 6l70 -4h24l131 24l98 -30l146 4l33 -88q-4 0 -9.5 -2t-9.5 -4l2 -5q-164 -68 -234 -68q-6 0 -12 1l35 -100q96 -150 97 -236l124 -180q80 68 203 295l80 143l16 86q-80 35 -159 51l20 107l15 -2l2 10l45 -8l49 22l119 -12l104 21 q129 -49 129 -82v-13q0 -33 -70 -90l-12 -16h-10l-6 -8h-43h-15l-73 -144l-66 -145h12q-133 -231 -239 -438l-17 -170l39 -123l-22 -154q18 -47 35 -47h37l96 25l82 -15q64 -22 63 -40q0 -7 -8 -13l-12 -59h-15l-2 -11l-311 9l-2 -5h-8l-8 -8h-13l-71 13l-109 -25l-217 12 l-35 35v37l25 35h10l6 10l143 -12l64 4q49 34 80 147l-25 156l33 299l-125 139q-117 109 -237 518q-13 -1 -26 -1q-63 0 -122 26zM592 1571l2 37l14 24l72 93l10 22q59 43 72 96l49 13h8q63 -39 109 -56l6 -6l-10 -69l-9 -13q-27 -29 -73 -39l-4 -28q-59 -41 -66 -54 l-57 -24l-54 -21q-26 -18 -69 25z" />
<glyph unicode="&#xde;" horiz-adv-x="1363" />
<glyph unicode="&#xdf;" d="M59 90q40 37 43 29h93q-6 29 -76 43l22 168v43l-22 131v74l33 309q-43 59 -35 194l35 56l-33 69q98 205 303 205l43 21l76 -11l8 -84l67 74q152 -23 152 -108l53 -43l41 -66q68 -170 -119 -313q-150 -135 23 -187l94 -16h51q92 -27 211 -150q39 -104 15 -358 q-52 -160 -142 -172l-45 -2h-8q-55 -23 -78 -23q-82 0 -174 86l-69 -36q-25 46 -37 122l8 174v52q0 68 41 32q55 0 76 -174l10 -65q39 -35 94 -35q156 -8 168 88q29 90 51 180l-76 117l-30 -10q-16 23 -150 47q-135 59 -184 82q-68 98 -82 141l35 53q6 90 117 164 q84 88 32 215q-92 80 -192 80q-41 35 -152 -24q-59 -86 -24.5 -133.5t-51.5 -270.5q113 -295 64 -446l6 -150l4 -147l43 8q57 0 76 -43v-23q-4 -78 -70 -84l-78 17v-10l-108 10l-10 10q-125 -14 -125 25z" />
<glyph unicode="&#xe0;" d="M59 256l2 31q89 215 266 215h15h12q71 0 205 33h168q-13 26 -13 85q0 12 1 25l2 10q4 82 -178 150q-25 0 -136 -123l-120 -39q-96 55 -93 125q152 158 314 158h18q178 -9 277 -99l10 -45q70 -14 102 -96q16 -72 17 -137l-27 -123v-20q13 -69 13 -110q0 -8 -1 -15l-22 -66 q20 -63 59 -68q47 12 70 52l31 -13l86 7l12 -11l-2 -12q-6 -135 -289 -178q-39 2 -137 92q-25 0 -113 -82h-20q-102 -25 -144 -45l-53 2q-182 84 -233 86q-103 145 -99 211zM235 307q-32 -35 -31 -75q0 -48 44 -105q43 -29 73 -47l43 -2q70 31 115 31h8l74 4q10 0 20 -1 q126 0 146 78v13q3 69 3 114q0 72 -7 111l-109 -18l-114 -2h-23q-240 -44 -242 -101zM295 1319l7 41l6 6q53 18 108 53l8 2l11 -12q2 2 8 5l10 5l8 2l13 -12q12 -53 71 -96l10 -23l70 -92l17 -27l2 -34q-43 -43 -70 -25q-33 -18 -53 18l-58 27q-4 6 -45 55l-4 31 q-84 35 -110 64z" />
<glyph unicode="&#xe1;" d="M57 256l2 31q89 215 266 215h15h12q71 0 205 33h168q-13 26 -13 85q0 12 1 25l2 10q4 82 -178 150q-25 0 -136 -123l-120 -39q-96 55 -93 125q152 158 314 158h18q178 -9 277 -99l10 -45q70 -14 102 -96q16 -72 17 -137l-27 -123v-20q13 -69 13 -110q0 -8 -1 -15l-22 -66 q20 -63 59 -68q47 12 70 52l31 -13l86 7l12 -11l-2 -12q-6 -135 -289 -178q-39 2 -137 92q-25 0 -113 -82h-20q-102 -25 -144 -45l-53 2q-182 84 -233 86q-103 145 -99 211zM233 307q-32 -35 -31 -75q0 -48 44 -105q43 -29 73 -47l43 -2q70 31 115 31h8l74 4q10 0 20 -1 q126 0 146 78v13q3 69 3 114q0 72 -7 111l-109 -18l-114 -2h-23q-240 -44 -242 -101zM514 1133l2 37l14 24l72 93l10 22q59 43 72 96l49 13h8q63 -39 109 -56l6 -6l-10 -69l-9 -13q-27 -29 -73 -39l-4 -28q-59 -41 -66 -54l-57 -24l-54 -21q-26 -18 -69 25z" />
<glyph unicode="&#xe2;" d="M57 256l2 31q89 215 266 215h15h12q71 0 205 33h168q-13 26 -13 85q0 12 1 25l2 10q4 82 -178 150q-25 0 -136 -123l-120 -39q-96 55 -93 125q152 158 314 158h18q178 -9 277 -99l10 -45q70 -14 102 -96q16 -72 17 -137l-27 -123v-20q13 -69 13 -110q0 -8 -1 -15l-22 -66 q20 -63 59 -68q47 12 70 52l31 -13l86 7l12 -11l-2 -12q-6 -135 -289 -178q-39 2 -137 92q-25 0 -113 -82h-20q-102 -25 -144 -45l-53 2q-182 84 -233 86q-103 145 -99 211zM233 307q-32 -35 -31 -75q0 -48 44 -105q43 -29 73 -47l43 -2q70 31 115 31h8l74 4q10 0 20 -1 q126 0 146 78v13q3 69 3 114q0 72 -7 111l-109 -18l-114 -2h-23q-240 -44 -242 -101zM297 1139q0 22 25 55l10 47q9 9 74 19l30 14q-15 40 6 67l13 11l47 10l8 -2q2 0 6 -4t6 -4h6l93 -13q49 0 59 -12l8 -12q-8 -12 29 -66l4 -16q14 -23 47 -49l33 -19q2 -2 2 -6 q0 -20 -41 -53l-53 6l-64 45l-4 23l-53 32l-37 54l-4 -4l-33 -27l-59 -70l-35 -8l8 -35l-39 -14l-51 -4q-41 8 -41 35z" />
<glyph unicode="&#xe3;" d="M57 256l2 31q89 215 266 215h15h12q71 0 205 33h168q-13 26 -13 85q0 12 1 25l2 10q4 82 -178 150q-25 0 -136 -123l-120 -39q-96 55 -93 125q152 158 314 158h18q178 -9 277 -99l10 -45q70 -14 102 -96q16 -72 17 -137l-27 -123v-20q13 -69 13 -110q0 -8 -1 -15l-22 -66 q20 -63 59 -68q47 12 70 52l31 -13l86 7l12 -11l-2 -12q-6 -135 -289 -178q-39 2 -137 92q-25 0 -113 -82h-20q-102 -25 -144 -45l-53 2q-182 84 -233 86q-103 145 -99 211zM233 307q-32 -35 -31 -75q0 -48 44 -105q43 -29 73 -47l43 -2q70 31 115 31h8l74 4q10 0 20 -1 q126 0 146 78v13q3 69 3 114q0 72 -7 111l-109 -18l-114 -2h-23q-240 -44 -242 -101zM233 1159q-14 41 23 107q45 33 94 57l51 2q150 6 226 -113q6 -4 18 -9t16 -7q125 16 90 107l35 16l19 4q35 16 65 -41l13 -22q16 -45 -31 -95q-29 -23 -96 -55l-52 -4q-70 0 -143 27 q-68 51 -74 71q-20 12 -33 17q-125 -16 -92 -105l-32 -16l-86 35z" />
<glyph unicode="&#xe4;" d="M57 256l2 31q89 215 266 215h15h12q71 0 205 33h168q-13 26 -13 85q0 12 1 25l2 10q4 82 -178 150q-25 0 -136 -123l-120 -39q-96 55 -93 125q152 158 314 158h18q178 -9 277 -99l10 -45q70 -14 102 -96q16 -72 17 -137l-27 -123v-20q13 -69 13 -110q0 -8 -1 -15l-22 -66 q20 -63 59 -68q47 12 70 52l31 -13l86 7l12 -11l-2 -12q-6 -135 -289 -178q-39 2 -137 92q-25 0 -113 -82h-20q-102 -25 -144 -45l-53 2q-182 84 -233 86q-103 145 -99 211zM233 307q-32 -35 -31 -75q0 -48 44 -105q43 -29 73 -47l43 -2q70 31 115 31h8l74 4q10 0 20 -1 q126 0 146 78v13q3 69 3 114q0 72 -7 111l-109 -18l-114 -2h-23q-240 -44 -242 -101zM195 1186q-10 127 43 180l26 14q90 49 187 -47q57 -158 -39 -211q-78 -14 -174 17zM643 1167q-57 57 27 203q135 59 211 -14l30 -31q18 -49 -6 -164l-30 -31q-154 -65 -232 37z" />
<glyph unicode="&#xe5;" d="M57 256l2 31q89 215 266 215h15h12q71 0 205 33h168q-13 26 -13 85q0 12 1 25l2 10q4 82 -178 150q-25 0 -136 -123l-120 -39q-96 55 -93 125q152 158 314 158h18q178 -9 277 -99l10 -45q70 -14 102 -96q16 -72 17 -137l-27 -123v-20q13 -69 13 -110q0 -8 -1 -15l-22 -66 q20 -63 59 -68q47 12 70 52l31 -13l86 7l12 -11l-2 -12q-6 -135 -289 -178q-39 2 -137 92q-25 0 -113 -82h-20q-102 -25 -144 -45l-53 2q-182 84 -233 86q-103 145 -99 211zM233 307q-32 -35 -31 -75q0 -48 44 -105q43 -29 73 -47l43 -2q70 31 115 31h8l74 4q10 0 20 -1 q126 0 146 78v13q3 69 3 114q0 72 -7 111l-109 -18l-114 -2h-23q-240 -44 -242 -101zM590 1425l30 -4l19 -10l22 2q74 -55 74 -129v-23q0 -61 -20 -81q-43 -72 -115 -72h-55q-68 18 -91 47q-29 25 -47 111v16q0 14 2 29l4 2v4l3 20q20 37 32 43q20 12 21 27l18 18q16 8 45 9 q31 -1 58 -9zM481 1266q0 -6 6 -43v-7l25 -28q27 -16 37 -17l14 -6l27 10h4q29 -4 51 23q18 25 6 53v2q12 20 0 37q-16 63 -61 72q-84 -10 -103 -47z" />
<glyph unicode="&#xe6;" horiz-adv-x="1820" />
<glyph unicode="&#xe7;" horiz-adv-x="1196" d="M123 551q41 176 145 260q0 59 45 78l70 -12q289 68 403 67q68 -27 68 -100h23q39 33 77 33h13q55 -28 55 -111q0 -162 -43 -223l-152 28q16 45 16 88q0 33 -9 64l-160 98h-45q-65 0 -264 -110q-69 -98 -70 -209q0 -65 24 -135l52 -119v-45q0 -33 135 -70l55 -55h23 q174 35 235 59l10 10h35l-4 66q2 55 78 74l10 12h45q27 0 35 -57q-44 -51 -44 -88q0 -30 28 -54q-106 -113 -248 -112l-90 22l-101 -45l-260 90l-32 23l-148 315v10l12 46zM477 -291l6 19l21 30q109 -57 131 72q-43 100 -119 125q-45 16 2 59q10 31 64 17l39 -13 q18 -6 71 -47q76 -115 74 -223l-6 -53q-37 -59 -70 -88q-78 -20 -133 4l-31 16q-69 51 -49 82z" />
<glyph unicode="&#xe8;" d="M127 551q0 43 16 113v12q8 29 54 35q4 154 301 225l282 -12q2 0 10.5 1t12.5 1q74 -35 110 -58l39 33l35 -35q0 -33 4 -53q39 -33 39 -55l33 -64l14 -98q0 -80 -184 -117h-12l-172 -2l-177 4h-110q-117 -25 -166 -26v-13q41 -195 170 -274q63 -47 162 -80q78 23 188 31 q80 45 80 121q98 106 178 122h13l34 -36v-25q-26 -38 -25 -65q0 -18 11 -33v-10q-6 -6 -14.5 -12.5l-16.5 -12.5q-61 -71 -92 -74q-53 -37 -108 -61q-168 -66 -199 -66q-109 0 -356 127q-143 74 -144 277q-19 0 -19 66q1 44 9 114zM270 688q-1 -8 -1 -18q0 -34 18 -82 l102 10l70 -23l102 23l172 -23h127q37 0 70 19l4 6v37q0 80 -27 127l-57 51h-139l-172 -12l-113 12q-45 -16 -156 -127zM393 1319l7 41l6 6q53 18 108 53l8 2l11 -12q2 2 8 5l10 5l8 2l13 -12q12 -53 71 -96l10 -23l70 -92l17 -27l2 -34q-43 -43 -70 -25q-33 -18 -53 18 l-58 27q-4 6 -45 55l-4 31q-84 35 -110 64z" />
<glyph unicode="&#xe9;" d="M127 551q0 43 16 113v12q8 29 54 35q4 154 301 225l282 -12q2 0 10.5 1t12.5 1q74 -35 110 -58l39 33l35 -35q0 -33 4 -53q39 -33 39 -55l33 -64l14 -98q0 -80 -184 -117h-12l-172 -2l-177 4h-110q-117 -25 -166 -26v-13q41 -195 170 -274q63 -47 162 -80q78 23 188 31 q80 45 80 121q98 106 178 122h13l34 -36v-25q-26 -38 -25 -65q0 -18 11 -33v-10q-6 -6 -14.5 -12.5l-16.5 -12.5q-61 -71 -92 -74q-53 -37 -108 -61q-168 -66 -199 -66q-109 0 -356 127q-143 74 -144 277q-19 0 -19 66q1 44 9 114zM270 688q-1 -8 -1 -18q0 -34 18 -82 l102 10l70 -23l102 23l172 -23h127q37 0 70 19l4 6v37q0 80 -27 127l-57 51h-139l-172 -12l-113 12q-45 -16 -156 -127zM570 1133l2 37l14 24l72 93l10 22q59 43 72 96l49 13h8q63 -39 109 -56l6 -6l-10 -69l-9 -13q-27 -29 -73 -39l-4 -28q-59 -41 -66 -54l-57 -24l-54 -21 q-26 -18 -69 25z" />
<glyph unicode="&#xea;" d="M127 551q0 43 16 113v12q8 29 54 35q4 154 301 225l282 -12q2 0 10.5 1t12.5 1q74 -35 110 -58l39 33l35 -35q0 -33 4 -53q39 -33 39 -55l33 -64l14 -98q0 -80 -184 -117h-12l-172 -2l-177 4h-110q-117 -25 -166 -26v-13q41 -195 170 -274q63 -47 162 -80q78 23 188 31 q80 45 80 121q98 106 178 122h13l34 -36v-25q-26 -38 -25 -65q0 -18 11 -33v-10q-6 -6 -14.5 -12.5l-16.5 -12.5q-61 -71 -92 -74q-53 -37 -108 -61q-168 -66 -199 -66q-109 0 -356 127q-143 74 -144 277q-19 0 -19 66q1 44 9 114zM270 688q-1 -8 -1 -18q0 -34 18 -82 l102 10l70 -23l102 23l172 -23h127q37 0 70 19l4 6v37q0 80 -27 127l-57 51h-139l-172 -12l-113 12q-45 -16 -156 -127zM356 1139q0 22 25 55l10 47q9 9 74 19l30 14q-15 40 6 67l13 11l47 10l8 -2q2 0 6 -4t6 -4h6l93 -13q49 0 59 -12l8 -12q-8 -12 29 -66l4 -16 q14 -23 47 -49l33 -19q2 -2 2 -6q0 -20 -41 -53l-53 6l-64 45l-4 23l-53 32l-37 54l-4 -4l-33 -27l-59 -70l-35 -8l8 -35l-39 -14l-51 -4q-41 8 -41 35z" />
<glyph unicode="&#xeb;" d="M127 551q0 43 16 113v12q8 29 54 35q4 154 301 225l282 -12q2 0 10.5 1t12.5 1q74 -35 110 -58l39 33l35 -35q0 -33 4 -53q39 -33 39 -55l33 -64l14 -98q0 -80 -184 -117h-12l-172 -2l-177 4h-110q-117 -25 -166 -26v-13q41 -195 170 -274q63 -47 162 -80q78 23 188 31 q80 45 80 121q98 106 178 122h13l34 -36v-25q-26 -38 -25 -65q0 -18 11 -33v-10q-6 -6 -14.5 -12.5l-16.5 -12.5q-61 -71 -92 -74q-53 -37 -108 -61q-168 -66 -199 -66q-109 0 -356 127q-143 74 -144 277q-19 0 -19 66q1 44 9 114zM270 688q-1 -8 -1 -18q0 -34 18 -82 l102 10l70 -23l102 23l172 -23h127q37 0 70 19l4 6v37q0 80 -27 127l-57 51h-139l-172 -12l-113 12q-45 -16 -156 -127zM242 1186q-10 127 43 180l26 14q90 49 187 -47q57 -158 -39 -211q-78 -14 -174 17zM690 1167q-57 57 27 203q135 59 211 -14l30 -31q18 -49 -6 -164 l-30 -31q-154 -65 -232 37z" />
<glyph unicode="&#xec;" d="M645 950q78 -31 78 -106l-23 -99l11 -129q-31 -51 -31 -118l31 -119q-31 -55 -31 -109q0 -92 63 -141h76q23 0 23 55l139 33q47 0 109 -141v-10q0 -86 -99 -86l-346 43l-192 -54l-109 31h-33l-129 -31q-37 12 -65 97q0 55 162 86q0 51 184 75l76 -20q43 12 43 53 q-86 43 -86 109v43l10 118l-23 109l13 63q0 98 -326 99q-43 46 -43 86l43 43h12l140 -33l174 10l96 -30q26 67 53 73zM340 1319l7 41l6 6q53 18 108 53l8 2l11 -12q2 2 8 5l10 5l8 2l13 -12q12 -53 71 -96l10 -23l70 -92l17 -27l2 -34q-43 -43 -70 -25q-33 -18 -53 18 l-58 27q-4 6 -45 55l-4 31q-84 35 -110 64z" />
<glyph unicode="&#xed;" d="M645 950q78 -31 78 -106l-23 -99l11 -129q-31 -51 -31 -118l31 -119q-31 -55 -31 -109q0 -92 63 -141h76q23 0 23 55l139 33q47 0 109 -141v-10q0 -86 -99 -86l-346 43l-192 -54l-109 31h-33l-129 -31q-37 12 -65 97q0 55 162 86q0 51 184 75l76 -20q43 12 43 53 q-86 43 -86 109v43l10 118l-23 109l13 63q0 98 -326 99q-43 46 -43 86l43 43h12l140 -33l174 10l96 -30q26 67 53 73zM520 1141l2 37l14 24l72 93l10 22q59 43 72 96l49 13h8q63 -39 109 -56l6 -6l-10 -69l-9 -13q-27 -29 -73 -39l-4 -28q-59 -41 -66 -54l-57 -24l-54 -21 q-26 -18 -69 25z" />
<glyph unicode="&#xee;" d="M645 950q78 -31 78 -106l-23 -99l11 -129q-31 -51 -31 -118l31 -119q-31 -55 -31 -109q0 -92 63 -141h76q23 0 23 55l139 33q47 0 109 -141v-10q0 -86 -99 -86l-346 43l-192 -54l-109 31h-33l-129 -31q-37 12 -65 97q0 55 162 86q0 51 184 75l76 -20q43 12 43 53 q-86 43 -86 109v43l10 118l-23 109l13 63q0 98 -326 99q-43 46 -43 86l43 43h12l140 -33l174 10l96 -30q26 67 53 73zM396.996 1139q0 22 19.999 55l8 47q7.2002 9 59.1992 19l24 14q-12 40 4.7998 67l10.3994 11l37.5996 10l6.40039 -2q1.59961 0 4.7998 -4t4.7998 -4 h4.7998l74.3984 -13q39.2002 0 47.2002 -12l6.39941 -12q-6.39941 -12 23.1992 -66l3.2002 -16q11.2002 -23 37.5996 -49l26.3994 -19q1.60059 -2 1.60059 -6q0 -20 -32.7998 -53l-42.3994 6l-51.1992 45l-3.2002 23l-42.3994 32l-29.5996 54l-3.19922 -4l-26.4004 -27 l-47.1992 -70l-27.999 -8l6.39941 -35l-31.1992 -14l-40.7998 -4q-32.7988 8 -32.7988 35z" />
<glyph unicode="&#xef;" d="M645 950q78 -31 78 -106l-23 -99l11 -129q-31 -51 -31 -118l31 -119q-31 -55 -31 -109q0 -92 63 -141h76q23 0 23 55l139 33q47 0 109 -141v-10q0 -86 -99 -86l-346 43l-192 -54l-109 31h-33l-129 -31q-37 12 -65 97q0 55 162 86q0 51 184 75l76 -20q43 12 43 53 q-86 43 -86 109v43l10 118l-23 109l13 63q0 98 -326 99q-43 46 -43 86l43 43h12l140 -33l174 10l96 -30q26 67 53 73zM195 1186q-10 127 43 180l26 14q90 49 187 -47q57 -158 -39 -211q-78 -14 -174 17zM643 1167q-57 57 27 203q135 59 211 -14l30 -31q18 -49 -6 -164 l-30 -31q-154 -65 -232 37z" />
<glyph unicode="&#xf0;" horiz-adv-x="1138" />
<glyph unicode="&#xf1;" horiz-adv-x="1196" d="M53 788q-4 21 -4 39q0 42 25 58l82 45l178 -25l14 -141q55 113 152 143q74 17 146 17q101 0 196 -33q106 -96 141 -121l23 -33v-32l-7 -91q20 -20 33 -235l10 -12v-11l-38 -235q51 -27 110 -27h12l25 -74q0 -53 -221 -53q-35 -3 -64 -3q-106 0 -106 44l24 55h33l21 23 l18 84v12l-6 66l10 84q23 141 23 186v23q0 131 -156 190q-56 6 -99 7q-127 0 -167 -56q-66 -37 -66 -98v-152l-20 -182l35 -107v-10l71 -47l43 -66v-10q-18 -43 -75 -43h-205l-66 -10q-117 25 -117 76q0 74 142 104l22 119q-9 79 -8 160q0 113 16 233l-40 111q-26 -6 -50 -7 q-55 0 -90 35zM262 1159q-14 41 23 107q45 33 94 57l51 2q150 6 226 -113q6 -4 18 -9t16 -7q125 16 90 107l35 16l19 4q35 16 65 -41l13 -22q16 -45 -31 -95q-29 -23 -96 -55l-52 -4q-70 0 -143 27q-68 51 -74 71q-20 12 -33 17q-125 -16 -92 -105l-32 -16l-86 35z" />
<glyph unicode="&#xf2;" horiz-adv-x="1196" d="M98 446v43q0 41 4 86l11 13v10l8 64q51 106 100 129q59 35 60 75l55 56q57 25 132.5 24.5t170.5 -24.5l96 -9l53 -34l66 10q225 -164 225 -393v-66q0 -178 -63 -244q-131 -215 -346 -215h-162q-205 51 -270 140q-87 79 -140 335zM279 440q0 -20 22 -155v-23l86 -104 q82 -51 127 -52l55 -24l97 35h12q7 0 14 -1q96 0 168 79q43 58 43 117q0 37 -16 75v10q20 37 20 71t-20 64q-57 215 -221 250q-301 -31 -365 -161zM317 1319l7 41l6 6q53 18 108 53l8 2l11 -12q2 2 8 5l10 5l8 2l13 -12q12 -53 71 -96l10 -23l70 -92l17 -27l2 -34 q-43 -43 -70 -25q-33 -18 -53 18l-58 27q-4 6 -45 55l-4 31q-84 35 -110 64z" />
<glyph unicode="&#xf3;" horiz-adv-x="1196" d="M98 446v43q0 41 4 86l11 13v10l8 64q51 106 100 129q59 35 60 75l55 56q57 25 132.5 24.5t170.5 -24.5l96 -9l53 -34l66 10q225 -164 225 -393v-66q0 -178 -63 -244q-131 -215 -346 -215h-162q-205 51 -270 140q-87 79 -140 335zM279 440q0 -20 22 -155v-23l86 -104 q82 -51 127 -52l55 -24l97 35h12q7 0 14 -1q96 0 168 79q43 58 43 117q0 37 -16 75v10q20 37 20 71t-20 64q-57 215 -221 250q-301 -31 -365 -161zM553 1145l2 37l14 24l72 93l10 22q59 43 72 96l49 13h8q63 -39 109 -56l6 -6l-10 -69l-9 -13q-27 -29 -73 -39l-4 -28 q-59 -41 -66 -54l-57 -24l-54 -21q-26 -18 -69 25z" />
<glyph unicode="&#xf4;" horiz-adv-x="1196" d="M98 446v43q0 41 4 86l11 13v10l8 64q51 106 100 129q59 35 60 75l55 56q57 25 132.5 24.5t170.5 -24.5l96 -9l53 -34l66 10q225 -164 225 -393v-66q0 -178 -63 -244q-131 -215 -346 -215h-162q-205 51 -270 140q-87 79 -140 335zM279 440q0 -20 22 -155v-23l86 -104 q82 -51 127 -52l55 -24l97 35h12q7 0 14 -1q96 0 168 79q43 58 43 117q0 37 -16 75v10q20 37 20 71t-20 64q-57 215 -221 250q-301 -31 -365 -161zM356 1139q0 22 25 55l10 47q9 9 74 19l30 14q-15 40 6 67l13 11l47 10l8 -2q2 0 6 -4t6 -4h6l93 -13q49 0 59 -12l8 -12 q-8 -12 29 -66l4 -16q14 -23 47 -49l33 -19q2 -2 2 -6q0 -20 -41 -53l-53 6l-64 45l-4 23l-53 32l-37 54l-4 -4l-33 -27l-59 -70l-35 -8l8 -35l-39 -14l-51 -4q-41 8 -41 35z" />
<glyph unicode="&#xf5;" horiz-adv-x="1196" d="M98 446v43q0 41 4 86l11 13v10l8 64q51 106 100 129q59 35 60 75l55 56q57 25 132.5 24.5t170.5 -24.5l96 -9l53 -34l66 10q225 -164 225 -393v-66q0 -178 -63 -244q-131 -215 -346 -215h-162q-205 51 -270 140q-87 79 -140 335zM279 440q0 -20 22 -155v-23l86 -104 q82 -51 127 -52l55 -24l97 35h12q7 0 14 -1q96 0 168 79q43 58 43 117q0 37 -16 75v10q20 37 20 71t-20 64q-57 215 -221 250q-301 -31 -365 -161zM274 1159q-14 41 23 107q45 33 94 57l51 2q150 6 226 -113q6 -4 18 -9t16 -7q125 16 90 107l35 16l19 4q35 16 65 -41l13 -22 q16 -45 -31 -95q-29 -23 -96 -55l-52 -4q-70 0 -143 27q-68 51 -74 71q-20 12 -33 17q-125 -16 -92 -105l-32 -16l-86 35z" />
<glyph unicode="&#xf6;" horiz-adv-x="1196" d="M98 446v43q0 41 4 86l11 13v10l8 64q51 106 100 129q59 35 60 75l55 56q57 25 132.5 24.5t170.5 -24.5l96 -9l53 -34l66 10q225 -164 225 -393v-66q0 -178 -63 -244q-131 -215 -346 -215h-162q-205 51 -270 140q-87 79 -140 335zM279 440q0 -20 22 -155v-23l86 -104 q82 -51 127 -52l55 -24l97 35h12q7 0 14 -1q96 0 168 79q43 58 43 117q0 37 -16 75v10q20 37 20 71t-20 64q-57 215 -221 250q-301 -31 -365 -161zM236 1186q-10 127 43 180l26 14q90 49 187 -47q57 -158 -39 -211q-78 -14 -174 17zM684 1167q-57 57 27 203q135 59 211 -14 l30 -31q18 -49 -6 -164l-30 -31q-154 -65 -232 37z" />
<glyph unicode="&#xf7;" horiz-adv-x="1122" />
<glyph unicode="&#xf8;" horiz-adv-x="1249" />
<glyph unicode="&#xf9;" d="M72 850q-1 8 -1 15q0 69 60 69l98 -2q86 -4 191 -47v-54q0 -25 -35 -217l29 -129l-15 -161l9 -109l-13 -43q14 -45 54 -66l32 -2q26 -15 63 -15q75 0 197 63q50 66 50 250v42l6 291q0 45 -78 47q-41 43 -41 86v13q0 31 156 49q154 -20 153 -78v-12q-61 -144 -61 -203 l51 -111l-12 -63v-12l28 -119l-22 -86l30 -56v-43l-22 -30q0 -23 31 -23l82 31q53 -14 53 -78q-21 -82 -150 -82h-10q-27 0 -194 41l-43 37q-163 -80 -216 -80q-199 47 -256 125q-66 111 -65 289v16l25 150q1 23 0 43q0 182 -48 182q-59 4 -88.5 23.5t-27.5 58.5zM297 1319 l7 41l6 6q53 18 108 53l8 2l11 -12q2 2 8 5l10 5l8 2l13 -12q12 -53 71 -96l10 -23l70 -92l17 -27l2 -34q-43 -43 -70 -25q-33 -18 -53 18l-58 27q-4 6 -45 55l-4 31q-84 35 -110 64z" />
<glyph unicode="&#xfa;" d="M72 850q-1 8 -1 15q0 69 60 69l98 -2q86 -4 191 -47v-54q0 -25 -35 -217l29 -129l-15 -161l9 -109l-13 -43q14 -45 54 -66l32 -2q26 -15 63 -15q75 0 197 63q50 66 50 250v42l6 291q0 45 -78 47q-41 43 -41 86v13q0 31 156 49q154 -20 153 -78v-12q-61 -144 -61 -203 l51 -111l-12 -63v-12l28 -119l-22 -86l30 -56v-43l-22 -30q0 -23 31 -23l82 31q53 -14 53 -78q-21 -82 -150 -82h-10q-27 0 -194 41l-43 37q-163 -80 -216 -80q-199 47 -256 125q-66 111 -65 289v16l25 150q1 23 0 43q0 182 -48 182q-59 4 -88.5 23.5t-27.5 58.5zM512 1137 l2 37l14 24l72 93l10 22q59 43 72 96l49 13h8q63 -39 109 -56l6 -6l-10 -69l-9 -13q-27 -29 -73 -39l-4 -28q-59 -41 -66 -54l-57 -24l-54 -21q-26 -18 -69 25z" />
<glyph unicode="&#xfb;" d="M72 850q-1 8 -1 15q0 69 60 69l98 -2q86 -4 191 -47v-54q0 -25 -35 -217l29 -129l-15 -161l9 -109l-13 -43q14 -45 54 -66l32 -2q26 -15 63 -15q75 0 197 63q50 66 50 250v42l6 291q0 45 -78 47q-41 43 -41 86v13q0 31 156 49q154 -20 153 -78v-12q-61 -144 -61 -203 l51 -111l-12 -63v-12l28 -119l-22 -86l30 -56v-43l-22 -30q0 -23 31 -23l82 31q53 -14 53 -78q-21 -82 -150 -82h-10q-27 0 -194 41l-43 37q-163 -80 -216 -80q-199 47 -256 125q-66 111 -65 289v16l25 150q1 23 0 43q0 182 -48 182q-59 4 -88.5 23.5t-27.5 58.5zM330 1139 q0 22 25 55l10 47q9 9 74 19l30 14q-15 40 6 67l13 11l47 10l8 -2q2 0 6 -4t6 -4h6l93 -13q49 0 59 -12l8 -12q-8 -12 29 -66l4 -16q14 -23 47 -49l33 -19q2 -2 2 -6q0 -20 -41 -53l-53 6l-64 45l-4 23l-53 32l-37 54l-4 -4l-33 -27l-59 -70l-35 -8l8 -35l-39 -14l-51 -4 q-41 8 -41 35z" />
<glyph unicode="&#xfc;" d="M72 850q-1 8 -1 15q0 69 60 69l98 -2q86 -4 191 -47v-54q0 -25 -35 -217l29 -129l-15 -161l9 -109l-13 -43q14 -45 54 -66l32 -2q26 -15 63 -15q75 0 197 63q50 66 50 250v42l6 291q0 45 -78 47q-41 43 -41 86v13q0 31 156 49q154 -20 153 -78v-12q-61 -144 -61 -203 l51 -111l-12 -63v-12l28 -119l-22 -86l30 -56v-43l-22 -30q0 -23 31 -23l82 31q53 -14 53 -78q-21 -82 -150 -82h-10q-27 0 -194 41l-43 37q-163 -80 -216 -80q-199 47 -256 125q-66 111 -65 289v16l25 150q1 23 0 43q0 182 -48 182q-59 4 -88.5 23.5t-27.5 58.5zM201 1186 q-10 127 43 180l26 14q90 49 187 -47q57 -158 -39 -211q-78 -14 -174 17zM649 1167q-57 57 27 203q135 59 211 -14l30 -31q18 -49 -6 -164l-30 -31q-154 -65 -232 37z" />
<glyph unicode="&#xfd;" d="M53 -197q0 33 66 129q0 51 139 76q121 -49 121 -119q-109 -145 -109 -172l31 -22h23q141 0 141 131q20 0 20 86q76 78 76 117l-24 116l-62 91q-66 76 -65 116l12 99q-117 126 -129 270q-23 33 -184 63l-23 45q53 109 86 117h12q84 -33 131 -33q41 0 183 45 q129 -20 129 -151l-76 -53h-43l-33 -33v-23q0 -39 55 -145l11 -43v-82q15 -43 30 -43l74 -121q80 127 80 164l74 164l51 194q-70 31 -136 31h-12l-12 66q20 63 88 63q74 -25 113 -24l145 24h13q88 0 96 -76q2 -11 2 -20q0 -52 -49 -52q-4 0 -8 1l-66 6q-119 -94 -150 -354 q-43 -18 -43 -76v-76l-75 -139q-55 -104 -56 -142l-53 -106l-76 -121l-16 -102q-59 -66 -254 -103q-248 70 -248 195v22zM598 1149l2 37l14 24l72 93l10 22q59 43 72 96l49 13h8q63 -39 109 -56l6 -6l-10 -69l-9 -13q-27 -29 -73 -39l-4 -28q-59 -41 -66 -54l-57 -24 l-54 -21q-26 -18 -69 25z" />
<glyph unicode="&#xfe;" horiz-adv-x="1138" />
<glyph unicode="&#xff;" d="M53 -197q0 33 66 129q0 51 139 76q121 -49 121 -119q-109 -145 -109 -172l31 -22h23q141 0 141 131q20 0 20 86q76 78 76 117l-24 116l-62 91q-66 76 -65 116l12 99q-117 126 -129 270q-23 33 -184 63l-23 45q53 109 86 117h12q84 -33 131 -33q41 0 183 45 q129 -20 129 -151l-76 -53h-43l-33 -33v-23q0 -39 55 -145l11 -43v-82q15 -43 30 -43l74 -121q80 127 80 164l74 164l51 194q-70 31 -136 31h-12l-12 66q20 63 88 63q74 -25 113 -24l145 24h13q88 0 96 -76q2 -11 2 -20q0 -52 -49 -52q-4 0 -8 1l-66 6q-119 -94 -150 -354 q-43 -18 -43 -76v-76l-75 -139q-55 -104 -56 -142l-53 -106l-76 -121l-16 -102q-59 -66 -254 -103q-248 70 -248 195v22zM289 1186q-10 127 43 180l26 14q90 49 187 -47q57 -158 -39 -211q-78 -14 -174 17zM737 1167q-57 57 27 203q135 59 211 -14l30 -31q18 -49 -6 -164 l-30 -31q-154 -65 -232 37z" />
<glyph unicode="&#x131;" d="M645 950q78 -31 78 -106l-23 -99l11 -129q-31 -51 -31 -118l31 -119q-31 -55 -31 -109q0 -92 63 -141h76q23 0 23 55l139 33q47 0 109 -141v-10q0 -86 -99 -86l-346 43l-192 -54l-109 31h-33l-129 -31q-37 12 -65 97q0 55 162 86q0 51 184 75l76 -20q43 12 43 53 q-86 43 -86 109v43l10 118l-23 109l13 63q0 98 -326 99q-43 46 -43 86l43 43h12l140 -33l174 10l96 -30q26 67 53 73z" />
<glyph unicode="&#x152;" horiz-adv-x="2048" />
<glyph unicode="&#x153;" horiz-adv-x="1931" />
<glyph unicode="&#x178;" d="M-8 1397q4 29 71 84h7l3 4q3 4 7 6l70 -4h24l131 24l98 -30l146 4l33 -88q-4 0 -9.5 -2t-9.5 -4l2 -5q-164 -68 -234 -68q-6 0 -12 1l35 -100q96 -150 97 -236l124 -180q80 68 203 295l80 143l16 86q-80 35 -159 51l20 107l15 -2l2 10l45 -8l49 22l119 -12l104 21 q129 -49 129 -82v-13q0 -33 -70 -90l-12 -16h-10l-6 -8h-43h-15l-73 -144l-66 -145h12q-133 -231 -239 -438l-17 -170l39 -123l-22 -154q18 -47 35 -47h37l96 25l82 -15q64 -22 63 -40q0 -7 -8 -13l-12 -59h-15l-2 -11l-311 9l-2 -5h-8l-8 -8h-13l-71 13l-109 -25l-217 12 l-35 35v37l25 35h10l6 10l143 -12l64 4q49 34 80 147l-25 156l33 299l-125 139q-117 109 -237 518q-13 -1 -26 -1q-63 0 -122 26zM252 1635q-10 127 43 180l26 14q90 49 187 -47q57 -158 -39 -211q-78 -14 -174 17zM700 1616q-57 57 27 203q135 59 211 -14l30 -31 q18 -49 -6 -164l-30 -31q-154 -65 -232 37z" />
<glyph unicode="&#x2c6;" horiz-adv-x="1191" d="M340 1139q0 22 25 55l10 47q9 9 74 19l30 14q-15 40 6 67l13 11l47 10l8 -2q2 0 6 -4t6 -4h6l93 -13q49 0 59 -12l8 -12q-8 -12 29 -66l4 -16q14 -23 47 -49l33 -19q2 -2 2 -6q0 -20 -41 -53l-53 6l-64 45l-4 23l-53 32l-37 54l-4 -4l-33 -27l-59 -70l-35 -8l8 -35 l-39 -14l-51 -4q-41 8 -41 35z" />
<glyph unicode="&#x2da;" horiz-adv-x="1196" d="M623 1421l30 -4l19 -10l22 2q74 -55 74 -129v-23q0 -61 -20 -81q-43 -72 -115 -72h-55q-68 18 -91 47q-29 25 -47 111v16q0 14 2 29l4 2v4l3 20q20 37 32 43q20 12 21 27l18 18q16 8 45 9q31 -1 58 -9zM514 1262q0 -6 6 -43v-7l25 -28q27 -16 37 -17l14 -6l27 10h4 q29 -4 51 23q18 25 6 53v2q12 20 0 37q-16 63 -61 72q-84 -10 -103 -47z" />
<glyph unicode="&#x2dc;" d="M268 1159q-14 41 23 107q45 33 94 57l51 2q150 6 226 -113q6 -4 18 -9t16 -7q125 16 90 107l35 16l19 4q35 16 65 -41l13 -22q16 -45 -31 -95q-29 -23 -96 -55l-52 -4q-70 0 -143 27q-68 51 -74 71q-20 12 -33 17q-125 -16 -92 -105l-32 -16l-86 35z" />
<glyph unicode="&#x2000;" horiz-adv-x="929" />
<glyph unicode="&#x2001;" horiz-adv-x="1859" />
<glyph unicode="&#x2002;" horiz-adv-x="929" />
<glyph unicode="&#x2003;" horiz-adv-x="1859" />
<glyph unicode="&#x2004;" horiz-adv-x="618" />
<glyph unicode="&#x2005;" horiz-adv-x="464" />
<glyph unicode="&#x2006;" horiz-adv-x="309" />
<glyph unicode="&#x2007;" horiz-adv-x="309" />
<glyph unicode="&#x2008;" horiz-adv-x="231" />
<glyph unicode="&#x2009;" horiz-adv-x="370" />
<glyph unicode="&#x200a;" horiz-adv-x="102" />
<glyph unicode="&#x2010;" horiz-adv-x="1200" d="M111 709q0 31 106 30q20 45 37 45h51l144 -39h8l45 31h43q106 0 106 -14q31 14 99 14h18l8 -8l8 8h115l45 8q18 -15 19 -67l24 -17h10l88 45q43 -16 45 -28v-17q0 -84 -90 -112l-663 14l-107 -6q-159 35 -159 113z" />
<glyph unicode="&#x2011;" horiz-adv-x="1200" d="M111 709q0 31 106 30q20 45 37 45h51l144 -39h8l45 31h43q106 0 106 -14q31 14 99 14h18l8 -8l8 8h115l45 8q18 -15 19 -67l24 -17h10l88 45q43 -16 45 -28v-17q0 -84 -90 -112l-663 14l-107 -6q-159 35 -159 113z" />
<glyph unicode="&#x2012;" horiz-adv-x="1200" d="M111 709q0 31 106 30q20 45 37 45h51l144 -39h8l45 31h43q106 0 106 -14q31 14 99 14h18l8 -8l8 8h115l45 8q18 -15 19 -67l24 -17h10l88 45q43 -16 45 -28v-17q0 -84 -90 -112l-663 14l-107 -6q-159 35 -159 113z" />
<glyph unicode="&#x2013;" horiz-adv-x="1138" />
<glyph unicode="&#x2014;" horiz-adv-x="2048" />
<glyph unicode="&#x2018;" horiz-adv-x="1200" d="M440 1470q33 106 174 107h19l117 -117v-18l-43 -60v-10q25 -33 24 -65q-49 -57 -49 -99q0 -377 -43 -377l-33 -10q-66 0 -133 107l8 88z" />
<glyph unicode="&#x2019;" horiz-adv-x="1200" d="M440 1470q33 106 174 107h19l117 -117v-18l-43 -60v-10q25 -33 24 -65q-49 -57 -49 -99q0 -377 -43 -377l-33 -10q-66 0 -133 107l8 88z" />
<glyph unicode="&#x201a;" horiz-adv-x="454" />
<glyph unicode="&#x201c;" horiz-adv-x="1200" d="M219 1133q4 29 72 84l24 47q-59 164 -59 252l2 26l49 49h12q63 -45 236 -75l12 -13v-35q-35 -86 -94 -131l-12 -47v-217h24l-43 -18l11 -27h12l37 -37v-10l-37 -37l-8 -59l-33 -54l-62 -34q-106 0 -106 215zM674 1370v96q18 111 125 111l102 -76q61 -23 62 -51v-37 q-72 -84 -72 -235l-12 -48q0 -59 16 -141l25 -59q0 -49 -105 -135l-59 36q-12 35 -37 146l14 57l-35 109v155z" />
<glyph unicode="&#x201d;" horiz-adv-x="1200" d="M219 1133q4 29 72 84l24 47q-59 164 -59 252l2 26l49 49h12q63 -45 236 -75l12 -13v-35q-35 -86 -94 -131l-12 -47v-217h24l-43 -18l11 -27h12l37 -37v-10l-37 -37l-8 -59l-33 -54l-62 -34q-106 0 -106 215zM674 1370v96q18 111 125 111l102 -76q61 -23 62 -51v-37 q-72 -84 -72 -235l-12 -48q0 -59 16 -141l25 -59q0 -49 -105 -135l-59 36q-12 35 -37 146l14 57l-35 109v155z" />
<glyph unicode="&#x201e;" horiz-adv-x="681" />
<glyph unicode="&#x2022;" horiz-adv-x="716" />
<glyph unicode="&#x2026;" horiz-adv-x="2048" />
<glyph unicode="&#x202f;" horiz-adv-x="370" />
<glyph unicode="&#x2039;" horiz-adv-x="681" />
<glyph unicode="&#x203a;" horiz-adv-x="681" />
<glyph unicode="&#x205f;" horiz-adv-x="464" />
<glyph unicode="&#x20ac;" d="M68 629q0 33 45 65l-27 174v2l-14 33l14 12q6 135 76 297l198 228q127 47 191 57l51 -6v12h23q41 -10 200 -24q20 -55 47 -62l86 49h35q72 -45 70 -120l-14 -109l18 -168q-16 -23 -86 -22q-68 0 -90 176q-27 4 -92 100q-68 68 -193 43l-63 10l-156 -125q-68 -65 -86 -67 q-31 -111 -55 -215q12 0 42.5 1t49.5 1l82 -2q23 -39 63 -37l135 31l3 10l110 33v-13l45 -10l35 10q72 4 109 -51v-35q0 -35 -109 -63l-111 6l-116 -35l-25 31l-82 -6l-127 8l-6 -31l-59 21l2 4q-4 2 -15 2q-23 0 -49 -6q-6 -43 -6 -99l14 -57q6 0 10.5 -1t10.5 -1v10l82 23 l-2 -4q57 -8 241 -27l103 4h4q63 12 121 -2l86 -51v-10q0 -31 -76 -78l-109 16h-6l-161 -29l6 17q-57 6 -101 -4q-61 33 -110 16l-2 -10l-72 -10l12 -80l58 -70q96 -141 159.5 -207.5t98.5 -62.5q2 0 18 4l37 -16l84 36q59 0 72 37l34 15q49 45 50 75q39 27 12 113l63 61 q119 0 119 -34l23 -84q-63 0 -99 -195q-80 -100 -192 -131l-170 12l-33 -10v-12h-2q-53 -6 -147 78h-109q-117 125 -147 211q-78 139 -78 184l-2 100q-49 17 -49 64z" />
<glyph unicode="&#x2122;" horiz-adv-x="2048" />
<glyph unicode="&#xe000;" horiz-adv-x="950" d="M0 950h950v-950h-950v950z" />
<glyph unicode="&#xf001;" horiz-adv-x="1024" />
<glyph unicode="&#xfb01;" horiz-adv-x="1024" />
<glyph unicode="&#xf002;" horiz-adv-x="1024" />
<glyph unicode="&#xfb02;" horiz-adv-x="1024" />
<glyph unicode="&#xfb03;" horiz-adv-x="3602" d="M2521 66q0 55 162 86q0 51 184 75l76 -20q43 12 43 53q-86 43 -86 109v43l10 118l-23 109l13 63q0 98 -326 99q-43 46 -43 86l43 43h12l140 -33l174 10l96 -30q27 68 53 73q78 -31 78 -106l-23 -99l11 -129q-31 -51 -31 -118l31 -119q-31 -55 -31 -109q0 -92 63 -141h76 q23 0 23 55l139 33q47 0 109 -141v-10q0 -86 -99 -86l-346 43l-192 -54l-109 31h-33l-129 -31q-36 13 -65 97zM2820 1208v9q68 174 145 174h19q156 -68 155 -164q0 -49 -164 -191l-34 -10q-76 47 -121 182zM1345 10l17 66q0 25 97 25q58 0 149 -9l10 10v11q0 35 -76 49 l22 168v43l-22 129v76l25 198q-66 24 -129 24q-35 0 -70 -7q-20 23 -20 56q0 36 24 87q92 0 180 -8v71l-10 205q98 205 303 205l43 23q301 -40 301 -129l55 -43l11 -175q-29 -55 -103 -55h-3q-49 0 -85 96q-37 160 -139 160q-14 11 -37 11q-43 0 -115 -37q-52 -77 -52 -279 q0 -29 1 -61q89 -26 167 -26q27 0 52 3q33 -38 34 -90q0 -15 -3 -31q-48 -23 -124 -23q-57 0 -130 13l8 -59l-12 -291l12 -314l135 -8l99 27q66 -6 67 -82v-23q-18 -43 -73 -43h-445q-123 0 -164 37zM143 10l17 66q0 25 97 25q58 0 149 -9l10 10v11q0 35 -76 49l22 168v43 l-22 129v76l25 198q-66 24 -129 24q-35 0 -70 -7q-20 23 -20 56q0 36 24 87q92 0 180 -8v71l-10 205q98 205 303 205l43 23q301 -40 301 -129l55 -43l11 -175q-29 -55 -103 -55h-3q-49 0 -85 96q-37 160 -139 160q-14 11 -37 11q-43 0 -115 -37q-52 -77 -52 -279 q0 -29 1 -61q89 -26 167 -26q27 0 52 3q33 -38 34 -90q0 -15 -3 -31q-48 -23 -124 -23q-57 0 -130 13l8 -59l-12 -291l12 -314l135 -8l99 27q66 -6 67 -82v-23q-18 -43 -73 -43h-445q-123 0 -164 37z" />
<glyph unicode="&#xfb04;" horiz-adv-x="3602" d="M2445 76l102 119q55 0 252 -43h56q86 0 86 86l-33 251l22 201q-8 31 -22 164q25 0 33 129l-43 86l10 66l-25 49l-205 -10q-171 46 -170 135v12q0 86 76 86h146l49 -25l90 17q22 0 22 -31q0 -12 -4 -29l11 -12h10q31 0 108 66h11q80 -63 100 -109v-20q-23 -43 -53 -43v-13 l-13 -63q43 -31 43 -76q0 -47 -32 -106l8 -162l-4 -183l41 -165l-23 -86l10 -76l-10 -119h10l127 -20h33l207 26h10l72 -78l10 -32q-23 -93 -132 -93h-19q-61 -3 -125 -2q-215 0 -457 31l-289 -37q-96 21 -96 109zM1345 10l17 66q0 25 97 25q58 0 149 -9l10 10v11 q0 35 -76 49l22 168v43l-22 129v76l25 198q-66 24 -129 24q-35 0 -70 -7q-20 23 -20 56q0 36 24 87q92 0 180 -8v71l-10 205q98 205 303 205l43 23q301 -40 301 -129l55 -43l11 -175q-29 -55 -103 -55h-3q-49 0 -85 96q-37 160 -139 160q-14 11 -37 11q-43 0 -115 -37 q-52 -77 -52 -279q0 -29 1 -61q89 -26 167 -26q27 0 52 3q33 -38 34 -90q0 -15 -3 -31q-48 -23 -124 -23q-57 0 -130 13l8 -59l-12 -291l12 -314l135 -8l99 27q66 -6 67 -82v-23q-18 -43 -73 -43h-445q-123 0 -164 37zM143 10l17 66q0 25 97 25q58 0 149 -9l10 10v11 q0 35 -76 49l22 168v43l-22 129v76l25 198q-66 24 -129 24q-35 0 -70 -7q-20 23 -20 56q0 36 24 87q92 0 180 -8v71l-10 205q98 205 303 205l43 23q301 -40 301 -129l55 -43l11 -175q-29 -55 -103 -55h-3q-49 0 -85 96q-37 160 -139 160q-14 11 -37 11q-43 0 -115 -37 q-52 -77 -52 -279q0 -29 1 -61q89 -26 167 -26q27 0 52 3q33 -38 34 -90q0 -15 -3 -31q-48 -23 -124 -23q-57 0 -130 13l8 -59l-12 -291l12 -314l135 -8l99 27q66 -6 67 -82v-23q-18 -43 -73 -43h-445q-123 0 -164 37z" />
</font>
</defs>
</svg>
