<svg xmlns="http://www.w3.org/2000/svg" width="87" height="254" viewBox="0 0 87 254">
  <g fill="none" fill-rule="evenodd">
    <circle cx="15" cy="243" r="10" fill="#FFF" stroke="#E3E8EE"/>
    <path stroke="#E3E8EE" stroke-width="2" d="M86,59 L86,35 C86,23.954305 77.045695,15 66,15 L43,15 L35,15"/>
    <path stroke="#E3E8EE" stroke-width="2" d="M86,245 L86,221 C86,209.954305 77.045695,201 66,201 L43,201 L35,201" transform="matrix(1 0 0 -1 0 446)"/>
    <circle cx="16" cy="16" r="16" fill="#688EF1"/>
    <path fill="#FFF" d="M11,15 L11,13 C11,10.2385762 13.2385762,8 16,8 C18.7614237,8 21,10.2385762 21,13 L21,15 L21.5,15 C22.0522847,15 22.5,15.4477152 22.5,16 L22.5,22 C22.5,23.1045695 21.6045695,24 20.5,24 L11.5,24 C10.3954305,24 9.5,23.1045695 9.5,22 L9.5,16 C9.5,15.4477152 9.94771525,15 10.5,15 L11,15 Z M16,17.5 C15.4477152,17.5 15,17.9477153 15,18.5 L15,20.5 C15,21.0522847 15.4477152,21.5 16,21.5 C16.5522847,21.5 17,21.0522847 17,20.5 L17,18.5 C17,17.9477153 16.5522847,17.5 16,17.5 Z M19,15 L19,13 C19,11.3431457 17.6568542,10 16,10 C14.3431457,10 13,11.3431457 13,13 L13,15 L19,15 Z"/>
  </g>
</svg>
