<svg width="448" height="288" viewBox="0 0 448 288" fill="none" xmlns="http://www.w3.org/2000/svg">
<g clip-path="url(#clip0)">
<path d="M0 0H448V288H0V0Z" fill="white"/>
<path d="M0 0L448 -3.91654e-05" stroke="#E3E8EE" stroke-width="2" stroke-linecap="round" stroke-linejoin="round" stroke-dasharray="0.01 16"/>
<path d="M0 16L448 16" stroke="#E3E8EE" stroke-width="2" stroke-linecap="round" stroke-linejoin="round" stroke-dasharray="0.01 16"/>
<path d="M0 32L448 32" stroke="#E3E8EE" stroke-width="2" stroke-linecap="round" stroke-linejoin="round" stroke-dasharray="0.01 16"/>
<path d="M0 48L448 48" stroke="#E3E8EE" stroke-width="2" stroke-linecap="round" stroke-linejoin="round" stroke-dasharray="0.01 16"/>
<path d="M0 64L448 64" stroke="#E3E8EE" stroke-width="2" stroke-linecap="round" stroke-linejoin="round" stroke-dasharray="0.01 16"/>
<path d="M0 80L448 80" stroke="#E3E8EE" stroke-width="2" stroke-linecap="round" stroke-linejoin="round" stroke-dasharray="0.01 16"/>
<path d="M0 96L448 96" stroke="#E3E8EE" stroke-width="2" stroke-linecap="round" stroke-linejoin="round" stroke-dasharray="0.01 16"/>
<path d="M0 112L448 112" stroke="#E3E8EE" stroke-width="2" stroke-linecap="round" stroke-linejoin="round" stroke-dasharray="0.01 16"/>
<path d="M0 128L448 128" stroke="#E3E8EE" stroke-width="2" stroke-linecap="round" stroke-linejoin="round" stroke-dasharray="0.01 16"/>
<path d="M0 144L448 144" stroke="#E3E8EE" stroke-width="2" stroke-linecap="round" stroke-linejoin="round" stroke-dasharray="0.01 16"/>
<path d="M0 160L448 160" stroke="#E3E8EE" stroke-width="2" stroke-linecap="round" stroke-linejoin="round" stroke-dasharray="0.01 16"/>
<path d="M0 176L448 176" stroke="#E3E8EE" stroke-width="2" stroke-linecap="round" stroke-linejoin="round" stroke-dasharray="0.01 16"/>
<path d="M0 192L448 192" stroke="#E3E8EE" stroke-width="2" stroke-linecap="round" stroke-linejoin="round" stroke-dasharray="0.01 16"/>
<path d="M0 208L448 208" stroke="#E3E8EE" stroke-width="2" stroke-linecap="round" stroke-linejoin="round" stroke-dasharray="0.01 16"/>
<path d="M0 224L448 224" stroke="#E3E8EE" stroke-width="2" stroke-linecap="round" stroke-linejoin="round" stroke-dasharray="0.01 16"/>
<path d="M0 240L448 240" stroke="#E3E8EE" stroke-width="2" stroke-linecap="round" stroke-linejoin="round" stroke-dasharray="0.01 16"/>
<path d="M0 256L448 256" stroke="#E3E8EE" stroke-width="2" stroke-linecap="round" stroke-linejoin="round" stroke-dasharray="0.01 16"/>
<path d="M0 272L448 272" stroke="#E3E8EE" stroke-width="2" stroke-linecap="round" stroke-linejoin="round" stroke-dasharray="0.01 16"/>
<path d="M0 288L448 288" stroke="#E3E8EE" stroke-width="2" stroke-linecap="round" stroke-linejoin="round" stroke-dasharray="0.01 16"/>
<rect x="0.5" y="0.5" width="447" height="287" stroke="white"/>
</g>
<path d="M32 212C32 209.791 33.7909 208 36 208H412C414.209 208 416 209.791 416 212V252C416 254.209 414.209 256 412 256H36C33.7909 256 32 254.209 32 252V212Z" fill="#8792A2"/>
<rect x="30" y="206" width="388" height="52" rx="6" fill="#C1C9D2" stroke="white" stroke-width="4"/>
<path d="M154.273 238.289C156.992 238.289 158.977 236.641 159.172 234.234H156.875C156.648 235.477 155.633 236.273 154.281 236.273C152.5 236.273 151.398 234.773 151.398 232.359C151.398 229.945 152.5 228.445 154.273 228.445C155.617 228.445 156.641 229.305 156.867 230.609H159.164C158.992 228.188 156.945 226.438 154.273 226.438C151 226.438 148.984 228.695 148.984 232.359C148.984 236.023 151.008 238.289 154.273 238.289ZM164.938 238.18C167.586 238.18 169.18 236.508 169.18 233.695C169.18 230.906 167.562 229.211 164.938 229.211C162.312 229.211 160.695 230.914 160.695 233.695C160.695 236.5 162.289 238.18 164.938 238.18ZM164.938 236.383C163.719 236.383 163.031 235.398 163.031 233.695C163.031 232.008 163.727 231.016 164.938 231.016C166.141 231.016 166.844 232.008 166.844 233.695C166.844 235.398 166.148 236.383 164.938 236.383ZM171.039 238H173.312V233.023C173.312 231.859 173.961 231.109 175.016 231.109C176.094 231.109 176.602 231.742 176.602 232.953V238H178.875V232.438C178.875 230.383 177.844 229.211 175.93 229.211C174.656 229.211 173.781 229.812 173.383 230.781H173.242V229.398H171.039V238ZM181.734 227.344V229.477H180.391V231.203H181.734V235.68C181.734 237.352 182.562 238.031 184.656 238.031C185.094 238.031 185.516 237.984 185.797 237.93V236.25C185.578 236.273 185.422 236.289 185.125 236.289C184.352 236.289 184.008 235.93 184.008 235.156V231.203H185.797V229.477H184.008V227.344H181.734ZM188.852 228.078C189.555 228.078 190.133 227.516 190.133 226.812C190.133 226.102 189.555 225.539 188.852 225.539C188.148 225.539 187.562 226.102 187.562 226.812C187.562 227.516 188.148 228.078 188.852 228.078ZM187.711 238H189.984V229.398H187.711V238ZM192.289 238H194.562V233.023C194.562 231.859 195.211 231.109 196.266 231.109C197.344 231.109 197.852 231.742 197.852 232.953V238H200.125V232.438C200.125 230.383 199.094 229.211 197.18 229.211C195.906 229.211 195.031 229.812 194.633 230.781H194.492V229.398H192.289V238ZM210.133 229.398H207.859V234.367C207.859 235.547 207.25 236.273 206.117 236.273C205.07 236.273 204.531 235.656 204.531 234.438V229.398H202.258V235C202.258 237 203.414 238.18 205.273 238.18C206.578 238.18 207.383 237.617 207.789 236.617H207.93V238H210.133V229.398ZM217.984 235.57C217.742 236.156 217.125 236.484 216.227 236.484C215.039 236.484 214.289 235.664 214.258 234.352V234.234H220.172V233.555C220.172 230.836 218.672 229.211 216.133 229.211C213.57 229.211 211.992 230.945 211.992 233.742C211.992 236.523 213.539 238.18 216.164 238.18C218.273 238.18 219.766 237.172 220.102 235.57H217.984ZM216.141 230.906C217.203 230.906 217.891 231.641 217.938 232.82H214.266C214.344 231.664 215.086 230.906 216.141 230.906ZM225.969 231.906C225.969 233.227 226.781 234.016 228.453 234.383L230.016 234.734C230.773 234.906 231.102 235.172 231.102 235.609C231.102 236.18 230.492 236.57 229.609 236.57C228.703 236.57 228.148 236.219 227.977 235.625H225.758C225.914 237.25 227.289 238.18 229.562 238.18C231.82 238.18 233.359 237.07 233.359 235.367C233.359 234.086 232.609 233.383 230.938 233.016L229.32 232.664C228.523 232.484 228.156 232.211 228.156 231.773C228.156 231.211 228.758 230.828 229.57 230.828C230.414 230.828 230.938 231.18 231.055 231.75H233.156C233.031 230.125 231.742 229.211 229.555 229.211C227.406 229.211 225.969 230.297 225.969 231.906ZM235.305 238H237.578V233.047C237.578 231.906 238.234 231.133 239.375 231.133C240.406 231.133 240.961 231.758 240.961 232.977V238H243.234V232.461C243.234 230.398 242.133 229.234 240.281 229.234C239.016 229.234 238.078 229.828 237.68 230.805H237.539V226.109H235.305V238ZM249.266 238.18C251.914 238.18 253.508 236.508 253.508 233.695C253.508 230.906 251.891 229.211 249.266 229.211C246.641 229.211 245.023 230.914 245.023 233.695C245.023 236.5 246.617 238.18 249.266 238.18ZM249.266 236.383C248.047 236.383 247.359 235.398 247.359 233.695C247.359 232.008 248.055 231.016 249.266 231.016C250.469 231.016 251.172 232.008 251.172 233.695C251.172 235.398 250.477 236.383 249.266 236.383ZM260.344 229.258C259.156 229.258 258.18 229.844 257.711 230.812H257.57V229.398H255.367V240.852H257.641V236.688H257.781C258.203 237.594 259.148 238.133 260.383 238.133C262.539 238.133 263.859 236.461 263.859 233.695C263.859 230.922 262.523 229.258 260.344 229.258ZM259.57 236.297C258.367 236.297 257.617 235.312 257.617 233.703C257.617 232.094 258.367 231.102 259.578 231.102C260.789 231.102 261.523 232.078 261.523 233.695C261.523 235.32 260.797 236.297 259.57 236.297ZM270.688 229.258C269.5 229.258 268.523 229.844 268.055 230.812H267.914V229.398H265.711V240.852H267.984V236.688H268.125C268.547 237.594 269.492 238.133 270.727 238.133C272.883 238.133 274.203 236.461 274.203 233.695C274.203 230.922 272.867 229.258 270.688 229.258ZM269.914 236.297C268.711 236.297 267.961 235.312 267.961 233.703C267.961 232.094 268.711 231.102 269.922 231.102C271.133 231.102 271.867 232.078 271.867 233.695C271.867 235.32 271.141 236.297 269.914 236.297ZM277.211 228.078C277.914 228.078 278.492 227.516 278.492 226.812C278.492 226.102 277.914 225.539 277.211 225.539C276.508 225.539 275.922 226.102 275.922 226.812C275.922 227.516 276.508 228.078 277.211 228.078ZM276.07 238H278.344V229.398H276.07V238ZM280.648 238H282.922V233.023C282.922 231.859 283.57 231.109 284.625 231.109C285.703 231.109 286.211 231.742 286.211 232.953V238H288.484V232.438C288.484 230.383 287.453 229.211 285.539 229.211C284.266 229.211 283.391 229.812 282.992 230.781H282.852V229.398H280.648V238ZM294.492 241.258C297.094 241.258 298.742 239.992 298.742 237.984V229.398H296.539V230.773H296.398C295.938 229.836 294.945 229.258 293.781 229.258C291.594 229.258 290.25 230.961 290.25 233.625C290.25 236.203 291.586 237.875 293.734 237.875C294.945 237.875 295.852 237.383 296.328 236.477H296.469V238.078C296.469 239.07 295.758 239.648 294.539 239.648C293.555 239.648 292.914 239.305 292.797 238.758H290.547C290.688 240.266 292.203 241.258 294.492 241.258ZM294.523 236.133C293.289 236.133 292.586 235.164 292.586 233.617C292.586 232.07 293.297 231.102 294.523 231.102C295.75 231.102 296.492 232.07 296.492 233.617C296.492 235.164 295.758 236.133 294.523 236.133Z" fill="white"/>
<rect x="30" y="134" width="388" height="52" fill="white"/>
<path d="M37.9531 154V149.148L41.9531 142.727H40.3516L37.3125 147.734H37.1875L34.1484 142.727H32.5469L36.5469 149.148V154H37.9531ZM45.8984 154.148C48.2969 154.148 49.7812 152.492 49.7812 149.789C49.7812 147.078 48.2969 145.43 45.8984 145.43C43.5 145.43 42.0156 147.078 42.0156 149.789C42.0156 152.492 43.5 154.148 45.8984 154.148ZM45.8984 152.938C44.3047 152.938 43.4062 151.781 43.4062 149.789C43.4062 147.789 44.3047 146.641 45.8984 146.641C47.4922 146.641 48.3906 147.789 48.3906 149.789C48.3906 151.781 47.4922 152.938 45.8984 152.938ZM58.7031 145.578H57.3594V150.562C57.3594 152.039 56.5469 152.922 55.0625 152.922C53.7188 152.922 53.1562 152.219 53.1562 150.703V145.578H51.8125V151.031C51.8125 153.023 52.7969 154.148 54.6875 154.148C55.9766 154.148 56.875 153.617 57.2969 152.68H57.4219V154H58.7031V145.578ZM61.2344 154H62.5781V148.781C62.5781 147.594 63.5078 146.734 64.7891 146.734C65.0547 146.734 65.5391 146.781 65.6484 146.812V145.469C65.4766 145.445 65.1953 145.43 64.9766 145.43C63.8594 145.43 62.8906 146.008 62.6406 146.828H62.5156V145.578H61.2344V154ZM75.3047 154.148C77.7031 154.148 79.1875 152.492 79.1875 149.789C79.1875 147.078 77.7031 145.43 75.3047 145.43C72.9062 145.43 71.4219 147.078 71.4219 149.789C71.4219 152.492 72.9062 154.148 75.3047 154.148ZM75.3047 152.938C73.7109 152.938 72.8125 151.781 72.8125 149.789C72.8125 147.789 73.7109 146.641 75.3047 146.641C76.8984 146.641 77.7969 147.789 77.7969 149.789C77.7969 151.781 76.8984 152.938 75.3047 152.938ZM81.2969 154H82.6406V148.781C82.6406 147.594 83.5703 146.734 84.8516 146.734C85.1172 146.734 85.6016 146.781 85.7109 146.812V145.469C85.5391 145.445 85.2578 145.43 85.0391 145.43C83.9219 145.43 82.9531 146.008 82.7031 146.828H82.5781V145.578H81.2969V154ZM90.2734 154.148C91.4375 154.148 92.4375 153.594 92.9688 152.656H93.0938V154H94.375V142.234H93.0312V146.906H92.9141C92.4375 145.984 91.4453 145.43 90.2734 145.43C88.1328 145.43 86.7344 147.148 86.7344 149.789C86.7344 152.438 88.1172 154.148 90.2734 154.148ZM90.5859 146.641C92.1094 146.641 93.0625 147.859 93.0625 149.789C93.0625 151.734 92.1172 152.938 90.5859 152.938C89.0469 152.938 88.125 151.758 88.125 149.789C88.125 147.828 89.0547 146.641 90.5859 146.641ZM102.562 151.82C102.211 152.562 101.477 152.961 100.391 152.961C98.9609 152.961 98.0312 151.906 97.9609 150.242V150.18H104.016V149.664C104.016 147.047 102.633 145.43 100.359 145.43C98.0469 145.43 96.5625 147.148 96.5625 149.797C96.5625 152.461 98.0234 154.148 100.359 154.148C102.203 154.148 103.516 153.258 103.906 151.82H102.562ZM100.344 146.617C101.68 146.617 102.57 147.602 102.602 149.094H97.9609C98.0625 147.602 99 146.617 100.344 146.617ZM106.125 154H107.469V148.781C107.469 147.594 108.398 146.734 109.68 146.734C109.945 146.734 110.43 146.781 110.539 146.812V145.469C110.367 145.445 110.086 145.43 109.867 145.43C108.75 145.43 107.781 146.008 107.531 146.828H107.406V145.578H106.125V154ZM116.812 154H118.156V149.016C118.156 147.594 118.984 146.641 120.492 146.641C121.766 146.641 122.438 147.383 122.438 148.875V154H123.781V148.547C123.781 146.57 122.656 145.43 120.875 145.43C119.586 145.43 118.703 145.977 118.281 146.906H118.156V142.234H116.812V154ZM128.578 154.148C129.703 154.148 130.625 153.656 131.172 152.758H131.297V154H132.578V148.234C132.578 146.484 131.43 145.43 129.375 145.43C127.578 145.43 126.25 146.32 126.07 147.672H127.43C127.617 147.008 128.32 146.625 129.328 146.625C130.586 146.625 131.234 147.195 131.234 148.234V149L128.805 149.148C126.844 149.266 125.734 150.133 125.734 151.641C125.734 153.18 126.945 154.148 128.578 154.148ZM128.828 152.969C127.852 152.969 127.125 152.469 127.125 151.609C127.125 150.766 127.688 150.32 128.969 150.234L131.234 150.086V150.859C131.234 152.062 130.211 152.969 128.828 152.969ZM134.867 147.883C134.867 149.102 135.586 149.781 137.164 150.164L138.609 150.516C139.508 150.734 139.945 151.125 139.945 151.703C139.945 152.477 139.133 153.016 138 153.016C136.922 153.016 136.25 152.562 136.023 151.852H134.641C134.789 153.25 136.078 154.148 137.953 154.148C139.867 154.148 141.328 153.109 141.328 151.602C141.328 150.391 140.562 149.703 138.977 149.32L137.68 149.008C136.688 148.766 136.219 148.406 136.219 147.828C136.219 147.078 137 146.57 138 146.57C139.016 146.57 139.672 147.016 139.852 147.688H141.18C141 146.305 139.773 145.43 138.008 145.43C136.219 145.43 134.867 146.484 134.867 147.883ZM152.141 154.148C154.273 154.148 155.672 152.422 155.672 149.789C155.672 147.141 154.281 145.43 152.141 145.43C150.984 145.43 149.961 146 149.5 146.906H149.375V142.234H148.031V154H149.312V152.656H149.438C149.969 153.594 150.969 154.148 152.141 154.148ZM151.828 146.641C153.367 146.641 154.281 147.82 154.281 149.789C154.281 151.758 153.367 152.938 151.828 152.938C150.297 152.938 149.344 151.734 149.344 149.789C149.344 147.844 150.297 146.641 151.828 146.641ZM163.359 151.82C163.008 152.562 162.273 152.961 161.188 152.961C159.758 152.961 158.828 151.906 158.758 150.242V150.18H164.812V149.664C164.812 147.047 163.43 145.43 161.156 145.43C158.844 145.43 157.359 147.148 157.359 149.797C157.359 152.461 158.82 154.148 161.156 154.148C163 154.148 164.312 153.258 164.703 151.82H163.359ZM161.141 146.617C162.477 146.617 163.367 147.602 163.398 149.094H158.758C158.859 147.602 159.797 146.617 161.141 146.617ZM172.5 151.82C172.148 152.562 171.414 152.961 170.328 152.961C168.898 152.961 167.969 151.906 167.898 150.242V150.18H173.953V149.664C173.953 147.047 172.57 145.43 170.297 145.43C167.984 145.43 166.5 147.148 166.5 149.797C166.5 152.461 167.961 154.148 170.297 154.148C172.141 154.148 173.453 153.258 173.844 151.82H172.5ZM170.281 146.617C171.617 146.617 172.508 147.602 172.539 149.094H167.898C168 147.602 168.938 146.617 170.281 146.617ZM176.062 154H177.406V149.016C177.406 147.539 178.273 146.641 179.617 146.641C180.961 146.641 181.602 147.359 181.602 148.875V154H182.945V148.547C182.945 146.547 181.891 145.43 180 145.43C178.711 145.43 177.891 145.977 177.469 146.906H177.344V145.578H176.062V154ZM196.891 148.156C196.656 146.656 195.406 145.43 193.359 145.43C191 145.43 189.5 147.133 189.5 149.758C189.5 152.438 191.008 154.148 193.367 154.148C195.391 154.148 196.648 153.008 196.891 151.461H195.531C195.281 152.414 194.492 152.938 193.359 152.938C191.859 152.938 190.891 151.703 190.891 149.758C190.891 147.852 191.844 146.641 193.359 146.641C194.57 146.641 195.312 147.32 195.531 148.156H196.891ZM201.219 154.148C202.344 154.148 203.266 153.656 203.812 152.758H203.938V154H205.219V148.234C205.219 146.484 204.07 145.43 202.016 145.43C200.219 145.43 198.891 146.32 198.711 147.672H200.07C200.258 147.008 200.961 146.625 201.969 146.625C203.227 146.625 203.875 147.195 203.875 148.234V149L201.445 149.148C199.484 149.266 198.375 150.133 198.375 151.641C198.375 153.18 199.586 154.148 201.219 154.148ZM201.469 152.969C200.492 152.969 199.766 152.469 199.766 151.609C199.766 150.766 200.328 150.32 201.609 150.234L203.875 150.086V150.859C203.875 152.062 202.852 152.969 201.469 152.969ZM207.703 154H209.047V149.016C209.047 147.539 209.914 146.641 211.258 146.641C212.602 146.641 213.242 147.359 213.242 148.875V154H214.586V148.547C214.586 146.547 213.531 145.43 211.641 145.43C210.352 145.43 209.531 145.977 209.109 146.906H208.984V145.578H207.703V154ZM224.016 148.156C223.781 146.656 222.531 145.43 220.484 145.43C218.125 145.43 216.625 147.133 216.625 149.758C216.625 152.438 218.133 154.148 220.492 154.148C222.516 154.148 223.773 153.008 224.016 151.461H222.656C222.406 152.414 221.617 152.938 220.484 152.938C218.984 152.938 218.016 151.703 218.016 149.758C218.016 147.852 218.969 146.641 220.484 146.641C221.695 146.641 222.438 147.32 222.656 148.156H224.016ZM231.578 151.82C231.227 152.562 230.492 152.961 229.406 152.961C227.977 152.961 227.047 151.906 226.977 150.242V150.18H233.031V149.664C233.031 147.047 231.648 145.43 229.375 145.43C227.062 145.43 225.578 147.148 225.578 149.797C225.578 152.461 227.039 154.148 229.375 154.148C231.219 154.148 232.531 153.258 232.922 151.82H231.578ZM229.359 146.617C230.695 146.617 231.586 147.602 231.617 149.094H226.977C227.078 147.602 228.016 146.617 229.359 146.617ZM235.219 154H236.562V142.234H235.219V154ZM244.75 151.82C244.398 152.562 243.664 152.961 242.578 152.961C241.148 152.961 240.219 151.906 240.148 150.242V150.18H246.203V149.664C246.203 147.047 244.82 145.43 242.547 145.43C240.234 145.43 238.75 147.148 238.75 149.797C238.75 152.461 240.211 154.148 242.547 154.148C244.391 154.148 245.703 153.258 246.094 151.82H244.75ZM242.531 146.617C243.867 146.617 244.758 147.602 244.789 149.094H240.148C240.25 147.602 241.188 146.617 242.531 146.617ZM251.43 154.148C252.594 154.148 253.594 153.594 254.125 152.656H254.25V154H255.531V142.234H254.188V146.906H254.07C253.594 145.984 252.602 145.43 251.43 145.43C249.289 145.43 247.891 147.148 247.891 149.789C247.891 152.438 249.273 154.148 251.43 154.148ZM251.742 146.641C253.266 146.641 254.219 147.859 254.219 149.789C254.219 151.734 253.273 152.938 251.742 152.938C250.203 152.938 249.281 151.758 249.281 149.789C249.281 147.828 250.211 146.641 251.742 146.641ZM259.25 154.078C259.812 154.078 260.266 153.617 260.266 153.062C260.266 152.5 259.812 152.047 259.25 152.047C258.695 152.047 258.234 152.5 258.234 153.062C258.234 153.617 258.695 154.078 259.25 154.078ZM273.836 145.102H273.93L276.523 154H277.852L280.922 142.727H279.453L277.211 151.891H277.117L274.594 142.727H273.172L270.648 151.891H270.555L268.312 142.727H266.844L269.914 154H271.242L273.836 145.102ZM287.688 151.82C287.336 152.562 286.602 152.961 285.516 152.961C284.086 152.961 283.156 151.906 283.086 150.242V150.18H289.141V149.664C289.141 147.047 287.758 145.43 285.484 145.43C283.172 145.43 281.688 147.148 281.688 149.797C281.688 152.461 283.148 154.148 285.484 154.148C287.328 154.148 288.641 153.258 289.031 151.82H287.688ZM285.469 146.617C286.805 146.617 287.695 147.602 287.727 149.094H283.086C283.188 147.602 284.125 146.617 285.469 146.617ZM306.359 145.578H305.008L303.352 152.312H303.227L301.344 145.578H300.055L298.172 152.312H298.047L296.391 145.578H295.031L297.391 154H298.75L300.625 147.484H300.75L302.633 154H304L306.359 145.578ZM308.859 143.953C309.375 143.953 309.797 143.531 309.797 143.016C309.797 142.5 309.375 142.078 308.859 142.078C308.344 142.078 307.922 142.5 307.922 143.016C307.922 143.531 308.344 143.953 308.859 143.953ZM308.188 154H309.531V145.578H308.188V154ZM312.172 154H313.516V142.234H312.172V154ZM316.203 154H317.547V142.234H316.203V154ZM324.477 147.883C324.477 149.102 325.195 149.781 326.773 150.164L328.219 150.516C329.117 150.734 329.555 151.125 329.555 151.703C329.555 152.477 328.742 153.016 327.609 153.016C326.531 153.016 325.859 152.562 325.633 151.852H324.25C324.398 153.25 325.688 154.148 327.562 154.148C329.477 154.148 330.938 153.109 330.938 151.602C330.938 150.391 330.172 149.703 328.586 149.32L327.289 149.008C326.297 148.766 325.828 148.406 325.828 147.828C325.828 147.078 326.609 146.57 327.609 146.57C328.625 146.57 329.281 147.016 329.461 147.688H330.789C330.609 146.305 329.383 145.43 327.617 145.43C325.828 145.43 324.477 146.484 324.477 147.883ZM338.625 151.82C338.273 152.562 337.539 152.961 336.453 152.961C335.023 152.961 334.094 151.906 334.023 150.242V150.18H340.078V149.664C340.078 147.047 338.695 145.43 336.422 145.43C334.109 145.43 332.625 147.148 332.625 149.797C332.625 152.461 334.086 154.148 336.422 154.148C338.266 154.148 339.578 153.258 339.969 151.82H338.625ZM336.406 146.617C337.742 146.617 338.633 147.602 338.664 149.094H334.023C334.125 147.602 335.062 146.617 336.406 146.617ZM342.188 154H343.531V149.016C343.531 147.539 344.398 146.641 345.742 146.641C347.086 146.641 347.727 147.359 347.727 148.875V154H349.07V148.547C349.07 146.547 348.016 145.43 346.125 145.43C344.836 145.43 344.016 145.977 343.594 146.906H343.469V145.578H342.188V154ZM354.648 154.148C355.812 154.148 356.812 153.594 357.344 152.656H357.469V154H358.75V142.234H357.406V146.906H357.289C356.812 145.984 355.82 145.43 354.648 145.43C352.508 145.43 351.109 147.148 351.109 149.789C351.109 152.438 352.492 154.148 354.648 154.148ZM354.961 146.641C356.484 146.641 357.438 147.859 357.438 149.789C357.438 151.734 356.492 152.938 354.961 152.938C353.422 152.938 352.5 151.758 352.5 149.789C352.5 147.828 353.43 146.641 354.961 146.641ZM366.594 157.047C368.086 157.047 368.758 156.469 369.477 154.516L372.766 145.578H371.336L369.031 152.508H368.906L366.594 145.578H365.141L368.258 154.008L368.102 154.508C367.75 155.523 367.328 155.891 366.555 155.891C366.367 155.891 366.156 155.883 365.992 155.852V157C366.18 157.031 366.414 157.047 366.594 157.047ZM377.711 154.148C380.109 154.148 381.594 152.492 381.594 149.789C381.594 147.078 380.109 145.43 377.711 145.43C375.312 145.43 373.828 147.078 373.828 149.789C373.828 152.492 375.312 154.148 377.711 154.148ZM377.711 152.938C376.117 152.938 375.219 151.781 375.219 149.789C375.219 147.789 376.117 146.641 377.711 146.641C379.305 146.641 380.203 147.789 380.203 149.789C380.203 151.781 379.305 152.938 377.711 152.938ZM390.516 145.578H389.172V150.562C389.172 152.039 388.359 152.922 386.875 152.922C385.531 152.922 384.969 152.219 384.969 150.703V145.578H383.625V151.031C383.625 153.023 384.609 154.148 386.5 154.148C387.789 154.148 388.688 153.617 389.109 152.68H389.234V154H390.516V145.578ZM35.6094 178.148C36.7344 178.148 37.6562 177.656 38.2031 176.758H38.3281V178H39.6094V172.234C39.6094 170.484 38.4609 169.43 36.4062 169.43C34.6094 169.43 33.2812 170.32 33.1016 171.672H34.4609C34.6484 171.008 35.3516 170.625 36.3594 170.625C37.6172 170.625 38.2656 171.195 38.2656 172.234V173L35.8359 173.148C33.875 173.266 32.7656 174.133 32.7656 175.641C32.7656 177.18 33.9766 178.148 35.6094 178.148ZM35.8594 176.969C34.8828 176.969 34.1562 176.469 34.1562 175.609C34.1562 174.766 34.7188 174.32 36 174.234L38.2656 174.086V174.859C38.2656 176.062 37.2422 176.969 35.8594 176.969ZM42.0938 178H43.4375V173.016C43.4375 171.539 44.3047 170.641 45.6484 170.641C46.9922 170.641 47.6328 171.359 47.6328 172.875V178H48.9766V172.547C48.9766 170.547 47.9219 169.43 46.0312 169.43C44.7422 169.43 43.9219 169.977 43.5 170.906H43.375V169.578H42.0938V178ZM61.5312 175.82C61.1797 176.562 60.4453 176.961 59.3594 176.961C57.9297 176.961 57 175.906 56.9297 174.242V174.18H62.9844V173.664C62.9844 171.047 61.6016 169.43 59.3281 169.43C57.0156 169.43 55.5312 171.148 55.5312 173.797C55.5312 176.461 56.9922 178.148 59.3281 178.148C61.1719 178.148 62.4844 177.258 62.875 175.82H61.5312ZM59.3125 170.617C60.6484 170.617 61.5391 171.602 61.5703 173.094H56.9297C57.0312 171.602 57.9688 170.617 59.3125 170.617ZM65.0938 178H66.4375V172.781C66.4375 171.594 67.2891 170.641 68.3906 170.641C69.4531 170.641 70.1484 171.281 70.1484 172.281V178H71.4922V172.586C71.4922 171.516 72.2734 170.641 73.4453 170.641C74.6328 170.641 75.2188 171.25 75.2188 172.492V178H76.5625V172.18C76.5625 170.414 75.6016 169.43 73.8828 169.43C72.7188 169.43 71.7578 170.016 71.3047 170.906H71.1797C70.7891 170.031 69.9922 169.43 68.8516 169.43C67.7266 169.43 66.8828 169.969 66.5 170.906H66.375V169.578H65.0938V178ZM81.3594 178.148C82.4844 178.148 83.4062 177.656 83.9531 176.758H84.0781V178H85.3594V172.234C85.3594 170.484 84.2109 169.43 82.1562 169.43C80.3594 169.43 79.0312 170.32 78.8516 171.672H80.2109C80.3984 171.008 81.1016 170.625 82.1094 170.625C83.3672 170.625 84.0156 171.195 84.0156 172.234V173L81.5859 173.148C79.625 173.266 78.5156 174.133 78.5156 175.641C78.5156 177.18 79.7266 178.148 81.3594 178.148ZM81.6094 176.969C80.6328 176.969 79.9062 176.469 79.9062 175.609C79.9062 174.766 80.4688 174.32 81.75 174.234L84.0156 174.086V174.859C84.0156 176.062 82.9922 176.969 81.6094 176.969ZM88.5469 167.953C89.0625 167.953 89.4844 167.531 89.4844 167.016C89.4844 166.5 89.0625 166.078 88.5469 166.078C88.0312 166.078 87.6094 166.5 87.6094 167.016C87.6094 167.531 88.0312 167.953 88.5469 167.953ZM87.875 178H89.2188V169.578H87.875V178ZM91.8594 178H93.2031V166.234H91.8594V178ZM110.922 169.578H109.57L107.914 176.312H107.789L105.906 169.578H104.617L102.734 176.312H102.609L100.953 169.578H99.5938L101.953 178H103.312L105.188 171.484H105.312L107.195 178H108.562L110.922 169.578ZM113.422 167.953C113.938 167.953 114.359 167.531 114.359 167.016C114.359 166.5 113.938 166.078 113.422 166.078C112.906 166.078 112.484 166.5 112.484 167.016C112.484 167.531 112.906 167.953 113.422 167.953ZM112.75 178H114.094V169.578H112.75V178ZM117.219 167.398V169.578H115.859V170.703H117.219V175.812C117.219 177.422 117.914 178.062 119.648 178.062C119.914 178.062 120.172 178.031 120.438 177.984V176.852C120.188 176.875 120.055 176.883 119.812 176.883C118.938 176.883 118.562 176.461 118.562 175.469V170.703H120.438V169.578H118.562V167.398H117.219ZM122.547 178H123.891V173.016C123.891 171.594 124.719 170.641 126.227 170.641C127.5 170.641 128.172 171.383 128.172 172.875V178H129.516V172.547C129.516 170.57 128.391 169.43 126.609 169.43C125.32 169.43 124.438 169.977 124.016 170.906H123.891V166.234H122.547V178ZM137.047 167.398V169.578H135.688V170.703H137.047V175.812C137.047 177.422 137.742 178.062 139.477 178.062C139.742 178.062 140 178.031 140.266 177.984V176.852C140.016 176.875 139.883 176.883 139.641 176.883C138.766 176.883 138.391 176.461 138.391 175.469V170.703H140.266V169.578H138.391V167.398H137.047ZM142.375 178H143.719V173.016C143.719 171.594 144.547 170.641 146.055 170.641C147.328 170.641 148 171.383 148 172.875V178H149.344V172.547C149.344 170.57 148.219 169.43 146.438 169.43C145.148 169.43 144.266 169.977 143.844 170.906H143.719V166.234H142.375V178ZM157.375 175.82C157.023 176.562 156.289 176.961 155.203 176.961C153.773 176.961 152.844 175.906 152.773 174.242V174.18H158.828V173.664C158.828 171.047 157.445 169.43 155.172 169.43C152.859 169.43 151.375 171.148 151.375 173.797C151.375 176.461 152.836 178.148 155.172 178.148C157.016 178.148 158.328 177.258 158.719 175.82H157.375ZM155.156 170.617C156.492 170.617 157.383 171.602 157.414 173.094H152.773C152.875 171.602 153.812 170.617 155.156 170.617ZM168.57 178.148C169.734 178.148 170.734 177.594 171.266 176.656H171.391V178H172.672V166.234H171.328V170.906H171.211C170.734 169.984 169.742 169.43 168.57 169.43C166.43 169.43 165.031 171.148 165.031 173.789C165.031 176.438 166.414 178.148 168.57 178.148ZM168.883 170.641C170.406 170.641 171.359 171.859 171.359 173.789C171.359 175.734 170.414 176.938 168.883 176.938C167.344 176.938 166.422 175.758 166.422 173.789C166.422 171.828 167.352 170.641 168.883 170.641ZM180.859 175.82C180.508 176.562 179.773 176.961 178.688 176.961C177.258 176.961 176.328 175.906 176.258 174.242V174.18H182.312V173.664C182.312 171.047 180.93 169.43 178.656 169.43C176.344 169.43 174.859 171.148 174.859 173.797C174.859 176.461 176.32 178.148 178.656 178.148C180.5 178.148 181.812 177.258 182.203 175.82H180.859ZM178.641 170.617C179.977 170.617 180.867 171.602 180.898 173.094H176.258C176.359 171.602 177.297 170.617 178.641 170.617ZM184.984 167.398V169.578H183.625V170.703H184.984V175.812C184.984 177.422 185.68 178.062 187.414 178.062C187.68 178.062 187.938 178.031 188.203 177.984V176.852C187.953 176.875 187.82 176.883 187.578 176.883C186.703 176.883 186.328 176.461 186.328 175.469V170.703H188.203V169.578H186.328V167.398H184.984ZM192.578 178.148C193.703 178.148 194.625 177.656 195.172 176.758H195.297V178H196.578V172.234C196.578 170.484 195.43 169.43 193.375 169.43C191.578 169.43 190.25 170.32 190.07 171.672H191.43C191.617 171.008 192.32 170.625 193.328 170.625C194.586 170.625 195.234 171.195 195.234 172.234V173L192.805 173.148C190.844 173.266 189.734 174.133 189.734 175.641C189.734 177.18 190.945 178.148 192.578 178.148ZM192.828 176.969C191.852 176.969 191.125 176.469 191.125 175.609C191.125 174.766 191.688 174.32 192.969 174.234L195.234 174.086V174.859C195.234 176.062 194.211 176.969 192.828 176.969ZM199.766 167.953C200.281 167.953 200.703 167.531 200.703 167.016C200.703 166.5 200.281 166.078 199.766 166.078C199.25 166.078 198.828 166.5 198.828 167.016C198.828 167.531 199.25 167.953 199.766 167.953ZM199.094 178H200.438V169.578H199.094V178ZM203.078 178H204.422V166.234H203.078V178ZM206.836 171.883C206.836 173.102 207.555 173.781 209.133 174.164L210.578 174.516C211.477 174.734 211.914 175.125 211.914 175.703C211.914 176.477 211.102 177.016 209.969 177.016C208.891 177.016 208.219 176.562 207.992 175.852H206.609C206.758 177.25 208.047 178.148 209.922 178.148C211.836 178.148 213.297 177.109 213.297 175.602C213.297 174.391 212.531 173.703 210.945 173.32L209.648 173.008C208.656 172.766 208.188 172.406 208.188 171.828C208.188 171.078 208.969 170.57 209.969 170.57C210.984 170.57 211.641 171.016 211.82 171.688H213.148C212.969 170.305 211.742 169.43 209.977 169.43C208.188 169.43 206.836 170.484 206.836 171.883ZM216.516 178.078C217.078 178.078 217.531 177.617 217.531 177.062C217.531 176.5 217.078 176.047 216.516 176.047C215.961 176.047 215.5 176.5 215.5 177.062C215.5 177.617 215.961 178.078 216.516 178.078Z" fill="#4F566B"/>
<rect x="30" y="134" width="388" height="52" stroke="white" stroke-width="4"/>
<path d="M28 28H52V52H28V28Z" fill="white"/>
<path fill-rule="evenodd" clip-rule="evenodd" d="M40 52C33.3726 52 28 46.6274 28 40C28 33.3726 33.3726 28 40 28C46.6274 28 52 33.3726 52 40C52 46.6274 46.6274 52 40 52ZM40 48.25C41.2426 48.25 42.25 47.2426 42.25 46C42.25 44.7574 41.2426 43.75 40 43.75C38.7574 43.75 37.75 44.7574 37.75 46C37.75 47.2426 38.7574 48.25 40 48.25ZM40 31C39.1716 31 38.5 31.6716 38.5 32.5V40C38.5 40.8284 39.1716 41.5 40 41.5C40.8284 41.5 41.5 40.8284 41.5 40V32.5C41.5 31.6716 40.8284 31 40 31Z" fill="#EFC078"/>
<rect x="30" y="90" width="202" height="28" fill="white"/>
<path d="M38.8516 110V105.789L42.7734 98.7266H40.2188L37.7422 103.469H37.6016L35.1172 98.7266H32.5625L36.4922 105.789V110H38.8516ZM46.7734 110.18C49.4219 110.18 51.0156 108.508 51.0156 105.695C51.0156 102.906 49.3984 101.211 46.7734 101.211C44.1484 101.211 42.5312 102.914 42.5312 105.695C42.5312 108.5 44.125 110.18 46.7734 110.18ZM46.7734 108.383C45.5547 108.383 44.8672 107.398 44.8672 105.695C44.8672 104.008 45.5625 103.016 46.7734 103.016C47.9766 103.016 48.6797 104.008 48.6797 105.695C48.6797 107.398 47.9844 108.383 46.7734 108.383ZM60.6719 101.398H58.3984V106.367C58.3984 107.547 57.7891 108.273 56.6562 108.273C55.6094 108.273 55.0703 107.656 55.0703 106.438V101.398H52.7969V107C52.7969 109 53.9531 110.18 55.8125 110.18C57.1172 110.18 57.9219 109.617 58.3281 108.617H58.4688V110H60.6719V101.398ZM62.9531 110H65.2266V105.188C65.2266 103.977 66.0781 103.234 67.3203 103.234C67.6875 103.234 68.2188 103.297 68.3984 103.359V101.359C68.2031 101.297 67.8203 101.258 67.5078 101.258C66.4141 101.258 65.5234 101.906 65.2969 102.766H65.1562V101.398H62.9531V110ZM77.8672 110.18C80.5156 110.18 82.1094 108.508 82.1094 105.695C82.1094 102.906 80.4922 101.211 77.8672 101.211C75.2422 101.211 73.625 102.914 73.625 105.695C73.625 108.5 75.2188 110.18 77.8672 110.18ZM77.8672 108.383C76.6484 108.383 75.9609 107.398 75.9609 105.695C75.9609 104.008 76.6562 103.016 77.8672 103.016C79.0703 103.016 79.7734 104.008 79.7734 105.695C79.7734 107.398 79.0781 108.383 77.8672 108.383ZM83.9688 110H86.2422V105.188C86.2422 103.977 87.0938 103.234 88.3359 103.234C88.7031 103.234 89.2344 103.297 89.4141 103.359V101.359C89.2188 101.297 88.8359 101.258 88.5234 101.258C87.4297 101.258 86.5391 101.906 86.3125 102.766H86.1719V101.398H83.9688V110ZM93.8203 110.133C95.0156 110.133 95.9922 109.578 96.4531 108.648H96.5938V110H98.7969V98.1094H96.5234V102.773H96.3906C95.9453 101.82 94.9844 101.258 93.8203 101.258C91.6562 101.258 90.3125 102.953 90.3125 105.688C90.3125 108.43 91.6484 110.133 93.8203 110.133ZM94.5938 103.102C95.8047 103.102 96.5469 104.094 96.5469 105.703C96.5469 107.312 95.8125 108.297 94.5938 108.297C93.375 108.297 92.6484 107.32 92.6484 105.695C92.6484 104.078 93.3828 103.102 94.5938 103.102ZM106.727 107.57C106.484 108.156 105.867 108.484 104.969 108.484C103.781 108.484 103.031 107.664 103 106.352V106.234H108.914V105.555C108.914 102.836 107.414 101.211 104.875 101.211C102.312 101.211 100.734 102.945 100.734 105.742C100.734 108.523 102.281 110.18 104.906 110.18C107.016 110.18 108.508 109.172 108.844 107.57H106.727ZM104.883 102.906C105.945 102.906 106.633 103.641 106.68 104.82H103.008C103.086 103.664 103.828 102.906 104.883 102.906ZM110.781 110H113.055V105.188C113.055 103.977 113.906 103.234 115.148 103.234C115.516 103.234 116.047 103.297 116.227 103.359V101.359C116.031 101.297 115.648 101.258 115.336 101.258C114.242 101.258 113.352 101.906 113.125 102.766H112.984V101.398H110.781V110ZM133.812 101.398H131.555L130.273 107.625H130.133L128.617 101.398H126.445L124.938 107.625H124.797L123.516 101.398H121.211L123.508 110H125.898L127.422 104H127.562L129.102 110H131.523L133.812 101.398ZM137.562 110.133C138.68 110.133 139.617 109.656 140.062 108.859H140.203V110H142.406V104.125C142.406 102.289 141.117 101.211 138.836 101.211C136.672 101.211 135.211 102.203 135.062 103.781H137.156C137.344 103.242 137.891 102.953 138.711 102.953C139.648 102.953 140.164 103.383 140.164 104.125V104.836L138.078 104.961C135.938 105.086 134.742 105.992 134.742 107.547C134.742 109.117 135.906 110.133 137.562 110.133ZM138.312 108.469C137.523 108.469 136.969 108.07 136.969 107.406C136.969 106.773 137.445 106.406 138.422 106.344L140.164 106.227V106.867C140.164 107.773 139.367 108.469 138.312 108.469ZM144.445 103.906C144.445 105.227 145.258 106.016 146.93 106.383L148.492 106.734C149.25 106.906 149.578 107.172 149.578 107.609C149.578 108.18 148.969 108.57 148.086 108.57C147.18 108.57 146.625 108.219 146.453 107.625H144.234C144.391 109.25 145.766 110.18 148.039 110.18C150.297 110.18 151.836 109.07 151.836 107.367C151.836 106.086 151.086 105.383 149.414 105.016L147.797 104.664C147 104.484 146.633 104.211 146.633 103.773C146.633 103.211 147.234 102.828 148.047 102.828C148.891 102.828 149.414 103.18 149.531 103.75H151.633C151.508 102.125 150.219 101.211 148.031 101.211C145.883 101.211 144.445 102.297 144.445 103.906ZM165.453 104.398C165.266 102.477 163.898 101.211 161.617 101.211C158.922 101.211 157.406 102.844 157.406 105.68C157.406 108.547 158.93 110.18 161.617 110.18C163.859 110.18 165.266 108.945 165.453 107.055H163.328C163.156 107.914 162.547 108.375 161.617 108.375C160.398 108.375 159.703 107.414 159.703 105.68C159.703 103.969 160.391 103.023 161.617 103.023C162.586 103.023 163.172 103.57 163.328 104.398H165.453ZM169.594 110.133C170.711 110.133 171.648 109.656 172.094 108.859H172.234V110H174.438V104.125C174.438 102.289 173.148 101.211 170.867 101.211C168.703 101.211 167.242 102.203 167.094 103.781H169.188C169.375 103.242 169.922 102.953 170.742 102.953C171.68 102.953 172.195 103.383 172.195 104.125V104.836L170.109 104.961C167.969 105.086 166.773 105.992 166.773 107.547C166.773 109.117 167.938 110.133 169.594 110.133ZM170.344 108.469C169.555 108.469 169 108.07 169 107.406C169 106.773 169.477 106.406 170.453 106.344L172.195 106.227V106.867C172.195 107.773 171.398 108.469 170.344 108.469ZM176.672 110H178.945V105.023C178.945 103.859 179.594 103.109 180.648 103.109C181.727 103.109 182.234 103.742 182.234 104.953V110H184.508V104.438C184.508 102.383 183.477 101.211 181.562 101.211C180.289 101.211 179.414 101.812 179.016 102.781H178.875V101.398H176.672V110ZM194.344 104.398C194.156 102.477 192.789 101.211 190.508 101.211C187.812 101.211 186.297 102.844 186.297 105.68C186.297 108.547 187.82 110.18 190.508 110.18C192.75 110.18 194.156 108.945 194.344 107.055H192.219C192.047 107.914 191.438 108.375 190.508 108.375C189.289 108.375 188.594 107.414 188.594 105.68C188.594 103.969 189.281 103.023 190.508 103.023C191.477 103.023 192.062 103.57 192.219 104.398H194.344ZM201.695 107.57C201.453 108.156 200.836 108.484 199.938 108.484C198.75 108.484 198 107.664 197.969 106.352V106.234H203.883V105.555C203.883 102.836 202.383 101.211 199.844 101.211C197.281 101.211 195.703 102.945 195.703 105.742C195.703 108.523 197.25 110.18 199.875 110.18C201.984 110.18 203.477 109.172 203.812 107.57H201.695ZM199.852 102.906C200.914 102.906 201.602 103.641 201.648 104.82H197.977C198.055 103.664 198.797 102.906 199.852 102.906ZM205.828 110H208.102V98.1094H205.828V110ZM216.039 107.57C215.797 108.156 215.18 108.484 214.281 108.484C213.094 108.484 212.344 107.664 212.312 106.352V106.234H218.227V105.555C218.227 102.836 216.727 101.211 214.188 101.211C211.625 101.211 210.047 102.945 210.047 105.742C210.047 108.523 211.594 110.18 214.219 110.18C216.328 110.18 217.82 109.172 218.156 107.57H216.039ZM214.195 102.906C215.258 102.906 215.945 103.641 215.992 104.82H212.32C212.398 103.664 213.141 102.906 214.195 102.906ZM223.18 110.133C224.375 110.133 225.352 109.578 225.812 108.648H225.953V110H228.156V98.1094H225.883V102.773H225.75C225.305 101.82 224.344 101.258 223.18 101.258C221.016 101.258 219.672 102.953 219.672 105.688C219.672 108.43 221.008 110.133 223.18 110.133ZM223.953 103.102C225.164 103.102 225.906 104.094 225.906 105.703C225.906 107.312 225.172 108.297 223.953 108.297C222.734 108.297 222.008 107.32 222.008 105.695C222.008 104.078 222.742 103.102 223.953 103.102Z" fill="#3C4257"/>
<rect x="30" y="90" width="202" height="28" stroke="white" stroke-width="4"/>
<rect x="0.5" y="0.5" width="447" height="287" rx="7.5" stroke="#E3E8EE"/>
<defs>
<clipPath id="clip0">
<path d="M0 0H448V288H0V0Z" fill="white"/>
</clipPath>
</defs>
</svg>
