<svg width="448" height="272" viewBox="0 0 448 272" fill="none" xmlns="http://www.w3.org/2000/svg">
<g clip-path="url(#clip0)">
<path d="M0 0H448V272H0V0Z" fill="white"/>
<path d="M0 0L448 -3.91654e-05" stroke="#E3E8EE" stroke-width="2" stroke-linecap="round" stroke-linejoin="round" stroke-dasharray="0.01 16"/>
<path d="M0 16L448 16" stroke="#E3E8EE" stroke-width="2" stroke-linecap="round" stroke-linejoin="round" stroke-dasharray="0.01 16"/>
<path d="M0 32L448 32" stroke="#E3E8EE" stroke-width="2" stroke-linecap="round" stroke-linejoin="round" stroke-dasharray="0.01 16"/>
<path d="M0 48L448 48" stroke="#E3E8EE" stroke-width="2" stroke-linecap="round" stroke-linejoin="round" stroke-dasharray="0.01 16"/>
<path d="M0 64L448 64" stroke="#E3E8EE" stroke-width="2" stroke-linecap="round" stroke-linejoin="round" stroke-dasharray="0.01 16"/>
<path d="M0 80L448 80" stroke="#E3E8EE" stroke-width="2" stroke-linecap="round" stroke-linejoin="round" stroke-dasharray="0.01 16"/>
<path d="M0 96L448 96" stroke="#E3E8EE" stroke-width="2" stroke-linecap="round" stroke-linejoin="round" stroke-dasharray="0.01 16"/>
<path d="M0 112L448 112" stroke="#E3E8EE" stroke-width="2" stroke-linecap="round" stroke-linejoin="round" stroke-dasharray="0.01 16"/>
<path d="M0 128L448 128" stroke="#E3E8EE" stroke-width="2" stroke-linecap="round" stroke-linejoin="round" stroke-dasharray="0.01 16"/>
<path d="M0 144L448 144" stroke="#E3E8EE" stroke-width="2" stroke-linecap="round" stroke-linejoin="round" stroke-dasharray="0.01 16"/>
<path d="M0 160L448 160" stroke="#E3E8EE" stroke-width="2" stroke-linecap="round" stroke-linejoin="round" stroke-dasharray="0.01 16"/>
<path d="M0 176L448 176" stroke="#E3E8EE" stroke-width="2" stroke-linecap="round" stroke-linejoin="round" stroke-dasharray="0.01 16"/>
<path d="M0 192L448 192" stroke="#E3E8EE" stroke-width="2" stroke-linecap="round" stroke-linejoin="round" stroke-dasharray="0.01 16"/>
<path d="M0 208L448 208" stroke="#E3E8EE" stroke-width="2" stroke-linecap="round" stroke-linejoin="round" stroke-dasharray="0.01 16"/>
<path d="M0 224L448 224" stroke="#E3E8EE" stroke-width="2" stroke-linecap="round" stroke-linejoin="round" stroke-dasharray="0.01 16"/>
<path d="M0 240L448 240" stroke="#E3E8EE" stroke-width="2" stroke-linecap="round" stroke-linejoin="round" stroke-dasharray="0.01 16"/>
<path d="M0 256L448 256" stroke="#E3E8EE" stroke-width="2" stroke-linecap="round" stroke-linejoin="round" stroke-dasharray="0.01 16"/>
<path d="M0 272L448 272" stroke="#E3E8EE" stroke-width="2" stroke-linecap="round" stroke-linejoin="round" stroke-dasharray="0.01 16"/>
<rect x="0.5" y="0.5" width="447" height="271" stroke="white"/>
</g>
<path d="M32 196C32 193.791 33.7909 192 36 192H412C414.209 192 416 193.791 416 196V236C416 238.209 414.209 240 412 240H36C33.7909 240 32 238.209 32 236V196Z" fill="#8792A2"/>
<rect x="30" y="190" width="388" height="52" rx="6" fill="#C1C9D2" stroke="white" stroke-width="4"/>
<path d="M191.945 210.727V222H194.305V218.445H196.531C198.906 218.445 200.555 216.898 200.555 214.602C200.555 212.273 198.969 210.727 196.648 210.727H191.945ZM194.305 212.602H196.023C197.383 212.602 198.156 213.297 198.156 214.609C198.156 215.891 197.367 216.594 196.016 216.594H194.305V212.602ZM204.547 222.133C205.664 222.133 206.602 221.656 207.047 220.859H207.188V222H209.391V216.125C209.391 214.289 208.102 213.211 205.82 213.211C203.656 213.211 202.195 214.203 202.047 215.781H204.141C204.328 215.242 204.875 214.953 205.695 214.953C206.633 214.953 207.148 215.383 207.148 216.125V216.836L205.062 216.961C202.922 217.086 201.727 217.992 201.727 219.547C201.727 221.117 202.891 222.133 204.547 222.133ZM205.297 220.469C204.508 220.469 203.953 220.07 203.953 219.406C203.953 218.773 204.43 218.406 205.406 218.344L207.148 218.227V218.867C207.148 219.773 206.352 220.469 205.297 220.469ZM212.461 225.125C214.609 225.125 215.664 224.359 216.398 222.164L219.367 213.398H216.961L215.148 219.961H215.008L213.195 213.398H210.688L213.711 222.047L213.633 222.375C213.445 223.07 212.961 223.352 212.109 223.352C212.016 223.352 211.672 223.344 211.594 223.328V225.102C211.688 225.117 212.375 225.125 212.461 225.125ZM224.547 217.875H225.797C226.32 220.477 228.219 221.992 230.859 221.992C233.305 221.984 235.117 220.641 235.516 218.594H233.266C232.961 219.484 232.125 220.086 230.867 220.086C229.523 220.086 228.523 219.289 228.117 217.875H231.938V216.977H227.953C227.938 216.781 227.93 216.578 227.93 216.359C227.93 216.164 227.938 215.977 227.953 215.789H231.938V214.891H228.109C228.508 213.461 229.523 212.633 230.867 212.633C232.117 212.633 233.016 213.352 233.289 214.328H235.516C235.25 212.266 233.391 210.734 230.867 210.734C228.219 210.734 226.305 212.273 225.789 214.891H224.547V215.789H225.672C225.664 215.977 225.656 216.164 225.656 216.359C225.656 216.57 225.664 216.781 225.68 216.977H224.547V217.875ZM237.18 214.148H239.367C239.367 213.047 240.086 212.273 241.234 212.273C242.336 212.273 242.977 213.008 242.977 213.93C242.977 214.711 242.672 215.227 241.266 216.594L237.312 220.414V222H245.445V220.102H240.492V219.961L242.836 217.727C244.711 215.945 245.289 215.039 245.289 213.719C245.289 211.82 243.758 210.438 241.367 210.438C238.898 210.438 237.18 211.953 237.18 214.148ZM251.945 222.289C254.734 222.289 256.422 220.086 256.422 216.352C256.422 212.609 254.711 210.438 251.945 210.438C249.172 210.438 247.469 212.609 247.469 216.344C247.469 220.086 249.156 222.289 251.945 222.289ZM251.945 220.422C250.656 220.422 249.859 219.047 249.859 216.344C249.859 213.664 250.664 212.305 251.945 212.305C253.234 212.305 254.031 213.656 254.031 216.344C254.031 219.047 253.242 220.422 251.945 220.422Z" fill="white"/>
<rect x="30" y="78" width="388" height="100" rx="6" fill="white"/>
<path d="M32.5 84C32.5 82.0969 34.1555 80.5 36.2667 80.5H411.733C413.845 80.5 415.5 82.0969 415.5 84V172C415.5 173.903 413.845 175.5 411.733 175.5H36.2667C34.1555 175.5 32.5 173.903 32.5 172V84Z" fill="white" stroke="#C1C9D2"/>
<path d="M32 128H416M224 128V176" stroke="#C1C9D2"/>
<path d="M53.7266 110.266C56.125 110.266 57.9062 108.93 58.2812 106.859H56.8516C56.4922 108.164 55.2969 108.969 53.7266 108.969C51.5547 108.969 50.1953 107.195 50.1953 104.367C50.1953 101.539 51.5547 99.7578 53.7188 99.7578C55.2734 99.7578 56.4766 100.672 56.8516 102.125H58.2812C57.9453 99.9531 56.0938 98.4609 53.7188 98.4609C50.6562 98.4609 48.75 100.727 48.75 104.367C48.75 108 50.6641 110.266 53.7266 110.266ZM62.8125 110.148C63.9375 110.148 64.8594 109.656 65.4062 108.758H65.5312V110H66.8125V104.234C66.8125 102.484 65.6641 101.43 63.6094 101.43C61.8125 101.43 60.4844 102.32 60.3047 103.672H61.6641C61.8516 103.008 62.5547 102.625 63.5625 102.625C64.8203 102.625 65.4688 103.195 65.4688 104.234V105L63.0391 105.148C61.0781 105.266 59.9688 106.133 59.9688 107.641C59.9688 109.18 61.1797 110.148 62.8125 110.148ZM63.0625 108.969C62.0859 108.969 61.3594 108.469 61.3594 107.609C61.3594 106.766 61.9219 106.32 63.2031 106.234L65.4688 106.086V106.859C65.4688 108.062 64.4453 108.969 63.0625 108.969ZM69.2969 110H70.6406V104.781C70.6406 103.594 71.5703 102.734 72.8516 102.734C73.1172 102.734 73.6016 102.781 73.7109 102.812V101.469C73.5391 101.445 73.2578 101.43 73.0391 101.43C71.9219 101.43 70.9531 102.008 70.7031 102.828H70.5781V101.578H69.2969V110ZM78.2734 110.148C79.4375 110.148 80.4375 109.594 80.9688 108.656H81.0938V110H82.375V98.2344H81.0312V102.906H80.9141C80.4375 101.984 79.4453 101.43 78.2734 101.43C76.1328 101.43 74.7344 103.148 74.7344 105.789C74.7344 108.438 76.1172 110.148 78.2734 110.148ZM78.5859 102.641C80.1094 102.641 81.0625 103.859 81.0625 105.789C81.0625 107.734 80.1172 108.938 78.5859 108.938C77.0469 108.938 76.125 107.758 76.125 105.789C76.125 103.828 77.0547 102.641 78.5859 102.641ZM89.5 110H90.8438V105.016C90.8438 103.539 91.7109 102.641 93.0547 102.641C94.3984 102.641 95.0391 103.359 95.0391 104.875V110H96.3828V104.547C96.3828 102.547 95.3281 101.43 93.4375 101.43C92.1484 101.43 91.3281 101.977 90.9062 102.906H90.7812V101.578H89.5V110ZM105.656 101.578H104.312V106.562C104.312 108.039 103.5 108.922 102.016 108.922C100.672 108.922 100.109 108.219 100.109 106.703V101.578H98.7656V107.031C98.7656 109.023 99.75 110.148 101.641 110.148C102.93 110.148 103.828 109.617 104.25 108.68H104.375V110H105.656V101.578ZM108.188 110H109.531V104.781C109.531 103.594 110.383 102.641 111.484 102.641C112.547 102.641 113.242 103.281 113.242 104.281V110H114.586V104.586C114.586 103.516 115.367 102.641 116.539 102.641C117.727 102.641 118.312 103.25 118.312 104.492V110H119.656V104.18C119.656 102.414 118.695 101.43 116.977 101.43C115.812 101.43 114.852 102.016 114.398 102.906H114.273C113.883 102.031 113.086 101.43 111.945 101.43C110.82 101.43 109.977 101.969 109.594 102.906H109.469V101.578H108.188V110ZM126.297 110.148C128.43 110.148 129.828 108.422 129.828 105.789C129.828 103.141 128.438 101.43 126.297 101.43C125.141 101.43 124.117 102 123.656 102.906H123.531V98.2344H122.188V110H123.469V108.656H123.594C124.125 109.594 125.125 110.148 126.297 110.148ZM125.984 102.641C127.523 102.641 128.438 103.82 128.438 105.789C128.438 107.758 127.523 108.938 125.984 108.938C124.453 108.938 123.5 107.734 123.5 105.789C123.5 103.844 124.453 102.641 125.984 102.641ZM137.516 107.82C137.164 108.562 136.43 108.961 135.344 108.961C133.914 108.961 132.984 107.906 132.914 106.242V106.18H138.969V105.664C138.969 103.047 137.586 101.43 135.312 101.43C133 101.43 131.516 103.148 131.516 105.797C131.516 108.461 132.977 110.148 135.312 110.148C137.156 110.148 138.469 109.258 138.859 107.82H137.516ZM135.297 102.617C136.633 102.617 137.523 103.602 137.555 105.094H132.914C133.016 103.602 133.953 102.617 135.297 102.617ZM141.078 110H142.422V104.781C142.422 103.594 143.352 102.734 144.633 102.734C144.898 102.734 145.383 102.781 145.492 102.812V101.469C145.32 101.445 145.039 101.43 144.82 101.43C143.703 101.43 142.734 102.008 142.484 102.828H142.359V101.578H141.078V110Z" fill="#8792A2"/>
<path d="M60.2969 158V146.727H58.6641L54.8047 156.133H54.6797L50.8203 146.727H49.1875V158H50.5V149.391H50.5938L54.1484 158H55.3359L58.8906 149.391H58.9844V158H60.2969ZM74.2812 158V146.727H72.6484L68.7891 156.133H68.6641L64.8047 146.727H63.1719V158H64.4844V149.391H64.5781L68.1328 158H69.3203L72.875 149.391H72.9688V158H74.2812ZM76.9219 160.398L80.9844 146.234H79.8438L75.7812 160.398H76.9219ZM87 158V153.148L91 146.727H89.3984L86.3594 151.734H86.2344L83.1953 146.727H81.5938L85.5938 153.148V158H87ZM97.5 158V153.148L101.5 146.727H99.8984L96.8594 151.734H96.7344L93.6953 146.727H92.0938L96.0938 153.148V158H97.5Z" fill="#8792A2"/>
<path d="M250.977 158.266C253.375 158.266 255.156 156.93 255.531 154.859H254.102C253.742 156.164 252.547 156.969 250.977 156.969C248.805 156.969 247.445 155.195 247.445 152.367C247.445 149.539 248.805 147.758 250.969 147.758C252.523 147.758 253.727 148.672 254.102 150.125H255.531C255.195 147.953 253.344 146.461 250.969 146.461C247.906 146.461 246 148.727 246 152.367C246 156 247.914 158.266 250.977 158.266ZM262.539 158L266.695 146.727H265.219L261.906 156.18H261.781L258.469 146.727H256.992L261.148 158H262.539ZM272.82 158.266C275.219 158.266 277 156.93 277.375 154.859H275.945C275.586 156.164 274.391 156.969 272.82 156.969C270.648 156.969 269.289 155.195 269.289 152.367C269.289 149.539 270.648 147.758 272.812 147.758C274.367 147.758 275.57 148.672 275.945 150.125H277.375C277.039 147.953 275.188 146.461 272.812 146.461C269.75 146.461 267.844 148.727 267.844 152.367C267.844 156 269.758 158.266 272.82 158.266Z" fill="#8792A2"/>
<path fill-rule="evenodd" clip-rule="evenodd" d="M400 99.5H380V98.5625C380 97.6996 380.56 97 381.25 97H398.75C399.44 97 400 97.6996 400 98.5625V99.5ZM400 102.625V110.75C400 111.44 399.44 112 398.75 112H381.25C380.56 112 380 111.44 380 110.75V102.625H400ZM385 107C384.31 107 383.75 107.56 383.75 108.25C383.75 108.94 384.31 109.5 385 109.5H386.25C386.94 109.5 387.5 108.94 387.5 108.25C387.5 107.56 386.94 107 386.25 107H385Z" fill="#4F566B"/>
<rect x="30" y="78" width="388" height="100" rx="6" stroke="#F7FAFC" stroke-width="4"/>
<rect x="30" y="26" width="220" height="28" fill="white"/>
<path d="M35.7266 46V41.5625H40.3125V39.6953H35.7266V36.6719H40.75V34.7266H33.3672V46H35.7266ZM43.8594 36.0781C44.5625 36.0781 45.1406 35.5156 45.1406 34.8125C45.1406 34.1016 44.5625 33.5391 43.8594 33.5391C43.1562 33.5391 42.5703 34.1016 42.5703 34.8125C42.5703 35.5156 43.1562 36.0781 43.8594 36.0781ZM42.7188 46H44.9922V37.3984H42.7188V46ZM47.375 46H49.6484V34.1094H47.375V46ZM52.0938 46H54.3672V34.1094H52.0938V46ZM62.0156 36.0781C62.7188 36.0781 63.2969 35.5156 63.2969 34.8125C63.2969 34.1016 62.7188 33.5391 62.0156 33.5391C61.3125 33.5391 60.7266 34.1016 60.7266 34.8125C60.7266 35.5156 61.3125 36.0781 62.0156 36.0781ZM60.875 46H63.1484V37.3984H60.875V46ZM65.4531 46H67.7266V41.0234C67.7266 39.8594 68.375 39.1094 69.4297 39.1094C70.5078 39.1094 71.0156 39.7422 71.0156 40.9531V46H73.2891V40.4375C73.2891 38.3828 72.2578 37.2109 70.3438 37.2109C69.0703 37.2109 68.1953 37.8125 67.7969 38.7812H67.6562V37.3984H65.4531V46ZM80.6953 49.125C82.8438 49.125 83.8984 48.3594 84.6328 46.1641L87.6016 37.3984H85.1953L83.3828 43.9609H83.2422L81.4297 37.3984H78.9219L81.9453 46.0469L81.8672 46.375C81.6797 47.0703 81.1953 47.3516 80.3438 47.3516C80.25 47.3516 79.9062 47.3438 79.8281 47.3281V49.1016C79.9219 49.1172 80.6094 49.125 80.6953 49.125ZM92.6484 46.1797C95.2969 46.1797 96.8906 44.5078 96.8906 41.6953C96.8906 38.9062 95.2734 37.2109 92.6484 37.2109C90.0234 37.2109 88.4062 38.9141 88.4062 41.6953C88.4062 44.5 90 46.1797 92.6484 46.1797ZM92.6484 44.3828C91.4297 44.3828 90.7422 43.3984 90.7422 41.6953C90.7422 40.0078 91.4375 39.0156 92.6484 39.0156C93.8516 39.0156 94.5547 40.0078 94.5547 41.6953C94.5547 43.3984 93.8594 44.3828 92.6484 44.3828ZM106.547 37.3984H104.273V42.3672C104.273 43.5469 103.664 44.2734 102.531 44.2734C101.484 44.2734 100.945 43.6562 100.945 42.4375V37.3984H98.6719V43C98.6719 45 99.8281 46.1797 101.688 46.1797C102.992 46.1797 103.797 45.6172 104.203 44.6172H104.344V46H106.547V37.3984ZM108.828 46H111.102V41.1875C111.102 39.9766 111.953 39.2344 113.195 39.2344C113.562 39.2344 114.094 39.2969 114.273 39.3594V37.3594C114.078 37.2969 113.695 37.2578 113.383 37.2578C112.289 37.2578 111.398 37.9062 111.172 38.7656H111.031V37.3984H108.828V46ZM124.898 37.2578C123.711 37.2578 122.734 37.8438 122.266 38.8125H122.125V37.3984H119.922V48.8516H122.195V44.6875H122.336C122.758 45.5938 123.703 46.1328 124.938 46.1328C127.094 46.1328 128.414 44.4609 128.414 41.6953C128.414 38.9219 127.078 37.2578 124.898 37.2578ZM124.125 44.2969C122.922 44.2969 122.172 43.3125 122.172 41.7031C122.172 40.0938 122.922 39.1016 124.133 39.1016C125.344 39.1016 126.078 40.0781 126.078 41.6953C126.078 43.3203 125.352 44.2969 124.125 44.2969ZM132.625 46.1328C133.742 46.1328 134.68 45.6562 135.125 44.8594H135.266V46H137.469V40.125C137.469 38.2891 136.18 37.2109 133.898 37.2109C131.734 37.2109 130.273 38.2031 130.125 39.7812H132.219C132.406 39.2422 132.953 38.9531 133.773 38.9531C134.711 38.9531 135.227 39.3828 135.227 40.125V40.8359L133.141 40.9609C131 41.0859 129.805 41.9922 129.805 43.5469C129.805 45.1172 130.969 46.1328 132.625 46.1328ZM133.375 44.4688C132.586 44.4688 132.031 44.0703 132.031 43.4062C132.031 42.7734 132.508 42.4062 133.484 42.3438L135.227 42.2266V42.8672C135.227 43.7734 134.43 44.4688 133.375 44.4688ZM140.539 49.125C142.688 49.125 143.742 48.3594 144.477 46.1641L147.445 37.3984H145.039L143.227 43.9609H143.086L141.273 37.3984H138.766L141.789 46.0469L141.711 46.375C141.523 47.0703 141.039 47.3516 140.188 47.3516C140.094 47.3516 139.75 47.3438 139.672 47.3281V49.1016C139.766 49.1172 140.453 49.125 140.539 49.125ZM149.031 46H151.305V40.8125C151.305 39.8281 151.938 39.1094 152.828 39.1094C153.719 39.1094 154.25 39.6406 154.25 40.5625V46H156.438V40.7109C156.438 39.7812 157.031 39.1094 157.953 39.1094C158.914 39.1094 159.391 39.625 159.391 40.6641V46H161.664V40.0938C161.664 38.3203 160.594 37.2109 158.875 37.2109C157.672 37.2109 156.68 37.8438 156.281 38.7969H156.141C155.797 37.8125 154.969 37.2109 153.758 37.2109C152.625 37.2109 151.727 37.8125 151.375 38.7969H151.234V37.3984H149.031V46ZM169.445 43.5703C169.203 44.1562 168.586 44.4844 167.688 44.4844C166.5 44.4844 165.75 43.6641 165.719 42.3516V42.2344H171.633V41.5547C171.633 38.8359 170.133 37.2109 167.594 37.2109C165.031 37.2109 163.453 38.9453 163.453 41.7422C163.453 44.5234 165 46.1797 167.625 46.1797C169.734 46.1797 171.227 45.1719 171.562 43.5703H169.445ZM167.602 38.9062C168.664 38.9062 169.352 39.6406 169.398 40.8203H165.727C165.805 39.6641 166.547 38.9062 167.602 38.9062ZM173.5 46H175.773V41.0234C175.773 39.8594 176.422 39.1094 177.477 39.1094C178.555 39.1094 179.062 39.7422 179.062 40.9531V46H181.336V40.4375C181.336 38.3828 180.305 37.2109 178.391 37.2109C177.117 37.2109 176.242 37.8125 175.844 38.7812H175.703V37.3984H173.5V46ZM184.195 35.3438V37.4766H182.852V39.2031H184.195V43.6797C184.195 45.3516 185.023 46.0312 187.117 46.0312C187.555 46.0312 187.977 45.9844 188.258 45.9297V44.25C188.039 44.2734 187.883 44.2891 187.586 44.2891C186.812 44.2891 186.469 43.9297 186.469 43.1562V39.2031H188.258V37.4766H186.469V35.3438H184.195ZM197.367 46.1328C198.562 46.1328 199.539 45.5781 200 44.6484H200.141V46H202.344V34.1094H200.07V38.7734H199.938C199.492 37.8203 198.531 37.2578 197.367 37.2578C195.203 37.2578 193.859 38.9531 193.859 41.6875C193.859 44.4297 195.195 46.1328 197.367 46.1328ZM198.141 39.1016C199.352 39.1016 200.094 40.0938 200.094 41.7031C200.094 43.3125 199.359 44.2969 198.141 44.2969C196.922 44.2969 196.195 43.3203 196.195 41.6953C196.195 40.0781 196.93 39.1016 198.141 39.1016ZM210.273 43.5703C210.031 44.1562 209.414 44.4844 208.516 44.4844C207.328 44.4844 206.578 43.6641 206.547 42.3516V42.2344H212.461V41.5547C212.461 38.8359 210.961 37.2109 208.422 37.2109C205.859 37.2109 204.281 38.9453 204.281 41.7422C204.281 44.5234 205.828 46.1797 208.453 46.1797C210.562 46.1797 212.055 45.1719 212.391 43.5703H210.273ZM208.43 38.9062C209.492 38.9062 210.18 39.6406 210.227 40.8203H206.555C206.633 39.6641 207.375 38.9062 208.43 38.9062ZM214.977 35.3438V37.4766H213.633V39.2031H214.977V43.6797C214.977 45.3516 215.805 46.0312 217.898 46.0312C218.336 46.0312 218.758 45.9844 219.039 45.9297V44.25C218.82 44.2734 218.664 44.2891 218.367 44.2891C217.594 44.2891 217.25 43.9297 217.25 43.1562V39.2031H219.039V37.4766H217.25V35.3438H214.977ZM223.297 46.1328C224.414 46.1328 225.352 45.6562 225.797 44.8594H225.938V46H228.141V40.125C228.141 38.2891 226.852 37.2109 224.57 37.2109C222.406 37.2109 220.945 38.2031 220.797 39.7812H222.891C223.078 39.2422 223.625 38.9531 224.445 38.9531C225.383 38.9531 225.898 39.3828 225.898 40.125V40.8359L223.812 40.9609C221.672 41.0859 220.477 41.9922 220.477 43.5469C220.477 45.1172 221.641 46.1328 223.297 46.1328ZM224.047 44.4688C223.258 44.4688 222.703 44.0703 222.703 43.4062C222.703 42.7734 223.18 42.4062 224.156 42.3438L225.898 42.2266V42.8672C225.898 43.7734 225.102 44.4688 224.047 44.4688ZM231.531 36.0781C232.234 36.0781 232.812 35.5156 232.812 34.8125C232.812 34.1016 232.234 33.5391 231.531 33.5391C230.828 33.5391 230.242 34.1016 230.242 34.8125C230.242 35.5156 230.828 36.0781 231.531 36.0781ZM230.391 46H232.664V37.3984H230.391V46ZM235.047 46H237.32V34.1094H235.047V46ZM239.492 39.9062C239.492 41.2266 240.305 42.0156 241.977 42.3828L243.539 42.7344C244.297 42.9062 244.625 43.1719 244.625 43.6094C244.625 44.1797 244.016 44.5703 243.133 44.5703C242.227 44.5703 241.672 44.2188 241.5 43.625H239.281C239.438 45.25 240.812 46.1797 243.086 46.1797C245.344 46.1797 246.883 45.0703 246.883 43.3672C246.883 42.0859 246.133 41.3828 244.461 41.0156L242.844 40.6641C242.047 40.4844 241.68 40.2109 241.68 39.7734C241.68 39.2109 242.281 38.8281 243.094 38.8281C243.938 38.8281 244.461 39.1797 244.578 39.75H246.68C246.555 38.125 245.266 37.2109 243.078 37.2109C240.93 37.2109 239.492 38.2969 239.492 39.9062Z" fill="#3C4257"/>
<rect x="30" y="26" width="220" height="28" stroke="white" stroke-width="4"/>
<rect x="0.5" y="0.5" width="447" height="271" rx="7.5" stroke="#E3E8EE"/>
<defs>
<clipPath id="clip0">
<path d="M0 0H448V272H0V0Z" fill="white"/>
</clipPath>
</defs>
</svg>
