<?xml version="1.0" encoding="UTF-8"?>
<svg width="59px" height="17px" viewBox="0 0 59 17" version="1.1" xmlns="http://www.w3.org/2000/svg" xmlns:xlink="http://www.w3.org/1999/xlink">
    <!-- Generator: Sketch 59.1 (86144) - https://sketch.com -->
    <title>docs</title>
    <desc>Created with Sketch.</desc>
    <g id="Overviews" stroke="none" stroke-width="1" fill="none" fill-rule="evenodd">
        <g id="Home" transform="translate(-140.000000, -23.000000)" fill="#556CD6">
            <g id="nav-global">
                <g id="Group-13">
                    <g transform="translate(72.000000, 18.943803)">
                        <path d="M91.2674476,4.93737762 C95.5317832,4.93737762 98.5406119,8.14104895 98.5406119,12.6434965 C98.5406119,17.1459441 95.5317832,20.3496154 91.2674476,20.3496154 C87.0031119,20.3496154 83.9941958,17.1459441 83.9941958,12.6434965 C83.9941958,8.14104895 87.0031119,4.93737762 91.2674476,4.93737762 Z M108.821932,4.93736014 C110.272281,4.93736014 111.722544,5.30536713 113.107858,6.0197028 L113.107858,8.57398601 C111.83076,7.77302448 110.510306,7.31847902 109.298156,7.31847902 C106.419222,7.31847902 104.427614,9.50475524 104.427614,12.643479 C104.427614,15.7605245 106.419222,17.968479 109.298156,17.968479 C110.510306,17.968479 111.83076,17.5139336 113.107858,16.7130594 L113.107858,19.2673427 C111.722544,19.9815909 110.272281,20.3495979 108.821932,20.3495979 C104.535918,20.3495979 101.505411,17.1459266 101.505411,12.643479 C101.505411,8.14103147 104.535918,4.93736014 108.821932,4.93736014 Z M121.549406,4.9373514 C122.86986,4.9373514 124.233584,5.21881993 125.554038,5.75990385 L125.554038,8.33586538 C124.298444,7.57826049 122.978077,7.2102535 121.744248,7.2102535 C120.164091,7.2102535 119.06007,8.01112762 119.06007,9.20168706 C119.06007,12.1672465 126.290052,10.673715 126.290052,15.9120892 C126.290052,18.5313199 124.038741,20.3495892 120.878339,20.3495892 C119.449755,20.3495892 117.956136,20.0249388 116.527465,19.3538724 L116.527465,16.7346416 C117.912867,17.6221416 119.319773,18.0767745 120.683584,18.0767745 C122.328689,18.0767745 123.454301,17.2108654 123.454301,15.9554458 C123.454301,12.9032605 116.224406,14.3968794 116.224406,9.24495629 C116.224406,6.69076049 118.410682,4.9373514 121.549406,4.9373514 Z M73.7129895,5.19712413 C77.9773252,5.19712413 81.0078322,8.29257867 81.0078322,12.6435402 C81.0078322,16.9944143 77.9773252,20.0898689 73.7129895,20.0898689 L68.323042,20.0898689 L68.323042,5.19712413 L73.7129895,5.19712413 Z M91.2674476,7.3184965 C88.691486,7.3184965 86.916486,9.52645105 86.916486,12.6434965 C86.916486,15.760542 88.691486,17.9684965 91.2674476,17.9684965 C93.8433217,17.9684965 95.6183217,15.760542 95.6183217,12.6434965 C95.6183217,9.52645105 93.8433217,7.3184965 91.2674476,7.3184965 Z M73.5614161,7.51329545 L71.137028,7.51329545 L71.137028,17.7736976 L73.5614161,17.7736976 C76.2455944,17.7736976 78.1071329,15.6739598 78.1071329,12.6435402 C78.1071329,9.61303322 76.2455944,7.51329545 73.5614161,7.51329545 Z" id="docs"></path>
                    </g>
                </g>
            </g>
        </g>
    </g>
</svg>
