<?xml version="1.0" encoding="UTF-8"?>
<svg width="24px" height="23px" viewBox="0 0 24 23" version="1.1" xmlns="http://www.w3.org/2000/svg" xmlns:xlink="http://www.w3.org/1999/xlink" class="fill-current">
    <defs></defs>
    <g stroke="none" stroke-width="1" fill="none" fill-rule="evenodd">
        <g transform="translate(-1111.000000, -26.000000)" fill="#6C88A9">
            <path d="M1122.99889,26 C1116.37328,26 1111,31.2789836 1111,37.7913948 C1111,43.0008895 1114.43804,47.4199482 1119.20651,48.979105 C1119.8069,49.0876814 1120.02569,48.7235886 1120.02569,48.4108886 C1120.02569,48.1314854 1120.01538,47.3895468 1120.00948,46.4058448 C1116.67163,47.1181058 1115.96737,44.8249727 1115.96737,44.8249727 C1115.4215,43.4627011 1114.63473,43.1000559 1114.63473,43.1000559 C1113.5452,42.368975 1114.71724,42.3834518 1114.71724,42.3834518 C1115.9217,42.4666937 1116.55523,43.5987834 1116.55523,43.5987834 C1117.62562,45.4004275 1119.36416,44.8799847 1120.04779,44.5781424 C1120.15682,43.81666 1120.46696,43.2969411 1120.80951,43.0023372 C1118.14497,42.7048379 1115.34341,41.6929061 1115.34341,37.174681 C1115.34341,35.887689 1115.8112,34.8344981 1116.57881,34.0107653 C1116.45505,33.7125422 1116.04325,32.5131351 1116.69668,30.8902801 C1116.69668,30.8902801 1117.7037,30.5732371 1119.99622,32.0990972 C1120.95316,31.8370662 1121.98008,31.7067745 1123.00037,31.7017076 C1124.01992,31.7067745 1125.0461,31.8370662 1126.00451,32.0990972 C1128.29556,30.5732371 1129.30111,30.8902801 1129.30111,30.8902801 C1129.95601,32.5131351 1129.54422,33.7125422 1129.42119,34.0107653 C1130.19028,34.8344981 1130.65438,35.887689 1130.65438,37.174681 C1130.65438,41.7044875 1127.8484,42.7012187 1125.17576,42.9929272 C1125.60597,43.35702 1125.98978,44.0765195 1125.98978,45.1767602 C1125.98978,46.7525654 1125.97505,48.0243567 1125.97505,48.4108886 C1125.97505,48.7264839 1126.19163,49.0934721 1126.80012,48.9783811 C1131.5649,47.4156051 1135,42.9994418 1135,37.7913948 C1135,31.2789836 1129.62672,26 1122.99889,26" id="Fill-3"></path>
        </g>
    </g>
</svg>
