<svg xmlns="http://www.w3.org/2000/svg" width="92" height="262" viewBox="0 0 92 262">
  <g fill="none" fill-rule="evenodd" transform="translate(1 1)">
    <g stroke="#E3E8EE" stroke-width="1.676">
      <path stroke-linecap="round" stroke-linejoin="round" d="M74.5904762,259.809524 L74.5904762,109.17107 C74.5904762,102.48521 69.7361277,97.0652498 63.7479854,97.0652498 L51.2791209,97.0652498 L5.86666667,97.0652498" transform="matrix(1 0 0 -1 0 356.875)"/>
      <circle cx="5.448" cy="5.448" r="5.448" fill="#FFF" fill-rule="nonzero" transform="matrix(1 0 0 -1 0 10.895)"/>
      <path stroke-linecap="round" stroke-linejoin="round" d="M74.5904762,75.325602 L74.5904762,16.2328943 C74.5904762,10.0449176 69.7361277,5.02857143 63.7479854,5.02857143 L51.2791209,5.02857143 L15.9238095,5.02857143"/>
    </g>
    <g fill-rule="nonzero" transform="translate(59 71)">
      <circle cx="15.893" cy="15.893" r="15.893" fill="#688EF1"/>
      <path fill="#FFF" d="M16.0809524,24.3086419 C16.2206349,24.3086419 16.4388889,24.256261 16.6571428,24.142769 C21.6246032,21.5411816 23.2222222,20.240388 23.2222222,17.106261 L23.2222222,10.5237214 C23.2222222,9.62451497 22.8380952,9.33641974 22.1047619,9.03086422 C21.0833333,8.6118166 17.818254,7.42451502 16.8055555,7.07530867 C16.5698412,6.9967372 16.3253969,6.95308642 16.0809524,6.95308642 C15.836508,6.95308642 15.5920635,7.0054674 15.3650794,7.07530867 C14.3436508,7.40705467 11.0785714,8.62054675 10.0571429,9.03086422 C9.33253967,9.32768959 8.93968254,9.62451497 8.93968254,10.5237214 L8.93968254,17.106261 C8.93968254,20.240388 10.6246032,21.392769 15.5047619,24.142769 C15.731746,24.2649911 15.9412698,24.3086419 16.0809524,24.3086419 Z M15.1380953,19.9697531 C14.8412698,19.9697531 14.6055556,19.8388007 14.3611111,19.5419753 L11.8468254,16.4340388 C11.7071428,16.2681658 11.6285714,16.058642 11.6285714,15.8665785 C11.6285714,15.456261 11.9515873,15.1419753 12.3444445,15.1419753 C12.5888889,15.1419753 12.8071429,15.238007 13.0079365,15.5086419 L15.1031746,18.2062611 L19.1539682,11.7022928 C19.3198413,11.4316579 19.5555556,11.3007054 19.7825397,11.3007054 C20.1666667,11.3007054 20.5333333,11.55388 20.5333333,11.9729277 C20.5333333,12.1649912 20.4198413,12.374515 20.3150793,12.5491182 L15.8714285,19.5419753 C15.679365,19.8300706 15.4349206,19.9697531 15.1380953,19.9697531 Z"/>
    </g>
  </g>
</svg>
