<svg xmlns="http://www.w3.org/2000/svg" width="11" height="11" viewBox="0 0 11 11">
  <path fill="#1A2652" fill-rule="evenodd" d="M5.5,0 C8.53756612,0 11,2.46243388 11,5.5 C11,8.53756612 8.53756612,11 5.5,11 C2.46243388,11 0,8.53756612 0,5.5 C0,2.46243388 2.46243388,0 5.5,0 Z M5.5,7.5625 C4.93045635,7.5625 4.46875,8.02420635 4.46875,8.59375 C4.46875,9.16329365 4.93045635,9.625 5.5,9.625 C6.06954365,9.625 6.53125,9.16329365 6.53125,8.59375 C6.53125,8.02420635 6.06954365,7.5625 5.5,7.5625 Z M5.49807474,1.375 C4.86623775,1.37677153 4.25346692,1.62483196 3.79852457,2.07977434 C3.33431644,2.54398249 3.08756833,3.14888611 3.09386768,3.78805398 C3.0976254,4.16933403 3.40976018,4.47537635 3.79104021,4.47161863 C4.17232025,4.4678609 4.47836255,4.15572611 4.47460483,3.77444606 C4.47195875,3.50596039 4.57314228,3.25790872 4.77490058,3.05615041 C4.96844666,2.86260432 5.23038856,2.75656562 5.50192556,2.75580834 C5.77208712,2.75505491 6.02792877,2.85897945 6.22509972,3.05615041 C6.62556116,3.45661186 6.62556116,4.10588817 6.22509972,4.50634963 C6.13527013,4.59617922 6.03389625,4.66648929 5.92403863,4.71656626 C5.79225316,4.77663872 5.64893616,4.80719574 5.50238485,4.80668954 C5.12108857,4.8053725 4.8109192,5.11340656 4.80960217,5.49470286 C4.80952512,5.51700945 4.81050682,5.53907262 4.8125,5.56084475 L4.8125,5.56084475 L4.8125,5.84375 C4.8125,6.22344577 5.12030423,6.53125 5.5,6.53125 C5.78791235,6.53125 6.03448886,6.35427021 6.13687463,6.10316552 C6.25973643,6.06962889 6.38007597,6.02618268 6.49676212,5.97299303 C6.75676621,5.85447401 6.99486842,5.68933302 7.20147574,5.48272569 C8.14117475,4.54302662 8.14117475,3.01947341 7.20147574,2.07977434 C6.74246662,1.6207652 6.13310472,1.37323844 5.49807474,1.375 Z"/>
</svg>
