<svg xmlns="http://www.w3.org/2000/svg" viewBox="0 0 270 56" enable-background="new 0 0 270 56"><path fill="#2e2e2e" d="M82.9 36.8h11.2v4.2h-16.5v-25.6h5.3v21.4zm24.9 4.2c-.2-.5-.4-1-.5-1.7-1.2 1.4-2.8 2.1-4.8 2.1-1.9 0-3.4-.5-4.6-1.6-1.2-1.1-1.8-2.4-1.8-4.1 0-2 .7-3.6 2.2-4.6 1.5-1.1 3.7-1.6 6.5-1.6h2.3v-1.1c0-.9-.2-1.6-.7-2.1-.4-.5-1.2-.8-2.1-.8-.9 0-1.5.2-2 .6-.5.4-.7 1-.7 1.7h-5.1c0-1.1.3-2.1 1-3.1.7-.9 1.6-1.7 2.9-2.2 1.2-.5 2.6-.8 4.2-.8 2.3 0 4.2.6 5.6 1.8 1.4 1.2 2.1 2.8 2.1 5v8.2c0 1.8.3 3.2.8 4.1v.2h-5.3zm-4.2-3.5c.8 0 1.4-.2 2.1-.5.6-.3 1.1-.8 1.4-1.3v-3.3h-1.9c-2.5 0-3.9.9-4.1 2.6v.3c0 .6.2 1.2.7 1.6.4.4 1 .6 1.8.6zm23.2-10.8c-.7-.1-1.3-.1-1.8-.1-1.9 0-3.2.6-3.8 2v12.4h-5.1v-19h4.8l.1 2.3c1-1.7 2.4-2.6 4.2-2.6.6 0 1.1.1 1.6.2v4.8zm12.9 14.3c-.2-.5-.4-1-.5-1.7-1.2 1.4-2.8 2.1-4.8 2.1-1.9 0-3.4-.5-4.6-1.6-1.2-1.1-1.8-2.4-1.8-4.1 0-2 .7-3.6 2.2-4.6 1.5-1.1 3.7-1.6 6.5-1.6h2.3v-1.1c0-.9-.2-1.6-.7-2.1-.4-.5-1.2-.8-2.1-.8-.9 0-1.5.2-2 .6-.5.4-.7 1-.7 1.7h-5.1c0-1.1.3-2.1 1-3.1.7-.9 1.6-1.7 2.9-2.2 1.2-.5 2.6-.8 4.2-.8 2.3 0 4.2.6 5.6 1.8 1.4 1.2 2.1 2.8 2.1 5v8.2c0 1.8.3 3.2.8 4.1v.2h-5.3zm-4.2-3.5c.8 0 1.4-.2 2.1-.5.6-.3 1.1-.8 1.4-1.3v-3.3h-1.9c-2.5 0-3.9.9-4.1 2.6v.3c0 .6.2 1.2.7 1.6.4.4 1 .6 1.8.6zm19.3-2.7l3.5-12.8h5.3l-6.4 19h-4.9l-6.3-19h5.3l3.5 12.8zm19.6 6.6c-2.8 0-5.1-.9-6.8-2.6-1.8-1.7-2.6-4-2.6-6.8v-.5c0-1.9.4-3.6 1.1-5.1.7-1.5 1.8-2.7 3.1-3.5 1.4-.8 2.9-1.2 4.6-1.2 2.6 0 4.6.8 6.1 2.5 1.5 1.6 2.2 4 2.2 7v2.1h-12.1c.2 1.2.7 2.2 1.5 3 .8.8 1.9 1.1 3.1 1.1 2 0 3.5-.7 4.6-2.1l2.5 2.8c-.8 1.1-1.8 1.9-3.1 2.5-1.1.5-2.6.8-4.2.8zm-.5-15.7c-1 0-1.8.3-2.5 1s-1 1.7-1.2 2.9h7.1v-.4c0-1.1-.3-2-.9-2.6s-1.5-.9-2.5-.9zm16.6 15.3h-5.1v-27h5.1v27zM220 41h-17.1v-1.3l14.4-21.7h-13.8v-1.6h16.1v1.3l-14.5 21.8h14.9v1.5zM231.2 41.4c-2.7 0-4.7-.8-6.2-2.5-1.5-1.6-2.2-3.9-2.2-6.9 0-2.9.7-5.3 2.2-7 1.4-1.8 3.4-2.6 5.8-2.6 2.2 0 3.9.8 5.1 2.3 1.2 1.5 1.9 3.6 1.9 6.1v1.3h-13.2c0 2.5.6 4.4 1.8 5.8 1.2 1.3 2.8 2 5 2 1 0 2-.1 2.8-.2.8-.1 1.8-.5 3-.9v1.5c-1 .4-2 .8-2.9.9-1.1.1-2 .2-3.1.2zm-.5-17.6c-1.8 0-3.2.6-4.3 1.7-1.1 1.2-1.7 2.8-1.9 5h11.3c0-2.1-.5-3.8-1.4-5-.8-1.1-2-1.7-3.7-1.7zM249.3 22.3c.8 0 1.6.1 2.5.2l-.3 1.6c-.8-.2-1.6-.3-2.4-.3-1.6 0-2.8.7-3.8 2s-1.5 3-1.5 5v10.2h-1.7v-18.3h1.4l.2 3.3h.1c.8-1.3 1.6-2.3 2.4-2.8.9-.6 1.9-.9 3.1-.9zM270 31.8c0 3-.7 5.3-2.2 7-1.4 1.7-3.5 2.5-6 2.5-1.6 0-3-.4-4.3-1.2-1.2-.8-2.2-1.9-2.8-3.3-.7-1.4-1-3.1-1-5 0-3 .7-5.3 2.2-7 1.5-1.7 3.4-2.5 6-2.5 2.5 0 4.5.8 5.9 2.5 1.5 1.8 2.2 4.1 2.2 7zm-14.5 0c0 2.5.6 4.5 1.7 5.9 1.1 1.4 2.7 2.1 4.7 2.1s3.6-.7 4.7-2.1c1.1-1.4 1.7-3.4 1.7-5.9 0-2.5-.6-4.5-1.7-5.9-1.1-1.4-2.7-2.1-4.7-2.1s-3.6.7-4.7 2.1c-1.1 1.4-1.7 3.4-1.7 5.9z"/><linearGradient id="SVGID_1_" gradientUnits="userSpaceOnUse" x1="28" x2="28" y2="56"><stop offset="0" stop-color="#68bf66"/><stop offset="1" stop-color="#42b257"/></linearGradient><path fill="url(#SVGID_1_)" d="M48 13.4l8-8v-1.4c0-2.2-1.8-4-4-4h-48c-2.2 0-4 1.8-4 4v38.6l8-8v-26.6h34.6l-26.6 26.6-8 8-8 8v1.4c0 2.2 1.8 4 4 4h48c2.2 0 4-1.8 4-4v-38.6l-8 8v26.6h-34.6l19.9-19.9 14.7-14.7z"/></svg>
