<svg width="769" height="384" viewBox="0 0 769 384" fill="none" xmlns="http://www.w3.org/2000/svg">
<g clip-path="url(#clip0)">
<rect width="769" height="384" fill="white"/>
<path d="M0 0L769 -6.72281e-05" stroke="#E3E8EE" stroke-width="2" stroke-linecap="round" stroke-linejoin="round" stroke-dasharray="0.01 16"/>
<path d="M0 16L769 15.9999" stroke="#E3E8EE" stroke-width="2" stroke-linecap="round" stroke-linejoin="round" stroke-dasharray="0.01 16"/>
<path d="M0 32L769 31.9999" stroke="#E3E8EE" stroke-width="2" stroke-linecap="round" stroke-linejoin="round" stroke-dasharray="0.01 16"/>
<path d="M0 48L769 47.9999" stroke="#E3E8EE" stroke-width="2" stroke-linecap="round" stroke-linejoin="round" stroke-dasharray="0.01 16"/>
<path d="M0 64L769 63.9999" stroke="#E3E8EE" stroke-width="2" stroke-linecap="round" stroke-linejoin="round" stroke-dasharray="0.01 16"/>
<path d="M0 80L769 79.9999" stroke="#E3E8EE" stroke-width="2" stroke-linecap="round" stroke-linejoin="round" stroke-dasharray="0.01 16"/>
<path d="M0 96L769 95.9999" stroke="#E3E8EE" stroke-width="2" stroke-linecap="round" stroke-linejoin="round" stroke-dasharray="0.01 16"/>
<path d="M0 112L769 112" stroke="#E3E8EE" stroke-width="2" stroke-linecap="round" stroke-linejoin="round" stroke-dasharray="0.01 16"/>
<path d="M0 128L769 128" stroke="#E3E8EE" stroke-width="2" stroke-linecap="round" stroke-linejoin="round" stroke-dasharray="0.01 16"/>
<path d="M0 144L769 144" stroke="#E3E8EE" stroke-width="2" stroke-linecap="round" stroke-linejoin="round" stroke-dasharray="0.01 16"/>
<path d="M0 160L769 160" stroke="#E3E8EE" stroke-width="2" stroke-linecap="round" stroke-linejoin="round" stroke-dasharray="0.01 16"/>
<path d="M0 176L769 176" stroke="#E3E8EE" stroke-width="2" stroke-linecap="round" stroke-linejoin="round" stroke-dasharray="0.01 16"/>
<path d="M0 192L769 192" stroke="#E3E8EE" stroke-width="2" stroke-linecap="round" stroke-linejoin="round" stroke-dasharray="0.01 16"/>
<path d="M0 208L769 208" stroke="#E3E8EE" stroke-width="2" stroke-linecap="round" stroke-linejoin="round" stroke-dasharray="0.01 16"/>
<path d="M0 224L769 224" stroke="#E3E8EE" stroke-width="2" stroke-linecap="round" stroke-linejoin="round" stroke-dasharray="0.01 16"/>
<path d="M0 240L769 240" stroke="#E3E8EE" stroke-width="2" stroke-linecap="round" stroke-linejoin="round" stroke-dasharray="0.01 16"/>
<path d="M0 256L769 256" stroke="#E3E8EE" stroke-width="2" stroke-linecap="round" stroke-linejoin="round" stroke-dasharray="0.01 16"/>
<path d="M0 272L769 272" stroke="#E3E8EE" stroke-width="2" stroke-linecap="round" stroke-linejoin="round" stroke-dasharray="0.01 16"/>
<path d="M0 288L769 288" stroke="#E3E8EE" stroke-width="2" stroke-linecap="round" stroke-linejoin="round" stroke-dasharray="0.01 16"/>
<path d="M0 304L769 304" stroke="#E3E8EE" stroke-width="2" stroke-linecap="round" stroke-linejoin="round" stroke-dasharray="0.01 16"/>
<path d="M0 320L769 320" stroke="#E3E8EE" stroke-width="2" stroke-linecap="round" stroke-linejoin="round" stroke-dasharray="0.01 16"/>
<path d="M0 336L769 336" stroke="#E3E8EE" stroke-width="2" stroke-linecap="round" stroke-linejoin="round" stroke-dasharray="0.01 16"/>
<path d="M0 352L769 352" stroke="#E3E8EE" stroke-width="2" stroke-linecap="round" stroke-linejoin="round" stroke-dasharray="0.01 16"/>
<path d="M0 368L769 368" stroke="#E3E8EE" stroke-width="2" stroke-linecap="round" stroke-linejoin="round" stroke-dasharray="0.01 16"/>
<path d="M0 384L769 384" stroke="#E3E8EE" stroke-width="2" stroke-linecap="round" stroke-linejoin="round" stroke-dasharray="0.01 16"/>
<rect x="0.5" y="0.5" width="768" height="383" stroke="white"/>
</g>
<rect x="32" y="32" width="236" height="192" rx="16" fill="#F7FAFC"/>
<rect x="27" y="27" width="246" height="202" rx="21" stroke="white" stroke-width="10"/>
<rect x="42" y="42" width="140" height="76" rx="14" fill="white"/>
<path d="M89.002 67.5449V76H90.7715V73.334H92.4414C94.2227 73.334 95.459 72.1738 95.459 70.4512C95.459 68.7051 94.2695 67.5449 92.5293 67.5449H89.002ZM90.7715 68.9512H92.0605C93.0801 68.9512 93.6602 69.4727 93.6602 70.457C93.6602 71.418 93.0684 71.9453 92.0547 71.9453H90.7715V68.9512ZM96.918 76H98.623V72.3906C98.623 71.4824 99.2617 70.9258 100.193 70.9258C100.469 70.9258 100.867 70.9727 101.002 71.0195V69.5195C100.855 69.4727 100.568 69.4434 100.334 69.4434C99.5137 69.4434 98.8457 69.9297 98.6758 70.5742H98.5703V69.5488H96.918V76ZM104.857 76.1348C106.844 76.1348 108.039 74.8809 108.039 72.7715C108.039 70.6797 106.826 69.4082 104.857 69.4082C102.889 69.4082 101.676 70.6855 101.676 72.7715C101.676 74.875 102.871 76.1348 104.857 76.1348ZM104.857 74.7871C103.943 74.7871 103.428 74.0488 103.428 72.7715C103.428 71.5059 103.949 70.7617 104.857 70.7617C105.76 70.7617 106.287 71.5059 106.287 72.7715C106.287 74.0488 105.766 74.7871 104.857 74.7871ZM111.748 76.0996C112.645 76.0996 113.377 75.6836 113.723 74.9863H113.828V76H115.48V67.082H113.775V70.5801H113.676C113.342 69.8652 112.621 69.4434 111.748 69.4434C110.125 69.4434 109.117 70.7148 109.117 72.7656C109.117 74.8223 110.119 76.0996 111.748 76.0996ZM112.328 70.8262C113.236 70.8262 113.793 71.5703 113.793 72.7773C113.793 73.9844 113.242 74.7227 112.328 74.7227C111.414 74.7227 110.869 73.9902 110.869 72.7715C110.869 71.5586 111.42 70.8262 112.328 70.8262ZM123.098 69.5488H121.393V73.2754C121.393 74.1602 120.936 74.7051 120.086 74.7051C119.301 74.7051 118.896 74.2422 118.896 73.3281V69.5488H117.191V73.75C117.191 75.25 118.059 76.1348 119.453 76.1348C120.432 76.1348 121.035 75.7129 121.34 74.9629H121.445V76H123.098V69.5488ZM130.527 71.7988C130.387 70.3574 129.361 69.4082 127.65 69.4082C125.629 69.4082 124.492 70.6328 124.492 72.7598C124.492 74.9102 125.635 76.1348 127.65 76.1348C129.332 76.1348 130.387 75.209 130.527 73.791H128.934C128.805 74.4355 128.348 74.7812 127.65 74.7812C126.736 74.7812 126.215 74.0605 126.215 72.7598C126.215 71.4766 126.73 70.7676 127.65 70.7676C128.377 70.7676 128.816 71.1777 128.934 71.7988H130.527ZM132.408 68.0078V69.6074H131.4V70.9023H132.408V74.2598C132.408 75.5137 133.029 76.0234 134.6 76.0234C134.928 76.0234 135.244 75.9883 135.455 75.9473V74.6875C135.291 74.7051 135.174 74.7168 134.951 74.7168C134.371 74.7168 134.113 74.4473 134.113 73.8672V70.9023H135.455V69.6074H134.113V68.0078H132.408ZM90.1445 85.5371C89.2363 85.5371 88.5742 85.9121 88.2402 86.6152H88.1348V85.6426H87.1504V94.1445H88.1641V91.0156H88.2754C88.5508 91.7129 89.2246 92.1055 90.1445 92.1055C91.6152 92.1055 92.5762 91.0449 92.5762 89.416V88.2324C92.5762 86.5977 91.6152 85.5371 90.1445 85.5371ZM89.8574 86.4512C90.9062 86.4512 91.5742 87.2012 91.5742 88.373V89.2871C91.5742 90.459 90.9062 91.2148 89.8574 91.2148C88.8086 91.2148 88.1406 90.4648 88.1406 89.2871V88.373C88.1406 87.2012 88.8086 86.4512 89.8574 86.4512ZM96.9121 89.1523C96.9121 87.5352 97.7441 86.5625 99.1504 86.5625C99.4961 86.5625 99.9062 86.6328 100.199 86.7383V85.6191C99.9883 85.5312 99.6426 85.4785 99.2793 85.4785C98.0547 85.4785 97.2637 86.0879 97.0293 87.2656H96.9004V85.6426H94.5273V86.4395H95.9395V91.2031H94.6562V92H98.8809V91.2031H96.9121V89.1523ZM106.299 90.3594C106.123 90.916 105.531 91.2559 104.729 91.2559C103.645 91.2559 102.953 90.5059 102.953 89.3398V89.082H107.283V88.4609C107.283 86.6211 106.311 85.5254 104.658 85.5254C103.041 85.5254 101.969 86.627 101.969 88.3027V89.2578C101.969 91.0684 102.982 92.1172 104.729 92.1172C106.064 92.1172 107.072 91.4082 107.266 90.3594H106.299ZM104.652 86.3809C105.678 86.3809 106.299 87.1133 106.299 88.3262H102.953C102.953 87.1074 103.592 86.3809 104.652 86.3809ZM115.064 87.3184C115.064 86.1406 114.602 85.5254 113.717 85.5254C113.078 85.5254 112.568 85.9121 112.404 86.5215H112.299C112.164 85.8945 111.742 85.5254 111.145 85.5254C110.547 85.5254 110.09 85.9004 109.932 86.5391H109.826V85.6426H108.936V92H109.832V87.7109C109.832 86.9199 110.184 86.4336 110.746 86.4336C111.285 86.4336 111.566 86.8379 111.566 87.6055V92H112.457V87.7109C112.457 86.9199 112.797 86.4336 113.354 86.4336C113.887 86.4336 114.168 86.8379 114.168 87.6113V92H115.064V87.3184ZM119.529 84.084C119.998 84.084 120.355 83.7324 120.355 83.2637C120.355 82.8008 119.998 82.4492 119.529 82.4492C119.061 82.4492 118.703 82.8008 118.703 83.2637C118.703 83.7324 119.061 84.084 119.529 84.084ZM122.195 92V91.1738H120.092V85.6426H116.945V86.4688H119.107V91.1738H116.928V92H122.195ZM129.438 85.6426H128.441V89.3867C128.441 90.4707 127.738 91.2031 126.689 91.2031C125.699 91.2031 125.23 90.6641 125.23 89.5156V85.6426H124.234V89.7676C124.234 91.291 124.984 92.1172 126.367 92.1172C127.334 92.1172 128.061 91.6719 128.4 90.8809H128.482V92H129.438V85.6426ZM137.318 87.3184C137.318 86.1406 136.855 85.5254 135.971 85.5254C135.332 85.5254 134.822 85.9121 134.658 86.5215H134.553C134.418 85.8945 133.996 85.5254 133.398 85.5254C132.801 85.5254 132.344 85.9004 132.186 86.5391H132.08V85.6426H131.189V92H132.086V87.7109C132.086 86.9199 132.438 86.4336 133 86.4336C133.539 86.4336 133.82 86.8379 133.82 87.6055V92H134.711V87.7109C134.711 86.9199 135.051 86.4336 135.607 86.4336C136.141 86.4336 136.422 86.8379 136.422 87.6113V92H137.318V87.3184Z" fill="#3C4257"/>
<rect x="48.5" y="48.5" width="127" height="63" rx="7.5" stroke="#E3E8EE"/>
<rect x="42" y="42" width="140" height="76" rx="14" stroke="#F7FAFC" stroke-width="12"/>
<rect x="90" y="138" width="168" height="76" rx="14" fill="white"/>
<path d="M159.51 163.545V172H161.279V169.375H162.949C164.73 169.375 165.967 168.209 165.967 166.469C165.967 164.711 164.777 163.545 163.037 163.545H159.51ZM161.279 164.998H162.568C163.588 164.998 164.168 165.514 164.168 166.475C164.168 167.424 163.576 167.939 162.562 167.939H161.279V164.998ZM167.426 172H169.131V168.42C169.131 167.512 169.77 166.961 170.701 166.961C170.977 166.961 171.375 167.014 171.51 167.066V165.514C171.363 165.461 171.076 165.432 170.842 165.432C170.021 165.432 169.354 165.924 169.184 166.568H169.078V165.537H167.426V172ZM172.664 172H174.369V165.537H172.664V172ZM173.52 164.57C174.053 164.57 174.486 164.137 174.486 163.592C174.486 163.047 174.053 162.619 173.52 162.619C172.992 162.619 172.553 163.047 172.553 163.592C172.553 164.137 172.992 164.57 173.52 164.57ZM181.816 167.816C181.676 166.346 180.65 165.396 178.939 165.396C176.918 165.396 175.781 166.609 175.781 168.754C175.781 170.922 176.924 172.141 178.939 172.141C180.621 172.141 181.676 171.209 181.816 169.762H180.223C180.094 170.4 179.637 170.74 178.939 170.74C178.025 170.74 177.504 170.043 177.504 168.754C177.504 167.482 178.02 166.797 178.939 166.797C179.666 166.797 180.105 167.201 180.223 167.816H181.816ZM185.947 166.703C186.744 166.703 187.26 167.236 187.295 168.092H184.541C184.6 167.254 185.156 166.703 185.947 166.703ZM187.33 170.16C187.148 170.588 186.686 170.828 186.012 170.828C185.121 170.828 184.559 170.23 184.535 169.27V169.182H188.971V168.66C188.971 166.609 187.846 165.396 185.941 165.396C184.02 165.396 182.836 166.697 182.836 168.801C182.836 170.898 183.996 172.141 185.965 172.141C187.547 172.141 188.666 171.373 188.918 170.16H187.33ZM114.404 185.152C114.404 183.535 115.236 182.562 116.643 182.562C116.988 182.562 117.398 182.633 117.691 182.738V181.619C117.48 181.531 117.135 181.479 116.771 181.479C115.547 181.479 114.756 182.088 114.521 183.266H114.393V181.643H112.02V182.439H113.432V187.203H112.148V188H116.373V187.203H114.404V185.152ZM123.791 186.359C123.615 186.916 123.023 187.256 122.221 187.256C121.137 187.256 120.445 186.506 120.445 185.34V185.082H124.775V184.461C124.775 182.621 123.803 181.525 122.15 181.525C120.533 181.525 119.461 182.627 119.461 184.303V185.258C119.461 187.068 120.475 188.117 122.221 188.117C123.557 188.117 124.564 187.408 124.758 186.359H123.791ZM122.145 182.381C123.17 182.381 123.791 183.113 123.791 184.326H120.445C120.445 183.107 121.084 182.381 122.145 182.381ZM132.141 183.623C131.977 182.316 131.016 181.52 129.609 181.52C127.881 181.52 126.873 182.58 126.873 184.402V185.234C126.873 187.057 127.881 188.117 129.609 188.117C131.016 188.117 131.982 187.326 132.141 186.031H131.156C131.033 186.758 130.412 187.221 129.592 187.221C128.484 187.221 127.869 186.471 127.869 185.105V184.531C127.869 183.166 128.484 182.41 129.592 182.41C130.412 182.41 131.033 182.879 131.156 183.623H132.141ZM139.512 181.643H138.516V185.387C138.516 186.471 137.812 187.203 136.764 187.203C135.773 187.203 135.305 186.664 135.305 185.516V181.643H134.309V185.768C134.309 187.291 135.059 188.117 136.441 188.117C137.408 188.117 138.135 187.672 138.475 186.881H138.557V188H139.512V181.643ZM144.076 185.152C144.076 183.535 144.908 182.562 146.314 182.562C146.66 182.562 147.07 182.633 147.363 182.738V181.619C147.152 181.531 146.807 181.479 146.443 181.479C145.219 181.479 144.428 182.088 144.193 183.266H144.064V181.643H141.691V182.439H143.104V187.203H141.82V188H146.045V187.203H144.076V185.152ZM151.494 185.152C151.494 183.535 152.326 182.562 153.732 182.562C154.078 182.562 154.488 182.633 154.781 182.738V181.619C154.57 181.531 154.225 181.479 153.861 181.479C152.637 181.479 151.846 182.088 151.611 183.266H151.482V181.643H149.109V182.439H150.521V187.203H149.238V188H153.463V187.203H151.494V185.152ZM159.275 180.084C159.744 180.084 160.102 179.732 160.102 179.264C160.102 178.801 159.744 178.449 159.275 178.449C158.807 178.449 158.449 178.801 158.449 179.264C158.449 179.732 158.807 180.084 159.275 180.084ZM161.941 188V187.174H159.838V181.643H156.691V182.469H158.854V187.174H156.674V188H161.941ZM163.98 188H164.977V184.256C164.977 183.172 165.68 182.439 166.729 182.439C167.719 182.439 168.188 182.979 168.188 184.127V188H169.184V183.875C169.184 182.352 168.434 181.525 167.051 181.525C166.084 181.525 165.357 181.971 165.018 182.762H164.936V181.643H163.98V188ZM173.812 190.385C175.535 190.385 176.555 189.494 176.555 188V181.643H175.57V182.627H175.459C175.184 181.941 174.486 181.537 173.566 181.537C172.078 181.537 171.105 182.592 171.105 184.227V185.369C171.105 186.998 172.072 188.059 173.543 188.059C174.469 188.059 175.172 187.654 175.453 186.986H175.559V187.977C175.559 188.996 174.943 189.559 173.83 189.559C172.98 189.559 172.342 189.213 172.213 188.686H171.229C171.357 189.74 172.342 190.385 173.812 190.385ZM172.107 185.229V184.355C172.107 183.189 172.787 182.434 173.842 182.434C174.891 182.434 175.564 183.184 175.564 184.355V185.229C175.564 186.4 174.891 187.156 173.842 187.156C172.787 187.156 172.107 186.395 172.107 185.229ZM191.9 183.318C191.9 182.141 191.438 181.525 190.553 181.525C189.914 181.525 189.404 181.912 189.24 182.521H189.135C189 181.895 188.578 181.525 187.98 181.525C187.383 181.525 186.926 181.9 186.768 182.539H186.662V181.643H185.771V188H186.668V183.711C186.668 182.92 187.02 182.434 187.582 182.434C188.121 182.434 188.402 182.838 188.402 183.605V188H189.293V183.711C189.293 182.92 189.633 182.434 190.189 182.434C190.723 182.434 191.004 182.838 191.004 183.611V188H191.9V183.318ZM196.254 188.117C197.936 188.117 199.008 187.021 199.008 185.305V184.344C199.008 182.627 197.936 181.531 196.254 181.531C194.572 181.531 193.5 182.627 193.5 184.344V185.305C193.5 187.021 194.572 188.117 196.254 188.117ZM196.254 182.41C197.344 182.41 198.023 183.184 198.023 184.432V185.211C198.023 186.465 197.344 187.232 196.254 187.232C195.164 187.232 194.484 186.465 194.484 185.211V184.432C194.484 183.184 195.164 182.41 196.254 182.41ZM201.07 188H202.066V184.256C202.066 183.172 202.77 182.439 203.818 182.439C204.809 182.439 205.277 182.979 205.277 184.127V188H206.273V183.875C206.273 182.352 205.523 181.525 204.141 181.525C203.174 181.525 202.447 181.971 202.107 182.762H202.025V181.643H201.07V188ZM210.006 179.938V181.66H208.312V182.51H210.006V186.107C210.006 187.432 210.738 188.029 212.314 188.029C212.619 188.029 213.393 188 213.551 187.971V187.127C213.381 187.145 212.742 187.162 212.385 187.162C211.488 187.162 211.002 186.787 211.002 186.096V182.51H213.568V181.66H210.99V179.938H210.006ZM215.9 188H216.896V184.262C216.896 183.178 217.605 182.445 218.654 182.445C219.65 182.445 220.119 182.99 220.119 184.133V188H221.115V183.881C221.115 182.363 220.365 181.531 218.982 181.531C218.01 181.531 217.277 181.977 216.943 182.768H216.861V179.146H215.9V188ZM228.703 188V187.174H226.605V179.146H223.453V179.973H225.609V187.174H223.436V188H228.703ZM231.562 190.262C232.74 190.262 233.273 189.799 233.83 188.234L236.227 181.643H235.166L233.391 186.963H233.314L231.533 181.643H230.449L232.787 188.041L232.676 188.387C232.412 189.125 232.084 189.395 231.486 189.395C231.393 189.395 231.211 189.389 231.135 189.371V190.244C231.223 190.256 231.416 190.262 231.562 190.262Z" fill="#3C4257"/>
<rect x="96.5" y="144.5" width="155" height="63" rx="7.5" stroke="#E3E8EE"/>
<rect x="90" y="138" width="168" height="76" rx="14" stroke="#F7FAFC" stroke-width="12"/>
<rect x="297" y="96" width="208" height="64" rx="8" fill="white"/>
<rect x="292" y="91" width="218" height="74" rx="13" stroke="white" stroke-width="10"/>
<path d="M363.072 121.662C363.137 123.227 364.443 124.217 366.459 124.217C368.58 124.217 369.887 123.174 369.887 121.486C369.887 120.18 369.154 119.447 367.455 119.084L366.436 118.867C365.445 118.65 365.041 118.34 365.041 117.807C365.041 117.145 365.627 116.717 366.512 116.717C367.367 116.717 367.988 117.168 368.07 117.859H369.734C369.682 116.365 368.363 115.328 366.5 115.328C364.549 115.328 363.266 116.371 363.266 117.947C363.266 119.23 364.021 120.021 365.562 120.35L366.664 120.59C367.701 120.818 368.123 121.141 368.123 121.697C368.123 122.354 367.473 122.816 366.553 122.816C365.557 122.816 364.865 122.365 364.783 121.662H363.072ZM377.24 117.549H375.535V121.275C375.535 122.16 375.078 122.705 374.229 122.705C373.443 122.705 373.039 122.242 373.039 121.328V117.549H371.334V121.75C371.334 123.25 372.201 124.135 373.596 124.135C374.574 124.135 375.178 123.713 375.482 122.963H375.588V124H377.24V117.549ZM382.76 124.1C384.383 124.1 385.379 122.84 385.379 120.771C385.379 118.691 384.395 117.443 382.76 117.443C381.875 117.443 381.148 117.871 380.82 118.58H380.715V115.082H379.01V124H380.662V122.986H380.768C381.113 123.689 381.846 124.1 382.76 124.1ZM382.168 118.826C383.07 118.826 383.627 119.57 383.627 120.771C383.627 121.984 383.076 122.723 382.168 122.723C381.266 122.723 380.703 121.979 380.697 120.777C380.703 119.576 381.271 118.826 382.168 118.826ZM386.621 119.43C386.621 120.42 387.23 121.012 388.484 121.287L389.656 121.551C390.225 121.68 390.471 121.879 390.471 122.207C390.471 122.635 390.014 122.928 389.352 122.928C388.672 122.928 388.256 122.664 388.127 122.219H386.463C386.58 123.438 387.611 124.135 389.316 124.135C391.01 124.135 392.164 123.303 392.164 122.025C392.164 121.064 391.602 120.537 390.348 120.262L389.135 119.998C388.537 119.863 388.262 119.658 388.262 119.33C388.262 118.908 388.713 118.621 389.322 118.621C389.955 118.621 390.348 118.885 390.436 119.312H392.012C391.918 118.094 390.951 117.408 389.311 117.408C387.699 117.408 386.621 118.223 386.621 119.43ZM399.283 119.799C399.143 118.357 398.117 117.408 396.406 117.408C394.385 117.408 393.248 118.633 393.248 120.76C393.248 122.91 394.391 124.135 396.406 124.135C398.088 124.135 399.143 123.209 399.283 121.791H397.689C397.561 122.436 397.104 122.781 396.406 122.781C395.492 122.781 394.971 122.061 394.971 120.76C394.971 119.477 395.486 118.768 396.406 118.768C397.133 118.768 397.572 119.178 397.689 119.799H399.283ZM400.619 124H402.324V120.391C402.324 119.482 402.963 118.926 403.895 118.926C404.17 118.926 404.568 118.973 404.703 119.02V117.52C404.557 117.473 404.27 117.443 404.035 117.443C403.215 117.443 402.547 117.93 402.377 118.574H402.271V117.549H400.619V124ZM406.713 116.559C407.24 116.559 407.674 116.137 407.674 115.609C407.674 115.076 407.24 114.654 406.713 114.654C406.186 114.654 405.746 115.076 405.746 115.609C405.746 116.137 406.186 116.559 406.713 116.559ZM405.857 124H407.562V117.549H405.857V124ZM413.023 117.443C412.133 117.443 411.4 117.883 411.049 118.609H410.943V117.549H409.291V126.139H410.996V123.016H411.102C411.418 123.695 412.127 124.1 413.053 124.1C414.67 124.1 415.66 122.846 415.66 120.771C415.66 118.691 414.658 117.443 413.023 117.443ZM412.443 122.723C411.541 122.723 410.979 121.984 410.979 120.777C410.979 119.57 411.541 118.826 412.449 118.826C413.357 118.826 413.908 119.559 413.908 120.771C413.908 121.99 413.363 122.723 412.443 122.723ZM417.535 116.008V117.607H416.527V118.902H417.535V122.26C417.535 123.514 418.156 124.023 419.727 124.023C420.055 124.023 420.371 123.988 420.582 123.947V122.688C420.418 122.705 420.301 122.717 420.078 122.717C419.498 122.717 419.24 122.447 419.24 121.867V118.902H420.582V117.607H419.24V116.008H417.535ZM422.873 116.559C423.4 116.559 423.834 116.137 423.834 115.609C423.834 115.076 423.4 114.654 422.873 114.654C422.346 114.654 421.906 115.076 421.906 115.609C421.906 116.137 422.346 116.559 422.873 116.559ZM422.018 124H423.723V117.549H422.018V124ZM428.316 124.135C430.303 124.135 431.498 122.881 431.498 120.771C431.498 118.68 430.285 117.408 428.316 117.408C426.348 117.408 425.135 118.686 425.135 120.771C425.135 122.875 426.33 124.135 428.316 124.135ZM428.316 122.787C427.402 122.787 426.887 122.049 426.887 120.771C426.887 119.506 427.408 118.762 428.316 118.762C429.219 118.762 429.746 119.506 429.746 120.771C429.746 122.049 429.225 122.787 428.316 122.787ZM432.893 124H434.598V120.268C434.598 119.395 435.084 118.832 435.875 118.832C436.684 118.832 437.064 119.307 437.064 120.215V124H438.77V119.828C438.77 118.287 437.996 117.408 436.561 117.408C435.605 117.408 434.949 117.859 434.65 118.586H434.545V117.549H432.893V124ZM361.73 140H362.838L359.721 131.545H358.678L355.561 140H356.668L357.518 137.58H360.881L361.73 140ZM359.152 132.91H359.246L360.57 136.684H357.828L359.152 132.91ZM369.066 135.617C368.891 134.492 367.953 133.572 366.418 133.572C364.648 133.572 363.523 134.85 363.523 136.818C363.523 138.828 364.654 140.111 366.424 140.111C367.941 140.111 368.885 139.256 369.066 138.096H368.047C367.859 138.811 367.268 139.203 366.418 139.203C365.293 139.203 364.566 138.277 364.566 136.818C364.566 135.389 365.281 134.48 366.418 134.48C367.326 134.48 367.883 134.99 368.047 135.617H369.066ZM370.555 140H371.562V136.086C371.562 135.195 372.201 134.48 373.027 134.48C373.824 134.48 374.346 134.961 374.346 135.711V140H375.354V135.939C375.354 135.137 375.939 134.48 376.818 134.48C377.709 134.48 378.148 134.938 378.148 135.869V140H379.156V135.635C379.156 134.311 378.436 133.572 377.146 133.572C376.273 133.572 375.553 134.012 375.213 134.68H375.119C374.826 134.023 374.229 133.572 373.373 133.572C372.529 133.572 371.896 133.977 371.609 134.68H371.516V133.684H370.555V140ZM385.18 138.365C384.916 138.922 384.365 139.221 383.551 139.221C382.479 139.221 381.781 138.43 381.729 137.182V137.135H386.27V136.748C386.27 134.785 385.232 133.572 383.527 133.572C381.793 133.572 380.68 134.861 380.68 136.848C380.68 138.846 381.775 140.111 383.527 140.111C384.91 140.111 385.895 139.443 386.188 138.365H385.18ZM383.516 134.463C384.518 134.463 385.186 135.201 385.209 136.32H381.729C381.805 135.201 382.508 134.463 383.516 134.463ZM388.479 134.703L389.539 131.545H388.396L387.746 134.703H388.479ZM390.424 135.412C390.424 136.326 390.963 136.836 392.146 137.123L393.23 137.387C393.904 137.551 394.232 137.844 394.232 138.277C394.232 138.857 393.623 139.262 392.773 139.262C391.965 139.262 391.461 138.922 391.291 138.389H390.254C390.365 139.438 391.332 140.111 392.738 140.111C394.174 140.111 395.27 139.332 395.27 138.201C395.27 137.293 394.695 136.777 393.506 136.49L392.533 136.256C391.789 136.074 391.438 135.805 391.438 135.371C391.438 134.809 392.023 134.428 392.773 134.428C393.535 134.428 394.027 134.762 394.162 135.266H395.158C395.023 134.229 394.104 133.572 392.779 133.572C391.438 133.572 390.424 134.363 390.424 135.412ZM405.465 135.617C405.289 134.492 404.352 133.572 402.816 133.572C401.047 133.572 399.922 134.85 399.922 136.818C399.922 138.828 401.053 140.111 402.822 140.111C404.34 140.111 405.283 139.256 405.465 138.096H404.445C404.258 138.811 403.666 139.203 402.816 139.203C401.691 139.203 400.965 138.277 400.965 136.818C400.965 135.389 401.68 134.48 402.816 134.48C403.725 134.48 404.281 134.99 404.445 135.617H405.465ZM409.549 140.111C411.348 140.111 412.461 138.869 412.461 136.842C412.461 134.809 411.348 133.572 409.549 133.572C407.75 133.572 406.637 134.809 406.637 136.842C406.637 138.869 407.75 140.111 409.549 140.111ZM409.549 139.203C408.354 139.203 407.68 138.336 407.68 136.842C407.68 135.342 408.354 134.48 409.549 134.48C410.744 134.48 411.418 135.342 411.418 136.842C411.418 138.336 410.744 139.203 409.549 139.203ZM414.043 140H415.051V136.262C415.051 135.154 415.701 134.48 416.709 134.48C417.717 134.48 418.197 135.02 418.197 136.156V140H419.205V135.91C419.205 134.41 418.414 133.572 416.996 133.572C416.029 133.572 415.414 133.982 415.098 134.68H415.004V133.684H414.043V140ZM421.473 132.049V133.684H420.453V134.527H421.473V138.359C421.473 139.566 421.994 140.047 423.295 140.047C423.494 140.047 423.688 140.023 423.887 139.988V139.139C423.699 139.156 423.6 139.162 423.418 139.162C422.762 139.162 422.48 138.846 422.48 138.102V134.527H423.887V133.684H422.48V132.049H421.473ZM425.41 140H426.418V136.086C426.418 135.195 427.115 134.551 428.076 134.551C428.275 134.551 428.639 134.586 428.721 134.609V133.602C428.592 133.584 428.381 133.572 428.217 133.572C427.379 133.572 426.652 134.006 426.465 134.621H426.371V133.684H425.41V140ZM431.738 140.111C432.582 140.111 433.273 139.742 433.684 139.068H433.777V140H434.738V135.676C434.738 134.363 433.877 133.572 432.336 133.572C430.988 133.572 429.992 134.24 429.857 135.254H430.877C431.018 134.756 431.545 134.469 432.301 134.469C433.244 134.469 433.73 134.896 433.73 135.676V136.25L431.908 136.361C430.438 136.449 429.605 137.1 429.605 138.23C429.605 139.385 430.514 140.111 431.738 140.111ZM431.926 139.227C431.193 139.227 430.648 138.852 430.648 138.207C430.648 137.574 431.07 137.24 432.031 137.176L433.73 137.064V137.645C433.73 138.547 432.963 139.227 431.926 139.227ZM441.828 135.617C441.652 134.492 440.715 133.572 439.18 133.572C437.41 133.572 436.285 134.85 436.285 136.818C436.285 138.828 437.416 140.111 439.186 140.111C440.703 140.111 441.646 139.256 441.828 138.096H440.809C440.621 138.811 440.029 139.203 439.18 139.203C438.055 139.203 437.328 138.277 437.328 136.818C437.328 135.389 438.043 134.48 439.18 134.48C440.088 134.48 440.645 134.99 440.809 135.617H441.828ZM443.855 132.049V133.684H442.836V134.527H443.855V138.359C443.855 139.566 444.377 140.047 445.678 140.047C445.877 140.047 446.07 140.023 446.27 139.988V139.139C446.082 139.156 445.982 139.162 445.801 139.162C445.145 139.162 444.863 138.846 444.863 138.102V134.527H446.27V133.684H444.863V132.049H443.855Z" fill="#3C4257"/>
<rect x="297.5" y="96.5" width="207" height="63" rx="7.5" stroke="#E3E8EE"/>
<rect x="537" y="96" width="200" height="64" rx="8" fill="white"/>
<rect x="532" y="91" width="210" height="74" rx="13" stroke="white" stroke-width="10"/>
<path d="M612.045 124.217C614.084 124.217 615.572 122.957 615.719 121.129H613.996C613.826 122.061 613.064 122.658 612.051 122.658C610.715 122.658 609.889 121.551 609.889 119.77C609.889 117.988 610.715 116.887 612.045 116.887C613.053 116.887 613.82 117.525 613.99 118.498H615.713C615.584 116.658 614.049 115.328 612.045 115.328C609.59 115.328 608.078 117.021 608.078 119.77C608.078 122.523 609.596 124.217 612.045 124.217ZM623.025 117.537H621.32V121.264C621.32 122.125 620.863 122.658 620.014 122.658C619.229 122.658 618.824 122.201 618.824 121.311V117.537H617.119V121.75C617.119 123.25 617.986 124.141 619.381 124.141C620.359 124.141 620.963 123.713 621.268 122.963H621.373V124H623.025V117.537ZM624.59 119.436C624.59 120.432 625.199 121.029 626.453 121.305L627.625 121.568C628.193 121.691 628.439 121.885 628.439 122.201C628.439 122.617 627.982 122.893 627.32 122.893C626.641 122.893 626.225 122.641 626.096 122.201H624.432C624.549 123.443 625.58 124.141 627.285 124.141C628.979 124.141 630.133 123.297 630.133 122.008C630.133 121.041 629.57 120.514 628.316 120.238L627.104 119.975C626.506 119.84 626.23 119.646 626.23 119.33C626.23 118.92 626.682 118.645 627.291 118.645C627.924 118.645 628.316 118.902 628.404 119.318H629.98C629.887 118.082 628.92 117.396 627.279 117.396C625.668 117.396 624.59 118.211 624.59 119.436ZM631.984 116.002V117.602H630.977V118.943H631.984V122.254C631.984 123.514 632.605 124.023 634.176 124.023C634.504 124.023 634.82 123.988 635.031 123.947V122.646C634.867 122.664 634.75 122.67 634.527 122.67C633.947 122.67 633.689 122.412 633.689 121.85V118.943H635.031V117.602H633.689V116.002H631.984ZM639.273 124.141C641.26 124.141 642.455 122.881 642.455 120.766C642.455 118.668 641.242 117.396 639.273 117.396C637.305 117.396 636.092 118.674 636.092 120.766C636.092 122.881 637.287 124.141 639.273 124.141ZM639.273 122.746C638.359 122.746 637.844 122.025 637.844 120.766C637.844 119.523 638.365 118.791 639.273 118.791C640.176 118.791 640.703 119.523 640.703 120.766C640.703 122.02 640.182 122.746 639.273 122.746ZM643.85 124H645.555V120.109C645.555 119.389 646.029 118.867 646.697 118.867C647.365 118.867 647.764 119.26 647.764 119.945V124H649.404V120.045C649.404 119.359 649.85 118.867 650.541 118.867C651.262 118.867 651.619 119.248 651.619 120.016V124H653.324V119.564C653.324 118.234 652.521 117.396 651.232 117.396C650.33 117.396 649.586 117.871 649.287 118.592H649.182C648.924 117.842 648.303 117.396 647.395 117.396C646.545 117.396 645.871 117.854 645.607 118.592H645.502V117.537H643.85V124ZM657.777 118.703C658.574 118.703 659.09 119.236 659.125 120.092H656.371C656.43 119.254 656.986 118.703 657.777 118.703ZM659.16 122.16C658.979 122.588 658.516 122.828 657.842 122.828C656.951 122.828 656.389 122.23 656.365 121.27V121.182H660.801V120.66C660.801 118.609 659.676 117.396 657.771 117.396C655.85 117.396 654.666 118.697 654.666 120.801C654.666 122.898 655.826 124.141 657.795 124.141C659.377 124.141 660.496 123.373 660.748 122.16H659.16ZM662.201 124H663.906V120.42C663.906 119.512 664.545 118.961 665.477 118.961C665.752 118.961 666.15 119.014 666.285 119.066V117.514C666.139 117.461 665.852 117.432 665.617 117.432C664.797 117.432 664.129 117.924 663.959 118.568H663.854V117.537H662.201V124ZM610.445 140H611.553L608.436 131.545H607.393L604.275 140H605.383L606.232 137.58H609.596L610.445 140ZM607.867 132.91H607.961L609.285 136.684H606.543L607.867 132.91ZM617.781 135.617C617.605 134.492 616.668 133.572 615.133 133.572C613.363 133.572 612.238 134.85 612.238 136.818C612.238 138.828 613.369 140.111 615.139 140.111C616.656 140.111 617.6 139.256 617.781 138.096H616.762C616.574 138.811 615.982 139.203 615.133 139.203C614.008 139.203 613.281 138.277 613.281 136.818C613.281 135.389 613.996 134.48 615.133 134.48C616.041 134.48 616.598 134.99 616.762 135.617H617.781ZM619.27 140H620.277V136.086C620.277 135.195 620.916 134.48 621.742 134.48C622.539 134.48 623.061 134.961 623.061 135.711V140H624.068V135.939C624.068 135.137 624.654 134.48 625.533 134.48C626.424 134.48 626.863 134.938 626.863 135.869V140H627.871V135.635C627.871 134.311 627.15 133.572 625.861 133.572C624.988 133.572 624.268 134.012 623.928 134.68H623.834C623.541 134.023 622.943 133.572 622.088 133.572C621.244 133.572 620.611 133.977 620.324 134.68H620.23V133.684H619.27V140ZM632.23 134.463C633.232 134.463 633.9 135.201 633.924 136.32H630.443C630.52 135.201 631.223 134.463 632.23 134.463ZM633.895 138.365C633.631 138.922 633.08 139.221 632.266 139.221C631.193 139.221 630.496 138.43 630.443 137.182V137.135H634.984V136.748C634.984 134.785 633.947 133.572 632.242 133.572C630.508 133.572 629.395 134.861 629.395 136.848C629.395 138.846 630.49 140.111 632.242 140.111C633.625 140.111 634.609 139.443 634.902 138.365H633.895ZM643.486 140.199C645.285 140.199 646.621 139.197 646.902 137.645H645.83C645.561 138.623 644.664 139.227 643.486 139.227C641.857 139.227 640.838 137.896 640.838 135.775C640.838 133.654 641.857 132.318 643.48 132.318C644.646 132.318 645.549 133.004 645.83 134.094H646.902C646.65 132.465 645.262 131.346 643.48 131.346C641.184 131.346 639.754 133.045 639.754 135.775C639.754 138.5 641.189 140.199 643.486 140.199ZM651.139 140.111C652.938 140.111 654.051 138.869 654.051 136.842C654.051 134.809 652.938 133.572 651.139 133.572C649.34 133.572 648.227 134.809 648.227 136.842C648.227 138.869 649.34 140.111 651.139 140.111ZM651.139 139.203C649.943 139.203 649.27 138.336 649.27 136.842C649.27 135.342 649.943 134.48 651.139 134.48C652.334 134.48 653.008 135.342 653.008 136.842C653.008 138.336 652.334 139.203 651.139 139.203ZM655.633 140H656.641V136.086C656.641 135.195 657.338 134.551 658.299 134.551C658.498 134.551 658.861 134.586 658.943 134.609V133.602C658.814 133.584 658.604 133.572 658.439 133.572C657.602 133.572 656.875 134.006 656.688 134.621H656.594V133.684H655.633V140ZM663.396 133.572C662.535 133.572 661.779 134.012 661.375 134.738H661.281V133.684H660.32V142.109H661.328V139.051H661.422C661.768 139.719 662.494 140.111 663.396 140.111C665.002 140.111 666.051 138.816 666.051 136.842C666.051 134.855 665.008 133.572 663.396 133.572ZM663.156 139.203C662.02 139.203 661.299 138.289 661.299 136.842C661.299 135.389 662.02 134.48 663.162 134.48C664.316 134.48 665.008 135.365 665.008 136.842C665.008 138.318 664.316 139.203 663.156 139.203ZM668.348 140.059C668.77 140.059 669.109 139.713 669.109 139.297C669.109 138.875 668.77 138.535 668.348 138.535C667.932 138.535 667.586 138.875 667.586 139.297C667.586 139.713 667.932 140.059 668.348 140.059Z" fill="#3C4257"/>
<rect x="537.5" y="96.5" width="199" height="63" rx="7.5" stroke="#E3E8EE"/>
<rect x="426" y="195" width="192" height="74" rx="13" stroke="white" stroke-width="10"/>
<rect x="441" y="200" width="176" height="64" rx="8" fill="white"/>
<path d="M510.262 228V219.545H508.492V228H510.262ZM512.143 228H513.848V224.273C513.848 223.424 514.334 222.867 515.125 222.867C515.934 222.867 516.314 223.336 516.314 224.227V228H518.02V223.822C518.02 222.275 517.246 221.396 515.811 221.396C514.855 221.396 514.199 221.848 513.9 222.574H513.795V221.537H512.143V228ZM525.344 221.537H523.545L522.221 226.354H522.115L520.779 221.537H518.945L521.189 228H523.111L525.344 221.537ZM529.094 228.141C531.08 228.141 532.275 226.881 532.275 224.766C532.275 222.668 531.062 221.396 529.094 221.396C527.125 221.396 525.912 222.674 525.912 224.766C525.912 226.881 527.107 228.141 529.094 228.141ZM529.094 226.746C528.18 226.746 527.664 226.025 527.664 224.766C527.664 223.523 528.186 222.791 529.094 222.791C529.996 222.791 530.523 223.523 530.523 224.766C530.523 226.02 530.002 226.746 529.094 226.746ZM533.682 228H535.387V221.537H533.682V228ZM534.537 220.57C535.07 220.57 535.504 220.137 535.504 219.592C535.504 219.047 535.07 218.619 534.537 218.619C534.01 218.619 533.57 219.047 533.57 219.592C533.57 220.137 534.01 220.57 534.537 220.57ZM542.834 223.816C542.693 222.346 541.668 221.396 539.957 221.396C537.936 221.396 536.799 222.609 536.799 224.754C536.799 226.922 537.941 228.141 539.957 228.141C541.639 228.141 542.693 227.209 542.834 225.762H541.24C541.111 226.4 540.654 226.74 539.957 226.74C539.043 226.74 538.521 226.043 538.521 224.754C538.521 223.482 539.037 222.797 539.957 222.797C540.684 222.797 541.123 223.201 541.24 223.816H542.834ZM546.965 222.703C547.762 222.703 548.277 223.236 548.312 224.092H545.559C545.617 223.254 546.174 222.703 546.965 222.703ZM548.348 226.16C548.166 226.588 547.703 226.828 547.029 226.828C546.139 226.828 545.576 226.23 545.553 225.27V225.182H549.988V224.66C549.988 222.609 548.863 221.396 546.959 221.396C545.037 221.396 543.854 222.697 543.854 224.801C543.854 226.898 545.014 228.141 546.982 228.141C548.564 228.141 549.684 227.373 549.936 226.16H548.348ZM506.875 244H507.982L504.865 235.545H503.822L500.705 244H501.812L502.662 241.58H506.025L506.875 244ZM504.297 236.91H504.391L505.715 240.684H502.973L504.297 236.91ZM512.412 237.572C511.551 237.572 510.795 238.012 510.391 238.738H510.297V237.684H509.336V246.109H510.344V243.051H510.438C510.783 243.719 511.51 244.111 512.412 244.111C514.018 244.111 515.066 242.816 515.066 240.842C515.066 238.855 514.023 237.572 512.412 237.572ZM512.172 243.203C511.035 243.203 510.314 242.289 510.314 240.842C510.314 239.389 511.035 238.48 512.178 238.48C513.332 238.48 514.023 239.365 514.023 240.842C514.023 242.318 513.332 243.203 512.172 243.203ZM516.648 244H517.656V240.086C517.656 239.195 518.354 238.551 519.314 238.551C519.514 238.551 519.877 238.586 519.959 238.609V237.602C519.83 237.584 519.619 237.572 519.455 237.572C518.617 237.572 517.891 238.006 517.703 238.621H517.609V237.684H516.648V244ZM521.242 244H522.25V237.684H521.242V244ZM521.746 236.465C522.133 236.465 522.449 236.148 522.449 235.762C522.449 235.375 522.133 235.059 521.746 235.059C521.359 235.059 521.043 235.375 521.043 235.762C521.043 236.148 521.359 236.465 521.746 236.465ZM524.23 244H525.238V235.176H524.23V244ZM530.523 237.93H531.543C531.543 236.928 532.217 236.266 533.23 236.266C534.227 236.266 534.83 236.934 534.83 237.83C534.83 238.574 534.514 239.014 533.436 240.18L530.576 243.273V244H536.049V243.051H532.041V242.957L533.963 240.971C535.486 239.395 535.908 238.691 535.908 237.719C535.908 236.348 534.777 235.346 533.301 235.346C531.684 235.346 530.523 236.424 530.523 237.93ZM540.672 244.199C542.57 244.199 543.66 242.594 543.66 239.787C543.66 236.986 542.553 235.346 540.672 235.346C538.779 235.346 537.672 236.98 537.672 239.77C537.672 242.582 538.768 244.199 540.672 244.199ZM540.672 243.279C539.424 243.279 538.732 242.031 538.732 239.77C538.732 237.537 539.436 236.271 540.672 236.271C541.908 236.271 542.6 237.525 542.6 239.77C542.6 242.037 541.92 243.279 540.672 243.279ZM547.41 244H548.465V235.545H547.416L545.166 237.162V238.275L547.316 236.717H547.41V244ZM553.691 244.193C555.76 244.193 556.943 242.529 556.943 239.623C556.943 236.746 555.584 235.346 553.762 235.346C552.027 235.346 550.797 236.559 550.797 238.258C550.797 239.898 551.963 241.088 553.574 241.088C554.582 241.088 555.408 240.607 555.824 239.787H555.918C555.859 242.037 555.08 243.256 553.703 243.256C552.871 243.256 552.227 242.793 552.004 242.031H550.92C551.184 243.361 552.256 244.193 553.691 244.193ZM553.762 240.174C552.643 240.174 551.863 239.377 551.863 238.223C551.863 237.115 552.689 236.271 553.773 236.271C554.857 236.271 555.684 237.127 555.684 238.258C555.684 239.377 554.881 240.174 553.762 240.174Z" fill="#3C4257"/>
<rect x="441.5" y="200.5" width="175" height="63" rx="13.5" stroke="#E3E8EE"/>
<rect x="437" y="196" width="176" height="64" rx="8" fill="white"/>
<path d="M506.262 224V215.545H504.492V224H506.262ZM508.143 224H509.848V220.268C509.848 219.395 510.334 218.832 511.125 218.832C511.934 218.832 512.314 219.307 512.314 220.215V224H514.02V219.828C514.02 218.287 513.246 217.408 511.811 217.408C510.855 217.408 510.199 217.859 509.9 218.586H509.795V217.549H508.143V224ZM521.344 217.549H519.545L518.221 222.4H518.115L516.779 217.549H514.945L517.189 224H519.111L521.344 217.549ZM525.094 224.135C527.08 224.135 528.275 222.881 528.275 220.771C528.275 218.68 527.062 217.408 525.094 217.408C523.125 217.408 521.912 218.686 521.912 220.771C521.912 222.875 523.107 224.135 525.094 224.135ZM525.094 222.787C524.18 222.787 523.664 222.049 523.664 220.771C523.664 219.506 524.186 218.762 525.094 218.762C525.996 218.762 526.523 219.506 526.523 220.771C526.523 222.049 526.002 222.787 525.094 222.787ZM530.537 216.559C531.064 216.559 531.498 216.137 531.498 215.609C531.498 215.076 531.064 214.654 530.537 214.654C530.01 214.654 529.57 215.076 529.57 215.609C529.57 216.137 530.01 216.559 530.537 216.559ZM529.682 224H531.387V217.549H529.682V224ZM538.834 219.799C538.693 218.357 537.668 217.408 535.957 217.408C533.936 217.408 532.799 218.633 532.799 220.76C532.799 222.91 533.941 224.135 535.957 224.135C537.639 224.135 538.693 223.209 538.834 221.791H537.24C537.111 222.436 536.654 222.781 535.957 222.781C535.043 222.781 534.521 222.061 534.521 220.76C534.521 219.477 535.037 218.768 535.957 218.768C536.684 218.768 537.123 219.178 537.24 219.799H538.834ZM544.348 222.178C544.166 222.617 543.703 222.863 543.029 222.863C542.139 222.863 541.576 222.248 541.553 221.264V221.176H545.988V220.666C545.988 218.627 544.863 217.408 542.959 217.408C541.037 217.408 539.854 218.709 539.854 220.807C539.854 222.893 541.014 224.135 542.982 224.135C544.564 224.135 545.684 223.379 545.936 222.178H544.348ZM542.965 218.68C543.762 218.68 544.277 219.23 544.312 220.115H541.559C541.617 219.248 542.174 218.68 542.965 218.68ZM502.875 240H503.982L500.865 231.545H499.822L496.705 240H497.812L498.662 237.58H502.025L502.875 240ZM500.297 232.91H500.391L501.715 236.684H498.973L500.297 232.91ZM508.412 233.572C507.551 233.572 506.795 234.012 506.391 234.738H506.297V233.684H505.336V242.109H506.344V239.051H506.438C506.783 239.719 507.51 240.111 508.412 240.111C510.018 240.111 511.066 238.816 511.066 236.842C511.066 234.855 510.023 233.572 508.412 233.572ZM508.172 239.203C507.035 239.203 506.314 238.289 506.314 236.842C506.314 235.389 507.035 234.48 508.178 234.48C509.332 234.48 510.023 235.365 510.023 236.842C510.023 238.318 509.332 239.203 508.172 239.203ZM512.648 240H513.656V236.086C513.656 235.195 514.354 234.551 515.314 234.551C515.514 234.551 515.877 234.586 515.959 234.609V233.602C515.83 233.584 515.619 233.572 515.455 233.572C514.617 233.572 513.891 234.006 513.703 234.621H513.609V233.684H512.648V240ZM517.746 232.465C518.133 232.465 518.449 232.148 518.449 231.762C518.449 231.375 518.133 231.059 517.746 231.059C517.359 231.059 517.043 231.375 517.043 231.762C517.043 232.148 517.359 232.465 517.746 232.465ZM517.242 240H518.25V233.684H517.242V240ZM520.23 240H521.238V231.176H520.23V240ZM526.523 233.93H527.543C527.543 232.928 528.217 232.266 529.23 232.266C530.227 232.266 530.83 232.934 530.83 233.83C530.83 234.574 530.514 235.014 529.436 236.18L526.576 239.273V240H532.049V239.051H528.041V238.957L529.963 236.971C531.486 235.395 531.908 234.691 531.908 233.719C531.908 232.348 530.777 231.346 529.301 231.346C527.684 231.346 526.523 232.424 526.523 233.93ZM536.672 240.199C538.57 240.199 539.66 238.594 539.66 235.787C539.66 232.986 538.553 231.346 536.672 231.346C534.779 231.346 533.672 232.98 533.672 235.77C533.672 238.582 534.768 240.199 536.672 240.199ZM536.672 239.279C535.424 239.279 534.732 238.031 534.732 235.77C534.732 233.537 535.436 232.271 536.672 232.271C537.908 232.271 538.6 233.525 538.6 235.77C538.6 238.037 537.92 239.279 536.672 239.279ZM543.41 240H544.465V231.545H543.416L541.166 233.162V234.275L543.316 232.717H543.41V240ZM549.691 240.193C551.76 240.193 552.943 238.529 552.943 235.623C552.943 232.746 551.584 231.346 549.762 231.346C548.027 231.346 546.797 232.559 546.797 234.258C546.797 235.898 547.963 237.088 549.574 237.088C550.582 237.088 551.408 236.607 551.824 235.787H551.918C551.859 238.037 551.08 239.256 549.703 239.256C548.871 239.256 548.227 238.793 548.004 238.031H546.92C547.184 239.361 548.256 240.193 549.691 240.193ZM549.762 236.174C548.643 236.174 547.863 235.377 547.863 234.223C547.863 233.115 548.689 232.271 549.773 232.271C550.857 232.271 551.684 233.127 551.684 234.258C551.684 235.377 550.881 236.174 549.762 236.174Z" fill="#3C4257"/>
<rect x="437.5" y="196.5" width="175" height="63" rx="11.5" stroke="#E3E8EE"/>
<rect x="433" y="192" width="176" height="64" rx="8" fill="white"/>
<path d="M502.262 220V211.545H500.492V220H502.262ZM504.143 220H505.848V216.273C505.848 215.424 506.334 214.867 507.125 214.867C507.934 214.867 508.314 215.336 508.314 216.227V220H510.02V215.822C510.02 214.275 509.246 213.396 507.811 213.396C506.855 213.396 506.199 213.848 505.9 214.574H505.795V213.537H504.143V220ZM517.344 213.537H515.545L514.221 218.354H514.115L512.779 213.537H510.945L513.189 220H515.111L517.344 213.537ZM521.094 220.141C523.08 220.141 524.275 218.881 524.275 216.766C524.275 214.668 523.062 213.396 521.094 213.396C519.125 213.396 517.912 214.674 517.912 216.766C517.912 218.881 519.107 220.141 521.094 220.141ZM521.094 218.746C520.18 218.746 519.664 218.025 519.664 216.766C519.664 215.523 520.186 214.791 521.094 214.791C521.996 214.791 522.523 215.523 522.523 216.766C522.523 218.02 522.002 218.746 521.094 218.746ZM525.682 220H527.387V213.537H525.682V220ZM526.537 212.57C527.07 212.57 527.504 212.137 527.504 211.592C527.504 211.047 527.07 210.619 526.537 210.619C526.01 210.619 525.57 211.047 525.57 211.592C525.57 212.137 526.01 212.57 526.537 212.57ZM534.834 215.816C534.693 214.346 533.668 213.396 531.957 213.396C529.936 213.396 528.799 214.609 528.799 216.754C528.799 218.922 529.941 220.141 531.957 220.141C533.639 220.141 534.693 219.209 534.834 217.762H533.24C533.111 218.4 532.654 218.74 531.957 218.74C531.043 218.74 530.521 218.043 530.521 216.754C530.521 215.482 531.037 214.797 531.957 214.797C532.684 214.797 533.123 215.201 533.24 215.816H534.834ZM538.965 214.703C539.762 214.703 540.277 215.236 540.312 216.092H537.559C537.617 215.254 538.174 214.703 538.965 214.703ZM540.348 218.16C540.166 218.588 539.703 218.828 539.029 218.828C538.139 218.828 537.576 218.23 537.553 217.27V217.182H541.988V216.66C541.988 214.609 540.863 213.396 538.959 213.396C537.037 213.396 535.854 214.697 535.854 216.801C535.854 218.898 537.014 220.141 538.982 220.141C540.564 220.141 541.684 219.373 541.936 218.16H540.348ZM498.096 236H499.203L496.086 227.545H495.043L491.926 236H493.033L493.883 233.58H497.246L498.096 236ZM495.518 228.91H495.611L496.936 232.684H494.193L495.518 228.91ZM503.633 229.572C502.771 229.572 502.016 230.012 501.611 230.738H501.518V229.684H500.557V238.109H501.564V235.051H501.658C502.004 235.719 502.73 236.111 503.633 236.111C505.238 236.111 506.287 234.816 506.287 232.842C506.287 230.855 505.244 229.572 503.633 229.572ZM503.393 235.203C502.256 235.203 501.535 234.289 501.535 232.842C501.535 231.389 502.256 230.48 503.398 230.48C504.553 230.48 505.244 231.365 505.244 232.842C505.244 234.318 504.553 235.203 503.393 235.203ZM507.869 236H508.877V232.086C508.877 231.195 509.574 230.551 510.535 230.551C510.734 230.551 511.098 230.586 511.18 230.609V229.602C511.051 229.584 510.84 229.572 510.676 229.572C509.838 229.572 509.111 230.006 508.924 230.621H508.83V229.684H507.869V236ZM512.463 236H513.471V229.684H512.463V236ZM512.967 228.465C513.354 228.465 513.67 228.148 513.67 227.762C513.67 227.375 513.354 227.059 512.967 227.059C512.58 227.059 512.264 227.375 512.264 227.762C512.264 228.148 512.58 228.465 512.967 228.465ZM515.451 236H516.459V227.176H515.451V236ZM521.744 229.93H522.764C522.764 228.928 523.438 228.266 524.451 228.266C525.447 228.266 526.051 228.934 526.051 229.83C526.051 230.574 525.734 231.014 524.656 232.18L521.797 235.273V236H527.27V235.051H523.262V234.957L525.184 232.971C526.707 231.395 527.129 230.691 527.129 229.719C527.129 228.348 525.998 227.346 524.521 227.346C522.904 227.346 521.744 228.424 521.744 229.93ZM531.893 236.199C533.791 236.199 534.881 234.594 534.881 231.787C534.881 228.986 533.773 227.346 531.893 227.346C530 227.346 528.893 228.98 528.893 231.77C528.893 234.582 529.988 236.199 531.893 236.199ZM531.893 235.279C530.645 235.279 529.953 234.031 529.953 231.77C529.953 229.537 530.656 228.271 531.893 228.271C533.129 228.271 533.82 229.525 533.82 231.77C533.82 234.037 533.141 235.279 531.893 235.279ZM536.557 229.93H537.576C537.576 228.928 538.25 228.266 539.264 228.266C540.26 228.266 540.863 228.934 540.863 229.83C540.863 230.574 540.547 231.014 539.469 232.18L536.609 235.273V236H542.082V235.051H538.074V234.957L539.996 232.971C541.52 231.395 541.941 230.691 541.941 229.719C541.941 228.348 540.811 227.346 539.334 227.346C537.717 227.346 536.557 228.424 536.557 229.93ZM546.705 236.199C548.604 236.199 549.693 234.594 549.693 231.787C549.693 228.986 548.586 227.346 546.705 227.346C544.812 227.346 543.705 228.98 543.705 231.77C543.705 234.582 544.801 236.199 546.705 236.199ZM546.705 235.279C545.457 235.279 544.766 234.031 544.766 231.77C544.766 229.537 545.469 228.271 546.705 228.271C547.941 228.271 548.633 229.525 548.633 231.77C548.633 234.037 547.953 235.279 546.705 235.279Z" fill="#3C4257"/>
<rect x="433.5" y="192.5" width="175" height="63" rx="7.5" stroke="#E3E8EE"/>
<rect x="433" y="288" width="176" height="64" rx="8" fill="white"/>
<rect x="428" y="283" width="186" height="74" rx="13" stroke="white" stroke-width="10"/>
<path d="M477.652 307.545V316H479.422V313.334H481.092C482.873 313.334 484.109 312.174 484.109 310.451C484.109 308.705 482.92 307.545 481.18 307.545H477.652ZM479.422 308.951H480.711C481.73 308.951 482.311 309.473 482.311 310.457C482.311 311.418 481.719 311.945 480.705 311.945H479.422V308.951ZM487.104 316.1C487.941 316.1 488.645 315.742 488.979 315.145H489.084V316H490.736V311.594C490.736 310.217 489.77 309.408 488.059 309.408C486.436 309.408 485.34 310.152 485.229 311.336H486.799C486.939 310.932 487.35 310.715 487.965 310.715C488.668 310.715 489.055 311.037 489.055 311.594V312.127L487.49 312.221C485.885 312.314 484.988 312.994 484.988 314.16C484.988 315.338 485.861 316.1 487.104 316.1ZM487.666 314.852C487.074 314.852 486.658 314.553 486.658 314.055C486.658 313.58 487.016 313.305 487.748 313.258L489.055 313.17V313.65C489.055 314.33 488.457 314.852 487.666 314.852ZM493.039 318.344C494.65 318.344 495.441 317.77 495.992 316.123L498.219 309.549H496.414L495.055 314.471H494.949L493.59 309.549H491.709L493.977 316.035L493.918 316.281C493.777 316.803 493.414 317.014 492.775 317.014C492.705 317.014 492.447 317.008 492.389 316.996V318.326C492.459 318.338 492.975 318.344 493.039 318.344ZM499.408 316H501.113V312.109C501.113 311.371 501.588 310.832 502.256 310.832C502.924 310.832 503.322 311.23 503.322 311.922V316H504.963V312.033C504.963 311.336 505.408 310.832 506.1 310.832C506.82 310.832 507.178 311.219 507.178 311.998V316H508.883V311.57C508.883 310.24 508.08 309.408 506.791 309.408C505.889 309.408 505.145 309.883 504.846 310.598H504.74C504.482 309.859 503.861 309.408 502.953 309.408C502.104 309.408 501.43 309.859 501.166 310.598H501.061V309.549H499.408V316ZM514.719 314.178C514.537 314.617 514.074 314.863 513.4 314.863C512.51 314.863 511.947 314.248 511.924 313.264V313.176H516.359V312.666C516.359 310.627 515.234 309.408 513.33 309.408C511.408 309.408 510.225 310.709 510.225 312.807C510.225 314.893 511.385 316.135 513.354 316.135C514.936 316.135 516.055 315.379 516.307 314.178H514.719ZM513.336 310.68C514.133 310.68 514.648 311.23 514.684 312.115H511.93C511.988 311.248 512.545 310.68 513.336 310.68ZM517.76 316H519.465V312.268C519.465 311.395 519.951 310.832 520.742 310.832C521.551 310.832 521.932 311.307 521.932 312.215V316H523.637V311.828C523.637 310.287 522.863 309.408 521.428 309.408C520.473 309.408 519.816 309.859 519.518 310.586H519.412V309.549H517.76V316ZM525.781 308.008V309.607H524.773V310.902H525.781V314.26C525.781 315.514 526.402 316.023 527.973 316.023C528.301 316.023 528.617 315.988 528.828 315.947V314.688C528.664 314.705 528.547 314.717 528.324 314.717C527.744 314.717 527.486 314.447 527.486 313.867V310.902H528.828V309.607H527.486V308.008H525.781ZM532.191 316V307.545H530.422V316H532.191ZM534.072 316H535.777V312.268C535.777 311.395 536.264 310.832 537.055 310.832C537.863 310.832 538.244 311.307 538.244 312.215V316H539.949V311.828C539.949 310.287 539.176 309.408 537.74 309.408C536.785 309.408 536.129 309.859 535.83 310.586H535.725V309.549H534.072V316ZM542.094 308.008V309.607H541.086V310.902H542.094V314.26C542.094 315.514 542.715 316.023 544.285 316.023C544.613 316.023 544.93 315.988 545.141 315.947V314.688C544.977 314.705 544.859 314.717 544.637 314.717C544.057 314.717 543.799 314.447 543.799 313.867V310.902H545.141V309.607H543.799V308.008H542.094ZM550.695 314.178C550.514 314.617 550.051 314.863 549.377 314.863C548.486 314.863 547.924 314.248 547.9 313.264V313.176H552.336V312.666C552.336 310.627 551.211 309.408 549.307 309.408C547.385 309.408 546.201 310.709 546.201 312.807C546.201 314.893 547.361 316.135 549.33 316.135C550.912 316.135 552.031 315.379 552.283 314.178H550.695ZM549.312 310.68C550.109 310.68 550.625 311.23 550.66 312.115H547.906C547.965 311.248 548.521 310.68 549.312 310.68ZM553.736 316H555.441V312.268C555.441 311.395 555.928 310.832 556.719 310.832C557.527 310.832 557.908 311.307 557.908 312.215V316H559.613V311.828C559.613 310.287 558.84 309.408 557.404 309.408C556.449 309.408 555.793 309.859 555.494 310.586H555.389V309.549H553.736V316ZM561.758 308.008V309.607H560.75V310.902H561.758V314.26C561.758 315.514 562.379 316.023 563.949 316.023C564.277 316.023 564.594 315.988 564.805 315.947V314.688C564.641 314.705 564.523 314.717 564.301 314.717C563.721 314.717 563.463 314.447 563.463 313.867V310.902H564.805V309.607H563.463V308.008H561.758ZM504.383 332.85H505.086V331.836C506.469 331.73 507.617 330.963 507.617 329.551C507.617 328.32 506.773 327.699 505.268 327.336L505.086 327.295V324.629C505.877 324.729 506.439 325.191 506.516 325.982H507.535C507.494 324.688 506.439 323.832 505.086 323.709V322.695H504.383V323.715C502.994 323.838 502.004 324.67 502.004 325.93C502.004 327.084 502.789 327.734 504.248 328.086L504.383 328.121V330.916C503.369 330.805 502.918 330.248 502.812 329.516H501.793C501.834 330.881 502.988 331.707 504.383 331.83V332.85ZM503.023 325.859C503.023 325.291 503.492 324.752 504.383 324.635V327.125C503.375 326.879 503.023 326.434 503.023 325.859ZM505.121 328.297C506.281 328.578 506.598 328.988 506.598 329.633C506.598 330.307 506.176 330.84 505.086 330.922V328.291L505.121 328.297ZM509.504 325.93H510.523C510.523 324.928 511.197 324.266 512.211 324.266C513.207 324.266 513.811 324.934 513.811 325.83C513.811 326.574 513.494 327.014 512.416 328.18L509.557 331.273V332H515.029V331.051H511.021V330.957L512.943 328.971C514.467 327.395 514.889 326.691 514.889 325.719C514.889 324.348 513.758 323.346 512.281 323.346C510.664 323.346 509.504 324.424 509.504 325.93ZM519.652 332.199C521.551 332.199 522.641 330.594 522.641 327.787C522.641 324.986 521.533 323.346 519.652 323.346C517.76 323.346 516.652 324.98 516.652 327.77C516.652 330.582 517.748 332.199 519.652 332.199ZM519.652 331.279C518.404 331.279 517.713 330.031 517.713 327.77C517.713 325.537 518.416 324.271 519.652 324.271C520.889 324.271 521.58 325.525 521.58 327.77C521.58 330.037 520.9 331.279 519.652 331.279ZM524.738 332.059C525.16 332.059 525.5 331.713 525.5 331.297C525.5 330.875 525.16 330.535 524.738 330.535C524.322 330.535 523.977 330.875 523.977 331.297C523.977 331.713 524.322 332.059 524.738 332.059ZM529.836 332.199C531.734 332.199 532.824 330.594 532.824 327.787C532.824 324.986 531.717 323.346 529.836 323.346C527.943 323.346 526.836 324.98 526.836 327.77C526.836 330.582 527.932 332.199 529.836 332.199ZM529.836 331.279C528.588 331.279 527.896 330.031 527.896 327.77C527.896 325.537 528.6 324.271 529.836 324.271C531.072 324.271 531.764 325.525 531.764 327.77C531.764 330.037 531.084 331.279 529.836 331.279ZM537.395 332.199C539.293 332.199 540.383 330.594 540.383 327.787C540.383 324.986 539.275 323.346 537.395 323.346C535.502 323.346 534.395 324.98 534.395 327.77C534.395 330.582 535.49 332.199 537.395 332.199ZM537.395 331.279C536.146 331.279 535.455 330.031 535.455 327.77C535.455 325.537 536.158 324.271 537.395 324.271C538.631 324.271 539.322 325.525 539.322 327.77C539.322 330.037 538.643 331.279 537.395 331.279Z" fill="#3C4257"/>
<rect x="433.5" y="288.5" width="175" height="63" rx="7.5" stroke="#E3E8EE"/>
<path d="M241.5 127.25C241.086 127.25 240.75 127.586 240.75 128C240.75 128.414 241.086 128.75 241.5 128.75V127.25ZM289.03 128.53C289.323 128.237 289.323 127.763 289.03 127.47L284.257 122.697C283.964 122.404 283.49 122.404 283.197 122.697C282.904 122.99 282.904 123.464 283.197 123.757L287.439 128L283.197 132.243C282.904 132.536 282.904 133.01 283.197 133.303C283.49 133.596 283.964 133.596 284.257 133.303L289.03 128.53ZM241.5 128.75H288.5V127.25L241.5 127.25V128.75Z" fill="#8792A2"/>
<path d="M521.75 264.5C521.75 264.086 521.414 263.75 521 263.75C520.586 263.75 520.25 264.086 520.25 264.5L521.75 264.5ZM520.47 280.03C520.763 280.323 521.237 280.323 521.53 280.03L526.303 275.257C526.596 274.964 526.596 274.49 526.303 274.197C526.01 273.904 525.536 273.904 525.243 274.197L521 278.439L516.757 274.197C516.464 273.904 515.99 273.904 515.697 274.197C515.404 274.49 515.404 274.964 515.697 275.257L520.47 280.03ZM520.25 264.5L520.25 279.5L521.75 279.5L521.75 264.5L520.25 264.5Z" fill="#8792A2"/>
<path d="M400.25 169.5C400.25 169.086 400.586 168.75 401 168.75C401.414 168.75 401.75 169.086 401.75 169.5L400.25 169.5ZM425.03 231.47C425.323 231.763 425.323 232.237 425.03 232.53L420.257 237.303C419.964 237.596 419.49 237.596 419.197 237.303C418.904 237.01 418.904 236.536 419.197 236.243L423.439 232L419.197 227.757C418.904 227.464 418.904 226.99 419.197 226.697C419.49 226.404 419.964 226.404 420.257 226.697L425.03 231.47ZM401.75 169.5L401.75 228L400.25 228L400.25 169.5L401.75 169.5ZM405 231.25L424.5 231.25L424.5 232.75L405 232.75L405 231.25ZM401.75 228C401.75 229.795 403.205 231.25 405 231.25L405 232.75C402.377 232.75 400.25 230.623 400.25 228L401.75 228Z" fill="#8792A2"/>
<path d="M625.5 224.75C625.086 224.75 624.75 224.414 624.75 224C624.75 223.586 625.086 223.25 625.5 223.25V224.75ZM648.47 167.97C648.763 167.677 649.237 167.677 649.53 167.97L654.303 172.743C654.596 173.036 654.596 173.51 654.303 173.803C654.01 174.096 653.536 174.096 653.243 173.803L649 169.561L644.757 173.803C644.464 174.096 643.99 174.096 643.697 173.803C643.404 173.51 643.404 173.036 643.697 172.743L648.47 167.97ZM625.5 223.25H645V224.75H625.5V223.25ZM648.25 220V168.5H649.75V220H648.25ZM645 223.25C646.795 223.25 648.25 221.795 648.25 220H649.75C649.75 222.623 647.623 224.75 645 224.75V223.25Z" fill="#8792A2"/>
<path d="M71.25 120.5C71.25 120.086 71.5858 119.75 72 119.75C72.4142 119.75 72.75 120.086 72.75 120.5L71.25 120.5ZM92.0303 183.47C92.3232 183.763 92.3232 184.237 92.0303 184.53L87.2574 189.303C86.9645 189.596 86.4896 189.596 86.1967 189.303C85.9038 189.01 85.9038 188.536 86.1967 188.243L90.4393 184L86.1967 179.757C85.9038 179.464 85.9038 178.99 86.1967 178.697C86.4896 178.404 86.9645 178.404 87.2574 178.697L92.0303 183.47ZM72.75 120.5L72.75 180L71.25 180L71.25 120.5L72.75 120.5ZM76 183.25L91.5 183.25L91.5 184.75L76 184.75L76 183.25ZM72.75 180C72.75 181.795 74.2051 183.25 76 183.25L76 184.75C73.3766 184.75 71.25 182.623 71.25 180L72.75 180Z" fill="#8792A2"/>
<defs>
<clipPath id="clip0">
<rect width="769" height="384" fill="white"/>
</clipPath>
</defs>
</svg>
