<?xml version="1.0" standalone="no"?>
<!DOCTYPE svg PUBLIC "-//W3C//DTD SVG 20010904//EN"
 "http://www.w3.org/TR/2001/REC-SVG-20010904/DTD/svg10.dtd">
<svg version="1.0" xmlns="http://www.w3.org/2000/svg"
 width="400.000000pt" height="400.000000pt" viewBox="0 0 400.000000 400.000000"
 preserveAspectRatio="xMidYMid meet">
<metadata>
Created by potrace 1.11, written by Peter Selinger 2001-2013
</metadata>
<g transform="translate(0.000000,400.000000) scale(0.100000,-0.100000)"
fill="#000000" stroke="none">
<path d="M0 2000 l0 -2000 490 0 489 0 124 45 c68 24 171 67 230 95 60 27 114
50 123 50 13 0 70 -108 88 -167 l7 -23 596 0 c541 0 598 2 615 17 10 9 18 20
18 24 0 4 13 28 30 52 16 25 30 49 30 55 0 5 7 16 16 23 16 13 39 58 36 72 -1
4 2 7 8 7 5 0 19 17 30 37 11 21 34 58 50 83 48 72 94 178 124 280 45 157 79
260 86 260 3 0 16 -87 29 -192 26 -220 18 -207 136 -257 218 -92 602 -231 641
-231 2 0 4 848 4 1885 l0 1885 -2000 0 -2000 0 0 -2000z m2709 1264 c28 -6 45
-34 20 -34 -5 0 -7 -4 -4 -10 3 -5 16 -10 29 -10 30 0 88 -44 103 -78 11 -24
12 -25 13 -5 0 34 16 37 66 12 46 -22 140 -109 210 -194 36 -44 36 -46 19 -65
-18 -19 -17 -20 11 -20 27 -1 28 -2 10 -15 -18 -13 -17 -14 8 -21 33 -8 33
-25 1 -55 -33 -32 -31 -44 11 -81 35 -31 35 -32 31 -97 -5 -66 1 -110 44 -331
17 -85 23 -152 23 -257 1 -139 7 -168 25 -120 5 13 16 29 24 36 9 7 19 26 22
42 4 16 11 29 16 29 11 0 11 -6 -5 -112 -10 -64 -10 -101 -3 -138 7 -38 6 -70
-3 -121 -16 -86 -36 -119 -80 -134 -34 -11 -35 -14 -58 -113 -14 -56 -28 -99
-33 -96 -5 3 -9 -5 -9 -17 0 -34 -51 -181 -70 -199 -8 -8 -30 -75 -30 -91 0
-9 -11 -26 -25 -39 -14 -13 -25 -27 -25 -32 0 -9 -59 -78 -92 -106 -20 -18
-13 -38 8 -21 8 6 14 8 14 5 0 -10 -121 -126 -131 -126 -5 0 -24 -15 -42 -32
-47 -45 -88 -74 -117 -83 -14 -4 -31 -12 -37 -17 -7 -6 -22 -8 -33 -5 -11 3
-23 1 -26 -5 -10 -16 -48 -26 -60 -16 -7 5 -18 7 -25 6 -28 -6 -13 60 20 88
17 14 31 34 31 44 0 23 23 31 77 25 31 -3 48 1 67 16 14 11 26 16 26 10 0 -6
5 -11 10 -11 6 0 10 7 10 15 0 17 -65 22 -75 5 -6 -10 -48 -7 -94 6 -19 6 -22
4 -15 -7 6 -10 1 -9 -18 3 -15 10 -35 14 -49 11 -21 -6 -23 -5 -10 10 11 14
11 17 0 17 -15 -1 -49 -65 -49 -93 0 -9 -5 -19 -11 -22 -7 -5 -10 11 -8 49 1
31 0 59 -4 63 -4 3 -7 -19 -7 -50 0 -31 -4 -58 -10 -62 -6 -4 -6 -15 1 -32 5
-14 7 -28 4 -31 -7 -7 -35 63 -34 85 1 12 3 10 9 -7 7 -23 8 -22 9 10 1 19 5
51 10 70 5 19 12 67 15 105 4 55 3 64 -5 42 -6 -15 -14 -25 -18 -23 -3 2 -11
-7 -18 -20 -6 -13 -7 -22 -2 -18 12 7 11 -18 -1 -50 -7 -18 -16 -26 -32 -25
-17 1 -19 2 -5 6 9 2 17 8 17 13 0 5 3 17 6 27 5 17 5 17 -6 0 -6 -9 -15 -15
-19 -12 -14 8 -20 -33 -7 -44 7 -6 12 -21 10 -33 -1 -13 -3 -29 -3 -35 -2 -30
-21 -10 -21 23 0 21 -4 33 -10 29 -7 -4 -8 17 -4 63 4 46 3 71 -4 76 -6 4 -8
14 -5 24 6 15 5 15 -10 3 -10 -8 -19 -12 -20 -10 -1 2 -9 12 -16 22 -12 15
-12 17 0 14 8 -2 11 -2 6 0 -4 3 -5 8 -2 13 3 4 -4 6 -15 3 -11 -3 -20 -10
-20 -17 0 -19 -20 18 -20 38 0 12 5 16 15 13 17 -7 31 11 18 24 -11 11 -81
-56 -94 -89 -5 -13 -13 -21 -19 -17 -11 7 -2 35 11 35 5 0 9 5 9 11 0 5 -5 7
-11 3 -8 -4 -9 1 -4 16 5 15 4 20 -4 16 -6 -4 -11 -14 -11 -22 0 -8 -5 -14
-11 -14 -6 0 -8 7 -5 15 17 42 16 47 -4 18 -12 -18 -27 -33 -33 -33 -6 0 -18
-7 -27 -15 -16 -14 -18 -14 -23 5 -3 11 1 27 9 34 15 16 18 27 7 25 -18 -3
-20 3 -13 36 7 32 6 35 -10 30 -26 -8 -34 24 -12 49 27 30 38 51 22 41 -18
-11 -30 15 -18 39 6 12 23 32 37 45 17 15 22 25 14 28 -15 6 -17 23 -3 23 6 0
19 9 30 20 25 25 50 26 57 1 6 -22 33 -37 33 -18 1 16 39 65 40 50 0 -9 6 -7
19 4 11 9 18 20 15 25 -3 4 0 16 5 25 9 15 10 13 11 -14 0 -27 4 -32 19 -30
29 4 51 27 51 53 0 12 4 25 8 28 5 3 108 8 230 12 l221 6 46 -26 c25 -15 56
-26 68 -23 19 3 18 5 -13 19 -19 9 -46 25 -60 35 -35 28 -56 33 -69 20 -8 -8
-14 -8 -19 -2 -4 6 -27 10 -52 10 -25 -1 -55 4 -68 9 -17 7 -26 6 -31 -2 -9
-15 -142 -6 -156 11 -5 7 -21 13 -35 15 -14 1 -33 11 -42 22 -9 11 -22 19 -29
18 -19 -4 -32 71 -17 90 10 13 10 14 1 8 -17 -10 -16 6 2 30 19 25 19 40 0 24
-8 -7 -15 -17 -15 -22 0 -5 -6 -16 -14 -23 -12 -12 -15 -12 -20 2 -4 9 -4 24
-1 33 4 13 0 18 -20 18 -20 0 -25 -5 -25 -25 0 -15 -12 -34 -29 -49 -19 -16
-27 -31 -24 -43 3 -11 0 -28 -6 -38 -10 -17 -10 -16 -11 5 0 15 -6 22 -20 22
-11 0 -20 -5 -20 -11 0 -6 7 -9 15 -5 14 5 14 2 0 -24 -9 -18 -21 -27 -29 -24
-9 3 -14 -3 -14 -18 0 -24 -41 -102 -49 -94 -3 3 2 15 11 28 22 30 20 41 -4
28 -11 -6 -20 -8 -20 -5 0 3 -10 -4 -22 -15 -33 -31 -58 -43 -58 -28 0 6 -6 4
-13 -7 -8 -10 -19 -15 -25 -11 -5 3 -13 0 -15 -6 -3 -8 -6 -6 -6 5 -1 23 -16
22 -33 -4 -12 -19 -17 -20 -37 -10 -13 8 -20 18 -17 27 3 8 1 14 -3 14 -5 0
-11 -6 -14 -12 -2 -7 -4 7 -4 32 0 58 -62 290 -84 315 -5 5 -9 25 -9 45 0 19
-9 54 -20 77 -10 23 -22 64 -25 90 -4 26 -13 72 -21 102 -9 30 -13 65 -10 77
4 14 2 24 -4 24 -12 0 -6 69 8 97 5 10 8 23 5 29 -2 6 6 19 18 30 l21 19 -7
-52 c-9 -68 -1 -79 37 -52 23 17 48 23 109 25 48 3 79 0 79 -6 0 -6 7 -10 15
-10 8 0 15 -4 15 -10 0 -5 7 -10 17 -10 15 0 15 1 0 18 -13 14 -14 21 -5 30 9
9 9 12 0 12 -7 0 -12 4 -12 10 0 14 64 23 101 13 22 -6 50 -6 79 2 38 9 46 16
55 43 11 39 34 39 53 -1 12 -25 16 -27 77 -25 57 2 65 5 79 29 24 40 21 86 -6
101 -13 7 -26 11 -30 10 -4 -1 -6 6 -5 16 3 43 -24 78 -91 117 -37 21 -79 40
-94 41 -31 4 -108 -32 -108 -50 0 -6 -4 -6 -9 3 -10 16 -81 7 -81 -10 0 -6 5
-7 10 -4 6 3 10 -1 10 -11 0 -12 -3 -14 -13 -6 -7 6 -25 12 -39 14 -15 2 -30
7 -34 11 -17 17 -74 6 -104 -19 -29 -25 -32 -26 -44 -9 -7 10 -14 45 -14 77
-1 40 -7 69 -21 91 -14 24 -20 50 -20 95 0 34 5 62 10 62 5 0 9 9 9 20 0 11 4
20 9 20 5 0 11 8 15 18 11 32 53 96 67 101 8 2 37 29 66 60 41 44 53 52 53 36
0 -12 3 -16 8 -9 4 6 16 14 27 18 16 6 18 5 8 -5 -7 -7 -13 -17 -13 -21 0 -18
33 -5 93 37 36 25 68 45 72 45 4 0 24 13 44 29 20 15 51 36 68 45 30 15 34 15
52 -1 20 -16 20 -18 3 -37 -17 -20 -17 -20 10 -3 24 15 28 15 43 1 8 -9 12
-20 9 -26 -4 -7 -9 -7 -13 1 -5 7 -18 4 -39 -9 -18 -11 -31 -24 -28 -29 3 -4
-8 -18 -25 -30 -16 -12 -27 -26 -24 -32 4 -5 -1 -9 -9 -9 -9 0 -16 -4 -16 -9
0 -22 167 52 198 87 14 16 26 22 28 16 7 -17 43 -5 84 26 89 69 175 92 269 74z
m-374 -54 c-3 -5 -11 -10 -16 -10 -6 0 -7 5 -4 10 3 6 11 10 16 10 6 0 7 -4 4
-10z m62 -32 c-3 -8 -6 -5 -6 6 -1 11 2 17 5 13 3 -3 4 -12 1 -19z m-144 -721
c-7 -11 -23 2 -23 19 0 12 2 12 14 2 8 -7 12 -16 9 -21z m-166 -23 c7 -7 10
-20 7 -28 -4 -10 -1 -16 7 -16 7 0 9 -3 6 -7 -4 -3 -46 -9 -94 -13 -60 -5
-106 -16 -145 -33 -43 -19 -58 -22 -58 -12 0 26 65 98 100 111 46 16 160 15
177 -2z m33 -4 c0 -11 -2 -20 -4 -20 -2 0 -6 9 -9 20 -3 11 -1 20 4 20 5 0 9
-9 9 -20z m-680 -670 c0 -33 -4 -60 -9 -60 -14 0 -24 56 -16 90 11 50 25 34
25 -30z m120 -92 c0 -14 -18 -9 -24 8 -11 28 -6 39 9 20 8 -11 15 -23 15 -28z
m707 -125 c-3 -10 -5 -2 -5 17 0 19 2 27 5 18 2 -10 2 -26 0 -35z m-27 7 c0
-5 -4 -10 -10 -10 -5 0 -10 5 -10 10 0 6 5 10 10 10 6 0 10 -4 10 -10z m-280
-235 c-7 -9 -15 -13 -17 -11 -7 7 7 26 19 26 6 0 6 -6 -2 -15z m-163 -82 c-2
-16 -4 -3 -4 27 0 30 2 43 4 28 2 -16 2 -40 0 -55z m205 -13 c5 0 2 -7 -7 -17
-14 -14 -18 -14 -26 -2 -13 21 -11 32 7 25 9 -3 20 -6 26 -6z m88 -355 c0 -8
-4 -15 -10 -15 -5 0 -10 7 -10 15 0 8 5 15 10 15 6 0 10 -7 10 -15z m110 0 c0
-12 -33 -70 -44 -77 -34 -23 -34 3 0 48 24 30 44 44 44 29z m31 -29 c-8 -10
-9 -15 -1 -18 7 -2 5 -11 -5 -23 -16 -19 -16 -19 -10 -1 3 11 0 23 -7 27 -9 6
-7 13 7 29 21 23 35 9 16 -14z m-454 2 c-3 -8 -6 -5 -6 6 -1 11 2 17 5 13 3
-3 4 -12 1 -19z m495 -70 l22 5 -22 -23 c-12 -13 -22 -32 -22 -41 0 -10 -4
-21 -10 -24 -13 -8 -13 11 0 35 6 12 7 21 0 25 -5 3 -6 13 -3 22 4 9 8 12 10
6 2 -6 14 -8 25 -5z m-286 -76 c-18 -16 -18 -16 -6 6 6 13 14 21 18 18 3 -4
-2 -14 -12 -24z m389 -12 c3 -5 1 -10 -4 -10 -6 0 -11 5 -11 10 0 6 2 10 4 10
3 0 8 -4 11 -10z m-205 -34 c0 -3 -4 -8 -10 -11 -5 -3 -10 -1 -10 4 0 6 5 11
10 11 6 0 10 -2 10 -4z m117 -28 c-3 -8 -6 -5 -6 6 -1 11 2 17 5 13 3 -3 4
-12 1 -19z m120 -120 c-3 -8 -6 -5 -6 6 -1 11 2 17 5 13 3 -3 4 -12 1 -19z
m-180 -50 c-3 -8 -6 -5 -6 6 -1 11 2 17 5 13 3 -3 4 -12 1 -19z m153 -277 c0
-5 10 -11 22 -14 12 -4 20 -9 16 -12 -8 -8 -58 13 -58 25 0 5 5 10 10 10 6 0
10 -4 10 -9z m120 -45 c0 -3 -4 -8 -10 -11 -5 -3 -10 -1 -10 4 0 6 5 11 10 11
6 0 10 -2 10 -4z"/>
<path d="M2750 2595 c-7 -8 -10 -20 -8 -27 3 -7 -7 -23 -20 -35 -22 -20 -22
-27 0 -25 3 1 9 -5 12 -13 3 -9 0 -12 -10 -8 -7 3 -14 1 -14 -3 0 -5 -15 -16
-32 -23 -18 -8 -38 -22 -45 -30 -14 -19 -5 -100 13 -118 19 -20 72 -16 83 6 6
10 19 21 30 24 17 4 22 -1 27 -29 3 -19 10 -32 14 -29 5 3 10 1 12 -5 2 -6 27
-13 56 -17 42 -5 56 -2 72 12 16 14 23 16 32 7 7 -7 20 -12 31 -12 10 0 25 -7
33 -15 12 -12 18 -12 29 -2 16 15 1 49 -19 41 -8 -3 -17 -1 -20 4 -14 23 -103
55 -179 67 l-82 11 43 22 c23 13 42 26 42 31 0 11 48 27 105 35 33 5 49 1 93
-24 29 -17 57 -41 62 -53 19 -42 70 -107 85 -107 21 0 41 170 24 203 -15 28
-80 97 -91 97 -5 0 -6 -6 -2 -12 6 -10 5 -10 -7 -1 -20 16 -179 39 -187 27
-11 -15 -82 -16 -82 -1 0 18 -85 20 -100 2z"/>
<path d="M3077 2320 c3 -11 14 -25 24 -30 18 -10 18 -9 1 20 -20 34 -33 40
-25 10z"/>
<path d="M2313 1952 c-13 -2 -23 -8 -23 -14 0 -6 -11 -21 -25 -34 -26 -24 -33
-44 -15 -44 6 0 10 -7 10 -15 0 -18 -12 -19 -28 -3 -9 9 -12 4 -12 -24 0 -32
4 -38 33 -46 43 -13 67 -12 67 5 0 17 17 17 23 1 4 -10 8 -10 15 1 15 21 25
-5 10 -28 -17 -27 -10 -31 40 -21 36 6 42 5 38 -7 -10 -24 5 -36 20 -16 12 17
13 16 14 -9 0 -15 5 -30 10 -33 6 -3 10 4 10 16 0 21 1 21 13 6 11 -16 17 -13
71 32 43 37 66 49 89 49 18 -1 35 6 43 17 19 25 18 32 -6 38 -14 4 -20 14 -20
35 0 59 -49 67 -105 15 -16 -15 -33 -27 -37 -26 -5 2 -8 -2 -8 -7 0 -5 -4 -10
-10 -10 -5 0 -10 7 -10 15 0 8 -7 15 -15 15 -8 0 -15 5 -15 10 0 6 -7 10 -15
10 -8 0 -15 5 -15 10 0 6 -5 10 -10 10 -6 0 -22 12 -36 27 -23 25 -51 32 -101
25z"/>
<path d="M3281 1788 c0 -18 3 -51 8 -73 l7 -40 7 57 c4 31 4 64 1 72 -10 27
-24 18 -23 -16z"/>
<path d="M2310 1695 c0 -8 5 -15 10 -15 6 0 10 7 10 15 0 8 -4 15 -10 15 -5 0
-10 -7 -10 -15z"/>
<path d="M2050 1510 c0 -5 5 -10 11 -10 5 0 7 5 4 10 -3 6 -8 10 -11 10 -2 0
-4 -4 -4 -10z"/>
<path d="M2010 1468 c0 -19 2 -20 10 -8 13 19 13 30 0 30 -5 0 -10 -10 -10
-22z"/>
<path d="M2417 1223 c-13 -3 -16 -10 -11 -26 10 -33 24 -44 24 -19 0 17 5 21
30 19 27 -2 30 -6 31 -37 l1 -35 14 40 14 40 -6 -48 -5 -48 54 6 c29 2 70 11
91 18 34 12 36 14 21 32 -13 17 -16 18 -25 5 -9 -12 -10 -12 -8 5 2 16 -4 21
-31 23 -20 2 -37 -2 -42 -10 -7 -10 -10 -8 -15 8 -8 29 -77 43 -137 27z"/>
<path d="M2297 943 c-4 -3 -7 -18 -7 -31 0 -31 12 -22 15 13 3 27 2 29 -8 18z"/>
<path d="M2035 930 c-3 -6 1 -7 9 -4 18 7 21 14 7 14 -6 0 -13 -4 -16 -10z"/>
<path d="M2315 858 c-3 -13 -1 -36 3 -53 8 -26 9 -23 9 23 -1 57 -4 64 -12 30z"/>
</g>
</svg>
