<svg width="448" height="272" viewBox="0 0 448 272" fill="none" xmlns="http://www.w3.org/2000/svg">
<g clip-path="url(#clip0)">
<path d="M0 0H448V272H0V0Z" fill="white"/>
<path d="M0 0L448 -3.91654e-05" stroke="#E3E8EE" stroke-width="2" stroke-linecap="round" stroke-linejoin="round" stroke-dasharray="0.01 16"/>
<path d="M0 16L448 16" stroke="#E3E8EE" stroke-width="2" stroke-linecap="round" stroke-linejoin="round" stroke-dasharray="0.01 16"/>
<path d="M0 32L448 32" stroke="#E3E8EE" stroke-width="2" stroke-linecap="round" stroke-linejoin="round" stroke-dasharray="0.01 16"/>
<path d="M0 48L448 48" stroke="#E3E8EE" stroke-width="2" stroke-linecap="round" stroke-linejoin="round" stroke-dasharray="0.01 16"/>
<path d="M0 64L448 64" stroke="#E3E8EE" stroke-width="2" stroke-linecap="round" stroke-linejoin="round" stroke-dasharray="0.01 16"/>
<path d="M0 80L448 80" stroke="#E3E8EE" stroke-width="2" stroke-linecap="round" stroke-linejoin="round" stroke-dasharray="0.01 16"/>
<path d="M0 96L448 96" stroke="#E3E8EE" stroke-width="2" stroke-linecap="round" stroke-linejoin="round" stroke-dasharray="0.01 16"/>
<path d="M0 112L448 112" stroke="#E3E8EE" stroke-width="2" stroke-linecap="round" stroke-linejoin="round" stroke-dasharray="0.01 16"/>
<path d="M0 128L448 128" stroke="#E3E8EE" stroke-width="2" stroke-linecap="round" stroke-linejoin="round" stroke-dasharray="0.01 16"/>
<path d="M0 144L448 144" stroke="#E3E8EE" stroke-width="2" stroke-linecap="round" stroke-linejoin="round" stroke-dasharray="0.01 16"/>
<path d="M0 160L448 160" stroke="#E3E8EE" stroke-width="2" stroke-linecap="round" stroke-linejoin="round" stroke-dasharray="0.01 16"/>
<path d="M0 176L448 176" stroke="#E3E8EE" stroke-width="2" stroke-linecap="round" stroke-linejoin="round" stroke-dasharray="0.01 16"/>
<path d="M0 192L448 192" stroke="#E3E8EE" stroke-width="2" stroke-linecap="round" stroke-linejoin="round" stroke-dasharray="0.01 16"/>
<path d="M0 208L448 208" stroke="#E3E8EE" stroke-width="2" stroke-linecap="round" stroke-linejoin="round" stroke-dasharray="0.01 16"/>
<path d="M0 224L448 224" stroke="#E3E8EE" stroke-width="2" stroke-linecap="round" stroke-linejoin="round" stroke-dasharray="0.01 16"/>
<path d="M0 240L448 240" stroke="#E3E8EE" stroke-width="2" stroke-linecap="round" stroke-linejoin="round" stroke-dasharray="0.01 16"/>
<path d="M0 256L448 256" stroke="#E3E8EE" stroke-width="2" stroke-linecap="round" stroke-linejoin="round" stroke-dasharray="0.01 16"/>
<path d="M0 272L448 272" stroke="#E3E8EE" stroke-width="2" stroke-linecap="round" stroke-linejoin="round" stroke-dasharray="0.01 16"/>
<rect x="0.5" y="0.5" width="447" height="271" stroke="white"/>
</g>
<path d="M32 196C32 193.791 33.7909 192 36 192H412C414.209 192 416 193.791 416 196V236C416 238.209 414.209 240 412 240H36C33.7909 240 32 238.209 32 236V196Z" fill="#8792A2"/>
<rect x="30" y="190" width="388" height="52" rx="6" fill="#C1C9D2" stroke="white" stroke-width="4"/>
<path d="M146.5 222H149.055L145.141 210.727H142.367L138.453 222H140.82L141.688 219.266H145.648L146.5 222ZM143.609 213.016H143.75L145.148 217.5H142.195L143.609 213.016ZM153.367 222.133C154.562 222.133 155.539 221.578 156 220.648H156.141V222H158.344V210.109H156.07V214.773H155.938C155.492 213.82 154.531 213.258 153.367 213.258C151.203 213.258 149.859 214.953 149.859 217.688C149.859 220.43 151.195 222.133 153.367 222.133ZM154.141 215.102C155.352 215.102 156.094 216.094 156.094 217.703C156.094 219.312 155.359 220.297 154.141 220.297C152.922 220.297 152.195 219.32 152.195 217.695C152.195 216.078 152.93 215.102 154.141 215.102ZM163.789 222.133C164.984 222.133 165.961 221.578 166.422 220.648H166.562V222H168.766V210.109H166.492V214.773H166.359C165.914 213.82 164.953 213.258 163.789 213.258C161.625 213.258 160.281 214.953 160.281 217.688C160.281 220.43 161.617 222.133 163.789 222.133ZM164.562 215.102C165.773 215.102 166.516 216.094 166.516 217.703C166.516 219.312 165.781 220.297 164.562 220.297C163.344 220.297 162.617 219.32 162.617 217.695C162.617 216.078 163.352 215.102 164.562 215.102ZM180.227 213.258C179.039 213.258 178.062 213.844 177.594 214.812H177.453V213.398H175.25V224.852H177.523V220.688H177.664C178.086 221.594 179.031 222.133 180.266 222.133C182.422 222.133 183.742 220.461 183.742 217.695C183.742 214.922 182.406 213.258 180.227 213.258ZM179.453 220.297C178.25 220.297 177.5 219.312 177.5 217.703C177.5 216.094 178.25 215.102 179.461 215.102C180.672 215.102 181.406 216.078 181.406 217.695C181.406 219.32 180.68 220.297 179.453 220.297ZM187.953 222.133C189.07 222.133 190.008 221.656 190.453 220.859H190.594V222H192.797V216.125C192.797 214.289 191.508 213.211 189.227 213.211C187.062 213.211 185.602 214.203 185.453 215.781H187.547C187.734 215.242 188.281 214.953 189.102 214.953C190.039 214.953 190.555 215.383 190.555 216.125V216.836L188.469 216.961C186.328 217.086 185.133 217.992 185.133 219.547C185.133 221.117 186.297 222.133 187.953 222.133ZM188.703 220.469C187.914 220.469 187.359 220.07 187.359 219.406C187.359 218.773 187.836 218.406 188.812 218.344L190.555 218.227V218.867C190.555 219.773 189.758 220.469 188.703 220.469ZM195.867 225.125C198.016 225.125 199.07 224.359 199.805 222.164L202.773 213.398H200.367L198.555 219.961H198.414L196.602 213.398H194.094L197.117 222.047L197.039 222.375C196.852 223.07 196.367 223.352 195.516 223.352C195.422 223.352 195.078 223.344 195 223.328V225.102C195.094 225.117 195.781 225.125 195.867 225.125ZM204.359 222H206.633V216.812C206.633 215.828 207.266 215.109 208.156 215.109C209.047 215.109 209.578 215.641 209.578 216.562V222H211.766V216.711C211.766 215.781 212.359 215.109 213.281 215.109C214.242 215.109 214.719 215.625 214.719 216.664V222H216.992V216.094C216.992 214.32 215.922 213.211 214.203 213.211C213 213.211 212.008 213.844 211.609 214.797H211.469C211.125 213.812 210.297 213.211 209.086 213.211C207.953 213.211 207.055 213.812 206.703 214.797H206.562V213.398H204.359V222ZM224.773 219.57C224.531 220.156 223.914 220.484 223.016 220.484C221.828 220.484 221.078 219.664 221.047 218.352V218.234H226.961V217.555C226.961 214.836 225.461 213.211 222.922 213.211C220.359 213.211 218.781 214.945 218.781 217.742C218.781 220.523 220.328 222.18 222.953 222.18C225.062 222.18 226.555 221.172 226.891 219.57H224.773ZM222.93 214.906C223.992 214.906 224.68 215.641 224.727 216.82H221.055C221.133 215.664 221.875 214.906 222.93 214.906ZM228.828 222H231.102V217.023C231.102 215.859 231.75 215.109 232.805 215.109C233.883 215.109 234.391 215.742 234.391 216.953V222H236.664V216.438C236.664 214.383 235.633 213.211 233.719 213.211C232.445 213.211 231.57 213.812 231.172 214.781H231.031V213.398H228.828V222ZM239.523 211.344V213.477H238.18V215.203H239.523V219.68C239.523 221.352 240.352 222.031 242.445 222.031C242.883 222.031 243.305 221.984 243.586 221.93V220.25C243.367 220.273 243.211 220.289 242.914 220.289C242.141 220.289 241.797 219.93 241.797 219.156V215.203H243.586V213.477H241.797V211.344H239.523ZM249.609 222H251.883V216.812C251.883 215.828 252.516 215.109 253.406 215.109C254.297 215.109 254.828 215.641 254.828 216.562V222H257.016V216.711C257.016 215.781 257.609 215.109 258.531 215.109C259.492 215.109 259.969 215.625 259.969 216.664V222H262.242V216.094C262.242 214.32 261.172 213.211 259.453 213.211C258.25 213.211 257.258 213.844 256.859 214.797H256.719C256.375 213.812 255.547 213.211 254.336 213.211C253.203 213.211 252.305 213.812 251.953 214.797H251.812V213.398H249.609V222ZM270.023 219.57C269.781 220.156 269.164 220.484 268.266 220.484C267.078 220.484 266.328 219.664 266.297 218.352V218.234H272.211V217.555C272.211 214.836 270.711 213.211 268.172 213.211C265.609 213.211 264.031 214.945 264.031 217.742C264.031 220.523 265.578 222.18 268.203 222.18C270.312 222.18 271.805 221.172 272.141 219.57H270.023ZM268.18 214.906C269.242 214.906 269.93 215.641 269.977 216.82H266.305C266.383 215.664 267.125 214.906 268.18 214.906ZM274.727 211.344V213.477H273.383V215.203H274.727V219.68C274.727 221.352 275.555 222.031 277.648 222.031C278.086 222.031 278.508 221.984 278.789 221.93V220.25C278.57 220.273 278.414 220.289 278.117 220.289C277.344 220.289 277 219.93 277 219.156V215.203H278.789V213.477H277V211.344H274.727ZM280.766 222H283.039V217.047C283.039 215.906 283.695 215.133 284.836 215.133C285.867 215.133 286.422 215.758 286.422 216.977V222H288.695V216.461C288.695 214.398 287.594 213.234 285.742 213.234C284.477 213.234 283.539 213.828 283.141 214.805H283V210.109H280.766V222ZM294.727 222.18C297.375 222.18 298.969 220.508 298.969 217.695C298.969 214.906 297.352 213.211 294.727 213.211C292.102 213.211 290.484 214.914 290.484 217.695C290.484 220.5 292.078 222.18 294.727 222.18ZM294.727 220.383C293.508 220.383 292.82 219.398 292.82 217.695C292.82 216.008 293.516 215.016 294.727 215.016C295.93 215.016 296.633 216.008 296.633 217.695C296.633 219.398 295.938 220.383 294.727 220.383ZM303.914 222.133C305.109 222.133 306.086 221.578 306.547 220.648H306.688V222H308.891V210.109H306.617V214.773H306.484C306.039 213.82 305.078 213.258 303.914 213.258C301.75 213.258 300.406 214.953 300.406 217.688C300.406 220.43 301.742 222.133 303.914 222.133ZM304.688 215.102C305.898 215.102 306.641 216.094 306.641 217.703C306.641 219.312 305.906 220.297 304.688 220.297C303.469 220.297 302.742 219.32 302.742 217.695C302.742 216.078 303.477 215.102 304.688 215.102Z" fill="white"/>
<rect x="30" y="78" width="388" height="100" rx="6" fill="white"/>
<path d="M32.5 84C32.5 82.0969 34.1555 80.5 36.2667 80.5H411.733C413.845 80.5 415.5 82.0969 415.5 84V172C415.5 173.903 413.845 175.5 411.733 175.5H36.2667C34.1555 175.5 32.5 173.903 32.5 172V84Z" fill="white" stroke="#C1C9D2"/>
<path d="M32 128H415M225.474 128V176" stroke="#C1C9D2"/>
<path d="M53.7266 110.266C56.125 110.266 57.9062 108.93 58.2812 106.859H56.8516C56.4922 108.164 55.2969 108.969 53.7266 108.969C51.5547 108.969 50.1953 107.195 50.1953 104.367C50.1953 101.539 51.5547 99.7578 53.7188 99.7578C55.2734 99.7578 56.4766 100.672 56.8516 102.125H58.2812C57.9453 99.9531 56.0938 98.4609 53.7188 98.4609C50.6562 98.4609 48.75 100.727 48.75 104.367C48.75 108 50.6641 110.266 53.7266 110.266ZM62.8125 110.148C63.9375 110.148 64.8594 109.656 65.4062 108.758H65.5312V110H66.8125V104.234C66.8125 102.484 65.6641 101.43 63.6094 101.43C61.8125 101.43 60.4844 102.32 60.3047 103.672H61.6641C61.8516 103.008 62.5547 102.625 63.5625 102.625C64.8203 102.625 65.4688 103.195 65.4688 104.234V105L63.0391 105.148C61.0781 105.266 59.9688 106.133 59.9688 107.641C59.9688 109.18 61.1797 110.148 62.8125 110.148ZM63.0625 108.969C62.0859 108.969 61.3594 108.469 61.3594 107.609C61.3594 106.766 61.9219 106.32 63.2031 106.234L65.4688 106.086V106.859C65.4688 108.062 64.4453 108.969 63.0625 108.969ZM69.2969 110H70.6406V104.781C70.6406 103.594 71.5703 102.734 72.8516 102.734C73.1172 102.734 73.6016 102.781 73.7109 102.812V101.469C73.5391 101.445 73.2578 101.43 73.0391 101.43C71.9219 101.43 70.9531 102.008 70.7031 102.828H70.5781V101.578H69.2969V110ZM78.2734 110.148C79.4375 110.148 80.4375 109.594 80.9688 108.656H81.0938V110H82.375V98.2344H81.0312V102.906H80.9141C80.4375 101.984 79.4453 101.43 78.2734 101.43C76.1328 101.43 74.7344 103.148 74.7344 105.789C74.7344 108.438 76.1172 110.148 78.2734 110.148ZM78.5859 102.641C80.1094 102.641 81.0625 103.859 81.0625 105.789C81.0625 107.734 80.1172 108.938 78.5859 108.938C77.0469 108.938 76.125 107.758 76.125 105.789C76.125 103.828 77.0547 102.641 78.5859 102.641ZM89.5 110H90.8438V105.016C90.8438 103.539 91.7109 102.641 93.0547 102.641C94.3984 102.641 95.0391 103.359 95.0391 104.875V110H96.3828V104.547C96.3828 102.547 95.3281 101.43 93.4375 101.43C92.1484 101.43 91.3281 101.977 90.9062 102.906H90.7812V101.578H89.5V110ZM105.656 101.578H104.312V106.562C104.312 108.039 103.5 108.922 102.016 108.922C100.672 108.922 100.109 108.219 100.109 106.703V101.578H98.7656V107.031C98.7656 109.023 99.75 110.148 101.641 110.148C102.93 110.148 103.828 109.617 104.25 108.68H104.375V110H105.656V101.578ZM108.188 110H109.531V104.781C109.531 103.594 110.383 102.641 111.484 102.641C112.547 102.641 113.242 103.281 113.242 104.281V110H114.586V104.586C114.586 103.516 115.367 102.641 116.539 102.641C117.727 102.641 118.312 103.25 118.312 104.492V110H119.656V104.18C119.656 102.414 118.695 101.43 116.977 101.43C115.812 101.43 114.852 102.016 114.398 102.906H114.273C113.883 102.031 113.086 101.43 111.945 101.43C110.82 101.43 109.977 101.969 109.594 102.906H109.469V101.578H108.188V110ZM126.297 110.148C128.43 110.148 129.828 108.422 129.828 105.789C129.828 103.141 128.438 101.43 126.297 101.43C125.141 101.43 124.117 102 123.656 102.906H123.531V98.2344H122.188V110H123.469V108.656H123.594C124.125 109.594 125.125 110.148 126.297 110.148ZM125.984 102.641C127.523 102.641 128.438 103.82 128.438 105.789C128.438 107.758 127.523 108.938 125.984 108.938C124.453 108.938 123.5 107.734 123.5 105.789C123.5 103.844 124.453 102.641 125.984 102.641ZM137.516 107.82C137.164 108.562 136.43 108.961 135.344 108.961C133.914 108.961 132.984 107.906 132.914 106.242V106.18H138.969V105.664C138.969 103.047 137.586 101.43 135.312 101.43C133 101.43 131.516 103.148 131.516 105.797C131.516 108.461 132.977 110.148 135.312 110.148C137.156 110.148 138.469 109.258 138.859 107.82H137.516ZM135.297 102.617C136.633 102.617 137.523 103.602 137.555 105.094H132.914C133.016 103.602 133.953 102.617 135.297 102.617ZM141.078 110H142.422V104.781C142.422 103.594 143.352 102.734 144.633 102.734C144.898 102.734 145.383 102.781 145.492 102.812V101.469C145.32 101.445 145.039 101.43 144.82 101.43C143.703 101.43 142.734 102.008 142.484 102.828H142.359V101.578H141.078V110Z" fill="#8792A2"/>
<path d="M60.2969 158V146.727H58.6641L54.8047 156.133H54.6797L50.8203 146.727H49.1875V158H50.5V149.391H50.5938L54.1484 158H55.3359L58.8906 149.391H58.9844V158H60.2969ZM74.2812 158V146.727H72.6484L68.7891 156.133H68.6641L64.8047 146.727H63.1719V158H64.4844V149.391H64.5781L68.1328 158H69.3203L72.875 149.391H72.9688V158H74.2812ZM76.9219 160.398L80.9844 146.234H79.8438L75.7812 160.398H76.9219ZM87 158V153.148L91 146.727H89.3984L86.3594 151.734H86.2344L83.1953 146.727H81.5938L85.5938 153.148V158H87ZM97.5 158V153.148L101.5 146.727H99.8984L96.8594 151.734H96.7344L93.6953 146.727H92.0938L96.0938 153.148V158H97.5Z" fill="#8792A2"/>
<path d="M250.977 158.266C253.375 158.266 255.156 156.93 255.531 154.859H254.102C253.742 156.164 252.547 156.969 250.977 156.969C248.805 156.969 247.445 155.195 247.445 152.367C247.445 149.539 248.805 147.758 250.969 147.758C252.523 147.758 253.727 148.672 254.102 150.125H255.531C255.195 147.953 253.344 146.461 250.969 146.461C247.906 146.461 246 148.727 246 152.367C246 156 247.914 158.266 250.977 158.266ZM262.539 158L266.695 146.727H265.219L261.906 156.18H261.781L258.469 146.727H256.992L261.148 158H262.539ZM272.82 158.266C275.219 158.266 277 156.93 277.375 154.859H275.945C275.586 156.164 274.391 156.969 272.82 156.969C270.648 156.969 269.289 155.195 269.289 152.367C269.289 149.539 270.648 147.758 272.812 147.758C274.367 147.758 275.57 148.672 275.945 150.125H277.375C277.039 147.953 275.188 146.461 272.812 146.461C269.75 146.461 267.844 148.727 267.844 152.367C267.844 156 269.758 158.266 272.82 158.266Z" fill="#8792A2"/>
<path fill-rule="evenodd" clip-rule="evenodd" d="M400 99.5H380V98.5625C380 97.6996 380.56 97 381.25 97H398.75C399.44 97 400 97.6996 400 98.5625V99.5ZM400 102.625V110.75C400 111.44 399.44 112 398.75 112H381.25C380.56 112 380 111.44 380 110.75V102.625H400ZM385 107C384.31 107 383.75 107.56 383.75 108.25C383.75 108.94 384.31 109.5 385 109.5H386.25C386.94 109.5 387.5 108.94 387.5 108.25C387.5 107.56 386.94 107 386.25 107H385Z" fill="#4F566B"/>
<rect x="30" y="78" width="388" height="100" rx="6" stroke="#F7FAFC" stroke-width="4"/>
<rect x="30" y="26" width="247" height="28" fill="white"/>
<path d="M32.8594 42.8828C32.9453 44.9688 34.6875 46.2891 37.375 46.2891C40.2031 46.2891 41.9453 44.8984 41.9453 42.6484C41.9453 40.9062 40.9688 39.9297 38.7031 39.4453L37.3438 39.1562C36.0234 38.8672 35.4844 38.4531 35.4844 37.7422C35.4844 36.8594 36.2656 36.2891 37.4453 36.2891C38.5859 36.2891 39.4141 36.8906 39.5234 37.8125H41.7422C41.6719 35.8203 39.9141 34.4375 37.4297 34.4375C34.8281 34.4375 33.1172 35.8281 33.1172 37.9297C33.1172 39.6406 34.125 40.6953 36.1797 41.1328L37.6484 41.4531C39.0312 41.7578 39.5938 42.1875 39.5938 42.9297C39.5938 43.8047 38.7266 44.4219 37.5 44.4219C36.1719 44.4219 35.25 43.8203 35.1406 42.8828H32.8594ZM49.5234 43.5703C49.2812 44.1562 48.6641 44.4844 47.7656 44.4844C46.5781 44.4844 45.8281 43.6641 45.7969 42.3516V42.2344H51.7109V41.5547C51.7109 38.8359 50.2109 37.2109 47.6719 37.2109C45.1094 37.2109 43.5312 38.9453 43.5312 41.7422C43.5312 44.5234 45.0781 46.1797 47.7031 46.1797C49.8125 46.1797 51.3047 45.1719 51.6406 43.5703H49.5234ZM47.6797 38.9062C48.7422 38.9062 49.4297 39.6406 49.4766 40.8203H45.8047C45.8828 39.6641 46.625 38.9062 47.6797 38.9062ZM54.2266 35.3438V37.4766H52.8828V39.2031H54.2266V43.6797C54.2266 45.3516 55.0547 46.0312 57.1484 46.0312C57.5859 46.0312 58.0078 45.9844 58.2891 45.9297V44.25C58.0703 44.2734 57.9141 44.2891 57.6172 44.2891C56.8438 44.2891 56.5 43.9297 56.5 43.1562V39.2031H58.2891V37.4766H56.5V35.3438H54.2266ZM72.1094 37.3984H69.8359V42.3672C69.8359 43.5469 69.2266 44.2734 68.0938 44.2734C67.0469 44.2734 66.5078 43.6562 66.5078 42.4375V37.3984H64.2344V43C64.2344 45 65.3906 46.1797 67.25 46.1797C68.5547 46.1797 69.3594 45.6172 69.7656 44.6172H69.9062V46H72.1094V37.3984ZM79.3672 37.2578C78.1797 37.2578 77.2031 37.8438 76.7344 38.8125H76.5938V37.3984H74.3906V48.8516H76.6641V44.6875H76.8047C77.2266 45.5938 78.1719 46.1328 79.4062 46.1328C81.5625 46.1328 82.8828 44.4609 82.8828 41.6953C82.8828 38.9219 81.5469 37.2578 79.3672 37.2578ZM78.5938 44.2969C77.3906 44.2969 76.6406 43.3125 76.6406 41.7031C76.6406 40.0938 77.3906 39.1016 78.6016 39.1016C79.8125 39.1016 80.5469 40.0781 80.5469 41.6953C80.5469 43.3203 79.8203 44.2969 78.5938 44.2969ZM91.2188 46.1328C92.3359 46.1328 93.2734 45.6562 93.7188 44.8594H93.8594V46H96.0625V40.125C96.0625 38.2891 94.7734 37.2109 92.4922 37.2109C90.3281 37.2109 88.8672 38.2031 88.7188 39.7812H90.8125C91 39.2422 91.5469 38.9531 92.3672 38.9531C93.3047 38.9531 93.8203 39.3828 93.8203 40.125V40.8359L91.7344 40.9609C89.5938 41.0859 88.3984 41.9922 88.3984 43.5469C88.3984 45.1172 89.5625 46.1328 91.2188 46.1328ZM91.9688 44.4688C91.1797 44.4688 90.625 44.0703 90.625 43.4062C90.625 42.7734 91.1016 42.4062 92.0781 42.3438L93.8203 42.2266V42.8672C93.8203 43.7734 93.0234 44.4688 91.9688 44.4688ZM102.422 46H104.695V41.0234C104.695 39.8594 105.344 39.1094 106.398 39.1094C107.477 39.1094 107.984 39.7422 107.984 40.9531V46H110.258V40.4375C110.258 38.3828 109.227 37.2109 107.312 37.2109C106.039 37.2109 105.164 37.8125 104.766 38.7812H104.625V37.3984H102.422V46ZM118.039 43.5703C117.797 44.1562 117.18 44.4844 116.281 44.4844C115.094 44.4844 114.344 43.6641 114.312 42.3516V42.2344H120.227V41.5547C120.227 38.8359 118.727 37.2109 116.188 37.2109C113.625 37.2109 112.047 38.9453 112.047 41.7422C112.047 44.5234 113.594 46.1797 116.219 46.1797C118.328 46.1797 119.82 45.1719 120.156 43.5703H118.039ZM116.195 38.9062C117.258 38.9062 117.945 39.6406 117.992 40.8203H114.32C114.398 39.6641 115.141 38.9062 116.195 38.9062ZM133.875 37.3984H131.617L130.336 43.625H130.195L128.68 37.3984H126.508L125 43.625H124.859L123.578 37.3984H121.273L123.57 46H125.961L127.484 40H127.625L129.164 46H131.586L133.875 37.3984ZM144.602 37.2578C143.414 37.2578 142.438 37.8438 141.969 38.8125H141.828V37.3984H139.625V48.8516H141.898V44.6875H142.039C142.461 45.5938 143.406 46.1328 144.641 46.1328C146.797 46.1328 148.117 44.4609 148.117 41.6953C148.117 38.9219 146.781 37.2578 144.602 37.2578ZM143.828 44.2969C142.625 44.2969 141.875 43.3125 141.875 41.7031C141.875 40.0938 142.625 39.1016 143.836 39.1016C145.047 39.1016 145.781 40.0781 145.781 41.6953C145.781 43.3203 145.055 44.2969 143.828 44.2969ZM152.328 46.1328C153.445 46.1328 154.383 45.6562 154.828 44.8594H154.969V46H157.172V40.125C157.172 38.2891 155.883 37.2109 153.602 37.2109C151.438 37.2109 149.977 38.2031 149.828 39.7812H151.922C152.109 39.2422 152.656 38.9531 153.477 38.9531C154.414 38.9531 154.93 39.3828 154.93 40.125V40.8359L152.844 40.9609C150.703 41.0859 149.508 41.9922 149.508 43.5469C149.508 45.1172 150.672 46.1328 152.328 46.1328ZM153.078 44.4688C152.289 44.4688 151.734 44.0703 151.734 43.4062C151.734 42.7734 152.211 42.4062 153.188 42.3438L154.93 42.2266V42.8672C154.93 43.7734 154.133 44.4688 153.078 44.4688ZM160.242 49.125C162.391 49.125 163.445 48.3594 164.18 46.1641L167.148 37.3984H164.742L162.93 43.9609H162.789L160.977 37.3984H158.469L161.492 46.0469L161.414 46.375C161.227 47.0703 160.742 47.3516 159.891 47.3516C159.797 47.3516 159.453 47.3438 159.375 47.3281V49.1016C159.469 49.1172 160.156 49.125 160.242 49.125ZM168.734 46H171.008V40.8125C171.008 39.8281 171.641 39.1094 172.531 39.1094C173.422 39.1094 173.953 39.6406 173.953 40.5625V46H176.141V40.7109C176.141 39.7812 176.734 39.1094 177.656 39.1094C178.617 39.1094 179.094 39.625 179.094 40.6641V46H181.367V40.0938C181.367 38.3203 180.297 37.2109 178.578 37.2109C177.375 37.2109 176.383 37.8438 175.984 38.7969H175.844C175.5 37.8125 174.672 37.2109 173.461 37.2109C172.328 37.2109 171.43 37.8125 171.078 38.7969H170.938V37.3984H168.734V46ZM189.148 43.5703C188.906 44.1562 188.289 44.4844 187.391 44.4844C186.203 44.4844 185.453 43.6641 185.422 42.3516V42.2344H191.336V41.5547C191.336 38.8359 189.836 37.2109 187.297 37.2109C184.734 37.2109 183.156 38.9453 183.156 41.7422C183.156 44.5234 184.703 46.1797 187.328 46.1797C189.438 46.1797 190.93 45.1719 191.266 43.5703H189.148ZM187.305 38.9062C188.367 38.9062 189.055 39.6406 189.102 40.8203H185.43C185.508 39.6641 186.25 38.9062 187.305 38.9062ZM193.203 46H195.477V41.0234C195.477 39.8594 196.125 39.1094 197.18 39.1094C198.258 39.1094 198.766 39.7422 198.766 40.9531V46H201.039V40.4375C201.039 38.3828 200.008 37.2109 198.094 37.2109C196.82 37.2109 195.945 37.8125 195.547 38.7812H195.406V37.3984H193.203V46ZM203.898 35.3438V37.4766H202.555V39.2031H203.898V43.6797C203.898 45.3516 204.727 46.0312 206.82 46.0312C207.258 46.0312 207.68 45.9844 207.961 45.9297V44.25C207.742 44.2734 207.586 44.2891 207.289 44.2891C206.516 44.2891 206.172 43.9297 206.172 43.1562V39.2031H207.961V37.4766H206.172V35.3438H203.898ZM213.984 46H216.258V40.8125C216.258 39.8281 216.891 39.1094 217.781 39.1094C218.672 39.1094 219.203 39.6406 219.203 40.5625V46H221.391V40.7109C221.391 39.7812 221.984 39.1094 222.906 39.1094C223.867 39.1094 224.344 39.625 224.344 40.6641V46H226.617V40.0938C226.617 38.3203 225.547 37.2109 223.828 37.2109C222.625 37.2109 221.633 37.8438 221.234 38.7969H221.094C220.75 37.8125 219.922 37.2109 218.711 37.2109C217.578 37.2109 216.68 37.8125 216.328 38.7969H216.188V37.3984H213.984V46ZM234.398 43.5703C234.156 44.1562 233.539 44.4844 232.641 44.4844C231.453 44.4844 230.703 43.6641 230.672 42.3516V42.2344H236.586V41.5547C236.586 38.8359 235.086 37.2109 232.547 37.2109C229.984 37.2109 228.406 38.9453 228.406 41.7422C228.406 44.5234 229.953 46.1797 232.578 46.1797C234.688 46.1797 236.18 45.1719 236.516 43.5703H234.398ZM232.555 38.9062C233.617 38.9062 234.305 39.6406 234.352 40.8203H230.68C230.758 39.6641 231.5 38.9062 232.555 38.9062ZM239.102 35.3438V37.4766H237.758V39.2031H239.102V43.6797C239.102 45.3516 239.93 46.0312 242.023 46.0312C242.461 46.0312 242.883 45.9844 243.164 45.9297V44.25C242.945 44.2734 242.789 44.2891 242.492 44.2891C241.719 44.2891 241.375 43.9297 241.375 43.1562V39.2031H243.164V37.4766H241.375V35.3438H239.102ZM245.141 46H247.414V41.0469C247.414 39.9062 248.07 39.1328 249.211 39.1328C250.242 39.1328 250.797 39.7578 250.797 40.9766V46H253.07V40.4609C253.07 38.3984 251.969 37.2344 250.117 37.2344C248.852 37.2344 247.914 37.8281 247.516 38.8047H247.375V34.1094H245.141V46ZM259.102 46.1797C261.75 46.1797 263.344 44.5078 263.344 41.6953C263.344 38.9062 261.727 37.2109 259.102 37.2109C256.477 37.2109 254.859 38.9141 254.859 41.6953C254.859 44.5 256.453 46.1797 259.102 46.1797ZM259.102 44.3828C257.883 44.3828 257.195 43.3984 257.195 41.6953C257.195 40.0078 257.891 39.0156 259.102 39.0156C260.305 39.0156 261.008 40.0078 261.008 41.6953C261.008 43.3984 260.312 44.3828 259.102 44.3828ZM268.289 46.1328C269.484 46.1328 270.461 45.5781 270.922 44.6484H271.062V46H273.266V34.1094H270.992V38.7734H270.859C270.414 37.8203 269.453 37.2578 268.289 37.2578C266.125 37.2578 264.781 38.9531 264.781 41.6875C264.781 44.4297 266.117 46.1328 268.289 46.1328ZM269.062 39.1016C270.273 39.1016 271.016 40.0938 271.016 41.7031C271.016 43.3125 270.281 44.2969 269.062 44.2969C267.844 44.2969 267.117 43.3203 267.117 41.6953C267.117 40.0781 267.852 39.1016 269.062 39.1016Z" fill="#3C4257"/>
<rect x="30" y="26" width="247" height="28" stroke="white" stroke-width="4"/>
<rect x="0.5" y="0.5" width="447" height="271" rx="7.5" stroke="#E3E8EE"/>
<defs>
<clipPath id="clip0">
<path d="M0 0H448V272H0V0Z" fill="white"/>
</clipPath>
</defs>
</svg>
