<svg width="448" height="240" viewBox="0 0 448 240" fill="none" xmlns="http://www.w3.org/2000/svg">
<g clip-path="url(#clip0)">
<path d="M0 0H448V240H0V0Z" fill="white"/>
<path d="M0 0L448 -3.91654e-05" stroke="#E3E8EE" stroke-width="2" stroke-linecap="round" stroke-linejoin="round" stroke-dasharray="0.01 16"/>
<path d="M0 16L448 16" stroke="#E3E8EE" stroke-width="2" stroke-linecap="round" stroke-linejoin="round" stroke-dasharray="0.01 16"/>
<path d="M0 32L448 32" stroke="#E3E8EE" stroke-width="2" stroke-linecap="round" stroke-linejoin="round" stroke-dasharray="0.01 16"/>
<path d="M0 48L448 48" stroke="#E3E8EE" stroke-width="2" stroke-linecap="round" stroke-linejoin="round" stroke-dasharray="0.01 16"/>
<path d="M0 64L448 64" stroke="#E3E8EE" stroke-width="2" stroke-linecap="round" stroke-linejoin="round" stroke-dasharray="0.01 16"/>
<path d="M0 80L448 80" stroke="#E3E8EE" stroke-width="2" stroke-linecap="round" stroke-linejoin="round" stroke-dasharray="0.01 16"/>
<path d="M0 96L448 96" stroke="#E3E8EE" stroke-width="2" stroke-linecap="round" stroke-linejoin="round" stroke-dasharray="0.01 16"/>
<path d="M0 112L448 112" stroke="#E3E8EE" stroke-width="2" stroke-linecap="round" stroke-linejoin="round" stroke-dasharray="0.01 16"/>
<path d="M0 128L448 128" stroke="#E3E8EE" stroke-width="2" stroke-linecap="round" stroke-linejoin="round" stroke-dasharray="0.01 16"/>
<path d="M0 144L448 144" stroke="#E3E8EE" stroke-width="2" stroke-linecap="round" stroke-linejoin="round" stroke-dasharray="0.01 16"/>
<path d="M0 160L448 160" stroke="#E3E8EE" stroke-width="2" stroke-linecap="round" stroke-linejoin="round" stroke-dasharray="0.01 16"/>
<path d="M0 176L448 176" stroke="#E3E8EE" stroke-width="2" stroke-linecap="round" stroke-linejoin="round" stroke-dasharray="0.01 16"/>
<path d="M0 192L448 192" stroke="#E3E8EE" stroke-width="2" stroke-linecap="round" stroke-linejoin="round" stroke-dasharray="0.01 16"/>
<path d="M0 208L448 208" stroke="#E3E8EE" stroke-width="2" stroke-linecap="round" stroke-linejoin="round" stroke-dasharray="0.01 16"/>
<path d="M0 224L448 224" stroke="#E3E8EE" stroke-width="2" stroke-linecap="round" stroke-linejoin="round" stroke-dasharray="0.01 16"/>
<path d="M0 240L448 240" stroke="#E3E8EE" stroke-width="2" stroke-linecap="round" stroke-linejoin="round" stroke-dasharray="0.01 16"/>
<rect x="0.5" y="0.5" width="447" height="239" stroke="white"/>
</g>
<rect x="30" y="142" width="396" height="52" fill="white"/>
<path d="M37.9531 162V157.148L41.9531 150.727H40.3516L37.3125 155.734H37.1875L34.1484 150.727H32.5469L36.5469 157.148V162H37.9531ZM45.8984 162.148C48.2969 162.148 49.7812 160.492 49.7812 157.789C49.7812 155.078 48.2969 153.43 45.8984 153.43C43.5 153.43 42.0156 155.078 42.0156 157.789C42.0156 160.492 43.5 162.148 45.8984 162.148ZM45.8984 160.938C44.3047 160.938 43.4062 159.781 43.4062 157.789C43.4062 155.789 44.3047 154.641 45.8984 154.641C47.4922 154.641 48.3906 155.789 48.3906 157.789C48.3906 159.781 47.4922 160.938 45.8984 160.938ZM58.7031 153.578H57.3594V158.562C57.3594 160.039 56.5469 160.922 55.0625 160.922C53.7188 160.922 53.1562 160.219 53.1562 158.703V153.578H51.8125V159.031C51.8125 161.023 52.7969 162.148 54.6875 162.148C55.9766 162.148 56.875 161.617 57.2969 160.68H57.4219V162H58.7031V153.578ZM62.0703 154.938L63.4844 150.727H61.9609L61.0938 154.938H62.0703ZM72.3594 153.578H70.9219L68.6172 160.516H68.4922L66.1875 153.578H64.75L67.8672 162H69.2422L72.3594 153.578ZM79.4219 159.82C79.0703 160.562 78.3359 160.961 77.25 160.961C75.8203 160.961 74.8906 159.906 74.8203 158.242V158.18H80.875V157.664C80.875 155.047 79.4922 153.43 77.2188 153.43C74.9062 153.43 73.4219 155.148 73.4219 157.797C73.4219 160.461 74.8828 162.148 77.2188 162.148C79.0625 162.148 80.375 161.258 80.7656 159.82H79.4219ZM77.2031 154.617C78.5391 154.617 79.4297 155.602 79.4609 157.094H74.8203C74.9219 155.602 75.8594 154.617 77.2031 154.617ZM87.3047 155.883C87.3047 157.102 88.0234 157.781 89.6016 158.164L91.0469 158.516C91.9453 158.734 92.3828 159.125 92.3828 159.703C92.3828 160.477 91.5703 161.016 90.4375 161.016C89.3594 161.016 88.6875 160.562 88.4609 159.852H87.0781C87.2266 161.25 88.5156 162.148 90.3906 162.148C92.3047 162.148 93.7656 161.109 93.7656 159.602C93.7656 158.391 93 157.703 91.4141 157.32L90.1172 157.008C89.125 156.766 88.6562 156.406 88.6562 155.828C88.6562 155.078 89.4375 154.57 90.4375 154.57C91.4531 154.57 92.1094 155.016 92.2891 155.688H93.6172C93.4375 154.305 92.2109 153.43 90.4453 153.43C88.6562 153.43 87.3047 154.484 87.3047 155.883ZM102.688 153.578H101.344V158.562C101.344 160.039 100.531 160.922 99.0469 160.922C97.7031 160.922 97.1406 160.219 97.1406 158.703V153.578H95.7969V159.031C95.7969 161.023 96.7812 162.148 98.6719 162.148C99.9609 162.148 100.859 161.617 101.281 160.68H101.406V162H102.688V153.578ZM112.188 156.156C111.953 154.656 110.703 153.43 108.656 153.43C106.297 153.43 104.797 155.133 104.797 157.758C104.797 160.438 106.305 162.148 108.664 162.148C110.688 162.148 111.945 161.008 112.188 159.461H110.828C110.578 160.414 109.789 160.938 108.656 160.938C107.156 160.938 106.188 159.703 106.188 157.758C106.188 155.852 107.141 154.641 108.656 154.641C109.867 154.641 110.609 155.32 110.828 156.156H112.188ZM121.141 156.156C120.906 154.656 119.656 153.43 117.609 153.43C115.25 153.43 113.75 155.133 113.75 157.758C113.75 160.438 115.258 162.148 117.617 162.148C119.641 162.148 120.898 161.008 121.141 159.461H119.781C119.531 160.414 118.742 160.938 117.609 160.938C116.109 160.938 115.141 159.703 115.141 157.758C115.141 155.852 116.094 154.641 117.609 154.641C118.82 154.641 119.562 155.32 119.781 156.156H121.141ZM128.703 159.82C128.352 160.562 127.617 160.961 126.531 160.961C125.102 160.961 124.172 159.906 124.102 158.242V158.18H130.156V157.664C130.156 155.047 128.773 153.43 126.5 153.43C124.188 153.43 122.703 155.148 122.703 157.797C122.703 160.461 124.164 162.148 126.5 162.148C128.344 162.148 129.656 161.258 130.047 159.82H128.703ZM126.484 154.617C127.82 154.617 128.711 155.602 128.742 157.094H124.102C124.203 155.602 125.141 154.617 126.484 154.617ZM132.07 155.883C132.07 157.102 132.789 157.781 134.367 158.164L135.812 158.516C136.711 158.734 137.148 159.125 137.148 159.703C137.148 160.477 136.336 161.016 135.203 161.016C134.125 161.016 133.453 160.562 133.227 159.852H131.844C131.992 161.25 133.281 162.148 135.156 162.148C137.07 162.148 138.531 161.109 138.531 159.602C138.531 158.391 137.766 157.703 136.18 157.32L134.883 157.008C133.891 156.766 133.422 156.406 133.422 155.828C133.422 155.078 134.203 154.57 135.203 154.57C136.219 154.57 136.875 155.016 137.055 155.688H138.383C138.203 154.305 136.977 153.43 135.211 153.43C133.422 153.43 132.07 154.484 132.07 155.883ZM140.289 155.883C140.289 157.102 141.008 157.781 142.586 158.164L144.031 158.516C144.93 158.734 145.367 159.125 145.367 159.703C145.367 160.477 144.555 161.016 143.422 161.016C142.344 161.016 141.672 160.562 141.445 159.852H140.062C140.211 161.25 141.5 162.148 143.375 162.148C145.289 162.148 146.75 161.109 146.75 159.602C146.75 158.391 145.984 157.703 144.398 157.32L143.102 157.008C142.109 156.766 141.641 156.406 141.641 155.828C141.641 155.078 142.422 154.57 143.422 154.57C144.438 154.57 145.094 155.016 145.273 155.688H146.602C146.422 154.305 145.195 153.43 143.43 153.43C141.641 153.43 140.289 154.484 140.289 155.883ZM149.422 162H150.766V154.703H152.695V153.578H150.766V152.68C150.766 151.758 151.172 151.289 152.141 151.289C152.383 151.289 152.609 151.297 152.773 151.328V150.234C152.492 150.18 152.195 150.156 151.867 150.156C150.266 150.156 149.422 150.961 149.422 152.641V153.578H148.023V154.703H149.422V162ZM161.469 153.578H160.125V158.562C160.125 160.039 159.312 160.922 157.828 160.922C156.484 160.922 155.922 160.219 155.922 158.703V153.578H154.578V159.031C154.578 161.023 155.562 162.148 157.453 162.148C158.742 162.148 159.641 161.617 160.062 160.68H160.188V162H161.469V153.578ZM164.078 162H165.422V150.234H164.078V162ZM168.109 162H169.453V150.234H168.109V162ZM172.781 165.047C174.273 165.047 174.945 164.469 175.664 162.516L178.953 153.578H177.523L175.219 160.508H175.094L172.781 153.578H171.328L174.445 162.008L174.289 162.508C173.938 163.523 173.516 163.891 172.742 163.891C172.555 163.891 172.344 163.883 172.18 163.852V165C172.367 165.031 172.602 165.047 172.781 165.047ZM185.07 155.883C185.07 157.102 185.789 157.781 187.367 158.164L188.812 158.516C189.711 158.734 190.148 159.125 190.148 159.703C190.148 160.477 189.336 161.016 188.203 161.016C187.125 161.016 186.453 160.562 186.227 159.852H184.844C184.992 161.25 186.281 162.148 188.156 162.148C190.07 162.148 191.531 161.109 191.531 159.602C191.531 158.391 190.766 157.703 189.18 157.32L187.883 157.008C186.891 156.766 186.422 156.406 186.422 155.828C186.422 155.078 187.203 154.57 188.203 154.57C189.219 154.57 189.875 155.016 190.055 155.688H191.383C191.203 154.305 189.977 153.43 188.211 153.43C186.422 153.43 185.07 154.484 185.07 155.883ZM199.219 159.82C198.867 160.562 198.133 160.961 197.047 160.961C195.617 160.961 194.688 159.906 194.617 158.242V158.18H200.672V157.664C200.672 155.047 199.289 153.43 197.016 153.43C194.703 153.43 193.219 155.148 193.219 157.797C193.219 160.461 194.68 162.148 197.016 162.148C198.859 162.148 200.172 161.258 200.562 159.82H199.219ZM197 154.617C198.336 154.617 199.227 155.602 199.258 157.094H194.617C194.719 155.602 195.656 154.617 197 154.617ZM203.344 151.398V153.578H201.984V154.703H203.344V159.812C203.344 161.422 204.039 162.062 205.773 162.062C206.039 162.062 206.297 162.031 206.562 161.984V160.852C206.312 160.875 206.18 160.883 205.938 160.883C205.062 160.883 204.688 160.461 204.688 159.469V154.703H206.562V153.578H204.688V151.398H203.344ZM219.922 153.578H218.578V158.562C218.578 160.039 217.766 160.922 216.281 160.922C214.938 160.922 214.375 160.219 214.375 158.703V153.578H213.031V159.031C213.031 161.023 214.016 162.148 215.906 162.148C217.195 162.148 218.094 161.617 218.516 160.68H218.641V162H219.922V153.578ZM226.555 153.43C225.406 153.43 224.398 154.016 223.859 154.984H223.734V153.578H222.453V164.812H223.797V160.734H223.922C224.383 161.625 225.352 162.148 226.555 162.148C228.695 162.148 230.094 160.422 230.094 157.789C230.094 155.141 228.703 153.43 226.555 153.43ZM226.234 160.938C224.719 160.938 223.758 159.719 223.758 157.789C223.758 155.852 224.719 154.641 226.242 154.641C227.781 154.641 228.703 155.82 228.703 157.789C228.703 159.758 227.781 160.938 226.234 160.938ZM237.438 165.047C238.93 165.047 239.602 164.469 240.32 162.516L243.609 153.578H242.18L239.875 160.508H239.75L237.438 153.578H235.984L239.102 162.008L238.945 162.508C238.594 163.523 238.172 163.891 237.398 163.891C237.211 163.891 237 163.883 236.836 163.852V165C237.023 165.031 237.258 165.047 237.438 165.047ZM248.555 162.148C250.953 162.148 252.438 160.492 252.438 157.789C252.438 155.078 250.953 153.43 248.555 153.43C246.156 153.43 244.672 155.078 244.672 157.789C244.672 160.492 246.156 162.148 248.555 162.148ZM248.555 160.938C246.961 160.938 246.062 159.781 246.062 157.789C246.062 155.789 246.961 154.641 248.555 154.641C250.148 154.641 251.047 155.789 251.047 157.789C251.047 159.781 250.148 160.938 248.555 160.938ZM261.359 153.578H260.016V158.562C260.016 160.039 259.203 160.922 257.719 160.922C256.375 160.922 255.812 160.219 255.812 158.703V153.578H254.469V159.031C254.469 161.023 255.453 162.148 257.344 162.148C258.633 162.148 259.531 161.617 259.953 160.68H260.078V162H261.359V153.578ZM263.891 162H265.234V156.781C265.234 155.594 266.164 154.734 267.445 154.734C267.711 154.734 268.195 154.781 268.305 154.812V153.469C268.133 153.445 267.852 153.43 267.633 153.43C266.516 153.43 265.547 154.008 265.297 154.828H265.172V153.578H263.891V162ZM278.602 153.43C277.453 153.43 276.445 154.016 275.906 154.984H275.781V153.578H274.5V164.812H275.844V160.734H275.969C276.43 161.625 277.398 162.148 278.602 162.148C280.742 162.148 282.141 160.422 282.141 157.789C282.141 155.141 280.75 153.43 278.602 153.43ZM278.281 160.938C276.766 160.938 275.805 159.719 275.805 157.789C275.805 155.852 276.766 154.641 278.289 154.641C279.828 154.641 280.75 155.82 280.75 157.789C280.75 159.758 279.828 160.938 278.281 160.938ZM286.594 162.148C287.719 162.148 288.641 161.656 289.188 160.758H289.312V162H290.594V156.234C290.594 154.484 289.445 153.43 287.391 153.43C285.594 153.43 284.266 154.32 284.086 155.672H285.445C285.633 155.008 286.336 154.625 287.344 154.625C288.602 154.625 289.25 155.195 289.25 156.234V157L286.82 157.148C284.859 157.266 283.75 158.133 283.75 159.641C283.75 161.18 284.961 162.148 286.594 162.148ZM286.844 160.969C285.867 160.969 285.141 160.469 285.141 159.609C285.141 158.766 285.703 158.32 286.984 158.234L289.25 158.086V158.859C289.25 160.062 288.227 160.969 286.844 160.969ZM293.484 165.047C294.977 165.047 295.648 164.469 296.367 162.516L299.656 153.578H298.227L295.922 160.508H295.797L293.484 153.578H292.031L295.148 162.008L294.992 162.508C294.641 163.523 294.219 163.891 293.445 163.891C293.258 163.891 293.047 163.883 292.883 163.852V165C293.07 165.031 293.305 165.047 293.484 165.047ZM301.453 162H302.797V156.781C302.797 155.594 303.648 154.641 304.75 154.641C305.812 154.641 306.508 155.281 306.508 156.281V162H307.852V156.586C307.852 155.516 308.633 154.641 309.805 154.641C310.992 154.641 311.578 155.25 311.578 156.492V162H312.922V156.18C312.922 154.414 311.961 153.43 310.242 153.43C309.078 153.43 308.117 154.016 307.664 154.906H307.539C307.148 154.031 306.352 153.43 305.211 153.43C304.086 153.43 303.242 153.969 302.859 154.906H302.734V153.578H301.453V162ZM320.953 159.82C320.602 160.562 319.867 160.961 318.781 160.961C317.352 160.961 316.422 159.906 316.352 158.242V158.18H322.406V157.664C322.406 155.047 321.023 153.43 318.75 153.43C316.438 153.43 314.953 155.148 314.953 157.797C314.953 160.461 316.414 162.148 318.75 162.148C320.594 162.148 321.906 161.258 322.297 159.82H320.953ZM318.734 154.617C320.07 154.617 320.961 155.602 320.992 157.094H316.352C316.453 155.602 317.391 154.617 318.734 154.617ZM324.516 162H325.859V157.016C325.859 155.539 326.727 154.641 328.07 154.641C329.414 154.641 330.055 155.359 330.055 156.875V162H331.398V156.547C331.398 154.547 330.344 153.43 328.453 153.43C327.164 153.43 326.344 153.977 325.922 154.906H325.797V153.578H324.516V162ZM334.422 151.398V153.578H333.062V154.703H334.422V159.812C334.422 161.422 335.117 162.062 336.852 162.062C337.117 162.062 337.375 162.031 337.641 161.984V160.852C337.391 160.875 337.258 160.883 337.016 160.883C336.141 160.883 335.766 160.461 335.766 159.469V154.703H337.641V153.578H335.766V151.398H334.422ZM344.188 162H345.531V156.781C345.531 155.594 346.383 154.641 347.484 154.641C348.547 154.641 349.242 155.281 349.242 156.281V162H350.586V156.586C350.586 155.516 351.367 154.641 352.539 154.641C353.727 154.641 354.312 155.25 354.312 156.492V162H355.656V156.18C355.656 154.414 354.695 153.43 352.977 153.43C351.812 153.43 350.852 154.016 350.398 154.906H350.273C349.883 154.031 349.086 153.43 347.945 153.43C346.82 153.43 345.977 153.969 345.594 154.906H345.469V153.578H344.188V162ZM363.688 159.82C363.336 160.562 362.602 160.961 361.516 160.961C360.086 160.961 359.156 159.906 359.086 158.242V158.18H365.141V157.664C365.141 155.047 363.758 153.43 361.484 153.43C359.172 153.43 357.688 155.148 357.688 157.797C357.688 160.461 359.148 162.148 361.484 162.148C363.328 162.148 364.641 161.258 365.031 159.82H363.688ZM361.469 154.617C362.805 154.617 363.695 155.602 363.727 157.094H359.086C359.188 155.602 360.125 154.617 361.469 154.617ZM367.812 151.398V153.578H366.453V154.703H367.812V159.812C367.812 161.422 368.508 162.062 370.242 162.062C370.508 162.062 370.766 162.031 371.031 161.984V160.852C370.781 160.875 370.648 160.883 370.406 160.883C369.531 160.883 369.156 160.461 369.156 159.469V154.703H371.031V153.578H369.156V151.398H367.812ZM373.141 162H374.484V157.016C374.484 155.594 375.312 154.641 376.82 154.641C378.094 154.641 378.766 155.383 378.766 156.875V162H380.109V156.547C380.109 154.57 378.984 153.43 377.203 153.43C375.914 153.43 375.031 153.977 374.609 154.906H374.484V150.234H373.141V162ZM386.023 162.148C388.422 162.148 389.906 160.492 389.906 157.789C389.906 155.078 388.422 153.43 386.023 153.43C383.625 153.43 382.141 155.078 382.141 157.789C382.141 160.492 383.625 162.148 386.023 162.148ZM386.023 160.938C384.43 160.938 383.531 159.781 383.531 157.789C383.531 155.789 384.43 154.641 386.023 154.641C387.617 154.641 388.516 155.789 388.516 157.789C388.516 159.781 387.617 160.938 386.023 160.938ZM395.133 162.148C396.297 162.148 397.297 161.594 397.828 160.656H397.953V162H399.234V150.234H397.891V154.906H397.773C397.297 153.984 396.305 153.43 395.133 153.43C392.992 153.43 391.594 155.148 391.594 157.789C391.594 160.438 392.977 162.148 395.133 162.148ZM395.445 154.641C396.969 154.641 397.922 155.859 397.922 157.789C397.922 159.734 396.977 160.938 395.445 160.938C393.906 160.938 392.984 159.758 392.984 157.789C392.984 155.828 393.914 154.641 395.445 154.641ZM33.8281 186H35.1719V178.703H37.1016V177.578H35.1719V176.68C35.1719 175.758 35.5781 175.289 36.5469 175.289C36.7891 175.289 37.0156 175.297 37.1797 175.328V174.234C36.8984 174.18 36.6016 174.156 36.2734 174.156C34.6719 174.156 33.8281 174.961 33.8281 176.641V177.578H32.4297V178.703H33.8281V186ZM42.1641 186.148C44.5625 186.148 46.0469 184.492 46.0469 181.789C46.0469 179.078 44.5625 177.43 42.1641 177.43C39.7656 177.43 38.2812 179.078 38.2812 181.789C38.2812 184.492 39.7656 186.148 42.1641 186.148ZM42.1641 184.938C40.5703 184.938 39.6719 183.781 39.6719 181.789C39.6719 179.789 40.5703 178.641 42.1641 178.641C43.7578 178.641 44.6562 179.789 44.6562 181.789C44.6562 183.781 43.7578 184.938 42.1641 184.938ZM48.1562 186H49.5V180.781C49.5 179.594 50.4297 178.734 51.7109 178.734C51.9766 178.734 52.4609 178.781 52.5703 178.812V177.469C52.3984 177.445 52.1172 177.43 51.8984 177.43C50.7812 177.43 49.8125 178.008 49.5625 178.828H49.4375V177.578H48.1562V186ZM59.3281 186H60.6719V178.703H62.6016V177.578H60.6719V176.68C60.6719 175.758 61.0781 175.289 62.0469 175.289C62.2891 175.289 62.5156 175.297 62.6797 175.328V174.234C62.3984 174.18 62.1016 174.156 61.7734 174.156C60.1719 174.156 59.3281 174.961 59.3281 176.641V177.578H57.9297V178.703H59.3281V186ZM71.375 177.578H70.0312V182.562C70.0312 184.039 69.2188 184.922 67.7344 184.922C66.3906 184.922 65.8281 184.219 65.8281 182.703V177.578H64.4844V183.031C64.4844 185.023 65.4688 186.148 67.3594 186.148C68.6484 186.148 69.5469 185.617 69.9688 184.68H70.0938V186H71.375V177.578ZM74.4688 175.398V177.578H73.1094V178.703H74.4688V183.812C74.4688 185.422 75.1641 186.062 76.8984 186.062C77.1641 186.062 77.4219 186.031 77.6875 185.984V184.852C77.4375 184.875 77.3047 184.883 77.0625 184.883C76.1875 184.883 75.8125 184.461 75.8125 183.469V178.703H77.6875V177.578H75.8125V175.398H74.4688ZM86.5312 177.578H85.1875V182.562C85.1875 184.039 84.375 184.922 82.8906 184.922C81.5469 184.922 80.9844 184.219 80.9844 182.703V177.578H79.6406V183.031C79.6406 185.023 80.625 186.148 82.5156 186.148C83.8047 186.148 84.7031 185.617 85.125 184.68H85.25V186H86.5312V177.578ZM89.0625 186H90.4062V180.781C90.4062 179.594 91.3359 178.734 92.6172 178.734C92.8828 178.734 93.3672 178.781 93.4766 178.812V177.469C93.3047 177.445 93.0234 177.43 92.8047 177.43C91.6875 177.43 90.7188 178.008 90.4688 178.828H90.3438V177.578H89.0625V186ZM100.5 183.82C100.148 184.562 99.4141 184.961 98.3281 184.961C96.8984 184.961 95.9688 183.906 95.8984 182.242V182.18H101.953V181.664C101.953 179.047 100.57 177.43 98.2969 177.43C95.9844 177.43 94.5 179.148 94.5 181.797C94.5 184.461 95.9609 186.148 98.2969 186.148C100.141 186.148 101.453 185.258 101.844 183.82H100.5ZM98.2812 178.617C99.6172 178.617 100.508 179.602 100.539 181.094H95.8984C96 179.602 96.9375 178.617 98.2812 178.617ZM112.68 177.43C111.531 177.43 110.523 178.016 109.984 178.984H109.859V177.578H108.578V188.812H109.922V184.734H110.047C110.508 185.625 111.477 186.148 112.68 186.148C114.82 186.148 116.219 184.422 116.219 181.789C116.219 179.141 114.828 177.43 112.68 177.43ZM112.359 184.938C110.844 184.938 109.883 183.719 109.883 181.789C109.883 179.852 110.844 178.641 112.367 178.641C113.906 178.641 114.828 179.82 114.828 181.789C114.828 183.758 113.906 184.938 112.359 184.938ZM120.672 186.148C121.797 186.148 122.719 185.656 123.266 184.758H123.391V186H124.672V180.234C124.672 178.484 123.523 177.43 121.469 177.43C119.672 177.43 118.344 178.32 118.164 179.672H119.523C119.711 179.008 120.414 178.625 121.422 178.625C122.68 178.625 123.328 179.195 123.328 180.234V181L120.898 181.148C118.938 181.266 117.828 182.133 117.828 183.641C117.828 185.18 119.039 186.148 120.672 186.148ZM120.922 184.969C119.945 184.969 119.219 184.469 119.219 183.609C119.219 182.766 119.781 182.32 121.062 182.234L123.328 182.086V182.859C123.328 184.062 122.305 184.969 120.922 184.969ZM127.562 189.047C129.055 189.047 129.727 188.469 130.445 186.516L133.734 177.578H132.305L130 184.508H129.875L127.562 177.578H126.109L129.227 186.008L129.07 186.508C128.719 187.523 128.297 187.891 127.523 187.891C127.336 187.891 127.125 187.883 126.961 187.852V189C127.148 189.031 127.383 189.047 127.562 189.047ZM135.531 186H136.875V180.781C136.875 179.594 137.727 178.641 138.828 178.641C139.891 178.641 140.586 179.281 140.586 180.281V186H141.93V180.586C141.93 179.516 142.711 178.641 143.883 178.641C145.07 178.641 145.656 179.25 145.656 180.492V186H147V180.18C147 178.414 146.039 177.43 144.32 177.43C143.156 177.43 142.195 178.016 141.742 178.906H141.617C141.227 178.031 140.43 177.43 139.289 177.43C138.164 177.43 137.32 177.969 136.938 178.906H136.812V177.578H135.531V186ZM155.031 183.82C154.68 184.562 153.945 184.961 152.859 184.961C151.43 184.961 150.5 183.906 150.43 182.242V182.18H156.484V181.664C156.484 179.047 155.102 177.43 152.828 177.43C150.516 177.43 149.031 179.148 149.031 181.797C149.031 184.461 150.492 186.148 152.828 186.148C154.672 186.148 155.984 185.258 156.375 183.82H155.031ZM152.812 178.617C154.148 178.617 155.039 179.602 155.07 181.094H150.43C150.531 179.602 151.469 178.617 152.812 178.617ZM158.594 186H159.938V181.016C159.938 179.539 160.805 178.641 162.148 178.641C163.492 178.641 164.133 179.359 164.133 180.875V186H165.477V180.547C165.477 178.547 164.422 177.43 162.531 177.43C161.242 177.43 160.422 177.977 160 178.906H159.875V177.578H158.594V186ZM168.5 175.398V177.578H167.141V178.703H168.5V183.812C168.5 185.422 169.195 186.062 170.93 186.062C171.195 186.062 171.453 186.031 171.719 185.984V184.852C171.469 184.875 171.336 184.883 171.094 184.883C170.219 184.883 169.844 184.461 169.844 183.469V178.703H171.719V177.578H169.844V175.398H168.5ZM173.398 179.883C173.398 181.102 174.117 181.781 175.695 182.164L177.141 182.516C178.039 182.734 178.477 183.125 178.477 183.703C178.477 184.477 177.664 185.016 176.531 185.016C175.453 185.016 174.781 184.562 174.555 183.852H173.172C173.32 185.25 174.609 186.148 176.484 186.148C178.398 186.148 179.859 185.109 179.859 183.602C179.859 182.391 179.094 181.703 177.508 181.32L176.211 181.008C175.219 180.766 174.75 180.406 174.75 179.828C174.75 179.078 175.531 178.57 176.531 178.57C177.547 178.57 178.203 179.016 178.383 179.688H179.711C179.531 178.305 178.305 177.43 176.539 177.43C174.75 177.43 173.398 178.484 173.398 179.883ZM183.078 186.078C183.641 186.078 184.094 185.617 184.094 185.062C184.094 184.5 183.641 184.047 183.078 184.047C182.523 184.047 182.062 184.5 182.062 185.062C182.062 185.617 182.523 186.078 183.078 186.078Z" fill="#4F566B"/>
<rect x="30" y="142" width="396" height="52" stroke="white" stroke-width="4"/>
<path d="M28 28H52V52H28V28Z" fill="white"/>
<path fill-rule="evenodd" clip-rule="evenodd" d="M40 28C46.6274 28 52 33.3726 52 40C52 46.6274 46.6274 52 40 52C33.3726 52 28 46.6274 28 40C28 33.3726 33.3726 28 40 28ZM46.7462 35.4928C46.1604 34.907 45.2107 34.907 44.6249 35.4928L38.5 41.6287L35.8107 38.9393C35.2249 38.3536 34.2751 38.3536 33.6893 38.9393C33.1036 39.5251 33.1036 40.4749 33.6893 41.0607L37.4393 44.8107C38.0251 45.3964 38.9749 45.3964 39.5607 44.8107L46.7462 37.6141C47.332 37.0283 47.332 36.0786 46.7462 35.4928Z" fill="#33C27F"/>
<rect x="30" y="90" width="143" height="28" fill="white"/>
<path d="M32.8594 106.883C32.9453 108.969 34.6875 110.289 37.375 110.289C40.2031 110.289 41.9453 108.898 41.9453 106.648C41.9453 104.906 40.9688 103.93 38.7031 103.445L37.3438 103.156C36.0234 102.867 35.4844 102.453 35.4844 101.742C35.4844 100.859 36.2656 100.289 37.4453 100.289C38.5859 100.289 39.4141 100.891 39.5234 101.812H41.7422C41.6719 99.8203 39.9141 98.4375 37.4297 98.4375C34.8281 98.4375 33.1172 99.8281 33.1172 101.93C33.1172 103.641 34.125 104.695 36.1797 105.133L37.6484 105.453C39.0312 105.758 39.5938 106.188 39.5938 106.93C39.5938 107.805 38.7266 108.422 37.5 108.422C36.1719 108.422 35.25 107.82 35.1406 106.883H32.8594ZM49.5234 107.57C49.2812 108.156 48.6641 108.484 47.7656 108.484C46.5781 108.484 45.8281 107.664 45.7969 106.352V106.234H51.7109V105.555C51.7109 102.836 50.2109 101.211 47.6719 101.211C45.1094 101.211 43.5312 102.945 43.5312 105.742C43.5312 108.523 45.0781 110.18 47.7031 110.18C49.8125 110.18 51.3047 109.172 51.6406 107.57H49.5234ZM47.6797 102.906C48.7422 102.906 49.4297 103.641 49.4766 104.82H45.8047C45.8828 103.664 46.625 102.906 47.6797 102.906ZM54.2266 99.3438V101.477H52.8828V103.203H54.2266V107.68C54.2266 109.352 55.0547 110.031 57.1484 110.031C57.5859 110.031 58.0078 109.984 58.2891 109.93V108.25C58.0703 108.273 57.9141 108.289 57.6172 108.289C56.8438 108.289 56.5 107.93 56.5 107.156V103.203H58.2891V101.477H56.5V99.3438H54.2266ZM67.9844 101.398H65.7109V106.367C65.7109 107.547 65.1016 108.273 63.9688 108.273C62.9219 108.273 62.3828 107.656 62.3828 106.438V101.398H60.1094V107C60.1094 109 61.2656 110.18 63.125 110.18C64.4297 110.18 65.2344 109.617 65.6406 108.617H65.7812V110H67.9844V101.398ZM75.2422 101.258C74.0547 101.258 73.0781 101.844 72.6094 102.812H72.4688V101.398H70.2656V112.852H72.5391V108.688H72.6797C73.1016 109.594 74.0469 110.133 75.2812 110.133C77.4375 110.133 78.7578 108.461 78.7578 105.695C78.7578 102.922 77.4219 101.258 75.2422 101.258ZM74.4688 108.297C73.2656 108.297 72.5156 107.312 72.5156 105.703C72.5156 104.094 73.2656 103.102 74.4766 103.102C75.6875 103.102 76.4219 104.078 76.4219 105.695C76.4219 107.32 75.6953 108.297 74.4688 108.297ZM84.5391 103.906C84.5391 105.227 85.3516 106.016 87.0234 106.383L88.5859 106.734C89.3438 106.906 89.6719 107.172 89.6719 107.609C89.6719 108.18 89.0625 108.57 88.1797 108.57C87.2734 108.57 86.7188 108.219 86.5469 107.625H84.3281C84.4844 109.25 85.8594 110.18 88.1328 110.18C90.3906 110.18 91.9297 109.07 91.9297 107.367C91.9297 106.086 91.1797 105.383 89.5078 105.016L87.8906 104.664C87.0938 104.484 86.7266 104.211 86.7266 103.773C86.7266 103.211 87.3281 102.828 88.1406 102.828C88.9844 102.828 89.5078 103.18 89.625 103.75H91.7266C91.6016 102.125 90.3125 101.211 88.125 101.211C85.9766 101.211 84.5391 102.297 84.5391 103.906ZM101.594 101.398H99.3203V106.367C99.3203 107.547 98.7109 108.273 97.5781 108.273C96.5312 108.273 95.9922 107.656 95.9922 106.438V101.398H93.7188V107C93.7188 109 94.875 110.18 96.7344 110.18C98.0391 110.18 98.8438 109.617 99.25 108.617H99.3906V110H101.594V101.398ZM111.5 104.398C111.312 102.477 109.945 101.211 107.664 101.211C104.969 101.211 103.453 102.844 103.453 105.68C103.453 108.547 104.977 110.18 107.664 110.18C109.906 110.18 111.312 108.945 111.5 107.055H109.375C109.203 107.914 108.594 108.375 107.664 108.375C106.445 108.375 105.75 107.414 105.75 105.68C105.75 103.969 106.438 103.023 107.664 103.023C108.633 103.023 109.219 103.57 109.375 104.398H111.5ZM120.906 104.398C120.719 102.477 119.352 101.211 117.07 101.211C114.375 101.211 112.859 102.844 112.859 105.68C112.859 108.547 114.383 110.18 117.07 110.18C119.312 110.18 120.719 108.945 120.906 107.055H118.781C118.609 107.914 118 108.375 117.07 108.375C115.852 108.375 115.156 107.414 115.156 105.68C115.156 103.969 115.844 103.023 117.07 103.023C118.039 103.023 118.625 103.57 118.781 104.398H120.906ZM128.258 107.57C128.016 108.156 127.398 108.484 126.5 108.484C125.312 108.484 124.562 107.664 124.531 106.352V106.234H130.445V105.555C130.445 102.836 128.945 101.211 126.406 101.211C123.844 101.211 122.266 102.945 122.266 105.742C122.266 108.523 123.812 110.18 126.438 110.18C128.547 110.18 130.039 109.172 130.375 107.57H128.258ZM126.414 102.906C127.477 102.906 128.164 103.641 128.211 104.82H124.539C124.617 103.664 125.359 102.906 126.414 102.906ZM132.117 103.906C132.117 105.227 132.93 106.016 134.602 106.383L136.164 106.734C136.922 106.906 137.25 107.172 137.25 107.609C137.25 108.18 136.641 108.57 135.758 108.57C134.852 108.57 134.297 108.219 134.125 107.625H131.906C132.062 109.25 133.438 110.18 135.711 110.18C137.969 110.18 139.508 109.07 139.508 107.367C139.508 106.086 138.758 105.383 137.086 105.016L135.469 104.664C134.672 104.484 134.305 104.211 134.305 103.773C134.305 103.211 134.906 102.828 135.719 102.828C136.562 102.828 137.086 103.18 137.203 103.75H139.305C139.18 102.125 137.891 101.211 135.703 101.211C133.555 101.211 132.117 102.297 132.117 103.906ZM141.023 103.906C141.023 105.227 141.836 106.016 143.508 106.383L145.07 106.734C145.828 106.906 146.156 107.172 146.156 107.609C146.156 108.18 145.547 108.57 144.664 108.57C143.758 108.57 143.203 108.219 143.031 107.625H140.812C140.969 109.25 142.344 110.18 144.617 110.18C146.875 110.18 148.414 109.07 148.414 107.367C148.414 106.086 147.664 105.383 145.992 105.016L144.375 104.664C143.578 104.484 143.211 104.211 143.211 103.773C143.211 103.211 143.812 102.828 144.625 102.828C145.469 102.828 145.992 103.18 146.109 103.75H148.211C148.086 102.125 146.797 101.211 144.609 101.211C142.461 101.211 141.023 102.297 141.023 103.906ZM150.945 110H153.219V103.203H155V101.477H153.172V100.75C153.172 100 153.5 99.6328 154.391 99.6328C154.688 99.6328 154.922 99.6562 155.07 99.6797V98.1094C154.742 98.0625 154.359 98.0234 153.898 98.0234C151.82 98.0234 150.945 98.8828 150.945 100.594V101.477H149.555V103.203H150.945V110ZM164.609 101.398H162.336V106.367C162.336 107.547 161.727 108.273 160.594 108.273C159.547 108.273 159.008 107.656 159.008 106.438V101.398H156.734V107C156.734 109 157.891 110.18 159.75 110.18C161.055 110.18 161.859 109.617 162.266 108.617H162.406V110H164.609V101.398ZM166.969 110H169.242V98.1094H166.969V110Z" fill="#3C4257"/>
<rect x="30" y="90" width="143" height="28" stroke="white" stroke-width="4"/>
<rect x="0.5" y="0.5" width="447" height="239" rx="7.5" stroke="#E3E8EE"/>
<defs>
<clipPath id="clip0">
<path d="M0 0H448V240H0V0Z" fill="white"/>
</clipPath>
</defs>
</svg>
