<svg width="736" height="128" viewBox="0 0 736 128" fill="none" xmlns="http://www.w3.org/2000/svg">
<g clip-path="url(#clip0)">
<path d="M0 0H736V128H0V0Z" fill="white"/>
<path d="M0 0L736 -6.43432e-05" stroke="#E3E8EE" stroke-width="2" stroke-linecap="round" stroke-linejoin="round" stroke-dasharray="0.01 16"/>
<path d="M0 16L736 15.9999" stroke="#E3E8EE" stroke-width="2" stroke-linecap="round" stroke-linejoin="round" stroke-dasharray="0.01 16"/>
<path d="M0 32L736 31.9999" stroke="#E3E8EE" stroke-width="2" stroke-linecap="round" stroke-linejoin="round" stroke-dasharray="0.01 16"/>
<path d="M0 48L736 47.9999" stroke="#E3E8EE" stroke-width="2" stroke-linecap="round" stroke-linejoin="round" stroke-dasharray="0.01 16"/>
<path d="M0 64L736 63.9999" stroke="#E3E8EE" stroke-width="2" stroke-linecap="round" stroke-linejoin="round" stroke-dasharray="0.01 16"/>
<path d="M0 80L736 79.9999" stroke="#E3E8EE" stroke-width="2" stroke-linecap="round" stroke-linejoin="round" stroke-dasharray="0.01 16"/>
<path d="M0 96L736 95.9999" stroke="#E3E8EE" stroke-width="2" stroke-linecap="round" stroke-linejoin="round" stroke-dasharray="0.01 16"/>
<path d="M0 112L736 112" stroke="#E3E8EE" stroke-width="2" stroke-linecap="round" stroke-linejoin="round" stroke-dasharray="0.01 16"/>
<path d="M0 128L736 128" stroke="#E3E8EE" stroke-width="2" stroke-linecap="round" stroke-linejoin="round" stroke-dasharray="0.01 16"/>
<rect x="0.5" y="0.5" width="735" height="127" stroke="white"/>
</g>
<path d="M192 40C192 35.5817 195.582 32 200 32H344C348.418 32 352 35.5817 352 40V88C352 92.4183 348.418 96 344 96H200C195.582 96 192 92.4183 192 88V40Z" fill="white"/>
<rect x="187" y="27" width="170" height="74" rx="13" stroke="white" stroke-width="10"/>
<path d="M247.045 60.2168C249.084 60.2168 250.572 58.9805 250.719 57.1758H248.996C248.826 58.1074 248.064 58.7051 247.051 58.7051C245.715 58.7051 244.889 57.5801 244.889 55.7695C244.889 53.959 245.715 52.834 247.045 52.834C248.053 52.834 248.82 53.4785 248.99 54.457H250.713C250.584 52.6406 249.049 51.3281 247.045 51.3281C244.59 51.3281 243.078 53.0215 243.078 55.7695C243.078 58.5176 244.596 60.2168 247.045 60.2168ZM258.025 53.5488H256.32V57.2754C256.32 58.1602 255.863 58.7051 255.014 58.7051C254.229 58.7051 253.824 58.2422 253.824 57.3281V53.5488H252.119V57.75C252.119 59.25 252.986 60.1348 254.381 60.1348C255.359 60.1348 255.963 59.7129 256.268 58.9629H256.373V60H258.025V53.5488ZM259.59 55.4297C259.59 56.4199 260.199 57.0117 261.453 57.2871L262.625 57.5508C263.193 57.6797 263.439 57.8789 263.439 58.207C263.439 58.6348 262.982 58.9277 262.32 58.9277C261.641 58.9277 261.225 58.6641 261.096 58.2188H259.432C259.549 59.4375 260.58 60.1348 262.285 60.1348C263.979 60.1348 265.133 59.3027 265.133 58.0254C265.133 57.0645 264.57 56.5371 263.316 56.2617L262.104 55.998C261.506 55.8633 261.23 55.6582 261.23 55.3301C261.23 54.9082 261.682 54.6211 262.291 54.6211C262.924 54.6211 263.316 54.8848 263.404 55.3125H264.98C264.887 54.0938 263.92 53.4082 262.279 53.4082C260.668 53.4082 259.59 54.2227 259.59 55.4297ZM266.984 52.0078V53.6074H265.977V54.9023H266.984V58.2598C266.984 59.5137 267.605 60.0234 269.176 60.0234C269.504 60.0234 269.82 59.9883 270.031 59.9473V58.6875C269.867 58.7051 269.75 58.7168 269.527 58.7168C268.947 58.7168 268.689 58.4473 268.689 57.8672V54.9023H270.031V53.6074H268.689V52.0078H266.984ZM274.273 60.1348C276.26 60.1348 277.455 58.8809 277.455 56.7715C277.455 54.6797 276.242 53.4082 274.273 53.4082C272.305 53.4082 271.092 54.6855 271.092 56.7715C271.092 58.875 272.287 60.1348 274.273 60.1348ZM274.273 58.7871C273.359 58.7871 272.844 58.0488 272.844 56.7715C272.844 55.5059 273.365 54.7617 274.273 54.7617C275.176 54.7617 275.703 55.5059 275.703 56.7715C275.703 58.0488 275.182 58.7871 274.273 58.7871ZM278.85 60H280.555V56.1094C280.555 55.3711 281.029 54.832 281.697 54.832C282.365 54.832 282.764 55.2305 282.764 55.9219V60H284.404V56.0332C284.404 55.3359 284.85 54.832 285.541 54.832C286.262 54.832 286.619 55.2188 286.619 55.998V60H288.324V55.5703C288.324 54.2402 287.521 53.4082 286.232 53.4082C285.33 53.4082 284.586 53.8828 284.287 54.5977H284.182C283.924 53.8594 283.303 53.4082 282.395 53.4082C281.545 53.4082 280.871 53.8594 280.607 54.5977H280.502V53.5488H278.85V60ZM294.16 58.1777C293.979 58.6172 293.516 58.8633 292.842 58.8633C291.951 58.8633 291.389 58.248 291.365 57.2637V57.1758H295.801V56.666C295.801 54.627 294.676 53.4082 292.771 53.4082C290.85 53.4082 289.666 54.709 289.666 56.8066C289.666 58.8926 290.826 60.1348 292.795 60.1348C294.377 60.1348 295.496 59.3789 295.748 58.1777H294.16ZM292.777 54.6797C293.574 54.6797 294.09 55.2305 294.125 56.1152H291.371C291.43 55.248 291.986 54.6797 292.777 54.6797ZM297.201 60H298.906V56.3906C298.906 55.4824 299.545 54.9258 300.477 54.9258C300.752 54.9258 301.15 54.9727 301.285 55.0195V53.5195C301.139 53.4727 300.852 53.4434 300.617 53.4434C299.797 53.4434 299.129 53.9297 298.959 54.5742H298.854V53.5488H297.201V60ZM213.025 67.5449V76H215.926C218.439 76 219.916 74.4355 219.916 71.7695C219.916 69.1094 218.434 67.5449 215.926 67.5449H213.025ZM214.08 68.4941H215.855C217.73 68.4941 218.838 69.7129 218.838 71.7812C218.838 73.8438 217.742 75.0508 215.855 75.0508H214.08V68.4941ZM225.799 74.3652C225.535 74.9219 224.984 75.2207 224.17 75.2207C223.098 75.2207 222.4 74.4297 222.348 73.1816V73.1348H226.889V72.748C226.889 70.7852 225.852 69.5723 224.146 69.5723C222.412 69.5723 221.299 70.8613 221.299 72.8477C221.299 74.8457 222.395 76.1113 224.146 76.1113C225.529 76.1113 226.514 75.4434 226.807 74.3652H225.799ZM224.135 70.4629C225.137 70.4629 225.805 71.2012 225.828 72.3203H222.348C222.424 71.2012 223.127 70.4629 224.135 70.4629ZM228.893 76H229.9V70.5273H231.348V69.6836H229.9V69.0098C229.9 68.3184 230.205 67.9668 230.932 67.9668C231.113 67.9668 231.283 67.9727 231.406 67.9961V67.1758C231.195 67.1348 230.973 67.1172 230.727 67.1172C229.525 67.1172 228.893 67.7207 228.893 68.9805V69.6836H227.844V70.5273H228.893V76ZM234.4 76.1113C235.244 76.1113 235.936 75.7422 236.346 75.0684H236.439V76H237.4V71.6758C237.4 70.3633 236.539 69.5723 234.998 69.5723C233.65 69.5723 232.654 70.2402 232.52 71.2539H233.539C233.68 70.7559 234.207 70.4688 234.963 70.4688C235.906 70.4688 236.393 70.8965 236.393 71.6758V72.25L234.57 72.3613C233.1 72.4492 232.268 73.0996 232.268 74.2305C232.268 75.3848 233.176 76.1113 234.4 76.1113ZM234.588 75.2266C233.855 75.2266 233.311 74.8516 233.311 74.207C233.311 73.5742 233.732 73.2402 234.693 73.1758L236.393 73.0645V73.6445C236.393 74.5469 235.625 75.2266 234.588 75.2266ZM244.373 69.6836H243.365V73.4219C243.365 74.5293 242.756 75.1914 241.643 75.1914C240.635 75.1914 240.213 74.6641 240.213 73.5273V69.6836H239.205V73.7734C239.205 75.2676 239.943 76.1113 241.361 76.1113C242.328 76.1113 243.002 75.7129 243.318 75.0098H243.412V76H244.373V69.6836ZM246.33 76H247.338V67.1758H246.33V76ZM249.717 68.0488V69.6836H248.697V70.5273H249.717V74.3594C249.717 75.5664 250.238 76.0469 251.539 76.0469C251.738 76.0469 251.932 76.0234 252.131 75.9883V75.1387C251.943 75.1562 251.844 75.1621 251.662 75.1621C251.006 75.1621 250.725 74.8457 250.725 74.1016V70.5273H252.131V69.6836H250.725V68.0488H249.717ZM262.268 71.6172C262.092 70.4922 261.154 69.5723 259.619 69.5723C257.85 69.5723 256.725 70.8496 256.725 72.8184C256.725 74.8281 257.855 76.1113 259.625 76.1113C261.143 76.1113 262.086 75.2559 262.268 74.0957H261.248C261.061 74.8105 260.469 75.2031 259.619 75.2031C258.494 75.2031 257.768 74.2773 257.768 72.8184C257.768 71.3887 258.482 70.4805 259.619 70.4805C260.527 70.4805 261.084 70.9902 261.248 71.6172H262.268ZM268.865 69.6836H267.857V73.4219C267.857 74.5293 267.248 75.1914 266.135 75.1914C265.127 75.1914 264.705 74.6641 264.705 73.5273V69.6836H263.697V73.7734C263.697 75.2676 264.436 76.1113 265.854 76.1113C266.82 76.1113 267.494 75.7129 267.811 75.0098H267.904V76H268.865V69.6836ZM270.617 71.4121C270.617 72.3262 271.156 72.8359 272.34 73.123L273.424 73.3867C274.098 73.5508 274.426 73.8438 274.426 74.2773C274.426 74.8574 273.816 75.2617 272.967 75.2617C272.158 75.2617 271.654 74.9219 271.484 74.3887H270.447C270.559 75.4375 271.525 76.1113 272.932 76.1113C274.367 76.1113 275.463 75.332 275.463 74.2012C275.463 73.293 274.889 72.7773 273.699 72.4902L272.727 72.2559C271.982 72.0742 271.631 71.8047 271.631 71.3711C271.631 70.8086 272.217 70.4277 272.967 70.4277C273.729 70.4277 274.221 70.7617 274.355 71.2656H275.352C275.217 70.2285 274.297 69.5723 272.973 69.5723C271.631 69.5723 270.617 70.3633 270.617 71.4121ZM277.408 68.0488V69.6836H276.389V70.5273H277.408V74.3594C277.408 75.5664 277.93 76.0469 279.23 76.0469C279.43 76.0469 279.623 76.0234 279.822 75.9883V75.1387C279.635 75.1562 279.535 75.1621 279.354 75.1621C278.697 75.1621 278.416 74.8457 278.416 74.1016V70.5273H279.822V69.6836H278.416V68.0488H277.408ZM283.848 76.1113C285.646 76.1113 286.76 74.8691 286.76 72.8418C286.76 70.8086 285.646 69.5723 283.848 69.5723C282.049 69.5723 280.936 70.8086 280.936 72.8418C280.936 74.8691 282.049 76.1113 283.848 76.1113ZM283.848 75.2031C282.652 75.2031 281.979 74.3359 281.979 72.8418C281.979 71.3418 282.652 70.4805 283.848 70.4805C285.043 70.4805 285.717 71.3418 285.717 72.8418C285.717 74.3359 285.043 75.2031 283.848 75.2031ZM288.342 76H289.35V72.0859C289.35 71.1953 289.988 70.4805 290.814 70.4805C291.611 70.4805 292.133 70.9609 292.133 71.7109V76H293.141V71.9395C293.141 71.1367 293.727 70.4805 294.605 70.4805C295.496 70.4805 295.936 70.9375 295.936 71.8691V76H296.943V71.6348C296.943 70.3105 296.223 69.5723 294.934 69.5723C294.061 69.5723 293.34 70.0117 293 70.6797H292.906C292.613 70.0234 292.016 69.5723 291.16 69.5723C290.316 69.5723 289.684 69.9766 289.396 70.6797H289.303V69.6836H288.342V76ZM302.592 76H303.6V70.5273H305.047V69.6836H303.6V69.0098C303.6 68.3184 303.904 67.9668 304.631 67.9668C304.812 67.9668 304.982 67.9727 305.105 67.9961V67.1758C304.895 67.1348 304.672 67.1172 304.426 67.1172C303.225 67.1172 302.592 67.7207 302.592 68.9805V69.6836H301.543V70.5273H302.592V76ZM307.045 68.4648C307.432 68.4648 307.748 68.1484 307.748 67.7617C307.748 67.375 307.432 67.0586 307.045 67.0586C306.658 67.0586 306.342 67.375 306.342 67.7617C306.342 68.1484 306.658 68.4648 307.045 68.4648ZM306.541 76H307.549V69.6836H306.541V76ZM313.654 74.3652C313.391 74.9219 312.84 75.2207 312.025 75.2207C310.953 75.2207 310.256 74.4297 310.203 73.1816V73.1348H314.744V72.748C314.744 70.7852 313.707 69.5723 312.002 69.5723C310.268 69.5723 309.154 70.8613 309.154 72.8477C309.154 74.8457 310.25 76.1113 312.002 76.1113C313.385 76.1113 314.369 75.4434 314.662 74.3652H313.654ZM311.99 70.4629C312.992 70.4629 313.66 71.2012 313.684 72.3203H310.203C310.279 71.2012 310.982 70.4629 311.99 70.4629ZM316.385 76H317.393V67.1758H316.385V76ZM321.688 76.1113C322.561 76.1113 323.311 75.6953 323.709 74.9922H323.803V76H324.764V67.1758H323.756V70.6797H323.668C323.311 69.9883 322.566 69.5723 321.688 69.5723C320.082 69.5723 319.033 70.8613 319.033 72.8418C319.033 74.8281 320.07 76.1113 321.688 76.1113ZM321.922 70.4805C323.064 70.4805 323.779 71.3945 323.779 72.8418C323.779 74.3008 323.07 75.2031 321.922 75.2031C320.768 75.2031 320.076 74.3184 320.076 72.8418C320.076 71.3711 320.773 70.4805 321.922 70.4805ZM326.574 71.4121C326.574 72.3262 327.113 72.8359 328.297 73.123L329.381 73.3867C330.055 73.5508 330.383 73.8438 330.383 74.2773C330.383 74.8574 329.773 75.2617 328.924 75.2617C328.115 75.2617 327.611 74.9219 327.441 74.3887H326.404C326.516 75.4375 327.482 76.1113 328.889 76.1113C330.324 76.1113 331.42 75.332 331.42 74.2012C331.42 73.293 330.846 72.7773 329.656 72.4902L328.684 72.2559C327.939 72.0742 327.588 71.8047 327.588 71.3711C327.588 70.8086 328.174 70.4277 328.924 70.4277C329.686 70.4277 330.178 70.7617 330.312 71.2656H331.309C331.174 70.2285 330.254 69.5723 328.93 69.5723C327.588 69.5723 326.574 70.3633 326.574 71.4121Z" fill="#3C4257"/>
<rect x="192.5" y="32.5" width="159" height="63" rx="7.5" stroke="#E3E8EE"/>
<path d="M384 40C384 35.5817 387.582 32 392 32H536C540.418 32 544 35.5817 544 40V88C544 92.4183 540.418 96 536 96H392C387.582 96 384 92.4183 384 88V40Z" fill="white"/>
<rect x="379" y="27" width="170" height="74" rx="13" stroke="white" stroke-width="10"/>
<path d="M445.262 60V51.5449H443.492V60H445.262ZM447.143 60H448.848V56.2676C448.848 55.3945 449.334 54.832 450.125 54.832C450.934 54.832 451.314 55.3066 451.314 56.2148V60H453.02V55.8281C453.02 54.2871 452.246 53.4082 450.811 53.4082C449.855 53.4082 449.199 53.8594 448.9 54.5859H448.795V53.5488H447.143V60ZM460.344 53.5488H458.545L457.221 58.4004H457.115L455.779 53.5488H453.945L456.189 60H458.111L460.344 53.5488ZM464.094 60.1348C466.08 60.1348 467.275 58.8809 467.275 56.7715C467.275 54.6797 466.062 53.4082 464.094 53.4082C462.125 53.4082 460.912 54.6855 460.912 56.7715C460.912 58.875 462.107 60.1348 464.094 60.1348ZM464.094 58.7871C463.18 58.7871 462.664 58.0488 462.664 56.7715C462.664 55.5059 463.186 54.7617 464.094 54.7617C464.996 54.7617 465.523 55.5059 465.523 56.7715C465.523 58.0488 465.002 58.7871 464.094 58.7871ZM469.537 52.5586C470.064 52.5586 470.498 52.1367 470.498 51.6094C470.498 51.0762 470.064 50.6543 469.537 50.6543C469.01 50.6543 468.57 51.0762 468.57 51.6094C468.57 52.1367 469.01 52.5586 469.537 52.5586ZM468.682 60H470.387V53.5488H468.682V60ZM477.834 55.7988C477.693 54.3574 476.668 53.4082 474.957 53.4082C472.936 53.4082 471.799 54.6328 471.799 56.7598C471.799 58.9102 472.941 60.1348 474.957 60.1348C476.639 60.1348 477.693 59.209 477.834 57.791H476.24C476.111 58.4355 475.654 58.7812 474.957 58.7812C474.043 58.7812 473.521 58.0605 473.521 56.7598C473.521 55.4766 474.037 54.7676 474.957 54.7676C475.684 54.7676 476.123 55.1777 476.24 55.7988H477.834ZM483.348 58.1777C483.166 58.6172 482.703 58.8633 482.029 58.8633C481.139 58.8633 480.576 58.248 480.553 57.2637V57.1758H484.988V56.666C484.988 54.627 483.863 53.4082 481.959 53.4082C480.037 53.4082 478.854 54.709 478.854 56.8066C478.854 58.8926 480.014 60.1348 481.982 60.1348C483.564 60.1348 484.684 59.3789 484.936 58.1777H483.348ZM481.965 54.6797C482.762 54.6797 483.277 55.2305 483.312 56.1152H480.559C480.617 55.248 481.174 54.6797 481.965 54.6797ZM404.662 76.1992C406.461 76.1992 407.797 75.1973 408.078 73.6445H407.006C406.736 74.623 405.84 75.2266 404.662 75.2266C403.033 75.2266 402.014 73.8965 402.014 71.7754C402.014 69.6543 403.033 68.3184 404.656 68.3184C405.822 68.3184 406.725 69.0039 407.006 70.0938H408.078C407.826 68.4648 406.438 67.3457 404.656 67.3457C402.359 67.3457 400.93 69.0449 400.93 71.7754C400.93 74.5 402.365 76.1992 404.662 76.1992ZM414.828 69.6836H413.82V73.4219C413.82 74.5293 413.211 75.1914 412.098 75.1914C411.09 75.1914 410.668 74.6641 410.668 73.5273V69.6836H409.66V73.7734C409.66 75.2676 410.398 76.1113 411.816 76.1113C412.783 76.1113 413.457 75.7129 413.773 75.0098H413.867V76H414.828V69.6836ZM416.58 71.4121C416.58 72.3262 417.119 72.8359 418.303 73.123L419.387 73.3867C420.061 73.5508 420.389 73.8438 420.389 74.2773C420.389 74.8574 419.779 75.2617 418.93 75.2617C418.121 75.2617 417.617 74.9219 417.447 74.3887H416.41C416.521 75.4375 417.488 76.1113 418.895 76.1113C420.33 76.1113 421.426 75.332 421.426 74.2012C421.426 73.293 420.852 72.7773 419.662 72.4902L418.689 72.2559C417.945 72.0742 417.594 71.8047 417.594 71.3711C417.594 70.8086 418.18 70.4277 418.93 70.4277C419.691 70.4277 420.184 70.7617 420.318 71.2656H421.314C421.18 70.2285 420.26 69.5723 418.936 69.5723C417.594 69.5723 416.58 70.3633 416.58 71.4121ZM423.371 68.0488V69.6836H422.352V70.5273H423.371V74.3594C423.371 75.5664 423.893 76.0469 425.193 76.0469C425.393 76.0469 425.586 76.0234 425.785 75.9883V75.1387C425.598 75.1562 425.498 75.1621 425.316 75.1621C424.66 75.1621 424.379 74.8457 424.379 74.1016V70.5273H425.785V69.6836H424.379V68.0488H423.371ZM429.811 76.1113C431.609 76.1113 432.723 74.8691 432.723 72.8418C432.723 70.8086 431.609 69.5723 429.811 69.5723C428.012 69.5723 426.898 70.8086 426.898 72.8418C426.898 74.8691 428.012 76.1113 429.811 76.1113ZM429.811 75.2031C428.615 75.2031 427.941 74.3359 427.941 72.8418C427.941 71.3418 428.615 70.4805 429.811 70.4805C431.006 70.4805 431.68 71.3418 431.68 72.8418C431.68 74.3359 431.006 75.2031 429.811 75.2031ZM434.305 76H435.312V72.0859C435.312 71.1953 435.951 70.4805 436.777 70.4805C437.574 70.4805 438.096 70.9609 438.096 71.7109V76H439.104V71.9395C439.104 71.1367 439.689 70.4805 440.568 70.4805C441.459 70.4805 441.898 70.9375 441.898 71.8691V76H442.906V71.6348C442.906 70.3105 442.186 69.5723 440.896 69.5723C440.023 69.5723 439.303 70.0117 438.963 70.6797H438.869C438.576 70.0234 437.979 69.5723 437.123 69.5723C436.279 69.5723 435.646 69.9766 435.359 70.6797H435.266V69.6836H434.305V76ZM448.555 76H449.562V70.5273H451.01V69.6836H449.562V69.0098C449.562 68.3184 449.867 67.9668 450.594 67.9668C450.775 67.9668 450.945 67.9727 451.068 67.9961V67.1758C450.857 67.1348 450.635 67.1172 450.389 67.1172C449.188 67.1172 448.555 67.7207 448.555 68.9805V69.6836H447.506V70.5273H448.555V76ZM453.008 68.4648C453.395 68.4648 453.711 68.1484 453.711 67.7617C453.711 67.375 453.395 67.0586 453.008 67.0586C452.621 67.0586 452.305 67.375 452.305 67.7617C452.305 68.1484 452.621 68.4648 453.008 68.4648ZM452.504 76H453.512V69.6836H452.504V76ZM459.617 74.3652C459.354 74.9219 458.803 75.2207 457.988 75.2207C456.916 75.2207 456.219 74.4297 456.166 73.1816V73.1348H460.707V72.748C460.707 70.7852 459.67 69.5723 457.965 69.5723C456.23 69.5723 455.117 70.8613 455.117 72.8477C455.117 74.8457 456.213 76.1113 457.965 76.1113C459.348 76.1113 460.332 75.4434 460.625 74.3652H459.617ZM457.953 70.4629C458.955 70.4629 459.623 71.2012 459.646 72.3203H456.166C456.242 71.2012 456.945 70.4629 457.953 70.4629ZM462.348 76H463.355V67.1758H462.348V76ZM467.65 76.1113C468.523 76.1113 469.273 75.6953 469.672 74.9922H469.766V76H470.727V67.1758H469.719V70.6797H469.631C469.273 69.9883 468.529 69.5723 467.65 69.5723C466.045 69.5723 464.996 70.8613 464.996 72.8418C464.996 74.8281 466.033 76.1113 467.65 76.1113ZM467.885 70.4805C469.027 70.4805 469.742 71.3945 469.742 72.8418C469.742 74.3008 469.033 75.2031 467.885 75.2031C466.73 75.2031 466.039 74.3184 466.039 72.8418C466.039 71.3711 466.736 70.4805 467.885 70.4805ZM478.666 76.1113C480.465 76.1113 481.578 74.8691 481.578 72.8418C481.578 70.8086 480.465 69.5723 478.666 69.5723C476.867 69.5723 475.754 70.8086 475.754 72.8418C475.754 74.8691 476.867 76.1113 478.666 76.1113ZM478.666 75.2031C477.471 75.2031 476.797 74.3359 476.797 72.8418C476.797 71.3418 477.471 70.4805 478.666 70.4805C479.861 70.4805 480.535 71.3418 480.535 72.8418C480.535 74.3359 479.861 75.2031 478.666 75.2031ZM488.082 69.6836H487.004L485.275 74.8867H485.182L483.453 69.6836H482.375L484.713 76H485.744L488.082 69.6836ZM493.379 74.3652C493.115 74.9219 492.564 75.2207 491.75 75.2207C490.678 75.2207 489.98 74.4297 489.928 73.1816V73.1348H494.469V72.748C494.469 70.7852 493.432 69.5723 491.727 69.5723C489.992 69.5723 488.879 70.8613 488.879 72.8477C488.879 74.8457 489.975 76.1113 491.727 76.1113C493.109 76.1113 494.094 75.4434 494.387 74.3652H493.379ZM491.715 70.4629C492.717 70.4629 493.385 71.2012 493.408 72.3203H489.928C490.004 71.2012 490.707 70.4629 491.715 70.4629ZM496.051 76H497.059V72.0859C497.059 71.1953 497.756 70.5508 498.717 70.5508C498.916 70.5508 499.279 70.5859 499.361 70.6094V69.6016C499.232 69.584 499.021 69.5723 498.857 69.5723C498.02 69.5723 497.293 70.0059 497.105 70.6211H497.012V69.6836H496.051V76ZM500.738 76H501.746V72.0859C501.746 71.1953 502.443 70.5508 503.404 70.5508C503.604 70.5508 503.967 70.5859 504.049 70.6094V69.6016C503.92 69.584 503.709 69.5723 503.545 69.5723C502.707 69.5723 501.98 70.0059 501.793 70.6211H501.699V69.6836H500.738V76ZM505.836 68.4648C506.223 68.4648 506.539 68.1484 506.539 67.7617C506.539 67.375 506.223 67.0586 505.836 67.0586C505.449 67.0586 505.133 67.375 505.133 67.7617C505.133 68.1484 505.449 68.4648 505.836 68.4648ZM505.332 76H506.34V69.6836H505.332V76ZM510.6 76.1113C511.473 76.1113 512.223 75.6953 512.621 74.9922H512.715V76H513.676V67.1758H512.668V70.6797H512.58C512.223 69.9883 511.479 69.5723 510.6 69.5723C508.994 69.5723 507.945 70.8613 507.945 72.8418C507.945 74.8281 508.982 76.1113 510.6 76.1113ZM510.834 70.4805C511.977 70.4805 512.691 71.3945 512.691 72.8418C512.691 74.3008 511.982 75.2031 510.834 75.2031C509.68 75.2031 508.988 74.3184 508.988 72.8418C508.988 71.3711 509.686 70.4805 510.834 70.4805ZM519.816 74.3652C519.553 74.9219 519.002 75.2207 518.188 75.2207C517.115 75.2207 516.418 74.4297 516.365 73.1816V73.1348H520.906V72.748C520.906 70.7852 519.869 69.5723 518.164 69.5723C516.43 69.5723 515.316 70.8613 515.316 72.8477C515.316 74.8457 516.412 76.1113 518.164 76.1113C519.547 76.1113 520.531 75.4434 520.824 74.3652H519.816ZM518.152 70.4629C519.154 70.4629 519.822 71.2012 519.846 72.3203H516.365C516.441 71.2012 517.145 70.4629 518.152 70.4629ZM522.342 71.4121C522.342 72.3262 522.881 72.8359 524.064 73.123L525.148 73.3867C525.822 73.5508 526.15 73.8438 526.15 74.2773C526.15 74.8574 525.541 75.2617 524.691 75.2617C523.883 75.2617 523.379 74.9219 523.209 74.3887H522.172C522.283 75.4375 523.25 76.1113 524.656 76.1113C526.092 76.1113 527.188 75.332 527.188 74.2012C527.188 73.293 526.613 72.7773 525.424 72.4902L524.451 72.2559C523.707 72.0742 523.355 71.8047 523.355 71.3711C523.355 70.8086 523.941 70.4277 524.691 70.4277C525.453 70.4277 525.945 70.7617 526.08 71.2656H527.076C526.941 70.2285 526.021 69.5723 524.697 69.5723C523.355 69.5723 522.342 70.3633 522.342 71.4121Z" fill="#3C4257"/>
<rect x="384.5" y="32.5" width="159" height="63" rx="7.5" stroke="#E3E8EE"/>
<path d="M360.5 63.25C360.086 63.25 359.75 63.5858 359.75 64C359.75 64.4142 360.086 64.75 360.5 64.75V63.25ZM376.03 64.5303C376.323 64.2374 376.323 63.7626 376.03 63.4697L371.257 58.6967C370.964 58.4038 370.49 58.4038 370.197 58.6967C369.904 58.9896 369.904 59.4645 370.197 59.7574L374.439 64L370.197 68.2426C369.904 68.5355 369.904 69.0104 370.197 69.3033C370.49 69.5962 370.964 69.5962 371.257 69.3033L376.03 64.5303ZM360.5 64.75H375.5V63.25L360.5 63.25V64.75Z" fill="#8792A2"/>
<defs>
<clipPath id="clip0">
<path d="M0 0H736V128H0V0Z" fill="white"/>
</clipPath>
</defs>
</svg>
